<?xml version="1.0" encoding="UTF-8" standalone="no"?>
<svg
   width="64"
   height="64"
   version="1.1"
   viewBox="0 0 16.933 16.933"
   id="svg7"
   sodipodi:docname="device-notifier.svg"
   inkscape:version="1.4.2 (ebf0e940d0, 2025-05-08)"
   xmlns:inkscape="http://www.inkscape.org/namespaces/inkscape"
   xmlns:sodipodi="http://sodipodi.sourceforge.net/DTD/sodipodi-0.dtd"
   xmlns="http://www.w3.org/2000/svg"
   xmlns:svg="http://www.w3.org/2000/svg"
   xmlns:rdf="http://www.w3.org/1999/02/22-rdf-syntax-ns#"
   xmlns:cc="http://creativecommons.org/ns#"
   xmlns:dc="http://purl.org/dc/elements/1.1/">
  <sodipodi:namedview
     id="namedview7"
     pagecolor="#9c4444"
     bordercolor="#000000"
     borderopacity="0.25"
     inkscape:showpageshadow="2"
     inkscape:pageopacity="0.0"
     inkscape:pagecheckerboard="0"
     inkscape:deskcolor="#d1d1d1"
     inkscape:zoom="6.15625"
     inkscape:cx="15.675127"
     inkscape:cy="27.208122"
     inkscape:window-width="1226"
     inkscape:window-height="669"
     inkscape:window-x="0"
     inkscape:window-y="0"
     inkscape:window-maximized="0"
     inkscape:current-layer="svg7"
     showgrid="false" />
  <defs
     id="defs2">
    <style
       id="current-color-scheme"
       type="text/css">.ColorScheme-Text {color:#d8dee9} .ColorScheme-Highlight {color:#3b4252}</style>
  </defs>
  <metadata
     id="metadata2">
    <rdf:RDF>
      <cc:Work
         rdf:about="">
        <dc:format>image/svg+xml</dc:format>
        <dc:type
           rdf:resource="http://purl.org/dc/dcmitype/StillImage" />
      </cc:Work>
    </rdf:RDF>
  </metadata>
  <path
     id="path1-6"
     style="fill:currentColor;stroke-width:0.047921"
     d="m 8.4347421,2.1166415 c -3.0710332,0 -3.0404786,-0.00197 -3.314887,0.2542389 -0.2589387,0.241769 -0.2477202,0.028784 -0.2477202,4.6936455 V 11.39311 l 0.1083768,0.211052 c 0.1229851,0.240684 0.2869814,0.377515 0.5207017,0.432696 0.2264527,0.05346 5.6788016,0.05491 5.9086136,0.0016 0.258618,-0.05999 0.4157,-0.185774 0.542704,-0.434325 L 12.060915,11.39306 V 7.0889393 c 0,-4.6319147 0.0076,-4.4846363 -0.246906,-4.7189069 C 11.542102,2.1197228 11.503063,2.1166248 8.4347421,2.1166248 Z M 8.0354559,4.4170169 H 8.4665221 8.8975877 V 6.3099572 8.2028979 H 8.4665221 8.0354559 V 6.3099572 Z m 0.4612166,4.6007506 c 0.2327949,0 0.4012884,0.1763757 0.3992852,0.4172131 -0.00167,0.1986628 -0.061387,0.3037198 -0.222459,0.3895066 C 8.4962229,9.9189045 8.3254127,9.8895408 8.1756138,9.7397422 8.0190528,9.5831826 7.9974692,9.421497 8.105535,9.2125215 8.1862011,9.0565328 8.2645463,9.017768 8.4966725,9.0177675 Z M 5.7831576,13.04322 v 0.88658 0.886576 H 8.4665221 11.149885 V 13.9298 13.04322 H 8.4665221 Z"
     class="ColorScheme-Text" />
</svg>
