<?xml version="1.0" encoding="UTF-8" standalone="no"?>
<svg
   width="64"
   height="64"
   version="1.1"
   viewBox="0 0 16.933 16.933"
   id="svg7"
   sodipodi:docname="face-smile.svg"
   inkscape:version="1.4.2 (ebf0e940d0, 2025-05-08)"
   xmlns:inkscape="http://www.inkscape.org/namespaces/inkscape"
   xmlns:sodipodi="http://sodipodi.sourceforge.net/DTD/sodipodi-0.dtd"
   xmlns="http://www.w3.org/2000/svg"
   xmlns:svg="http://www.w3.org/2000/svg"
   xmlns:rdf="http://www.w3.org/1999/02/22-rdf-syntax-ns#"
   xmlns:cc="http://creativecommons.org/ns#"
   xmlns:dc="http://purl.org/dc/elements/1.1/">
  <sodipodi:namedview
     id="namedview7"
     pagecolor="#9c4444"
     bordercolor="#000000"
     borderopacity="0.25"
     inkscape:showpageshadow="2"
     inkscape:pageopacity="0.0"
     inkscape:pagecheckerboard="0"
     inkscape:deskcolor="#d1d1d1"
     inkscape:zoom="6.15625"
     inkscape:cx="15.756345"
     inkscape:cy="29.64467"
     inkscape:window-width="1226"
     inkscape:window-height="669"
     inkscape:window-x="0"
     inkscape:window-y="0"
     inkscape:window-maximized="0"
     inkscape:current-layer="svg7"
     showgrid="false" />
  <defs
     id="defs2">
    <style
       id="current-color-scheme"
       type="text/css">.ColorScheme-Text {color:#d8dee9} .ColorScheme-Highlight {color:#3b4252}</style>
  </defs>
  <metadata
     id="metadata2">
    <rdf:RDF>
      <cc:Work
         rdf:about="">
        <dc:format>image/svg+xml</dc:format>
        <dc:type
           rdf:resource="http://purl.org/dc/dcmitype/StillImage" />
      </cc:Work>
    </rdf:RDF>
  </metadata>
  <path
     style="fill:currentColor;stroke-width:0.0189442"
     d="M 7.940751,14.801758 C 6.4114354,14.658964 5.0843935,14.051667 4.0126711,13.004138 2.9579649,11.973242 2.319427,10.6577 2.1407018,9.1474306 c -0.032102,-0.2712791 -0.032102,-1.092695 0,-1.3639742 C 2.3206807,6.2625893 2.9626975,4.9467592 4.0310302,3.9091764 5.036312,2.9328302 6.2497491,2.3503061 7.6850055,2.1550446 c 0.1821397,-0.02478 0.3794706,-0.033804 0.7577634,-0.034648 0.5202161,-0.00116 0.6962878,0.01233 1.127173,0.086522 2.0008261,0.3444261 3.7345091,1.6596496 4.6214781,3.505985 1.25218,2.6065683 0.579047,5.7522354 -1.628313,7.6093854 -0.974409,0.819808 -2.105639,1.306137 -3.4004625,1.461893 -0.2283165,0.02747 -0.9974799,0.03853 -1.2218935,0.01757 z m 0.97562,-3.19116 c 0.3314616,-0.06941 0.6162542,-0.189728 0.9081203,-0.383653 0.3081817,-0.204765 0.6590937,-0.568063 0.8692927,-0.899967 0.07956,-0.125635 0.1833,-0.326504 0.1833,-0.3549394 0,-0.011892 -0.06526,-0.019472 -0.167191,-0.019472 h -0.167191 l -0.09964,0.1228084 c -0.146325,0.180342 -0.431892,0.44349 -0.6116393,0.563613 -0.4457409,0.297887 -0.8736143,0.431274 -1.3834272,0.431274 -0.485716,0 -0.9155311,-0.136903 -1.357744,-0.432446 C 6.9126891,10.51914 6.5874357,10.217896 6.4636974,10.057508 L 6.3827274,9.9525546 H 6.2050635 c -0.097718,0 -0.1776653,0.00583 -0.1776653,0.012989 0,0.023647 0.2043189,0.3732614 0.2875966,0.4921064 0.4472204,0.638225 1.0841705,1.053815 1.7962534,1.171992 0.2026363,0.03362 0.598223,0.02425 0.8051233,-0.01907 z M 6.4055083,7.081409 C 6.8980794,6.9693762 7.2030128,6.4538507 7.0724814,5.9538142 6.9517026,5.4911406 6.474389,5.1963418 6.0046503,5.2942996 5.8549941,5.3255086 5.6819734,5.4143938 5.568983,5.518113 5.18456,5.870993 5.1726687,6.4684574 5.5427221,6.8375564 5.7750234,7.0692588 6.0799782,7.1554492 6.4055083,7.081409 Z m 4.5465807,0 C 11.444662,6.9693762 11.749593,6.4538507 11.619063,5.9538142 11.498286,5.4911406 11.02097,5.1963418 10.551231,5.2942996 10.401576,5.3255091 10.228555,5.4143938 10.115564,5.518113 9.7311415,5.870993 9.71925,6.4684574 10.089306,6.8375564 c 0.2323,0.2317024 0.537255,0.3178928 0.862786,0.2438526 z"
     id="path99"
     class="ColorScheme-Text" />
  <g
     id="g9"
     transform="matrix(0.31242188,0,0,0.31242188,3.3308409,2.6663289)"
     style="fill:#999999;fill-opacity:1;stroke:none;stroke-width:0.58349;stroke-dasharray:none;stroke-opacity:0.3" />
</svg>
