<?xml version="1.0" encoding="UTF-8" standalone="no"?>
<svg
   width="64"
   height="64"
   version="1.1"
   viewBox="0 0 16.933 16.933"
   id="svg7"
   sodipodi:docname="financial-schedule.svg"
   inkscape:version="1.4.2 (ebf0e940d0, 2025-05-08)"
   xmlns:inkscape="http://www.inkscape.org/namespaces/inkscape"
   xmlns:sodipodi="http://sodipodi.sourceforge.net/DTD/sodipodi-0.dtd"
   xmlns="http://www.w3.org/2000/svg"
   xmlns:svg="http://www.w3.org/2000/svg"
   xmlns:rdf="http://www.w3.org/1999/02/22-rdf-syntax-ns#"
   xmlns:cc="http://creativecommons.org/ns#"
   xmlns:dc="http://purl.org/dc/elements/1.1/">
  <sodipodi:namedview
     id="namedview7"
     pagecolor="#9c4444"
     bordercolor="#000000"
     borderopacity="0.25"
     inkscape:showpageshadow="2"
     inkscape:pageopacity="0.0"
     inkscape:pagecheckerboard="0"
     inkscape:deskcolor="#d1d1d1"
     inkscape:zoom="6.15625"
     inkscape:cx="15.756345"
     inkscape:cy="29.64467"
     inkscape:window-width="1226"
     inkscape:window-height="669"
     inkscape:window-x="0"
     inkscape:window-y="0"
     inkscape:window-maximized="0"
     inkscape:current-layer="svg7"
     showgrid="false" />
  <defs
     id="defs2">
    <style
       id="current-color-scheme"
       type="text/css">.ColorScheme-Text {color:#d8dee9} .ColorScheme-Highlight {color:#3b4252}</style>
  </defs>
  <metadata
     id="metadata2">
    <rdf:RDF>
      <cc:Work
         rdf:about="">
        <dc:format>image/svg+xml</dc:format>
        <dc:type
           rdf:resource="http://purl.org/dc/dcmitype/StillImage" />
      </cc:Work>
    </rdf:RDF>
  </metadata>
  <path
     id="path51393"
     style="fill:currentColor;fill-opacity:1;stroke:none;stroke-width:0.328493;stroke-dasharray:none;stroke-opacity:0.3"
     d="m 11.227186,5.3210501 c -1.2341365,-0.00208 -1.9781758,0.6920376 -2.2782815,2.1249413 -0.1559581,0.7446552 -0.1541271,2.0666297 0.00385,2.6529676 0.2235651,0.829778 0.6997407,1.362614 1.3274465,1.486562 0.510823,0.100872 1.135628,-0.09474 1.451273,-0.454245 C 12.12843,10.679173 12.319072,9.8842024 12.210101,9.1365771 12.136423,8.6310292 11.968898,8.2847099 11.658981,7.9990408 11.395372,7.7560557 11.154952,7.6712239 10.735094,7.6724717 10.346628,7.6736397 10.074492,7.8083169 9.7791256,8.1459644 L 9.5333972,8.4263384 V 8.1838179 c 0,-0.363477 0.1373637,-1.0105049 0.2790909,-1.3146144 C 9.9691864,6.5329696 10.221051,6.2757189 10.525936,6.1397171 10.803403,6.015946 11.409567,5.9647156 11.687852,6.0415531 l 0.196325,0.053893 V 5.7400076 c 0,-0.4194217 0.0018,-0.4178406 -0.656986,-0.4189575 z m -4.8927548,0.00515 c -0.043784,2.158e-4 -0.088705,0.00161 -0.1347329,0.00385 C 5.8131623,5.3487603 5.7002777,5.376539 5.4329996,5.519954 5.260633,5.6124383 5.0273614,5.7667882 4.9139542,5.862559 L 4.7073629,6.0364293 4.8799496,6.3052551 c 0.094856,0.1478188 0.1880464,0.2688252 0.2072337,0.2688252 0.019188,0 0.1212103,-0.07106 0.2264808,-0.1578305 C 5.6146505,6.1681509 5.915811,6.0537501 6.274122,6.052469 6.8555669,6.0503864 7.1391608,6.3727683 7.1370586,7.0334581 7.1346872,7.7867331 6.9959661,8.0142326 5.2559212,10.125915 l -0.5799959,0.704464 v 0.352874 0.352872 H 6.3735678 8.0712112 V 11.144118 10.752747 H 6.8130563 c -0.7274555,0 -1.2509005,-0.02018 -1.240832,-0.04748 0.00956,-0.02597 0.3233037,-0.404729 0.6967652,-0.8417649 C 7.6580607,8.2379727 7.8954268,7.7806271 7.85243,6.814676 7.8345015,6.4119458 7.8083984,6.2962665 7.6798421,6.0608098 7.3999038,5.5480909 6.9911945,5.3229484 6.3344312,5.3261907 Z M 2.4990152,6.8890947 C 2.417464,6.8884013 2.3304238,6.9300123 2.2449464,7.0154873 l -0.1283181,0.128318 v 1.3011416 c 0,1.237235 0.00486,1.307575 0.1077864,1.4384416 0.1666129,0.2118135 0.4159963,0.1775595 0.5466337,-0.075065 0.11139,-0.2154099 0.11139,-2.4927363 0,-2.7081454 C 2.6991386,6.9611205 2.6038683,6.8899707 2.4990152,6.8890954 Z m 11.9611358,0 c -0.08154,-6.934e-4 -0.168588,0.040915 -0.254071,0.1263926 l -0.12831,0.128318 v 1.3011416 c 0,1.2372396 0.0055,1.307575 0.108432,1.4384416 0.166615,0.2118145 0.415994,0.1775595 0.546632,-0.075065 0.111384,-0.2154106 0.111384,-2.4927352 0,-2.7081454 -0.07192,-0.1390584 -0.167832,-0.2102082 -0.272687,-0.2110838 z m -3.845682,1.4608974 c 0.379541,0 0.605018,0.1304064 0.768624,0.4439792 0.09209,0.1765061 0.109068,0.3022293 0.109068,0.8096841 0,0.5604716 -0.0097,0.6168726 -0.143074,0.8436896 -0.09924,0.168809 -0.211851,0.276203 -0.368906,0.352233 -0.257517,0.124659 -0.513822,0.137196 -0.741672,0.03594 C 9.6614889,10.579051 9.356966,9.4522407 9.7046957,8.8606953 9.9068188,8.5168504 10.204157,8.3499907 10.614469,8.3499907 Z"
     class="ColorScheme-Text" />
</svg>
