<?xml version="1.0" encoding="UTF-8" standalone="no"?>
<svg
   width="64"
   height="64"
   version="1.1"
   viewBox="0 0 16.933 16.933"
   id="svg7"
   sodipodi:docname="kaccess.svg"
   inkscape:version="1.4.2 (ebf0e940d0, 2025-05-08)"
   xmlns:inkscape="http://www.inkscape.org/namespaces/inkscape"
   xmlns:sodipodi="http://sodipodi.sourceforge.net/DTD/sodipodi-0.dtd"
   xmlns="http://www.w3.org/2000/svg"
   xmlns:svg="http://www.w3.org/2000/svg"
   xmlns:rdf="http://www.w3.org/1999/02/22-rdf-syntax-ns#"
   xmlns:cc="http://creativecommons.org/ns#"
   xmlns:dc="http://purl.org/dc/elements/1.1/">
  <sodipodi:namedview
     id="namedview7"
     pagecolor="#9c4444"
     bordercolor="#000000"
     borderopacity="0.25"
     inkscape:showpageshadow="2"
     inkscape:pageopacity="0.0"
     inkscape:pagecheckerboard="0"
     inkscape:deskcolor="#d1d1d1"
     inkscape:zoom="6.15625"
     inkscape:cx="15.675127"
     inkscape:cy="27.208122"
     inkscape:window-width="1226"
     inkscape:window-height="669"
     inkscape:window-x="0"
     inkscape:window-y="0"
     inkscape:window-maximized="0"
     inkscape:current-layer="svg7"
     showgrid="false" />
  <defs
     id="defs2">
    <style
       id="current-color-scheme"
       type="text/css">.ColorScheme-Text {color:#d8dee9} .ColorScheme-Highlight {color:#3b4252}</style>
  </defs>
  <metadata
     id="metadata2">
    <rdf:RDF>
      <cc:Work
         rdf:about="">
        <dc:format>image/svg+xml</dc:format>
        <dc:type
           rdf:resource="http://purl.org/dc/dcmitype/StillImage" />
      </cc:Work>
    </rdf:RDF>
  </metadata>
  <path
     style="clip-rule:nonzero;display:inline;overflow:visible;visibility:visible;isolation:auto;mix-blend-mode:normal;color-interpolation:sRGB;color-interpolation-filters:linearRGB;solid-opacity:1;fill:currentColor;fill-opacity:1;fill-rule:evenodd;stroke:none;stroke-width:0.39102;stroke-linecap:butt;stroke-linejoin:miter;stroke-miterlimit:4;stroke-dasharray:none;stroke-dashoffset:0;stroke-opacity:0.3;color-rendering:auto;image-rendering:auto;shape-rendering:auto;text-rendering:auto;enable-background:accumulate"
     d="M 8.4663584,2.1166253 A 1.5159136,1.6277812 0 0 0 6.9504445,3.7444062 1.5159136,1.6277812 0 0 0 8.4663584,5.3721867 1.5159136,1.6277812 0 0 0 9.9822717,3.7444062 1.5159136,1.6277812 0 0 0 8.4663584,2.1166253 Z M 3.6225403,5.697743 C 3.273831,5.6881524 3.1883482,6.2146296 3.5195054,6.3323233 L 6.9504445,7.5601537 V 10.20657 l -1.1991118,4.185177 c -0.1071792,0.371811 0.3735621,0.595653 0.5530716,0.25752 l 2.1619541,-4.062457 2.1619536,4.062457 c 0.179303,0.339901 0.662216,0.114492 0.553073,-0.258155 L 9.9822717,10.254258 V 7.5601537 L 13.413211,6.3323233 c 0.348546,-0.1239228 0.230353,-0.68212 -0.133824,-0.6320366 L 8.4663584,6.346313 3.6533323,5.7002867 c -0.010212,-0.00136 -0.020492,-0.00227 -0.030796,-0.00257 z"
     id="path4184"
     class="ColorScheme-Text" />
</svg>
