<?xml version="1.0" encoding="UTF-8" standalone="no"?>
<svg
   width="64"
   height="64"
   version="1.1"
   viewBox="0 0 16.933 16.933"
   id="svg7"
   sodipodi:docname="krunner.svg"
   inkscape:version="1.4.2 (ebf0e940d0, 2025-05-08)"
   xmlns:inkscape="http://www.inkscape.org/namespaces/inkscape"
   xmlns:sodipodi="http://sodipodi.sourceforge.net/DTD/sodipodi-0.dtd"
   xmlns="http://www.w3.org/2000/svg"
   xmlns:svg="http://www.w3.org/2000/svg"
   xmlns:rdf="http://www.w3.org/1999/02/22-rdf-syntax-ns#"
   xmlns:cc="http://creativecommons.org/ns#"
   xmlns:dc="http://purl.org/dc/elements/1.1/">
  <sodipodi:namedview
     id="namedview7"
     pagecolor="#9c4444"
     bordercolor="#000000"
     borderopacity="0.25"
     inkscape:showpageshadow="2"
     inkscape:pageopacity="0.0"
     inkscape:pagecheckerboard="0"
     inkscape:deskcolor="#d1d1d1"
     inkscape:zoom="6.15625"
     inkscape:cx="15.756345"
     inkscape:cy="27.208122"
     inkscape:window-width="1226"
     inkscape:window-height="669"
     inkscape:window-x="0"
     inkscape:window-y="0"
     inkscape:window-maximized="0"
     inkscape:current-layer="svg7"
     showgrid="false" />
  <defs
     id="defs2">
    <style
       id="current-color-scheme"
       type="text/css">.ColorScheme-Text {color:#d8dee9} .ColorScheme-Highlight {color:#3b4252}</style>
  </defs>
  <metadata
     id="metadata2">
    <rdf:RDF>
      <cc:Work
         rdf:about="">
        <dc:format>image/svg+xml</dc:format>
        <dc:type
           rdf:resource="http://purl.org/dc/dcmitype/StillImage" />
      </cc:Work>
    </rdf:RDF>
  </metadata>
  <path
     style="fill:currentColor;stroke:none;stroke-width:0.463842;stroke-dasharray:none;stroke-opacity:0.3"
     d="m 7.1007303,2.116666 c 2.7405984,0 5.0048857,2.2442058 5.0048857,4.9879313 0,1.0428408 -0.352174,2.002247 -0.904845,2.8057571 l 3.33662,3.3441826 A 0.9098231,0.91188472 0 0 1 13.264905,14.5582 L 9.9282848,11.214018 c -0.8028599,0.554034 -1.7852617,0.878558 -2.8276444,0.878558 -2.7406899,0 -4.9766541,-2.2442079 -4.9766541,-4.9879329 0,-2.7437262 2.2359642,-4.9879321 4.9766541,-4.9879321 z m 0,1.8137933 c -1.7620996,0 -3.1669643,1.4100425 -3.1669643,3.174138 0,1.7640046 1.4048647,3.1741377 3.1669643,3.1741377 1.7620968,0 3.1669607,-1.4101331 3.1669607,-3.1741377 0,-1.7640955 -1.4048639,-3.174138 -3.1669607,-3.174138 z"
     id="path8"
     class="ColorScheme-Text" />
</svg>
