<?xml version="1.0" encoding="UTF-8" standalone="no"?>
<svg
   width="64"
   height="64"
   version="1.1"
   viewBox="0 0 16.933 16.933"
   id="svg7"
   sodipodi:docname="plasma.svg"
   inkscape:version="1.4.2 (ebf0e940d0, 2025-05-08)"
   xmlns:inkscape="http://www.inkscape.org/namespaces/inkscape"
   xmlns:sodipodi="http://sodipodi.sourceforge.net/DTD/sodipodi-0.dtd"
   xmlns="http://www.w3.org/2000/svg"
   xmlns:svg="http://www.w3.org/2000/svg"
   xmlns:rdf="http://www.w3.org/1999/02/22-rdf-syntax-ns#"
   xmlns:cc="http://creativecommons.org/ns#"
   xmlns:dc="http://purl.org/dc/elements/1.1/">
  <sodipodi:namedview
     id="namedview7"
     pagecolor="#9c4444"
     bordercolor="#000000"
     borderopacity="0.25"
     inkscape:showpageshadow="2"
     inkscape:pageopacity="0.0"
     inkscape:pagecheckerboard="0"
     inkscape:deskcolor="#d1d1d1"
     inkscape:zoom="6.15625"
     inkscape:cx="15.756345"
     inkscape:cy="27.208122"
     inkscape:window-width="1226"
     inkscape:window-height="669"
     inkscape:window-x="0"
     inkscape:window-y="0"
     inkscape:window-maximized="0"
     inkscape:current-layer="svg7"
     showgrid="false" />
  <defs
     id="defs2">
    <style
       id="current-color-scheme"
       type="text/css">.ColorScheme-Text {color:#d8dee9} .ColorScheme-Highlight {color:#3b4252}</style>
  </defs>
  <metadata
     id="metadata2">
    <rdf:RDF>
      <cc:Work
         rdf:about="">
        <dc:format>image/svg+xml</dc:format>
        <dc:type
           rdf:resource="http://purl.org/dc/dcmitype/StillImage" />
      </cc:Work>
    </rdf:RDF>
  </metadata>
  <path
     style="fill:currentColor;fill-opacity:1;stroke:none;stroke-width:0.423325"
     d="M 10.58312,2.1166232 9.0591538,3.5982601 11.853098,6.3498736 9.0591538,9.101488 10.58312,10.583121 14.816376,6.3498736 Z M 5.0798992,2.5399492 A 0.84664994,0.84664994 0 0 0 4.2332498,3.3865975 0.84664994,0.84664994 0 0 0 5.0798992,4.2332485 0.84664994,0.84664994 0 0 0 5.9265502,3.3865975 0.84664994,0.84664994 0 0 0 5.0798992,2.5399492 Z M 3.1749377,7.1965243 A 1.0583123,1.0583123 0 0 0 2.1166248,8.2548402 1.0583123,1.0583123 0 0 0 3.1749377,9.3131503 1.0583123,1.0583123 0 0 0 4.2332498,8.2548402 1.0583123,1.0583123 0 0 0 3.1749377,7.1965243 Z m 4.0215857,4.2332547 a 1.6932996,1.6932996 0 0 0 -1.693299,1.693298 1.6932996,1.6932996 0 0 0 1.693299,1.6933 1.6932996,1.6932996 0 0 0 1.6933001,-1.6933 1.6932996,1.6932996 0 0 0 -1.6933001,-1.693298 z"
     class="ColorScheme-Text"
     id="path5-4" />
</svg>
