<?xml version="1.0" encoding="UTF-8" standalone="no"?>
<svg
   width="64"
   height="64"
   version="1.1"
   viewBox="0 0 16.933 16.933"
   id="svg7"
   sodipodi:docname="preferences-system-linux.svg"
   inkscape:version="1.4.2 (ebf0e940d0, 2025-05-08)"
   xmlns:inkscape="http://www.inkscape.org/namespaces/inkscape"
   xmlns:sodipodi="http://sodipodi.sourceforge.net/DTD/sodipodi-0.dtd"
   xmlns="http://www.w3.org/2000/svg"
   xmlns:svg="http://www.w3.org/2000/svg"
   xmlns:rdf="http://www.w3.org/1999/02/22-rdf-syntax-ns#"
   xmlns:cc="http://creativecommons.org/ns#"
   xmlns:dc="http://purl.org/dc/elements/1.1/">
  <sodipodi:namedview
     id="namedview7"
     pagecolor="#9c4444"
     bordercolor="#000000"
     borderopacity="0.25"
     inkscape:showpageshadow="2"
     inkscape:pageopacity="0.0"
     inkscape:pagecheckerboard="0"
     inkscape:deskcolor="#d1d1d1"
     inkscape:zoom="4.3531261"
     inkscape:cx="36.410615"
     inkscape:cy="40.200995"
     inkscape:window-width="1543"
     inkscape:window-height="1372"
     inkscape:window-x="0"
     inkscape:window-y="0"
     inkscape:window-maximized="0"
     inkscape:current-layer="svg7"
     showgrid="false" />
  <defs
     id="defs2">
    <style
       id="current-color-scheme"
       type="text/css">.ColorScheme-Text {color:#d8dee9} .ColorScheme-Highlight {color:#3b4252}</style>
  </defs>
  <metadata
     id="metadata2">
    <rdf:RDF>
      <cc:Work
         rdf:about="">
        <dc:format>image/svg+xml</dc:format>
        <dc:type
           rdf:resource="http://purl.org/dc/dcmitype/StillImage" />
      </cc:Work>
    </rdf:RDF>
  </metadata>
  <path
     id="path8"
     class="ColorScheme-Text"
     style="fill:currentColor;fill-opacity:1;stroke-width:0.459533"
     d="M 8.7005696,2.1174059 C 8.6392892,2.1156659 8.5776699,2.116937 8.5174761,2.1201059 7.6779075,2.1637619 6.859134,2.4974976 6.8085866,3.9725995 6.7856066,4.6481135 6.945294,5.3448158 6.779855,6.0001109 6.3961459,7.520247 4.7089414,8.6066627 4.6078424,10.170915 c -0.020215,0.313572 -0.02072,0.646626 0.00172,0.985483 0.00694,-0.0097 0.013548,-0.01909 0.020635,-0.02873 0.089083,-0.121605 0.1852075,-0.228783 0.3249043,-0.26118 0.035707,-0.0083 0.07191,-0.01211 0.108606,-0.01164 0.015628,1.87e-4 0.031804,0.0011 0.047569,0.0028 a 0.48434809,0.48434809 0 0 1 0.01164,0.0018 c 0.00419,5.06e-4 0.0083,0.002 0.012504,0.0028 0.018307,0.0026 0.036494,0.0055 0.054742,0.0098 0.1464514,0.03456 0.2894741,0.119208 0.4020913,0.211817 0.3956588,0.325348 0.4558218,0.925678 0.7673858,1.332825 0.031718,0.04133 0.066869,0.07988 0.104106,0.116676 0.5977447,0.301145 1.1073164,0.348557 0.8571385,0.04308 L 5.8078134,10.726581 C 5.8638811,10.420533 5.9454236,10.115776 6.0097573,9.8111052 6.1687488,9.0565512 6.6999457,8.2653777 6.9108728,7.6606319 7.1132668,7.0803462 6.8539236,6.6712494 7.265396,6.2586963 7.112952,6.1601265 6.9734502,6.0472992 6.9683125,5.8843946 6.9620647,5.6960342 7.1250984,5.5565535 7.2959085,5.4338364 A 0.48113141,0.71687189 0 0 1 7.0446016,4.8046709 0.48113141,0.71687189 0 0 1 7.5256748,4.0875475 0.48113141,0.71687189 0 0 1 8.0067489,4.8046709 0.48113141,0.71687189 0 0 1 7.9905987,4.9895611 c 0.06989,-0.02545 0.1413795,-0.041891 0.2154058,-0.045774 0.092106,-0.0049 0.1820083,0.00932 0.2701555,0.0359 A 0.68102833,0.88046575 0 0 1 8.457346,4.7731851 0.68102833,0.88046575 0 0 1 9.1385675,3.8927121 0.68102833,0.88046575 0 0 1 9.8197904,4.7731851 0.68102833,0.88046575 0 0 1 9.5783555,5.4463295 c 0.1241509,0.059107 0.2188939,0.1377152 0.2351529,0.2647702 0.00955,0.074119 -0.0059,0.1408727 -0.039498,0.2028408 0.5297266,0.4249374 0.3236336,1.3700126 0.5367206,1.8910871 0.222415,0.5450066 0.46629,0.7161968 0.675838,1.3301335 0.120849,0.3520027 0.361113,0.771679 0.481971,1.2394839 -0.200816,-0.03217 -0.434095,-0.01927 -0.543005,0.132835 -0.105684,0.147998 -0.132764,0.313057 -0.1068,0.469406 0.0019,-0.0018 0.0043,-0.0036 0.0062,-0.0054 0.02171,0.103224 0.07078,0.207403 0.136431,0.301567 v 9.42e-4 c 0.109404,0.156681 0.266115,0.283991 0.422733,0.327597 0.25935,0.07198 0.621785,-0.06684 0.797004,-0.292593 0.02502,-0.03224 0.04628,-0.06598 0.06282,-0.101424 0.136864,0.0037 0.276522,4.19e-4 0.405682,0.01795 0.0582,0.0079 0.11406,0.01986 0.166946,0.03859 0.07385,-0.368282 0.108744,-0.738411 0.103236,-1.093186 C 12.895022,8.6167827 11.176799,7.5324133 10.776547,6.0297393 10.604679,5.3854737 10.72301,4.6977102 10.690382,4.0318466 10.625761,2.7273465 9.6197138,2.143572 8.7005678,2.1174237 Z m 0.3536272,2.3389525 a 0.27893671,0.46091189 0 0 0 -0.2791319,0.460431 0.27893671,0.46091189 0 0 0 0.028732,0.2055333 c 0.086513,0.044964 0.1726434,0.091246 0.2575905,0.1319367 0.042348,0.020394 0.088753,0.03932 0.1382189,0.056544 A 0.27893671,0.46091189 0 0 0 9.3333405,4.9167888 0.27893671,0.46091189 0 0 0 9.0542104,4.4563579 Z m -1.525796,0.117576 a 0.21230438,0.34327135 0 0 0 -0.2127124,0.342855 0.21230438,0.34327135 0 0 0 0.2127124,0.3437523 0.21230438,0.34327135 0 0 0 0.00902,0 c 0.046132,-0.034703 0.094016,-0.069901 0.1426994,-0.1032156 A 0.21230438,0.34327135 0 0 0 7.7402112,4.9167894 0.21230438,0.34327135 0 0 0 7.5283948,4.5739347 Z m 0.6901978,0.5537735 c -0.095041,0.00498 -0.195157,0.040698 -0.2988758,0.09783 C 7.8159984,5.2826699 7.7104459,5.3602673 7.6064865,5.4391491 7.4896653,5.5277811 7.3602789,5.6087597 7.270812,5.6886612 c -0.089465,0.0799 -0.1239772,0.1385297 -0.1220661,0.1965583 0.00154,0.048761 0.033935,0.097247 0.1220661,0.1651451 0.088128,0.0679 0.2142315,0.1354328 0.3302886,0.2172012 0.1263727,0.088982 0.2506452,0.1819172 0.3706785,0.2495123 0.1200342,0.067595 0.2321953,0.1074432 0.3401627,0.1086 C 8.419349,6.626688 8.5323801,6.5901833 8.6521045,6.5269505 8.7718261,6.4637177 8.895361,6.3757869 9.0182941,6.2891061 9.1703034,6.1820325 9.3500102,6.0864823 9.4760329,5.9875374 c 0.063008,-0.049472 0.1110192,-0.09809 0.13643,-0.1391167 0.025411,-0.041028 0.032027,-0.069114 0.026926,-0.1086 -0.00368,-0.028428 -0.010764,-0.040582 -0.038591,-0.065519 C 9.5730247,5.6493618 9.5224516,5.619374 9.4571944,5.5926265 9.3568905,5.551515 9.1102525,5.4819577 8.9859928,5.422097 8.8395415,5.3519511 8.7028359,5.2707443 8.5740291,5.2129735 8.445224,5.1552026 8.3287296,5.12186 8.218608,5.127708 Z M 5.0619998,11.045097 c -0.022912,-2.73e-4 -0.044719,0.0022 -0.066415,0.0072 -0.072877,0.01691 -0.139209,0.07949 -0.2216887,0.19207 -0.058379,0.07957 -0.1328517,0.195684 -0.2163036,0.28721 -0.015114,0.01666 -0.031453,0.03308 -0.047569,0.04847 -0.014242,0.01363 -0.032412,0.03004 -0.052054,0.04577 -0.039113,0.03125 -0.079621,0.05886 -0.1211632,0.08347 v 0.0046 l -0.098723,0.04847 -8.558e-4,9.4e-4 -0.00902,0.0036 -0.026926,0.01436 h -0.00172 c -0.032147,0.01438 -0.065738,0.02725 -0.087955,0.0368 -0.02322,0.01 -0.062059,0.02848 -0.095128,0.04218 -0.2224145,0.09208 -0.3875562,0.17162 -0.4514568,0.299774 -0.0059,0.01176 -0.010596,0.02276 -0.013548,0.0332 -0.0024,0.0089 -0.00385,0.01829 -0.00539,0.02873 -0.00727,0.04555 -0.00488,0.09994 0.00814,0.165145 0.012856,0.06522 0.034997,0.139446 0.058344,0.219894 0.045206,0.155869 0.1040904,0.357693 0.052952,0.560057 -0.012504,0.04978 -0.035689,0.09208 -0.061032,0.127448 L 3.4608838,13.4946 c 0.021731,0.09956 0.08712,0.200689 0.18489,0.297978 0.104802,0.10428 0.2423553,0.200052 0.3724733,0.277336 0.1461039,0.08696 0.3277176,0.122279 0.5349243,0.145399 0.2007337,0.0224 0.4434621,0.03558 0.6668634,0.09782 0.1584874,0.04409 0.3187173,0.13197 0.4379924,0.18848 0.1272244,0.06028 0.2345969,0.09812 0.3329828,0.09424 0.2718972,-0.01044 0.5916399,-0.06368 0.8275179,-0.178608 0.1572549,-0.07662 0.2737382,-0.175885 0.3383671,-0.303363 0.046028,-0.09085 0.047398,-0.201669 0.01164,-0.339265 -0.035724,-0.137597 -0.1088832,-0.291311 -0.1857877,-0.4353 -0.018709,-0.03503 -0.037205,-0.06943 -0.054742,-0.101424 -0.01372,-0.02486 -0.028046,-0.04747 -0.043974,-0.06911 -0.015286,-0.02084 -0.034388,-0.04312 -0.055649,-0.06642 C 6.7519112,13.018417 6.6508935,12.937607 6.5420574,12.849241 6.4366234,12.763637 6.3129243,12.660532 6.2180509,12.536903 6.0453536,12.31122 5.9416339,12.029508 5.8437828,11.800927 5.7427744,11.564971 5.6390916,11.364117 5.479388,11.232792 5.382798,11.153372 5.2574631,11.082449 5.1490977,11.056877 c -0.010068,-0.0023 -0.022073,-0.004 -0.038591,-0.0062 -0.00659,-9.41e-4 -0.010944,-0.0022 -0.013548,-0.0028 h -0.00274 v -9.41e-4 H 5.093367 l -0.00368,-9.42e-4 c -0.0092,-8.27e-4 -0.018676,-7.8e-4 -0.027824,-9.41e-4 z m 5.7118542,0.280028 c -0.007,0.0114 -0.01338,0.02263 -0.01974,0.0341 -0.01216,0.0221 -0.02273,0.04456 -0.0332,0.06911 l -9.41e-4,9.42e-4 c -0.0038,0.0088 -0.0073,0.01798 -0.0108,0.02693 l -0.0017,0.0036 c -0.02393,0.06278 -0.04073,0.129169 -0.05296,0.201044 -0.01891,0.111216 -0.02552,0.23343 -0.02873,0.361704 -0.0046,0.182464 -0.002,0.396393 -0.02962,0.596855 v 9.42e-4 c -5.5e-4,0.004 -0.0012,0.0077 -0.0017,0.01164 v 9.41e-4 c -0.0102,0.07049 -0.0253,0.142237 -0.04488,0.211816 -0.01044,0.03684 -0.02189,0.07178 -0.03499,0.105912 v 0.0018 l -0.01355,0.0323 v 9.42e-4 c -0.04723,0.114192 -0.110172,0.225154 -0.16514,0.323109 -0.0076,0.01363 -0.01511,0.02638 -0.02244,0.03949 v 9.41e-4 c -0.08217,0.147968 -0.146608,0.28028 -0.162448,0.408374 -0.02173,0.176126 -0.04332,0.371559 -0.03052,0.536722 0.01286,0.165163 0.05629,0.287084 0.141814,0.3626 0.10713,0.09428 0.252658,0.143332 0.427223,0.15617 0.261845,0.01926 0.578545,-0.05006 0.834698,-0.140912 0.09314,-0.03296 0.178924,-0.107784 0.274643,-0.210919 0.08975,-0.09668 0.205431,-0.237749 0.336573,-0.33747 0.184148,-0.140493 0.405062,-0.242448 0.583392,-0.337469 0.184082,-0.09809 0.340016,-0.197642 0.443377,-0.332085 0.09158,-0.119352 0.183602,-0.258268 0.242333,-0.393115 0.05872,-0.13485 0.08135,-0.260506 0.05924,-0.362602 -0.0017,-0.0085 -0.0038,-0.01546 -0.0054,-0.02154 -0.0035,-0.0022 -0.0076,-0.0055 -0.01441,-0.009 -0.0165,-0.0083 -0.06422,-0.02662 -0.1077,-0.04667 h -0.0046 l -0.02423,-0.01346 h -0.0062 l -0.02244,-0.01436 h -0.0082 l -0.04937,-0.03859 c -0.01703,-0.01348 -0.03028,-0.02839 -0.03412,-0.0323 -0.0097,-0.01 -0.02159,-0.0234 -0.0332,-0.03949 -0.0537,-0.07422 -0.08657,-0.153736 -0.1086,-0.232459 -0.03444,-0.123066 -0.04604,-0.266524 -0.05656,-0.372473 -0.009,-0.09053 -0.01915,-0.171784 -0.03769,-0.233357 -0.0186,-0.06186 -0.04198,-0.101304 -0.07718,-0.132834 -0.03037,-0.02712 -0.06498,-0.04784 -0.105912,-0.06372 -0.04096,-0.01589 -0.08849,-0.02663 -0.143604,-0.0341 -0.08198,-0.01116 -0.177729,-0.0127 -0.280925,-0.01436 -0.0073,0.01032 -0.01476,0.0206 -0.02244,0.03052 -0.214091,0.275901 -0.647489,0.448301 -0.985437,0.354514 -0.206868,-0.05759 -0.3963,-0.217457 -0.521462,-0.396708 v -9.41e-4 l -0.0323,-0.04577 v -0.0028 c -0.0028,-0.0044 -0.0054,-0.0089 -0.0082,-0.01346 z m -0.441582,1.589519 C 9.8189066,13.34406 9.2086444,13.666151 8.6512066,13.703569 8.1365203,13.738249 7.6182949,13.56669 7.1666994,13.294297 c 0.1486569,0.285833 0.2845768,0.620862 0.1489873,0.888551 -0.1185576,0.233855 -0.3582155,0.379689 -0.6291661,0.466714 0.6365299,0.01372 1.365192,-0.464983 2.0337938,-0.510693 0.3922147,-0.02652 0.8156334,0.08939 1.2224299,0.152579 -0.0139,-0.188601 0.00972,-0.391799 0.031418,-0.567236 0.020874,-0.168847 0.098983,-0.321525 0.1830937,-0.472997 v -9.41e-4 c 0.0615,-0.110724 0.126409,-0.220415 0.17502,-0.335675 z" />
</svg>
