<?xml version="1.0" encoding="UTF-8" standalone="no"?>
<svg
   height="32"
   width="32"
   version="1.1"
   id="svg13"
   sodipodi:docname="preferences-system-network-server-mail.svg"
   xmlns:inkscape="http://www.inkscape.org/namespaces/inkscape"
   xmlns:sodipodi="http://sodipodi.sourceforge.net/DTD/sodipodi-0.dtd"
   xmlns:xlink="http://www.w3.org/1999/xlink"
   xmlns="http://www.w3.org/2000/svg"
   xmlns:svg="http://www.w3.org/2000/svg">
  <defs
     id="defs13" />
  <sodipodi:namedview
     id="namedview13"
     pagecolor="#ffffff"
     bordercolor="#000000"
     borderopacity="0.25"
     inkscape:showpageshadow="2"
     inkscape:pageopacity="0.0"
     inkscape:pagecheckerboard="0"
     inkscape:deskcolor="#d1d1d1" />
  <linearGradient
     id="b"
     gradientTransform="matrix(0.84,0,0,0.84,-4.34,-4.52)"
     gradientUnits="userSpaceOnUse"
     x2="0"
     y1="44"
     y2="4">
    <stop
       offset="0"
       stop-color="#1d1e1e"
       id="stop1" />
    <stop
       offset="1"
       stop-color="#44484c"
       id="stop2" />
  </linearGradient>
  <linearGradient
     id="c"
     x1="6"
     x2="6"
     xlink:href="#a"
     y1="5"
     y2="4"
     gradientTransform="matrix(1.2,0,0,1.2,-3.5,-3.2)" />
  <linearGradient
     id="a"
     gradientUnits="userSpaceOnUse"
     x2="0"
     y1="507.8"
     y2="506.8">
    <stop
       offset="0"
       stop-color="#3da103"
       id="stop3" />
    <stop
       offset="1"
       stop-color="#7ddf07"
       id="stop4" />
  </linearGradient>
  <linearGradient
     id="d"
     x1="6"
     x2="6"
     xlink:href="#a"
     y1="16"
     y2="15"
     gradientTransform="matrix(1.2,0,0,1.2,-3.5,-3.2)" />
  <linearGradient
     id="e"
     x1="6"
     x2="6"
     xlink:href="#a"
     y1="27"
     y2="26"
     gradientTransform="matrix(1.2,0,0,1.2,-3.5,-3.2)" />
  <linearGradient
     id="f"
     gradientUnits="userSpaceOnUse"
     x1="5"
     x2="18"
     y1="12"
     y2="25"
     gradientTransform="matrix(1.2,0,0,1.2,-3.5,-3.2)">
    <stop
       offset="0"
       stop-color="#292c2f"
       id="stop5" />
    <stop
       offset="1"
       stop-opacity="0"
       id="stop6" />
  </linearGradient>
  <path
     d="M 0.1,5.2 H 31.3 V 25.6 H 0.1 Z"
     fill="#111213"
     style="stroke-width:1.2"
     id="path6" />
  <path
     d="M 0.1,-0.8 V 32.8 H 31.3 V -0.8 Z m 1.2,7.2 h 28.8 v 4.8 H 1.3 Z m 0,13.2 h 28.8 v 4.8 H 1.3 Z"
     fill="url(#b)"
     style="fill:url(#b);stroke-width:1.2"
     id="path7" />
  <path
     d="m 0.1,31.6 h 31.2 v 1.2 H 0.1 Z"
     opacity="0.2"
     style="stroke-width:1.2"
     id="path8" />
  <g
     stroke-width=".7"
     style=""
     id="g11">
    <path
       d="M 2.5,1.6 H 4.9 V 2.8 H 2.5 Z"
       fill="url(#c)"
       style="fill:url(#c);stroke-width:0.84"
       id="path9" />
    <path
       d="M 2.5,14.8 H 4.9 V 16 H 2.5 Z"
       fill="url(#d)"
       style="fill:url(#d);stroke-width:0.84"
       id="path10" />
    <path
       d="m 2.5,28 h 2.4 v 1.2 H 2.5 Z"
       fill="url(#e)"
       style="fill:url(#e);stroke-width:0.84"
       id="path11" />
  </g>
  <path
     d="m 1.3,11.2 8.4,8.4 h 20.4 v 4.8 H 14.5 l 8.4,8.4 h 8.4 V 12.4 l -1.2,-1.2 z"
     fill="url(#f)"
     fill-rule="evenodd"
     opacity="0.4"
     style="fill:url(#f);stroke-width:1.2"
     id="path12" />
  <rect
     fill="#eff0f1"
     height="19.200001"
     rx="2.4000001"
     width="19.200001"
     x="15.7"
     y="13.6"
     id="rect12"
     style="stroke-width:1.2" />
  <path
     d="M 16.9,16 V 30.4 H 33.7 V 16 Z m 2.0484,1.2 H 31.6516 L 25.3,23.5516 Z M 18.1,18.0484 22.8208,22.7692 18.1,28.276 Z m 14.4,0 v 10.23 L 27.7792,22.7692 Z M 23.6716,23.62 25.3,25.2484 26.9284,23.62 31.7104,29.2 H 18.8872 Z"
     fill="#232629"
     style="stroke-width:1.2"
     id="path13" />
</svg>
