<?xml version="1.0" encoding="UTF-8" standalone="no"?>
<svg
   width="64"
   height="64"
   version="1.1"
   viewBox="0 0 16.933 16.933"
   id="svg7"
   sodipodi:docname="preferences-desktop-sound.svg"
   inkscape:version="1.4.2 (ebf0e940d0, 2025-05-08)"
   xmlns:inkscape="http://www.inkscape.org/namespaces/inkscape"
   xmlns:sodipodi="http://sodipodi.sourceforge.net/DTD/sodipodi-0.dtd"
   xmlns="http://www.w3.org/2000/svg"
   xmlns:svg="http://www.w3.org/2000/svg"
   xmlns:rdf="http://www.w3.org/1999/02/22-rdf-syntax-ns#"
   xmlns:cc="http://creativecommons.org/ns#"
   xmlns:dc="http://purl.org/dc/elements/1.1/">
  <sodipodi:namedview
     id="namedview7"
     pagecolor="#9c4444"
     bordercolor="#000000"
     borderopacity="0.25"
     inkscape:showpageshadow="2"
     inkscape:pageopacity="0.0"
     inkscape:pagecheckerboard="0"
     inkscape:deskcolor="#d1d1d1"
     inkscape:zoom="6.15625"
     inkscape:cx="15.756345"
     inkscape:cy="27.208122"
     inkscape:window-width="1226"
     inkscape:window-height="669"
     inkscape:window-x="0"
     inkscape:window-y="0"
     inkscape:window-maximized="0"
     inkscape:current-layer="svg7"
     showgrid="false" />
  <defs
     id="defs2">
    <style
       id="current-color-scheme"
       type="text/css">.ColorScheme-Text {color:#d8dee9} .ColorScheme-Highlight {color:#3b4252}</style>
  </defs>
  <metadata
     id="metadata2">
    <rdf:RDF>
      <cc:Work
         rdf:about="">
        <dc:format>image/svg+xml</dc:format>
        <dc:type
           rdf:resource="http://purl.org/dc/dcmitype/StillImage" />
      </cc:Work>
    </rdf:RDF>
  </metadata>
  <path
     style="fill:currentColor;fill-opacity:1;stroke:none;stroke-width:0.426185;stroke-dasharray:none;stroke-opacity:0.3"
     class="ColorScheme-Text"
     d="m 5.2695614,2.1166247 c -1.5984705,0 -1.5984705,1.6932999 -1.5984705,1.6932999 v 9.3131494 c 0,1.693302 1.5131923,1.690251 1.5984705,1.693302 h 6.3938806 c 0,0 1.598467,-0.0034 1.598467,-1.693302 V 3.8099246 c 0,-1.6932999 -1.598467,-1.6932999 -1.598467,-1.6932999 z M 8.466501,3.8099246 c 0.4428323,0 0.7992344,0.3805274 0.7992344,0.8466506 0,0.4661993 -0.3564021,0.8466499 -0.7992344,0.8466499 -0.4429677,0 -0.7992348,-0.3804506 -0.7992348,-0.8466499 0,-0.4661232 0.3562671,-0.8466506 0.7992348,-0.8466506 z m 0,2.53995 c 1.76559,0 3.196941,1.5162663 3.196941,3.386602 0,1.8703314 -1.431351,3.3865974 -3.196941,3.3865974 -1.7655904,0 -3.1969396,-1.516266 -3.1969396,-3.3865974 0,-1.8703357 1.4313492,-3.386602 3.1969396,-3.386602 z m 0,1.6933002 c -0.8828355,0 -1.5984696,0.7581153 -1.5984696,1.693301 0,0.9351812 0.7156592,1.6932982 1.5984696,1.6932982 0.8828105,0 1.59847,-0.758117 1.59847,-1.6932982 0,-0.9351857 -0.7156595,-1.693301 -1.59847,-1.693301 z"
     id="path5" />
</svg>
