<?xml version="1.0" encoding="UTF-8" standalone="no"?>
<svg
   width="64"
   height="64"
   version="1.1"
   viewBox="0 0 16.933 16.933"
   id="svg7"
   sodipodi:docname="preferences-web-browser-cookies.svg"
   inkscape:version="1.4.2 (ebf0e940d0, 2025-05-08)"
   xmlns:inkscape="http://www.inkscape.org/namespaces/inkscape"
   xmlns:sodipodi="http://sodipodi.sourceforge.net/DTD/sodipodi-0.dtd"
   xmlns="http://www.w3.org/2000/svg"
   xmlns:svg="http://www.w3.org/2000/svg"
   xmlns:rdf="http://www.w3.org/1999/02/22-rdf-syntax-ns#"
   xmlns:cc="http://creativecommons.org/ns#"
   xmlns:dc="http://purl.org/dc/elements/1.1/">
  <sodipodi:namedview
     id="namedview7"
     pagecolor="#9c4444"
     bordercolor="#000000"
     borderopacity="0.25"
     inkscape:showpageshadow="2"
     inkscape:pageopacity="0.0"
     inkscape:pagecheckerboard="0"
     inkscape:deskcolor="#d1d1d1"
     inkscape:zoom="4.3531261"
     inkscape:cx="36.410615"
     inkscape:cy="40.200995"
     inkscape:window-width="1543"
     inkscape:window-height="1372"
     inkscape:window-x="0"
     inkscape:window-y="0"
     inkscape:window-maximized="0"
     inkscape:current-layer="svg7"
     showgrid="false" />
  <defs
     id="defs2">
    <style
       id="current-color-scheme"
       type="text/css">.ColorScheme-Text {color:#d8dee9} .ColorScheme-Highlight {color:#3b4252}</style>
  </defs>
  <metadata
     id="metadata2">
    <rdf:RDF>
      <cc:Work
         rdf:about="">
        <dc:format>image/svg+xml</dc:format>
        <dc:type
           rdf:resource="http://purl.org/dc/dcmitype/StillImage" />
      </cc:Work>
    </rdf:RDF>
  </metadata>
  <path
     id="rect6"
     class="ColorScheme-Text"
     style="baseline-shift:baseline;display:inline;overflow:visible;vector-effect:none;fill:currentColor;fill-opacity:1;stroke-width:0.437922;enable-background:accumulate;stop-color:#000000"
     d="m 8.4665,2.1166253 c -3.5140429,0 -6.3498747,2.8358318 -6.3498747,6.3498747 0,3.514044 2.8358318,6.349874 6.3498747,6.349874 3.514044,0 6.349874,-2.83583 6.349874,-6.349874 0,-3.5140429 -2.83583,-6.3498747 -6.349874,-6.3498747 z M 8.9044228,2.5699442 C 10.478293,2.6837366 11.876226,3.406695 12.865395,4.5055255 l -0.01966,0.019676 v 0.4379227 h 0.391734 c 0.06856,0.09345 0.134517,0.1889693 0.19758,0.2865313 l -0.151398,0.1513821 -0.875844,0.8758445 -0.437922,0.4379226 -0.437922,1.313768 v 0.4379227 l 0.437922,0.4379218 0.437922,0.4379218 0.875844,0.4379222 0.999865,-0.2463305 c -0.479523,2.6586713 -2.72059,4.6835643 -5.4834372,4.8351063 l 0.1043424,-0.209552 v -0.437919 l 0.8758439,-0.437922 0.4379239,-0.437922 v -0.875845 l 0.437923,-0.437922 v -0.437922 l -0.155673,-0.155669 c -0.5203487,0.520337 -1.2396961,0.841632 -2.0339432,0.841632 -1.5884198,0 -2.8755778,-1.287157 -2.875576,-2.875575 1.026e-4,-0.1089096 0.00676,-0.2169401 0.018821,-0.3233099 L 4.9631206,8.904421 H 4.0872768 V 8.0285783 H 3.649355 V 7.1527338 H 3.2114306 L 2.7735089,7.5906564 H 2.6178398 C 2.6890829,7.1055117 2.8186716,6.6401455 2.9993107,6.2016203 L 4.0872751,5.8389657 4.5251978,6.2768876 4.9631196,6.7148102 V 5.8389657 L 5.8389641,5.4010432 V 4.9631213 L 6.7148085,4.5251987 7.5906547,3.649355 V 4.0872768 L 8.0285766,3.649355 7.5906547,3.2114306 H 8.4664992 V 3.649355 L 9.3423428,3.2114306 8.9044209,2.7735089 Z M 8.4665,5.4010432 A 0.87584482,0.87584482 0 0 0 7.5906564,6.2768876 0.87584482,0.87584482 0 0 0 7.6043933,6.4248606 2.6275344,2.6275344 0 0 0 5.839018,8.9044244 2.6275344,2.6275344 0 0 0 8.4665522,11.531959 2.6275344,2.6275344 0 0 0 11.094087,8.9044244 2.6275344,2.6275344 0 0 0 10.597147,7.3708405 0.4379224,0.4379224 0 0 0 10.656168,7.1527355 0.4379224,0.4379224 0 0 0 10.218244,6.7148119 0.4379224,0.4379224 0 0 0 9.9992833,6.7738331 2.6275344,2.6275344 0 0 0 9.3295706,6.4257189 0.87584482,0.87584482 0 0 0 9.3424772,6.2768858 0.87584482,0.87584482 0 0 0 8.4666327,5.4010413 Z m 0,0.4379225 A 0.4379224,0.4379224 0 0 1 8.9044228,6.2768876 0.4379224,0.4379224 0 0 1 8.9017707,6.313664 2.6275344,2.6275344 0 0 0 8.466432,6.2768876 2.6275344,2.6275344 0 0 0 8.0302193,6.316232 0.4379224,0.4379224 0 0 1 8.0285873,6.2768876 0.4379224,0.4379224 0 0 1 8.4665099,5.8389657 Z m 0,0.8758445 a 2.1896119,2.1896119 0 0 1 0.1933018,0.00943 2.1896119,2.1896119 0 0 1 0.02566,0.00163 2.1896119,2.1896119 0 0 1 0.057301,0.00862 2.1896119,2.1896119 0 0 1 0.139416,0.022244 2.1896119,2.1896119 0 0 1 0.059021,0.012907 2.1896119,2.1896119 0 0 1 0.161661,0.041912 2.1896119,2.1896119 0 0 1 0.045336,0.013736 2.1896119,2.1896119 0 0 1 8.558e-4,0 2.1896119,2.1896119 0 0 1 0.027379,0.01026 2.1896119,2.1896119 0 0 1 0.1496771,0.058165 2.1896119,2.1896119 0 0 1 0.058165,0.026515 2.1896119,2.1896119 0 0 1 0.1436858,0.072715 2.1896119,2.1896119 0 0 1 0.03848,0.022244 2.1896119,2.1896119 0 0 1 0.1599389,0.1026372 2.1896119,2.1896119 0 0 1 0.00599,0.0035 2.1896119,2.1896119 0 0 1 0.026515,0.01966 2.1896119,2.1896119 0 0 1 0.021371,0.015397 2.1896119,2.1896119 0 0 1 0.4345026,0.4345026 2.1896119,2.1896119 0 0 1 8.56e-4,0.00163 2.1896119,2.1896119 0 0 1 0.116326,0.171062 2.1896119,2.1896119 0 0 1 0.006,0.00862 2.1896119,2.1896119 0 0 1 0.0035,0.00676 2.1896119,2.1896119 0 0 1 0.09836,0.1821814 2.1896119,2.1896119 0 0 1 0.0017,0.0035 2.1896119,2.1896119 0 0 1 0.0017,0.0035 2.1896119,2.1896119 0 0 1 0.07698,0.184749 2.1896119,2.1896119 0 0 1 0.0095,0.02566 2.1896119,2.1896119 0 0 1 0.05218,0.1702086 2.1896119,2.1896119 0 0 1 0.01374,0.053894 2.1896119,2.1896119 0 0 1 0.02821,0.14112 2.1896119,2.1896119 0 0 1 0.01374,0.088105 2.1896119,2.1896119 0 0 1 0.01104,0.1223173 2.1896119,2.1896119 0 0 1 0.0076,0.1505543 2.1896119,2.1896119 0 0 1 -0.0095,0.1933009 2.1896119,2.1896119 0 0 1 -0.01104,0.091514 2.1896119,2.1896119 0 0 1 -0.01882,0.1205961 2.1896119,2.1896119 0 0 1 -0.02309,0.1034976 2.1896119,2.1896119 0 0 1 -0.02652,0.1060632 2.1896119,2.1896119 0 0 1 -0.03678,0.1094904 2.1896119,2.1896119 0 0 1 -0.03508,0.096646 2.1896119,2.1896119 0 0 1 -0.05218,0.1146036 2.1896119,2.1896119 0 0 1 -0.03764,0.077842 2.1896119,2.1896119 0 0 1 -0.06329,0.1111946 2.1896119,2.1896119 0 0 1 -0.05046,0.08211 2.1896119,2.1896119 0 0 1 -0.06928,0.09665 2.1896119,2.1896119 0 0 1 -0.05987,0.07869 2.1896119,2.1896119 0 0 1 -0.07614,0.08724 2.1896119,2.1896119 0 0 1 -0.0727,0.07782 2.1896119,2.1896119 0 0 1 -0.077841,0.0727 2.1896119,2.1896119 0 0 1 -0.087245,0.07613 2.1896119,2.1896119 0 0 1 -0.078689,0.05987 2.1896119,2.1896119 0 0 1 -0.096646,0.06929 2.1896119,2.1896119 0 0 1 -0.082112,0.05046 2.1896119,2.1896119 0 0 1 -0.1111944,0.06329 2.1896119,2.1896119 0 0 1 -0.077825,0.03764 2.1896119,2.1896119 0 0 1 -0.1146204,0.05218 2.1896119,2.1896119 0 0 1 -0.096646,0.03508 2.1896119,2.1896119 0 0 1 -0.1094736,0.03678 2.1896119,2.1896119 0 0 1 -0.1060632,0.02652 2.1896119,2.1896119 0 0 1 -0.1034988,0.02309 2.1896119,2.1896119 0 0 1 -0.1205962,0.01882 2.1896119,2.1896119 0 0 1 -0.091514,0.01104 2.1896119,2.1896119 0 0 1 -0.1933044,0.0095 2.1896119,2.1896119 0 0 1 -0.1933009,-0.0095 2.1896119,2.1896119 0 0 1 -0.091514,-0.01104 2.1896119,2.1896119 0 0 1 -0.1205961,-0.01882 2.1896119,2.1896119 0 0 1 -0.1034976,-0.02309 2.1896119,2.1896119 0 0 1 -0.1060632,-0.02652 2.1896119,2.1896119 0 0 1 -0.1094736,-0.03678 2.1896119,2.1896119 0 0 1 -0.096646,-0.03508 2.1896119,2.1896119 0 0 1 -0.1146036,-0.05218 2.1896119,2.1896119 0 0 1 -0.077842,-0.03764 A 2.1896119,2.1896119 0 0 1 7.341797,10.780455 2.1896119,2.1896119 0 0 1 7.259685,10.729995 2.1896119,2.1896119 0 0 1 7.163039,10.660705 2.1896119,2.1896119 0 0 1 7.08435,10.600835 2.1896119,2.1896119 0 0 1 6.997105,10.524705 2.1896119,2.1896119 0 0 1 6.91928,10.452005 2.1896119,2.1896119 0 0 1 6.846582,10.374185 2.1896119,2.1896119 0 0 1 6.77046,10.286945 2.1896119,2.1896119 0 0 1 6.710592,10.208255 2.1896119,2.1896119 0 0 1 6.641309,10.111605 2.1896119,2.1896119 0 0 1 6.590847,10.029495 2.1896119,2.1896119 0 0 1 6.5274681,9.9183083 2.1896119,2.1896119 0 0 1 6.4898265,9.8404835 2.1896119,2.1896119 0 0 1 6.4376529,9.7258799 2.1896119,2.1896119 0 0 1 6.4025793,9.6292343 2.1896119,2.1896119 0 0 1 6.3658029,9.5197607 2.1896119,2.1896119 0 0 1 6.3392877,9.4136975 2.1896119,2.1896119 0 0 1 6.3161961,9.3101987 2.1896119,2.1896119 0 0 1 6.2973753,9.1896035 a 2.1896119,2.1896119 0 0 1 -0.011088,-0.091514 2.1896119,2.1896119 0 0 1 -0.00943,-0.1933044 2.1896119,2.1896119 0 0 1 0.00943,-0.1933009 2.1896119,2.1896119 0 0 1 0.01026,-0.08296 2.1896119,2.1896119 0 0 1 0.022244,-0.1394152 2.1896119,2.1896119 0 0 1 0.013736,-0.063292 2.1896119,2.1896119 0 0 1 0.03848,-0.1496779 2.1896119,2.1896119 0 0 1 0.020524,-0.062436 2.1896119,2.1896119 0 0 1 0.051326,-0.14112 2.1896119,2.1896119 0 0 1 0.03165,-0.07013 2.1896119,2.1896119 0 0 1 0.063292,-0.1291524 2.1896119,2.1896119 0 0 1 0.029939,-0.05303 2.1896119,2.1896119 0 0 1 0.085536,-0.1394151 2.1896119,2.1896119 0 0 1 0.027379,-0.037642 2.1896119,2.1896119 0 0 1 0.1077684,-0.14112 2.1896119,2.1896119 0 0 1 0.0171,-0.01966 2.1896119,2.1896119 0 0 1 0.1377102,-0.1471119 2.1896119,2.1896119 0 0 1 0.1616609,-0.1419802 2.1896119,2.1896119 0 0 1 0.01026,-0.00862 2.1896119,2.1896119 0 0 1 0.16507,-0.117186 2.1896119,2.1896119 0 0 1 0.017957,-0.011088 2.1896119,2.1896119 0 0 1 0.1779047,-0.1017768 2.1896119,2.1896119 0 0 1 0.1992895,-0.088949 2.1896119,2.1896119 0 0 1 0.4909526,-0.1274483 2.1896119,2.1896119 0 0 1 0.011088,-0.00163 2.1896119,2.1896119 0 0 1 0.00943,-8.558e-4 2.1896119,2.1896119 0 0 1 0.1625049,-0.014567 2.1896119,2.1896119 0 0 1 0.049607,-0.0035 2.1896119,2.1896119 0 0 1 0.06758,-0.00248 z m 0,0.4379236 V 8.4665 a 0.4379224,0.4379224 0 0 1 0.4379228,0.4379228 h 1.3137662 a 1.7516897,1.7516897 0 0 0 -0.0078,-0.1479722 1.7516897,1.7516897 0 0 0 -0.01109,-0.092376 1.7516897,1.7516897 0 0 0 -0.01192,-0.081248 1.7516897,1.7516897 0 0 0 -0.02224,-0.097506 1.7516897,1.7516897 0 0 0 -0.01712,-0.067562 1.7516897,1.7516897 0 0 0 -0.03079,-0.09408 1.7516897,1.7516897 0 0 0 -0.02908,-0.078689 1.7516897,1.7516897 0 0 0 -0.03421,-0.076122 1.7516897,1.7516897 0 0 0 -0.03934,-0.081248 A 1.7516897,1.7516897 0 0 0 9.973552,8.0157696 1.7516897,1.7516897 0 0 0 9.923081,7.9336576 1.7516897,1.7516897 0 0 0 9.880313,7.8746366 1.7516897,1.7516897 0 0 0 9.818724,7.7933886 1.7516897,1.7516897 0 0 0 9.769117,7.7369266 1.7516897,1.7516897 0 0 0 9.704121,7.6667966 1.7516897,1.7516897 0 0 0 9.633991,7.6018006 1.7516897,1.7516897 0 0 0 9.577537,7.5521936 1.7516897,1.7516897 0 0 0 9.496289,7.4906046 1.7516897,1.7516897 0 0 0 9.437268,7.4478366 1.7516897,1.7516897 0 0 0 9.355156,7.3973746 1.7516897,1.7516897 0 0 0 9.283305,7.3563276 1.7516897,1.7516897 0 0 0 9.202057,7.3169836 1.7516897,1.7516897 0 0 0 9.125936,7.2827736 1.7516897,1.7516897 0 0 0 9.047247,7.2536906 1.7516897,1.7516897 0 0 0 8.953167,7.2229046 1.7516897,1.7516897 0 0 0 8.885605,7.2058046 1.7516897,1.7516897 0 0 0 8.788099,7.1835606 1.7516897,1.7516897 0 0 0 8.706842,7.1716446 1.7516897,1.7516897 0 0 0 8.614467,7.1605566 1.7516897,1.7516897 0 0 0 8.466494,7.1527666 Z M 2.5631016,8.142335 3.2114306,8.4665 3.649355,8.9044228 4.5251987,9.3423445 4.9631213,9.7802668 4.5251987,10.218189 v 0.875845 l 0.4379226,0.875846 0.8758444,0.875844 v 0.923743 C 3.8880755,12.806485 2.554547,10.80008 2.554547,8.4665 c 0,-0.1087272 0.00282,-0.2169333 0.00862,-0.324165 z m 3.9738041,0.5568114 c -0.00137,0.01241 -0.00282,0.025308 -0.00428,0.03848 -0.00497,0.053774 -0.00847,0.1110132 -0.00862,0.167641 1.924e-4,0.054938 0.00334,0.1119228 0.00862,0.1693544 0.00265,0.025822 0.00565,0.053116 0.00943,0.078689 l 0.00163,0.00265 v 0.00163 c 0.00462,0.035784 0.0096,0.071226 0.016219,0.1069068 0.00565,0.027893 0.013078,0.059252 0.020524,0.088949 l 8.558e-4,0.0035 v 0.00265 c 0.00642,0.029117 0.014567,0.059354 0.023092,0.090671 l 8.558e-4,0.0035 c 0.00943,0.030307 0.019908,0.060048 0.030786,0.089809 l 8.558e-4,0.0035 8.558e-4,0.00265 c 0.00943,0.028004 0.019463,0.056009 0.029939,0.082978 l 8.56e-4,0.00265 c 0.013574,0.032164 0.028783,0.063728 0.044471,0.095802 l 8.56e-4,0.00265 0.00163,0.00265 c 0.011088,0.023947 0.022226,0.047466 0.033353,0.069282 0.016056,0.030127 0.034475,0.06313 0.053878,0.094942 l 8.558e-4,0.00163 0.00163,0.00265 c 0.012907,0.022081 0.026352,0.044557 0.041048,0.067562 5.692e-4,8.559e-4 0.00111,0.0018 0.00163,0.00265 l 0.00163,0.00265 c 0.018821,0.027611 0.038454,0.054477 0.058165,0.080392 l 0.00163,0.0027 0.00163,0.0016 c 0.01639,0.02249 0.03242,0.04507 0.049607,0.06672 v 8.56e-4 h 8.558e-4 v 8.56e-4 h 8.559e-4 l 0.00163,0.0016 c 0.021166,0.02542 0.042358,0.04992 0.064157,0.07355 l 0.00163,0.0016 0.00163,0.0016 c 0.020156,0.02271 0.041544,0.04532 0.063292,0.06756 0.021182,0.02081 0.043153,0.04226 0.066715,0.06329 0.028321,0.02596 0.05446,0.04788 0.080392,0.06929 0.019711,0.01572 0.042931,0.0332 0.066715,0.05047 l 0.00163,0.0017 0.00265,0.0017 c 0.025933,0.01972 0.052799,0.03932 0.080393,0.05816 8.557e-4,5.69e-4 0.00163,0.0011 0.00265,0.0017 l 0.00265,0.0017 c 0.023023,0.01472 0.045481,0.0282 0.067562,0.04105 l 0.00265,0.0017 0.00163,8.55e-4 c 0.030306,0.0185 0.061819,0.0366 0.09408,0.05389 l 8.558e-4,8.56e-4 h 8.559e-4 8.558e-4 c 0.022972,0.01164 0.044754,0.02288 0.06586,0.03251 l 0.0035,0.0017 0.0035,0.0017 c 0.03142,0.01556 0.06419,0.02994 0.098366,0.04447 l 0.0035,0.0017 c 0.026335,0.01008 0.052517,0.01943 0.078689,0.02821 l 0.0035,8.57e-4 0.0035,8.55e-4 c 0.030888,0.01128 0.061751,0.02192 0.093235,0.03164 0.030803,0.0085 0.061255,0.01657 0.090671,0.02309 h 0.0035 l 0.00265,8.56e-4 c 0.029707,0.0074 0.061007,0.01423 0.092375,0.02052 0.031898,0.006 0.067614,0.01164 0.1034988,0.01622 0.030238,0.0043 0.057104,0.0074 0.085536,0.0102 0.054887,0.0052 0.1118736,0.0085 0.1684976,0.0086 0.054922,-1.93e-4 0.1119228,-0.0034 0.1693528,-0.0086 0.025838,-0.0026 0.053116,-0.0056 0.078689,-0.0095 L 8.718,10.827382 h 0.00163 c 0.035784,-0.0046 0.071226,-0.0096 0.1069248,-0.01622 0.027893,-0.0056 0.059252,-0.01308 0.088949,-0.02052 l 0.0035,-8.55e-4 h 0.00265 c 0.029117,-0.0064 0.059354,-0.01457 0.090671,-0.02309 0.031445,-0.0097 0.062368,-0.02038 0.093235,-0.03164 l 0.0035,-8.57e-4 0.00265,-8.56e-4 c 0.027149,-0.0091 0.05422,-0.01897 0.080393,-0.02909 h 8.558e-4 l 8.56e-4,-8.55e-4 h 8.558e-4 l 0.00265,-8.56e-4 c 0.032164,-0.01357 0.063728,-0.02879 0.095801,-0.04447 l 0.00265,-8.57e-4 0.00265,-0.0017 c 0.023965,-0.01104 0.047467,-0.02222 0.069283,-0.03335 0.030127,-0.01606 0.06313,-0.03448 0.09494,-0.05389 l 0.00163,-8.55e-4 0.00265,-0.0017 c 0.022938,-0.0134 0.046165,-0.02742 0.07013,-0.04277 0.028501,-0.01937 0.056222,-0.03954 0.08296,-0.05987 l 0.00265,-0.0017 0.00163,-0.0017 8.56e-4,-8.56e-4 L 8.9045126,10.218349 8.4665908,9.7804272 8.0286681,9.3425059 H 7.5907463 L 7.1528237,8.9045832 Z" />
</svg>
