<?xml version="1.0" encoding="UTF-8" standalone="no"?>
<svg
   height="32"
   width="32"
   version="1.1"
   id="svg15"
   sodipodi:docname="preferences-system-network-nis.svg"
   xmlns:inkscape="http://www.inkscape.org/namespaces/inkscape"
   xmlns:sodipodi="http://sodipodi.sourceforge.net/DTD/sodipodi-0.dtd"
   xmlns="http://www.w3.org/2000/svg"
   xmlns:svg="http://www.w3.org/2000/svg">
  <defs
     id="defs15" />
  <sodipodi:namedview
     id="namedview15"
     pagecolor="#ffffff"
     bordercolor="#000000"
     borderopacity="0.25"
     inkscape:showpageshadow="2"
     inkscape:pageopacity="0.0"
     inkscape:pagecheckerboard="0"
     inkscape:deskcolor="#d1d1d1" />
  <linearGradient
     id="a"
     gradientUnits="userSpaceOnUse"
     x1="30"
     x2="30"
     y1="30"
     y2="2"
     gradientTransform="matrix(1.2,0,0,1.2,-3.2,-3.2)">
    <stop
       offset="0"
       stop-color="#fdbc4b"
       id="stop1" />
    <stop
       offset="1"
       stop-color="#fed286"
       id="stop2" />
  </linearGradient>
  <linearGradient
     id="e"
     gradientUnits="userSpaceOnUse"
     x1="25"
     x2="25"
     y1="21"
     y2="7"
     gradientTransform="matrix(1.2,0,0,1.2,-3.2,-3.2)">
    <stop
       offset="0"
       stop-color="#232629"
       id="stop3" />
    <stop
       offset="1"
       stop-color="#4d4d4d"
       id="stop4" />
  </linearGradient>
  <linearGradient
     id="d"
     gradientUnits="userSpaceOnUse"
     x1="14"
     x2="28"
     y1="12"
     y2="26"
     gradientTransform="matrix(1.2,0,0,1.2,-3.2,-3.2)">
    <stop
       offset="0"
       stop-color="#292c2f"
       id="stop5" />
    <stop
       offset="1"
       stop-opacity="0"
       id="stop6" />
  </linearGradient>
  <linearGradient
     id="c"
     gradientUnits="userSpaceOnUse"
     x1="4"
     x2="4"
     y1="30"
     y2="27"
     gradientTransform="matrix(1.2,0,0,1.2,-3.2,-3.2)">
    <stop
       offset="0"
       stop-opacity=".4"
       id="stop7" />
    <stop
       offset="1"
       stop-opacity=".2"
       id="stop8" />
  </linearGradient>
  <linearGradient
     id="b"
     gradientTransform="matrix(0.800004,0,0,19.2,-34.1528,-242.8148)"
     gradientUnits="userSpaceOnUse"
     x1="38.691"
     x2="38.691"
     y1="14.355"
     y2="12.605">
    <stop
       offset="0"
       stop-color="#1d1e1e"
       id="stop9" />
    <stop
       offset="1"
       stop-color="#44484c"
       id="stop10" />
  </linearGradient>
  <path
     d="M 1.6,-0.8 H 30.4 V 32.8 H 1.6 Z"
     fill="url(#a)"
     style="fill:url(#a);stroke-width:1.2"
     id="path10" />
  <path
     d="M 1.6,-0.8 V 32.8 H 4 V 31.6 H 2.8 V 30.4 H 4 V -0.8 Z"
     fill="url(#b)"
     style="fill:url(#b);stroke-width:1.2"
     id="path11" />
  <path
     d="m 1.6,29.2 v 3.6 H 30.4 V 31.6 H 2.8 v -1.2 h 27.6 v -1.2 z"
     fill="url(#c)"
     fill-rule="evenodd"
     style="fill:url(#c);stroke-width:1.2"
     id="path12" />
  <path
     d="m 2.8,30.4 h 27.6 v 1.2 H 2.8 Z"
     fill="#edf573"
     style="stroke-width:1.2"
     id="path13" />
  <path
     d="M 8.8,22 16,29.2 H 30.4 V 16.9036 L 19.7476,6.2524 17.2,5.2 13.6,8.8 14.6524,11.3476 17.2,13.8952 13.6,14.8 10,18.4 Z"
     fill="url(#d)"
     opacity="0.2"
     style="fill:url(#d);stroke-width:1.2"
     id="path14" />
  <path
     d="m 23.2,12.4 a 2.4,2.4 0 0 0 -2.4,2.4 v 2.4 H 19.6 V 22 h 7.2 v -4.8 h -1.2 v -2.4 a 2.4,2.4 0 0 0 -2.4,-2.4 z m 0,1.2 a 1.2,1.2 0 0 1 1.2,1.2 v 2.4 H 22 v -2.4 a 1.2,1.2 0 0 1 1.2,-1.2 z m -6,0 c -4.6536,0 -8.4,3.7464 -8.4,8.4 h 9.6 v -1.2 h -8.292 a 7.176,7.176 0 0 1 7.092,-6 c 0.4116,0 0.8112,0.0444 1.2,0.1176 V 13.7032 A 7.9848,7.9848 0 0 0 17.2,13.6 Z m 0,-8.4 c -1.9944,0 -3.6,1.6056 -3.6,3.6 0,1.9944 1.6056,3.6 3.6,3.6 1.9944,0 3.6,-1.6056 3.6,-3.6 0,-1.9944 -1.6056,-3.6 -3.6,-3.6 z m 0,1.2 c 1.3296,0 2.4,1.0704 2.4,2.4 0,1.3296 -1.0704,2.4 -2.4,2.4 -1.3296,0 -2.4,-1.0704 -2.4,-2.4 0,-1.3296 1.0704,-2.4 2.4,-2.4 z"
     fill="url(#e)"
     style="fill:url(#e);stroke-width:1.2"
     id="path15" />
</svg>
