<?xml version="1.0" encoding="UTF-8" standalone="no"?>
<svg
   width="64"
   height="64"
   version="1.1"
   viewBox="0 0 16.933 16.933"
   id="svg7"
   sodipodi:docname="preferences-system-network-proxy.svg"
   inkscape:version="1.4.2 (ebf0e940d0, 2025-05-08)"
   xmlns:inkscape="http://www.inkscape.org/namespaces/inkscape"
   xmlns:sodipodi="http://sodipodi.sourceforge.net/DTD/sodipodi-0.dtd"
   xmlns="http://www.w3.org/2000/svg"
   xmlns:svg="http://www.w3.org/2000/svg"
   xmlns:rdf="http://www.w3.org/1999/02/22-rdf-syntax-ns#"
   xmlns:cc="http://creativecommons.org/ns#"
   xmlns:dc="http://purl.org/dc/elements/1.1/">
  <sodipodi:namedview
     id="namedview7"
     pagecolor="#9c4444"
     bordercolor="#000000"
     borderopacity="0.25"
     inkscape:showpageshadow="2"
     inkscape:pageopacity="0.0"
     inkscape:pagecheckerboard="0"
     inkscape:deskcolor="#d1d1d1"
     inkscape:zoom="6.15625"
     inkscape:cx="15.756345"
     inkscape:cy="29.64467"
     inkscape:window-width="1226"
     inkscape:window-height="669"
     inkscape:window-x="0"
     inkscape:window-y="0"
     inkscape:window-maximized="0"
     inkscape:current-layer="svg7"
     showgrid="false" />
  <defs
     id="defs2">
    <style
       id="current-color-scheme"
       type="text/css">.ColorScheme-Text {color:#d8dee9} .ColorScheme-Highlight {color:#3b4252}</style>
  </defs>
  <metadata
     id="metadata2">
    <rdf:RDF>
      <cc:Work
         rdf:about="">
        <dc:format>image/svg+xml</dc:format>
        <dc:type
           rdf:resource="http://purl.org/dc/dcmitype/StillImage" />
      </cc:Work>
    </rdf:RDF>
  </metadata>
  <path
     d="m 5.6239021,2.8023905 c -0.2920478,0 -0.5271881,0.2351403 -0.5271881,0.5271882 v 1.0712462 c 0,0.2920483 0.2351403,0.5271882 0.5271881,0.5271882 h 5.6851989 c 0.292045,0 0.527186,-0.2351399 0.527186,-0.5271882 V 3.3295787 c 0,-0.2920479 -0.235141,-0.5271882 -0.527186,-0.5271882 z m 0.4807956,0.6368432 c 0.01152,-0.00227 0.021554,0 0.033739,0 h 1.2905566 c 0.097471,0 0.1771351,0.075449 0.1771351,0.1729179 v 0.501883 c 0,0.097471 -0.079663,0.177135 -0.1771351,0.177135 h -1.290556 c -0.097471,0 -0.1771352,-0.079663 -0.1771352,-0.177135 v -0.501883 c 0,-0.085286 0.062849,-0.1571442 0.1433956,-0.1729179 z M 5.6239021,5.8685166 c -0.2920478,0 -0.5271881,0.2351402 -0.5271881,0.5271881 V 7.466951 c 0,0.2920483 0.2351403,0.5271881 0.5271881,0.5271881 h 5.6851989 c 0.292045,0 0.527186,-0.2351398 0.527186,-0.5271881 V 6.3957047 c 0,-0.2920479 -0.235141,-0.5271881 -0.527186,-0.5271881 z m 0.4807956,0.6368432 c 0.01152,-0.00227 0.021554,0 0.033739,0 h 1.2905566 c 0.097471,0 0.1771351,0.075449 0.1771351,0.1729178 v 0.501883 c 0,0.097471 -0.079663,0.1771353 -0.1771351,0.1771353 h -1.290556 c -0.097471,0 -0.1771352,-0.079663 -0.1771352,-0.1771353 v -0.501883 c 0,-0.085288 0.062849,-0.157144 0.1433956,-0.1729178 z M 3.2114895,7.1928133 0.52915618,8.4664997 3.2114895,9.7401864 V 9.0738203 h 1.0585937 c 0.1538652,0 0.2783553,-0.1244895 0.2783553,-0.2783553 V 8.1375346 C 4.5484385,7.9836691 4.423949,7.859179 4.2700832,7.859179 H 3.2114895 Z m 10.5100245,0 V 7.859179 h -1.054379 c -0.153862,0 -0.278353,0.1244894 -0.278353,0.2783556 V 8.795465 c 0,0.1538652 0.1245,0.2783553 0.278353,0.2783553 h 1.054379 v 0.6663661 l 2.68233,-1.2736867 z M 5.6239021,8.9388603 C 5.3318543,8.9388603 5.096714,9.174 5.096714,9.4660476 v 1.0712464 c 0,0.292049 0.2351403,0.527188 0.5271881,0.527188 h 5.6851989 c 0.292045,0 0.527186,-0.235139 0.527186,-0.527188 V 9.4660476 c 0,-0.2920476 -0.235141,-0.5271873 -0.527186,-0.5271873 z m 0.4807956,0.6368433 c 0.01152,-0.00228 0.021554,0 0.033739,0 h 1.2905566 c 0.097471,0 0.1771351,0.075444 0.1771351,0.1729176 v 0.5018828 c 0,0.09748 -0.079663,0.177134 -0.1771351,0.177134 h -1.290556 c -0.097471,0 -0.1771352,-0.07967 -0.1771352,-0.177134 V 9.7486212 c 0,-0.085284 0.062849,-0.1571436 0.1433956,-0.1729176 z M 5.6239021,12.004986 c -0.2920478,0 -0.5271881,0.23514 -0.5271881,0.527187 v 1.071247 c 0,0.292048 0.2351403,0.527189 0.5271881,0.527189 h 5.6851989 c 0.292045,0 0.527186,-0.235141 0.527186,-0.527189 v -1.071247 c 0,-0.292047 -0.235141,-0.527187 -0.527186,-0.527187 z m 0.4807956,0.636846 c 0.01152,-0.0023 0.021554,0 0.033739,0 h 1.2905566 c 0.097471,0 0.1771351,0.07543 0.1771351,0.172914 v 0.501885 c 0,0.09749 -0.079663,0.177135 -0.1771351,0.177135 h -1.290556 c -0.097471,0 -0.1771352,-0.07966 -0.1771352,-0.177135 v -0.501885 c 0,-0.0853 0.062849,-0.157143 0.1433956,-0.172914 z"
     id="path2"
     style="fill:currentColor;fill-opacity:1;stroke-width:0.134959"
     class="ColorScheme-Text" />
</svg>
