<?xml version="1.0" encoding="UTF-8" standalone="no"?>
<svg
   width="64"
   height="64"
   version="1.1"
   viewBox="0 0 16.933 16.933"
   id="svg7"
   sodipodi:docname="preferences-security-kerberos.svg"
   inkscape:version="1.4.2 (ebf0e940d0, 2025-05-08)"
   xmlns:inkscape="http://www.inkscape.org/namespaces/inkscape"
   xmlns:sodipodi="http://sodipodi.sourceforge.net/DTD/sodipodi-0.dtd"
   xmlns="http://www.w3.org/2000/svg"
   xmlns:svg="http://www.w3.org/2000/svg"
   xmlns:rdf="http://www.w3.org/1999/02/22-rdf-syntax-ns#"
   xmlns:cc="http://creativecommons.org/ns#"
   xmlns:dc="http://purl.org/dc/elements/1.1/">
  <sodipodi:namedview
     id="namedview7"
     pagecolor="#9c4444"
     bordercolor="#000000"
     borderopacity="0.25"
     inkscape:showpageshadow="2"
     inkscape:pageopacity="0.0"
     inkscape:pagecheckerboard="0"
     inkscape:deskcolor="#d1d1d1"
     inkscape:zoom="6.15625"
     inkscape:cx="15.756345"
     inkscape:cy="29.64467"
     inkscape:window-width="1226"
     inkscape:window-height="669"
     inkscape:window-x="0"
     inkscape:window-y="0"
     inkscape:window-maximized="0"
     inkscape:current-layer="svg7"
     showgrid="false" />
  <defs
     id="defs2">
    <style
       id="current-color-scheme"
       type="text/css">.ColorScheme-Text {color:#d8dee9} .ColorScheme-Highlight {color:#3b4252}</style>
  </defs>
  <metadata
     id="metadata2">
    <rdf:RDF>
      <cc:Work
         rdf:about="">
        <dc:format>image/svg+xml</dc:format>
        <dc:type
           rdf:resource="http://purl.org/dc/dcmitype/StillImage" />
      </cc:Work>
    </rdf:RDF>
  </metadata>
  <path
     d="M 11.187872,2.5701896 9.3736242,4.3844391 7.5593725,5.2915623 6.6522492,6.1986855 2.1166253,7.1058138 v 1.814249 l 0.907123,0.9071233 v 0.9071229 l 0.907126,0.907123 v 0.907125 L 4.838,13.455684 h 6.349872 l 0.907122,0.907126 2.72138,-2.721378 L 13.90925,10.734309 13.002123,6.1986855 11.187872,8.0129371 9.3736242,8.9200628 8.4664985,9.8271861 4.244739,10.672626 3.9308871,10.358772 V 9.6639186 L 8.0075052,8.8475066 9.0053426,7.8496693 10.819592,6.942541 12.309094,5.4530421 12.095034,4.3844518 10.280783,6.1986982 8.4665345,7.1058295 7.5594111,8.0129502 3.3376519,8.8583872 3.0238023,8.5445383 V 7.8496796 L 7.1004153,7.0332678 8.0982557,6.0354306 9.9125045,5.1283096 11.402007,3.6388088 Z"
     id="path13"
     style="fill:currentColor;stroke-width:0.907126"
     class="ColorScheme-Text" />
</svg>
