<?xml version="1.0" encoding="UTF-8" standalone="no"?>
<svg
   width="64"
   height="64"
   version="1.1"
   viewBox="0 0 16.933 16.933"
   id="svg7"
   sodipodi:docname="preferences-desktop-color.svg"
   inkscape:version="1.4.2 (ebf0e940d0, 2025-05-08)"
   xmlns:inkscape="http://www.inkscape.org/namespaces/inkscape"
   xmlns:sodipodi="http://sodipodi.sourceforge.net/DTD/sodipodi-0.dtd"
   xmlns="http://www.w3.org/2000/svg"
   xmlns:svg="http://www.w3.org/2000/svg"
   xmlns:rdf="http://www.w3.org/1999/02/22-rdf-syntax-ns#"
   xmlns:cc="http://creativecommons.org/ns#"
   xmlns:dc="http://purl.org/dc/elements/1.1/">
  <sodipodi:namedview
     id="namedview7"
     pagecolor="#9c4444"
     bordercolor="#000000"
     borderopacity="0.25"
     inkscape:showpageshadow="2"
     inkscape:pageopacity="0.0"
     inkscape:pagecheckerboard="0"
     inkscape:deskcolor="#d1d1d1"
     inkscape:zoom="6.15625"
     inkscape:cx="15.756345"
     inkscape:cy="27.208122"
     inkscape:window-width="1226"
     inkscape:window-height="669"
     inkscape:window-x="0"
     inkscape:window-y="0"
     inkscape:window-maximized="0"
     inkscape:current-layer="svg7"
     showgrid="false" />
  <defs
     id="defs2">
    <style
       id="current-color-scheme"
       type="text/css">.ColorScheme-Text {color:#d8dee9} .ColorScheme-Highlight {color:#3b4252}</style>
  </defs>
  <metadata
     id="metadata2">
    <rdf:RDF>
      <cc:Work
         rdf:about="">
        <dc:format>image/svg+xml</dc:format>
        <dc:type
           rdf:resource="http://purl.org/dc/dcmitype/StillImage" />
      </cc:Work>
    </rdf:RDF>
  </metadata>
  <path
     id="path8"
     style="fill:currentColor;stroke-width:0.0547566"
     d="M 12.024622,2.1207946 C 11.675556,2.1267226 11.3252,2.2158658 10.981078,2.3880994 10.835215,2.461105 10.19183,3.0587233 9.2580802,3.9879799 L 7.7681505,5.4706675 7.4205222,5.1375237 C 7.0435671,4.7755527 6.7932137,4.6670613 6.4908797,4.7352491 c -0.56595,0.127642 -0.8497496,0.7005958 -0.5918898,1.1956306 0.1489626,0.2859758 4.9078471,5.0236233 5.1505621,5.1275183 0.254527,0.108948 0.420069,0.104148 0.689989,-0.01843 0.292565,-0.132869 0.460212,-0.402574 0.460212,-0.740686 0,-0.3263179 -0.0522,-0.4243058 -0.429268,-0.811133 L 11.463018,9.1727773 12.950973,7.6808726 C 14.563968,6.0633179 14.653621,5.9438575 14.786556,5.2290394 14.869946,4.7806324 14.775608,4.2318087 14.539002,3.7858552 14.267598,3.2743138 13.562986,2.5916012 13.059607,2.3525469 12.721338,2.1919036 12.373688,2.1148658 12.024622,2.1207946 Z M 6.4566434,7.784239 6.1932886,8.0219168 C 5.3687541,8.7653347 4.0689518,10.100224 3.9791334,10.295985 3.915103,10.435542 3.8785509,10.643978 3.8777418,10.870756 l -0.00132,0.356189 -0.7953314,0.831543 c -0.4374331,0.457508 -0.8319364,0.918909 -0.8763094,1.025108 -0.2486116,0.595012 0.047053,1.316089 0.6550949,1.599222 0.162748,0.07578 0.3805611,0.12939 0.5267095,0.129702 0.4465991,9.35e-4 0.7182765,-0.188768 1.5781536,-1.104115 l 0.7821639,-0.832859 0.3654047,-0.006 c 0.259645,-0.004 0.4282868,-0.03938 0.5839892,-0.12246 0.120464,-0.06427 0.7188704,-0.618413 1.3299419,-1.231842 L 9.1375954,10.400011 8.902551,10.192619 C 8.7733362,10.078655 8.1701457,9.4903378 7.5620751,8.885062 Z m -0.4760136,2.497262 c 0.2500604,-0.0042 0.4784251,0.140587 0.5997904,0.389107 0.1886829,0.386366 0.141616,0.452123 -1.4859792,2.075235 -1.4352036,1.431252 -1.4737334,1.46501 -1.6854706,1.46162 -0.4341526,-0.007 -0.682089,-0.234373 -0.682089,-0.625467 0,-0.322703 0.1056336,-0.450123 1.6222654,-1.953435 1.1429159,-1.132879 1.3342458,-1.300459 1.5235077,-1.335867 0.036372,-0.0068 0.072252,-0.0106 0.1079748,-0.0112 z"
     class="ColorScheme-Text" />
</svg>
