<?xml version="1.0" encoding="UTF-8" standalone="no"?>
<svg
   width="64"
   height="64"
   version="1.1"
   viewBox="0 0 16.933 16.933"
   id="svg7"
   sodipodi:docname="preferences-desktop-text-to-speech.svg"
   inkscape:version="1.4.2 (ebf0e940d0, 2025-05-08)"
   xmlns:inkscape="http://www.inkscape.org/namespaces/inkscape"
   xmlns:sodipodi="http://sodipodi.sourceforge.net/DTD/sodipodi-0.dtd"
   xmlns="http://www.w3.org/2000/svg"
   xmlns:svg="http://www.w3.org/2000/svg"
   xmlns:rdf="http://www.w3.org/1999/02/22-rdf-syntax-ns#"
   xmlns:cc="http://creativecommons.org/ns#"
   xmlns:dc="http://purl.org/dc/elements/1.1/">
  <sodipodi:namedview
     id="namedview7"
     pagecolor="#9c4444"
     bordercolor="#000000"
     borderopacity="0.25"
     inkscape:showpageshadow="2"
     inkscape:pageopacity="0.0"
     inkscape:pagecheckerboard="0"
     inkscape:deskcolor="#d1d1d1"
     inkscape:zoom="6.15625"
     inkscape:cx="15.756345"
     inkscape:cy="27.208122"
     inkscape:window-width="1226"
     inkscape:window-height="669"
     inkscape:window-x="0"
     inkscape:window-y="0"
     inkscape:window-maximized="0"
     inkscape:current-layer="svg7"
     showgrid="false" />
  <defs
     id="defs2">
    <style
       id="current-color-scheme"
       type="text/css">.ColorScheme-Text {color:#d8dee9} .ColorScheme-Highlight {color:#3b4252}</style>
  </defs>
  <metadata
     id="metadata2">
    <rdf:RDF>
      <cc:Work
         rdf:about="">
        <dc:format>image/svg+xml</dc:format>
        <dc:type
           rdf:resource="http://purl.org/dc/dcmitype/StillImage" />
      </cc:Work>
    </rdf:RDF>
  </metadata>
  <path
     id="path6"
     style="fill:currentColor;fill-opacity:1;stroke:none;stroke-width:0.398104;stroke-dasharray:none;stroke-dashoffset:2.2;stroke-opacity:0.3"
     d="M 8.3881824,2.116625 C 7.8865075,2.1169541 7.5089099,2.2118651 7.0336987,2.4470816 6.2007431,2.8593734 5.6151871,3.5408964 5.3036614,4.4593673 5.2132456,4.7259215 5.2081148,4.8518192 5.1932484,7.4809054 5.1755856,10.6054 5.1751188,10.595124 5.5345909,11.342967 c 0.1784393,0.371225 0.2675125,0.492163 0.6251458,0.847524 0.5264723,0.523123 1.0102991,0.786475 1.7238171,0.936942 0.1112856,0.02348 0.4285919,0.03547 0.7052333,0.02723 0.3978093,-0.01188 0.5792017,-0.04075 0.868519,-0.138401 0.8980319,-0.303122 1.5695939,-0.895567 1.9718519,-1.740148 0.320038,-0.671946 0.314907,-0.612902 0.314907,-3.6350172 0,-3.0829708 0.01152,-2.9652885 -0.373222,-3.7485428 C 11.196056,3.5367044 11.091526,3.3936003 10.787686,3.0924466 10.145839,2.4562762 9.4901077,2.1638567 8.6113378,2.1220714 8.5339526,2.1184089 8.45985,2.1165815 8.3881824,2.1166253 Z M 13.161526,9.60749 c -0.173084,0 -0.237897,0.132228 -0.270582,0.553612 -0.07918,1.020805 -0.456336,1.918572 -1.135216,2.704298 -0.486071,0.562572 -1.391734,1.113876 -2.1677942,1.319494 C 9.1378356,14.30415 8.2611491,14.348092 7.7886949,14.275074 7.2949129,14.198782 6.6109082,13.951944 6.1791766,13.694257 5.7709424,13.450594 5.0665592,12.795157 4.8192502,12.428414 4.4131148,11.82614 4.1112076,10.997647 4.0619225,10.35237 4.0172036,9.7669869 3.9989366,9.6992236 3.8760877,9.6432508 3.7925333,9.6051842 3.733701,9.6060878 3.6436022,9.6471522 l -0.120524,0.055207 0.026438,0.5124018 c 0.084353,1.669531 1.0929635,3.230288 2.6094402,4.037007 0.4586026,0.243964 0.7910014,0.364959 1.309387,0.477414 0.4830794,0.104808 1.4073404,0.117312 1.8863244,0.02564 0.9498492,-0.181735 1.7574012,-0.594303 2.4764802,-1.265841 0.92225,-0.861281 1.465068,-2.010503 1.565197,-3.313116 0.0257,-0.3344012 0.01849,-0.3985491 -0.05287,-0.4774137 -0.04534,-0.050107 -0.12687,-0.090972 -0.181945,-0.090972 z"
     class="ColorScheme-Text" />
</svg>
