<?xml version="1.0" encoding="UTF-8" standalone="no"?>
<svg
   width="64"
   height="64"
   version="1.1"
   viewBox="0 0 16.933 16.933"
   id="svg7"
   sodipodi:docname="preferences-desktop-gestures-screenedges.svg"
   inkscape:version="1.4.2 (ebf0e940d0, 2025-05-08)"
   xmlns:inkscape="http://www.inkscape.org/namespaces/inkscape"
   xmlns:sodipodi="http://sodipodi.sourceforge.net/DTD/sodipodi-0.dtd"
   xmlns="http://www.w3.org/2000/svg"
   xmlns:svg="http://www.w3.org/2000/svg"
   xmlns:rdf="http://www.w3.org/1999/02/22-rdf-syntax-ns#"
   xmlns:cc="http://creativecommons.org/ns#"
   xmlns:dc="http://purl.org/dc/elements/1.1/">
  <sodipodi:namedview
     id="namedview7"
     pagecolor="#9c4444"
     bordercolor="#000000"
     borderopacity="0.25"
     inkscape:showpageshadow="2"
     inkscape:pageopacity="0.0"
     inkscape:pagecheckerboard="0"
     inkscape:deskcolor="#d1d1d1"
     inkscape:zoom="6.15625"
     inkscape:cx="15.675127"
     inkscape:cy="27.208122"
     inkscape:window-width="1226"
     inkscape:window-height="669"
     inkscape:window-x="0"
     inkscape:window-y="0"
     inkscape:window-maximized="0"
     inkscape:current-layer="svg7"
     showgrid="false" />
  <defs
     id="defs2">
    <style
       id="current-color-scheme"
       type="text/css">.ColorScheme-Text {color:#d8dee9} .ColorScheme-Highlight {color:#3b4252}</style>
  </defs>
  <metadata
     id="metadata2">
    <rdf:RDF>
      <cc:Work
         rdf:about="">
        <dc:format>image/svg+xml</dc:format>
        <dc:type
           rdf:resource="http://purl.org/dc/dcmitype/StillImage" />
      </cc:Work>
    </rdf:RDF>
  </metadata>
  <g
     transform="matrix(0.88192708,0,0,0.88192708,1.4110834,1.4110834)"
     id="g3"
     style="fill:currentColor;fill-opacity:1;stroke:none;stroke-width:0.389438;stroke-dasharray:none;stroke-opacity:0.3"
     class="ColorScheme-Text">
    <path
       style="fill:currentColor;fill-opacity:1;stroke:none;stroke-width:0.467326;stroke-dasharray:none;stroke-opacity:0.3"
       class="ColorScheme-Text"
       d="m 12.8,9.2 v 3.6 H 9.2 v 2.4 H 14 c 1.2,0 1.2,-1.2 1.2,-1.2 V 9.2 Z m -12,0 V 14 c 0,0 0,1.2 1.2,1.2 H 6.8 V 12.8 H 3.2 V 9.2 Z M 9.2,0.8 v 2.4 h 3.6 v 3.6 h 2.4 V 2 c 0,0 0,-1.2 -1.2,-1.2 z M 2,0.8 C 0.8,0.8 0.8,2 0.8,2 V 6.8 H 3.2 V 3.2 H 6.8 V 0.8 Z"
       id="path1-8" />
  </g>
</svg>
