<?xml version="1.0" encoding="UTF-8" standalone="no"?>
<svg
   width="64"
   height="64"
   version="1.1"
   viewBox="0 0 16.933 16.933"
   id="svg7"
   sodipodi:docname="preferences-smart-status.svg"
   inkscape:version="1.4.2 (ebf0e940d0, 2025-05-08)"
   xmlns:inkscape="http://www.inkscape.org/namespaces/inkscape"
   xmlns:sodipodi="http://sodipodi.sourceforge.net/DTD/sodipodi-0.dtd"
   xmlns="http://www.w3.org/2000/svg"
   xmlns:svg="http://www.w3.org/2000/svg"
   xmlns:rdf="http://www.w3.org/1999/02/22-rdf-syntax-ns#"
   xmlns:cc="http://creativecommons.org/ns#"
   xmlns:dc="http://purl.org/dc/elements/1.1/">
  <sodipodi:namedview
     id="namedview7"
     pagecolor="#9c4444"
     bordercolor="#000000"
     borderopacity="0.25"
     inkscape:showpageshadow="2"
     inkscape:pageopacity="0.0"
     inkscape:pagecheckerboard="0"
     inkscape:deskcolor="#d1d1d1"
     inkscape:zoom="4.3531261"
     inkscape:cx="36.410615"
     inkscape:cy="40.200995"
     inkscape:window-width="1543"
     inkscape:window-height="1372"
     inkscape:window-x="0"
     inkscape:window-y="0"
     inkscape:window-maximized="0"
     inkscape:current-layer="svg7"
     showgrid="false" />
  <defs
     id="defs2">
    <style
       id="current-color-scheme"
       type="text/css">.ColorScheme-Text {color:#d8dee9} .ColorScheme-Highlight {color:#3b4252}</style>
  </defs>
  <metadata
     id="metadata2">
    <rdf:RDF>
      <cc:Work
         rdf:about="">
        <dc:format>image/svg+xml</dc:format>
        <dc:type
           rdf:resource="http://purl.org/dc/dcmitype/StillImage" />
      </cc:Work>
    </rdf:RDF>
  </metadata>
  <path
     id="path14"
     class="ColorScheme-Text"
     style="fill:currentColor;fill-opacity:1;stroke-width:0.453563"
     d="M 2.5701869,2.1166247 V 14.816376 H 3.9308754 V 13.455687 H 12.095 v 1.360689 h 1.360688 V 8.5639451 l -0.911554,0.9115542 a 1.3606876,1.3606876 0 0 0 0.0044,0.00354 v 1.7088377 l -1.360665,1.360687 h -0.628964 c -0.5789368,0.445679 -1.3046303,0.710464 -2.0924111,0.710464 -0.7874867,0 -1.5125658,-0.264886 -2.0915268,-0.710464 H 4.8380004 L 3.4773137,11.187876 V 9.4781571 a 1.3606876,1.3606876 0 0 0 0.4491321,-0.9186414 1.3606876,1.3606876 0 0 0 0,-0.00268 0.90712501,0.90712501 0 0 0 0.00446,-0.09034 0.90712501,0.90712501 0 0 0 -0.00174,-0.052266 A 1.3606876,1.3606876 0 0 0 3.477383,7.4539565 V 5.2915624 A 2.2678127,2.2678127 0 0 1 5.745195,3.0237497 H 9.1167954 V 2.766849 h 0.9372436 c 0.274947,0 0.521507,0.117864 0.692745,0.3056232 A 2.2678127,2.2678127 0 0 1 11.45372,3.3506336 C 11.592938,3.0079292 11.928378,2.766849 12.321867,2.766849 h 0.937245 v 0.4535626 h 0.19666 V 2.1166247 Z M 9.373625,3.0237497 V 3.4773123 H 8.0129382 V 5.7451248 7.2936154 L 10.727226,10.007904 C 10.63515,11.175896 9.6581533,12.095 8.4665008,12.095 7.2140225,12.095 6.1986872,11.079666 6.1986872,9.8271875 V 8.8421066 A 1.3606876,1.3606876 0 0 0 7.1058132,7.559375 1.3606876,1.3606876 0 0 0 5.7451247,6.1986874 1.3606876,1.3606876 0 0 0 4.3844378,7.559375 1.3606876,1.3606876 0 0 0 5.2915621,8.8421066 v 0.9850809 c 0,1.7534695 1.4214689,3.1749365 3.1749387,3.1749365 1.6884592,0 3.0686832,-1.317622 3.1687362,-2.980932 L 14.362813,7.2936154 V 5.7451248 3.4773123 H 13.002126 V 3.0237497 h -0.680344 c -0.375744,0 -0.680344,0.3046003 -0.680344,0.6803436 0,0.3757435 0.304599,0.6803439 0.680344,0.6803439 h 0.680344 V 3.9308747 h 0.907123 V 5.7451248 H 13.455687 V 6.3413115 A 2.7213751,2.7213751 0 0 1 11.187876,7.559375 2.7213751,2.7213751 0 0 1 8.9200625,6.3413115 V 5.7451248 H 8.4665008 V 3.9308747 H 9.373625 v 0.4535625 h 0.680343 c 0.375746,0 0.680345,-0.3046004 0.680345,-0.6803439 0,-0.3757433 -0.304601,-0.6803436 -0.680345,-0.6803436 z m 3.8854,1.1640257 v 0.4535624 h -0.80525 a 2.2678127,2.2678127 0 0 1 0.09479,0.6502246 v 1.6007567 c 0.2507,-0.1661572 0.471989,-0.3788843 0.65022,-0.6307353 V 5.4882242 h 0.256898 V 4.1877754 Z M 5.7451247,6.6522498 A 0.90712501,0.90712501 0 0 1 6.6522498,7.559375 0.90712501,0.90712501 0 0 1 5.7451247,8.4665 0.90712501,0.90712501 0 0 1 4.8380004,7.559375 0.90712501,0.90712501 0 0 1 5.7451247,6.6522498 Z M 9.5747155,7.5726629 A 3.1749376,3.1749376 0 0 0 11.187876,8.0129375 3.1749376,3.1749376 0 0 0 12.801033,7.5726629 L 11.187876,9.185822 Z M 4.8380004,13.90925 v 0.453563 H 8.9200625 V 13.90925 Z m 4.5356246,0 v 0.453563 h 1.814252 V 13.90925 Z" />
</svg>
