<?xml version="1.0" encoding="UTF-8" standalone="no"?>
<svg
   width="64"
   height="64"
   version="1.1"
   viewBox="0 0 16.933 16.933"
   id="svg7"
   sodipodi:docname="preferences-web-browser-stylesheets.svg"
   inkscape:version="1.4.2 (ebf0e940d0, 2025-05-08)"
   xmlns:inkscape="http://www.inkscape.org/namespaces/inkscape"
   xmlns:sodipodi="http://sodipodi.sourceforge.net/DTD/sodipodi-0.dtd"
   xmlns="http://www.w3.org/2000/svg"
   xmlns:svg="http://www.w3.org/2000/svg"
   xmlns:rdf="http://www.w3.org/1999/02/22-rdf-syntax-ns#"
   xmlns:cc="http://creativecommons.org/ns#"
   xmlns:dc="http://purl.org/dc/elements/1.1/">
  <sodipodi:namedview
     id="namedview7"
     pagecolor="#9c4444"
     bordercolor="#000000"
     borderopacity="0.25"
     inkscape:showpageshadow="2"
     inkscape:pageopacity="0.0"
     inkscape:pagecheckerboard="0"
     inkscape:deskcolor="#d1d1d1"
     inkscape:zoom="4.3531261"
     inkscape:cx="36.410615"
     inkscape:cy="40.200995"
     inkscape:window-width="1543"
     inkscape:window-height="1372"
     inkscape:window-x="0"
     inkscape:window-y="0"
     inkscape:window-maximized="0"
     inkscape:current-layer="svg7"
     showgrid="false" />
  <defs
     id="defs2">
    <style
       id="current-color-scheme"
       type="text/css">.ColorScheme-Text {color:#d8dee9} .ColorScheme-Highlight {color:#3b4252}</style>
  </defs>
  <metadata
     id="metadata2">
    <rdf:RDF>
      <cc:Work
         rdf:about="">
        <dc:format>image/svg+xml</dc:format>
        <dc:type
           rdf:resource="http://purl.org/dc/dcmitype/StillImage" />
      </cc:Work>
    </rdf:RDF>
  </metadata>
  <path
     id="rect6"
     class="ColorScheme-Text"
     style="baseline-shift:baseline;display:inline;overflow:visible;vector-effect:none;fill:currentColor;stroke-width:0.437923;enable-background:accumulate;stop-color:#000000"
     d="m 8.4664997,2.1166253 c -3.5140438,0 -6.3498756,2.8358318 -6.3498756,6.3498747 0,3.514044 2.8358318,6.349874 6.3498756,6.349874 3.5140433,0 6.3498763,-2.83583 6.3498763,-6.349874 0,-3.5140429 -2.835833,-6.3498747 -6.3498763,-6.3498747 z M 8.9044224,2.5699426 C 10.478365,2.683801 11.876251,3.4065623 12.865396,4.5055263 v 8.534e-4 l -0.01967,0.019676 v 0.4379227 h 0.391734 c 0.06848,0.093384 0.134566,0.1881768 0.197582,0.2856763 L 13.283644,5.4010534 12.4078,6.2768978 11.969878,6.7148206 11.531955,8.0285868 V 8.4665095 L 11.969878,8.904433 12.4078,9.3423557 13.283644,9.7802779 14.283511,9.5339466 C 13.80392,12.192212 11.562444,14.217164 8.8000707,14.369055 L 8.9035695,14.160357 V 13.722435 L 9.779414,13.284511 10.217337,12.846589 V 11.970745 L 10.65526,11.532822 V 11.0949 l -0.428515,-0.428514 c -0.07149,0.767518 -0.5151227,1.113622 -1.3488342,1.113622 H 8.6298682 v -1.014405 h 0.2480426 c 0.1130148,0 0.1806074,-0.0144 0.2052755,-0.02482 0.01241,-0.0053 0.015226,-0.0085 0.017956,-0.01104 0.00265,-0.0026 0.00625,-0.0066 0.012907,-0.02052 0.012907,-0.02795 0.030966,-0.09884 0.039344,-0.211263 0.0041,-0.05507 0.00642,-0.119748 0.00779,-0.193301 L 8.9037317,10.219075 8.4658091,9.7811534 8.0278872,9.3432312 H 7.7567496 c 0.010104,0.09264 0.013736,0.1800117 0.013736,0.2574504 v 0.4447674 c 0,0.189235 7.018e-4,0.341305 0.00862,0.454175 0.00779,0.112872 0.025043,0.184302 0.037642,0.212118 0.00625,0.0139 0.010596,0.01747 0.012916,0.01966 5.691e-4,5.7e-4 0.00103,0.0011 0.00163,0.0017 0.00214,0.0017 0.00625,0.0044 0.013736,0.0078 0.023468,0.01008 0.090556,0.02479 0.2035646,0.02479 h 0.248031 v 1.014402 H 8.0485806 c -0.9148005,0 -1.3522559,-0.416723 -1.3522559,-1.347126 V 9.8016251 c 0,-0.1448118 -0.00154,-0.291198 -0.013736,-0.4191049 -0.012085,-0.1279114 -0.036845,-0.2367854 -0.06586,-0.2993609 -0.019334,-0.041724 -0.037505,-0.060862 -0.050471,-0.07013 -0.012906,-0.00926 -0.024332,-0.016219 -0.066715,-0.016219 H 6.0291185 V 8.5306607 L 5.8383817,8.4673687 4.9625372,8.9052906 H 4.0867133 V 8.0294659 H 3.6487907 V 7.1536205 L 3.2117213,7.1527671 2.7737987,7.5906889 H 2.6181296 C 2.6893727,7.1055708 2.8189734,6.6401583 2.9996005,6.2016536 L 4.0875658,5.8390001 4.5254876,6.2769227 4.9634102,6.7148444 V 5.8390001 L 5.8392547,5.4010774 V 4.9631538 L 6.7150992,4.5252312 7.5909453,3.6493867 V 4.0873093 L 8.0288672,3.6493867 7.5909453,3.2114648 H 8.4667898 V 3.6493867 L 9.342345,3.2114298 8.9044224,2.773508 Z M 8.0482493,5.401044 c -0.7781874,0 -1.1042148,0.30907 -1.1042148,1.0990822 v 0.6312236 c 0,0.4878457 -0.015226,1.0528966 -0.4447645,1.0528966 H 6.2768873 V 8.7487546 H 6.49927 c 0.4296009,0 0.4447645,0.5650508 0.4447645,1.0528962 v 0.6312232 c 0,0.790013 0.3260274,1.099082 1.1042148,1.099082 v -0.518322 c -0.518938,0 -0.5260204,-0.209737 -0.5260204,-0.968217 V 9.60065 c 0,-0.3639127 -0.089826,-0.9056571 -0.5268745,-1.1298732 C 7.4324015,8.2461235 7.5222289,7.7039613 7.5222289,7.3400471 V 6.8875839 c 0,-0.758481 0.00745,-0.9682182 0.5260204,-0.9682182 z m 0.829659,0 v 0.5183217 c 0.5189379,0 0.5328613,0.2097372 0.5328613,0.9682182 v 0.4524632 c 0,0.363476 0.089826,0.906513 0.5268767,1.1307297 C 9.5005988,8.6949929 9.4107696,9.2367373 9.4107696,9.60065 v 0.444768 c 0,0.75848 -0.0139,0.968218 -0.5328613,0.968218 v 0.518322 c 0.7781875,0 1.1110562,-0.30907 1.1110562,-1.099083 V 9.8025058 c 0,-0.4878462 0.029863,-1.0528953 0.4524615,-1.0528953 h 0.214685 V 8.1842463 h -0.214685 c -0.422594,0 -0.4524615,-0.5650508 -0.4524615,-1.0528965 V 6.5001261 c 0,-0.7900122 -0.3324314,-1.0990821 -1.1110562,-1.0990821 z M 2.5631004,8.1431901 3.2105753,8.467355 3.648498,8.9052777 4.5243425,9.3431995 4.9622651,9.7811217 4.5243425,10.219045 v 0.875845 l 0.4379226,0.875845 0.8758445,0.875844 v 0.922888 C 3.8873528,12.806438 2.5545468,10.799984 2.5545468,8.4665 c 0,-0.1086132 0.00282,-0.2161938 0.0086,-0.3233099 z" />
</svg>
