<?xml version="1.0" encoding="UTF-8" standalone="no"?>
<svg
   width="64"
   height="64"
   version="1.1"
   viewBox="0 0 16.933 16.933"
   id="svg7"
   sodipodi:docname="preferences-web-browser-identification.svg"
   inkscape:version="1.4.2 (ebf0e940d0, 2025-05-08)"
   xmlns:inkscape="http://www.inkscape.org/namespaces/inkscape"
   xmlns:sodipodi="http://sodipodi.sourceforge.net/DTD/sodipodi-0.dtd"
   xmlns="http://www.w3.org/2000/svg"
   xmlns:svg="http://www.w3.org/2000/svg"
   xmlns:rdf="http://www.w3.org/1999/02/22-rdf-syntax-ns#"
   xmlns:cc="http://creativecommons.org/ns#"
   xmlns:dc="http://purl.org/dc/elements/1.1/">
  <sodipodi:namedview
     id="namedview7"
     pagecolor="#9c4444"
     bordercolor="#000000"
     borderopacity="0.25"
     inkscape:showpageshadow="2"
     inkscape:pageopacity="0.0"
     inkscape:pagecheckerboard="0"
     inkscape:deskcolor="#d1d1d1"
     inkscape:zoom="4.3531261"
     inkscape:cx="36.410615"
     inkscape:cy="40.200995"
     inkscape:window-width="1543"
     inkscape:window-height="1372"
     inkscape:window-x="0"
     inkscape:window-y="0"
     inkscape:window-maximized="0"
     inkscape:current-layer="svg7"
     showgrid="false" />
  <defs
     id="defs2">
    <style
       id="current-color-scheme"
       type="text/css">.ColorScheme-Text {color:#d8dee9} .ColorScheme-Highlight {color:#3b4252}</style>
  </defs>
  <metadata
     id="metadata2">
    <rdf:RDF>
      <cc:Work
         rdf:about="">
        <dc:format>image/svg+xml</dc:format>
        <dc:type
           rdf:resource="http://purl.org/dc/dcmitype/StillImage" />
      </cc:Work>
    </rdf:RDF>
  </metadata>
  <path
     id="rect6"
     class="ColorScheme-Text"
     style="baseline-shift:baseline;display:inline;overflow:visible;vector-effect:none;fill:currentColor;stroke-width:0.437922;enable-background:accumulate;stop-color:#000000"
     d="m 8.4665,2.1166253 c -3.5140429,0 -6.3498747,2.8358318 -6.3498747,6.3498747 0,3.514044 2.8358318,6.349874 6.3498747,6.349874 3.514044,0 6.349874,-2.83583 6.349874,-6.349874 0,-3.5140429 -2.83583,-6.3498747 -6.349874,-6.3498747 z M 8.9044228,2.5699442 C 10.478293,2.6837366 11.876226,3.406695 12.865395,4.5055255 l -0.01968,0.019676 v 0.4379227 h 0.391734 c 0.06856,0.09345 0.134517,0.1889693 0.19758,0.2865313 L 13.283635,5.401038 12.40779,6.2768825 11.969869,6.7148051 11.779987,7.2844477 v 0.5542436 h -0.184751 l -0.06329,0.1898818 v 0.4379227 l 0.437923,0.4379218 0.437922,0.4379218 0.875844,0.4379222 0.999867,-0.2463305 c -0.47953,2.6586709 -2.720596,4.6835639 -5.4834432,4.8351059 l 0.1043424,-0.209552 v -0.437922 l 0.8758439,-0.437922 0.4379219,-0.437922 v -0.875843 l 0.189882,-0.189882 H 9.9701262 V 11.342076 H 9.152444 9.0942787 8.2184334 V 10.904154 H 7.8386717 v 0.875844 H 5.1529757 V 9.1524654 9.0943002 8.809478 L 4.9630964,8.904418 H 4.0872538 V 8.0285766 H 3.649331 V 7.1527321 H 3.2114076 L 2.7734857,7.5906547 H 2.6178168 C 2.6890512,7.1055101 2.8186486,6.6401438 2.9992877,6.2016186 L 4.0872521,5.8389641 4.5251738,6.2768858 4.9630964,6.7148085 V 5.8389641 l 0.1898801,-0.09494 V 5.1529996 H 5.8389409 V 4.9631213 L 6.7147854,4.5251987 7.5906317,3.649355 V 4.0872768 L 8.0285534,3.649355 7.5906317,3.2114306 H 8.4664752 V 3.649355 L 9.3423197,3.2114306 8.9043979,2.7735089 Z M 5.4010432,5.4010432 V 7.5906564 H 7.5906564 V 5.4010432 Z m 3.0654568,0 V 5.8389657 H 8.9044228 V 5.4010432 Z m 0.8758445,0 V 7.5906564 H 11.531958 V 5.4010432 Z M 5.8389657,5.8389657 H 7.1527338 V 7.1527338 H 5.8389657 Z m 3.9413019,0 H 11.094036 V 7.1527338 H 9.7802676 Z m -3.50338,0.4379219 V 6.7148102 H 6.7148102 V 6.2768876 Z m 1.7516907,0 V 7.1527338 H 8.4665 V 6.7148102 H 8.9044228 V 6.2768876 H 8.4665 Z M 8.4665,7.1527338 V 7.5906564 H 8.0285783 V 8.0285783 H 7.5906564 V 8.4665 H 8.0285783 V 8.9044228 H 8.9044228 V 8.4665 H 8.4665 V 8.0285783 H 8.9044228 V 7.1527338 Z M 8.9044228,8.0285783 V 8.4665 H 9.3423445 V 8.9044228 H 9.7802676 V 8.4665 H 10.218189 V 8.0285783 H 9.3423445 Z M 10.218189,6.2768876 v 0.4379226 h 0.437925 V 6.2768876 Z M 5.8389657,8.0285783 V 8.4665 H 6.2768876 V 8.0285783 Z M 6.2768876,8.4665 V 8.9044228 H 7.1527338 V 8.0285783 H 6.7148102 V 8.4665 Z m -0.4379219,0 H 5.4010432 V 8.9044228 H 5.8389657 Z M 10.656114,8.0285783 V 8.4665 h 0.437922 V 8.0285783 Z m -8.0930124,0.11376 0.648329,0.324165 L 3.649355,8.9044259 4.5251987,9.342348 4.9631213,9.7802702 4.5251987,10.218193 v 0.875845 l 0.4379226,0.875845 0.8758445,0.875844 V 13.76947 C 3.8880755,12.806488 2.554547,10.800084 2.554547,8.4665035 c 0,-0.1087284 0.00282,-0.2169333 0.00862,-0.324165 z M 10.656114,8.9044259 V 9.342348 h 0.437922 V 8.9044261 Z m 0.437922,0.4379221 v 0.4379222 h 0.437923 V 9.342348 Z m -5.6929928,0 V 11.53196 H 7.5906564 V 9.342348 Z m 2.4376533,0 V 9.9701519 H 8.2184582 V 9.5322296 L 8.0285783,9.342348 Z m 1.0657263,0 V 9.7802702 H 9.3423445 V 9.342348 Z m 0,0.4379222 H 8.4665 V 10.218193 H 8.0285783 v 0.437924 H 8.4665 v 0.437922 H 8.9044228 V 10.218192 Z M 9.7802676,9.342348 V 9.7802702 H 10.218189 V 9.342348 Z m 0.4379214,0.4379222 v 0.4379218 h 0.437923 V 9.7802702 Z m 0.437923,0.4379218 v 0.437924 h 0.437922 v -0.437924 z m 0,0.437924 h -0.437923 v 0.875844 h 0.437923 v -0.437922 z m -0.437923,0 V 10.218189 H 9.3423445 v 0.875845 H 9.7802676 V 10.656112 Z M 5.8389657,9.7802702 H 7.1527338 V 11.094038 H 5.8389657 Z m 0.4379219,0.4379228 v 0.437924 h 0.4379226 v -0.437925 z m 4.8171464,0.875845 v 0.437922 h 0.437924 v -0.437922 z" />
</svg>
