<?xml version="1.0" encoding="UTF-8" standalone="no"?>
<svg
   width="64"
   height="64"
   version="1.1"
   viewBox="0 0 16.933 16.933"
   id="svg7"
   sodipodi:docname="preferences-tabs.svg"
   inkscape:version="1.4.2 (ebf0e940d0, 2025-05-08)"
   xmlns:inkscape="http://www.inkscape.org/namespaces/inkscape"
   xmlns:sodipodi="http://sodipodi.sourceforge.net/DTD/sodipodi-0.dtd"
   xmlns="http://www.w3.org/2000/svg"
   xmlns:svg="http://www.w3.org/2000/svg"
   xmlns:rdf="http://www.w3.org/1999/02/22-rdf-syntax-ns#"
   xmlns:cc="http://creativecommons.org/ns#"
   xmlns:dc="http://purl.org/dc/elements/1.1/">
  <sodipodi:namedview
     id="namedview7"
     pagecolor="#9c4444"
     bordercolor="#000000"
     borderopacity="0.25"
     inkscape:showpageshadow="2"
     inkscape:pageopacity="0.0"
     inkscape:pagecheckerboard="0"
     inkscape:deskcolor="#d1d1d1"
     inkscape:zoom="7.625"
     inkscape:cx="32"
     inkscape:cy="31.934426"
     inkscape:window-width="1226"
     inkscape:window-height="669"
     inkscape:window-x="0"
     inkscape:window-y="0"
     inkscape:window-maximized="0"
     inkscape:current-layer="svg7"
     showgrid="false" />
  <defs
     id="defs2">
    <style
       id="current-color-scheme"
       type="text/css">.ColorScheme-Text {color:#d8dee9} .ColorScheme-Highlight {color:#3b4252}</style>
  </defs>
  <metadata
     id="metadata2">
    <rdf:RDF>
      <cc:Work
         rdf:about="">
        <dc:format>image/svg+xml</dc:format>
        <dc:type
           rdf:resource="http://purl.org/dc/dcmitype/StillImage" />
      </cc:Work>
    </rdf:RDF>
  </metadata>
  <path
     id="rect4239"
     class="ColorScheme-Text"
     style="fill:currentColor;stroke-width:0.527977;stroke-linejoin:round"
     d="m 2.4700849,2.6226307 c -0.1958778,0 -0.3534599,0.2186788 -0.3534599,0.489883 v 1.1329317 c 0,0.2712042 0.1575821,0.4892629 0.3534599,0.4892629 h 5.1009836 c 0.1958776,0 0.3534598,-0.2180587 0.3534598,-0.4892629 V 3.1125137 c 0,-0.2712042 -0.1575822,-0.489883 -0.3534598,-0.489883 z m 7.135548,0 c -0.3465467,0 -0.6250659,0.2186788 -0.6250659,0.489883 v 1.1329317 c 0,0.2712042 0.2785192,0.4892629 0.6250659,0.4892629 h 4.5571511 c 0.346547,0 0.625066,-0.2180587 0.625066,-0.4892629 V 3.1125137 c 0,-0.2712042 -0.278519,-0.489883 -0.625066,-0.489883 z M 3.4207058,5.9333712 c -0.7081442,0 -1.2780364,0.5582945 -1.2780364,1.2513719 v 5.8742539 c 0,0.693078 0.5698922,1.251372 1.2780364,1.251372 H 13.538339 c 0.708143,0 1.278036,-0.558294 1.278036,-1.251372 V 7.1847431 c 0,-0.6930774 -0.569893,-1.2513719 -1.278036,-1.2513719 z" />
</svg>
