<?xml version="1.0" encoding="UTF-8" standalone="no"?>
<svg
   width="64"
   height="64"
   version="1.1"
   viewBox="0 0 16.933 16.933"
   id="svg7"
   sodipodi:docname="preferences-system-user-sudo.svg"
   inkscape:version="1.4.2 (ebf0e940d0, 2025-05-08)"
   xmlns:inkscape="http://www.inkscape.org/namespaces/inkscape"
   xmlns:sodipodi="http://sodipodi.sourceforge.net/DTD/sodipodi-0.dtd"
   xmlns="http://www.w3.org/2000/svg"
   xmlns:svg="http://www.w3.org/2000/svg"
   xmlns:rdf="http://www.w3.org/1999/02/22-rdf-syntax-ns#"
   xmlns:cc="http://creativecommons.org/ns#"
   xmlns:dc="http://purl.org/dc/elements/1.1/">
  <sodipodi:namedview
     id="namedview7"
     pagecolor="#9c4444"
     bordercolor="#000000"
     borderopacity="0.25"
     inkscape:showpageshadow="2"
     inkscape:pageopacity="0.0"
     inkscape:pagecheckerboard="0"
     inkscape:deskcolor="#d1d1d1"
     inkscape:zoom="6.15625"
     inkscape:cx="15.756345"
     inkscape:cy="29.64467"
     inkscape:window-width="1226"
     inkscape:window-height="669"
     inkscape:window-x="0"
     inkscape:window-y="0"
     inkscape:window-maximized="0"
     inkscape:current-layer="svg7"
     showgrid="false" />
  <defs
     id="defs2">
    <style
       id="current-color-scheme"
       type="text/css">.ColorScheme-Text {color:#d8dee9} .ColorScheme-Highlight {color:#3b4252}</style>
  </defs>
  <metadata
     id="metadata2">
    <rdf:RDF>
      <cc:Work
         rdf:about="">
        <dc:format>image/svg+xml</dc:format>
        <dc:type
           rdf:resource="http://purl.org/dc/dcmitype/StillImage" />
      </cc:Work>
    </rdf:RDF>
  </metadata>
  <g
     id="g26"
     transform="matrix(2.6666598,0,0,2.6666598,-14.463564,-2.8221244)"
     style="fill:currentColor"
     class="ColorScheme-Text">
    <path
       d="m 8.4400428,2.0107888 c -0.6156204,0 -1.111228,0.4956078 -1.111228,1.1112281 0,0.6156204 0.4956076,1.1112282 1.111228,1.1112282 0.6156204,0 1.1112281,-0.4956078 1.1112281,-1.1112282 0,-0.6156203 -0.4956077,-1.1112281 -1.1112281,-1.1112281 z m 0,2.2224563 c -1.2312406,0 -2.2224561,0.9912155 -2.2224561,2.2224562 H 8.7575366 V 6.1382076 H 6.5636548 a 1.8986126,1.8986126 0 0 1 1.876388,-1.5874688 c 0.1139808,0 0.2244681,0.012065 0.331781,0.033019 l 0.082548,-0.3089214 a 2.1126034,2.1126034 0 0 0 -0.414329,-0.041591 z m 0,-1.9049625 c 0.4397289,0 0.7937344,0.3540055 0.7937344,0.7937343 0,0.4397288 -0.3540055,0.7937344 -0.7937344,0.7937344 -0.4397288,0 -0.7937343,-0.3540056 -0.7937343,-0.7937344 0,-0.4397288 0.3540055,-0.7937343 0.7937343,-0.7937343 z"
       id="path7"
       style="fill:currentColor;stroke-width:0.317494"
       class="ColorScheme-Text" />
    <g
       stroke-width="0.707"
       id="g10"
       style="fill:currentColor"
       transform="matrix(0.26457812,0,0,0.26457812,-97.51581,-136.46887)"
       class="ColorScheme-Text">
      <path
         d="m 407.671,532.998 v 7.2 h 1.2 v -7.2 z"
         id="path8"
         style="fill:currentColor;stroke-width:0.8484"
         class="ColorScheme-Text" />
      <path
         d="m 402.871,538.998 h 7.2 v -1.2 h -7.2 z m 0,-3.6 h 7.2 v -1.2 h -7.2 z"
         id="path9"
         style="fill:currentColor;stroke-width:0.8484"
         class="ColorScheme-Text" />
      <path
         d="m 404.071,532.998 v 7.2 h 1.2 v -7.2 z"
         id="path10"
         style="fill:currentColor;stroke-width:0.8484"
         class="ColorScheme-Text" />
    </g>
  </g>
</svg>
