<?xml version="1.0" encoding="UTF-8" standalone="no"?>
<svg
   height="32"
   viewBox="0 0 8.467 8.467"
   width="32"
   version="1.1"
   id="svg21"
   sodipodi:docname="preferences-system-network-ethernet.svg"
   xmlns:inkscape="http://www.inkscape.org/namespaces/inkscape"
   xmlns:sodipodi="http://sodipodi.sourceforge.net/DTD/sodipodi-0.dtd"
   xmlns:xlink="http://www.w3.org/1999/xlink"
   xmlns="http://www.w3.org/2000/svg"
   xmlns:svg="http://www.w3.org/2000/svg">
  <defs
     id="defs21" />
  <sodipodi:namedview
     id="namedview21"
     pagecolor="#ffffff"
     bordercolor="#000000"
     borderopacity="0.25"
     inkscape:showpageshadow="2"
     inkscape:pageopacity="0.0"
     inkscape:pagecheckerboard="0"
     inkscape:deskcolor="#d1d1d1" />
  <linearGradient
     id="b">
    <stop
       offset="0"
       stop-color="#232629"
       id="stop1" />
    <stop
       offset="1"
       stop-color="#a2abae"
       id="stop2" />
  </linearGradient>
  <linearGradient
     id="a">
    <stop
       offset="0"
       stop-color="#31363b"
       id="stop3" />
    <stop
       offset="1"
       stop-color="#31363b"
       stop-opacity="0"
       id="stop4" />
  </linearGradient>
  <linearGradient
     id="c"
     gradientUnits="userSpaceOnUse"
     x1="4.233"
     x2="4.233"
     y1="7.938"
     y2=".53"
     gradientTransform="matrix(1.2,0,0,1.2,-0.84669952,-0.84670009)">
    <stop
       offset="0"
       stop-color="#7f8c8d"
       id="stop5" />
    <stop
       offset="1"
       stop-color="#bdc3c7"
       id="stop6" />
  </linearGradient>
  <linearGradient
     id="d"
     gradientUnits="userSpaceOnUse"
     x1="16"
     x2="16"
     y1="5"
     y2="27"
     gradientTransform="matrix(0.31752,0,0,0.31752,-0.84669952,-0.84670009)">
    <stop
       offset="0"
       stop-color="#232629"
       id="stop7" />
    <stop
       offset="1"
       stop-color="#292c2f"
       id="stop8" />
  </linearGradient>
  <linearGradient
     id="e"
     gradientTransform="matrix(1.2,0,0,2.39994,-1.7994995,-696.8011)"
     gradientUnits="userSpaceOnUse"
     x1="4.234"
     x2="4.234"
     y1="290.65"
     y2="291.179">
    <stop
       offset="0"
       stop-color="#fdbc4b"
       stop-opacity=".8"
       id="stop9" />
    <stop
       offset="1"
       stop-color="#fdbc4b"
       stop-opacity="0"
       id="stop10" />
  </linearGradient>
  <linearGradient
     id="f"
     gradientTransform="matrix(1.5,0,0,1.2,-2.1162995,-346.7683)"
     gradientUnits="userSpaceOnUse"
     x1="4.233"
     x2="4.233"
     xlink:href="#a"
     y1="295.412"
     y2="294.619" />
  <linearGradient
     id="g"
     gradientTransform="matrix(0.45,0,0,1.2,0.26450048,-347.7223)"
     gradientUnits="userSpaceOnUse"
     x1="4.587"
     x2="4.587"
     xlink:href="#a"
     y1="295.413"
     y2="294.619" />
  <linearGradient
     id="h"
     gradientTransform="matrix(0.45,0,0,1.2,4.3925005,-347.7223)"
     gradientUnits="userSpaceOnUse"
     x1="3.88"
     x2="3.88"
     xlink:href="#a"
     y1="295.413"
     y2="294.619" />
  <linearGradient
     id="i"
     gradientTransform="matrix(0.1500028,0,0,2.4000702,7.884783,-704.77806)"
     gradientUnits="userSpaceOnUse"
     x1="7.411"
     x2="7.411"
     xlink:href="#a"
     y1="295.413"
     y2="294.619" />
  <linearGradient
     id="j"
     gradientTransform="matrix(0.1500028,0,0,2.4000702,-0.68825704,-704.77806)"
     gradientUnits="userSpaceOnUse"
     x1="1.061"
     x2="1.061"
     xlink:href="#a"
     y1="295.413"
     y2="294.619" />
  <linearGradient
     id="k"
     gradientTransform="matrix(0.75,0,0,2.000004,-2.2746995,-585.0043)"
     gradientUnits="userSpaceOnUse"
     x1="4.444"
     x2="4.444"
     xlink:href="#a"
     y1="295.412"
     y2="294.618" />
  <linearGradient
     id="l"
     gradientTransform="matrix(0.75,0,0,2.000004,4.3925005,-585.0043)"
     gradientUnits="userSpaceOnUse"
     x1="4.021"
     x2="4.021"
     xlink:href="#a"
     y1="295.412"
     y2="294.618" />
  <radialGradient
     id="m"
     cx="-1.146"
     cy="-291.923"
     gradientTransform="matrix(-4.792644,2.04e-4,-3.6e-4,-8.387964,-4.8582995,-2446.3075)"
     gradientUnits="userSpaceOnUse"
     r=".265"
     xlink:href="#b" />
  <radialGradient
     id="n"
     cx="-1.146"
     cy="-291.923"
     gradientTransform="matrix(4.792644,8.4e-5,1.32e-4,-8.3874,13.2605,-2446.1467)"
     gradientUnits="userSpaceOnUse"
     r=".265"
     xlink:href="#b" />
  <rect
     fill="url(#c)"
     height="8.8907995"
     rx="0.63479996"
     width="10.1604"
     y="-0.21190012"
     id="rect10"
     style="fill:url(#c);stroke-width:1.2"
     x="-0.84669954" />
  <path
     d="M 0.10586048,0.74089991 V 2.3284999 h -0.31752 v 0.31752 h 0.31752 v 1.27008 h -0.31752 v 0.31752 h 0.31752 v 1.5876 H 1.6934605 v 0.95256 h 0.95256 v 0.95256 h 3.1752 v -0.95256 h 0.95256 v -0.95256 h 1.5876 v -1.5876 h 0.31752 v -0.31752 h -0.31752 v -1.27008 h 0.31752 v -0.31752 h -0.31752 V 0.74089991 Z"
     fill="url(#d)"
     style="fill:url(#d);stroke-width:0.31752"
     id="path10" />
  <path
     d="M 0.74090048,0.74089991 H 1.0589005 V 2.0104999 H 0.74090048 Z m 0.95280002,0 h 0.3168 V 2.0104999 h -0.3168 z m 0.9528,0 h 0.3168 V 2.0104999 h -0.3168 z m 4.7616,0 h 0.318 V 2.0104999 h -0.318 z m -0.9516,0 h 0.3168 V 2.0104999 h -0.3168 z m -0.9528,0 h 0.3168 V 2.0104999 h -0.3168 z m -0.9528,0 h 0.318 V 2.0104999 h -0.318 z m -0.9528,0 h 0.318 V 2.0104999 h -0.318 z"
     fill="url(#e)"
     style="fill:url(#e);stroke-width:1.2"
     id="path11" />
  <path
     d="m 2.6453005,6.7732999 h 3.1752 v 0.9528 h -3.174 z"
     fill="url(#f)"
     style="fill:url(#f);stroke-width:1.2"
     id="path12" />
  <path
     d="m 1.6937005,5.8204999 h 0.9528 v 0.9528 h -0.9528 z"
     fill="url(#g)"
     style="fill:url(#g);stroke-width:1.2"
     id="path13" />
  <path
     d="m 5.8205005,5.8204999 h 0.9528 v 0.9528 h -0.9528 z"
     fill="url(#h)"
     style="fill:url(#h);stroke-width:1.2"
     id="path14" />
  <path
     d="m 8.3613805,2.3284999 v 0.31752 h 0.31752 v -0.31752 z m 0,1.5876 v 0.31752 h 0.31752 v -0.31752 z"
     fill="url(#i)"
     style="fill:url(#i);stroke-width:0.31752"
     id="path15" />
  <path
     d="m -0.21165952,2.3284999 v 0.31752 h 0.31752 v -0.31752 z m 0,1.5876 v 0.31752 h 0.31752 v -0.31752 z"
     fill="url(#j)"
     style="fill:url(#j);stroke-width:0.31752"
     id="path16" />
  <path
     d="M 0.10610048,4.2340999 H 1.6937005 v 1.5864 H 0.10610048 Z"
     fill="url(#k)"
     style="fill:url(#k);stroke-width:1.2"
     id="path17" />
  <path
     d="m 6.7733005,4.2328999 h 1.5876 v 1.5876 h -1.5876 z"
     fill="url(#l)"
     style="fill:url(#l);stroke-width:1.2"
     id="path18" />
  <path
     d="m 0.42290048,3.9160999 h -0.6336 v -1.2708 h 0.636 z"
     fill="url(#m)"
     style="fill:url(#m);stroke-width:1.2"
     id="path19" />
  <path
     d="m 8.0441005,3.9160999 h 0.6348 v -1.2708 h -0.636 z"
     fill="url(#n)"
     style="fill:url(#n);stroke-width:1.2"
     id="path20" />
  <path
     d="m -0.84669952,7.7260999 v 0.318 c 0,0.3516 0.2832,0.6348 0.636,0.6348 H 8.6789005 a 0.6336,0.6336 0 0 0 0.6348,-0.636 v -0.3168 c 0,0.3516 -0.2832,0.636 -0.636,0.636 h -8.88840002 a 0.6336,0.6336 0 0 1 -0.636,-0.6372 z"
     fill="#69777b"
     style="stroke-width:1.2"
     id="path21" />
</svg>
