<?xml version="1.0" encoding="UTF-8" standalone="no"?>
<svg
   height="32"
   viewBox="0 0 8.467 8.467"
   width="32"
   version="1.1"
   id="svg22"
   sodipodi:docname="preferences-system-network-dsl.svg"
   xmlns:inkscape="http://www.inkscape.org/namespaces/inkscape"
   xmlns:sodipodi="http://sodipodi.sourceforge.net/DTD/sodipodi-0.dtd"
   xmlns:xlink="http://www.w3.org/1999/xlink"
   xmlns="http://www.w3.org/2000/svg"
   xmlns:svg="http://www.w3.org/2000/svg">
  <defs
     id="defs22" />
  <sodipodi:namedview
     id="namedview22"
     pagecolor="#ffffff"
     bordercolor="#000000"
     borderopacity="0.25"
     inkscape:showpageshadow="2"
     inkscape:pageopacity="0.0"
     inkscape:pagecheckerboard="0"
     inkscape:deskcolor="#d1d1d1" />
  <linearGradient
     id="b">
    <stop
       offset="0"
       stop-color="#232629"
       id="stop1" />
    <stop
       offset="1"
       stop-color="#9aa4a6"
       id="stop2" />
  </linearGradient>
  <linearGradient
     id="c"
     gradientUnits="userSpaceOnUse"
     x1="1"
     x2="1"
     y1="30"
     y2="2"
     gradientTransform="matrix(0.31752,0,0,0.31752,-0.8467,-0.84672004)">
    <stop
       offset="0"
       stop-color="#7f8c8d"
       id="stop3" />
    <stop
       offset="1"
       stop-color="#bdc3c7"
       id="stop4" />
  </linearGradient>
  <linearGradient
     id="a">
    <stop
       offset="0"
       stop-color="#31363b"
       id="stop5" />
    <stop
       offset="1"
       stop-color="#31363b"
       stop-opacity="0"
       id="stop6" />
  </linearGradient>
  <linearGradient
     id="d"
     gradientTransform="matrix(0.31750412,0,0,-0.31750412,-0.8467,9.31392)"
     gradientUnits="userSpaceOnUse"
     x1="16.001"
     x2="16.001"
     y1="28.001"
     y2="6">
    <stop
       offset="0"
       stop-color="#232629"
       id="stop7" />
    <stop
       offset="1"
       stop-color="#292c2f"
       id="stop8" />
  </linearGradient>
  <linearGradient
     id="e"
     gradientTransform="matrix(1.2,0,0,-2.39994,-1.7995,704.95008)"
     gradientUnits="userSpaceOnUse"
     x1="4.234"
     x2="4.234"
     y1="290.65"
     y2="291.179">
    <stop
       offset="0"
       stop-color="#fdbc4b"
       stop-opacity=".8"
       id="stop9" />
    <stop
       offset="1"
       stop-color="#fdbc4b"
       stop-opacity="0"
       id="stop10" />
  </linearGradient>
  <linearGradient
     id="f"
     gradientTransform="matrix(1.5,0,0,-1.2,-2.1163,354.91728)"
     gradientUnits="userSpaceOnUse"
     x1="4.233"
     x2="4.233"
     xlink:href="#a"
     y1="295.412"
     y2="294.618" />
  <linearGradient
     id="g"
     gradientTransform="matrix(0.45,0,0,-1.2,0.2645,355.87128)"
     gradientUnits="userSpaceOnUse"
     x1="4.587"
     x2="4.587"
     xlink:href="#a"
     y1="295.413"
     y2="294.619" />
  <linearGradient
     id="h"
     gradientTransform="matrix(0.45,0,0,-1.2,4.3925,355.87128)"
     gradientUnits="userSpaceOnUse"
     x1="3.88"
     x2="3.88"
     xlink:href="#a"
     y1="295.413"
     y2="294.619" />
  <linearGradient
     id="i"
     gradientTransform="matrix(0.1500028,0,0,2.4000702,7.25006,-703.1908)"
     gradientUnits="userSpaceOnUse"
     x1="7.41"
     x2="7.41"
     xlink:href="#a"
     y1="295.413"
     y2="294.619" />
  <linearGradient
     id="j"
     gradientTransform="matrix(0.1500028,0,0,2.4000702,-0.05353504,-703.1908)"
     gradientUnits="userSpaceOnUse"
     x1="1.062"
     x2="1.062"
     xlink:href="#a"
     y1="295.413"
     y2="294.619" />
  <linearGradient
     id="k"
     gradientTransform="matrix(0.45,0,0,-2.000004,-0.6883,593.15328)"
     gradientUnits="userSpaceOnUse"
     x1="4.587"
     x2="4.587"
     xlink:href="#a"
     y1="295.412"
     y2="294.618" />
  <linearGradient
     id="l"
     gradientTransform="matrix(0.45,0,0,-2.000004,5.3453,593.15328)"
     gradientUnits="userSpaceOnUse"
     x1="3.88"
     x2="3.88"
     xlink:href="#a"
     y1="295.412"
     y2="294.618" />
  <radialGradient
     id="m"
     cx="-1.147"
     cy="-291.923"
     gradientTransform="matrix(-4.792644,3.6e-5,-6e-5,-8.387052,-4.1347,-2444.4559)"
     gradientUnits="userSpaceOnUse"
     r=".265"
     xlink:href="#b" />
  <radialGradient
     id="n"
     cx="-1.146"
     cy="-291.923"
     gradientTransform="matrix(4.792644,-8.4e-5,-1.56e-4,-8.387688,12.5393,-2444.6383)"
     gradientUnits="userSpaceOnUse"
     r=".265"
     xlink:href="#b" />
  <path
     d="M 0.42210992,-0.21168004 A 0.63281736,0.63281736 0 0 0 -0.21166,0.42335996 V 8.04384 c 0,0.3518121 0.2825928,0.63504 0.63376992,0.63504 H 8.0451301 A 0.63281736,0.63281736 0 0 0 8.6789,8.04384 V 0.42335996 c 0,-0.35181216 -0.2825928,-0.63504 -0.6337699,-0.63504 z M 7.72634,4.2336 H 8.04386 V 5.50368 H 7.72634 Z"
     fill="url(#c)"
     style="fill:url(#c);stroke-width:0.31752"
     id="path10" />
  <path
     d="M 2.64602,0.42335996 V 1.37592 H 1.69346 V 2.32848 H 0.7409 v 1.5876 H 0.42338 V 4.2336 H 0.7409 V 5.50368 H 0.42338 V 5.8212 H 0.7409 V 7.4088 H 7.72634 V 5.8212 H 8.04386 V 3.91608 H 7.72634 V 2.32848 H 6.77378 V 1.37592 H 5.82122 V 0.42335996 Z"
     fill="url(#d)"
     style="fill:url(#d);stroke-width:0.31752"
     id="path11" />
  <path
     d="m 1.6937,7.40928 h 0.3168 v -1.272 H 1.6937 Z m 0.9528,0 h 0.3168 v -1.272 H 2.6465 Z m 3.81,0 h 0.3168 v -1.272 H 6.4565 Z m -0.9528,0 h 0.3168 v -1.272 H 5.5037 Z m -0.9528,0 h 0.318 v -1.272 h -0.318 z m -0.9528,0 h 0.318 v -1.272 h -0.318 z"
     fill="url(#e)"
     style="fill:url(#e);stroke-width:1.2"
     id="path12" />
  <path
     d="M 2.6453,1.37568 H 5.8205 V 0.42287996 h -3.174 z"
     fill="url(#f)"
     style="fill:url(#f);stroke-width:1.2"
     id="path13" />
  <path
     d="M 1.6937,2.32848 H 2.6465 V 1.37568 H 1.6937 Z"
     fill="url(#g)"
     style="fill:url(#g);stroke-width:1.2"
     id="path14" />
  <path
     d="M 5.8205,2.32848 H 6.7733 V 1.37568 H 5.8205 Z"
     fill="url(#h)"
     style="fill:url(#h);stroke-width:1.2"
     id="path15" />
  <path
     d="M 7.72634,3.91608 V 4.2336 H 8.04386 V 3.91608 Z m 0,1.5876 V 5.8212 H 8.04386 V 5.50368 Z"
     fill="url(#i)"
     style="fill:url(#i);stroke-width:0.31752"
     id="path16" />
  <path
     d="M 0.42338,3.91608 V 4.2336 H 0.7409 V 3.91608 Z m 0,1.5876 V 5.8212 H 0.7409 V 5.50368 Z"
     fill="url(#j)"
     style="fill:url(#j);stroke-width:0.31752"
     id="path17" />
  <path
     d="M 0.7409,3.91608 H 1.6937 V 2.32848 H 0.7409 Z"
     fill="url(#k)"
     style="fill:url(#k);stroke-width:1.2"
     id="path18" />
  <path
     d="M 6.7733,3.91608 H 7.7261 V 2.32848 H 6.7733 Z"
     fill="url(#l)"
     style="fill:url(#l);stroke-width:1.2"
     id="path19" />
  <path
     d="m 1.0589,5.50368 h -0.636 v -1.2696 h 0.636 z"
     fill="url(#m)"
     style="fill:url(#m);stroke-width:1.2"
     id="path20" />
  <path
     d="M 7.4093,5.50368 H 8.0441 V 4.23408 H 7.4081 Z"
     fill="url(#n)"
     style="fill:url(#n);stroke-width:1.2"
     id="path21" />
  <path
     d="m -0.2107,7.72608 v 0.318 c 0,0.3516 0.282,0.6348 0.6324,0.6348 h 7.6236 a 0.6324,0.6324 0 0 0 0.6336,-0.636 v -0.3168 c 0,0.3516 -0.2832,0.636 -0.6336,0.636 H 0.4217 a 0.6324,0.6324 0 0 1 -0.6336,-0.636 z"
     fill="#69777b"
     style="stroke-width:1.2"
     id="path22" />
</svg>
