<?xml version="1.0" encoding="UTF-8" standalone="no"?>
<svg
   width="64"
   height="64"
   version="1.1"
   viewBox="0 0 16.933 16.933"
   id="svg7"
   sodipodi:docname="preferences-online-accounts.svg"
   inkscape:version="1.4.2 (ebf0e940d0, 2025-05-08)"
   xmlns:inkscape="http://www.inkscape.org/namespaces/inkscape"
   xmlns:sodipodi="http://sodipodi.sourceforge.net/DTD/sodipodi-0.dtd"
   xmlns="http://www.w3.org/2000/svg"
   xmlns:svg="http://www.w3.org/2000/svg"
   xmlns:rdf="http://www.w3.org/1999/02/22-rdf-syntax-ns#"
   xmlns:cc="http://creativecommons.org/ns#"
   xmlns:dc="http://purl.org/dc/elements/1.1/">
  <sodipodi:namedview
     id="namedview7"
     pagecolor="#9c4444"
     bordercolor="#000000"
     borderopacity="0.25"
     inkscape:showpageshadow="2"
     inkscape:pageopacity="0.0"
     inkscape:pagecheckerboard="0"
     inkscape:deskcolor="#d1d1d1"
     inkscape:zoom="6.15625"
     inkscape:cx="15.756345"
     inkscape:cy="29.64467"
     inkscape:window-width="1226"
     inkscape:window-height="669"
     inkscape:window-x="0"
     inkscape:window-y="0"
     inkscape:window-maximized="0"
     inkscape:current-layer="svg7"
     showgrid="false" />
  <defs
     id="defs2">
    <style
       id="current-color-scheme"
       type="text/css">.ColorScheme-Text {color:#d8dee9} .ColorScheme-Highlight {color:#3b4252}</style>
  </defs>
  <metadata
     id="metadata2">
    <rdf:RDF>
      <cc:Work
         rdf:about="">
        <dc:format>image/svg+xml</dc:format>
        <dc:type
           rdf:resource="http://purl.org/dc/dcmitype/StillImage" />
      </cc:Work>
    </rdf:RDF>
  </metadata>
  <path
     d="m 8.4665001,2.1478606 c -3.5069386,0 -6.3498754,2.8289544 -6.3498754,6.31864 0,3.4896834 2.8429368,6.3186394 6.3498754,6.3186394 3.5069349,0 6.3498759,-2.828956 6.3498759,-6.3186394 0,-3.4896855 -2.842941,-6.31864 -6.3498759,-6.31864 z M 8.0129373,3.8967703 c 0.060686,-0.00631 0.1372127,0.00361 0.1984475,0 0.0072,0.028898 -0.044195,0.1316721 -0.1133832,0.2820834 C 7.6572658,5.1369038 7.632264,6.2589139 8.0412946,6.858634 8.1153166,6.967366 8.183031,7.0708481 8.183031,7.0843009 c 0,0.013445 -0.079816,0.028145 -0.1700918,0.028145 -0.2118848,0 -0.4123988,-0.1285032 -0.8220821,-0.4513224 C 7.0088673,6.5177167 6.7722617,6.3972657 6.6805949,6.3790341 6.5366636,6.3504122 6.4982981,6.3629659 6.3120682,6.5482815 6.1388219,6.7206554 6.0853028,6.8136003 6.0853028,6.9714053 c 0,0.5984116 0.7139792,1.074114 2.0410324,1.3539942 1.8021833,0.3800846 2.2464498,0.721336 2.2961578,1.6642845 0.06241,1.182469 -0.5702161,2.074111 -1.9559887,2.764403 -0.1653947,0.0824 -0.2707893,0.114408 -0.3401825,0.141037 -0.030854,-0.0028 -0.054343,0.0028 -0.084996,0 -0.011652,-0.03655 -0.028465,-0.121364 -0.028465,-0.282083 0,-0.628055 -0.248778,-1.274515 -0.6236376,-1.636076 C 7.2885975,10.879912 7.0068442,10.674258 6.7655697,10.525636 6.5242998,10.377022 6.2812073,10.204381 6.2269607,10.130723 6.1370639,10.008492 6.129589,9.9333999 6.1985002,9.7075995 6.3243617,9.2951998 6.4741914,9.0655085 6.7654451,8.8049372 6.9181523,8.6683285 7.0717874,8.5537703 7.1056281,8.5510615 7.1395664,8.5484108 6.9104734,8.4799303 6.5670232,8.4100217 6.2235699,8.3399929 5.7212124,8.19329 5.4614397,8.0997469 4.9864868,7.9287391 4.3452412,7.5697396 4.100742,7.3099181 4.0904511,7.2988973 4.081543,7.2914913 4.0722815,7.2817726 4.4225511,5.8934227 5.4055124,4.7555263 6.7086062,4.2070777 6.9812454,4.0923207 7.2623333,4.0135922 7.5590362,3.9532016 7.7068067,3.9231505 7.859995,3.9122225 8.0125973,3.8967862 Z m 4.2521487,2.1156151 c 0.106524,0.065531 0.508813,0.9315936 0.623648,1.3539938 0.148252,0.5453802 0.137521,1.4891686 0,2.0309926 -0.05237,0.2062028 -0.119412,0.3991115 -0.141736,0.4231231 C 12.724714,9.8445165 12.643774,9.7062801 12.548554,9.5384113 12.45335,9.3705719 12.149282,9.0139208 11.896566,8.7485825 11.167112,7.9826467 11.052404,7.5827219 11.357961,6.9714653 11.51204,6.6632141 12.182629,5.9617463 12.265086,6.0123854 Z"
     id="path2-0"
     style="fill:currentColor;fill-opacity:1;stroke:none;stroke-width:0.384136;stroke-dasharray:none;stroke-opacity:0.3"
     class="ColorScheme-Text" />
</svg>
