<?xml version="1.0" encoding="UTF-8" standalone="no"?>
<svg
   width="64"
   height="64"
   version="1.1"
   viewBox="0 0 16.933 16.933"
   id="svg7"
   sodipodi:docname="preferences-desktop-theme-global.svg"
   inkscape:version="1.4.2 (ebf0e940d0, 2025-05-08)"
   xmlns:inkscape="http://www.inkscape.org/namespaces/inkscape"
   xmlns:sodipodi="http://sodipodi.sourceforge.net/DTD/sodipodi-0.dtd"
   xmlns="http://www.w3.org/2000/svg"
   xmlns:svg="http://www.w3.org/2000/svg"
   xmlns:rdf="http://www.w3.org/1999/02/22-rdf-syntax-ns#"
   xmlns:cc="http://creativecommons.org/ns#"
   xmlns:dc="http://purl.org/dc/elements/1.1/">
  <sodipodi:namedview
     id="namedview7"
     pagecolor="#9c4444"
     bordercolor="#000000"
     borderopacity="0.25"
     inkscape:showpageshadow="2"
     inkscape:pageopacity="0.0"
     inkscape:pagecheckerboard="0"
     inkscape:deskcolor="#d1d1d1"
     inkscape:zoom="6.15625"
     inkscape:cx="15.756345"
     inkscape:cy="29.64467"
     inkscape:window-width="1226"
     inkscape:window-height="669"
     inkscape:window-x="0"
     inkscape:window-y="0"
     inkscape:window-maximized="0"
     inkscape:current-layer="svg7"
     showgrid="false" />
  <defs
     id="defs2">
    <style
       id="current-color-scheme"
       type="text/css">.ColorScheme-Text {color:#d8dee9} .ColorScheme-Highlight {color:#3b4252}</style>
  </defs>
  <metadata
     id="metadata2">
    <rdf:RDF>
      <cc:Work
         rdf:about="">
        <dc:format>image/svg+xml</dc:format>
        <dc:type
           rdf:resource="http://purl.org/dc/dcmitype/StillImage" />
      </cc:Work>
    </rdf:RDF>
  </metadata>
  <path
     d="m 2.5549974,2.1166209 v 0.00322 2.5399129 2.5399134 2.5399144 0.8413054 1.698612 0.419053 0.422249 a 1.5775919,1.6954087 0 0 0 1.5746162,1.692222 H 3.715868 l 0.026783,0.0034 h 1.1817047 2.3634106 2.3634103 2.3634184 2.363407 V 12.276412 H 12.014595 9.6511827 8.1509826 L 9.4517509,11.470287 11.496668,10.200264 13.54456,8.9303072 12.362856,6.7326736 10.314961,8.0026303 8.2700466,9.2725881 6.9752294,10.075507 7.7223548,8.6839925 8.904059,6.4863596 10.085765,4.2855269 8.0319188,3.0123725 6.8502134,5.2132046 5.6685075,7.4108372 4.9184084,8.8087495 V 7.1965079 4.6565947 2.1166803 Z M 4.1296136,12.273078 c 0.2083602,0 0.4077937,0.08956 0.5566217,0.246315 0.1488294,0.156742 0.229196,0.374265 0.229196,0.598188 0,0.223924 -0.083345,0.438247 -0.229196,0.598193 -0.1458547,0.159938 -0.3482615,0.246313 -0.5566217,0.246313 -0.2083604,0 -0.4077933,-0.08958 -0.556623,-0.246313 -0.1488294,-0.156743 -0.2291963,-0.374269 -0.2291963,-0.598193 0,-0.223923 0.083346,-0.438243 0.2291963,-0.598188 0.1458533,-0.159937 0.3482626,-0.246315 0.556623,-0.246315 z"
     id="path2-3"
     style="fill:currentColor;fill-opacity:1;stroke:none;stroke-width:0.400874;stroke-dasharray:none;stroke-opacity:0.3"
     class="ColorScheme-Text" />
</svg>
