<?xml version="1.0" encoding="UTF-8" standalone="no"?>
<svg
   width="64"
   height="64"
   version="1.1"
   viewBox="0 0 16.933 16.933"
   id="svg7"
   sodipodi:docname="preferences-desktop-plasma-theme.svg"
   inkscape:version="1.4.2 (ebf0e940d0, 2025-05-08)"
   xmlns:inkscape="http://www.inkscape.org/namespaces/inkscape"
   xmlns:sodipodi="http://sodipodi.sourceforge.net/DTD/sodipodi-0.dtd"
   xmlns="http://www.w3.org/2000/svg"
   xmlns:svg="http://www.w3.org/2000/svg"
   xmlns:rdf="http://www.w3.org/1999/02/22-rdf-syntax-ns#"
   xmlns:cc="http://creativecommons.org/ns#"
   xmlns:dc="http://purl.org/dc/elements/1.1/">
  <sodipodi:namedview
     id="namedview7"
     pagecolor="#9c4444"
     bordercolor="#000000"
     borderopacity="0.25"
     inkscape:showpageshadow="2"
     inkscape:pageopacity="0.0"
     inkscape:pagecheckerboard="0"
     inkscape:deskcolor="#d1d1d1"
     inkscape:zoom="6.15625"
     inkscape:cx="15.756345"
     inkscape:cy="27.208122"
     inkscape:window-width="1226"
     inkscape:window-height="669"
     inkscape:window-x="0"
     inkscape:window-y="0"
     inkscape:window-maximized="0"
     inkscape:current-layer="svg7"
     showgrid="false" />
  <defs
     id="defs2">
    <style
       id="current-color-scheme"
       type="text/css">.ColorScheme-Text {color:#d8dee9} .ColorScheme-Highlight {color:#3b4252}</style>
  </defs>
  <metadata
     id="metadata2">
    <rdf:RDF>
      <cc:Work
         rdf:about="">
        <dc:format>image/svg+xml</dc:format>
        <dc:type
           rdf:resource="http://purl.org/dc/dcmitype/StillImage" />
      </cc:Work>
    </rdf:RDF>
  </metadata>
  <g
     color="#bebebe"
     id="g6"
     transform="matrix(0.70554167,0,0,0.70554167,2.8221666,2.4693958)"
     style="fill:currentColor;fill-opacity:1;stroke:none;stroke-width:0.450458;stroke-dasharray:none;stroke-opacity:0.3"
     class="ColorScheme-Text">
    <path
       d="m 12.8,-0.5 c 1.9944,0 3.6,1.6056 3.6,3.6 v 7.2 c 0,1.9944 -1.6056,3.6 -3.6,3.6 H 3.2 c -1.9944,0 -3.6,-1.6056 -3.6,-3.6 V 3.1 c 0,-1.9944 1.6056,-3.6 3.6,-3.6 z m 0,2.4 H 3.2 C 2.5352,1.9 2,2.4352 2,3.1 v 7.2 c 0,0.6648 0.5352,1.2 1.2,1.2 h 9.6 c 0.6648,0 1.2,-0.5352 1.2,-1.2 V 3.1 C 14,2.4352 13.4648,1.9 12.8,1.9 Z M 8,15.1 c -6,0 -6,1.2 -6,1.2 0,1.2 1.2,1.2 1.2,1.2 h 9.6 c 1.2,0 1.2,-1.2 1.2,-1.2 0,0 0,-1.2 -6,-1.2 z"
       overflow="visible"
       id="path2-3"
       style="fill:currentColor;fill-opacity:1;stroke:none;stroke-width:0.54055;stroke-dasharray:none;stroke-opacity:0.3"
       class="ColorScheme-Text" />
    <path
       d="m 3.8,4.3 c 0,0 -0.6,0 -0.6,0.6 v 4.8 c 0,0.6 0.6,0.6 0.6,0.6 h 4.8 c 0.6,0 0.6,-0.6 0.6,-0.6 V 4.9 C 9.2,4.3 8.6756,4.3 8.6,4.3 Z M 4.4,6.6976 H 8 v 2.4 H 4.4 Z M 11,3.1 c 0,0 -0.6,0 -0.6,0.6 v 1.1808 c 0,0 0,0.6 0.6,0.6 l 1.2,0.0012 c 0,0 0.6,0 0.6,-0.6 V 3.7012 c 0,0 0,-0.6 -0.6,-0.6 z"
       overflow="visible"
       id="path4-3"
       style="fill:currentColor;fill-opacity:1;stroke:none;stroke-width:0.54055;stroke-dasharray:none;stroke-opacity:0.3"
       class="ColorScheme-Text" />
  </g>
</svg>
