<?xml version="1.0" encoding="UTF-8" standalone="no"?>
<svg
   width="64"
   height="64"
   version="1.1"
   viewBox="0 0 16.933 16.933"
   id="svg7"
   sodipodi:docname="preferences-desktop-virtual.svg"
   inkscape:version="1.4.2 (ebf0e940d0, 2025-05-08)"
   xmlns:inkscape="http://www.inkscape.org/namespaces/inkscape"
   xmlns:sodipodi="http://sodipodi.sourceforge.net/DTD/sodipodi-0.dtd"
   xmlns="http://www.w3.org/2000/svg"
   xmlns:svg="http://www.w3.org/2000/svg"
   xmlns:rdf="http://www.w3.org/1999/02/22-rdf-syntax-ns#"
   xmlns:cc="http://creativecommons.org/ns#"
   xmlns:dc="http://purl.org/dc/elements/1.1/">
  <sodipodi:namedview
     id="namedview7"
     pagecolor="#9c4444"
     bordercolor="#000000"
     borderopacity="0.25"
     inkscape:showpageshadow="2"
     inkscape:pageopacity="0.0"
     inkscape:pagecheckerboard="0"
     inkscape:deskcolor="#d1d1d1"
     inkscape:zoom="6.15625"
     inkscape:cx="15.756345"
     inkscape:cy="29.64467"
     inkscape:window-width="1226"
     inkscape:window-height="669"
     inkscape:window-x="0"
     inkscape:window-y="0"
     inkscape:window-maximized="0"
     inkscape:current-layer="svg7"
     showgrid="false" />
  <defs
     id="defs2">
    <style
       id="current-color-scheme"
       type="text/css">.ColorScheme-Text {color:#d8dee9} .ColorScheme-Highlight {color:#3b4252}</style>
  </defs>
  <metadata
     id="metadata2">
    <rdf:RDF>
      <cc:Work
         rdf:about="">
        <dc:format>image/svg+xml</dc:format>
        <dc:type
           rdf:resource="http://purl.org/dc/dcmitype/StillImage" />
      </cc:Work>
    </rdf:RDF>
  </metadata>
  <path
     style="fill:currentColor;fill-opacity:1;stroke:none;stroke-width:0.389366;stroke-dasharray:none;stroke-opacity:0.3"
     d="m 2.9103594,3.3072275 c -0.4397282,0 -0.7937344,0.3540051 -0.7937344,0.793734 v 4.7624033 c 0,0.4397336 0.3540062,0.7937356 0.7937344,0.7937356 h 6.3498748 c 0.4397288,0 0.7937328,-0.354002 0.7937328,-0.7937356 V 4.1009615 c 0,-0.4397289 -0.354004,-0.793734 -0.7937328,-0.793734 z m 0.7937345,1.587468 H 8.4664987 V 8.0696306 H 3.7040939 Z m 7.1436071,0 v 3.9686693 c 0,0.8657332 -0.72174,1.5874712 -1.5874671,1.5874712 H 4.4978288 v 1.984335 c 0,0.65959 0.5310077,1.190602 1.1906004,1.190602 h 7.9373438 c 0.659591,0 1.190601,-0.531012 1.190601,-1.190602 V 6.0852977 c 0,-0.6595939 -0.53101,-1.1906022 -1.190601,-1.1906022 z"
     id="path2"
     class="ColorScheme-Text" />
</svg>
