<?xml version="1.0" encoding="UTF-8" standalone="no"?>
<svg
   width="64"
   height="64"
   version="1.1"
   viewBox="0 0 16.933 16.933"
   id="svg7"
   sodipodi:docname="preferences-web-browser-shortcuts.svg"
   inkscape:version="1.4.2 (ebf0e940d0, 2025-05-08)"
   xmlns:inkscape="http://www.inkscape.org/namespaces/inkscape"
   xmlns:sodipodi="http://sodipodi.sourceforge.net/DTD/sodipodi-0.dtd"
   xmlns="http://www.w3.org/2000/svg"
   xmlns:svg="http://www.w3.org/2000/svg"
   xmlns:rdf="http://www.w3.org/1999/02/22-rdf-syntax-ns#"
   xmlns:cc="http://creativecommons.org/ns#"
   xmlns:dc="http://purl.org/dc/elements/1.1/">
  <sodipodi:namedview
     id="namedview7"
     pagecolor="#9c4444"
     bordercolor="#000000"
     borderopacity="0.25"
     inkscape:showpageshadow="2"
     inkscape:pageopacity="0.0"
     inkscape:pagecheckerboard="0"
     inkscape:deskcolor="#d1d1d1"
     inkscape:zoom="4.3531261"
     inkscape:cx="36.410615"
     inkscape:cy="40.200995"
     inkscape:window-width="1543"
     inkscape:window-height="1372"
     inkscape:window-x="0"
     inkscape:window-y="0"
     inkscape:window-maximized="0"
     inkscape:current-layer="svg7"
     showgrid="false" />
  <defs
     id="defs2">
    <style
       id="current-color-scheme"
       type="text/css">.ColorScheme-Text {color:#d8dee9} .ColorScheme-Highlight {color:#3b4252}</style>
  </defs>
  <metadata
     id="metadata2">
    <rdf:RDF>
      <cc:Work
         rdf:about="">
        <dc:format>image/svg+xml</dc:format>
        <dc:type
           rdf:resource="http://purl.org/dc/dcmitype/StillImage" />
      </cc:Work>
    </rdf:RDF>
  </metadata>
  <path
     id="rect6"
     class="ColorScheme-Text"
     style="baseline-shift:baseline;display:inline;overflow:visible;vector-effect:none;fill:currentColor;stroke-width:0.437923;enable-background:accumulate;stop-color:#000000"
     d="m 8.4664997,2.1166253 c -3.5140438,0 -6.3498756,2.8358318 -6.3498756,6.3498756 0,3.5140441 2.8358318,6.3498731 6.3498756,6.3498731 3.5140433,0 6.3498763,-2.835829 6.3498763,-6.3498731 0,-3.5140438 -2.835833,-6.3498756 -6.3498763,-6.3498756 z m 0.4379227,0.4533182 c 1.5739426,0.113856 2.9718286,0.8366194 3.9609736,1.9355828 v 8.542e-4 l -0.01967,0.019676 v 0.4379219 h 0.391734 c 0.06848,0.093402 0.134566,0.1881768 0.197582,0.2856763 l -0.1514,0.1513991 -0.875844,0.8758445 -0.437922,0.4379219 -0.437923,1.3137688 v 0.4379218 l 0.437923,0.4379226 0.437922,0.4379219 0.875844,0.4379231 0.999867,-0.2463314 c -0.479589,2.658265 -2.721065,4.683221 -5.4834383,4.835108 l 0.1034988,-0.208697 v -0.437923 l 0.8758445,-0.437921 0.437923,-0.437923 v -0.875856 l 0.437916,-0.437923 V 11.09489 L 10.217335,10.656968 9.161017,10.304576 8.3698493,11.926258 8.0739092,11.854417 V 9.3893919 L 8.0277349,9.343209 H 7.5898045 L 7.3571581,9.1105566 H 6.5617076 L 6.7302062,8.7650076 5.8381096,8.467356 4.9622651,8.9052803 H 4.0864198 V 8.0294333 H 3.648498 V 7.1535888 L 3.2114294,7.1527329 2.7735077,7.5906547 H 2.6178386 C 2.689073,7.1055374 2.8186824,6.6401258 2.9993095,6.2016211 L 4.0872739,5.8389657 4.5251966,6.2768885 4.9631184,6.7148102 V 5.8389657 L 5.8389629,5.401044 V 4.9631213 L 6.714809,4.5251987 7.5906552,3.6493542 V 4.087276 L 8.0285779,3.6493542 7.5906552,3.2114315 H 8.4664997 V 3.6493542 L 9.342345,3.2114315 8.9044224,2.7735089 Z M 8.6854615,5.401044 6.9337709,8.9044236 H 8.2475388 V 11.531959 L 9.9992282,8.0285791 H 8.6854615 Z M 2.5631004,8.1431918 3.2105753,8.467355 3.648498,8.9052794 4.5243425,9.3432013 4.9622651,9.7811244 4.5243425,10.219046 v 0.875845 l 0.4379226,0.875844 0.8758445,0.875847 v 0.922886 C 3.8873528,12.806439 2.5545468,10.799984 2.5545468,8.4665009 c 0,-0.108612 0.00282,-0.216193 0.0086,-0.3233091 z" />
</svg>
