<?xml version="1.0" encoding="UTF-8" standalone="no"?>
<svg
   width="64"
   height="64"
   version="1.1"
   viewBox="0 0 16.933 16.933"
   id="svg7"
   sodipodi:docname="preferences-system-network-wakeonlan.svg"
   inkscape:version="1.4.2 (ebf0e940d0, 2025-05-08)"
   xmlns:inkscape="http://www.inkscape.org/namespaces/inkscape"
   xmlns:sodipodi="http://sodipodi.sourceforge.net/DTD/sodipodi-0.dtd"
   xmlns="http://www.w3.org/2000/svg"
   xmlns:svg="http://www.w3.org/2000/svg"
   xmlns:rdf="http://www.w3.org/1999/02/22-rdf-syntax-ns#"
   xmlns:cc="http://creativecommons.org/ns#"
   xmlns:dc="http://purl.org/dc/elements/1.1/">
  <sodipodi:namedview
     id="namedview7"
     pagecolor="#9c4444"
     bordercolor="#000000"
     borderopacity="0.25"
     inkscape:showpageshadow="2"
     inkscape:pageopacity="0.0"
     inkscape:pagecheckerboard="0"
     inkscape:deskcolor="#d1d1d1"
     inkscape:zoom="4.3531261"
     inkscape:cx="36.410615"
     inkscape:cy="40.200995"
     inkscape:window-width="1543"
     inkscape:window-height="1372"
     inkscape:window-x="0"
     inkscape:window-y="0"
     inkscape:window-maximized="0"
     inkscape:current-layer="svg7"
     showgrid="false" />
  <defs
     id="defs2">
    <style
       id="current-color-scheme"
       type="text/css">.ColorScheme-Text {color:#d8dee9} .ColorScheme-Highlight {color:#3b4252}</style>
  </defs>
  <metadata
     id="metadata2">
    <rdf:RDF>
      <cc:Work
         rdf:about="">
        <dc:format>image/svg+xml</dc:format>
        <dc:type
           rdf:resource="http://purl.org/dc/dcmitype/StillImage" />
      </cc:Work>
    </rdf:RDF>
  </metadata>
  <path
     id="rect6"
     class="ColorScheme-Text"
     style="baseline-shift:baseline;display:inline;overflow:visible;vector-effect:none;fill:currentColor;stroke-width:0.437923;enable-background:accumulate;stop-color:#000000"
     d="m 8.4664997,2.1166253 c -3.5140438,0 -6.3498756,2.8358318 -6.3498756,6.3498756 0,3.5140431 2.8358318,6.3498731 6.3498756,6.3498731 3.5140453,0 6.3498763,-2.83583 6.3498763,-6.3498731 0,-3.5140438 -2.835832,-6.3498756 -6.3498763,-6.3498756 z m 0.4379227,0.4533182 c 1.5738716,0.1138008 2.9718056,0.8367509 3.9609736,1.935583 l -0.01967,0.019672 v 0.4379226 h 0.391734 c 0.06856,0.093448 0.134517,0.1889695 0.197582,0.2865313 l -0.1514,0.1513903 -0.875844,0.8758453 -0.437922,0.4379218 -0.301072,0.9032154 c 0.0724,0.2723203 0.110892,0.5567539 0.111192,0.8484752 0,0.080538 -0.0028,0.1603858 -0.0086,0.2394882 l 0.198434,0.1984337 0.437922,0.4379226 0.875844,0.4379214 0.999866,-0.2463305 C 13.803932,12.192606 11.562865,14.2175 8.8000169,14.369043 L 8.9043593,14.15949 V 13.721568 L 9.780204,13.283646 10.218127,12.845724 V 11.96988 l 0.437923,-0.437924 v -0.437923 l -0.07525,-0.07526 c -0.5736,0.475613 -1.3105177,0.761232 -2.1143446,0.761232 -1.717786,0 -3.1296116,-1.305631 -3.2972474,-2.9790682 L 4.9630687,8.9044296 H 4.0872722 V 8.028574 H 3.6493503 V 7.1527295 H 3.2114261 L 2.7735042,7.5906513 H 2.6178353 C 2.6890782,7.1055084 2.818667,6.640142 2.9993062,6.2016169 L 4.0872706,5.8389615 4.5251932,6.2768842 4.963115,6.7148069 V 5.8389615 L 5.8389612,5.4010397 V 4.9631213 L 6.714809,4.5251987 7.5906552,3.6493538 V 4.0872762 L 8.0285779,3.6493538 7.5906552,3.2114315 H 8.4664997 V 3.6493538 L 9.342345,3.2114315 8.9044224,2.773509 Z M 8.0285779,5.401044 V 8.0285783 H 8.9044224 V 5.401044 Z M 7.5906552,5.5301971 A 3.0654571,3.0654571 0 0 0 5.4010428,8.4665009 3.0654571,3.0654571 0 0 0 8.4664997,11.531959 3.0654571,3.0654571 0 0 0 11.531958,8.4665009 3.0654571,3.0654571 0 0 0 9.342345,5.5319071 V 5.992923 A 2.6275348,2.6275348 0 0 1 11.094036,8.4665009 2.6275348,2.6275348 0 0 1 8.4664997,11.094034 2.6275348,2.6275348 0 0 1 5.8389645,8.4665009 2.6275348,2.6275348 0 0 1 7.5906552,5.992068 Z M 2.5631004,8.142336 3.2114294,8.4665009 3.6493538,8.9044236 4.5251983,9.3423462 4.9631201,9.7802676 4.5251983,10.21819 v 0.875844 l 0.4379218,0.875847 0.8758445,0.875845 v 0.923741 C 3.8880743,12.806486 2.5545468,10.80008 2.5545468,8.4665009 c 0,-0.1087272 0.00282,-0.2169351 0.0086,-0.3241649 z m 3.5256169,0.4071308 c 0.043615,1.2779928 1.0886498,2.2965272 2.3777824,2.2965272 0.4608191,0 0.8908591,-0.130246 1.2547503,-0.355812 L 8.9044224,10.21819 8.4664997,9.7802676 8.0285779,9.3423462 H 7.5906552 L 7.1527334,8.9044236 Z" />
</svg>
