<?xml version="1.0" encoding="UTF-8" standalone="no"?>
<svg
   width="64"
   height="64"
   version="1.1"
   viewBox="0 0 16.933 16.933"
   id="svg7"
   sodipodi:docname="preferences-system-splash.svg"
   inkscape:version="1.4.2 (ebf0e940d0, 2025-05-08)"
   xmlns:inkscape="http://www.inkscape.org/namespaces/inkscape"
   xmlns:sodipodi="http://sodipodi.sourceforge.net/DTD/sodipodi-0.dtd"
   xmlns="http://www.w3.org/2000/svg"
   xmlns:svg="http://www.w3.org/2000/svg"
   xmlns:rdf="http://www.w3.org/1999/02/22-rdf-syntax-ns#"
   xmlns:cc="http://creativecommons.org/ns#"
   xmlns:dc="http://purl.org/dc/elements/1.1/">
  <sodipodi:namedview
     id="namedview7"
     pagecolor="#9c4444"
     bordercolor="#000000"
     borderopacity="0.25"
     inkscape:showpageshadow="2"
     inkscape:pageopacity="0.0"
     inkscape:pagecheckerboard="0"
     inkscape:deskcolor="#d1d1d1"
     inkscape:zoom="6.15625"
     inkscape:cx="15.756345"
     inkscape:cy="29.64467"
     inkscape:window-width="1226"
     inkscape:window-height="669"
     inkscape:window-x="0"
     inkscape:window-y="0"
     inkscape:window-maximized="0"
     inkscape:current-layer="svg7"
     showgrid="false" />
  <defs
     id="defs2">
    <style
       id="current-color-scheme"
       type="text/css">.ColorScheme-Text {color:#d8dee9} .ColorScheme-Highlight {color:#3b4252}</style>
  </defs>
  <metadata
     id="metadata2">
    <rdf:RDF>
      <cc:Work
         rdf:about="">
        <dc:format>image/svg+xml</dc:format>
        <dc:type
           rdf:resource="http://purl.org/dc/dcmitype/StillImage" />
      </cc:Work>
    </rdf:RDF>
  </metadata>
  <g
     style="fill:currentColor;fill-opacity:1;stroke:none;stroke-width:0.873557;stroke-dasharray:none;stroke-opacity:0.3"
     transform="matrix(0.42709258,0,0,0.44070887,3.3383489,3.1749494)"
     id="g16"
     class="ColorScheme-Text">
    <g
       id="g14"
       style="fill:currentColor;fill-opacity:1;stroke:none;stroke-width:0.873557;stroke-dasharray:none;stroke-opacity:0.3"
       class="ColorScheme-Text">
      <path
         d="m 26.414176,-2.4001815 c 0,0 -4.3212,-0.1212 -8.64,2.04000004 -1.32,0.6 -2.76,1.55999996 -3.96,2.75999996 -1.9404,1.9404 -4.9547997,5.5128 -7.3283997,8.4000005 h -5.2716 l -2.4,3.6 4.0704,1.1004 c 0.012,0.1452 0.0504,0.3504 0.1632,0.6276 l -0.6324,1.3908 c 0,0 -0.24,0.48 1.56,2.4 1.92,1.9212 2.52,1.68 2.52,1.68 l 1.4916,-0.6768 c 0.2232,0.0696 0.3888,0.0936 0.4968,0.0936 l 1.1316,4.1832 3.5999997,-2.4 v -5.4324 c 2.9076,-2.3508 6.4752,-5.3052 8.4,-7.1676 1.2,-1.2000005 2.16,-2.6400005 2.8788,-3.9600005 2.0388,-4.3188 1.92,-8.6388 1.92,-8.6388 z m -8.4,10.8 c -1.3212,0 -2.4,-1.08 -2.4,-2.4 0,-1.3212 1.0788,-2.4 2.4,-2.4 1.32,0 2.4,1.0788 2.4,2.4 0,1.32 -1.0812,2.4 -2.4,2.4 z M 5.4141763,22.799819 c 0.24,0.1212 0.36,0.24 0.6,0.36 -0.24,0.24 -0.48,0.6 -0.7212,0.84 -2.7612,2.76 -7.6788,2.4 -7.6788,2.4 0,0 -0.36,-4.9212 2.40000003,-7.6788 0.24,-0.2412 0.6,-0.4788 0.84,-0.7212 0.12,0.24 0.23879997,0.36 0.35999997,0.6 -1.79999997,2.2788 -1.55999997,5.76 -1.55999997,5.76 0,0 3.47879997,0.24 5.75999997,-1.56 z"
         id="path12"
         style="fill:currentColor;fill-opacity:1;stroke:none;stroke-width:1.04827;stroke-dasharray:none;stroke-opacity:0.3"
         class="ColorScheme-Text" />
    </g>
  </g>
</svg>
