<?xml version="1.0" encoding="UTF-8" standalone="no"?>
<svg
   width="64"
   height="64"
   version="1.1"
   viewBox="0 0 16.933 16.933"
   id="svg7"
   sodipodi:docname="preferences-desktop-font.svg"
   inkscape:version="1.4.2 (ebf0e940d0, 2025-05-08)"
   xmlns:inkscape="http://www.inkscape.org/namespaces/inkscape"
   xmlns:sodipodi="http://sodipodi.sourceforge.net/DTD/sodipodi-0.dtd"
   xmlns="http://www.w3.org/2000/svg"
   xmlns:svg="http://www.w3.org/2000/svg"
   xmlns:rdf="http://www.w3.org/1999/02/22-rdf-syntax-ns#"
   xmlns:cc="http://creativecommons.org/ns#"
   xmlns:dc="http://purl.org/dc/elements/1.1/">
  <sodipodi:namedview
     id="namedview7"
     pagecolor="#9c4444"
     bordercolor="#000000"
     borderopacity="0.25"
     inkscape:showpageshadow="2"
     inkscape:pageopacity="0.0"
     inkscape:pagecheckerboard="0"
     inkscape:deskcolor="#d1d1d1"
     inkscape:zoom="6.15625"
     inkscape:cx="15.756345"
     inkscape:cy="27.208122"
     inkscape:window-width="1226"
     inkscape:window-height="669"
     inkscape:window-x="0"
     inkscape:window-y="0"
     inkscape:window-maximized="0"
     inkscape:current-layer="svg7"
     showgrid="false" />
  <defs
     id="defs2">
    <style
       id="current-color-scheme"
       type="text/css">.ColorScheme-Text {color:#d8dee9} .ColorScheme-Highlight {color:#3b4252}</style>
  </defs>
  <metadata
     id="metadata2">
    <rdf:RDF>
      <cc:Work
         rdf:about="">
        <dc:format>image/svg+xml</dc:format>
        <dc:type
           rdf:resource="http://purl.org/dc/dcmitype/StillImage" />
      </cc:Work>
    </rdf:RDF>
  </metadata>
  <g
     id="text4228"
     transform="matrix(0.59932457,0,0,0.59932457,-231.60581,-310.25312)"
     style="fill:currentColor;fill-opacity:1"
     class="ColorScheme-Text">
    <path
       style="fill:currentColor;fill-opacity:1;stroke-width:1.2"
       id="path4233"
       d="m 393.91539,532.98752 2.3985,-6.786 2.1645,6.786 z m 6.6885,5.811 h 1.716 l -5.0115,-14.235 h -2.028 l -5.304,14.235 h 1.716 l 1.6965,-4.5045 h 5.655 z"
       class="ColorScheme-Text" />
    <path
       style="fill:currentColor;fill-opacity:1;stroke-width:1.2"
       id="path4235"
       d="m 406.52549,537.78452 c -0.9945,0 -1.7355,-0.4875 -1.7355,-1.6575 0,-1.4625 0.8775,-1.9305 3.8415,-2.3205 0.0196,0 0.9555,-0.1365 0.9555,-0.1365 v 2.574 c -0.6825,0.936 -2.067,1.5405 -3.0615,1.5405 z m 3.1005,-0.1365 0.234,1.1505 h 1.3065 v -7.683 c 0,-2.34 -1.6185,-3.0225 -3.6855,-3.0225 -1.482,0 -2.8665,0.3705 -3.666,0.7995 l 0.4485,1.248 c 0.858,-0.4095 2.106,-0.702 3.2565,-0.702 1.443,0 2.067,0.663 2.067,1.9305 v 1.1895 l -1.053,0.117 c -2.691,0.39 -5.343,0.7605 -5.343,3.51 0,1.95 1.4625,2.847 3.1785,2.847 1.092,0 2.34,-0.351 3.2565,-1.3845 z"
       class="ColorScheme-Text" />
  </g>
</svg>
