<?xml version="1.0" encoding="UTF-8" standalone="no"?>
<svg
   width="64"
   height="64"
   version="1.1"
   viewBox="0 0 16.933 16.933"
   id="svg7"
   sodipodi:docname="preferences-system-bluetooth.svg"
   inkscape:version="1.4.2 (ebf0e940d0, 2025-05-08)"
   xmlns:inkscape="http://www.inkscape.org/namespaces/inkscape"
   xmlns:sodipodi="http://sodipodi.sourceforge.net/DTD/sodipodi-0.dtd"
   xmlns="http://www.w3.org/2000/svg"
   xmlns:svg="http://www.w3.org/2000/svg"
   xmlns:rdf="http://www.w3.org/1999/02/22-rdf-syntax-ns#"
   xmlns:cc="http://creativecommons.org/ns#"
   xmlns:dc="http://purl.org/dc/elements/1.1/">
  <sodipodi:namedview
     id="namedview7"
     pagecolor="#9c4444"
     bordercolor="#000000"
     borderopacity="0.25"
     inkscape:showpageshadow="2"
     inkscape:pageopacity="0.0"
     inkscape:pagecheckerboard="0"
     inkscape:deskcolor="#d1d1d1"
     inkscape:zoom="6.15625"
     inkscape:cx="15.756345"
     inkscape:cy="29.64467"
     inkscape:window-width="1226"
     inkscape:window-height="669"
     inkscape:window-x="0"
     inkscape:window-y="0"
     inkscape:window-maximized="0"
     inkscape:current-layer="svg7"
     showgrid="false" />
  <defs
     id="defs2">
    <style
       id="current-color-scheme"
       type="text/css">.ColorScheme-Text {color:#d8dee9} .ColorScheme-Highlight {color:#3b4252}</style>
  </defs>
  <metadata
     id="metadata2">
    <rdf:RDF>
      <cc:Work
         rdf:about="">
        <dc:format>image/svg+xml</dc:format>
        <dc:type
           rdf:resource="http://purl.org/dc/dcmitype/StillImage" />
      </cc:Work>
    </rdf:RDF>
  </metadata>
  <path
     id="path17"
     style="fill:currentColor;fill-opacity:1;stroke:none;stroke-width:0.379207;stroke-dasharray:none;stroke-dashoffset:2.2;stroke-opacity:0.3"
     d="m 8.2554943,2.1181321 c -0.08459,0.011352 -0.1697314,0.082674 -0.2288566,0.1970095 -0.056513,0.1092876 -0.065917,0.4921207 -0.065917,2.7203637 0,1.4265478 -0.014622,2.5939557 -0.032588,2.5937144 C 7.9101655,7.6289798 7.2243858,7.0625029 6.404641,6.3708759 5.5848963,5.6792487 4.8819377,5.1012344 4.8418949,5.0858689 4.8018516,5.070505 4.7217234,5.0888696 4.6641417,5.1266039 4.4868671,5.2427588 4.4259299,5.5118311 4.5271229,5.7339273 c 0.028158,0.061799 0.7388071,0.6924218 1.5790402,1.401287 0.8402325,0.7088661 1.5320583,1.3113486 1.5375643,1.3383329 0.0055,0.026989 -0.6664397,0.5975091 -1.4938666,1.2679722 -0.8274279,0.6704636 -1.5350493,1.2526526 -1.5723747,1.2938966 -0.1114224,0.123116 -0.1201637,0.425998 -0.017033,0.590288 0.1686632,0.26869 0.1913732,0.255689 1.8323383,-1.077629 0.8255265,-0.6707569 1.5161652,-1.2198314 1.534602,-1.2198314 0.018437,0 0.033328,1.1552304 0.033328,2.5670524 0,1.677776 0.01543,2.609118 0.045179,2.689256 0.025034,0.06742 0.078329,0.147068 0.1177608,0.177016 0.039432,0.02994 0.1136724,0.0548 0.1651619,0.0548 0.096654,0 3.8154499,-2.809723 4.0386989,-3.051428 0.160245,-0.173492 0.171,-0.525351 0.02149,-0.699899 C 12.295218,11.002261 11.53547,10.406247 10.66109,9.7407819 9.7867117,9.0753141 9.0560327,8.5177197 9.0368715,8.5009514 9.0177112,8.4841835 9.7379817,7.9060157 10.638132,7.2166849 11.53828,6.5273539 12.313564,5.9140307 12.360855,5.8539107 12.459643,5.7283215 12.476262,5.4001408 12.391226,5.2480681 12.336158,5.1496037 8.4778698,2.1790682 8.3384551,2.1277604 c -0.027144,-0.00999 -0.054754,-0.013417 -0.082951,-0.00963 z m 0.3836508,1.2864883 c 0.044648,0 2.7625789,2.0956507 2.7625789,2.1300752 0,0.018424 -0.611146,0.5025999 -1.358329,1.0754059 -0.7471824,0.5728074 -1.3744847,1.0474239 -1.3938811,1.0554096 -0.019394,0.00799 -0.035551,-0.9468477 -0.035551,-2.1226686 0,-1.1758207 0.011496,-2.1382221 0.025182,-2.1382221 z m 0.00742,5.8806663 c 0.063049,0.00125 2.7329549,2.0749463 2.7329549,2.1226703 0,0.02654 -0.61495,0.520159 -1.367218,1.096884 -0.7522677,0.576723 -1.3744475,1.048003 -1.3827712,1.048003 -0.00832,0 -0.015554,-0.959953 -0.015554,-2.13378 0,-1.173823 0.014617,-2.1341296 0.032586,-2.1337773 z"
     class="ColorScheme-Text" />
</svg>
