<?xml version="1.0" encoding="UTF-8" standalone="no"?>
<svg
   height="32"
   width="32"
   version="1.1"
   id="svg25"
   sodipodi:docname="preferences-system-network-ldap.svg"
   xmlns:inkscape="http://www.inkscape.org/namespaces/inkscape"
   xmlns:sodipodi="http://sodipodi.sourceforge.net/DTD/sodipodi-0.dtd"
   xmlns:xlink="http://www.w3.org/1999/xlink"
   xmlns="http://www.w3.org/2000/svg"
   xmlns:svg="http://www.w3.org/2000/svg">
  <defs
     id="defs25" />
  <sodipodi:namedview
     id="namedview25"
     pagecolor="#ffffff"
     bordercolor="#000000"
     borderopacity="0.25"
     inkscape:showpageshadow="2"
     inkscape:pageopacity="0.0"
     inkscape:pagecheckerboard="0"
     inkscape:deskcolor="#d1d1d1" />
  <linearGradient
     id="a"
     gradientUnits="userSpaceOnUse"
     x1="15"
     x2="28"
     y1="13"
     y2="26"
     gradientTransform="matrix(1.2,0,0,1.2,-3.2,-3.2)">
    <stop
       offset="0"
       stop-color="#292c2f"
       id="stop1" />
    <stop
       offset="1"
       stop-opacity="0"
       id="stop2" />
  </linearGradient>
  <linearGradient
     id="b"
     gradientUnits="userSpaceOnUse"
     x1="26"
     x2="26"
     y1="20.999999"
     y2="7"
     gradientTransform="matrix(1.2,0,0,1.2,-3.2,-3.2)">
    <stop
       offset="0"
       stop-color="#31363b"
       id="stop3" />
    <stop
       offset="1"
       stop-color="#4d4d4d"
       id="stop4" />
  </linearGradient>
  <linearGradient
     id="c"
     gradientTransform="matrix(1.2,0,0,1.2,-3.2,-4.4)"
     gradientUnits="userSpaceOnUse"
     x1="4"
     x2="8"
     xlink:href="#e"
     y1="19"
     y2="23" />
  <linearGradient
     id="d"
     gradientTransform="matrix(1.2,0,0,1.2,-3.2,-12.8)"
     gradientUnits="userSpaceOnUse"
     x1="4"
     x2="8"
     xlink:href="#e"
     y1="19"
     y2="23" />
  <linearGradient
     id="e">
    <stop
       offset="0"
       id="stop5" />
    <stop
       offset="1"
       stop-opacity="0"
       id="stop6" />
  </linearGradient>
  <linearGradient
     id="f"
     gradientUnits="userSpaceOnUse"
     x1="3.999"
     x2="8"
     xlink:href="#e"
     y1="4"
     y2="8"
     gradientTransform="matrix(1.2,0,0,1.2,-3.2,-3.2)" />
  <linearGradient
     id="g"
     gradientUnits="userSpaceOnUse"
     x1="28"
     x2="28"
     y1="30"
     y2="2"
     gradientTransform="matrix(1.2,0,0,1.2,-3.2,-3.2)">
    <stop
       offset="0"
       stop-color="#997657"
       id="stop7" />
    <stop
       offset="1"
       stop-color="#d4ba94"
       id="stop8" />
  </linearGradient>
  <linearGradient
     id="h"
     gradientTransform="matrix(0.800004,0,0,19.2,-34.1528,-242.8148)"
     gradientUnits="userSpaceOnUse"
     x1="44.691"
     x2="44.691"
     y1="14.355"
     y2="12.605">
    <stop
       offset="0"
       stop-color="#433a35"
       id="stop9" />
    <stop
       offset="1"
       stop-color="#6c5548"
       id="stop10" />
  </linearGradient>
  <linearGradient
     id="i"
     gradientTransform="matrix(.70710678 -.70710678 .70710678 .70710678 -664.006239 -60.060868)"
     gradientUnits="userSpaceOnUse"
     x1="432.711"
     x2="432.711"
     xlink:href="#e"
     y1="531.791"
     y2="544.519" />
  <path
     d="M 1.6,-0.8 H 30.4 V 32.8 H 1.6 Z"
     fill="url(#g)"
     style="fill:url(#g);stroke-width:1.2"
     id="path10" />
  <path
     d="m 1.6,31.6 h 28.8 v 1.2 H 1.6 Z"
     fill="#232629"
     opacity="0.6"
     style="stroke-width:1.2"
     id="path11" />
  <path
     d="M 1.6,-0.8 V 32.8 H 6.4 V 31.6 H 2.8 V 30.4 H 6.4 V -0.8 H 2.8 Z"
     fill="url(#h)"
     style="fill:url(#h);stroke-width:1.2"
     id="path12" />
  <path
     d="m 1.6,30.4 h 28.8 v 1.2 H 1.6 Z"
     fill="#c5cfd3"
     style="stroke-width:1.2"
     id="path13" />
  <path
     d="m 1.6,29.2 h 28.8 v 1.2 H 1.6 Z"
     fill="#232629"
     opacity="0.4"
     style="stroke-width:1.2"
     id="path14" />
  <path
     d="m 30.4,4 h 2.4 v 4.8 h -2.4 z"
     fill="#2ecc71"
     style="stroke-width:1.2"
     id="path15" />
  <path
     d="m 30.4,11.2 h 2.4 V 16 h -2.4 z"
     fill="#2980b9"
     style="stroke-width:1.2"
     id="path16" />
  <path
     d="m 30.4,18.4 h 2.4 v 4.8 h -2.4 z"
     fill="#da4453"
     style="stroke-width:1.2"
     id="path17" />
  <circle
     cx="4"
     cy="22"
     fill="#232629"
     r="1.2"
     style="stroke-width:1.2"
     id="circle17" />
  <circle
     cx="4"
     cy="13.6"
     fill="#232629"
     r="1.2"
     style="stroke-width:1.2"
     id="circle18" />
  <path
     d="M 4.3996,20.8 H 1.6 l 4.8,4.8 1.5996,-1.2 z"
     fill="url(#c)"
     opacity="0.2"
     style="fill:url(#c);stroke-width:1.2"
     id="path18" />
  <path
     d="m 2.2,19.6 a 3,3.6 0 0 0 -3,3.6 3,3.6 0 0 0 2.4,3.5256 v -1.266 A 1.8,2.4 0 0 1 0.4,23.2 1.8,2.4 0 0 1 2.2,20.8 1.8,2.4 0 0 1 4,23.2 1.2,1.2 0 0 0 5.1256,22.4152 3,3.6 0 0 0 2.2,19.6 Z"
     fill="#7f8c8d"
     style="stroke-width:1.2"
     id="path19" />
  <path
     d="M 4.3996,12.4 H 1.6 L 6.4,17.2 7.9984,16 Z"
     fill="url(#d)"
     opacity="0.2"
     style="fill:url(#d);stroke-width:1.2"
     id="path20" />
  <path
     d="m 2.2,11.2 a 3,3.6 0 0 0 -3,3.6 3,3.6 0 0 0 2.4,3.5256 v -1.266 A 1.8,2.4 0 0 1 0.4,14.8 1.8,2.4 0 0 1 2.2,12.4 1.8,2.4 0 0 1 4,14.8 1.2,1.2 0 0 0 5.1256,14.0152 3,3.6 0 0 0 2.2,11.2 Z"
     fill="#7f8c8d"
     style="stroke-width:1.2"
     id="path21" />
  <circle
     cx="4"
     cy="5.1999998"
     fill="#232629"
     r="1.2"
     style="stroke-width:1.2"
     id="circle21" />
  <path
     d="M 4.3996,4 H 1.6 L 6.4,8.8 7.9984,7.6 Z"
     fill="url(#f)"
     opacity="0.2"
     style="fill:url(#f);stroke-width:1.2"
     id="path22" />
  <path
     d="m 2.2,2.8 a 3,3.6 0 0 0 -3,3.6 3,3.6 0 0 0 2.4,3.5256 V 8.6596 A 1.8,2.4 0 0 1 0.4,6.4 1.8,2.4 0 0 1 2.2,4 1.8,2.4 0 0 1 4,6.4 1.2,1.2 0 0 0 5.1256,5.6152 3,3.6 0 0 0 2.2,2.8 Z"
     fill="#7f8c8d"
     style="stroke-width:1.2"
     id="path23" />
  <path
     d="m 10,22 7.2,7.2 H 30.4 V 15.70408 L 20.94796,6.25204 18.4,5.2 14.8,8.8 15.85216,11.34784 18.4,13.89568 14.8,14.8 11.2,18.4 Z"
     fill="url(#a)"
     opacity="0.2"
     style="fill:url(#a);stroke-width:1.2"
     id="path24" />
  <path
     d="m 18.4,5.2 c -1.9944,0 -3.6,1.6055999 -3.6,3.6 0,1.9944 1.6056,3.6 3.6,3.6 1.9944,0 3.6,-1.6056 3.6,-3.6 0,-1.9944001 -1.6056,-3.6 -3.6,-3.6 z m 0,1.2 c 1.3296,0 2.4,1.0704 2.4,2.4 0,1.3296 -1.0704,2.4 -2.4,2.4 -1.3296,0 -2.4,-1.0704 -2.4,-2.4 0,-1.3296 1.0704,-2.4 2.4,-2.4 z m 0,7.2 C 13.7464,13.6 10,17.3464 10,22 h 8.4 8.4 c 0,-4.6536 -3.7464,-8.4 -8.4,-8.4 z m -0.0586,1.2 a 7.176,7.176 0 0 1 0.0586,0 7.176,7.176 0 0 1 7.092187,6 H 18.4 11.307813 a 7.176,7.176 0 0 1 7.033593,-6 z"
     fill="url(#b)"
     style="fill:url(#b);stroke-width:1.2"
     id="path25" />
</svg>
