<?xml version="1.0" encoding="UTF-8" standalone="no"?>
<svg
   width="64"
   height="64"
   version="1.1"
   viewBox="0 0 16.933 16.933"
   id="svg7"
   sodipodi:docname="preferences-desktop-cryptography.svg"
   inkscape:version="1.4.2 (ebf0e940d0, 2025-05-08)"
   xmlns:inkscape="http://www.inkscape.org/namespaces/inkscape"
   xmlns:sodipodi="http://sodipodi.sourceforge.net/DTD/sodipodi-0.dtd"
   xmlns="http://www.w3.org/2000/svg"
   xmlns:svg="http://www.w3.org/2000/svg"
   xmlns:rdf="http://www.w3.org/1999/02/22-rdf-syntax-ns#"
   xmlns:cc="http://creativecommons.org/ns#"
   xmlns:dc="http://purl.org/dc/elements/1.1/">
  <sodipodi:namedview
     id="namedview7"
     pagecolor="#9c4444"
     bordercolor="#000000"
     borderopacity="0.25"
     inkscape:showpageshadow="2"
     inkscape:pageopacity="0.0"
     inkscape:pagecheckerboard="0"
     inkscape:deskcolor="#d1d1d1"
     inkscape:zoom="4.3531261"
     inkscape:cx="36.410615"
     inkscape:cy="40.200995"
     inkscape:window-width="1543"
     inkscape:window-height="1372"
     inkscape:window-x="0"
     inkscape:window-y="0"
     inkscape:window-maximized="0"
     inkscape:current-layer="svg7"
     showgrid="false" />
  <defs
     id="defs2">
    <style
       id="current-color-scheme"
       type="text/css">.ColorScheme-Text {color:#d8dee9} .ColorScheme-Highlight {color:#3b4252}</style>
  </defs>
  <metadata
     id="metadata2">
    <rdf:RDF>
      <cc:Work
         rdf:about="">
        <dc:format>image/svg+xml</dc:format>
        <dc:type
           rdf:resource="http://purl.org/dc/dcmitype/StillImage" />
      </cc:Work>
    </rdf:RDF>
  </metadata>
  <path
     id="path8"
     class="ColorScheme-Text"
     d="M 3.0237497,2.1166247 V 14.816376 h 1.3606887 v -1.360688 h 8.1641246 v 1.360688 H 13.90925 V 2.1166247 Z M 6.1986876,3.052982 h 4.5356254 c 1.252478,0 2.267814,1.0021599 2.267814,2.2385803 V 7.559375 c -0.320202,0.2827236 -0.503605,0.7098207 -0.504059,1.1339062 4.54e-4,0.4239134 0.183989,0.8512961 0.504059,1.1339066 V 11.187874 L 11.64144,12.548563 H 5.2915626 L 3.9308763,11.187874 V 9.8271878 C 4.2509451,9.5445773 4.4344796,9.1171946 4.4349324,8.6932812 4.4344796,8.2691957 4.2510769,7.8420986 3.9308763,7.559375 V 5.2915623 c 0,-1.2364204 1.0153349,-2.2385803 2.2678113,-2.2385803 z m 2.2678136,1.3314554 c -0.7538215,0 -1.3606869,0.6068665 -1.3606869,1.3606874 V 7.1058125 H 6.1986876 V 10.28075 H 10.734313 V 7.1058125 H 9.8271878 V 5.7451248 c 0,-0.7538209 -0.6068658,-1.3606874 -1.3606866,-1.3606874 z m 0,0.4535624 c 0.5653659,0 0.9071242,0.2475544 0.9071242,0.907125 V 7.1058125 H 7.5593763 V 5.7451248 c 0,-0.6595706 0.3417634,-0.907125 0.9071249,-0.907125 z M 5.2915626,13.90925 v 0.453563 H 9.3736254 V 13.90925 Z m 4.5356252,0 v 0.453563 H 11.64144 V 13.90925 Z"
     style="fill:currentColor;fill-opacity:1;stroke-width:0.453562" />
</svg>
