<?xml version="1.0" encoding="UTF-8" standalone="no"?>
<svg
   width="64"
   height="64"
   version="1.1"
   viewBox="0 0 16.933 16.933"
   id="svg7"
   sodipodi:docname="preferences-devices-tree.svg"
   inkscape:version="1.4.2 (ebf0e940d0, 2025-05-08)"
   xmlns:inkscape="http://www.inkscape.org/namespaces/inkscape"
   xmlns:sodipodi="http://sodipodi.sourceforge.net/DTD/sodipodi-0.dtd"
   xmlns="http://www.w3.org/2000/svg"
   xmlns:svg="http://www.w3.org/2000/svg"
   xmlns:rdf="http://www.w3.org/1999/02/22-rdf-syntax-ns#"
   xmlns:cc="http://creativecommons.org/ns#"
   xmlns:dc="http://purl.org/dc/elements/1.1/">
  <sodipodi:namedview
     id="namedview7"
     pagecolor="#9c4444"
     bordercolor="#000000"
     borderopacity="0.25"
     inkscape:showpageshadow="2"
     inkscape:pageopacity="0.0"
     inkscape:pagecheckerboard="0"
     inkscape:deskcolor="#d1d1d1"
     inkscape:zoom="6.15625"
     inkscape:cx="15.756345"
     inkscape:cy="29.64467"
     inkscape:window-width="1226"
     inkscape:window-height="669"
     inkscape:window-x="0"
     inkscape:window-y="0"
     inkscape:window-maximized="0"
     inkscape:current-layer="svg7"
     showgrid="false" />
  <defs
     id="defs2">
    <style
       id="current-color-scheme"
       type="text/css">.ColorScheme-Text {color:#d8dee9} .ColorScheme-Highlight {color:#3b4252}</style>
  </defs>
  <metadata
     id="metadata2">
    <rdf:RDF>
      <cc:Work
         rdf:about="">
        <dc:format>image/svg+xml</dc:format>
        <dc:type
           rdf:resource="http://purl.org/dc/dcmitype/StillImage" />
      </cc:Work>
    </rdf:RDF>
  </metadata>
  <g
     id="g7"
     transform="matrix(1.4107636,0,0,1.4107636,-3.4222083,-3.4936253)"
     style="fill:currentColor"
     class="ColorScheme-Text">
    <path
       style="fill:currentColor;fill-opacity:1;stroke:none;stroke-width:0.317494;stroke-linecap:round;stroke-linejoin:round;stroke-dasharray:none;stroke-opacity:0.3"
       d="m 7.308467,3.9767473 c -0.1239491,0 -0.223735,0.099792 -0.223735,0.2237402 v 2.2373464 c 0,0.1239518 0.099786,0.2237323 0.223735,0.2237323 h 2.2373502 c 0.1239491,0 0.223735,-0.09978 0.223735,-0.2237323 V 4.2004875 c 0,-0.1239486 -0.099786,-0.2237402 -0.223735,-0.2237402 z"
       id="path8"
       class="ColorScheme-Text" />
    <path
       style="fill:currentColor;fill-opacity:1;stroke:none;stroke-width:0.317494;stroke-linecap:round;stroke-linejoin:round;stroke-dasharray:none;stroke-opacity:0.3"
       d="m 5.7771634,7.1353578 c -0.123949,0 -0.2237348,0.099782 -0.2237348,0.2237322 v 2.2373544 c 0,0.1239502 0.099786,0.2237323 0.2237348,0.2237323 h 2.2373487 c 0.1239493,0 0.2237349,-0.099782 0.2237349,-0.2237323 V 7.35909 c 0,-0.1239501 -0.099786,-0.2237322 -0.2237349,-0.2237322 z"
       id="path12-8"
       class="ColorScheme-Text" />
    <path
       style="fill:currentColor;fill-opacity:1;stroke:none;stroke-width:0.317494;stroke-linecap:round;stroke-linejoin:round;stroke-dasharray:none;stroke-opacity:0.3"
       d="m 8.9357736,7.1353578 c -0.123949,0 -0.223735,0.099782 -0.223735,0.2237322 v 2.2373544 c 0,0.1239502 0.099786,0.2237323 0.223735,0.2237323 h 2.2373484 c 0.123949,0 0.223734,-0.099782 0.223734,-0.2237323 V 7.35909 c 0,-0.1239501 -0.09978,-0.2237322 -0.223734,-0.2237322 z"
       id="path14"
       class="ColorScheme-Text" />
    <path
       style="fill:currentColor;fill-opacity:1;stroke:none;stroke-width:0.317494;stroke-linecap:round;stroke-linejoin:round;stroke-dasharray:none;stroke-opacity:0.3"
       d="m 4.149857,10.293968 c -0.1239492,0 -0.223735,0.09978 -0.223735,0.223733 v 2.237346 c 0,0.12395 0.099786,0.22374 0.223735,0.22374 h 2.2373502 c 0.1239491,0 0.223735,-0.09979 0.223735,-0.22374 v -2.237346 c 0,-0.123953 -0.099786,-0.223733 -0.223735,-0.223733 z"
       id="path18"
       class="ColorScheme-Text" />
    <path
       style="fill:currentColor;fill-opacity:1;stroke:none;stroke-width:0.317494;stroke-linecap:round;stroke-linejoin:round;stroke-dasharray:none;stroke-opacity:0.3"
       d="m 7.3084689,10.293968 c -0.1239488,0 -0.2237349,0.09978 -0.2237349,0.223733 v 2.237346 c 0,0.12395 0.099786,0.22374 0.2237349,0.22374 h 2.2373503 c 0.1239491,0 0.2237348,-0.09979 0.2237348,-0.22374 v -2.237346 c 0,-0.123953 -0.099786,-0.223733 -0.2237348,-0.223733 z"
       id="path20-3"
       class="ColorScheme-Text" />
    <path
       style="fill:currentColor;fill-opacity:1;stroke:none;stroke-width:0.317494;stroke-linecap:round;stroke-linejoin:round;stroke-dasharray:none;stroke-opacity:0.3"
       d="m 10.467082,10.293968 c -0.12395,0 -0.223736,0.09978 -0.223736,0.223733 v 2.237346 c 0,0.12395 0.09979,0.22374 0.223736,0.22374 h 2.237349 c 0.123949,0 0.223735,-0.09979 0.223735,-0.22374 v -2.237346 c 0,-0.123953 -0.09978,-0.223733 -0.223735,-0.223733 z"
       id="path22"
       class="ColorScheme-Text" />
  </g>
</svg>
