<?xml version="1.0" encoding="UTF-8" standalone="no"?>
<svg
   width="64"
   height="64"
   version="1.1"
   viewBox="0 0 16.933 16.933"
   id="svg7"
   sodipodi:docname="preferences-system-network-ntp.svg"
   inkscape:version="1.4.2 (ebf0e940d0, 2025-05-08)"
   xmlns:inkscape="http://www.inkscape.org/namespaces/inkscape"
   xmlns:sodipodi="http://sodipodi.sourceforge.net/DTD/sodipodi-0.dtd"
   xmlns="http://www.w3.org/2000/svg"
   xmlns:svg="http://www.w3.org/2000/svg"
   xmlns:rdf="http://www.w3.org/1999/02/22-rdf-syntax-ns#"
   xmlns:cc="http://creativecommons.org/ns#"
   xmlns:dc="http://purl.org/dc/elements/1.1/">
  <sodipodi:namedview
     id="namedview7"
     pagecolor="#9c4444"
     bordercolor="#000000"
     borderopacity="0.25"
     inkscape:showpageshadow="2"
     inkscape:pageopacity="0.0"
     inkscape:pagecheckerboard="0"
     inkscape:deskcolor="#d1d1d1"
     inkscape:zoom="4.3531261"
     inkscape:cx="36.410615"
     inkscape:cy="40.200995"
     inkscape:window-width="1543"
     inkscape:window-height="1372"
     inkscape:window-x="0"
     inkscape:window-y="0"
     inkscape:window-maximized="0"
     inkscape:current-layer="svg7"
     showgrid="false" />
  <defs
     id="defs2">
    <style
       id="current-color-scheme"
       type="text/css">.ColorScheme-Text {color:#d8dee9} .ColorScheme-Highlight {color:#3b4252}</style>
  </defs>
  <metadata
     id="metadata2">
    <rdf:RDF>
      <cc:Work
         rdf:about="">
        <dc:format>image/svg+xml</dc:format>
        <dc:type
           rdf:resource="http://purl.org/dc/dcmitype/StillImage" />
      </cc:Work>
    </rdf:RDF>
  </metadata>
  <path
     id="path10"
     class="ColorScheme-Text"
     style="baseline-shift:baseline;display:inline;overflow:visible;vector-effect:none;fill:currentColor;stroke-width:0.437923;enable-background:accumulate;stop-color:#000000"
     d="m 8.4665002,2.1166253 c -3.5043456,0 -6.3498752,2.8455291 -6.3498752,6.3498747 0,3.504346 2.8455296,6.349874 6.3498752,6.349874 3.5043458,0 6.3498738,-2.845528 6.3498738,-6.349874 0,-3.5043456 -2.845528,-6.3498747 -6.3498738,-6.3498747 z m 0,0.4379225 c 2.2465698,0 4.1981018,1.2497864 5.1986168,3.0928269 L 12.407802,6.2768881 11.96988,7.5906553 11.342076,8.2184582 h 0.437922 v 0.9340061 h -1.61997 L 9.7802664,9.3423447 V 10.21819 L 8.904422,10.656111 8.4665002,11.094034 H 7.5906558 L 7.1527332,10.656111 H 6.7148096 l 0.4379236,1.751691 H 6.2768879 L 5.8389653,11.96988 H 4.9631209 L 4.0872764,12.407802 4.12235,12.47709 C 3.1493932,11.423554 2.5545468,10.015338 2.5545468,8.4665 c 0,-0.3870323 0.03694,-0.7654007 0.1077684,-1.1315844 L 3.2114304,7.1527328 3.6493548,6.2768881 V 5.0366782 C 3.72483,4.9308101 3.8041464,4.8267086 3.8862761,4.7261982 L 4.0872764,4.5251984 V 4.4926958 C 4.2255995,4.3403141 4.3717939,4.195414 4.525199,4.0581947 v 0.029081 H 5.4010435 L 5.8389653,3.6493538 V 4.5251987 L 6.2768879,4.9631212 5.8723238,5.7722511 7.7805358,7.6813189 V 4.2771564 L 7.5906558,4.0872761 7.1527332,2.7735089 7.0937155,2.714492 C 7.5342058,2.6099401 7.9938008,2.5545478 8.4665002,2.5545478 Z M 8.0311435,4.0932633 v 4.192765 L 5.1538567,5.4087411 4.9673977,5.5952004 8.0311435,8.6589464 v 0.032503 a 0.21896119,0.21896119 0 0 0 0.2189609,0.218961 H 11.534523 V 8.4724878 H 8.4690653 V 4.0932633 Z m 0.6833993,1.555822 V 6.2187267 L 8.904422,5.8389656 Z M 5.1324736,6.1075351 4.9631209,6.2768881 V 7.1527328 L 4.0872764,7.5906553 V 8.0285777 L 5.4010435,8.4665 6.2768879,8.0285777 5.8389653,8.9044224 H 4.9631209 L 4.525199,9.3423447 3.6493547,9.7802671 V 10.21819 L 5.4010435,9.7802671 5.8389653,9.3423447 6.7148096,9.7802671 7.5906558,9.3423447 H 9.3423446 L 9.437285,9.1524643 H 8.2475393 c -0.2327045,0 -0.4235457,-0.1681066 -0.4601616,-0.3900246 z M 9.3423446,6.2768881 8.904422,6.7148105 H 8.7145428 V 8.2184582 H 9.1524647 L 9.7802664,7.5906553 V 6.7148105 Z" />
</svg>
