<?xml version="1.0" encoding="UTF-8" standalone="no"?>
<svg
   width="64"
   height="64"
   version="1.1"
   viewBox="0 0 16.933 16.933"
   id="svg7"
   sodipodi:docname="preferences-system-network-vpn.svg"
   inkscape:version="1.4.2 (ebf0e940d0, 2025-05-08)"
   xmlns:inkscape="http://www.inkscape.org/namespaces/inkscape"
   xmlns:sodipodi="http://sodipodi.sourceforge.net/DTD/sodipodi-0.dtd"
   xmlns="http://www.w3.org/2000/svg"
   xmlns:svg="http://www.w3.org/2000/svg"
   xmlns:rdf="http://www.w3.org/1999/02/22-rdf-syntax-ns#"
   xmlns:cc="http://creativecommons.org/ns#"
   xmlns:dc="http://purl.org/dc/elements/1.1/">
  <sodipodi:namedview
     id="namedview7"
     pagecolor="#9c4444"
     bordercolor="#000000"
     borderopacity="0.25"
     inkscape:showpageshadow="2"
     inkscape:pageopacity="0.0"
     inkscape:pagecheckerboard="0"
     inkscape:deskcolor="#d1d1d1"
     inkscape:zoom="4.3531261"
     inkscape:cx="36.410615"
     inkscape:cy="40.200995"
     inkscape:window-width="1543"
     inkscape:window-height="1372"
     inkscape:window-x="0"
     inkscape:window-y="0"
     inkscape:window-maximized="0"
     inkscape:current-layer="svg7"
     showgrid="false" />
  <defs
     id="defs2">
    <style
       id="current-color-scheme"
       type="text/css">.ColorScheme-Text {color:#d8dee9} .ColorScheme-Highlight {color:#3b4252}</style>
  </defs>
  <metadata
     id="metadata2">
    <rdf:RDF>
      <cc:Work
         rdf:about="">
        <dc:format>image/svg+xml</dc:format>
        <dc:type
           rdf:resource="http://purl.org/dc/dcmitype/StillImage" />
      </cc:Work>
    </rdf:RDF>
  </metadata>
  <path
     id="rect6"
     class="ColorScheme-Text"
     style="baseline-shift:baseline;display:inline;overflow:visible;vector-effect:none;fill:currentColor;stroke-width:0.437922;enable-background:accumulate;stop-color:#000000"
     d="m 8.4665001,2.1166247 c -3.5140439,0 -6.3498757,2.8358316 -6.3498757,6.3498755 0,3.5140428 2.8358318,6.3498758 6.3498757,6.3498758 3.5140439,0 6.3498759,-2.835833 6.3498759,-6.3498758 0,-3.5140439 -2.835832,-6.3498755 -6.3498759,-6.3498755 z m 0.4379218,0.4533181 c 1.5738711,0.1138008 2.9718051,0.8367514 3.9609731,1.9355836 l -0.01966,0.019676 V 4.963124 h 0.391735 c 0.06856,0.093451 0.134517,0.1889694 0.197579,0.2865322 L 13.28365,5.4010385 12.407806,6.276883 11.969883,6.7148072 11.686773,7.5632818 v 8.558e-4 8.56e-4 c -0.03592,0.20276 -0.08596,0.4312844 -0.154811,0.6756596 v 0.2258036 l 0.437922,0.4379219 0.437923,0.4379218 0.875844,0.4379225 0.999867,-0.2463308 C 13.803997,12.192565 11.56293,14.217458 8.8000822,14.369001 L 8.9044246,14.15945 V 13.721526 L 9.780269,13.283604 10.218192,12.84568 v -0.875844 l 0.437923,-0.437922 v -0.437923 l -0.437923,-0.437922 -0.01967,-0.0067 C 9.7759767,11.08785 9.2407462,11.477865 8.5623015,11.761262 l -0.095801,0.0402 -0.095802,-0.0402 C 6.7162524,11.07037 5.912143,9.7469961 5.5216366,8.6247744 L 4.9631154,8.9044622 H 4.0872709 V 8.0286357 H 3.649349 V 7.1527912 H 3.2114246 L 2.7735028,7.590713 H 2.6178338 C 2.6890683,7.1055692 2.8186656,6.6402021 2.9993048,6.2016777 L 4.0872691,5.8390223 4.5251918,6.276945 4.9631136,6.7148685 V 5.838965 L 5.838958,5.4010424 V 4.9631205 L 6.7148094,4.5251979 7.5906556,3.6493534 V 4.087276 L 8.0285774,3.6493534 7.5906556,3.2114307 H 8.4665001 V 3.6493534 L 9.3423446,3.2114307 8.9044219,2.7735083 Z M 8.4665001,5.4010424 c 0,0 -0.7663653,1.0174035 -3.065457,1.2727117 0,0 0,3.5781549 3.065457,4.8582019 C 11.531956,10.25147 11.531956,6.6737541 11.531956,6.6737541 9.2328645,6.4184459 8.4665001,5.4010424 8.4665001,5.4010424 Z m 0,0.5277303 C 9.0743352,6.4442085 9.9524726,6.7877248 11.089758,6.9611421 11.028451,7.5146746 10.968218,7.9310369 10.825465,8.3339252 10.524174,9.1804304 10.173802,9.6958986 9.8598122,10.065943 9.3715281,10.640059 8.9289453,10.871364 8.4665001,11.102587 8.0040532,10.871803 7.5614712,10.640059 7.0731871,10.065943 6.7591976,9.6958986 6.4088258,9.1804304 6.1075348,8.3339252 5.9647759,7.9310369 5.9049896,7.5151137 5.8432417,6.9611421 6.9809641,6.7877248 7.8586624,6.4442085 8.4665001,5.9287727 Z m 0,0.4593051 C 7.7982308,6.8522766 7.0472208,7.0874135 6.2939931,7.2468184 6.6508995,9.2708954 7.419865,10.136201 8.4665001,10.67835 9.5131352,10.136201 10.282098,9.2708954 10.639006,7.2468184 9.8857785,7.0874084 9.1347693,6.8522766 8.4665001,6.3880778 Z M 2.5631007,8.1423344 3.2114298,8.4665002 3.6493542,8.904422 4.5251986,9.3423437 4.9631204,9.7802662 4.5251986,10.21819 v 0.875844 l 0.4379218,0.875844 0.8758445,0.875846 v 0.923743 C 3.8880746,12.806484 2.5545462,10.800079 2.5545462,8.4665002 c 0,-0.1087284 0.00282,-0.2169342 0.00862,-0.3241658 z" />
</svg>
