<?xml version="1.0" encoding="UTF-8" standalone="no"?>
<svg
   width="64"
   height="64"
   version="1.1"
   viewBox="0 0 16.933 16.933"
   id="svg7"
   sodipodi:docname="preferences-desktop-keyboard.svg"
   inkscape:version="1.4.2 (ebf0e940d0, 2025-05-08)"
   xmlns:inkscape="http://www.inkscape.org/namespaces/inkscape"
   xmlns:sodipodi="http://sodipodi.sourceforge.net/DTD/sodipodi-0.dtd"
   xmlns="http://www.w3.org/2000/svg"
   xmlns:svg="http://www.w3.org/2000/svg"
   xmlns:rdf="http://www.w3.org/1999/02/22-rdf-syntax-ns#"
   xmlns:cc="http://creativecommons.org/ns#"
   xmlns:dc="http://purl.org/dc/elements/1.1/">
  <sodipodi:namedview
     id="namedview7"
     pagecolor="#9c4444"
     bordercolor="#000000"
     borderopacity="0.25"
     inkscape:showpageshadow="2"
     inkscape:pageopacity="0.0"
     inkscape:pagecheckerboard="0"
     inkscape:deskcolor="#d1d1d1"
     inkscape:zoom="6.15625"
     inkscape:cx="15.756345"
     inkscape:cy="27.208122"
     inkscape:window-width="1226"
     inkscape:window-height="669"
     inkscape:window-x="0"
     inkscape:window-y="0"
     inkscape:window-maximized="0"
     inkscape:current-layer="svg7"
     showgrid="false" />
  <defs
     id="defs2">
    <style
       id="current-color-scheme"
       type="text/css">.ColorScheme-Text {color:#d8dee9} .ColorScheme-Highlight {color:#3b4252}</style>
  </defs>
  <metadata
     id="metadata2">
    <rdf:RDF>
      <cc:Work
         rdf:about="">
        <dc:format>image/svg+xml</dc:format>
        <dc:type
           rdf:resource="http://purl.org/dc/dcmitype/StillImage" />
      </cc:Work>
    </rdf:RDF>
  </metadata>
  <path
     style="fill:currentColor;fill-opacity:1;stroke:none;stroke-width:0.388946;stroke-dasharray:none;stroke-opacity:0.3"
     class="ColorScheme-Text"
     d="m 3.8099251,3.3865999 c 0,0 -1.6932999,0 -1.6932999,1.6933003 V 11.8531 c 0,1.6933 1.6932999,1.6933 1.6932999,1.6933 h 9.3131499 c 0,0 1.693299,0 1.693299,-1.6933 V 5.0799002 c 0,-1.6933003 -1.693299,-1.6933003 -1.693299,-1.6933003 z M 4.021588,5.0799002 h 1.2699751 c 0.1172604,0 0.2116615,0.094403 0.2116615,0.2116628 v 1.2699749 c 0,0.1172604 -0.0944,0.2116621 -0.2116615,0.2116621 H 4.021588 C 3.9043288,6.7732 3.8099251,6.678798 3.8099251,6.5615379 V 5.291563 c 0,-0.1172604 0.094403,-0.2116628 0.2116629,-0.2116628 z m 2.53995,0 h 1.2699747 c 0.1172604,0 0.2116624,0.094403 0.2116624,0.2116628 v 1.2699749 c 0,0.1172604 -0.094402,0.2116621 -0.2116624,0.2116621 H 6.561538 C 6.4442752,6.7732 6.3498752,6.678798 6.3498752,6.5615379 V 5.291563 c 0,-0.1172604 0.094403,-0.2116628 0.2116628,-0.2116628 z m 2.5399496,0 h 1.2699744 c 0.117264,0 0.211662,0.094403 0.211662,0.2116628 v 1.2699749 c 0,0.1172604 -0.0944,0.2116621 -0.211662,0.2116621 H 9.1014876 C 8.9842272,6.7732 8.8898257,6.678798 8.8898257,6.5615379 V 5.291563 c 0,-0.1172604 0.094399,-0.2116628 0.2116619,-0.2116628 z m 2.5399494,0 h 1.269975 c 0.117264,0 0.211663,0.094403 0.211663,0.2116628 v 1.2699749 c 0,0.1172604 -0.0944,0.2116621 -0.211663,0.2116621 h -1.269975 c -0.117276,0 -0.211662,-0.094402 -0.211662,-0.2116621 V 5.291563 c 0,-0.1172604 0.0944,-0.2116628 0.211662,-0.2116628 z M 4.021588,7.6198503 h 1.2699751 c 0.1172604,0 0.2116615,0.0944 0.2116615,0.2116623 v 1.2699752 c 0,0.1172616 -0.0944,0.2116624 -0.2116615,0.2116624 H 4.021588 c -0.1172592,0 -0.2116629,-0.094402 -0.2116629,-0.2116624 V 7.8315126 c 0,-0.1172604 0.094403,-0.2116623 0.2116629,-0.2116623 z m 2.53995,0 h 1.2699747 c 0.1172604,0 0.2116624,0.0944 0.2116624,0.2116623 v 1.2699752 c 0,0.1172616 -0.094402,0.2116624 -0.2116624,0.2116624 H 6.561538 c -0.1172628,0 -0.2116628,-0.094402 -0.2116628,-0.2116624 V 7.8315126 c 0,-0.1172604 0.094403,-0.2116623 0.2116628,-0.2116623 z m 2.5399496,0 h 1.2699744 c 0.117264,0 0.211662,0.0944 0.211662,0.2116623 v 1.2699752 c 0,0.1172616 -0.0944,0.2116624 -0.211662,0.2116624 H 9.1014876 c -0.1172604,0 -0.2116619,-0.094402 -0.2116619,-0.2116624 V 7.8315126 c 0,-0.1172604 0.094399,-0.2116623 0.2116619,-0.2116623 z m 2.5399494,0 h 1.269975 c 0.117264,0 0.211663,0.0944 0.211663,0.2116623 v 1.2699752 c 0,0.1172616 -0.0944,0.2116624 -0.211663,0.2116624 h -1.269975 c -0.117276,0 -0.211662,-0.094402 -0.211662,-0.2116624 V 7.8315126 c 0,-0.1172604 0.0944,-0.2116623 0.211662,-0.2116623 z M 5.7148877,10.1598 h 5.5032253 c 0.117264,0 0.211662,0.0944 0.211662,0.211662 v 1.269976 c 0,0.117264 -0.0944,0.211662 -0.211662,0.211662 H 5.7148877 c -0.1172604,0 -0.2116631,-0.09439 -0.2116631,-0.211662 v -1.269976 c 0,-0.117266 0.094403,-0.211662 0.2116631,-0.211662 z"
     id="path5" />
</svg>
