<?xml version="1.0" encoding="UTF-8" standalone="no"?>
<svg
   width="32"
   height="32"
   version="1.1"
   id="svg1"
   sodipodi:docname="preferences-system-bluetooth-activated-symbolic.svg"
   xmlns:inkscape="http://www.inkscape.org/namespaces/inkscape"
   xmlns:sodipodi="http://sodipodi.sourceforge.net/DTD/sodipodi-0.dtd"
   xmlns="http://www.w3.org/2000/svg"
   xmlns:svg="http://www.w3.org/2000/svg">
  <defs
     id="defs1" />
  <sodipodi:namedview
     id="namedview1"
     pagecolor="#ffffff"
     bordercolor="#000000"
     borderopacity="0.25"
     inkscape:showpageshadow="2"
     inkscape:pageopacity="0.0"
     inkscape:pagecheckerboard="0"
     inkscape:deskcolor="#d1d1d1" />
  <style
     type="text/css"
     id="current-color-scheme">.ColorScheme-Background { color: #2a2e32; } .ColorScheme-NegativeText { color: #da4453; } .ColorScheme-NeutralText { color: #f67400; } .ColorScheme-PositiveText { color: #27ae60; } .ColorScheme-Text { color: #fcfcfc; } </style>
  <g
     id="preferences-system-bluetooth-activated"
     transform="translate(44,94) translate(-71,-116)"
     style="">
    <rect
       id="rect4422"
       x="23.799999"
       y="18.799999"
       width="38.400002"
       height="38.400002"
       fill="none"
       style="stroke-width:1.2" />
    <path
       id="path4424"
       class="ColorScheme-Text"
       d="M 43,23.6 V 36.797656 L 35.802344,29.6 34.95625,30.446094 42.507813,38 34.95625,45.553906 35.802344,46.4 43,39.202344 V 52.4 h 1.2024 L 51.4,45.202344 v -0.0047 L 44.202344,38 51.4,30.802344 v -0.0047 L 44.202344,23.6 Z M 44.2,25.292187 49.705469,30.8 44.2,36.307813 Z M 27.4,36.8 a 1.2,1.2 0 0 0 -1.2,1.2 1.2,1.2 0 0 0 1.2,1.2 1.2,1.2 0 0 0 1.2,-1.2 1.2,1.2 0 0 0 -1.2,-1.2 z m 7.2,0 a 1.2,1.2 0 0 0 -1.2,1.2 1.2,1.2 0 0 0 1.2,1.2 1.2,1.2 0 0 0 1.2,-1.2 1.2,1.2 0 0 0 -1.2,-1.2 z m 16.8,0 a 1.2,1.2 0 0 0 -1.2,1.2 1.2,1.2 0 0 0 1.2,1.2 1.2,1.2 0 0 0 1.2,-1.2 1.2,1.2 0 0 0 -1.2,-1.2 z m 7.2,0 A 1.2,1.2 0 0 0 57.4,38 1.2,1.2 0 0 0 58.6,39.2 1.2,1.2 0 0 0 59.8,38 1.2,1.2 0 0 0 58.6,36.8 Z M 44.2,39.692187 49.705469,45.2 44.2,50.707813 Z"
       fill="currentColor"
       style="stroke-width:1.2" />
  </g>
</svg>
