<?xml version="1.0" encoding="UTF-8" standalone="no"?>
<svg
   width="64"
   height="64"
   version="1.1"
   viewBox="0 0 16.933 16.933"
   id="svg7"
   sodipodi:docname="preferences-desktop-screensaver.svg"
   inkscape:version="1.4.2 (ebf0e940d0, 2025-05-08)"
   xmlns:inkscape="http://www.inkscape.org/namespaces/inkscape"
   xmlns:sodipodi="http://sodipodi.sourceforge.net/DTD/sodipodi-0.dtd"
   xmlns="http://www.w3.org/2000/svg"
   xmlns:svg="http://www.w3.org/2000/svg"
   xmlns:rdf="http://www.w3.org/1999/02/22-rdf-syntax-ns#"
   xmlns:cc="http://creativecommons.org/ns#"
   xmlns:dc="http://purl.org/dc/elements/1.1/">
  <sodipodi:namedview
     id="namedview7"
     pagecolor="#9c4444"
     bordercolor="#000000"
     borderopacity="0.25"
     inkscape:showpageshadow="2"
     inkscape:pageopacity="0.0"
     inkscape:pagecheckerboard="0"
     inkscape:deskcolor="#d1d1d1"
     inkscape:zoom="6.15625"
     inkscape:cx="15.756345"
     inkscape:cy="27.208122"
     inkscape:window-width="1226"
     inkscape:window-height="669"
     inkscape:window-x="0"
     inkscape:window-y="0"
     inkscape:window-maximized="0"
     inkscape:current-layer="svg7"
     showgrid="false" />
  <defs
     id="defs2">
    <style
       id="current-color-scheme"
       type="text/css">.ColorScheme-Text {color:#d8dee9} .ColorScheme-Highlight {color:#3b4252}</style>
  </defs>
  <metadata
     id="metadata2">
    <rdf:RDF>
      <cc:Work
         rdf:about="">
        <dc:format>image/svg+xml</dc:format>
        <dc:type
           rdf:resource="http://purl.org/dc/dcmitype/StillImage" />
      </cc:Work>
    </rdf:RDF>
  </metadata>
  <g
     id="g6"
     transform="matrix(0.68300186,0,0,0.68300186,2.8300216,2.8300216)"
     style="fill:currentColor;fill-opacity:1;stroke:none;stroke-width:0.441494;stroke-dasharray:none;stroke-opacity:0.3"
     class="ColorScheme-Text">
    <path
       d="m 12.880298,4.3494984 c 0.744,0.9 1.194,2.052 1.194,3.312 A 5.2128,5.2128 0 0 1 8.8614984,12.874298 c -1.26,0 -2.412,-0.4512 -3.312,-1.194 a 6.066,6.066 0 0 0 5.9183996,4.6692 6.0816,6.0816 0 0 0 6.0816,-6.0816 6.066,6.066 0 0 0 -4.6692,-5.9183996 z M 6.1626984,0.49749837 c 0.48,0 0.8652,0.3864 0.8652,0.86520003 a 0.864,0.864 0 0 1 -0.864,0.8652 0.864,0.864 0 0 1 -0.8664,-0.864 c 0,-0.48000003 0.3864,-0.86640003 0.8652,-0.86640003 z M 10.962698,1.7250984 a 0.8388,0.8388 0 1 1 0,1.6776 0.8364,0.8364 0 0 1 -0.8388,-0.84 c 0,-0.4644 0.3744,-0.8376 0.84,-0.8376 z m -3.5999996,2.3724 c 0.48,0 0.8652,0.3864 0.8652,0.8652 a 0.864,0.864 0 0 1 -0.864,0.8652 0.864,0.864 0 0 1 -0.8664,-0.864 c 0,-0.48 0.3864,-0.8664 0.8652,-0.8664 z"
       overflow="visible"
       id="path2-3"
       style="fill:currentColor;fill-opacity:1;stroke:none;stroke-width:0.529793;stroke-dasharray:none;stroke-opacity:0.3"
       class="ColorScheme-Text" />
    <path
       d="m 2.5554984,7.3554984 -0.894,-2.706 -2.706,-0.894 2.706,-0.894 0.894,-2.70600003 0.894,2.70600003 2.706,0.894 -2.706,0.894 z"
       overflow="visible"
       id="path4"
       style="fill:currentColor;fill-opacity:1;stroke:none;stroke-width:0.529793;stroke-dasharray:none;stroke-opacity:0.3"
       class="ColorScheme-Text" />
  </g>
</svg>
