<?xml version="1.0" encoding="UTF-8" standalone="no"?>
<svg
   width="64"
   height="64"
   version="1.1"
   viewBox="0 0 16.933 16.933"
   id="svg7"
   sodipodi:docname="preferences-web-browser-cache.svg"
   inkscape:version="1.4.2 (ebf0e940d0, 2025-05-08)"
   xmlns:inkscape="http://www.inkscape.org/namespaces/inkscape"
   xmlns:sodipodi="http://sodipodi.sourceforge.net/DTD/sodipodi-0.dtd"
   xmlns="http://www.w3.org/2000/svg"
   xmlns:svg="http://www.w3.org/2000/svg"
   xmlns:rdf="http://www.w3.org/1999/02/22-rdf-syntax-ns#"
   xmlns:cc="http://creativecommons.org/ns#"
   xmlns:dc="http://purl.org/dc/elements/1.1/">
  <sodipodi:namedview
     id="namedview7"
     pagecolor="#9c4444"
     bordercolor="#000000"
     borderopacity="0.25"
     inkscape:showpageshadow="2"
     inkscape:pageopacity="0.0"
     inkscape:pagecheckerboard="0"
     inkscape:deskcolor="#d1d1d1"
     inkscape:zoom="4.3531261"
     inkscape:cx="36.410615"
     inkscape:cy="40.200995"
     inkscape:window-width="1543"
     inkscape:window-height="1372"
     inkscape:window-x="0"
     inkscape:window-y="0"
     inkscape:window-maximized="0"
     inkscape:current-layer="svg7"
     showgrid="false" />
  <defs
     id="defs2">
    <style
       id="current-color-scheme"
       type="text/css">.ColorScheme-Text {color:#d8dee9} .ColorScheme-Highlight {color:#3b4252}</style>
  </defs>
  <metadata
     id="metadata2">
    <rdf:RDF>
      <cc:Work
         rdf:about="">
        <dc:format>image/svg+xml</dc:format>
        <dc:type
           rdf:resource="http://purl.org/dc/dcmitype/StillImage" />
      </cc:Work>
    </rdf:RDF>
  </metadata>
  <path
     id="rect6"
     class="ColorScheme-Text"
     style="baseline-shift:baseline;display:inline;overflow:visible;vector-effect:none;fill:currentColor;fill-opacity:1;stroke-width:0.437923;enable-background:accumulate;stop-color:#000000"
     d="m 8.4665001,2.1166247 c -3.5140439,0 -6.3498757,2.8358317 -6.3498757,6.3498753 0,3.514043 2.8358318,6.349876 6.3498757,6.349876 3.5140439,0 6.3498759,-2.835833 6.3498759,-6.349876 0,-3.5140436 -2.835832,-6.3498753 -6.3498759,-6.3498753 z M 8.904422,2.5699428 c 1.573871,0.1138008 2.971805,0.836751 3.960973,1.935583 l -0.01966,0.019672 V 4.96312 h 0.391735 c 0.06856,0.093448 0.134516,0.1889695 0.197579,0.2865312 l -0.151399,0.1513901 -0.875844,0.8758448 -0.437922,0.4379224 -0.437922,1.313768 v 0.4379218 l 0.437922,0.4379227 0.437922,0.4379226 0.875844,0.4379226 0.999868,-0.2463317 C 13.803992,12.192607 11.562925,14.217502 8.800078,14.369046 L 8.9044204,14.159492 V 13.72157 L 9.7802707,13.283647 10.218193,12.845724 V 11.96988 l 0.437924,-0.437924 v -0.18988 H 6.028851 V 8.5297936 L 5.8389692,8.4665018 4.9631247,8.9044235 H 4.087276 V 8.0285774 H 3.6493542 V 7.1527326 H 3.2114298 L 2.773508,7.5906551 H 2.617839 C 2.6890734,7.1055114 2.8186707,6.6401453 2.9993098,6.20162 L 4.0872742,5.8389653 4.525197,6.2768878 4.9631187,6.7148102 V 5.8389653 L 5.838965,5.401043 V 4.9631205 L 6.7148095,4.525198 7.5906556,3.6493532 V 4.0872756 L 8.0285774,3.6493532 7.5906556,3.2114308 H 8.4665001 V 3.6493532 L 9.3423446,3.2114308 8.904422,2.7735084 Z M 7.5906556,5.8389653 V 6.2768878 H 5.838965 V 6.7148102 H 6.2768876 V 11.094034 H 10.656112 V 6.7148102 h 0.437924 V 6.2768878 H 9.3423446 V 5.8389653 Z M 8.0285774,6.2768878 H 8.904422 V 6.7148102 H 8.0285774 Z M 7.5906556,7.5906551 H 8.0285774 V 9.780267 H 7.5906556 Z m 1.3137664,0 H 9.3423446 V 9.780267 H 8.904422 Z M 2.5631007,8.1423351 3.2114298,8.4665 3.6493542,8.9044227 4.5251986,9.3423446 4.9631205,9.780267 4.5251986,10.21819 v 0.875844 l 0.4379219,0.875846 0.8758445,0.875844 v 0.923743 C 3.8880746,12.806485 2.5545462,10.800081 2.5545462,8.4665 c 0,-0.1087248 0.00282,-0.2169341 0.00862,-0.3241649 z" />
</svg>
