<?xml version="1.0" encoding="UTF-8" standalone="no"?>
<svg
   width="64"
   height="64"
   version="1.1"
   viewBox="0 0 16.933 16.933"
   id="svg7"
   sodipodi:docname="preferences-desktop-multimedia.svg"
   inkscape:version="1.4.2 (ebf0e940d0, 2025-05-08)"
   xmlns:inkscape="http://www.inkscape.org/namespaces/inkscape"
   xmlns:sodipodi="http://sodipodi.sourceforge.net/DTD/sodipodi-0.dtd"
   xmlns="http://www.w3.org/2000/svg"
   xmlns:svg="http://www.w3.org/2000/svg"
   xmlns:rdf="http://www.w3.org/1999/02/22-rdf-syntax-ns#"
   xmlns:cc="http://creativecommons.org/ns#"
   xmlns:dc="http://purl.org/dc/elements/1.1/">
  <sodipodi:namedview
     id="namedview7"
     pagecolor="#9c4444"
     bordercolor="#000000"
     borderopacity="0.25"
     inkscape:showpageshadow="2"
     inkscape:pageopacity="0.0"
     inkscape:pagecheckerboard="0"
     inkscape:deskcolor="#d1d1d1"
     inkscape:zoom="6.15625"
     inkscape:cx="15.756345"
     inkscape:cy="27.208122"
     inkscape:window-width="1226"
     inkscape:window-height="669"
     inkscape:window-x="0"
     inkscape:window-y="0"
     inkscape:window-maximized="0"
     inkscape:current-layer="svg7"
     showgrid="false" />
  <defs
     id="defs2">
    <style
       id="current-color-scheme"
       type="text/css">.ColorScheme-Text {color:#d8dee9} .ColorScheme-Highlight {color:#3b4252}</style>
  </defs>
  <metadata
     id="metadata2">
    <rdf:RDF>
      <cc:Work
         rdf:about="">
        <dc:format>image/svg+xml</dc:format>
        <dc:type
           rdf:resource="http://purl.org/dc/dcmitype/StillImage" />
      </cc:Work>
    </rdf:RDF>
  </metadata>
  <path
     style="fill:currentColor;fill-opacity:1;stroke:none;stroke-width:0.400985;stroke-dasharray:none;stroke-opacity:0.3"
     d="M 3.0543505,2.1166248 V 14.816376 H 13.878676 V 2.1166248 H 13.202157 V 2.9103593 H 12.525636 V 2.1166248 H 4.4073917 V 2.9103593 H 3.7308703 L 3.730736,2.1166248 H 3.0543237 Z M 5.7604322,3.7040931 H 11.172597 V 7.6727656 H 5.7604322 Z M 3.730736,4.4978282 H 4.4072563 V 6.0852968 H 3.730736 Z m 8.794765,0 h 0.676521 V 6.0852968 H 12.525501 Z M 3.730736,7.6727656 H 4.4072563 V 9.2602344 H 3.730736 Z m 8.794765,0 h 0.676521 V 9.2602344 H 12.525501 Z M 5.7602966,9.2602344 H 11.172459 V 13.228908 H 5.7602966 Z M 3.7305998,10.847703 h 0.6765209 v 1.587469 H 3.7305998 Z m 8.7947662,0 h 0.67652 v 1.587469 h -0.67652 z M 3.7305998,14.02264 h 0.6765209 v 0.793736 H 3.7305998 Z m 8.7947662,0 h 0.67652 v 0.793736 h -0.67652 z"
     id="path4"
     class="ColorScheme-Text" />
</svg>
