<?xml version="1.0" encoding="UTF-8" standalone="no"?>
<svg
   width="64"
   height="64"
   version="1.1"
   viewBox="0 0 16.933 16.933"
   id="svg7"
   sodipodi:docname="preferences-security.svg"
   inkscape:version="1.4.2 (ebf0e940d0, 2025-05-08)"
   xmlns:inkscape="http://www.inkscape.org/namespaces/inkscape"
   xmlns:sodipodi="http://sodipodi.sourceforge.net/DTD/sodipodi-0.dtd"
   xmlns="http://www.w3.org/2000/svg"
   xmlns:svg="http://www.w3.org/2000/svg"
   xmlns:rdf="http://www.w3.org/1999/02/22-rdf-syntax-ns#"
   xmlns:cc="http://creativecommons.org/ns#"
   xmlns:dc="http://purl.org/dc/elements/1.1/">
  <sodipodi:namedview
     id="namedview7"
     pagecolor="#9c4444"
     bordercolor="#000000"
     borderopacity="0.25"
     inkscape:showpageshadow="2"
     inkscape:pageopacity="0.0"
     inkscape:pagecheckerboard="0"
     inkscape:deskcolor="#d1d1d1"
     inkscape:zoom="6.15625"
     inkscape:cx="15.756345"
     inkscape:cy="29.64467"
     inkscape:window-width="1226"
     inkscape:window-height="669"
     inkscape:window-x="0"
     inkscape:window-y="0"
     inkscape:window-maximized="0"
     inkscape:current-layer="svg7"
     showgrid="false" />
  <defs
     id="defs2">
    <style
       id="current-color-scheme"
       type="text/css">.ColorScheme-Text {color:#d8dee9} .ColorScheme-Highlight {color:#3b4252}</style>
  </defs>
  <metadata
     id="metadata2">
    <rdf:RDF>
      <cc:Work
         rdf:about="">
        <dc:format>image/svg+xml</dc:format>
        <dc:type
           rdf:resource="http://purl.org/dc/dcmitype/StillImage" />
      </cc:Work>
    </rdf:RDF>
  </metadata>
  <path
     id="path2-2"
     style="fill:currentColor;stroke-width:0.0610597"
     d="m 8.4833356,2.1166248 c -0.1094112,0 -1.240188,0.3462986 -2.5130802,0.7694151 C 3.9788145,3.5480052 3.640888,3.6770765 3.5511494,3.8140365 3.4602638,3.9527319 3.4474778,4.1539518 3.4490978,5.3800301 c 0.0011,0.8103513 0.035549,1.6533391 0.081494,1.9874106 0.5072156,3.6875973 1.9791479,6.1147163 4.404315,7.2617203 0.2182873,0.103248 0.4456048,0.187188 0.5051129,0.187215 0.3201444,1.42e-4 1.5172352,-0.696329 2.1570073,-1.255439 1.371323,-1.198437 2.35307,-3.272658 2.74361,-5.7963083 0.13068,-0.8444591 0.196012,-3.5594339 0.09178,-3.8110995 C 13.377231,3.8203218 13.261628,3.7229892 13.024208,3.6106698 12.512175,3.368441 8.7074438,2.1166248 8.4833356,2.1166248 Z M 8.3629276,5.4101313 C 9.0142059,5.3942236 9.6909205,5.6474805 9.9781124,6.1120023 10.150598,6.3909897 10.164681,6.4584221 10.18515,7.103138 l 0.02202,0.6915922 h 0.200432 c 0.110196,0 0.265045,0.052511 0.344328,0.1167336 0.143622,0.1163304 0.144631,0.1217823 0.144631,1.4632101 0,1.2109131 -0.0114,1.3578511 -0.109392,1.4558681 -0.09989,0.09992 -0.284945,0.109608 -2.2282224,0.121138 C 7.393107,10.95848 6.3791256,10.94004 6.3057601,10.90984 6.0672127,10.81163 6.0421904,10.664324 6.0421904,9.3533866 c 0,-1.2547797 3.416e-4,-1.2594516 0.1497722,-1.408881 0.090304,-0.090307 0.2206023,-0.1497711 0.3274422,-0.1497711 H 6.6963414 L 6.7279099,7.1288354 C 6.764808,6.3503435 6.8846834,6.0636323 7.3079086,5.741246 7.5909448,5.5256472 7.9721498,5.4196778 8.3629183,5.4101331 Z M 8.4759904,6.1597235 C 8.2698831,6.158254 8.058718,6.2036782 7.8739666,6.299216 7.5954495,6.4432431 7.5076132,6.676322 7.5076132,7.2727319 V 7.79473 H 8.490674 9.4729999 L 9.4517139,7.2184032 C 9.431829,6.676921 9.4199677,6.6315948 9.2505493,6.4548617 9.0676346,6.2640497 8.7772273,6.1618589 8.4759962,6.1597235 Z"
     class="ColorScheme-Text" />
</svg>
