<?xml version="1.0" encoding="UTF-8" standalone="no"?>
<svg
   width="64"
   height="64"
   version="1.1"
   viewBox="0 0 16.933 16.933"
   id="svg7"
   sodipodi:docname="preferences-desktop-gaming.svg"
   inkscape:version="1.4.2 (ebf0e940d0, 2025-05-08)"
   xmlns:inkscape="http://www.inkscape.org/namespaces/inkscape"
   xmlns:sodipodi="http://sodipodi.sourceforge.net/DTD/sodipodi-0.dtd"
   xmlns="http://www.w3.org/2000/svg"
   xmlns:svg="http://www.w3.org/2000/svg"
   xmlns:rdf="http://www.w3.org/1999/02/22-rdf-syntax-ns#"
   xmlns:cc="http://creativecommons.org/ns#"
   xmlns:dc="http://purl.org/dc/elements/1.1/">
  <sodipodi:namedview
     id="namedview7"
     pagecolor="#9c4444"
     bordercolor="#000000"
     borderopacity="0.25"
     inkscape:showpageshadow="2"
     inkscape:pageopacity="0.0"
     inkscape:pagecheckerboard="0"
     inkscape:deskcolor="#d1d1d1"
     inkscape:zoom="6.15625"
     inkscape:cx="15.756345"
     inkscape:cy="27.208122"
     inkscape:window-width="1226"
     inkscape:window-height="669"
     inkscape:window-x="0"
     inkscape:window-y="0"
     inkscape:window-maximized="0"
     inkscape:current-layer="svg7"
     showgrid="false" />
  <defs
     id="defs2">
    <style
       id="current-color-scheme"
       type="text/css">.ColorScheme-Text {color:#d8dee9} .ColorScheme-Highlight {color:#3b4252}</style>
  </defs>
  <metadata
     id="metadata2">
    <rdf:RDF>
      <cc:Work
         rdf:about="">
        <dc:format>image/svg+xml</dc:format>
        <dc:type
           rdf:resource="http://purl.org/dc/dcmitype/StillImage" />
      </cc:Work>
    </rdf:RDF>
  </metadata>
  <path
     id="path99"
     style="fill:currentColor;fill-opacity:1;stroke:none;stroke-width:0.398123;stroke-dasharray:none;stroke-dashoffset:2.2;stroke-opacity:0.3"
     d="M 11.943655,3.246053 C 11.73445,3.2459658 11.510516,3.330207 11.230255,3.4944206 10.56333,3.8851837 9.6911185,4.0694737 8.4933386,4.0694737 7.295675,4.0694737 6.3943669,3.8812622 5.7314145,3.4927535 5.1998136,3.1812292 4.8824412,3.1771001 4.4362977,3.4779167 3.2908981,4.2498 2.4276567,6.7245947 2.1744181,9.9585226 2.0225588,11.897766 2.1644031,12.920148 2.6661293,13.495515 c 0.2419822,0.277401 0.8360166,0.230369 1.3717938,-0.110016 0.454169,-0.288539 0.995309,-0.925236 1.6418208,-1.931857 0.5842142,-0.909625 1.2908593,-1.20922 2.8535984,-1.21178 1.5596307,-0.0027 2.1725497,0.292654 2.8919377,1.398463 1.206956,1.855274 2.322565,2.501168 2.976941,1.72349 0.362519,-0.430826 0.428873,-0.847076 0.411701,-2.580236 C 14.782633,7.6352087 13.959662,4.771076 12.773737,3.6779231 12.457891,3.386785 12.212654,3.2463276 11.943655,3.2462148 Z M 5.1680307,5.1012239 H 5.8914303 6.6148307 V 5.721283 6.3413424 H 7.2348902 7.8549467 V 7.1164151 7.891485 H 7.2348902 6.6148307 v 0.6717288 0.6717295 h -0.655059 c -0.3598736,0 -0.6838526,-0.032256 -0.7217361,-0.069992 C 5.2001708,9.1270825 5.1680408,8.8263524 5.1680408,8.4948877 V 7.891485 H 4.5479724 3.9279129 V 7.1164151 6.3413424 H 4.5479724 5.1680307 V 5.721283 Z m 5.8972143,0 c 0.652605,0 0.93208,0.7230697 0.46171,1.193448 -0.29914,0.2991059 -0.572153,0.3226164 -0.866747,0.07335 C 10.149222,5.9356406 10.415937,5.101237 11.065245,5.101237 Z m -1.2551163,1.325124 c 0.1629544,1.142e-4 0.3270303,0.065064 0.4567073,0.2083386 0.202146,0.2233705 0.223981,0.7347793 0.04167,0.9734257 -0.3567682,0.4670593 -1.2134415,0.1666339 -1.2134415,-0.425038 0,-0.4490553 0.35656,-0.7569842 0.7150643,-0.7567387 z m 2.5619033,0.02516 c 0.187842,0.00349 0.370183,0.065635 0.476713,0.1833407 0.202135,0.2233704 0.223969,0.7347758 0.04166,0.973425 -0.379481,0.496779 -1.213447,0.1642785 -1.213447,-0.483379 0,-0.1963102 0.07864,-0.4090908 0.188345,-0.50838 0.125389,-0.1134792 0.318912,-0.1684408 0.506715,-0.1650172 z M 11.11025,7.7882958 c 0.578566,0 0.86008,0.6136927 0.510046,1.1134385 -0.119676,0.1708253 -0.265593,0.2300153 -0.566723,0.2300153 -0.346689,0 -0.427138,-0.045124 -0.566716,-0.3150405 -0.275203,-0.5321982 0.02516,-1.0284288 0.623393,-1.0284288 z"
     class="ColorScheme-Text" />
</svg>
