<?xml version="1.0" encoding="UTF-8" standalone="no"?>
<svg
   width="64"
   height="64"
   version="1.1"
   viewBox="0 0 16.933 16.933"
   id="svg7"
   sodipodi:docname="preferences-desktop-effects.svg"
   inkscape:version="1.4.2 (ebf0e940d0, 2025-05-08)"
   xmlns:inkscape="http://www.inkscape.org/namespaces/inkscape"
   xmlns:sodipodi="http://sodipodi.sourceforge.net/DTD/sodipodi-0.dtd"
   xmlns="http://www.w3.org/2000/svg"
   xmlns:svg="http://www.w3.org/2000/svg"
   xmlns:rdf="http://www.w3.org/1999/02/22-rdf-syntax-ns#"
   xmlns:cc="http://creativecommons.org/ns#"
   xmlns:dc="http://purl.org/dc/elements/1.1/">
  <sodipodi:namedview
     id="namedview7"
     pagecolor="#9c4444"
     bordercolor="#000000"
     borderopacity="0.25"
     inkscape:showpageshadow="2"
     inkscape:pageopacity="0.0"
     inkscape:pagecheckerboard="0"
     inkscape:deskcolor="#d1d1d1"
     inkscape:zoom="6.15625"
     inkscape:cx="15.756345"
     inkscape:cy="27.208122"
     inkscape:window-width="1226"
     inkscape:window-height="669"
     inkscape:window-x="0"
     inkscape:window-y="0"
     inkscape:window-maximized="0"
     inkscape:current-layer="svg7"
     showgrid="false" />
  <defs
     id="defs2">
    <style
       id="current-color-scheme"
       type="text/css">.ColorScheme-Text {color:#d8dee9} .ColorScheme-Highlight {color:#3b4252}</style>
  </defs>
  <metadata
     id="metadata2">
    <rdf:RDF>
      <cc:Work
         rdf:about="">
        <dc:format>image/svg+xml</dc:format>
        <dc:type
           rdf:resource="http://purl.org/dc/dcmitype/StillImage" />
      </cc:Work>
    </rdf:RDF>
  </metadata>
  <path
     d="M 11.139114,6.6239858 13.41219,4.3509092 12.582091,3.5208096 10.309012,5.7938858 Z m 3.467798,-2.2730766 q 0,0.2094636 -0.139651,0.349107 L 4.490555,14.676726 q -0.1396428,0.139652 -0.3491068,0.139652 -0.2094653,0 -0.349108,-0.139652 L 2.2562679,13.140654 q -0.1396431,-0.13965 -0.1396431,-0.349104 0,-0.209464 0.1396431,-0.349109 L 12.232984,2.4657293 q 0.13965,-0.139643 0.349107,-0.139643 0.209465,0 0.349107,0.139643 l 1.536074,1.5360711 q 0.139651,0.1396447 0.139651,0.3491088 z M 4.1259341,2.8769001 4.8862119,3.1096382 4.1259341,3.3423775 3.893196,4.1026538 3.6604577,3.3423775 2.9001803,3.1096382 3.6604577,2.8769001 3.893196,2.1166217 Z m 2.715279,1.256787 1.520556,0.4654758 L 6.8412131,5.0646397 6.3757373,6.5851963 5.910261,5.0646397 4.389704,4.5991629 5.910261,4.1336871 6.3757373,2.6131302 Z M 14.056099,7.8419823 14.816376,8.0747207 14.056099,8.3074596 13.82336,9.0677369 13.590621,8.3074596 12.830347,8.0747207 13.590621,7.8419823 13.82336,7.0817045 Z M 9.0910172,2.8769001 9.851294,3.1096382 9.0910172,3.3423775 8.8582779,4.1026538 8.6255393,3.3423775 7.8652618,3.1096382 8.6255393,2.8769001 8.8582779,2.1166217 Z"
     id="path1-3-3"
     style="overflow:hidden;fill:currentColor;fill-opacity:1;stroke-width:0.0135764"
     class="ColorScheme-Text" />
</svg>
