<?xml version="1.0" encoding="UTF-8" standalone="no"?>
<svg
   width="64"
   height="64"
   version="1.1"
   viewBox="0 0 16.933 16.933"
   id="svg7"
   sodipodi:docname="preferences-scroll.svg"
   inkscape:version="1.4.2 (ebf0e940d0, 2025-05-08)"
   xmlns:inkscape="http://www.inkscape.org/namespaces/inkscape"
   xmlns:sodipodi="http://sodipodi.sourceforge.net/DTD/sodipodi-0.dtd"
   xmlns="http://www.w3.org/2000/svg"
   xmlns:svg="http://www.w3.org/2000/svg"
   xmlns:rdf="http://www.w3.org/1999/02/22-rdf-syntax-ns#"
   xmlns:cc="http://creativecommons.org/ns#"
   xmlns:dc="http://purl.org/dc/elements/1.1/">
  <sodipodi:namedview
     id="namedview7"
     pagecolor="#9c4444"
     bordercolor="#000000"
     borderopacity="0.25"
     inkscape:showpageshadow="2"
     inkscape:pageopacity="0.0"
     inkscape:pagecheckerboard="0"
     inkscape:deskcolor="#d1d1d1"
     inkscape:zoom="6.15625"
     inkscape:cx="15.756345"
     inkscape:cy="29.64467"
     inkscape:window-width="1226"
     inkscape:window-height="669"
     inkscape:window-x="0"
     inkscape:window-y="0"
     inkscape:window-maximized="0"
     inkscape:current-layer="svg7"
     showgrid="false" />
  <defs
     id="defs2">
    <style
       id="current-color-scheme"
       type="text/css">.ColorScheme-Text {color:#d8dee9} .ColorScheme-Highlight {color:#3b4252}</style>
  </defs>
  <metadata
     id="metadata2">
    <rdf:RDF>
      <cc:Work
         rdf:about="">
        <dc:format>image/svg+xml</dc:format>
        <dc:type
           rdf:resource="http://purl.org/dc/dcmitype/StillImage" />
      </cc:Work>
    </rdf:RDF>
  </metadata>
  <path
     id="path214"
     style="fill:currentColor;stroke-width:1.41679"
     class="ColorScheme-Text"
     d="m 13.399436,2.7993605 -1.416941,2.8338798 h 2.83388 z M 4.1294858,4.6026259 c -1.114982,0 -2.0128608,0.8972578 -2.0128608,2.0122406 v 4.0257215 c 0,1.114983 0.8978788,2.01224 2.0128608,2.01224 h 5.3663885 c 1.1149817,0 2.0128607,-0.897257 2.0128607,-2.01224 V 6.6148665 c 0,-1.1149828 -0.897879,-2.0122406 -2.0128607,-2.0122406 z m 0,1.3419071 h 5.3663885 c 0.3716607,0 0.6709537,0.2986722 0.6709537,0.6703335 v 4.0257215 c 0,0.371661 -0.299293,0.670333 -0.6709537,0.670333 H 4.1294858 c -0.3716608,0 -0.6709536,-0.298672 -0.6709536,-0.670333 V 6.6148665 c 0,-0.3716613 0.2992928,-0.6703335 0.6709536,-0.6703335 z M 13.399436,7.75834 c -0.392467,0 -0.708161,0.315707 -0.708161,0.70816 0,0.3966931 0.315706,0.7081599 0.708161,0.7081599 0.39246,0 0.708779,-0.3157027 0.708779,-0.7081599 0,-0.3924558 -0.316325,-0.70816 -0.708779,-0.70816 z m -1.416941,3.54204 1.416941,2.83326 1.416939,-2.83326 z" />
</svg>
