<?xml version="1.0" encoding="UTF-8" standalone="no"?>
<svg
   width="64"
   height="64"
   version="1.1"
   viewBox="0 0 16.933 16.933"
   id="svg7"
   sodipodi:docname="preferences-devices-scanner.svg"
   inkscape:version="1.4.2 (ebf0e940d0, 2025-05-08)"
   xmlns:inkscape="http://www.inkscape.org/namespaces/inkscape"
   xmlns:sodipodi="http://sodipodi.sourceforge.net/DTD/sodipodi-0.dtd"
   xmlns="http://www.w3.org/2000/svg"
   xmlns:svg="http://www.w3.org/2000/svg"
   xmlns:rdf="http://www.w3.org/1999/02/22-rdf-syntax-ns#"
   xmlns:cc="http://creativecommons.org/ns#"
   xmlns:dc="http://purl.org/dc/elements/1.1/">
  <sodipodi:namedview
     id="namedview7"
     pagecolor="#9c4444"
     bordercolor="#000000"
     borderopacity="0.25"
     inkscape:showpageshadow="2"
     inkscape:pageopacity="0.0"
     inkscape:pagecheckerboard="0"
     inkscape:deskcolor="#d1d1d1"
     inkscape:zoom="6.15625"
     inkscape:cx="15.756345"
     inkscape:cy="29.64467"
     inkscape:window-width="1226"
     inkscape:window-height="669"
     inkscape:window-x="0"
     inkscape:window-y="0"
     inkscape:window-maximized="0"
     inkscape:current-layer="svg7"
     showgrid="false" />
  <defs
     id="defs2">
    <style
       id="current-color-scheme"
       type="text/css">.ColorScheme-Text {color:#d8dee9} .ColorScheme-Highlight {color:#3b4252}</style>
  </defs>
  <metadata
     id="metadata2">
    <rdf:RDF>
      <cc:Work
         rdf:about="">
        <dc:format>image/svg+xml</dc:format>
        <dc:type
           rdf:resource="http://purl.org/dc/dcmitype/StillImage" />
      </cc:Work>
    </rdf:RDF>
  </metadata>
  <path
     style="fill:currentColor;fill-opacity:1;stroke:none;stroke-width:0.4109;stroke-dasharray:none;stroke-opacity:0.3"
     d="M 4.0286678,14.780454 C 3.3493297,14.701335 2.7795539,14.204893 2.5836987,13.521465 2.5421971,13.376656 2.5372674,13.120754 2.5291155,10.689193 l -0.00896,-2.6730782 h 5.9457024 5.9457001 l -0.0085,2.6730782 c -0.01,2.981331 0.0023,2.785046 -0.198963,3.190448 -0.136533,0.275079 -0.448187,0.586744 -0.723265,0.723269 -0.268668,0.133355 -0.45485,0.176111 -0.854753,0.196351 l -0.337847,0.01711 -0.0072,-1.403601 -0.0072,-1.403608 -0.06126,-0.12458 C 12.1342,11.725572 11.973734,11.5651 11.814745,11.486786 l -0.124584,-0.06136 -3.1826452,-0.007 C 4.8505426,11.410552 5.1682057,11.389108 4.8958794,11.661903 4.6367816,11.921436 4.645915,11.856224 4.645915,13.446615 v 1.361664 l -0.2188873,-0.0036 c -0.1203908,-0.0022 -0.2993624,-0.01301 -0.3977228,-0.02431 z m 7.2298482,-4.708887 c 0.12859,-0.087372 0.178926,-0.1895064 0.178805,-0.3627315 -1.83e-4,-0.2607227 -0.16051,-0.4189961 -0.42441,-0.4189961 -0.263907,0 -0.424224,0.1582722 -0.424408,0.4189961 -1.77e-4,0.2671443 0.160441,0.4298225 0.424408,0.4298225 0.113388,0 0.169381,-0.01532 0.245607,-0.06709 z m 1.684828,0.01417 c 0.129476,-0.07894 0.191914,-0.1998502 0.191914,-0.3715895 0,-0.2662948 -0.158014,-0.4243121 -0.42431,-0.4243121 -0.266294,0 -0.424308,0.1580184 -0.424308,0.4243121 0,0.2662917 0.158016,0.4243085 0.424308,0.4243085 0.09893,0 0.173783,-0.01702 0.2324,-0.05272 z m -7.8735579,4.085756 v -0.636765 h 3.3960702 3.3960717 v 0.636765 0.636764 H 8.4658563 5.0697861 Z M 2.5297809,6.8288134 C 2.5451472,5.9793796 2.5591243,5.8890724 2.7280793,5.5486533 2.8645274,5.2737273 3.1762105,4.9619872 3.4513464,4.8252584 3.7773097,4.6632669 3.9255877,4.6363084 4.4993528,4.6347125 c 0.4664848,-0.00143 0.5120237,0.00289 0.6102305,0.055565 0.232512,0.1248099 0.3401263,0.2890389 0.3712367,0.5665297 0.024127,0.2151842 0.071893,0.3332996 0.1806428,0.4466712 0.1843243,0.1921569 -0.1667167,0.1753272 3.971793,0.1904022 l 3.7277152,0.013577 0.157069,0.059513 c 0.223005,0.084491 0.360945,0.1710352 0.50517,0.316955 0.256438,0.259445 0.350969,0.5055001 0.376305,0.9795066 l 0.01748,0.328171 H 8.4665375 2.5160011 Z M 6.2287964,5.4299867 C 6.0412596,5.3642757 5.9453343,5.2311254 5.9453343,5.0365253 c 0,-0.1364894 0.078563,-0.2706366 0.1990799,-0.3399425 C 6.1881422,4.6714418 7.1850331,4.3143251 8.3597298,3.9030044 9.5344245,3.4916816 11.175655,2.9170131 12.006906,2.6259618 13.658677,2.0476176 13.629998,2.0544587 13.800624,2.1980295 14.012096,2.3759723 14.013158,2.6897339 13.802824,2.839524 13.760724,2.86942 13.24419,3.062611 12.654835,3.26883 12.065472,3.4750499 11.129578,3.8025293 10.57506,3.9965631 7.161344,5.1910767 6.4558102,5.4365075 6.3963113,5.4501999 c -0.036486,0.0084 -0.111894,-8.49e-4 -0.1675797,-0.020216 z"
     id="path1-3"
     class="ColorScheme-Text" />
</svg>
