<?xml version="1.0" encoding="UTF-8" standalone="no"?>
<svg
   width="64"
   height="64"
   version="1.1"
   viewBox="0 0 16.933 16.933"
   id="svg7"
   sodipodi:docname="preferences-system-network-iscsi.svg"
   inkscape:version="1.4.2 (ebf0e940d0, 2025-05-08)"
   xmlns:inkscape="http://www.inkscape.org/namespaces/inkscape"
   xmlns:sodipodi="http://sodipodi.sourceforge.net/DTD/sodipodi-0.dtd"
   xmlns="http://www.w3.org/2000/svg"
   xmlns:svg="http://www.w3.org/2000/svg"
   xmlns:rdf="http://www.w3.org/1999/02/22-rdf-syntax-ns#"
   xmlns:cc="http://creativecommons.org/ns#"
   xmlns:dc="http://purl.org/dc/elements/1.1/">
  <sodipodi:namedview
     id="namedview7"
     pagecolor="#9c4444"
     bordercolor="#000000"
     borderopacity="0.25"
     inkscape:showpageshadow="2"
     inkscape:pageopacity="0.0"
     inkscape:pagecheckerboard="0"
     inkscape:deskcolor="#d1d1d1"
     inkscape:zoom="4.3531261"
     inkscape:cx="36.410615"
     inkscape:cy="40.200995"
     inkscape:window-width="1543"
     inkscape:window-height="1372"
     inkscape:window-x="0"
     inkscape:window-y="0"
     inkscape:window-maximized="0"
     inkscape:current-layer="svg7"
     showgrid="false" />
  <defs
     id="defs2">
    <style
       id="current-color-scheme"
       type="text/css">.ColorScheme-Text {color:#d8dee9} .ColorScheme-Highlight {color:#3b4252}</style>
  </defs>
  <metadata
     id="metadata2">
    <rdf:RDF>
      <cc:Work
         rdf:about="">
        <dc:format>image/svg+xml</dc:format>
        <dc:type
           rdf:resource="http://purl.org/dc/dcmitype/StillImage" />
      </cc:Work>
    </rdf:RDF>
  </metadata>
  <path
     id="path8"
     class="ColorScheme-Text"
     style="fill:currentColor;fill-opacity:1;stroke-width:0.453562"
     d="M 3.0237502,2.1166253 V 14.816374 h 1.3606887 v -1.360686 h 8.1641241 v 1.360686 H 13.90925 V 2.1166253 Z m 3.1749376,0.9071251 h 4.5356262 a 2.2678124,2.2678124 0 0 1 2.267812,2.2678123 v 2.1632808 a 1.3606874,1.3606874 0 0 0 -0.449133,0.9186407 0.90712499,0.90712499 0 0 0 -0.0044,0.093016 0.90712499,0.90712499 0 0 0 0.0017,0.052268 1.3606874,1.3606874 0 0 0 0.451793,0.9602781 v 1.7088297 l -1.360667,1.360688 H 5.2915681 L 3.9308811,11.187877 V 9.4781603 a 1.3606874,1.3606874 0 0 0 0.449132,-0.9186416 1.3606874,1.3606874 0 0 0 0,-0.00265 0.90712499,0.90712499 0 0 0 0.00445,-0.09034 0.90712499,0.90712499 0 0 0 -0.00172,-0.052268 A 1.3606874,1.3606874 0 0 0 3.9308768,7.4539782 V 5.2915627 a 2.2678124,2.2678124 0 0 1 2.267811,-2.2678123 z m 2.2695843,0.9071249 c -0.1446855,0 -0.284609,0.011568 -0.4252154,0.028348 a 3.7101412,3.7101412 0 0 0 -0.4110404,0.070868 c -0.042631,0.00997 -0.083585,0.030276 -0.1266857,0.042522 -0.038557,0.01044 -0.076199,0.017441 -0.1134,0.029234 -0.048066,0.014965 -0.097715,0.026647 -0.1426289,0.042522 -0.048528,0.017236 -0.093668,0.037645 -0.141737,0.056695 -0.093428,0.037645 -0.1799501,0.082229 -0.2693026,0.1266788 -0.032198,0.016783 -0.06835,0.026172 -0.1000968,0.043408 -0.1043136,0.054427 -0.1992502,0.1194 -0.296765,0.1842596 -0.037196,0.024946 -0.077106,0.04413 -0.1133832,0.069984 -0.014918,0.010884 -0.027551,0.017005 -0.042511,0.028348 -0.042631,0.032203 -0.086743,0.064724 -0.1275596,0.1001028 -0.048528,0.039913 -0.095023,0.084043 -0.141737,0.126679 -0.014575,0.013612 -0.028013,0.028915 -0.042511,0.042522 l -0.014233,0.014177 c -0.00685,0.0068 -0.00822,0.020796 -0.014225,0.028348 C 5.8499945,5.0580985 5.745672,5.146543 5.6617629,5.249048 v 8.815e-4 h -8.558e-4 v 8.815e-4 8.817e-4 c -1.096e-4,0.00289 0.00163,0.00744 0.00172,0.00973 H 5.661892 v 8.815e-4 8.815e-4 C 5.579796,5.3629697 5.5063205,5.4670407 5.435111,5.5758962 5.425511,5.5904112 5.41629,5.6029932 5.406756,5.6184162 5.399906,5.6293002 5.384777,5.6349772 5.377528,5.6467622 5.350319,5.6912162 5.331602,5.7417842 5.306662,5.788501 5.298442,5.80347 5.28648,5.816052 5.278307,5.831021 5.244294,5.897239 5.21083,5.9623266 5.179084,6.0294545 l -8.559e-4,9.415e-4 v 9.414e-4 9.416e-4 9.414e-4 c 2.268e-4,0.00248 8.559e-4,0.00574 8.559e-4,0.00796 v 9.414e-4 9.415e-4 9.414e-4 A 3.6402925,3.6402925 0 0 0 5.037346,6.3974682 c -0.00858,0.024496 -0.020182,0.047716 -0.028355,0.071756 l -8.558e-4,9.414e-4 v 9.415e-4 c -2.91e-4,0.0029 7.805e-4,0.00702 8.558e-4,0.00976 V 6.4818085 6.48275 C 4.999911,6.511328 4.988364,6.540102 4.979763,6.568678 4.946657,6.68479 4.916488,6.8010368 4.894714,6.9221379 4.879283,7.0092209 4.861266,7.1020888 4.852203,7.1914405 A 3.6756704,3.6756704 0 0 0 4.837978,7.5606126 c 0,0.1827857 0.016288,0.3621914 0.042511,0.5377193 0.00274,0.018599 -0.00325,0.038549 0,0.056693 0.01995,0.1206482 0.053296,0.2386879 0.085049,0.3543456 0.011832,0.043992 0.029792,0.084475 0.04341,0.1275655 0.018136,0.058507 0.035827,0.112506 0.056693,0.1692003 A 3.5831436,3.5831436 0 0 0 5.179024,9.089612 c 0.02268,0.048083 0.045498,0.095915 0.069977,0.1426289 a 3.6285,3.6285 0 0 0 0.2267811,0.3826939 c 0.00719,0.0108 0.021517,0.017468 0.029228,0.028355 0.089812,0.1269939 0.178704,0.2542216 0.2834757,0.3685202 0.018136,0.01996 0.038095,0.0372 0.056693,0.05669 0.018136,0.01904 0.038095,0.03811 0.056693,0.05669 0.097063,0.09706 0.2038761,0.18358 0.3118233,0.269304 0.1387885,0.110676 0.285178,0.207865 0.4393887,0.296764 0.00547,0.0044 0.00822,0.01092 0.013369,0.01423 0.024496,0.01354 0.047706,0.02936 0.071756,0.04252 0.1428685,0.07076 0.3136385,0.148063 0.4252146,0.19932 0.049889,0.01904 0.1046568,0.02573 0.1559146,0.04252 0.024034,0.0083 0.046834,0.02064 0.070866,0.02836 0.061682,0.0186 0.1207886,0.04081 0.1833762,0.05669 l 0.056693,0.01422 c 0.1324457,0.03175 0.2731574,0.055 0.4110405,0.07087 0.1406064,0.01628 0.2809595,0.02836 0.4260995,0.02836 0.1542175,0 0.3038885,-0.0092 0.4535646,-0.02836 0.1655484,-0.02178 0.3084221,-0.0569 0.4535621,-0.08592 A 3.5872259,3.5872259 0 0 0 11.287119,9.8276509 c 0.01268,-0.015944 0.03028,-0.026198 0.04252,-0.042511 0.0044,-0.00547 0.01008,-0.00875 0.01422,-0.013369 0.0064,-0.00858 0.0083,-0.020627 0.01422,-0.029228 a 3.6121716,3.6121716 0 0 0 0.60948,-1.2747565 c 0.0254,-0.098422 0.05364,-0.1960525 0.07087,-0.2976499 0.0022,-0.013608 -0.0023,-0.028458 0,-0.04252 0.0028,-0.018145 0.01152,-0.035836 0.01422,-0.056693 0.0028,-0.019505 0.01188,-0.037188 0.01422,-0.056693 h -0.01422 c 0.0195,-0.1492217 0.04252,-0.2988979 0.04252,-0.4535629 0,-0.2499128 -0.02279,-0.5007327 -0.07086,-0.7370387 -0.0041,-0.019505 -0.0096,-0.037188 -0.01337,-0.056693 -0.02131,-0.093888 -0.0569,-0.1909713 -0.08593,-0.2825909 v -9.414e-4 -9.415e-4 c -3.5e-4,-0.0035 3.52e-4,-0.00822 0,-0.01152 v -9.415e-4 a 1.5598014,1.5598014 0 0 0 -0.01337,-0.04252 c -0.01813,-0.054425 -0.03763,-0.117018 -0.05759,-0.1700862 -0.0055,-0.014524 -0.0079,-0.029802 -0.01337,-0.04341 -0.01994,-0.049889 -0.04999,-0.093208 -0.07176,-0.1417389 -2.35e-4,-0.00197 0.0011,-0.010044 9.41e-4,-0.013283 h -9.41e-4 v -9.414e-4 c -0.01128,-0.024496 -0.03072,-0.046834 -0.04252,-0.070866 a 3.5436839,3.5436839 0 0 0 -0.14174,-0.26922 c -0.0263,-0.044446 -0.04276,-0.097309 -0.07087,-0.1408521 -0.0108,-0.016321 -0.03118,-0.027079 -0.04252,-0.04341 -0.0304,-0.045361 -0.06656,-0.083136 -0.09923,-0.126679 -0.03629,-0.045358 -0.0634,-0.098628 -0.09923,-0.1426235 l -9.42e-4,-8.815e-4 v -8.817e-4 -8.815e-4 -8.815e-4 c 1.41e-4,-0.00264 7.25e-4,-0.0058 9.42e-4,-0.00797 V 5.2519945 5.251113 5.2502314 C 11.194779,5.154733 11.104316,5.067308 11.016781,4.9806776 10.974589,4.93895 10.933645,4.8930056 10.890096,4.8539988 c -0.0132,-0.011796 -0.03025,-0.017893 -0.0434,-0.029233 A 3.6879167,3.6879167 0 0 0 10.549928,4.5979843 c -0.02494,-0.016783 -0.04547,-0.039026 -0.07087,-0.055811 -0.03175,-0.020864 -0.06702,-0.036738 -0.09923,-0.056695 -0.06077,-0.0381 -0.120755,-0.078922 -0.18426,-0.1133916 A 3.6706812,3.6706812 0 0 0 10.02548,4.2861584 3.5831436,3.5831436 0 0 0 9.7278315,4.1594795 3.4692995,3.4692995 0 0 0 9.3593117,4.0460881 3.5182843,3.5182843 0 0 0 8.4663584,3.9326881 Z m -0.00172,0.4553341 a 3.1853693,3.1853693 0 0 1 0.6378224,0.070868 h 0.013369 c 0.075737,0.015875 0.1537544,0.035832 0.226781,0.056695 0.043992,0.01224 0.085817,0.02846 0.1284512,0.042522 0.078022,0.025853 0.1514915,0.05284 0.2267811,0.085042 0.087994,0.036284 0.1716734,0.068941 0.2551297,0.1133916 l -0.042528,0.014178 a 0.14468644,0.14468644 0 0 0 -0.056693,0.056695 c -0.00908,0.021772 0.00222,0.051932 0,0.085042 5.453e-4,2.41e-4 0.00205,0.00148 0.00274,0.00176 0.015432,0.010044 0.026395,0.04004 0.054031,0.054924 0.0036,0.00198 0.0077,0.00216 0.010632,0.00176 0.00565,-0.00124 0.011148,-0.00461 0.017708,-0.00176 0.017228,0.00953 0.031522,0.03946 0.028355,0.056695 -0.00111,0.00545 -0.00445,0.01 -0.00804,0.012395 -0.012684,0.00718 -0.036134,0.002 -0.048716,0.015942 0.00274,0.035377 -0.019283,0.047738 -0.028355,0.07087 1.694e-4,4.672e-4 6.804e-4,0.00222 9.414e-4,0.00265 l 9.415e-4,8.815e-4 9.414e-4,8.817e-4 c 0.00617,0.0078 0.018564,0.010068 0.023914,0.018604 l 9.415e-4,8.815e-4 c 5.445e-4,0.00131 6.359e-4,0.00277 9.414e-4,0.00443 -0.00222,0.014023 -0.020524,0.020642 -0.027464,0.03012 -2.575e-4,4.287e-4 -0.00154,0.00221 -0.00172,0.00265 -3.208e-4,9.414e-4 8.57e-5,0.0034 0,0.00443 6.33e-5,0.00163 1.626e-4,0.0034 9.414e-4,0.00532 0.03266,0.025399 0.067922,-0.0092 0.099223,-0.013285 0.067581,-0.00907 0.1283659,0.018029 0.1700909,-0.014178 -0.0055,-0.032203 0.04524,-0.04184 0.04251,-0.070868 -3.39e-4,-0.00272 -0.0022,-0.00658 -0.0036,-0.00887 -0.01046,-0.014692 -0.03975,-0.021034 -0.05316,-0.033664 -0.0091,-0.00816 -0.01791,-0.026647 -0.02835,-0.042522 -0.01183,-0.018142 -0.02892,-0.03946 -0.04251,-0.056695 -0.01814,-0.023586 -0.05669,-0.05318 -0.05669,-0.070868 0,-0.02041 0.02337,-0.028573 0.02836,-0.056695 C 10.034773,4.8005787 9.9872,4.8257748 9.98358,4.7971987 a 0.07347713,0.07347713 0 0 1 0.013369,-0.028348 c 0.068043,0.037192 0.135823,0.081302 0.199318,0.1275651 l 0.04251,0.028348 c 0.04898,0.036739 0.09454,0.077105 0.142629,0.1133916 -0.0304,0.00544 -0.04592,0.040934 -0.07087,0.070868 a 0.210453,0.210453 0 0 1 -0.07087,0.056695 L 10.238725,5.1666 c -0.01097,0.00367 -0.02697,-0.00508 -0.0381,-0.00265 -4.03e-4,1.203e-4 -0.0022,7.303e-4 -0.0027,8.815e-4 l -9.41e-4,8.815e-4 c -0.0168,0.011328 -0.02302,0.043542 -0.04251,0.056695 -0.01354,0.0088 -0.05518,0.040544 -0.07087,0.042522 -0.0156,0 -0.04059,-0.014417 -0.05403,-0.014177 -4.39e-4,4.56e-5 -0.0022,-8.53e-5 -0.0027,0 -0.0011,3.685e-4 -0.0034,0.00212 -0.0045,0.00265 -4.17e-4,3.075e-4 -0.0022,0.00143 -0.0027,0.00176 -3.33e-4,3.762e-4 -0.0015,0.00224 -0.0017,0.00265 -0.0053,0.00868 -0.0055,0.023587 -0.01337,0.031891 -4.38e-4,3.858e-4 -0.0022,0.00229 -0.0027,0.00265 -0.0011,6.396e-4 -0.00222,0.0013 -0.0036,0.00176 -0.03991,0.013612 -0.113502,-0.031976 -0.1275604,0.028348 0.017228,0.034471 0.069275,0.022565 0.099223,0.042522 a 0.21544219,0.21544219 0 0 1 0.056693,0.085043 0.29209424,0.29209424 0 0 1 0,0.099216 c -0.0186,0.048074 -0.07269,0.04388 -0.12756,0.04252 -0.015432,-4.528e-4 -0.028458,0 -0.042511,0 C 9.762696,5.585423 9.6719866,5.553865 9.6298064,5.621 c 0.00325,0.05125 0.011316,0.082686 0,0.1266788 -0.00822,0.03266 -0.043889,0.056471 -0.042511,0.085039 9.414e-4,0.014524 0.024718,0.037188 0.028355,0.056693 0.00205,0.00977 -0.00428,0.031256 -9.414e-4,0.041638 l 9.414e-4,9.415e-4 c 0.015432,0.029939 0.057378,-0.00454 0.085049,0 0.026764,0.00454 0.057156,0.055537 0.056693,0.085928 a 0.15693263,0.15693263 0 0 1 -0.028355,0.070866 c -0.02631,0.040817 -0.075737,0.034928 -0.1133832,0.056693 -0.031753,0.01769 -0.038095,0.053749 -0.056693,0.085039 -0.01995,0.033568 -0.036511,0.049777 -0.028355,0.099218 A 0.21997781,0.21997781 0 0 1 9.4171133,6.4431381 c -0.016801,0.0077 -0.041724,0.01746 -0.056693,0.028346 a 0.28574437,0.28574437 0 0 0 -0.042511,0.04252 c -0.021311,0.023587 -0.045361,0.038549 -0.056693,0.056693 -0.00908,0.013608 -0.00462,0.038104 -0.014225,0.056693 -0.01354,0.025403 -0.03991,0.045473 -0.056693,0.070866 -0.0077,0.011796 -0.020156,0.026644 -0.029228,0.04252 -0.019043,0.034928 -0.045703,0.068376 -0.042511,0.099218 0.00325,0.029939 0.040252,0.030846 0.042511,0.056693 0.00188,0.014515 -0.014225,0.027097 -0.013369,0.04252 0,0.023135 0.012,0.039002 0.013369,0.056693 0.00445,0.045353 -0.019728,0.054203 -0.028355,0.085039 -0.00445,0.014515 0.0036,0.030726 0,0.04252 -0.00719,0.022681 -0.042066,0.044566 -0.042511,0.070866 -4.527e-4,0.019051 0.02654,0.044112 0.028355,0.070866 9.414e-4,0.018144 -0.017348,0.025745 -0.014225,0.04252 0.00634,0.033106 0.074248,0.073366 0.1000968,0.099216 0.034013,0.034021 0.070079,0.063822 0.085048,0.1001016 0.01217,0.030392 0.018034,0.076087 0.042511,0.099216 0.01769,0.016783 0.048186,0.024376 0.070866,0.04252 0.021311,0.016321 0.048648,0.024829 0.070866,0.04252 0.036289,0.029032 0.082763,0.089125 0.1417371,0.085039 0.030838,-0.00454 0.064285,-0.02245 0.099223,-0.028346 0.035827,-0.00634 0.077106,-0.018256 0.1133832,-0.014173 0.027226,0.00454 0.056026,0.029707 0.085049,0.028346 0.030392,0 0.064747,-0.027551 0.099222,-0.04252 0.05942,-0.025856 0.153876,-0.069395 0.240956,-0.056693 0.06622,0.00907 0.06804,0.098989 0.113383,0.1275654 0.05352,0.00454 0.09956,-0.024606 0.141737,-0.014173 0.03175,0.0077 0.06815,0.060528 0.07086,0.085928 0.0032,0.02631 -0.02428,0.053654 -0.02836,0.069985 -0.0083,0.035382 -0.0083,0.076994 -0.01422,0.099216 -0.0055,0.017237 -0.01458,0.039011 -0.01422,0.056693 a 0.24492374,0.24492374 0 0 0 0.04252,0.085039 c 0.01994,0.025403 0.04684,0.043658 0.07087,0.070866 a 0.81641249,0.81641249 0 0 1 0.100092,0.1700863 c 0.0072,0.016783 -0.0077,0.03492 0,0.056693 -0.01354,0.1015993 -0.04717,0.1709936 -0.113388,0.2834768 -0.03174,0.036281 -0.07267,0.068034 -0.07176,0.1133916 -0.0023,0.1088568 0.06168,0.1782495 0.05669,0.2834759 -0.0108,0.1415145 0.01092,0.1510283 0,0.226781 0.04762,0.024032 0.01405,0.1055664 0,0.1559146 -0.02042,0.059859 -0.04536,0.073477 -0.05669,0.1133831 0.03222,0.01354 0.07756,0.00858 0.113388,0 0,0 0.04342,0.1815399 0.04252,0.1842606 a 3.1762981,3.1762981 0 0 1 -1.3314514,0.778677 c -0.2494599,0.06032 -0.3237087,0.0601 -0.4402753,0.08504 a 2.8950893,2.8950893 0 0 1 -0.4668496,0.04342 c -0.1102104,0 -0.2198432,-0.0046 -0.3268849,-0.01422 -0.082541,-0.0082 -0.1602342,-0.02801 -0.2400684,-0.04252 a 3.2520431,3.2520431 0 0 1 -0.070866,-0.01422 c -0.073939,-0.02495 -0.1587428,-0.03992 -0.2267814,-0.0567 a 3.2053261,3.2053261 0 0 1 -0.226781,-0.07087 c 0.00325,-0.0029 0.00719,-0.0046 0.00978,-0.0061 l 9.414e-4,-9.42e-4 v -9.36e-4 l 9.356e-4,-9.41e-4 9.414e-4,-9.42e-4 c 2.003e-4,-3.7e-4 7.249e-4,-0.0022 9.415e-4,-0.0028 1.438e-4,-4.99e-4 7.712e-4,-0.0012 9.414e-4,-0.0017 0.00445,-0.01813 9.416e-4,-0.02812 0,-0.05669 0.00685,-0.02948 0.036169,-0.02632 0.042511,-0.05669 -0.012684,-0.02177 -0.03765,-0.01697 -0.056693,-0.02836 a 0.06032381,0.06032381 0 0 1 -0.029228,-0.05669 c 0.031753,-0.0132 0.090719,0.02983 0.1133832,-0.01422 0.011316,-0.02087 -0.015432,-0.06328 0,-0.08505 3.27e-4,-4.27e-4 0.00222,-0.0022 0.00274,-0.0027 0.015944,-0.01251 0.076181,-0.02318 0.09744,-0.02657 0.031753,-0.0055 0.066895,-0.0043 0.085049,-0.01337 a 0.10114444,0.10114444 0 0 0 0.042511,-0.08594 c -0.00188,-0.01769 -0.014747,-0.02664 -0.028355,-0.04251 -0.011316,-0.0132 -0.0065,-0.02983 -0.014225,-0.04251 -0.014575,-0.021311 -0.035724,-0.026301 -0.042511,-0.056693 0.043547,-0.00857 0.10704,0.046028 0.1700914,0.028355 0.02993,-0.00857 0.070986,-0.085271 0.085049,-0.1134 v -9.415e-4 l 9.415e-4,-9.414e-4 v -9.415e-4 c 0.00137,-0.0077 -0.00479,-0.01663 -9.415e-4,-0.025702 0.00479,-0.010284 0.022304,-0.020155 0.027466,-0.026575 L 7.887403,9.816705 v -9.415e-4 c 0.00445,-0.016288 -0.0036,-0.031625 0,-0.042511 0.010968,-0.030838 0.038557,-0.034013 0.056693,-0.056693 0.01354,-0.017228 0.029365,-0.039464 0.042511,-0.056693 0.014053,-0.018136 0.019711,-0.040372 0.029228,-0.056693 0.00908,-0.05487 -0.027791,-0.093205 -0.014233,-0.1417371 0.014053,-0.054425 0.08868,-0.075155 0.1417371,-0.1000968 0.018136,-0.00822 0.041724,-0.022903 0.056693,-0.028355 0.036289,-0.012684 0.079819,-0.016116 0.1133832,-0.028355 0.056693,-0.020867 0.071089,-0.075856 0.099223,-0.1275595 a 0.27712668,0.27712668 0 0 0 0.028355,-0.070866 c 0.00222,-0.015944 -0.00325,-0.02393 0,-0.042511 0.00274,-0.018136 0.00926,-0.036734 0.014225,-0.056693 a 0.49891874,0.49891874 0 0 0 0.014225,-0.099223 c 0,-0.024034 -0.013198,-0.035382 -0.014225,-0.056693 -0.0041,-0.078467 0.027671,-0.098651 0.056693,-0.1417387 0.014575,-0.02132 0.017914,-0.040817 0.028355,-0.056693 C 8.5892557,8.5800057 8.6746311,8.5501833 8.6678252,8.439968 8.6659412,8.4036788 8.6520512,8.3237432 8.625314,8.3124034 8.6098832,8.3055513 8.5766576,8.3082154 8.554448,8.2991206 8.482796,8.2718986 8.430404,8.1765402 8.3560156,8.1715495 c -0.015944,0 -0.024838,0.013283 -0.042511,0.013283 -0.029485,0 -0.066562,-0.02381 -0.099222,-0.028346 -0.020207,-0.00437 -0.057515,0.0047 -0.070866,0 -0.0012,-5.443e-4 -0.00342,-0.00188 -0.00445,-0.00265 -0.012,-0.011268 -0.011652,-0.039216 -0.02126,-0.051378 -8.166e-4,-8.558e-4 -0.00172,-0.00197 -0.00274,-0.00265 -0.01217,-0.00814 -0.038095,-0.00694 -0.056693,-0.014173 -0.02993,-0.011328 -0.051463,-0.025171 -0.085938,-0.028346 -0.010464,-4.536e-4 -0.030272,0 -0.042511,0 -0.019043,-0.00454 -0.039002,-0.017914 -0.056693,-0.028346 a 0.094341,0.094341 0 0 1 -0.042511,-0.04252 c 0.01996,-0.065311 -0.043538,-0.075745 -0.056693,-0.1133916 -0.00634,-0.01769 0.00582,-0.040817 0,-0.056693 -0.0077,-0.022681 -0.031753,-0.038104 -0.056693,-0.056693 -0.043992,-0.033568 -0.078689,-0.063155 -0.141737,-0.070866 -0.027209,-0.00454 -0.065654,0 -0.099222,0 a 0.16645744,0.16645744 0 0 1 -0.099223,-0.056693 c -0.025403,-0.029477 -0.034475,-0.056804 -0.056693,-0.070866 -0.021311,-0.013608 -0.056351,-0.013386 -0.070866,-0.028346 -0.00634,-0.00634 -0.00822,-0.013386 -0.014225,-0.028346 -0.010968,-0.021774 -0.027791,-0.044566 -0.014233,-0.070866 -0.00292,-0.00154 -0.00582,-0.00274 -0.00804,-0.00265 h -9.502e-4 l -9.414e-4,9.415e-4 h -9.415e-4 -9.414e-4 v 9.414e-4 c -4.117e-4,2.397e-4 -0.00222,0.00145 -0.00274,0.0018 L 7.2055455,7.43563 c -0.00394,0.00488 -0.00719,0.01431 -0.011484,0.02037 -3.877e-4,4.536e-4 -0.00222,0.00222 -0.00274,0.00265 -9.414e-4,7.711e-4 -0.00342,0.00214 -0.00445,0.00265 -0.0024,8.164e-4 -0.00547,0.00137 -0.00892,9.415e-4 -0.023588,-0.033568 -0.045241,-0.052046 -0.099223,-0.04252 -0.024496,0.00454 -0.042289,0.026986 -0.070866,0.028346 -0.023588,0 -0.04003,-0.02381 -0.070866,-0.028346 -0.023588,-0.00454 -0.054545,0.016441 -0.070866,0.014173 -0.025856,-0.00454 -0.033106,-0.026644 -0.056693,-0.04252 -0.015089,-0.00992 -0.0408,-0.036598 -0.053159,-0.04252 -4.082e-4,-1.601e-4 -0.00222,-7.713e-4 -0.00274,-9.415e-4 H 6.752597 c -0.030392,0 -0.057036,0.065628 -0.099223,0.04341 -0.00292,-0.0036 -0.00428,-0.00858 -0.00445,-0.01152 v -5.692e-4 -9.415e-4 c 0.00222,-0.011724 0.022286,-0.020036 0.024803,-0.031008 v -9.416e-4 -9.413e-4 -9.416e-4 -9.414e-4 l -9.415e-4,-9.415e-4 c -7.703e-4,-0.00257 -0.00222,-0.00488 -0.0053,-0.00796 -0.00172,-0.00172 -0.00462,-0.00428 -0.00617,-0.0053 -0.00103,-5.443e-4 -0.00342,-0.00145 -0.00445,-0.0018 -4.545e-4,-8.99e-5 -0.00222,3.42e-5 -0.00274,0 -4.46e-4,1.72e-5 -0.00222,-6.59e-5 -0.00274,0 -4.288e-4,1.104e-4 -0.00222,7.249e-4 -0.00274,9.414e-4 -0.00787,0.0036 -0.014747,0.013831 -0.023914,0.019488 a 0.30207263,0.30207263 0 0 1 -0.056693,0.029237 c -0.041724,0.015432 -0.066562,0.011112 -0.099222,0.028346 -0.02993,0.015432 -0.039464,0.04003 -0.056693,0.070866 -0.01354,0.025403 -0.035827,0.069514 -0.056693,0.070866 -0.025403,0 -0.048186,-0.03254 -0.070866,-0.04252 -0.069395,-0.029939 -0.1124736,0.012838 -0.1700915,0.013283 -0.053518,0 -0.1302855,-0.076789 -0.1275604,-0.1266787 0.00188,-0.030392 0.025146,-0.075292 0.029228,-0.1133916 0.00274,-0.029939 0.027893,-0.057378 0.028355,-0.085039 0,-0.036743 -0.061007,-0.066784 -0.085049,-0.070866 -0.056693,-0.01044 -0.134451,0.027217 -0.1993202,0 -0.01217,-0.020413 0.021979,-0.036743 0.029228,-0.056693 7.711e-4,-0.00214 8.559e-4,-0.00539 9.415e-4,-0.0071 -4.981e-4,-0.00659 -0.00428,-0.0114 -9.415e-4,-0.02126 0.00719,-0.019052 0.033448,-0.036289 0.042511,-0.056693 0.00685,-0.015432 0.00685,-0.037188 0.013369,-0.056693 0.00822,-0.022681 0.027414,-0.041279 0.029228,-0.056693 0.00222,-0.020413 -0.012,-0.043085 -0.028355,-0.056693 -0.050351,0.00454 -0.084826,1.137e-4 -0.1133832,0.014173 -0.065311,0.029939 -0.048066,0.1204199 -0.1133832,0.1417388 -0.022681,0.00727 -0.060982,0.00876 -0.085938,0.013283 -0.021311,0.00454 -0.047758,0.015517 -0.069977,0.015055 A 0.16056112,0.16056112 0 0 1 5.377506,6.9510718 0.07891987,0.07891987 0 0 1 5.363273,6.9227258 c 9.414e-4,-0.00454 -9.415e-4,-0.00964 0,-0.014173 C 5.38414,6.8074084 5.405562,6.7070578 5.434139,6.6109029 l 8.558e-4,-9.414e-4 V 6.60902 C 5.4352867,6.60612 5.4342152,6.60285 5.434139,6.60015 V 6.5992085 6.5982669 6.5973255 C 5.453182,6.5338285 5.480973,6.4752035 5.505005,6.413066 5.510825,6.408526 5.514265,6.402062 5.519238,6.398893 5.55462,6.374397 5.590447,6.344468 5.6326212,6.3422 c 0.0263,0 0.074264,0.00964 0.099222,0.014173 0.02268,0.00454 0.037205,0.026532 0.056693,0.028346 0.055786,0.00454 0.06758,-0.045943 0.1133832,-0.069985 0.047176,0.00685 0.070747,-0.00454 0.1133832,0 0.029023,0.00454 0.062368,0.040705 0.085048,0.04252 0.0024,0 0.00599,-0.0018 0.00804,-0.00265 0.0096,-0.00514 0.016972,-0.019231 0.025693,-0.024803 4.527e-4,-2.37e-4 0.00222,-6.804e-4 0.00274,-9.414e-4 0.00188,-5.443e-4 0.00479,-0.00128 0.00702,-9.415e-4 0.018136,0.00454 0.053963,0.049102 0.056693,0.070866 0.00325,0.027217 -0.021893,0.055564 -0.014225,0.085039 0.028578,0.029032 0.085852,0.025283 0.1266857,0.04252 0.027226,-0.021774 0.00445,-0.053749 0,-0.085039 -4.52e-4,-0.014053 0.00222,-0.029819 0,-0.04252 -0.00222,-0.021774 -0.013369,-0.038104 -0.013369,-0.056693 -4.52e-4,-0.086177 0.069532,-0.1360686 0.1266856,-0.1700862 0.025403,-0.014969 0.049102,-0.031633 0.070866,-0.04252 0.030392,-0.015431 0.045464,-0.028458 0.070866,-0.04252 0.045806,-0.025856 0.091732,-0.041844 0.1275604,-0.070866 0.016801,-0.039011 -0.00188,-0.089012 0,-0.1275655 0.016801,-0.00998 0.024838,0 0.042528,0 0.027671,-0.0059 0.040817,-0.04127 0.056693,-0.056693 0.00908,-0.00907 0.031625,-0.019274 0.042511,-0.028346 0.027671,-0.021774 0.03266,-0.047167 0.056693,-0.056693 0.00908,-0.00454 0.02892,-0.00779 0.042511,-0.014173 0.018136,-0.00497 0.041844,-0.017914 0.070866,-0.028346 0.017862,-0.00599 0.059056,-0.00727 0.069976,-0.013283 v -8.56e-4 h 9.415e-4 l 9.414e-4,-8.558e-4 v -8.694e-4 c 2.063e-4,-3.757e-4 0.00163,-0.00222 0.00172,-0.00265 0.00377,-0.012769 -0.00497,-0.040363 -0.00274,-0.052268 0.014567,-0.068034 0.1234795,-0.076087 0.1842577,-0.099216 0.042631,-0.016321 0.080846,-0.051592 0.1275604,-0.04252 -0.00565,0.020413 -0.025334,0.023023 -0.036323,0.031008 -0.00565,0.00479 -0.0096,0.012119 -0.00702,0.025693 0.00145,0.0077 0.0053,0.014105 0.00892,0.017717 4.1e-4,3.569e-4 0.00222,0.00145 0.00274,0.0018 4.493e-4,2.73e-4 0.00222,0.00154 0.00274,0.0018 0.024256,0.00966 0.070336,-0.029408 0.085937,-0.035434 0.036289,-0.015876 0.1073832,-0.024829 0.1559146,-0.04252 0.042631,-0.015431 0.11124,-0.036058 0.070866,-0.085042 -0.033568,0 -0.041844,0.029822 -0.070866,0.042522 -0.01996,0.00455 -0.025283,-0.012805 -0.042511,-0.014177 -0.016288,0 -0.026627,0.017348 -0.043402,0.014177 L 7.5161203,5.448419 C 7.4994903,5.442369 7.4771183,5.411503 7.4744813,5.392611 7.4676313,5.342719 7.5244903,5.331041 7.5453473,5.293395 7.5318073,5.248039 7.4700553,5.281863 7.4319641,5.264162 a 0.06712724,0.06712724 0 0 1 0.056693,-0.05581 c 0.025856,-0.00455 0.084227,0.00422 0.1000968,0.013285 l 9.415e-4,8.815e-4 V 5.2234 l 9.414e-4,8.816e-4 9.415e-4,8.816e-4 c 0.00445,0.00989 -0.00128,0.028752 0.010632,0.039864 0.015432,0.013612 0.036734,0.00455 0.056693,0 0.00582,-0.028008 -0.030169,-0.023976 -0.040748,-0.033664 V 5.2304825 L 7.6172142,5.229601 7.6162727,5.2287193 v -8.815e-4 -8.815e-4 -8.815e-4 -8.817e-4 -8.815e-4 c 5.65e-5,-6.531e-4 -1.695e-4,-0.00104 0,-0.00176 0.040817,-0.027215 0.1201887,-0.00737 0.1700913,-0.014177 0.028578,-0.00455 0.059192,-0.028008 0.085048,-0.042522 0.024496,-0.013612 0.045464,-0.036852 0.070866,-0.014178 0.00205,0.00689 8.559e-4,0.013252 -9.415e-4,0.017718 -0.00497,0.010428 -0.017794,0.01608 -0.027464,0.024804 A 0.98967338,0.98967338 0 0 0 7.7871879,5.3359357 c 0.021774,0.021772 0.060682,0.010092 0.098332,0.014178 0.014567,0 0.027106,0.01056 0.042511,0.013285 0.018136,0.00455 0.042631,-0.00545 0.056693,0 0.025403,0.00634 0.031753,0.043408 0.056693,0.043408 0.041279,0 0.03777,-0.057355 0.014233,-0.085928 0.00719,-0.028573 0.024152,-0.036284 0.014225,-0.056695 -0.018136,-0.037192 -0.095142,0.00646 -0.099222,-0.042522 -0.00222,-0.03039 0.031625,-0.034016 0.042511,-0.056695 -0.00445,-0.058056 0.047963,-0.060778 0.042511,-0.1133916 -0.00274,-0.021317 -0.027106,-0.021227 -0.042511,-0.041635 -0.00719,-0.00977 -0.0053,-0.033114 -0.012342,-0.042522 l -9.412e-4,-8.797e-4 c -0.031753,-0.027215 -0.095572,-0.019184 -0.1000968,-0.069984 -0.00188,-0.029935 0.00445,-0.052818 0,-0.085928 -0.0041,-0.029915 -0.030374,-0.119172 -0.056693,-0.1275652 -0.034013,-0.00725 -0.058387,0.05182 -0.099222,0.070868 a 0.17643582,0.17643582 0 0 1 -0.085049,0.014178 c -0.014575,-0.00455 -0.040252,-0.0144 -0.042511,-0.042522 -0.00274,-0.031748 0.022458,-0.037307 0.028355,-0.070868 -5.896e-4,-0.0025 -0.00257,-0.00532 -0.0036,-0.00708 -2.661e-4,-4.032e-4 -0.00145,-0.00229 -0.00172,-0.00265 L 7.638412,4.6441063 C 7.630542,4.6367763 7.61705,4.6376163 7.602088,4.6263883 7.579852,4.6096053 7.561151,4.5737753 7.531222,4.5696933 c -0.014918,0 -0.042186,0.013268 -0.056693,0.014178 -0.027226,0 -0.048186,-0.00691 -0.070866,-0.014178 0.0096,-0.00455 0.018359,-0.011004 0.028355,-0.014177 0.05534,-0.019049 0.1133832,-0.026647 0.1700922,-0.042522 0.00995,-0.00455 0.018376,-0.011448 0.028355,-0.014177 0.014053,0.014966 0.026182,0.046716 0.04341,0.056695 l 9.414e-4,8.815e-4 h 9.415e-4 c 0.011316,0.00407 0.027568,-0.00515 0.040748,-8.815e-4 0.044454,0.013612 0.079032,0.038326 0.1275604,0.028348 0.012,-0.021191 -0.011484,-0.030184 -0.017725,-0.041635 -4.133e-4,-0.00103 -7.711e-4,-0.00332 -9.414e-4,-0.00443 V 4.536912 4.5360305 4.5351488 c 5.435e-4,-0.00238 0.00188,-0.00508 0.00445,-0.00797 0.032198,0.00455 0.059638,0.018802 0.085049,0.029234 0.03492,-0.025399 0.058062,-0.030048 0.056693,-0.070868 0,-0.00196 -4.246e-4,-0.00535 -9.415e-4,-0.00708 -0.00565,-0.015652 -0.028937,-0.023131 -0.041639,-0.035434 0.028578,-0.00499 0.056026,-0.010092 0.085049,-0.014178 0.00172,0.00577 0.00736,0.011076 0.011484,0.013285 h 9.414e-4 9.415e-4 l 9.414e-4,8.816e-4 c 0.017228,0.00455 0.074606,-0.023791 0.085049,-0.029234 h 9.414e-4 V 4.413341 4.4124594 c -2.55e-4,-0.00234 -0.00172,-0.00694 -0.00172,-0.00973 V 4.401848 l 9.414e-4,-8.815e-4 V 4.400085 C 8.2283433,4.387845 8.3500105,4.3867986 8.4679354,4.3867986 Z M 7.3335369,4.5997028 h 9.414e-4 c -0.010464,0.019504 -0.021209,0.035719 -0.042511,0.042521 0.00547,0.029483 -0.037992,0.047738 -0.042511,0.070868 -0.00274,0.015874 -9.414e-4,0.042635 0,0.056695 0.00908,0.1446857 -0.11316,0.21535 -0.2551284,0.2117214 -0.027208,0.026308 -0.013883,0.077105 -0.029228,0.1133916 -0.012684,0.03039 -0.054203,0.059417 -0.085048,0.056695 -0.02268,0 -0.056693,-0.035832 -0.056693,-0.056695 0,-0.025854 0.036854,-0.040934 0.014233,-0.070868 0.00325,-0.019956 0.047963,-0.038233 0.042511,-0.069984 -0.00547,-0.033564 -0.043325,-0.00919 -0.085049,-0.014177 a 0.41863817,0.41863817 0 0 1 -0.085049,-0.029234 c 0.045806,-0.03039 0.09276,-0.056922 0.141737,-0.085043 0.042631,-0.025399 0.084022,-0.047738 0.1275604,-0.070868 0.1142916,-0.057149 0.2368735,-0.1096692 0.3543464,-0.1550262 z m 2.4440996,0.339286 c -0.00205,1.85e-5 -0.00497,7.121e-4 -0.00702,8.815e-4 -0.011652,3.106e-4 -0.018136,0.0075 -0.028355,0.013285 -0.023125,0.014057 -0.024376,0.036172 -0.042528,0.042522 -0.024496,0.00953 -0.053056,0.00431 -0.056693,0.028348 -0.00274,0.018596 0.014575,0.025717 0.013369,0.043408 -0.00908,0.022679 -0.02292,0.029935 -0.027466,0.056695 0.030838,0.049892 0.1036452,-0.00511 0.1417371,-0.014177 0.01723,-0.00544 0.033001,3.403e-4 0.042512,-0.014178 0.010464,-0.015874 0.00565,-0.047738 0.013369,-0.070868 0.00617,-0.017461 0.020155,-0.020868 0.026567,-0.028348 2.645e-4,-3.617e-4 0.00154,-0.00228 0.00172,-0.00265 2.037e-4,-4.163e-4 7.257e-4,-0.00221 9.416e-4,-0.00265 6.804e-4,-0.00244 4.261e-4,-0.00524 0,-0.00887 -0.00257,-0.02126 -0.042306,-0.043723 -0.077944,-0.043408 z M 6.4343853,5.2915627 c 0.00702,-2.905e-4 0.013369,1.845e-4 0.019488,0.00176 0.027209,0.00772 0.089555,0.087991 0.029228,0.1133916 a 0.42226668,0.42226668 0 0 1 -0.1000968,0.014177 c -0.020422,-0.00455 -0.035382,-0.038893 -0.056693,-0.042522 -0.041724,-0.00725 -0.098108,0.045356 -0.1266857,0 0.00163,-0.00595 0.00514,-0.011028 0.0089,-0.014178 0.01354,-0.00973 0.037316,-0.00737 0.061135,-0.014177 0.049615,-0.013492 0.11616,-0.056435 0.1647773,-0.058469 z m 0.1284514,0.1435098 c 0.00145,-6.41e-5 0.00292,-8.48e-5 0.00445,0 4.244e-4,0 0.00222,8.346e-4 0.00274,8.815e-4 4.185e-4,9.82e-5 0.00222,7.439e-4 0.00274,8.817e-4 0.011484,0.00515 0.022133,0.025874 0.037196,0.027461 0.014747,0 0.030683,-0.014228 0.040748,-0.015052 l 9.414e-4,8.815e-4 h 8.148e-4 c 0.025403,0.0068 0.038215,0.052273 0.014225,0.070868 -0.01995,0 -0.027106,-0.016903 -0.042528,-0.014173 -0.038266,0.00685 -0.053929,0.078065 -0.080606,0.085039 -4.52e-4,7.96e-5 -0.00222,-4.28e-5 -0.00274,0 -4.545e-4,4.2e-6 -0.00128,3.5e-5 -0.00172,0 -0.029023,-0.00454 -0.043667,-0.063728 -0.014225,-0.085039 9.415e-4,-0.018144 -0.015089,-0.024376 -0.014225,-0.042522 0.00857,-0.010632 0.030204,-0.028271 0.052268,-0.029234 z m -0.1585713,0.014178 a 0.20002105,0.20002105 0 0 1 0.02215,0 c 0.0077,7.303e-4 0.00978,0 0.012342,0 -0.0036,0.032658 -0.01663,0.041275 -0.041639,0.056695 a 0.17144663,0.17144663 0 0 0 -0.08592,0.1133928 c -0.00445,0.016321 -0.04958,0.060775 -0.069976,0.056693 -0.00377,-7.806e-4 -0.00822,-0.0036 -0.010632,-0.0053 -4.399e-4,-3.68e-4 -0.00222,-0.00137 -0.00274,-0.0018 -6.795e-4,-8.558e-4 -0.00205,-0.00342 -0.00274,-0.00445 -0.011652,-0.027166 0.034902,-0.090607 0.0443,-0.1018752 0.01217,-0.014525 0.028013,-0.025283 0.042511,-0.04252 0.012684,-0.015739 0.016116,-0.044882 0.027464,-0.055811 l 9.414e-4,-8.815e-4 a 0.20002105,0.20002105 0 0 1 0.063788,-0.014178 z m 4.3256766,0.012395 h 9.41e-4 9.42e-4 c 3.54e-4,-4.61e-5 0.0022,4.4e-6 0.0028,0 l -9.42e-4,0.00176 c 0.02178,0.00635 0.02707,0.031183 0.04342,0.042521 0.01217,0.00814 0.02892,0.00599 0.04252,0.014173 0.01595,0.01044 0.02437,0.026644 0.04252,0.04252 0.0254,0.02132 0.06383,0.039918 0.100092,0.056693 0.0068,0.00454 0.01884,0.011004 0.02747,0.014173 0.02494,0.03266 0.04728,0.065201 0.07087,0.099216 0.0028,0.018144 0.0055,0.044899 0.01422,0.056693 0.02359,0.032207 0.0592,0.059304 0.08504,0.099216 0,0.037188 0.01628,0.060433 0.04252,0.070866 0.03311,0.056239 0.06835,0.112482 0.100092,0.1700861 0.01268,0.02631 0.0156,0.058285 0.02836,0.085039 -0.0085,0 -0.01969,0.00325 -0.02836,0 -0.02993,-0.05261 -0.186165,-0.06336 -0.199319,0.013283 -0.0059,0.034466 0.02291,0.080033 -0.02836,0.085928 -0.03175,0.00454 -0.0694,-0.032994 -0.113388,-0.04252 -0.01813,-0.00454 -0.04264,0.00634 -0.05669,0 -0.03311,-0.011328 -0.02812,-0.050916 -0.05669,-0.070866 a 0.24809868,0.24809868 0 0 0 -0.08504,-0.028346 h -0.04253 c -0.02041,-0.00454 -0.05364,-0.00462 -0.07087,-0.014173 -0.01577,-0.00967 -0.05084,-0.028253 -0.05669,-0.04252 -0.0064,-0.022681 0.04072,-0.051815 0.04252,-0.070866 9.41e-4,-0.013608 -0.01008,-0.020302 -0.01337,-0.04252 -0.0028,-0.013146 0.0023,-0.033448 0,-0.04252 -0.0044,-0.015432 -0.03308,-0.028775 -0.05759,-0.029237 -0.02177,0 -0.0381,0.013711 -0.05669,0.014173 -0.02676,4.536e-4 -0.08028,-0.016458 -0.113388,-0.013283 -0.01951,0 -0.03721,0.011928 -0.05582,0.013283 -0.05261,0.00454 -0.08674,-0.00454 -0.12756,0 A 0.34470749,0.34470749 0 0 0 10.09754,5.973651 c -0.01405,0.00634 -0.02438,0.019274 -0.04251,0.028346 A 0.28075519,0.28075519 0 0 1 10.0258,6.01617 c -0.01723,0.0077 -0.040817,0.02381 -0.056693,0.028346 -0.023587,0.0059 -0.055684,0 -0.099223,0 -0.030392,0 -0.084586,-0.00625 -0.085049,-0.04252 -4.528e-4,-0.055786 0.10284,-0.03254 0.1559146,-0.04252 0.01995,-0.00454 0.033106,-0.028458 0.056693,-0.04252 0.011317,-0.00685 0.017469,-0.00736 0.028355,-0.014173 0.01757,-0.012736 0.0521,-0.041758 0.05669,-0.056693 8.6e-5,-4.254e-4 8.56e-4,-0.00222 9.42e-4,-0.00265 1.78e-4,-0.011556 -0.01286,-0.027439 -0.01509,-0.037205 V 5.80529 5.8043485 5.8034071 c 7.1e-5,-3.972e-4 7.7e-4,-0.00222 9.41e-4,-0.00265 0.0045,-0.012017 0.0268,-0.025436 0.04251,-0.040748 0.0254,-0.024949 0.03869,-0.053654 0.06998,-0.069985 0.02131,-0.011328 0.06134,-0.011532 0.07087,-0.029237 0.0022,-0.019506 -4.54e-4,-0.024829 0,-0.04252 0.0132,-0.012239 0.0179,-0.026078 0.02923,-0.028346 0.03266,-0.00727 0.06112,0.015996 0.09922,0.014173 a 0.13153312,0.13153312 0 0 0 0.05582,-0.014173 c 0.01492,-0.01044 0.02801,-0.020182 0.04252,-0.028346 0.01595,-0.00814 0.02303,-0.027422 0.04252,-0.029237 0.04762,-0.00454 0.07788,0.056898 0.100092,0.085928 0.01813,0.024041 0.06928,0.054536 0.09922,0.070866 0.0168,0.00954 0.0381,0.020182 0.05669,0.028346 0.03947,0.018145 0.112032,0.074838 0.113388,0.1133916 9.42e-4,0.019052 -0.0178,0.024376 -0.01422,0.04252 0.02948,0.00497 0.05579,-0.026764 0.05669,-0.056693 4.54e-4,-0.018144 -0.01825,-0.02257 -0.01422,-0.04252 0.01354,-0.02993 0.06691,-0.00514 0.08504,-0.014173 -0.0032,-0.034475 -0.056,-0.039011 -0.08504,-0.056693 -0.01543,-0.00907 -0.0262,-0.021542 -0.04252,-0.028346 -0.02359,-0.00907 -0.05273,-0.015175 -0.07087,-0.029237 -0.01723,-0.013146 -0.02573,-0.036281 -0.04252,-0.056693 -0.02449,-0.029032 -0.07165,-0.032994 -0.05669,-0.099216 0.0058,-0.00814 0.01405,-0.024245 0.02304,-0.028348 z m -3.9181795,0.095672 c 0.00325,-1.472e-4 0.00754,9.415e-4 0.00978,0.0018 h 9.415e-4 l 9.414e-4,8.559e-4 v 8.559e-4 l 9.415e-4,8.559e-4 c -0.00995,0.039456 -0.096275,0.027799 -0.1275603,0.013283 5.64e-5,-4.673e-4 7.703e-4,-0.00222 9.414e-4,-0.00265 v -8.559e-4 l 9.415e-4,-8.559e-4 c 1.96e-4,-3.398e-4 6.812e-4,-0.00232 9.414e-4,-0.00265 h 9.415e-4 l 9.414e-4,-8.559e-4 c 3.159e-4,-2.336e-4 0.00222,-0.00154 0.00274,-0.0018 0.00804,-0.0041 0.021706,-0.00257 0.035434,-0.0035 h 0.042511 c 0.0096,0 0.021106,-0.00402 0.030119,-0.00445 z m 3.7330315,0.070866 v 8.56e-4 c -8.55e-4,5.126e-4 -0.0025,0.00111 -0.0036,0.0018 l -9.4e-4,8.558e-4 h -9.36e-4 -9.42e-4 -9.41e-4 v 8.559e-4 c -0.0195,0.0059 -0.02993,0.050369 0,0.055812 0.01354,-0.00814 0.01825,-0.030846 0.01423,-0.056693 -4.55e-4,-5.126e-4 -0.0023,-0.00222 -0.0028,-0.00265 h -9.45e-4 l -9.42e-4,-8.56e-4 h -9.4e-4 -9.42e-4 z m -3.9332359,0.0018 c 0.00445,-5.673e-4 0.00874,-4.946e-4 0.014233,0.0018 a 0.32202938,0.32202938 0 0 1 -0.1133832,0.056693 c -0.01663,0.00522 -0.037316,0.0077 -0.048716,0 -0.00377,-0.003 -0.00702,-0.00702 -0.00804,-0.013283 -0.00137,-0.00893 8.183e-4,-0.016356 0.0036,-0.02037 l 9.414e-4,-8.558e-4 c 3.827e-4,-3.552e-4 0.00222,-0.00232 0.00274,-0.00265 0.00857,-0.00522 0.022783,-0.00342 0.035434,-0.0053 0.026302,-0.00454 0.068813,-0.012838 0.1000968,-0.013283 l -9.415e-4,-8.56e-4 c 0.00514,0 0.00978,-0.0012 0.014225,-0.0018 z m 3.9172929,0.085928 c -0.0017,1.893e-4 -0.0035,4.041e-4 -0.0053,8.56e-4 -0.0096,0.00454 -0.01792,0.00462 -0.02836,0.014173 0,0.034013 0.0068,0.055564 0,0.085039 0.0195,0.037188 0.0609,0.012564 0.07087,-0.013283 0.01092,-0.059107 -0.01044,-0.089648 -0.0372,-0.086815 z m 0.207291,0.1656539 c -0.0032,3.722e-4 -0.0079,0.00222 -0.01068,0.0035 -10e-4,5.897e-4 -0.0025,0.00103 -0.0036,0.0018 0.02268,0.036289 0.06396,0.062248 0.113388,0.070866 0.01813,-0.013608 0.01973,-0.047741 0.02836,-0.070866 h -0.07087 c -0.02006,0 -0.0409,-0.0071 -0.05669,-0.0053 z M 5.4218423,7.1058291 h 0.00172 c 0.072997,-0.00282 0.094732,0.097428 0.1541481,0.1266788 0.014918,0.00814 0.037205,0.010968 0.056693,0.015055 0.015944,0.00454 0.027106,0.00876 0.042511,0.013283 0.031745,0.011328 0.073374,0.00419 0.099222,0.014173 0.038557,0.017237 0.0661,0.093434 0.099223,0.1133916 0.00188,0.019051 -0.00582,0.042178 0,0.056693 0.015944,0.021319 0.045019,0.028912 0.070866,0.04252 0.030838,0.016783 0.041844,0.05772 0.070866,0.070866 h 9.415e-4 l 9.414e-4,9.414e-4 c 0.010116,0.00274 0.025865,-0.00514 0.040748,-9.414e-4 0.03991,0.012239 0.051464,0.066672 0.08592,0.056693 0.022681,-0.00634 0.024718,-0.035382 0.028355,-0.056693 0.014918,-0.016321 0.033568,-0.042066 0.056693,-0.04252 0.037642,0 0.043085,0.034132 0.056693,0.070866 0.0077,0.020867 0.022458,0.049102 0.028355,0.070866 0.00908,0.037642 0.0077,0.1474081 0,0.1700862 -0.0096,0.027217 -0.048186,0.039593 -0.070866,0.069985 -0.0108,0.013608 -0.019728,0.032524 -0.028355,0.04341 -0.014575,0.018144 -0.031625,0.025745 -0.042511,0.04252 -0.00634,0.00907 -0.00822,0.029819 -0.014225,0.04252 -0.018136,0.038549 -0.043325,0.067126 -0.028355,0.1133916 0.00634,0.019051 0.027893,0.034475 0.028355,0.056693 0,0.02631 -0.052165,0.042298 -0.056693,0.070866 -0.00325,0.021319 0.021551,0.056924 0.028355,0.085039 0.00445,0.02132 0.043992,0.042631 0.056693,0.056693 0.021311,0.024042 0.03718,0.054656 0.056693,0.085039 0.038557,0.058961 0.06158,0.127111 0.099222,0.1842595 0.019505,0.029939 0.05772,0.054203 0.070866,0.085039 0.00634,0.014884 -0.00377,0.040338 0,0.054922 1.626e-4,4.536e-4 -1.985e-4,0.00128 0,0.0018 0.021774,0.04899 0.1206517,0.1035252 0.1700914,0.1275655 0.02268,0.011316 0.050009,1.129e-4 0.070866,0.014233 a 0.41682392,0.41682392 0 0 1 0.1134,0.099222 c 0.014575,0.025403 0.021089,0.087223 0.028355,0.1266857 0.00908,0.053518 -0.00222,0.099188 0,0.1568055 0.00188,0.031283 0.014225,0.053741 0.014225,0.085048 0,0.0108 9.414e-4,0.031633 0,0.042511 -4.52e-4,0.037642 0.0036,0.074846 0,0.1134 a 0.33745049,0.33745049 0 0 0 0,0.056693 c 0.00222,0.018598 0.012856,0.025728 0.014225,0.042511 8.559e-4,0.016972 -0.013883,0.040902 -0.014225,0.05493 2.22e-5,4.468e-4 -5.66e-5,0.00137 0,0.00172 0.0041,0.038087 0.034817,0.06384 0.042511,0.099223 0.00582,0.027226 0.018256,0.094458 0.014225,0.1275604 -0.00188,0.018136 -0.011484,0.03765 -0.014225,0.056693 -0.00188,0.01492 0.00222,0.02801 0,0.04251 -0.00274,0.02131 -0.015602,0.03673 -0.014233,0.05669 0.00274,0.04082 0.03706,0.07257 0.04341,0.113383 0.00222,0.01354 -4.52e-4,0.02937 0,0.04251 0,0.01217 0.010116,0.01697 0.013369,0.02835 A 3.1654127,3.1654127 0 0 1 6.5567351,10.081431 3.2044189,3.2044189 0 0 1 6.2599701,9.8263029 L 6.2457369,9.8129341 A 3.2792568,3.2792568 0 0 1 5.976437,9.5153977 C 5.9292611,9.4555379 5.8769056,9.394181 5.8338081,9.3311382 5.8084057,9.2934883 5.7865295,9.2567541 5.7629416,9.2177553 5.7483662,9.1946297 5.7344839,9.1704769 5.7204304,9.146889 A 2.9830805,2.9830805 0 0 1 5.6070476,8.9342813 C 5.5843669,8.88892 5.5703134,8.8401677 5.5503544,8.7925426 A 3.0579184,3.0579184 0 0 1 5.4227941,8.452371 C 5.3982989,8.3689147 5.3837919,8.2843261 5.366101,8.1972418 5.3525611,8.1310228 5.3330985,8.0663888 5.3235897,7.9988081 A 2.9767307,2.9767307 0 0 1 5.3093649,7.8854165 3.2239223,3.2239223 0 0 1 5.3244537,7.162552 V 7.149269 c 0.028081,0 0.065996,-0.041125 0.09744,-0.04341 z m 1.2260366,0.3383998 c 4.134e-4,-6.5e-5 0.00222,3e-5 0.00274,0 h 9.415e-4 8.456e-4 c 3.731e-4,6.6e-5 0.00222,7.712e-4 0.00274,9.415e-4 0.016801,0.00599 0.019942,0.045164 0.00617,0.055812 h -9.414e-4 l -9.415e-4,9.415e-4 h -9.414e-4 l -9.415e-4,9.415e-4 h -9.414e-4 c -0.00428,8.559e-4 -0.00978,-0.00111 -0.013369,-0.0035 -0.01354,-0.011796 -0.018598,-0.045002 -9.415e-4,-0.053149 0.00188,-8.559e-4 0.0036,-0.00145 0.0053,-0.0018 z M 5.2916203,13.909267 v 0.453561 h 4.0820616 v -0.453561 z m 4.5356248,0 v 0.453561 h 1.8142509 v -0.453561 z" />
</svg>
