<?xml version="1.0" encoding="UTF-8" standalone="no"?>
<svg
   width="64"
   height="64"
   version="1.1"
   viewBox="0 0 16.933 16.933"
   id="svg7"
   sodipodi:docname="preferences-desktop-touchpad.svg"
   inkscape:version="1.4.2 (ebf0e940d0, 2025-05-08)"
   xmlns:inkscape="http://www.inkscape.org/namespaces/inkscape"
   xmlns:sodipodi="http://sodipodi.sourceforge.net/DTD/sodipodi-0.dtd"
   xmlns="http://www.w3.org/2000/svg"
   xmlns:svg="http://www.w3.org/2000/svg"
   xmlns:rdf="http://www.w3.org/1999/02/22-rdf-syntax-ns#"
   xmlns:cc="http://creativecommons.org/ns#"
   xmlns:dc="http://purl.org/dc/elements/1.1/">
  <sodipodi:namedview
     id="namedview7"
     pagecolor="#9c4444"
     bordercolor="#000000"
     borderopacity="0.25"
     inkscape:showpageshadow="2"
     inkscape:pageopacity="0.0"
     inkscape:pagecheckerboard="0"
     inkscape:deskcolor="#d1d1d1"
     inkscape:zoom="6.15625"
     inkscape:cx="15.756345"
     inkscape:cy="29.64467"
     inkscape:window-width="1226"
     inkscape:window-height="669"
     inkscape:window-x="0"
     inkscape:window-y="0"
     inkscape:window-maximized="0"
     inkscape:current-layer="svg7"
     showgrid="false" />
  <defs
     id="defs2">
    <style
       id="current-color-scheme"
       type="text/css">.ColorScheme-Text {color:#d8dee9} .ColorScheme-Highlight {color:#3b4252}</style>
  </defs>
  <metadata
     id="metadata2">
    <rdf:RDF>
      <cc:Work
         rdf:about="">
        <dc:format>image/svg+xml</dc:format>
        <dc:type
           rdf:resource="http://purl.org/dc/dcmitype/StillImage" />
      </cc:Work>
    </rdf:RDF>
  </metadata>
  <g
     id="g3"
     transform="matrix(0.15059155,0,0,0.15059155,-53.06091,-69.137694)">
    <rect
       width="38.652256"
       x="366.40524"
       y="542.46405"
       rx="9.311676e-05"
       height="14.055361"
       style="fill:currentColor;stroke-width:3.51384;stroke-linejoin:round"
       id="rect4239"
       class="ColorScheme-Text" />
    <rect
       width="38.652367"
       x="412.0853"
       y="542.46405"
       rx="9.311676e-05"
       height="14.055361"
       style="fill:currentColor;stroke-width:3.51384;stroke-linejoin:round"
       id="rect4239-7"
       class="ColorScheme-Text" />
    <path
       style="fill:currentColor;stroke-width:5.1446;stroke-linejoin:round"
       id="path4405"
       d="m 424.51968,474.13863 a 10.289242,10.289226 0 0 1 10.2892,10.2892 10.289242,10.289226 0 0 1 -7.71691,9.95768 v -5.51642 a 5.1446208,5.1446131 0 0 0 2.57231,-4.44126 5.1446208,5.1446131 0 0 0 -5.1446,-5.14459 5.1446208,5.1446131 0 0 0 -5.14464,5.14459 5.1446208,5.1446131 0 0 0 0.0514,0.69335 l -4.34081,3.37615 a 10.289242,10.289226 0 0 1 -0.85408,-4.0695 10.289242,10.289226 0 0 1 10.28925,-10.2892 z m 0,10.2892 -0.0308,50.16002 -15.40372,-20.57846 h -23.15083 l 38.5847,-29.58156 z"
       class="ColorScheme-Text" />
  </g>
</svg>
