<?xml version="1.0" encoding="UTF-8" standalone="no"?>
<svg
   height="32"
   width="32"
   version="1.1"
   id="svg13"
   sodipodi:docname="preferences-system-network-server-web.svg"
   xmlns:inkscape="http://www.inkscape.org/namespaces/inkscape"
   xmlns:sodipodi="http://sodipodi.sourceforge.net/DTD/sodipodi-0.dtd"
   xmlns:xlink="http://www.w3.org/1999/xlink"
   xmlns="http://www.w3.org/2000/svg"
   xmlns:svg="http://www.w3.org/2000/svg">
  <defs
     id="defs13" />
  <sodipodi:namedview
     id="namedview13"
     pagecolor="#ffffff"
     bordercolor="#000000"
     borderopacity="0.25"
     inkscape:showpageshadow="2"
     inkscape:pageopacity="0.0"
     inkscape:pagecheckerboard="0"
     inkscape:deskcolor="#d1d1d1" />
  <linearGradient
     id="b"
     gradientTransform="matrix(0.84,0,0,0.84,-4.34,-4.52)"
     gradientUnits="userSpaceOnUse"
     x2="0"
     y1="44"
     y2="4">
    <stop
       offset="0"
       stop-color="#1d1e1e"
       id="stop1" />
    <stop
       offset="1"
       stop-color="#44484c"
       id="stop2" />
  </linearGradient>
  <linearGradient
     id="c"
     x1="6"
     x2="6"
     xlink:href="#a"
     y1="5"
     y2="4"
     gradientTransform="matrix(1.2,0,0,1.2,-3.5,-3.2)" />
  <linearGradient
     id="a"
     gradientUnits="userSpaceOnUse"
     x2="0"
     y1="507.8"
     y2="506.8">
    <stop
       offset="0"
       stop-color="#3da103"
       id="stop3" />
    <stop
       offset="1"
       stop-color="#7ddf07"
       id="stop4" />
  </linearGradient>
  <linearGradient
     id="d"
     x1="6"
     x2="6"
     xlink:href="#a"
     y1="16"
     y2="15"
     gradientTransform="matrix(1.2,0,0,1.2,-3.5,-3.2)" />
  <linearGradient
     id="e"
     x1="6"
     x2="6"
     xlink:href="#a"
     y1="27"
     y2="26"
     gradientTransform="matrix(1.2,0,0,1.2,-3.5,-3.2)" />
  <linearGradient
     id="f"
     gradientUnits="userSpaceOnUse"
     x1="5"
     x2="18"
     y1="12"
     y2="25"
     gradientTransform="matrix(1.2,0,0,1.2,-3.5,-3.2)">
    <stop
       offset="0"
       stop-color="#292c2f"
       id="stop5" />
    <stop
       offset="1"
       stop-opacity="0"
       id="stop6" />
  </linearGradient>
  <path
     d="M 0.1,5.2 H 31.3 V 25.6 H 0.1 Z"
     fill="#111213"
     style="stroke-width:1.2"
     id="path6" />
  <path
     d="M 0.1,-0.8 V 32.8 H 31.3 V -0.8 Z m 1.2,7.2 h 28.8 v 4.8 H 1.3 Z m 0,13.2 h 28.8 v 4.8 H 1.3 Z"
     fill="url(#b)"
     style="fill:url(#b);stroke-width:1.2"
     id="path7" />
  <g
     stroke-width=".7"
     style=""
     id="g10">
    <path
       d="M 2.5,1.6 H 4.9 V 2.8 H 2.5 Z"
       fill="url(#c)"
       style="fill:url(#c);stroke-width:0.84"
       id="path8" />
    <path
       d="M 2.5,14.8 H 4.9 V 16 H 2.5 Z"
       fill="url(#d)"
       style="fill:url(#d);stroke-width:0.84"
       id="path9" />
    <path
       d="m 2.5,28 h 2.4 v 1.2 H 2.5 Z"
       fill="url(#e)"
       style="fill:url(#e);stroke-width:0.84"
       id="path10" />
  </g>
  <path
     d="m 1.3,11.2 8.4,8.4 h 20.4 v 4.8 H 14.5 l 8.4,8.4 h 8.4 V 12.4 l -1.2,-1.2 z"
     fill="url(#f)"
     fill-rule="evenodd"
     opacity="0.4"
     style="fill:url(#f);stroke-width:1.2"
     id="path11" />
  <path
     d="m 0.1,31.6 h 31.2 v 1.2 H 0.1 Z"
     opacity="0.2"
     style="stroke-width:1.2"
     id="path12" />
  <rect
     fill="#eff0f1"
     height="19.200001"
     rx="2.7432001"
     width="19.200001"
     x="15.7"
     y="13.6"
     id="rect12"
     style="stroke-width:1.2" />
  <path
     d="m 25.3,16 a 7.2,7.2 0 1 0 0,14.4 7.2,7.2 0 0 0 0,-14.4 z m 0,1.2 c 0.2076,0 0.3984,0.0168 0.6,0.0372 0.048,0.0048 0.102,-0.006 0.15,0 0.0636,0.0084 0.1248,0.0276 0.1872,0.0384 0.1728,0.0264 0.3204,0.0708 0.4884,0.1116 0.3072,0.0768 0.612,0.1788 0.9,0.3 0.1572,0.0672 0.2988,0.1452 0.45,0.2256 V 17.95 c 0.0336,0.0156 0.0528,0.0804 0.1116,0.1128 0.0216,0.012 0.018,0.0264 0.0384,0.0372 0.0336,0.0192 0.0816,0.0408 0.0744,0.0756 -0.0096,0.048 -0.0792,0.0372 -0.1128,0.0744 0.0048,0.0696 -0.0564,0.066 -0.0744,0.1128 0.0108,0.03 0.0696,0.0384 0.0744,0.0744 -0.006,0.0384 -0.0888,0.036 -0.0744,0.0756 0.0648,0.0504 0.126,0.012 0.1872,0 0.1344,-0.0168 0.2544,-0.0072 0.3372,-0.0756 -0.0108,-0.0636 0.12,-0.054 0.1128,-0.1116 0.0348,0.024 0.078,0.048 0.1128,0.0744 -0.0132,0.012 -0.024,0.0312 -0.0384,0.0372 -0.024,0.012 -0.0516,0.024 -0.0744,0.0384 L 28.6372,18.55 c -0.0276,0.0192 -0.084,0.1128 -0.1116,0.1128 -0.036,0 -0.0876,-0.0456 -0.1128,-0.0384 -0.036,0.012 -0.0348,0.0612 -0.0756,0.0756 -0.0792,0.0288 -0.2352,-0.0432 -0.2616,0.0756 0.0336,0.0684 0.1644,0.036 0.2244,0.0744 a 0.372,0.372 0 0 1 0.1128,0.15 0.708,0.708 0 0 1 0,0.2256 C 28.3756,19.3216 28.2604,19.3012 28.15,19.3 h -0.0756 c -0.1848,-0.012 -0.366,-0.096 -0.45,0.0372 0.006,0.102 0.024,0.174 0,0.2628 -0.0156,0.0648 -0.1152,0.132 -0.1116,0.1872 0,0.0288 0.0672,0.072 0.0744,0.1128 0.0048,0.0216 -0.0096,0.054 0,0.0756 0.0312,0.0588 0.096,-0.012 0.15,0 0.0528,0.012 0.1128,0.09 0.1128,0.15 a 0.312,0.312 0 0 1 -0.0372,0.15 c -0.0528,0.0792 -0.15,0.0684 -0.2256,0.1116 -0.0624,0.036 -0.0744,0.126 -0.1116,0.1884 -0.0396,0.0672 -0.0912,0.0912 -0.0756,0.1872 a 0.438,0.438 0 0 1 -0.2256,0.2244 c -0.0324,0.0144 -0.0816,0.0168 -0.1116,0.0384 -0.024,0.0168 -0.042,0.0732 -0.0756,0.1116 -0.042,0.048 -0.09,0.0768 -0.1116,0.1128 -0.018,0.0276 -0.0204,0.0744 -0.0384,0.1128 -0.0264,0.0504 -0.0792,0.0612 -0.1116,0.1116 -0.0156,0.024 -0.0216,0.0816 -0.0384,0.1128 -0.0384,0.0696 -0.0816,0.1272 -0.0744,0.1884 0.006,0.0576 0.072,0.06 0.0744,0.1116 0.0036,0.0288 -0.0384,0.0432 -0.0372,0.0756 0.0012,0.0456 0.0336,0.0756 0.0372,0.1116 0.0084,0.0888 -0.0576,0.1272 -0.0744,0.1884 -0.0084,0.0288 0.0072,0.0504 0,0.0744 -0.0144,0.0444 -0.0744,0.0972 -0.0756,0.15 0,0.0372 0.072,0.06 0.0756,0.1128 0.0024,0.0348 -0.0444,0.0792 -0.0384,0.1128 0.0132,0.0648 0.138,0.1368 0.1884,0.1872 0.0684,0.0684 0.1572,0.1152 0.1872,0.1872 0.0252,0.0612 0.0288,0.18 0.0756,0.2256 0.0336,0.0336 0.1056,0.0384 0.15,0.0744 0.0408,0.0324 0.0672,0.0396 0.1116,0.0756 0.0732,0.0576 0.1836,0.1956 0.3,0.1872 0.0612,-0.012 0.12,-0.0624 0.1884,-0.0756 0.0708,-0.012 0.1524,-0.0432 0.2244,-0.036 0.0552,0.012 0.1296,0.0396 0.1872,0.036 0.06,-0.012 0.12,-0.0072 0.1884,-0.036 0.1188,-0.0528 0.3144,-0.138 0.4872,-0.114 0.132,0.0192 0.132,0.1668 0.2244,0.2256 0.1056,0.012 0.1788,-0.0204 0.2628,0 0.0636,0.0156 0.144,0.0996 0.15,0.15 0.006,0.0516 -0.0684,0.1176 -0.0756,0.15 -0.0156,0.0696 0.012,0.144 0,0.1872 -0.0096,0.036 -0.0384,0.078 -0.036,0.1128 0,0.0312 0.042,0.108 0.0744,0.15 0.0396,0.0504 0.102,0.096 0.15,0.15 0.0876,0.1008 0.126,0.204 0.1872,0.3372 0.0156,0.0336 -0.0144,0.0696 0,0.1128 -0.0264,0.2016 -0.0936,0.3396 -0.2256,0.5628 -0.0612,0.072 -0.1512,0.1344 -0.15,0.2244 -0.0036,0.216 0.1224,0.354 0.1128,0.5628 -0.0216,0.2808 0.0216,0.3 0,0.45 0.096,0.048 0.0276,0.2004 0,0.3 -0.0408,0.1188 -0.0888,0.1452 -0.1116,0.2256 0.0636,0.0276 0.1536,0.0156 0.2244,0 l -0.1128,0.1116 a 6.2436,6.2436 0 0 1 -0.9,0.75 5.928,5.928 0 0 1 -2.0616,0.9 A 5.982,5.982 0 0 1 25.3,29.2 c -0.228,0 -0.4536,-0.012 -0.6756,-0.0372 C 24.4492,29.1424 24.2716,29.122 24.1,29.0872 23.7604,29.0176 23.4412,28.8748 23.1244,28.75 c -0.0108,-0.0204 -0.0396,-0.0504 -0.036,-0.0756 0.0612,-0.0264 0.1788,0.0888 0.2244,0 0.0228,-0.042 -0.03,-0.144 0,-0.1872 0.0216,-0.0288 0.1428,-0.0288 0.1872,-0.0372 0.0636,-0.012 0.1512,-0.0204 0.1872,-0.0372 0.0396,-0.0252 0.0828,-0.114 0.0756,-0.1884 -0.0036,-0.0348 -0.048,-0.0432 -0.0756,-0.0744 -0.0228,-0.0264 0.0156,-0.0504 0,-0.0756 -0.0288,-0.042 -0.1008,-0.0504 -0.1116,-0.1116 0.0852,-0.0168 0.2124,0.072 0.336,0.0372 0.06,-0.0168 0.1608,-0.132 0.1884,-0.1872 0.0084,-0.0168 -0.0096,-0.054 0,-0.0756 0.0108,-0.0216 0.0336,-0.0624 0.0372,-0.0744 0.0084,-0.0324 -0.0072,-0.0168 0,-0.0384 0.0216,-0.06 0.0768,-0.1056 0.1128,-0.15 0.0276,-0.0336 0.0876,-0.0768 0.1128,-0.1116 0.0288,-0.0372 0.018,-0.042 0.0372,-0.0756 0.018,-0.108 -0.0636,-0.204 -0.0372,-0.3 0.0288,-0.108 0.1956,-0.1752 0.3,-0.2244 0.036,-0.0168 0.0828,-0.0276 0.1116,-0.0384 0.072,-0.024 0.1584,-0.0504 0.2256,-0.0744 0.1128,-0.0408 0.132,-0.1224 0.1872,-0.2256 0.0264,-0.048 0.0708,-0.114 0.0756,-0.15 0.0048,-0.0312 -0.006,-0.0372 0,-0.0744 0.006,-0.0348 -0.0096,-0.072 0,-0.1128 0.012,-0.0516 0.0372,-0.168 0.0372,-0.2244 0,-0.048 -0.036,-0.0696 -0.0372,-0.1128 -0.0084,-0.156 0.0552,-0.1404 0.1116,-0.2256 0.0288,-0.042 0.0552,-0.12 0.0756,-0.15 0.0972,-0.144 0.2748,-0.1932 0.2628,-0.4116 C 25.708,24.8908 25.6528,24.7228 25.6,24.7 25.57,24.6868 25.5316,24.6784 25.4872,24.6628 25.3456,24.61 25.2232,24.4492 25.0756,24.4372 H 25 c -0.0576,0 -0.1224,-0.0288 -0.1872,-0.0372 -0.0408,-0.012 -0.126,0.012 -0.15,0 -0.0372,-0.018 -0.0456,-0.0924 -0.0756,-0.1128 -0.024,-0.0168 -0.0756,-0.024 -0.1116,-0.0372 -0.06,-0.0216 -0.0828,-0.0708 -0.15,-0.0756 -0.0216,0 -0.0516,0.012 -0.0756,0 -0.0372,-0.012 -0.078,-0.0156 -0.1128,-0.036 -0.0432,-0.0276 -0.0948,-0.0384 -0.1116,-0.0756 0.0396,-0.1296 -0.0864,-0.15 -0.1128,-0.2256 -0.012,-0.0348 0.012,-0.1188 0,-0.15 C 23.8972,23.6428 23.8492,23.6128 23.8,23.5756 a 0.4488,0.4488 0 0 0 -0.2628,-0.1128 c -0.0552,-0.012 -0.1212,0.012 -0.1872,0 A 0.4272,0.4272 0 0 1 23.1244,23.35 C 23.074,23.2912 23.0572,23.2276 23.0128,23.2 22.9708,23.1736 22.9288,23.152 22.9,23.1244 c -0.0132,-0.012 -0.0252,-0.0096 -0.0372,-0.036 -0.0216,-0.0456 -0.0648,-0.06 -0.0384,-0.114 -0.048,-0.024 -0.0228,0.0468 -0.0744,0.0384 -0.0468,-0.066 -0.0816,-0.132 -0.1872,-0.1128 -0.048,0.012 -0.0936,0.1116 -0.15,0.1128 -0.048,0 -0.0888,-0.1032 -0.15,-0.1128 -0.048,-0.012 -0.1176,0.0432 -0.15,0.0372 -0.0516,-0.012 -0.066,-0.0432 -0.1128,-0.0744 -0.0348,-0.024 -0.0936,-0.0768 -0.1128,-0.0756 -0.06,0 -0.1044,0.12 -0.1872,0.0756 -0.0408,-0.0516 0.0852,-0.0648 0.0372,-0.1128 -0.036,-0.0348 -0.0456,0.0204 -0.0744,0.0372 -0.0336,0.0216 -0.0756,0.024 -0.1128,0.0384 -0.0828,0.0312 -0.1608,0.0396 -0.2256,0.0744 a 0.222,0.222 0 0 0 -0.1116,0.1128 c -0.0276,0.0504 -0.0708,0.1476 -0.1128,0.15 -0.0504,0 -0.0672,-0.0552 -0.1128,-0.0756 -0.138,-0.06 -0.2232,0.036 -0.3372,0.0384 -0.1056,0 -0.2676,-0.1632 -0.2628,-0.264 0.0036,-0.06 0.0312,-0.1488 0.0384,-0.2244 0.0048,-0.06 0.0732,-0.132 0.0744,-0.1872 0.0012,-0.0744 -0.1392,-0.1044 -0.1872,-0.1128 -0.1128,-0.0204 -0.2472,0.0504 -0.3756,0 -0.024,-0.0408 0.024,-0.072 0.0384,-0.1116 0.0072,-0.0216 -0.0084,-0.0504 0,-0.0756 0.0132,-0.0384 0.0936,-0.072 0.1116,-0.1128 0.0132,-0.0312 -0.012,-0.072 0,-0.1116 0.0156,-0.0432 0.072,-0.0816 0.0756,-0.1128 0.0048,-0.0408 -0.0432,-0.0864 -0.0756,-0.1128 -0.0996,0.012 -0.168,0.0084 -0.2244,0.0372 -0.1296,0.06 -0.0948,0.222 -0.2256,0.2628 a 1.0968,1.0968 0 0 1 -0.15,0.0372 c -0.0216,0.012 -0.0504,-0.0024 -0.0744,0 0.0024,-0.012 -0.0024,-0.024 0,-0.0372 0.0048,-0.0276 0.0312,-0.048 0.0372,-0.0756 A 5.892,5.892 0 0 1 19.8256,20.8 h 0.036 c 0.0468,0.012 0.0744,0.072 0.114,0.0756 0.1092,0.012 0.1332,-0.102 0.2244,-0.15 0.0936,0.012 0.1404,-0.012 0.2256,0 0.0576,0.012 0.1416,0.0696 0.1872,0.0744 0.0384,0 0.0384,-0.042 0.0744,-0.0372 0.036,0.012 0.1068,0.0684 0.1128,0.1116 0.006,0.054 -0.0528,0.1284 -0.0372,0.1884 0.0564,0.0576 0.1824,0.078 0.2616,0.1116 0.0528,-0.0444 0.0084,-0.1248 0,-0.1872 0,-0.0276 0.0036,-0.0864 0,-0.1116 -0.0048,-0.0432 -0.036,-0.0756 -0.036,-0.1128 0,-0.1716 0.1464,-0.2328 0.2616,-0.3 0.0492,-0.0288 0.1068,-0.0912 0.15,-0.1128 0.0612,-0.03 0.0996,-0.0084 0.15,-0.0372 0.0912,-0.0516 0.1548,-0.1296 0.2256,-0.1884 0.0324,-0.078 -0.0036,-0.1848 0,-0.2616 0.0324,-0.0204 0.0768,0 0.1116,0 0.0552,-0.012 0.0816,-0.0816 0.1128,-0.1128 0.018,-0.018 0.0528,-0.0192 0.0756,-0.0372 0.054,-0.0432 0.0636,-0.0936 0.1116,-0.1128 a 0.312,0.312 0 0 1 0.0756,-0.0372 c 0.036,-0.012 0.0924,-0.0168 0.15,-0.0384 0.036,-0.012 0.1356,-0.0216 0.15,-0.036 0.018,-0.0192 -0.0048,-0.0864 0,-0.114 0.0288,-0.1344 0.216,-0.1416 0.3372,-0.1872 0.084,-0.0312 0.168,-0.1284 0.2628,-0.1116 -0.018,0.0648 -0.0912,0.072 -0.0756,0.15 0.0204,0.108 0.15,-0.0228 0.1884,-0.0384 0.072,-0.0312 0.204,-0.0756 0.3,-0.1116 0.084,-0.03 0.228,-0.054 0.15,-0.15 C 23.6596,18.9136 23.632,18.976 23.5756,19 23.536,19.012 23.5336,18.9664 23.5,18.9628 23.4676,18.9628 23.458,19.006 23.4244,19 23.392,18.988 23.3548,18.928 23.35,18.8872 23.3368,18.7864 23.422,18.7744 23.4628,18.7 23.4352,18.6088 23.314,18.6604 23.2372,18.6244 A 0.1356,0.1356 0 0 1 23.35,18.5128 c 0.0516,-0.012 0.1944,0.0096 0.2256,0.0372 0.018,0.0156 -0.0276,0.0504 0,0.0756 0.0312,0.0276 0.072,0.012 0.1116,0 0.0144,-0.0684 -0.0864,-0.0312 -0.0744,-0.0756 0.0816,-0.0528 0.2376,-0.024 0.3372,-0.0372 a 0.816,0.816 0 0 0 0.1872,-0.0756 c 0.048,-0.0276 0.0624,-0.0828 0.1128,-0.0372 0.0144,0.0492 -0.0096,0.0864 -0.0372,0.1128 -0.0924,0.0816 -0.1908,0.168 -0.2628,0.2616 0.0444,0.0432 0.1128,0.03 0.1872,0.0384 0.0288,0.012 0.0828,-0.006 0.1128,0 0.036,0.012 0.084,-0.012 0.1128,0 0.0504,0.012 0.0624,0.1116 0.1116,0.1116 0.0816,0 0.048,-0.096 0,-0.15 0.0144,-0.0564 0.0588,-0.1092 0.0384,-0.15 -0.0372,-0.0744 -0.18,0.0228 -0.1884,-0.0744 -0.0036,-0.06 0.054,-0.0672 0.0756,-0.1128 -0.0096,-0.1152 0.0864,-0.12 0.0756,-0.2244 C 24.4696,18.1696 24.43,18.178 24.4,18.1372 c -0.0156,-0.0216 -0.0192,-0.096 -0.0372,-0.1116 -0.0624,-0.0528 -0.18,-0.012 -0.1884,-0.1128 -0.0024,-0.06 0.0084,-0.1236 0,-0.1884 -0.0072,-0.06 -0.06,-0.2496 -0.1116,-0.2616 -0.0672,-0.0144 -0.108,0.1116 -0.1884,0.15 A 0.4512,0.4512 0 0 1 23.6872,17.65 c -0.0288,-0.012 -0.072,-0.018 -0.0744,-0.0756 -0.0048,-0.0504 0.0564,-0.072 0.0744,-0.1116 0.0048,-0.0096 -0.0024,-0.024 0,-0.0384 0.0876,-0.024 0.174,-0.054 0.2628,-0.0744 0.0504,-0.012 0.0996,-0.0276 0.15,-0.0372 0.036,-0.0072 0.0768,0.006 0.1128,0 A 6.0096,6.0096 0 0 1 25.3,17.2 Z m -2.4372,0.5628 c -0.0384,0.2184 -0.2436,0.306 -0.4884,0.3 -0.054,0.0528 -0.0072,0.1512 -0.036,0.2244 -0.0264,0.0612 -0.1272,0.1176 -0.1884,0.1128 -0.0444,0 -0.1128,-0.0708 -0.1128,-0.1128 0,-0.0516 0.0828,-0.0528 0.0384,-0.1116 0.0012,-0.012 0.024,-0.0264 0.036,-0.0384 0.0252,-0.0144 0.0516,-0.0228 0.0756,-0.0372 0.2172,-0.1344 0.4404,-0.2316 0.6756,-0.3372 z m 5.0244,0.2244 c -0.0216,0.012 -0.018,0.0264 -0.0372,0.0384 -0.0456,0.0276 -0.078,0.0612 -0.1128,0.0744 -0.048,0.018 -0.1044,0.03 -0.1116,0.0756 -0.006,0.036 0.0384,0.0396 0.036,0.0744 -0.0168,0.0444 -0.0264,0.0588 -0.036,0.1128 0.06,0.0996 0.186,-0.0228 0.2616,-0.0384 0.0336,-0.012 0.0576,-0.0084 0.0756,-0.036 0.0204,-0.0336 0.0216,-0.0672 0.0372,-0.114 0.0168,-0.0504 0.0816,-0.0672 0.0756,-0.1116 -0.0048,-0.0444 -0.114,-0.0816 -0.1884,-0.0756 z m -6.5616,0.75 c 0.0564,0.0456 0.1368,0.144 0.036,0.1884 a 0.6192,0.6192 0 0 1 -0.186,0.036 c -0.012,0 -0.0276,-0.0276 -0.0384,-0.036 0.0624,-0.06 0.1236,-0.1308 0.1884,-0.1884 z m 0.2244,0.2256 c 0.0288,0 0.0408,0.072 0.0756,0.0744 0.0324,0 0.0552,-0.042 0.0744,-0.0372 0.0504,0.0132 0.0852,0.1128 0.0372,0.15 -0.0396,0.012 -0.0456,-0.042 -0.0744,-0.0372 -0.0816,0.0144 -0.1272,0.192 -0.1884,0.1872 -0.0576,-0.012 -0.096,-0.1452 -0.036,-0.1872 0,-0.036 -0.0036,-0.0384 0,-0.0756 0.0168,-0.0216 0.0636,-0.078 0.1116,-0.0744 z M 21.25,19 c 0.0168,0 0.0312,-0.012 0.0372,0 -0.0084,0.0636 -0.0252,0.0828 -0.0744,0.1128 -0.0852,0.0516 -0.1596,0.1152 -0.1884,0.2244 -0.0072,0.0324 -0.108,0.12 -0.15,0.1128 -0.0936,-0.0204 0.054,-0.198 0.0756,-0.2256 0.024,-0.03 0.048,-0.0396 0.0756,-0.0744 0.0264,-0.0336 0.048,-0.0936 0.0744,-0.1128 A 0.2952,0.2952 0 0 1 21.25,19 Z m 8.1372,0.1872 c 0.096,-0.012 0.144,0.0936 0.1884,0.15 0.036,0.048 0.1284,0.1176 0.1872,0.15 0.0336,0.018 0.0744,0.0588 0.1116,0.0756 0.078,0.0348 0.222,0.1476 0.2256,0.2244 0.0012,0.0384 -0.0432,0.0768 -0.0372,0.1128 0.0588,0.012 0.1104,-0.0912 0.1116,-0.15 0.1104,0.156 0.2052,0.3216 0.3,0.4872 0.0456,0.0792 0.108,0.144 0.15,0.2256 -0.0528,0.0156 -0.066,0.024 -0.0744,0.0744 -0.012,0.0672 0.0252,0.1764 -0.0756,0.1884 -0.0624,0.012 -0.1368,-0.0552 -0.2244,-0.0756 -0.036,-0.012 -0.084,0.012 -0.1128,0 -0.066,-0.0216 -0.0552,-0.1104 -0.1116,-0.15 a 0.6012,0.6012 0 0 0 -0.1884,-0.0756 c -0.0324,0 -0.0408,0.012 -0.0744,0 -0.0408,-0.012 -0.1164,0.0168 -0.15,0 A 0.3852,0.3852 0 0 1 29.5,20.3128 c -0.0132,-0.0444 0.1104,-0.0756 0.1128,-0.1128 0.0024,-0.0288 -0.0324,-0.0684 -0.0384,-0.1128 -0.0036,-0.0264 0.006,-0.0564 0,-0.0744 -0.0084,-0.0312 -0.0624,-0.036 -0.1116,-0.0384 H 29.35 c -0.0528,0 -0.1596,-0.0048 -0.2256,0 -0.0396,0 -0.0744,-0.0036 -0.1116,0 -0.1044,0.012 -0.1812,-0.012 -0.2628,0 A 0.7536,0.7536 0 0 0 28.5244,20.05 L 28.45,20.0872 a 0.4932,0.4932 0 0 1 -0.0756,0.0384 c -0.0324,0.0156 -0.0792,0.0648 -0.1116,0.0744 -0.048,0.012 -0.1032,-0.012 -0.1884,0 -0.06,0 -0.1476,-0.0396 -0.15,-0.1128 0,-0.1116 0.1956,-0.054 0.3,-0.0744 0.0396,-0.012 0.0648,-0.0468 0.1128,-0.0756 0.024,-0.012 0.0168,-0.0228 0.0384,-0.0372 0.036,-0.0252 0.1056,-0.084 0.1116,-0.1128 0.0048,-0.0264 -0.0036,-0.054 0,-0.0744 0.0048,-0.0252 0.0432,-0.042 0.0756,-0.0756 0.0504,-0.0504 0.0876,-0.1176 0.15,-0.15 0.042,-0.0216 0.0924,-0.0396 0.1116,-0.0744 0.0048,-0.0384 0,-0.0396 0,-0.0756 A 0.156,0.156 0 0 1 28.9,19.3 c 0.0648,-0.0144 0.1116,0.0036 0.1872,0 0.0324,0 0.078,0.0156 0.1128,0 0.0288,-0.0192 0.0456,-0.06 0.0756,-0.0756 a 0.2964,0.2964 0 0 1 0.1116,-0.036 z M 30.0628,19.9 h -0.15 c -0.0528,0 -0.12,-0.0276 -0.15,0 0.0444,0.072 0.1248,0.0948 0.2244,0.1128 A 0.2316,0.2316 0 0 0 30.0628,19.9 Z M 21.85,19.2244 h 0.1128 c 0.03,0 0.0624,-0.012 0.0744,0 -0.0192,0.0792 -0.2004,0.0672 -0.2616,0.0384 0.0024,-0.03 0.036,-0.0336 0.0744,-0.0384 z m -0.2628,0.15 c -0.0516,0.0384 -0.1044,0.0876 -0.1872,0.1128 -0.0456,0.0144 -0.1044,0.0132 -0.1128,-0.0372 -0.0096,-0.0624 0.072,-0.0312 0.1128,-0.0372 0.0528,-0.012 0.126,-0.036 0.1872,-0.0384 z m 7.8,0 c -0.0396,0.0132 -0.0588,0.1008 0,0.1128 0.0276,-0.0168 0.0456,-0.06 0.0384,-0.1116 -0.0156,-0.0168 -0.0264,-0.012 -0.0384,0 z m -0.0744,0.1884 c 0,0.0672 0.012,0.1284 0,0.1872 0.0384,0.0744 0.1308,0.012 0.15,-0.0372 0.0228,-0.1248 -0.018,-0.1656 -0.0756,-0.15 -0.0192,0.012 -0.054,-0.0156 -0.0744,0 z m -9.9384,2.8116 c 0.0684,0.0612 0.108,0.1476 0.1884,0.1884 A 0.564,0.564 0 0 0 19.6744,22.6 c 0.0324,0.012 0.0456,-0.0096 0.0756,0 0.0636,0.0216 0.1368,0.0516 0.1872,0.0756 0.0768,0.0336 0.1596,0.1488 0.2256,0.1872 0.0024,0.0384 -0.012,0.084 0,0.1116 0.0312,0.042 0.0612,0.084 0.1116,0.1128 0.0612,0.0336 0.0936,0.0864 0.15,0.1128 0.0204,0.012 0.0444,-0.012 0.0756,0 0.0792,0.024 0.12,0.132 0.1872,0.1128 0.0444,-0.0132 0.0312,-0.0696 0.0384,-0.1128 0.03,-0.0324 0.0648,-0.0756 0.1116,-0.0756 0.0744,0 0.0852,0.1152 0.1128,0.1884 0.0156,0.0408 0.0648,0.0684 0.0756,0.1116 a 1.1316,1.1316 0 0 1 0,0.3384 c -0.0204,0.0552 -0.1056,0.0516 -0.15,0.1116 -0.0216,0.0288 -0.0216,0.0924 -0.0384,0.1128 -0.0288,0.036 -0.0528,0.042 -0.0744,0.0756 a 0.54,0.54 0 0 0 -0.0384,0.0744 c -0.036,0.0768 -0.1044,0.132 -0.0744,0.2256 0.012,0.036 0.0756,0.0672 0.0756,0.1116 0,0.0528 -0.1044,0.0924 -0.1128,0.15 -0.006,0.042 0.024,0.0948 0.0372,0.15 0.0096,0.042 0.0876,0.0852 0.1128,0.1128 0.042,0.048 0.0744,0.1284 0.1116,0.1884 0.0756,0.1164 0.114,0.2604 0.1884,0.3744 0.0396,0.0588 0.1236,0.0876 0.15,0.15 0.012,0.0312 -0.012,0.084 0,0.1128 0.0432,0.096 0.24,0.2148 0.3372,0.2616 0.0456,0.024 0.108,0.0144 0.15,0.0384 0.0636,0.036 0.192,0.132 0.2256,0.1872 0.0276,0.0504 0.0228,0.1824 0.036,0.2628 0.0192,0.1056 -0.0036,0.186 0,0.3 0.0048,0.0624 0.0384,0.0876 0.0384,0.15 v 0.1116 c -0.0012,0.0744 0.006,0.15 0,0.2256 a 0.7104,0.7104 0 0 0 0,0.1128 c 0.0036,0.036 0.036,0.0408 0.0372,0.0744 0.0024,0.036 -0.0408,0.0852 -0.0372,0.1128 0.0084,0.0756 0.06,0.1176 0.0756,0.1872 0.012,0.0552 0.0444,0.1968 0.036,0.2628 -0.0036,0.0348 -0.0312,0.072 -0.036,0.1128 -0.0036,0.0312 0.0036,0.0456 0,0.0744 -0.0036,0.0276 0.006,0.0528 0,0.0756 C 22.0372,28.2388 22,28.2124 21.9628,28.1872 a 6.2436,6.2436 0 0 1 -0.9,-0.75 L 20.95,27.3256 a 6.24,6.24 0 0 1 -0.6,-0.75 C 20.3332,26.5516 20.3284,26.524 20.3128,26.5 A 5.7888,5.7888 0 0 1 19.7872,25.5244 C 19.7764,25.5004 19.7608,25.4764 19.75,25.45 A 6.0216,6.0216 0 0 1 19.4128,24.2872 6.0096,6.0096 0 0 1 19.3,23.2 c 0,-0.2856 0.036,-0.5508 0.0756,-0.8256 z M 21.7,23.0128 c 0.0576,-0.0264 0.0468,0.066 0,0.0744 -0.0444,0.012 -0.0432,-0.0528 0,-0.0744 z"
     fill="#232629"
     style="stroke-width:1.2"
     id="path13" />
</svg>
