<?xml version="1.0" encoding="UTF-8" standalone="no"?>
<!-- Created with Inkscape (http://www.inkscape.org/) -->

<svg
   width="32"
   version="1.1"
   height="32"
   id="svg1"
   sodipodi:docname="preferences-web-browser-adblock.svg"
   xmlns:inkscape="http://www.inkscape.org/namespaces/inkscape"
   xmlns:sodipodi="http://sodipodi.sourceforge.net/DTD/sodipodi-0.dtd"
   xmlns="http://www.w3.org/2000/svg"
   xmlns:svg="http://www.w3.org/2000/svg">
  <sodipodi:namedview
     id="namedview1"
     pagecolor="#ffffff"
     bordercolor="#000000"
     borderopacity="0.25"
     inkscape:showpageshadow="2"
     inkscape:pageopacity="0.0"
     inkscape:pagecheckerboard="0"
     inkscape:deskcolor="#d1d1d1" />
  <defs
     id="defs5455">
    <style
       id="current-color-scheme"
       type="text/css">.ColorScheme-Text {color:#d8dee9} .ColorScheme-Highlight {color:#3b4252}</style>
  </defs>
  <metadata
     id="metadata5458" />
  <g
     inkscape:label="Capa 1"
     inkscape:groupmode="layer"
     id="layer1"
     transform="matrix(1 0 0 1 -384.57143 -515.798)"
     style="">
    <rect
       width="38.400002"
       x="381.37143"
       y="514.99799"
       rx="0"
       height="33.599998"
       style="fill:currentColor;stroke-width:1.2"
       id="rect4641-5"
       class="ColorScheme-Highlight" />
    <path
       inkscape:connector-curvature="0"
       style="opacity:0.2;fill:currentColor;fill-rule:evenodd;stroke-width:1.2"
       id="path4167"
       d="m 382.57143,546.198 36,-24 1.20001,1.2 -10e-6,25.19997 -34.8,3e-5 z"
       class="ColorScheme-Text" />
    <rect
       width="38.400013"
       x="381.3714"
       y="514.99799"
       height="4.8000002"
       style="fill:#566069;stroke-width:1.2"
       id="rect4647-8" />
    <rect
       width="38.39996"
       x="381.3714"
       y="519.79797"
       height="1.2"
       style="fill:#3daee9;stroke-width:1.2"
       id="rect4649-8" />
    <rect
       width="36"
       x="382.57141"
       y="522.198"
       height="24.000036"
       style="fill:#ffffff;stroke-width:1.2"
       id="rect4653-5" />
    <rect
       width="2.4000001"
       x="416.17142"
       y="516.198"
       rx="1.2"
       height="2.4000001"
       style="fill:#eff0f1;stroke-width:1.2"
       id="rect4661-1" />
    <path
       style="fill:currentColor;stroke-width:2.4"
       id="rect3814"
       d="m 383.77143,523.398 v 1.2 h 32.4 v -1.2 z m 0,3.6 v 1.2 h 26.4 v -1.2 z m 0,3.6 v 1.2 h 10.8 v -1.2 z m 19.2,0 v 14.4 h 14.4 v -14.4 z m 1.2,1.2 h 12 v 10.8 1.2 h -12 v -1.2 z m 0,10.8 h 2.4 l 2.4,-2.4 -1.2,-1.2 z m 12,0 -3.6,-3.6 -3.6,3.6 z m -9,-9.6 c -0.9972,0 -1.8,0.8028 -1.8,1.8 0,0.9972 0.8028,1.8 1.8,1.8 0.9972,0 1.8,-0.8028 1.8,-1.8 0,-0.9972 -0.8028,-1.8 -1.8,-1.8 z m -23.4,1.2 v 1.2 h 16.8 v -1.2 z m 0,3.6 v 1.2 h 13.2 v -1.2 z m 0,3.6 v 1.2 h 16.8 v -1.2 z"
       class="ColorScheme-Text" />
    <path
       inkscape:connector-curvature="0"
       style="opacity:0.2;fill:currentColor;fill-rule:evenodd;stroke-width:1.2"
       id="path4165"
       d="m 411.49096,530.81597 -1.31953,0.6 v 0.38203 h -2.4 c 0,0 -1.2,1.2 -2.4,1.2 -1.2,0 -1.2,2.4 -1.2,2.4 v 3.6 l 1.2,3.6 0.33984,-0.59297 0.14063,1.41094 5.51953,5.18203 h 8.4 v -10.8 l -4.31953,-4.82343 0.60937,1.83515 z"
       class="ColorScheme-Text" />
    <path
       style="fill:#da4453;stroke-width:2.4"
       id="path3806"
       d="m 410.17143,530.598 c -3.97645,0 -7.2,3.22355 -7.2,7.2 0,3.97645 3.22355,7.2 7.2,7.2 3.97645,0 7.2,-3.22355 7.2,-7.2 0,-3.97645 -3.22355,-7.2 -7.2,-7.2 z m 0,1.2 c 3.3137,0 6,2.6863 6,6 0,1.44613 -0.53306,2.75383 -1.38516,3.78985 l -8.40468,-8.40469 c 1.03602,-0.8521 2.34371,-1.38516 3.78984,-1.38516 z m -4.61484,2.21016 8.40468,8.40469 c -1.03602,0.8521 -2.34371,1.38515 -3.78984,1.38515 -3.3137,0 -6,-2.68629 -6,-6 0,-1.44613 0.53306,-2.75382 1.38516,-3.78984 z" />
    <path
       style="fill:#da4453;stroke-width:2.4"
       id="path4164"
       d="m 410.17143,530.598 c -3.97645,0 -7.2,3.22355 -7.2,7.2 0,3.97645 3.22355,7.2 7.2,7.2 3.97645,0 7.2,-3.22355 7.2,-7.2 0,-3.97645 -3.22355,-7.2 -7.2,-7.2 z m 0,1.2 c 3.3137,0 6,2.6863 6,6 0,1.44613 -0.53306,2.75383 -1.38516,3.78985 l -8.40468,-8.40469 c 1.03602,-0.8521 2.34371,-1.38516 3.78984,-1.38516 z m -4.61484,2.21016 8.40468,8.40469 c -1.03602,0.8521 -2.34371,1.38515 -3.78984,1.38515 -3.3137,0 -6,-2.68629 -6,-6 0,-1.44613 0.53306,-2.75382 1.38516,-3.78984 z" />
  </g>
</svg>
