<?xml version="1.0" encoding="UTF-8" standalone="no"?>
<svg
   width="64"
   height="64"
   version="1.1"
   viewBox="0 0 16.933 16.933"
   id="svg7"
   sodipodi:docname="preferences-plugin.svg"
   inkscape:version="1.4.2 (ebf0e940d0, 2025-05-08)"
   xmlns:inkscape="http://www.inkscape.org/namespaces/inkscape"
   xmlns:sodipodi="http://sodipodi.sourceforge.net/DTD/sodipodi-0.dtd"
   xmlns="http://www.w3.org/2000/svg"
   xmlns:svg="http://www.w3.org/2000/svg"
   xmlns:rdf="http://www.w3.org/1999/02/22-rdf-syntax-ns#"
   xmlns:cc="http://creativecommons.org/ns#"
   xmlns:dc="http://purl.org/dc/elements/1.1/">
  <sodipodi:namedview
     id="namedview7"
     pagecolor="#9c4444"
     bordercolor="#000000"
     borderopacity="0.25"
     inkscape:showpageshadow="2"
     inkscape:pageopacity="0.0"
     inkscape:pagecheckerboard="0"
     inkscape:deskcolor="#d1d1d1"
     inkscape:zoom="6.15625"
     inkscape:cx="15.756345"
     inkscape:cy="29.64467"
     inkscape:window-width="1226"
     inkscape:window-height="669"
     inkscape:window-x="0"
     inkscape:window-y="0"
     inkscape:window-maximized="0"
     inkscape:current-layer="svg7"
     showgrid="false" />
  <defs
     id="defs2">
    <style
       id="current-color-scheme"
       type="text/css">.ColorScheme-Text {color:#d8dee9} .ColorScheme-Highlight {color:#3b4252}</style>
  </defs>
  <metadata
     id="metadata2">
    <rdf:RDF>
      <cc:Work
         rdf:about="">
        <dc:format>image/svg+xml</dc:format>
        <dc:type
           rdf:resource="http://purl.org/dc/dcmitype/StillImage" />
      </cc:Work>
    </rdf:RDF>
  </metadata>
  <path
     style="fill:currentColor;fill-opacity:1;stroke:none;stroke-width:0.0489625;stroke-dashoffset:2.2;stroke-opacity:0.3"
     d="M 2.7515692,14.734931 C 2.5243356,14.615141 2.3797678,14.467134 2.2810409,14.253221 2.1985698,14.07453 2.1905562,13.903999 2.1895746,12.306957 l -0.00105,-1.750412 0.2080915,0.0011 c 0.1406041,7.75e-4 0.2874877,0.04784 0.4529031,0.145132 0.745783,0.43864 1.0255316,0.492459 1.3765881,0.26483 C 4.6745927,10.676871 4.9044231,10.09752 4.8725965,9.338029 4.8430438,8.6328233 4.5900996,8.1412972 4.1367413,7.9081005 3.817209,7.7437402 3.5472889,7.8009409 3.0011479,8.1487505 2.700022,8.340523 2.4627675,8.4202119 2.3083341,8.3814513 L 2.1885276,8.3513831 V 6.9789318 c 0,-1.4898295 0.0049,-1.5208332 0.2871244,-1.824864 C 2.7558841,4.8522077 2.7452197,4.8538315 4.5566405,4.8371905 L 6.2147953,4.8219645 6.1943883,4.5398769 C 6.1779259,4.3122763 6.1296033,4.1832142 5.9442175,3.8717025 5.5704245,3.2435993 5.57227,2.9573797 5.952565,2.5770833 6.2877879,2.2418603 6.6356773,2.1166257 7.2316692,2.1166257 c 0.595992,0 0.9438815,0.1252346 1.2791044,0.4604576 0.3802961,0.3802964 0.3821419,0.666516 0.00835,1.2946192 C 8.3328857,4.1846452 8.2854492,4.3117974 8.268735,4.5428694 l -0.020621,0.285079 h 1.4169125 c 1.5961895,0 1.7937165,0.029293 2.0544215,0.3046745 0.28953,0.3058308 0.284101,0.2692159 0.310555,2.0944926 l 0.02449,1.6892092 0.116592,0.016493 c 0.214253,0.030301 0.418865,-0.038971 0.830162,-0.2810497 0.224486,-0.1321239 0.483426,-0.2543483 0.575425,-0.2716077 0.347289,-0.065152 0.801735,0.2708719 1.003769,0.742198 0.40375,0.9419147 0.02533,2.1903127 -0.73277,2.4174467 -0.184186,0.05518 -0.217318,0.04805 -0.553872,-0.119388 -0.196892,-0.09796 -0.456952,-0.234216 -0.577926,-0.302827 -0.164454,-0.09326 -0.275635,-0.121117 -0.440662,-0.110316 l -0.220713,0.0145 -0.02449,1.566803 c -0.02635,1.686706 -0.03138,1.71943 -0.301365,1.965016 -0.270016,0.245606 -0.363753,0.26278 -1.434376,0.26278 H 9.2880981 v -0.187555 c 0,-0.109056 0.054005,-0.288351 0.1290535,-0.428424 0.07098,-0.132475 0.1921627,-0.359649 0.2692947,-0.504822 0.4214377,-0.793211 -0.1851123,-1.527031 -1.3286373,-1.607421 -0.8757328,-0.06156 -1.6658945,0.392867 -1.7480423,1.005321 -0.032134,0.239583 0.035176,0.450387 0.2626465,0.822571 0.2042152,0.334133 0.3146219,0.65287 0.2765605,0.798416 -0.026486,0.101292 -0.039491,0.101904 -2.138571,0.09996 -1.8285429,-0.0017 -2.1316302,-0.01238 -2.2588087,-0.0794 z"
     id="path1-7"
     class="ColorScheme-Text" />
</svg>
