<?xml version="1.0" encoding="UTF-8" standalone="no"?>
<svg
   width="64"
   height="64"
   version="1.1"
   viewBox="0 0 16.933 16.933"
   id="svg7"
   sodipodi:docname="preferences-gtk-config.svg"
   inkscape:version="1.4.2 (ebf0e940d0, 2025-05-08)"
   xmlns:inkscape="http://www.inkscape.org/namespaces/inkscape"
   xmlns:sodipodi="http://sodipodi.sourceforge.net/DTD/sodipodi-0.dtd"
   xmlns="http://www.w3.org/2000/svg"
   xmlns:svg="http://www.w3.org/2000/svg"
   xmlns:rdf="http://www.w3.org/1999/02/22-rdf-syntax-ns#"
   xmlns:cc="http://creativecommons.org/ns#"
   xmlns:dc="http://purl.org/dc/elements/1.1/">
  <sodipodi:namedview
     id="namedview7"
     pagecolor="#9c4444"
     bordercolor="#000000"
     borderopacity="0.25"
     inkscape:showpageshadow="2"
     inkscape:pageopacity="0.0"
     inkscape:pagecheckerboard="0"
     inkscape:deskcolor="#d1d1d1"
     inkscape:zoom="6.15625"
     inkscape:cx="15.756345"
     inkscape:cy="29.64467"
     inkscape:window-width="1226"
     inkscape:window-height="669"
     inkscape:window-x="0"
     inkscape:window-y="0"
     inkscape:window-maximized="0"
     inkscape:current-layer="svg7"
     showgrid="false" />
  <defs
     id="defs2">
    <style
       id="current-color-scheme"
       type="text/css">.ColorScheme-Text {color:#d8dee9} .ColorScheme-Highlight {color:#3b4252}</style>
  </defs>
  <metadata
     id="metadata2">
    <rdf:RDF>
      <cc:Work
         rdf:about="">
        <dc:format>image/svg+xml</dc:format>
        <dc:type
           rdf:resource="http://purl.org/dc/dcmitype/StillImage" />
      </cc:Work>
    </rdf:RDF>
  </metadata>
  <path
     id="path15571"
     style="fill:currentColor;stroke:none;stroke-width:0.391168;stroke-dasharray:none;stroke-opacity:0.3"
     d="m 12.589314,2.1169491 c -0.83584,0.014845 -1.641959,0.5342773 -2.03835,1.3591539 -0.464183,0.965948 -0.389529,1.9783114 0.167316,2.2759537 0.157819,0.084358 0.23721,0.1009236 0.394222,0.08022 0.769878,-0.1015128 1.86351,-1.1024885 2.365342,-2.1651738 0.148957,-0.3154 0.162714,-0.3778843 0.163495,-0.7326749 l 0.0014,-0.3881113 -0.17954,-0.1673157 C 13.335081,2.2593264 13.217498,2.1971362 13.053792,2.162025 12.899349,2.1289008 12.744062,2.1141996 12.589278,2.1169495 Z M 8.6348542,2.712104 C 8.0430346,2.726061 7.6865714,3.162157 7.6485316,3.9184592 7.6381286,4.1252452 7.6521727,4.4030982 7.6798561,4.536534 7.7501272,4.8750256 7.952824,5.2830558 8.1206842,5.4243008 8.4085963,5.6665627 8.6905447,5.5182187 8.9763631,4.9743052 9.3067139,4.3456465 9.4145149,3.4780824 9.2116745,3.0811158 9.0700314,2.8039118 8.9159148,2.705474 8.6348554,2.712104 Z m -2.6778167,0.57682 c -0.07963,-0.00156 -0.165349,0.011832 -0.2567038,0.038968 -0.4991684,0.148237 -0.760242,0.5965113 -0.6669713,1.1452345 0.088922,0.5231438 0.5024662,1.1548932 0.8602629,1.3148423 0.077423,0.03461 0.2001795,0.053179 0.2727483,0.041256 C 6.6752066,5.745627 6.8900437,4.4298759 6.5155206,3.6907899 6.3822311,3.4277566 6.1959247,3.2936515 5.9570375,3.2889262 Z M 4.0531514,5.3249815 C 3.8018381,5.3240426 3.5331091,5.4526987 3.3815962,5.6756566 c -0.086927,0.1279228 -0.1010124,0.1950352 -0.08633,0.4049193 0.01427,0.2040177 0.049698,0.2985853 0.1887079,0.5004195 0.1899893,0.2758571 0.5309492,0.5558793 0.794559,0.6524558 0.094722,0.034702 0.2078228,0.064746 0.2513556,0.066469 0.1445654,0.00566 0.3285487,-0.1242697 0.378178,-0.2666361 C 5.0796245,6.5411546 4.7903654,5.6653311 4.3725035,5.4105492 4.2781244,5.3530036 4.1673857,5.325407 4.0531514,5.3249815 Z M 9.2552213,6.4755636 C 8.4000035,6.4889611 7.4404312,6.6992641 6.6240086,7.1028074 5.1398286,7.8364096 4.3534501,8.9836928 4.4420273,10.285623 c 0.037494,0.551088 0.1716971,1.012402 0.4683314,1.612804 0.7311412,1.47987 2.0917105,2.604894 3.4800155,2.877219 0.3036637,0.05957 0.8311662,0.05279 1.0810592,-0.01374 1.1309446,-0.301118 2.1771556,-1.410325 2.4348656,-2.581552 0.04721,-0.214629 0.0445,-0.266046 -0.0214,-0.40492 C 11.668689,11.319799 10.54716,11.26389 9.7785544,11.669998 9.4395706,11.849107 9.3789259,11.949103 9.3728711,12.336969 9.3644891,12.874183 9.1670215,13.118007 8.7433354,13.11472 8.3111963,13.111299 7.8460596,12.850946 7.6874905,12.523386 7.4977156,12.131365 7.6073704,11.773876 8.03893,11.374329 8.182829,11.241104 8.792502,10.806675 9.3935004,10.408634 10.724982,9.5267965 11.195764,9.1105646 11.45477,8.5864998 11.604296,8.283954 11.619732,8.2202082 11.61903,7.898901 11.618133,7.4909232 11.538688,7.2980401 11.260713,7.0302338 10.861629,6.6457345 10.110439,6.4621646 9.2552206,6.475566 Z"
     class="ColorScheme-Text" />
</svg>
