<?xml version="1.0" encoding="UTF-8" standalone="no"?>
<svg
   width="64"
   height="64"
   version="1.1"
   viewBox="0 0 16.933 16.933"
   id="svg7"
   sodipodi:docname="system-lock-screen.svg"
   inkscape:version="1.4.2 (ebf0e940d0, 2025-05-08)"
   xmlns:inkscape="http://www.inkscape.org/namespaces/inkscape"
   xmlns:sodipodi="http://sodipodi.sourceforge.net/DTD/sodipodi-0.dtd"
   xmlns="http://www.w3.org/2000/svg"
   xmlns:svg="http://www.w3.org/2000/svg"
   xmlns:rdf="http://www.w3.org/1999/02/22-rdf-syntax-ns#"
   xmlns:cc="http://creativecommons.org/ns#"
   xmlns:dc="http://purl.org/dc/elements/1.1/">
  <sodipodi:namedview
     id="namedview7"
     pagecolor="#9c4444"
     bordercolor="#000000"
     borderopacity="0.25"
     inkscape:showpageshadow="2"
     inkscape:pageopacity="0.0"
     inkscape:pagecheckerboard="0"
     inkscape:deskcolor="#d1d1d1"
     inkscape:zoom="6.15625"
     inkscape:cx="15.756345"
     inkscape:cy="29.64467"
     inkscape:window-width="1226"
     inkscape:window-height="669"
     inkscape:window-x="0"
     inkscape:window-y="0"
     inkscape:window-maximized="0"
     inkscape:current-layer="svg7"
     showgrid="false" />
  <defs
     id="defs2">
    <style
       id="current-color-scheme"
       type="text/css">.ColorScheme-Text {color:#d8dee9} .ColorScheme-Highlight {color:#3b4252}</style>
  </defs>
  <metadata
     id="metadata2">
    <rdf:RDF>
      <cc:Work
         rdf:about="">
        <dc:format>image/svg+xml</dc:format>
        <dc:type
           rdf:resource="http://purl.org/dc/dcmitype/StillImage" />
      </cc:Work>
    </rdf:RDF>
  </metadata>
  <path
     id="path5"
     style="fill:currentColor;fill-opacity:1;stroke:none;stroke-width:0.381617;stroke-dasharray:none;stroke-opacity:0.3"
     class="ColorScheme-Text"
     d="m 2.9103594,2.9103592 c -0.7937346,0 -0.7937344,0.7937345 -0.7937344,0.7937345 v 7.9373433 c 0,0.793735 0.7937344,0.793735 0.7937344,0.793735 h 3.9686718 c 0,0 -0.7937344,0 -0.7937344,0.793734 v 0.793735 h 4.7624062 v -0.793735 c 0,-0.793734 -0.793734,-0.793734 -0.793734,-0.793734 h 3.968672 c 0.793734,0 0.793734,-0.793735 0.793734,-0.793735 V 3.7040937 c 0,0 0,-0.7937345 -0.793734,-0.7937345 z M 3.7040938,4.4978281 H 13.228906 V 10.847703 H 3.7040938 Z M 5.9184887,6.81206 A 0.96851488,0.86866518 0 0 0 4.9498847,7.6808269 0.96851488,0.86866518 0 0 0 5.9184887,8.5489741 0.96851488,0.86866518 0 0 0 6.8870926,7.6808269 0.96851488,0.86866518 0 0 0 5.9184887,6.81206 Z M 11.047997,6.832523 A 0.96851488,0.86866518 0 0 0 10.079393,7.7012899 0.96851488,0.86866518 0 0 0 11.047997,8.5700571 0.96851488,0.86866518 0 0 0 12.016601,7.7012899 0.96851488,0.86866518 0 0 0 11.047997,6.832523 Z M 8.5006056,6.836863 A 0.96851488,0.86866518 0 0 0 7.5326218,7.7056312 0.96851488,0.86866518 0 0 0 8.5006056,8.5743984 0.96851488,0.86866518 0 0 0 9.4692099,7.7056312 0.96851488,0.86866518 0 0 0 8.5006056,6.8368642 Z" />
</svg>
