<?xml version="1.0" encoding="UTF-8" standalone="no"?>
<svg
   width="64"
   height="64"
   version="1.1"
   viewBox="0 0 16.933 16.933"
   id="svg7"
   sodipodi:docname="yast-samba-client.svg"
   inkscape:version="1.4.2 (ebf0e940d0, 2025-05-08)"
   xmlns:inkscape="http://www.inkscape.org/namespaces/inkscape"
   xmlns:sodipodi="http://sodipodi.sourceforge.net/DTD/sodipodi-0.dtd"
   xmlns="http://www.w3.org/2000/svg"
   xmlns:svg="http://www.w3.org/2000/svg"
   xmlns:rdf="http://www.w3.org/1999/02/22-rdf-syntax-ns#"
   xmlns:cc="http://creativecommons.org/ns#"
   xmlns:dc="http://purl.org/dc/elements/1.1/">
  <sodipodi:namedview
     id="namedview7"
     pagecolor="#9c4444"
     bordercolor="#000000"
     borderopacity="0.25"
     inkscape:showpageshadow="2"
     inkscape:pageopacity="0.0"
     inkscape:pagecheckerboard="0"
     inkscape:deskcolor="#d1d1d1"
     inkscape:zoom="6.15625"
     inkscape:cx="15.756345"
     inkscape:cy="29.64467"
     inkscape:window-width="1226"
     inkscape:window-height="669"
     inkscape:window-x="0"
     inkscape:window-y="0"
     inkscape:window-maximized="0"
     inkscape:current-layer="svg7"
     showgrid="false" />
  <defs
     id="defs2">
    <style
       id="current-color-scheme"
       type="text/css">.ColorScheme-Text {color:#d8dee9} .ColorScheme-Highlight {color:#3b4252}</style>
  </defs>
  <metadata
     id="metadata2">
    <rdf:RDF>
      <cc:Work
         rdf:about="">
        <dc:format>image/svg+xml</dc:format>
        <dc:type
           rdf:resource="http://purl.org/dc/dcmitype/StillImage" />
      </cc:Work>
    </rdf:RDF>
  </metadata>
  <g
     id="g15"
     transform="matrix(0.88192708,0,0,0.88192708,-12.69975,-10.935896)"
     style="fill:currentColor"
     class="ColorScheme-Text">
    <path
       d="M 28.7232,23.2 A 2.4,2.4 0 0 1 28.8,23.8 v 0.6 a 2.4,2.4 0 0 1 -2.4,2.4 h -1.2 v 2.4 h 6 v -6 h -2.4 z"
       id="path13"
       style="fill:currentColor;stroke-width:1.2"
       class="ColorScheme-Text" />
    <path
       d="m 25.2,23.2 v 2.4 h 1.2 a 1.2084,1.2084 0 0 0 0.354,-0.054 1.1964,1.1964 0 0 0 0.42,-0.228 1.2,1.2 0 0 0 0.2952,-0.3744 A 1.1964,1.1964 0 0 0 27.6,24.4 v -0.6 a 1.2,1.2 0 0 0 -0.1644,-0.6 z m -8.4,0 v 6 h 6 v -2.4 h -3.6 v -1.2 h 3.6 v -2.4 z m 0,-8.4 v 6 h 2.4768 A 2.4,2.4 0 0 1 19.2,20.2 v -0.6 a 2.4,2.4 0 0 1 2.4,-2.4 h 1.2 v -2.4 z"
       id="path14"
       style="fill:currentColor;stroke-width:1.2"
       class="ColorScheme-Text" />
    <path
       d="m 21.6,18.4 a 1.2084,1.2084 0 0 0 -0.354,0.054 1.1964,1.1964 0 0 0 -0.42,0.228 1.2,1.2 0 0 0 -0.2952,0.3744 A 1.1964,1.1964 0 0 0 20.4,19.6 v 0.6 a 1.2,1.2 0 0 0 0.1644,0.6 H 22.8 v -2.4 z m 3.6,-3.6 v 2.4 h 3.6 v 1.2 h -3.6 v 2.4 h 6 v -6 z"
       id="path15"
       style="fill:currentColor;stroke-width:1.2"
       class="ColorScheme-Text" />
  </g>
</svg>
