<?xml version="1.0" encoding="UTF-8" standalone="no"?>
<svg
   height="32"
   width="32"
   version="1.1"
   id="svg25"
   sodipodi:docname="yast-disk.svg"
   xmlns:inkscape="http://www.inkscape.org/namespaces/inkscape"
   xmlns:sodipodi="http://sodipodi.sourceforge.net/DTD/sodipodi-0.dtd"
   xmlns:xlink="http://www.w3.org/1999/xlink"
   xmlns="http://www.w3.org/2000/svg"
   xmlns:svg="http://www.w3.org/2000/svg">
  <defs
     id="defs25" />
  <sodipodi:namedview
     id="namedview25"
     pagecolor="#ffffff"
     bordercolor="#000000"
     borderopacity="0.25"
     inkscape:showpageshadow="2"
     inkscape:pageopacity="0.0"
     inkscape:pagecheckerboard="0"
     inkscape:deskcolor="#d1d1d1" />
  <linearGradient
     id="a"
     gradientUnits="userSpaceOnUse">
    <stop
       offset="0"
       stop-color="#292c2f"
       id="stop1" />
    <stop
       offset="1"
       stop-opacity="0"
       id="stop2" />
  </linearGradient>
  <linearGradient
     id="c"
     x1="-421.447"
     x2="-410.447"
     xlink:href="#a"
     y1="-504.204"
     y2="-493.204"
     gradientTransform="matrix(1.2,0,0,1.2,-3.2,-3.2)" />
  <linearGradient
     id="e"
     gradientUnits="userSpaceOnUse"
     x1="16"
     x2="16"
     y1="22"
     y2="6"
     gradientTransform="matrix(1.2,0,0,1.2,-3.2,-3.2)">
    <stop
       offset="0"
       stop-color="#73ba25"
       id="stop3" />
    <stop
       offset="1"
       stop-color="#81c13b"
       id="stop4" />
  </linearGradient>
  <linearGradient
     id="f"
     gradientUnits="userSpaceOnUse"
     x1="16"
     x2="16"
     y1="22"
     y2="6"
     gradientTransform="matrix(1.2,0,0,1.2,-3.2,-3.2)">
    <stop
       offset="0"
       stop-color="#173f4f"
       id="stop5" />
    <stop
       offset="1"
       stop-color="#2f5361"
       id="stop6" />
  </linearGradient>
  <linearGradient
     id="g"
     gradientUnits="userSpaceOnUse"
     x1="16"
     x2="16"
     y1="22"
     y2="6"
     gradientTransform="matrix(1.2,0,0,1.2,-3.2,-3.2)">
    <stop
       offset="0"
       stop-color="#35b9ab"
       id="stop7" />
    <stop
       offset="1"
       stop-color="#4ac0b4"
       id="stop8" />
  </linearGradient>
  <linearGradient
     id="h"
     x1="9.088"
     x2="23.102"
     xlink:href="#a"
     y1="9.986"
     y2="24"
     gradientTransform="matrix(1.2,0,0,1.2,-3.2,-3.2)" />
  <linearGradient
     id="j"
     x1="16"
     x2="25"
     xlink:href="#a"
     y1="14"
     y2="23"
     gradientTransform="matrix(1.2,0,0,1.2,-3.2,-3.2)" />
  <linearGradient
     id="i"
     x1="8"
     x2="21"
     xlink:href="#a"
     y1="14"
     y2="27"
     gradientTransform="matrix(1.2,0,0,1.2,-3.2,-3.2)" />
  <linearGradient
     id="d"
     gradientTransform="matrix(0.626088,0,0,0.646152,-4.0352,-4.676)"
     gradientUnits="userSpaceOnUse"
     x1="1.333"
     x2="1.333"
     y1="48.714"
     y2="9.714">
    <stop
       offset="0"
       stop-color="#eef1f2"
       id="stop9" />
    <stop
       offset="1"
       stop-color="#f9fafb"
       id="stop10" />
  </linearGradient>
  <linearGradient
     id="b"
     gradientTransform="matrix(0.704352,0,0,0.646152,-276.7856,-327.6236)"
     gradientUnits="userSpaceOnUse"
     x1="388.423"
     x2="388.423"
     y1="557.798"
     y2="505.798">
    <stop
       offset="0"
       stop-color="#7f8c8d"
       id="stop11" />
    <stop
       offset="1"
       stop-color="#afb0b3"
       id="stop12" />
  </linearGradient>
  <path
     d="M 1.6,-0.8 H 30.4 V 32.8 H 1.6 Z"
     fill="url(#b)"
     style="fill:url(#b);stroke-width:1.2"
     id="path12" />
  <path
     d="m 5.2,29.2 h 21.6 v 3.6 H 5.2 Z"
     fill="#292c2e"
     style="stroke-width:1.2"
     id="path13" />
  <path
     d="m 7.6,30.4 h 10.8 v 1.2 H 7.6 Z m 12,0 h 4.8 v 1.2 h -4.8 z"
     fill="#f6b44d"
     style="stroke-width:1.2"
     id="path14" />
  <path
     d="m 25.6,29.2 h 4.8 v 3.6 h -4.8 z m -24,0 h 4.8 v 3.6 H 1.6 Z"
     fill="#292c2f"
     opacity="0.2"
     style="stroke-width:1.2"
     id="path15" />
  <path
     d="m 1.6,29.2 h 4.8 v 3.6 H 5.2 Z m 24,0 h 4.8 v 3.6 h -4.8 z"
     fill="#292c2f"
     opacity="0.2"
     style="stroke-width:1.2"
     id="path16" />
  <path
     d="M 26.242,3.358 30.4,7.5136 V 32.8 H 13.6 L 4,23.2 Z"
     fill="url(#c)"
     opacity="0.2"
     style="fill:url(#c);stroke-width:1.2"
     id="path17" />
  <path
     d="m 10,1.6 a 6,6 0 0 0 -6,6 v 5.7216 A 3.6,3.6 0 0 1 5.1952,15.862 2.4,2.4 0 0 1 5.2,16 a 2.4,2.4 0 0 1 -0.012,0.24 3.6,3.6 0 0 1 0,0.006 A 3.6,3.6 0 0 1 4,18.676 V 23.2 l 3.6,3.6 H 24.4 L 28,23.2 V 18.6784 A 3.6,3.6 0 0 1 26.8048,16.138 2.4,2.4 0 0 1 26.8,16 2.4,2.4 0 0 1 26.812,15.754 3.6,3.6 0 0 1 28,13.324 V 7.6 a 6,6 0 0 0 -6,-6 z"
     fill="url(#d)"
     style="fill:url(#d);stroke-width:1.2"
     id="path18" />
  <path
     d="M 16,4 A 9.6,9.6 0 0 0 7.7056,8.7832 L 16,12.9292 24.2896,8.7832 A 9.6,9.6 0 0 0 16,4 Z"
     fill="url(#e)"
     style="fill:url(#e);stroke-width:1.2"
     id="path19" />
  <path
     d="M 7.162,9.8524 A 9.6,9.6 0 0 0 6.4,13.6 a 9.6,9.6 0 0 0 9,9.57 v -9.1992 z"
     fill="url(#f)"
     style="fill:url(#f);stroke-width:1.2"
     id="path20" />
  <path
     d="M 24.8284,9.8548 16.6,13.9708 v 9.2076 A 9.6,9.6 0 0 0 25.6,13.6 9.6,9.6 0 0 0 24.8284,9.8548 Z"
     fill="url(#g)"
     style="fill:url(#g);stroke-width:1.2"
     id="path21" />
  <path
     d="m 22.78,6.82 0.06,0.0768 a 9.6,9.6 0 0 1 1.4496,1.8864 L 16,12.9292 7.7056,8.7832 l 2.6808,2.682 5.0136,2.5056 1.2,1.2 v -1.2 L 24.8284,9.8548 30.4,15.424 V 14.44 Z"
     fill="url(#h)"
     opacity="0.2"
     style="fill:url(#h);stroke-width:1.2"
     id="path22" />
  <path
     d="M 15.4,13.9708 V 23.17 A 9.6,9.6 0 0 1 9.3208,20.4832 L 18.034,29.2 h 4.5876 L 16.6,23.1784 V 15.172 Z M 9.3208,20.4832 A 9.6,9.6 0 0 1 9.2224,20.3776 l -0.0048,0.0048 z"
     fill="url(#i)"
     opacity="0.2"
     style="fill:url(#i);stroke-width:1.2"
     id="path23" />
  <path
     d="M 24.8284,9.8548 A 9.6,9.6 0 0 1 25.6,13.6 a 9.6,9.6 0 0 1 -9,9.5784 L 22.6216,29.2 H 30.4 V 15.4252 Z"
     fill="url(#j)"
     opacity="0.2"
     style="fill:url(#j);stroke-width:1.2"
     id="path24" />
  <path
     d="m 1.6,31.6 h 3.6 v 1.2 H 1.6 Z m 25.2,0 h 3.6 v 1.2 h -3.6 z"
     fill="#292c2f"
     opacity="0.2"
     style="stroke-width:1.2"
     id="path25" />
</svg>
