<?xml version="1.0" encoding="UTF-8" standalone="no"?>
<svg
   height="32"
   width="32"
   version="1.1"
   id="svg23"
   sodipodi:docname="yast-sw_source.svg"
   xmlns:inkscape="http://www.inkscape.org/namespaces/inkscape"
   xmlns:sodipodi="http://sodipodi.sourceforge.net/DTD/sodipodi-0.dtd"
   xmlns:xlink="http://www.w3.org/1999/xlink"
   xmlns="http://www.w3.org/2000/svg"
   xmlns:svg="http://www.w3.org/2000/svg">
  <defs
     id="defs23">
    <linearGradient
       inkscape:collect="always"
       xlink:href="#a"
       id="linearGradient23"
       gradientUnits="userSpaceOnUse"
       y1="30"
       x2="0"
       y2="8"
       gradientTransform="matrix(1.2,0,0,1.2,-3.2,-3.2)" />
    <linearGradient
       inkscape:collect="always"
       xlink:href="#b"
       id="linearGradient24"
       gradientUnits="userSpaceOnUse"
       y1="30"
       x2="0"
       y2="8"
       gradientTransform="matrix(1.2,0,0,1.2,-3.2,-3.2)" />
    <linearGradient
       inkscape:collect="always"
       xlink:href="#c"
       id="linearGradient25"
       gradientUnits="userSpaceOnUse"
       gradientTransform="matrix(0.800004,0,0,-0.444444,-310.856,234.3112)"
       x1="408.57"
       y1="512.798"
       x2="408.57"
       y2="504.698" />
  </defs>
  <sodipodi:namedview
     id="namedview23"
     pagecolor="#ffffff"
     bordercolor="#000000"
     borderopacity="0.25"
     inkscape:showpageshadow="2"
     inkscape:pageopacity="0.0"
     inkscape:pagecheckerboard="0"
     inkscape:deskcolor="#d1d1d1" />
  <linearGradient
     id="d"
     gradientUnits="userSpaceOnUse"
     x1="24"
     x2="24"
     xlink:href="#a"
     y1="8"
     y2="2"
     gradientTransform="matrix(1.2,0,0,1.2,-3.2,-3.2)" />
  <linearGradient
     id="g"
     gradientUnits="userSpaceOnUse"
     x1="18"
     x2="30"
     y1="18"
     y2="30"
     gradientTransform="matrix(1.2,0,0,1.2,-3.2,-3.2)">
    <stop
       offset="0"
       stop-color="#292c2f"
       id="stop1" />
    <stop
       offset="1"
       stop-opacity="0"
       id="stop2" />
  </linearGradient>
  <linearGradient
     id="h"
     gradientUnits="userSpaceOnUse"
     x1="22"
     x2="22"
     xlink:href="#b"
     y1="30"
     y2="8"
     gradientTransform="matrix(1.2,0,0,1.2,-3.2,-3.2)" />
  <linearGradient
     id="a"
     gradientUnits="userSpaceOnUse"
     x2="0"
     y1="30"
     y2="8">
    <stop
       offset="0"
       stop-color="#cea476"
       id="stop3" />
    <stop
       offset="1"
       stop-color="#dab58b"
       id="stop4" />
  </linearGradient>
  <linearGradient
     id="e"
     gradientTransform="matrix(0.42,0,0,0.851616,-147.2,-430.3076)"
     gradientUnits="userSpaceOnUse"
     x1="411.427"
     x2="411.427"
     y1="543.8"
     y2="512.8">
    <stop
       offset="0"
       stop-color="#73ba25"
       id="stop5" />
    <stop
       offset="1"
       stop-color="#81c13b"
       stop-opacity=".85"
       id="stop6" />
  </linearGradient>
  <linearGradient
     id="c"
     gradientTransform="matrix(.66667 0 0 -.37037 -256.38 197.926)"
     gradientUnits="userSpaceOnUse"
     x1="408.57"
     x2="408.57"
     y1="512.798"
     y2="504.698">
    <stop
       offset="0"
       stop-color="#ebc69a"
       id="stop7" />
    <stop
       offset="1"
       stop-color="#73ba25"
       stop-opacity="0"
       id="stop8" />
  </linearGradient>
  <linearGradient
     id="f"
     gradientTransform="matrix(0.800004,0,0,0.800004,-310.856,-403.8404)"
     gradientUnits="userSpaceOnUse"
     x1="411.57"
     x2="411.57"
     xlink:href="#c"
     y1="512.801"
     y2="503.801">
    <stop
       offset="0"
       stop-color="#ebc69a"
       id="stop9" />
    <stop
       offset="1"
       stop-color="#f4e0c8"
       stop-opacity="0"
       id="stop10" />
  </linearGradient>
  <linearGradient
     id="b"
     gradientUnits="userSpaceOnUse"
     x2="0"
     y1="30"
     y2="8">
    <stop
       offset="0"
       stop-color="#cfd2d5"
       id="stop11" />
    <stop
       offset="1"
       stop-color="#eff0f1"
       id="stop12" />
  </linearGradient>
  <path
     d="M 4,-0.8 -0.8,6.4 H 32.8 L 28,-0.8 H 5.2 Z"
     fill="url(#d)"
     fill-rule="evenodd"
     style="fill:url(#d);stroke-width:1.2"
     id="path12" />
  <path
     d="M -0.8,6.4 H 32.8 V 32.8 H -0.8 Z"
     fill="url(#a)"
     style="fill:url(#linearGradient23);stroke-width:1.2"
     id="path13" />
  <path
     d="M -0.8,6.4 H 13.6 V 32.8 H -0.8 Z"
     fill="url(#b)"
     style="fill:url(#linearGradient24);stroke-width:1.2"
     id="path14" />
  <path
     d="M 13.6,6.4 H 32.8 V 32.8 H 13.6 Z"
     fill="url(#e)"
     style="fill:url(#e);stroke-width:1.2"
     id="path15" />
  <path
     d="m 0.4,25.6 v 6 h 6 v -6 z m 1.2,1.2 H 2.8 V 28 H 4 v -1.2 h 1.2 v 2.4 H 4 v 1.2 H 2.8 V 29.2 H 1.6 Z"
     fill="#5c4c3e"
     style="stroke-width:1.2"
     id="path16" />
  <g
     stroke-opacity=".55"
     stroke-width="1.867"
     style=""
     id="g19">
    <path
       d="M 13.6,-0.8 V 10 L 14.8,8.8 16,10 17.2,8.8 c 0,0 1.2,1.2 1.2,1.1664 V -0.8 Z"
       fill="#f4e0c8"
       style="stroke-width:2.2404"
       id="path17" />
    <path
       d="m 13.6,-0.8 h 4.8 v 7.2 h -4.8 z"
       fill="url(#f)"
       style="fill:url(#f);stroke-width:2.2404"
       id="path18" />
    <path
       d="M 13.6,6.4 V 10 L 14.8,8.8 16,10 17.2,8.8 c 0,0 1.2,1.2 1.2,1.1676 V 6.4 Z"
       fill="url(#c)"
       style="fill:url(#linearGradient25);stroke-width:2.2404"
       id="path19" />
  </g>
  <path
     d="M 28.2916,18.1084 32.8,22.618 V 32.8 H 22.618 L 18.1084,28.2916 17.2,26.8 16,23.2 l 1.2,-3.6 2.4,-2.4 3.6,-1.2 3.6,1.2 z"
     fill="url(#g)"
     opacity="0.2"
     style="fill:url(#g);stroke-width:1.2"
     id="path20" />
  <path
     d="m 23.2,16 a 7.2,7.2 0 1 0 0,14.4 7.2,7.2 0 0 0 0,-14.4 z m 0,1.2 c 0.2076,0 0.3984,0.0168 0.6,0.0372 0.048,0.0048 0.102,-0.006 0.15,0 0.0636,0.0084 0.1248,0.0276 0.1872,0.0384 0.1728,0.0264 0.3204,0.0708 0.4884,0.1116 0.3072,0.0768 0.612,0.1788 0.9,0.3 0.1572,0.0672 0.2988,0.1452 0.45,0.2256 V 17.95 c 0.0336,0.0156 0.0528,0.0804 0.1116,0.1128 0.0216,0.012 0.018,0.0264 0.0384,0.0372 0.0336,0.0192 0.0816,0.0408 0.0744,0.0756 -0.0096,0.048 -0.0792,0.0372 -0.1128,0.0744 0.0048,0.0696 -0.0564,0.066 -0.0744,0.1128 0.0108,0.03 0.0696,0.0384 0.0744,0.0744 -0.006,0.0384 -0.0888,0.036 -0.0744,0.0756 0.0648,0.0504 0.126,0.012 0.1872,0 0.1344,-0.0168 0.2544,-0.0072 0.3372,-0.0756 -0.0108,-0.0636 0.12,-0.054 0.1128,-0.1116 0.0348,0.024 0.078,0.048 0.1128,0.0744 -0.0132,0.012 -0.024,0.0312 -0.0384,0.0372 -0.024,0.012 -0.0516,0.024 -0.0744,0.0384 L 26.5372,18.55 c -0.0276,0.0192 -0.084,0.1128 -0.1116,0.1128 -0.036,0 -0.0876,-0.0456 -0.1128,-0.0384 -0.036,0.012 -0.0348,0.0612 -0.0756,0.0756 -0.0792,0.0288 -0.2352,-0.0432 -0.2616,0.0756 0.0336,0.0684 0.1644,0.036 0.2244,0.0744 a 0.372,0.372 0 0 1 0.1128,0.15 0.708,0.708 0 0 1 0,0.2256 C 26.2756,19.3216 26.1604,19.3012 26.05,19.3 h -0.0756 c -0.1848,-0.012 -0.366,-0.096 -0.45,0.0372 0.006,0.102 0.024,0.174 0,0.2628 -0.0156,0.0648 -0.1152,0.132 -0.1116,0.1872 0,0.0288 0.0672,0.072 0.0744,0.1128 0.0048,0.0216 -0.0096,0.054 0,0.0756 0.0312,0.0588 0.096,-0.012 0.15,0 0.0528,0.012 0.1128,0.09 0.1128,0.15 a 0.312,0.312 0 0 1 -0.0372,0.15 c -0.0528,0.0792 -0.15,0.0684 -0.2256,0.1116 -0.0624,0.036 -0.0744,0.126 -0.1116,0.1884 -0.0396,0.0672 -0.0912,0.0912 -0.0756,0.1872 a 0.438,0.438 0 0 1 -0.2256,0.2244 c -0.0324,0.0144 -0.0816,0.0168 -0.1116,0.0384 -0.024,0.0168 -0.042,0.0732 -0.0756,0.1116 -0.042,0.048 -0.0888,0.0768 -0.1116,0.1128 -0.018,0.0276 -0.0204,0.0744 -0.0384,0.1128 -0.0264,0.0504 -0.0792,0.0612 -0.1116,0.1116 -0.0156,0.024 -0.0216,0.0816 -0.0384,0.1128 -0.0384,0.0696 -0.0816,0.1272 -0.0744,0.1884 0.006,0.0576 0.072,0.06 0.0744,0.1116 0.0036,0.0288 -0.0384,0.0432 -0.0372,0.0756 0.0012,0.0456 0.0336,0.0756 0.0372,0.1116 0.0084,0.0888 -0.0576,0.1272 -0.0744,0.1884 -0.0084,0.0288 0.0072,0.0504 0,0.0744 -0.0144,0.0444 -0.0744,0.0972 -0.0756,0.15 0,0.0372 0.072,0.06 0.0756,0.1128 0.0024,0.0348 -0.0444,0.0792 -0.0384,0.1128 0.0132,0.0648 0.138,0.1368 0.1884,0.1872 0.0684,0.0684 0.1572,0.1152 0.1872,0.1872 0.0252,0.0612 0.0288,0.18 0.0756,0.2256 0.0336,0.0336 0.1056,0.0384 0.15,0.0744 0.0408,0.0324 0.0672,0.0396 0.1116,0.0756 0.0732,0.0576 0.1836,0.1956 0.3,0.1872 0.0612,-0.012 0.12,-0.0624 0.1884,-0.0756 0.0708,-0.012 0.1524,-0.0432 0.2244,-0.036 0.0552,0.012 0.1296,0.0396 0.1872,0.036 0.06,-0.012 0.12,-0.0072 0.1884,-0.036 0.1188,-0.0528 0.3144,-0.138 0.4872,-0.114 0.132,0.0192 0.132,0.1668 0.2244,0.2256 0.1056,0.012 0.1788,-0.0204 0.2628,0 0.0636,0.0156 0.144,0.0996 0.15,0.15 0.006,0.0516 -0.0684,0.1176 -0.0756,0.15 -0.0156,0.0696 0.012,0.144 0,0.1872 -0.0096,0.036 -0.0384,0.078 -0.036,0.1128 0,0.0312 0.042,0.108 0.0744,0.15 0.0396,0.0504 0.102,0.096 0.15,0.15 0.0876,0.1008 0.126,0.204 0.1872,0.3372 0.0156,0.0336 -0.0144,0.0696 0,0.1128 -0.0264,0.2016 -0.0936,0.3396 -0.2256,0.5628 -0.0612,0.072 -0.1512,0.1344 -0.15,0.2244 -0.0036,0.216 0.1224,0.354 0.1128,0.5628 -0.0216,0.2808 0.0216,0.3 0,0.45 0.096,0.048 0.0276,0.2004 0,0.3 -0.0408,0.1188 -0.0888,0.1452 -0.1116,0.2256 0.0636,0.0276 0.1536,0.0156 0.2244,0 l -0.1128,0.1116 a 6.2436,6.2436 0 0 1 -0.9,0.75 5.928,5.928 0 0 1 -2.0616,0.9 A 5.982,5.982 0 0 1 23.2,29.2 c -0.228,0 -0.4536,-0.012 -0.6756,-0.0372 C 22.3492,29.1424 22.1716,29.122 22,29.0872 21.6604,29.0176 21.3412,28.8748 21.0244,28.75 c -0.0108,-0.0204 -0.0396,-0.0504 -0.036,-0.0756 0.0612,-0.0264 0.1788,0.0888 0.2244,0 0.0228,-0.042 -0.03,-0.144 0,-0.1872 0.0216,-0.0288 0.1428,-0.0288 0.1872,-0.0372 0.0636,-0.012 0.1512,-0.0204 0.1872,-0.0372 0.0396,-0.0252 0.0828,-0.114 0.0756,-0.1884 -0.0036,-0.0348 -0.048,-0.0432 -0.0756,-0.0744 -0.0228,-0.0264 0.0156,-0.0504 0,-0.0756 -0.0288,-0.042 -0.0996,-0.0504 -0.1116,-0.1116 0.0864,-0.0168 0.2124,0.072 0.336,0.0372 0.06,-0.0168 0.1608,-0.132 0.1884,-0.1872 0.0084,-0.0168 -0.0096,-0.054 0,-0.0756 0.0108,-0.0216 0.0336,-0.0624 0.0372,-0.0744 0.0084,-0.0324 -0.0072,-0.0168 0,-0.0384 0.0216,-0.06 0.0768,-0.1056 0.1128,-0.15 0.0276,-0.0336 0.0876,-0.0768 0.1128,-0.1116 0.0288,-0.0372 0.018,-0.042 0.0372,-0.0756 0.018,-0.108 -0.0636,-0.204 -0.0372,-0.3 0.0288,-0.108 0.1956,-0.1752 0.3,-0.2244 0.036,-0.0168 0.0816,-0.0276 0.1116,-0.0384 0.072,-0.024 0.1584,-0.0504 0.2256,-0.0744 0.1128,-0.0408 0.132,-0.1224 0.1872,-0.2256 0.0264,-0.048 0.0708,-0.114 0.0756,-0.15 0.0048,-0.0312 -0.006,-0.0372 0,-0.0744 0.006,-0.0348 -0.0096,-0.072 0,-0.1128 0.012,-0.0516 0.0372,-0.168 0.0372,-0.2244 0,-0.048 -0.036,-0.0696 -0.0372,-0.1128 -0.0084,-0.156 0.0552,-0.1404 0.1116,-0.2256 0.0288,-0.042 0.0552,-0.12 0.0756,-0.15 0.0972,-0.144 0.2748,-0.1932 0.2628,-0.4116 C 23.608,24.8908 23.5528,24.7228 23.5,24.7 23.47,24.6868 23.4316,24.6784 23.3872,24.6628 23.2456,24.61 23.1232,24.4492 22.9756,24.4372 H 22.9 c -0.0576,0 -0.1224,-0.0288 -0.1872,-0.0372 -0.0408,-0.012 -0.126,0.012 -0.15,0 -0.0372,-0.018 -0.0456,-0.0924 -0.0756,-0.1128 -0.024,-0.0168 -0.0756,-0.024 -0.1116,-0.0372 -0.06,-0.0216 -0.0816,-0.0708 -0.15,-0.0756 -0.0216,0 -0.0516,0.012 -0.0756,0 -0.0372,-0.012 -0.078,-0.0156 -0.1128,-0.036 -0.0432,-0.0276 -0.0936,-0.0384 -0.1116,-0.0756 0.0396,-0.1296 -0.0864,-0.15 -0.1128,-0.2256 -0.012,-0.0348 0.012,-0.1188 0,-0.15 C 21.7972,23.6428 21.7492,23.6128 21.7,23.5756 a 0.4488,0.4488 0 0 0 -0.2628,-0.1128 c -0.0552,-0.012 -0.1212,0.012 -0.1872,0 A 0.4272,0.4272 0 0 1 21.0244,23.35 C 20.974,23.2912 20.9572,23.2276 20.9128,23.2 20.8708,23.1736 20.8288,23.152 20.8,23.1244 c -0.0132,-0.012 -0.0252,-0.0096 -0.0372,-0.036 -0.0216,-0.0456 -0.0648,-0.06 -0.0384,-0.114 -0.048,-0.024 -0.0228,0.0468 -0.0744,0.0384 -0.0468,-0.066 -0.0816,-0.132 -0.1872,-0.1128 -0.048,0.012 -0.0936,0.1116 -0.15,0.1128 -0.048,0 -0.0888,-0.1032 -0.15,-0.1128 -0.048,-0.012 -0.1176,0.0432 -0.15,0.0372 -0.0516,-0.012 -0.066,-0.0432 -0.1128,-0.0744 -0.0348,-0.024 -0.0936,-0.0768 -0.1128,-0.0756 -0.06,0 -0.1044,0.12 -0.1872,0.0756 -0.0408,-0.0516 0.0852,-0.0648 0.0372,-0.1128 -0.036,-0.0348 -0.0456,0.0204 -0.0744,0.0372 -0.0336,0.0216 -0.0756,0.024 -0.1128,0.0384 -0.0828,0.0312 -0.1608,0.0396 -0.2256,0.0744 a 0.222,0.222 0 0 0 -0.1116,0.1128 c -0.0276,0.0504 -0.0708,0.1476 -0.1128,0.15 -0.0504,0 -0.0672,-0.0552 -0.1128,-0.0756 -0.138,-0.06 -0.2232,0.036 -0.3372,0.0384 -0.1056,0 -0.2676,-0.1632 -0.2628,-0.264 0.0036,-0.06 0.0312,-0.1488 0.0384,-0.2244 0.006,-0.06 0.0732,-0.132 0.0744,-0.1872 0.0012,-0.0744 -0.1392,-0.1044 -0.1872,-0.1128 -0.1128,-0.0204 -0.2472,0.0504 -0.3756,0 -0.024,-0.0408 0.024,-0.072 0.0384,-0.1116 0.0084,-0.0216 -0.0084,-0.0504 0,-0.0756 0.0132,-0.0384 0.0936,-0.072 0.1116,-0.1128 0.0132,-0.0312 -0.012,-0.072 0,-0.1116 0.0156,-0.0432 0.072,-0.0816 0.0756,-0.1128 0.0048,-0.0408 -0.0432,-0.0864 -0.0756,-0.1128 -0.0996,0.012 -0.168,0.0084 -0.2244,0.0372 -0.1296,0.06 -0.0948,0.222 -0.2256,0.2628 a 1.0968,1.0968 0 0 1 -0.15,0.0372 c -0.0216,0.012 -0.0504,-0.0024 -0.0744,0 0.0024,-0.012 -0.0024,-0.024 0,-0.0372 0.0048,-0.0276 0.0312,-0.048 0.0372,-0.0756 A 5.892,5.892 0 0 1 17.7256,20.8 h 0.036 c 0.0468,0.012 0.0744,0.072 0.114,0.0756 0.1092,0.012 0.1332,-0.102 0.2244,-0.15 0.0936,0.012 0.1404,-0.012 0.2256,0 0.0576,0.012 0.1416,0.0696 0.1872,0.0744 0.0384,0 0.0384,-0.042 0.0744,-0.0372 0.036,0.012 0.1068,0.0684 0.1128,0.1116 0.006,0.054 -0.0528,0.1284 -0.0372,0.1884 0.0564,0.0576 0.1824,0.078 0.2616,0.1116 0.0528,-0.0444 0.0084,-0.1248 0,-0.1872 0,-0.0276 0.0036,-0.0864 0,-0.1116 -0.0048,-0.0432 -0.036,-0.0756 -0.036,-0.1128 0,-0.1716 0.1464,-0.2328 0.2616,-0.3 0.0492,-0.0288 0.1068,-0.0912 0.15,-0.1128 0.0612,-0.03 0.0996,-0.0084 0.15,-0.0372 0.0912,-0.0516 0.1548,-0.1296 0.2256,-0.1884 0.0324,-0.078 -0.0036,-0.1848 0,-0.2616 0.0324,-0.0204 0.0768,0 0.1116,0 0.0552,-0.012 0.0816,-0.0816 0.1128,-0.1128 0.018,-0.018 0.0528,-0.0192 0.0756,-0.0372 0.054,-0.0432 0.0636,-0.0936 0.1116,-0.1128 a 0.312,0.312 0 0 1 0.0756,-0.0372 c 0.036,-0.012 0.0924,-0.0168 0.15,-0.0384 0.036,-0.012 0.1356,-0.0216 0.15,-0.036 0.018,-0.0192 -0.0048,-0.0864 0,-0.114 0.0288,-0.1344 0.216,-0.1416 0.3372,-0.1872 0.084,-0.0312 0.168,-0.1284 0.2628,-0.1116 -0.018,0.0648 -0.0912,0.072 -0.0756,0.15 0.0204,0.108 0.15,-0.0228 0.1884,-0.0384 0.072,-0.0312 0.204,-0.0756 0.3,-0.1116 0.084,-0.03 0.228,-0.054 0.15,-0.15 C 21.5596,18.9136 21.532,18.976 21.4756,19 21.436,19.012 21.4336,18.9664 21.4,18.9628 21.3676,18.9628 21.358,19.006 21.3244,19 21.292,18.988 21.2548,18.928 21.25,18.8872 21.2368,18.7864 21.322,18.7744 21.3628,18.7 21.3352,18.6088 21.214,18.6604 21.1372,18.6244 A 0.1356,0.1356 0 0 1 21.25,18.5128 c 0.0516,-0.012 0.1944,0.0096 0.2256,0.0372 0.018,0.0156 -0.0276,0.0504 0,0.0756 0.0312,0.0276 0.072,0.012 0.1116,0 0.0144,-0.0684 -0.0864,-0.0312 -0.0744,-0.0756 0.0816,-0.0528 0.2376,-0.024 0.3372,-0.0372 a 0.816,0.816 0 0 0 0.1872,-0.0756 c 0.048,-0.0276 0.0624,-0.0828 0.1128,-0.0372 0.0144,0.0492 -0.0096,0.0864 -0.0372,0.1128 -0.0924,0.0816 -0.1908,0.168 -0.2628,0.2616 0.0444,0.0432 0.1128,0.03 0.1872,0.0384 0.0288,0.012 0.0828,-0.006 0.1128,0 0.036,0.012 0.084,-0.012 0.1128,0 0.0504,0.012 0.0624,0.1116 0.1116,0.1116 0.0816,0 0.048,-0.096 0,-0.15 0.0144,-0.0564 0.0588,-0.1092 0.0384,-0.15 -0.0372,-0.0744 -0.18,0.0228 -0.1884,-0.0744 -0.0036,-0.06 0.054,-0.0672 0.0756,-0.1128 -0.0096,-0.1152 0.0864,-0.12 0.0756,-0.2244 C 22.3696,18.1696 22.33,18.178 22.3,18.1372 c -0.0156,-0.0216 -0.0192,-0.096 -0.0372,-0.1116 -0.0624,-0.0528 -0.18,-0.012 -0.1884,-0.1128 -0.0024,-0.06 0.0084,-0.1236 0,-0.1884 -0.0084,-0.06 -0.06,-0.2496 -0.1116,-0.2616 -0.0672,-0.0144 -0.108,0.1116 -0.1884,0.15 A 0.4512,0.4512 0 0 1 21.5872,17.65 c -0.0288,-0.012 -0.072,-0.018 -0.0744,-0.0756 -0.0048,-0.0504 0.0564,-0.072 0.0744,-0.1116 0.0048,-0.0096 -0.0024,-0.024 0,-0.0384 0.0876,-0.024 0.174,-0.054 0.2628,-0.0744 0.0504,-0.012 0.0996,-0.0276 0.15,-0.0372 0.036,-0.0072 0.0768,0.006 0.1128,0 A 6.012,6.012 0 0 1 23.2,17.2 Z m -2.4372,0.5628 c -0.0384,0.2184 -0.2436,0.306 -0.4884,0.3 -0.054,0.0528 -0.0072,0.1512 -0.036,0.2244 -0.0264,0.0612 -0.1272,0.1176 -0.1884,0.1128 -0.0444,0 -0.1128,-0.0708 -0.1128,-0.1128 0,-0.0516 0.0828,-0.0528 0.0384,-0.1116 0.0012,-0.012 0.024,-0.0264 0.036,-0.0384 0.0252,-0.0144 0.0516,-0.0228 0.0756,-0.0372 0.2172,-0.1344 0.4404,-0.2316 0.6756,-0.3372 z m 5.0244,0.2244 c -0.0216,0.012 -0.018,0.0264 -0.0372,0.0384 -0.0456,0.0276 -0.078,0.0612 -0.1128,0.0744 -0.048,0.018 -0.1044,0.03 -0.1116,0.0756 -0.006,0.036 0.0384,0.0396 0.036,0.0744 -0.0168,0.0444 -0.0264,0.0588 -0.036,0.1128 0.06,0.0996 0.186,-0.0228 0.2616,-0.0384 0.0336,-0.012 0.0576,-0.0084 0.0756,-0.036 0.0204,-0.0336 0.0216,-0.0672 0.0372,-0.114 0.0168,-0.0504 0.0816,-0.0672 0.0756,-0.1116 -0.0048,-0.0444 -0.114,-0.0816 -0.1884,-0.0756 z m -6.5616,0.75 c 0.0564,0.0456 0.1368,0.144 0.036,0.1884 a 0.6192,0.6192 0 0 1 -0.186,0.036 c -0.012,0 -0.0276,-0.0276 -0.0384,-0.036 0.0624,-0.06 0.1236,-0.1308 0.1884,-0.1884 z m 0.2244,0.2256 c 0.0288,0 0.0408,0.072 0.0756,0.0744 0.0324,0 0.0552,-0.042 0.0744,-0.0372 0.0504,0.0132 0.0852,0.1128 0.0372,0.15 -0.0396,0.012 -0.0456,-0.042 -0.0744,-0.0372 -0.0816,0.0144 -0.1272,0.192 -0.1884,0.1872 -0.0576,-0.012 -0.096,-0.1452 -0.036,-0.1872 0,-0.036 -0.0036,-0.0384 0,-0.0756 0.0168,-0.0216 0.0636,-0.078 0.1116,-0.0744 z M 19.15,19 c 0.0168,0 0.0312,-0.012 0.0372,0 -0.0084,0.0636 -0.0252,0.0828 -0.0744,0.1128 -0.0852,0.0516 -0.1596,0.1152 -0.1884,0.2244 -0.0084,0.0324 -0.108,0.12 -0.15,0.1128 -0.0948,-0.0204 0.054,-0.198 0.0756,-0.2256 0.024,-0.03 0.048,-0.0396 0.0756,-0.0744 C 18.952,19.1164 18.9736,19.0564 19,19.0372 A 0.2952,0.2952 0 0 1 19.15,19 Z m 8.1372,0.1872 c 0.096,-0.012 0.144,0.0936 0.1884,0.15 0.036,0.048 0.1284,0.1176 0.1872,0.15 0.0336,0.018 0.0744,0.0588 0.1116,0.0756 0.078,0.0348 0.222,0.1476 0.2256,0.2244 0.0012,0.0384 -0.0432,0.0768 -0.0372,0.1128 0.0588,0.012 0.1104,-0.0912 0.1116,-0.15 0.1104,0.156 0.2052,0.3216 0.3,0.4872 0.0456,0.0792 0.108,0.144 0.15,0.2256 -0.0528,0.0156 -0.066,0.024 -0.0744,0.0744 -0.012,0.0672 0.0252,0.1764 -0.0756,0.1884 -0.0624,0.012 -0.1368,-0.0552 -0.2244,-0.0756 -0.036,-0.012 -0.084,0.012 -0.1128,0 -0.066,-0.0216 -0.0552,-0.1104 -0.1116,-0.15 a 0.6012,0.6012 0 0 0 -0.1884,-0.0756 c -0.0324,0 -0.0408,0.012 -0.0744,0 -0.0408,-0.012 -0.1164,0.0168 -0.15,0 A 0.3852,0.3852 0 0 1 27.4,20.3128 c -0.0132,-0.0444 0.1104,-0.0756 0.1128,-0.1128 0.0024,-0.0288 -0.0324,-0.0684 -0.0384,-0.1128 -0.0036,-0.0264 0.006,-0.0564 0,-0.0744 -0.0084,-0.0312 -0.0624,-0.036 -0.1116,-0.0384 H 27.25 c -0.0528,0 -0.1596,-0.0048 -0.2256,0 -0.0396,0 -0.0744,-0.0036 -0.1116,0 -0.1044,0.012 -0.1812,-0.012 -0.2628,0 A 0.7536,0.7536 0 0 0 26.4244,20.05 L 26.35,20.0872 a 0.4932,0.4932 0 0 1 -0.0756,0.0384 c -0.0324,0.0156 -0.0792,0.0648 -0.1116,0.0744 -0.048,0.012 -0.1032,-0.012 -0.1884,0 -0.06,0 -0.1476,-0.0396 -0.15,-0.1128 0,-0.1116 0.1956,-0.054 0.3,-0.0744 0.0396,-0.012 0.0648,-0.0468 0.1128,-0.0756 0.024,-0.012 0.0168,-0.0228 0.0384,-0.0372 0.036,-0.0252 0.1056,-0.084 0.1116,-0.1128 0.0048,-0.0264 -0.0036,-0.054 0,-0.0744 0.0048,-0.0252 0.0432,-0.042 0.0756,-0.0756 0.0504,-0.0504 0.0876,-0.1176 0.15,-0.15 0.042,-0.0216 0.0924,-0.0396 0.1116,-0.0744 0.0048,-0.0384 0,-0.0396 0,-0.0756 A 0.156,0.156 0 0 1 26.8,19.3 c 0.0648,-0.0144 0.1116,0.0036 0.1872,0 0.0324,0 0.078,0.0156 0.1128,0 0.0288,-0.0192 0.0456,-0.06 0.0756,-0.0756 a 0.2964,0.2964 0 0 1 0.1116,-0.036 z M 27.9628,19.9 h -0.15 c -0.0528,0 -0.12,-0.0276 -0.15,0 0.0444,0.072 0.1248,0.0948 0.2244,0.1128 A 0.2316,0.2316 0 0 0 27.9628,19.9 Z M 19.75,19.2244 h 0.1128 c 0.03,0 0.0624,-0.012 0.0744,0 -0.0192,0.0792 -0.2004,0.0672 -0.2616,0.0384 0.0024,-0.03 0.036,-0.0336 0.0744,-0.0384 z m -0.2628,0.15 c -0.0516,0.0384 -0.1044,0.0876 -0.1872,0.1128 -0.0456,0.0144 -0.1044,0.0132 -0.1128,-0.0372 -0.0096,-0.0624 0.072,-0.0312 0.1128,-0.0372 0.0528,-0.012 0.126,-0.036 0.1872,-0.0384 z m 7.8,0 c -0.0396,0.0132 -0.0588,0.1008 0,0.1128 0.0276,-0.0168 0.0456,-0.06 0.0384,-0.1116 -0.0156,-0.0168 -0.0264,-0.012 -0.0384,0 z m -0.0744,0.1884 c 0,0.0672 0.012,0.1284 0,0.1872 0.0384,0.0744 0.1308,0.012 0.15,-0.0372 0.0228,-0.1248 -0.018,-0.1656 -0.0756,-0.15 -0.0192,0.012 -0.054,-0.0156 -0.0744,0 z m -9.9384,2.8116 c 0.0684,0.0612 0.108,0.1476 0.1884,0.1884 A 0.5628,0.5628 0 0 0 17.5744,22.6 c 0.0324,0.012 0.0456,-0.0096 0.0756,0 0.0636,0.0216 0.1368,0.0516 0.1872,0.0756 0.0768,0.0336 0.1596,0.1488 0.2256,0.1872 0.0036,0.0384 -0.012,0.084 0,0.1116 0.0312,0.042 0.0612,0.084 0.1116,0.1128 0.0612,0.0336 0.0936,0.0864 0.15,0.1128 0.0204,0.012 0.0444,-0.012 0.0756,0 0.0792,0.024 0.12,0.132 0.1872,0.1128 0.0444,-0.0132 0.0312,-0.0696 0.0384,-0.1128 0.03,-0.0324 0.0648,-0.0756 0.1116,-0.0756 0.0744,0 0.0852,0.1152 0.1128,0.1884 0.0156,0.0408 0.0648,0.0684 0.0756,0.1116 a 1.1316,1.1316 0 0 1 0,0.3384 c -0.0192,0.0552 -0.1044,0.0516 -0.15,0.1116 -0.0216,0.0288 -0.0216,0.0924 -0.0384,0.1128 -0.0288,0.036 -0.0528,0.042 -0.0744,0.0756 a 0.5388,0.5388 0 0 0 -0.0384,0.0744 c -0.036,0.0768 -0.1044,0.132 -0.0744,0.2256 0.012,0.036 0.0756,0.0672 0.0756,0.1116 0,0.0528 -0.1044,0.0924 -0.1128,0.15 -0.006,0.042 0.024,0.0948 0.0372,0.15 0.0096,0.042 0.0876,0.0852 0.1128,0.1128 0.042,0.048 0.0732,0.1284 0.1116,0.1884 0.0756,0.1164 0.114,0.2604 0.1884,0.3744 0.0396,0.0588 0.1236,0.0876 0.15,0.15 0.012,0.0312 -0.012,0.084 0,0.1128 0.0432,0.096 0.24,0.2148 0.3372,0.2616 0.0456,0.024 0.108,0.0144 0.15,0.0384 0.0636,0.036 0.192,0.132 0.2256,0.1872 0.0276,0.0504 0.0228,0.1824 0.036,0.2628 0.0192,0.1056 -0.0036,0.186 0,0.3 0.0048,0.0624 0.0384,0.0876 0.0384,0.15 v 0.1116 c -0.0012,0.0744 0.006,0.15 0,0.2256 a 0.7176,0.7176 0 0 0 0,0.1128 c 0.0036,0.036 0.036,0.0408 0.0372,0.0744 0.0024,0.036 -0.0408,0.0852 -0.0372,0.1128 0.0084,0.0756 0.06,0.1176 0.0756,0.1872 0.012,0.0552 0.0444,0.1968 0.036,0.2628 -0.0036,0.0348 -0.0312,0.072 -0.036,0.1128 -0.0036,0.0312 0.0036,0.0456 0,0.0744 -0.0036,0.0276 0.006,0.0528 0,0.0756 -0.0384,-0.024 -0.0756,-0.0504 -0.1128,-0.0756 a 6.2436,6.2436 0 0 1 -0.9,-0.75 L 18.85,27.3256 a 6.24,6.24 0 0 1 -0.6,-0.75 C 18.2332,26.5516 18.2284,26.524 18.2128,26.5 A 5.7888,5.7888 0 0 1 17.6872,25.5244 C 17.6764,25.5004 17.6608,25.4764 17.65,25.45 A 6.0228,6.0228 0 0 1 17.3128,24.2872 6.012,6.012 0 0 1 17.2,23.2 c 0,-0.2856 0.036,-0.5508 0.0756,-0.8256 z M 19.6,23.0128 c 0.0576,-0.0264 0.0468,0.066 0,0.0744 -0.0444,0.012 -0.0432,-0.0528 0,-0.0744 z"
     fill="url(#h)"
     style="fill:url(#h);stroke-width:1.2"
     id="path21" />
  <path
     d="m -0.8,31.6 v 1.2 h 14.4 v -1.2 z"
     fill="#adb1b3"
     style="stroke-width:1.2"
     id="path22" />
  <path
     d="m 13.6,31.6 h 19.2 v 1.2 H 13.6 Z"
     fill="#649e26"
     style="stroke-width:1.2"
     id="path23" />
</svg>
