<?xml version="1.0" encoding="UTF-8" standalone="no"?>
<svg
   width="64"
   height="64"
   version="1.1"
   viewBox="0 0 16.933 16.933"
   id="svg7"
   sodipodi:docname="yast-release-notes.svg"
   inkscape:version="1.4.2 (ebf0e940d0, 2025-05-08)"
   xmlns:inkscape="http://www.inkscape.org/namespaces/inkscape"
   xmlns:sodipodi="http://sodipodi.sourceforge.net/DTD/sodipodi-0.dtd"
   xmlns="http://www.w3.org/2000/svg"
   xmlns:svg="http://www.w3.org/2000/svg"
   xmlns:rdf="http://www.w3.org/1999/02/22-rdf-syntax-ns#"
   xmlns:cc="http://creativecommons.org/ns#"
   xmlns:dc="http://purl.org/dc/elements/1.1/">
  <sodipodi:namedview
     id="namedview7"
     pagecolor="#9c4444"
     bordercolor="#000000"
     borderopacity="0.25"
     inkscape:showpageshadow="2"
     inkscape:pageopacity="0.0"
     inkscape:pagecheckerboard="0"
     inkscape:deskcolor="#d1d1d1"
     inkscape:zoom="6.15625"
     inkscape:cx="15.756345"
     inkscape:cy="29.64467"
     inkscape:window-width="1226"
     inkscape:window-height="669"
     inkscape:window-x="0"
     inkscape:window-y="0"
     inkscape:window-maximized="0"
     inkscape:current-layer="svg7"
     showgrid="false" />
  <defs
     id="defs2">
    <style
       id="current-color-scheme"
       type="text/css">.ColorScheme-Text {color:#d8dee9} .ColorScheme-Highlight {color:#3b4252}</style>
  </defs>
  <metadata
     id="metadata2">
    <rdf:RDF>
      <cc:Work
         rdf:about="">
        <dc:format>image/svg+xml</dc:format>
        <dc:type
           rdf:resource="http://purl.org/dc/dcmitype/StillImage" />
      </cc:Work>
    </rdf:RDF>
  </metadata>
  <path
     style="fill:currentColor;stroke-width:0.067622"
     d="m 3.4593664,13.655861 c -0.052711,-0.09848 -0.018144,-0.391264 0.1369514,-1.159996 L 3.8037715,11.467597 3.503312,11.156823 C 2.6111976,10.234089 2.2091459,9.4085101 2.1275462,8.3318062 1.9588289,6.10553 3.7590762,4.0677658 6.5493268,3.3266384 7.139163,3.1699703 7.3417956,3.150476 8.4276792,3.1459306 c 1.045307,-0.00439 1.3016016,0.016156 1.8149578,0.1454045 2.145908,0.540269 3.775856,1.841308 4.355597,3.4766714 0.762085,2.1497409 -0.525477,4.5286025 -3.037222,5.6114735 -1.043206,0.449749 -1.501483,0.543166 -2.842006,0.579311 -1.0438228,0.02816 -1.2874268,0.01354 -1.9107201,-0.114036 L 6.093916,12.69845 4.9445168,13.243027 c -0.6321688,0.299517 -1.209081,0.544576 -1.2820255,0.544576 -0.072946,0 -0.1643511,-0.05927 -0.2031249,-0.131728 z M 8.5460165,10.747727 C 8.9125558,10.337533 8.7439106,9.6987464 8.2237552,9.5270797 7.3927216,9.2528143 6.8549162,10.417792 7.5976273,10.883381 7.9112212,11.079969 8.2986524,11.024551 8.5460165,10.74772 Z M 10.625658,8.2761536 11.672431,7.2277431 10.608862,6.1641749 9.5452945,5.1006068 9.1386342,5.5030226 C 8.9149724,5.7243511 8.731976,5.9362183 8.731976,5.9738384 c 0,0.037625 0.2656256,0.3352627 0.5902799,0.6614277 L 9.9125357,7.2282934 9.3222559,7.8213206 C 8.9976016,8.1474853 8.731976,8.4432928 8.731976,8.4786707 c 0,0.067088 0.7459048,0.8458934 0.8101607,0.8458934 0.020221,0 0.5077943,-0.4717846 1.0835213,-1.0484105 z M 6.7280176,8.3053328 C 6.8717663,8.1922568 6.90619,8.1082913 6.90619,7.8706999 6.90619,7.6331095 6.871762,7.5491429 6.7280176,7.4360675 6.1640929,6.9924845 5.4665992,7.7517755 5.9577493,8.274581 6.1576508,8.4873651 6.4802262,8.5002435 6.7280176,8.3053346 Z M 7.5688838,5.7947156 c 0.044639,-0.044629 0.08114,-0.1754782 0.08114,-0.2907735 0,-0.2654452 -0.1064736,-0.3719187 -0.3719185,-0.3719187 -0.2654456,0 -0.3719197,0.1064748 -0.3719197,0.3719187 0,0.2654457 0.1064748,0.3719193 0.3719197,0.3719193 0.115302,0 0.2461435,-0.036516 0.2907738,-0.081145 z"
     id="path3-6"
     class="ColorScheme-Text" />
</svg>
