<?xml version="1.0" encoding="UTF-8" standalone="no"?>
<svg
   width="24"
   height="24"
   version="1.1"
   id="svg1"
   sodipodi:docname="1password-panel-locked.svg"
   xmlns:inkscape="http://www.inkscape.org/namespaces/inkscape"
   xmlns:sodipodi="http://sodipodi.sourceforge.net/DTD/sodipodi-0.dtd"
   xmlns="http://www.w3.org/2000/svg"
   xmlns:svg="http://www.w3.org/2000/svg">
  <sodipodi:namedview
     id="namedview1"
     pagecolor="#ffffff"
     bordercolor="#000000"
     borderopacity="0.25"
     inkscape:showpageshadow="2"
     inkscape:pageopacity="0.0"
     inkscape:pagecheckerboard="0"
     inkscape:deskcolor="#d1d1d1" />
  <defs
     id="defs1">
    <style
       id="current-color-scheme"
       type="text/css">.ColorScheme-Text {color:#d8dee9} .ColorScheme-Highlight {color:#3b4252}</style>
  </defs>
  <path
     style="fill:currentColor;stroke-width:1.2"
     class="ColorScheme-Text"
     d="m 11.9,2.3 a 9.6,9.6 0 0 0 -9.6,9.6 9.6,9.6 0 0 0 9.6,9.6 9.6,9.6 0 0 0 2.4,-0.304687 V 18.6875 A 7.2,7.2 0 0 1 11.9,19.1 7.2,7.2 0 0 1 4.7,11.9 a 7.2,7.2 0 0 1 7.2,-7.2 7.2,7.2 0 0 1 7.2,7.2 7.2,7.2 0 0 1 -0.103128,1.211719 C 19.031994,13.110673 19.064626,13.1 19.1,13.1 c 0.832144,0 1.584904,0.303235 2.191406,0.7875 A 9.6,9.6 0 0 0 21.5,11.9 9.6,9.6 0 0 0 11.9,2.3 Z M 10.301563,5.9 C 9.858362,5.9 9.5,6.1962916 9.5,6.565625 v 2.7023442 c 0,0 1.2,0.6353796 1.2,1.0640618 0,0.428678 -1.2,1.064063 -1.2,1.064063 v 5.83828 C 9.5,17.60371 9.8583608,17.9 10.301563,17.9 h 3.196874 C 13.941638,17.9 14.3,17.603728 14.3,17.234374 V 16.7 14.541406 l -0.0094,-0.01176 c -6e-6,0 -1.190477,-0.659149 -1.190626,-1.10625 -1.44e-4,-0.44752 1.190624,-1.110937 1.190626,-1.110937 L 14.3,12.303126 V 6.565625 C 14.3,6.1962916 13.941638,5.9 13.498437,5.9 Z M 19.1,14.3 c -1.3296,0 -2.4,1.09308 -2.4,2.4375 V 17.9 h -1.2 v 4.8 h 7.2 V 17.9 H 21.5 V 16.7375 C 21.5,15.39362 20.4296,14.3 19.1,14.3 Z m 0,1.2 c 0.6648,0 1.2,0.53088 1.2,1.2 v 1.2 h -2.4 v -1.2 c 0,-0.66912 0.5352,-1.2 1.2,-1.2 z"
     id="path1" />
</svg>
