<?xml version="1.0" encoding="UTF-8" standalone="no"?>
<svg
   width="24"
   height="24"
   version="1.1"
   id="svg1"
   sodipodi:docname="1password-panel.svg"
   xmlns:inkscape="http://www.inkscape.org/namespaces/inkscape"
   xmlns:sodipodi="http://sodipodi.sourceforge.net/DTD/sodipodi-0.dtd"
   xmlns="http://www.w3.org/2000/svg"
   xmlns:svg="http://www.w3.org/2000/svg">
  <sodipodi:namedview
     id="namedview1"
     pagecolor="#ffffff"
     bordercolor="#000000"
     borderopacity="0.25"
     inkscape:showpageshadow="2"
     inkscape:pageopacity="0.0"
     inkscape:pagecheckerboard="0"
     inkscape:deskcolor="#d1d1d1" />
  <defs
     id="defs1">
    <style
       id="current-color-scheme"
       type="text/css">.ColorScheme-Text {color:#d8dee9} .ColorScheme-Highlight {color:#3b4252}</style>
  </defs>
  <path
     style="fill:currentColor;stroke-width:1.2"
     class="ColorScheme-Text"
     d="M 12,2.4 A 9.6,9.6 0 0 0 2.4,12 9.6,9.6 0 0 0 12,21.6 9.6,9.6 0 0 0 21.6,12 9.6,9.6 0 0 0 12,2.4 Z m 0,2.4 A 7.2,7.2 0 0 1 19.2,12 7.2,7.2 0 0 1 12,19.2 7.2,7.2 0 0 1 4.8,12 7.2,7.2 0 0 1 12,4.8 Z M 10.401563,6 C 9.958362,6 9.6,6.2962916 9.6,6.665625 v 2.7023442 c 0,0 1.2,0.6353798 1.2,1.0640618 0,0.428678 -1.2,1.064063 -1.2,1.064063 v 5.83828 C 9.6,17.703708 9.9583608,18 10.401563,18 h 3.196874 C 14.041638,18 14.4,17.703727 14.4,17.334374 v -2.692968 l -0.0094,-0.01176 c -5e-6,0 -1.190477,-0.659149 -1.190626,-1.10625 -1.44e-4,-0.44752 1.190626,-1.110937 1.190626,-1.110937 L 14.4,12.403126 V 6.665625 C 14.4,6.2962916 14.041638,6 13.598437,6 Z"
     id="path1" />
</svg>
