<?xml version="1.0" encoding="UTF-8" standalone="no"?>
<svg
   width="24"
   height="24"
   version="1.1"
   id="svg1"
   sodipodi:docname="5g.svg"
   xmlns:inkscape="http://www.inkscape.org/namespaces/inkscape"
   xmlns:sodipodi="http://sodipodi.sourceforge.net/DTD/sodipodi-0.dtd"
   xmlns="http://www.w3.org/2000/svg"
   xmlns:svg="http://www.w3.org/2000/svg">
  <sodipodi:namedview
     id="namedview1"
     pagecolor="#ffffff"
     bordercolor="#000000"
     borderopacity="0.25"
     inkscape:showpageshadow="2"
     inkscape:pageopacity="0.0"
     inkscape:pagecheckerboard="0"
     inkscape:deskcolor="#d1d1d1" />
  <defs
     id="defs1">
    <style
       id="current-color-scheme"
       type="text/css">.ColorScheme-Text {color:#d8dee9} .ColorScheme-Highlight {color:#3b4252}</style>
  </defs>
  <path
     style="fill:currentColor;stroke-width:1.2"
     class="ColorScheme-Text"
     d="M 4.8,2.4 C 3.4704,2.4 2.4,3.4704 2.4,4.8 v 14.4 c 0,1.3296 1.0704,2.4 2.4,2.4 h 14.4 c 1.3296,0 2.4,-1.0704 2.4,-2.4 V 4.8 C 21.6,3.4704 20.5296,2.4 19.2,2.4 Z M 5.3835937,7.2 H 10.8 V 8.4 H 6.3796874 l -0.225,2.60625 c 0.1504427,-0.02652 0.3527379,-0.05839 0.6093752,-0.09376 0.2566371,-0.03536 0.5410466,-0.0539 0.8507811,-0.0539 0.9646018,0 1.7333727,0.245062 2.3085935,0.73125 C 10.507508,12.076032 10.8,12.761335 10.8,13.645313 c 0,0.981215 -0.31387,1.754565 -0.9421872,2.320313 C 9.2383435,16.52253 8.3712942,16.8 7.25625,16.8 6.7606747,16.8 6.30056,16.754804 5.8757813,16.666406 5.4510025,16.578008 5.0920354,16.449986 4.8,16.282031 v -1.099218 c 0.318584,0.194475 0.7041413,0.349147 1.1554687,0.464061 0.460177,0.10608 0.8965708,0.159376 1.3125,0.159376 0.6991151,0 1.2627213,-0.165115 1.6875,-0.492187 0.4336283,-0.335911 0.6492185,-0.853219 0.6492185,-1.551563 0,-0.618784 -0.1889999,-1.090897 -0.5695309,-1.417969 -0.3805309,-0.335913 -0.9840225,-0.503908 -1.8070313,-0.503905 -0.2477876,-2e-6 -0.5298535,0.02143 -0.8484376,0.06563 -0.318584,0.0442 -0.5764034,0.0894 -0.7710937,0.133593 L 5.025,11.669531 Z m 11.1093753,0 c 0.485667,0 0.942089,0.047057 1.371094,0.1429687 0.4371,0.095912 0.841718,0.2310819 1.214063,0.4054687 l -0.4125,1.0218754 C 18.358037,8.6308032 18.011189,8.5069764 17.622656,8.4023436 17.242218,8.2889916 16.844846,8.2335937 16.432031,8.2335937 c -1.036089,0 -1.845325,0.3394223 -2.428125,1.0195319 -0.574705,0.6713892 -0.8625,1.5872014 -0.8625,2.7468744 0,0.741145 0.109572,1.400304 0.328125,1.975781 0.226644,0.566757 0.579459,1.010979 1.057032,1.333593 0.477572,0.313899 1.102621,0.471095 1.879687,0.471095 0.380438,0 0.70554,-0.02203 0.972656,-0.06563 0.267117,-0.0436 0.402544,-0.096 0.621094,-0.157031 V 13.2 H 15.6 V 12 h 3.6 v 4.317187 c -0.469477,0.165669 -0.942742,0.287152 -1.420313,0.365626 C 17.302115,16.761287 16.760207,16.8 16.153126,16.8 15.254642,16.8 14.497207,16.607088 13.882031,16.223437 13.266853,15.831067 12.797214,15.279049 12.473437,14.564063 12.157754,13.840357 12,12.985286 12,12 12,11.032153 12.174595,10.190767 12.522656,9.4757808 12.878812,8.7520752 13.393006,8.1947143 14.064844,7.8023437 14.736682,7.4012538 15.545921,7.2 16.492969,7.2 Z"
     id="path1" />
</svg>
