<?xml version="1.0" encoding="UTF-8" standalone="no"?>
<svg
   width="24"
   height="24"
   version="1.1"
   id="svg1"
   sodipodi:docname="account-logged-in.svg"
   xmlns:inkscape="http://www.inkscape.org/namespaces/inkscape"
   xmlns:sodipodi="http://sodipodi.sourceforge.net/DTD/sodipodi-0.dtd"
   xmlns="http://www.w3.org/2000/svg"
   xmlns:svg="http://www.w3.org/2000/svg">
  <sodipodi:namedview
     id="namedview1"
     pagecolor="#ffffff"
     bordercolor="#000000"
     borderopacity="0.25"
     inkscape:showpageshadow="2"
     inkscape:pageopacity="0.0"
     inkscape:pagecheckerboard="0"
     inkscape:deskcolor="#d1d1d1" />
  <defs
     id="defs1">
    <style
       id="current-color-scheme"
       type="text/css">.ColorScheme-Text {color:#d8dee9} .ColorScheme-Highlight {color:#3b4252}</style>
  </defs>
  <g
     transform="translate(-80 -888.36)"
     style=""
     id="g1">
    <path
       style="fill:currentColor;stroke-width:1.2"
       class="ColorScheme-Text"
       d="m 91.852583,891.96146 c -1.61436,0.0318 -3.23424,0.535 -4.65936,1.53288 -3.80016,2.66088 -4.71876,7.87164 -2.05776,11.67192 2.66088,3.80016 7.86936,4.71876 11.66952,2.05776 2.73288,-1.91352 3.974397,-5.13864 3.468717,-8.2242 -0.11784,-0.72096 -0.341997,-1.392 -0.632805,-2.04144 l -7.62192,8.70936 -0.825,0.975 -0.937488,-0.9 -3.6,-3.6 c -0.451668,-0.45159 -0.451632,-1.27332 0,-1.725 0.451632,-0.45162 1.27344,-0.45165 1.725,0 l 2.7,2.7 7.22808,-8.27112 c -1.29216,-1.48956 -3.01104,-2.43636 -4.8516,-2.76096 -0.529272,-0.0934 -1.067352,-0.13483 -1.60548,-0.12422 z"
       id="path1" />
  </g>
</svg>
