<?xml version="1.0" encoding="UTF-8" standalone="no"?>
<svg
   width="24"
   height="24"
   version="1.1"
   id="svg2"
   sodipodi:docname="acestream-tray.svg"
   xmlns:inkscape="http://www.inkscape.org/namespaces/inkscape"
   xmlns:sodipodi="http://sodipodi.sourceforge.net/DTD/sodipodi-0.dtd"
   xmlns="http://www.w3.org/2000/svg"
   xmlns:svg="http://www.w3.org/2000/svg">
  <sodipodi:namedview
     id="namedview2"
     pagecolor="#ffffff"
     bordercolor="#000000"
     borderopacity="0.25"
     inkscape:showpageshadow="2"
     inkscape:pageopacity="0.0"
     inkscape:pagecheckerboard="0"
     inkscape:deskcolor="#d1d1d1" />
  <defs
     id="defs1">
    <style
       id="current-color-scheme"
       type="text/css">.ColorScheme-Text {color:#d8dee9} .ColorScheme-Highlight {color:#3b4252}</style>
  </defs>
  <path
     style="fill:currentColor;stroke-width:1.2"
     class="ColorScheme-Text"
     d="m 12.000244,2.4 v 2.4 a 7.2,7.2 0 0 1 6.227344,3.6046872 l 2.08125,-1.1999998 A 9.6064462,9.5999998 0 0 0 20.254931,7.1132813 9.6064462,9.5999998 0 0 0 12.000244,2.4 Z M 3.6916506,7.2070313 A 9.6064462,9.5999998 0 0 0 3.6377444,7.2984374 9.6064462,9.5999998 0 0 0 3.6799318,16.8 L 5.7705569,15.592969 A 7.2,7.2 0 0 1 4.8002444,12 7.2,7.2 0 0 1 5.7682131,8.4046872 Z M 9.600244,7.95 V 12 16.05 l 2.925,-2.025 2.925,-2.025 -2.925,-2.025 z m 8.629687,7.645313 A 7.2,7.2 0 0 1 12.000244,19.2 v 2.4 a 9.6064462,9.5999998 0 0 0 8.254687,-4.713281 9.6064462,9.5999998 0 0 0 0.0539,-0.0914 z"
     id="path1" />
  <path
     style="opacity:0.35;fill:currentColor;stroke-width:1.2"
     class="ColorScheme-Text"
     d="M 12.000244,2.4 A 9.6064462,9.5999998 0 0 0 3.7455569,7.1132813 9.6064462,9.5999998 0 0 0 3.6916505,7.2046877 L 5.7705568,8.4046872 A 7.2,7.2 0 0 1 12.000244,4.8 Z m 8.320313,4.8 -2.090626,1.2070308 A 7.2,7.2 0 0 1 19.200244,12 7.2,7.2 0 0 1 18.232275,15.595313 l 2.076563,1.197656 a 9.6064462,9.5999998 0 0 0 0.0539,-0.0914 A 9.6064462,9.5999998 0 0 0 20.320557,7.2 Z m -14.5476564,8.395313 -2.08125,1.2 a 9.6064462,9.5999998 0 0 0 0.053906,0.0914 A 9.6064462,9.5999998 0 0 0 12.000244,21.6 V 19.2 A 7.2,7.2 0 0 1 5.7729006,15.595313 Z"
     id="path2" />
</svg>
