<?xml version="1.0" encoding="UTF-8" standalone="no"?>
<svg
   width="24"
   height="24"
   version="1.1"
   id="svg1"
   sodipodi:docname="alarm-clock-panel.svg"
   xmlns:inkscape="http://www.inkscape.org/namespaces/inkscape"
   xmlns:sodipodi="http://sodipodi.sourceforge.net/DTD/sodipodi-0.dtd"
   xmlns="http://www.w3.org/2000/svg"
   xmlns:svg="http://www.w3.org/2000/svg">
  <sodipodi:namedview
     id="namedview1"
     pagecolor="#ffffff"
     bordercolor="#000000"
     borderopacity="0.25"
     inkscape:showpageshadow="2"
     inkscape:pageopacity="0.0"
     inkscape:pagecheckerboard="0"
     inkscape:deskcolor="#d1d1d1" />
  <defs
     id="defs1">
    <style
       id="current-color-scheme"
       type="text/css">.ColorScheme-Text {color:#d8dee9} .ColorScheme-Highlight {color:#3b4252}</style>
  </defs>
  <path
     style="fill:currentColor;stroke-width:1.2"
     class="ColorScheme-Text"
     d="M 7.8,2.4 A 4.2,4.2 0 0 0 3.6,6.6 4.2,4.2 0 0 0 3.88125,8.1070313 c 1.50252,-2.38392 4.0167,-4.0656639 6.9375,-4.4273439 A 4.2,4.2 0 0 0 7.8,2.4 Z m 8.4,0 a 4.2,4.2 0 0 0 -3.014062,1.2796874 c 2.918039,0.3627602 5.428068,2.0438402 6.930468,4.425 A 4.2,4.2 0 0 0 20.4,6.6 4.2,4.2 0 0 0 16.2,2.4 Z M 12,4.8 a 8.4,8.4 0 0 0 -8.4,8.4 8.4,8.4 0 0 0 1.975782,5.411719 8.4,8.4 0 0 0 0.5531244,0.595312 1.2,1.2 0 0 0 -0.9773436,0.344532 1.2,1.2 0 0 0 0,1.696874 1.2,1.2 0 0 0 1.6968756,0 1.2,1.2 0 0 0 0.2953116,-1.207031 8.4,8.4 0 0 0 0.7078128,0.45 8.4,8.4 0 0 0 0.7148436,0.363281 8.4,8.4 0 0 0 0.067969,0.03047 8.4,8.4 0 0 0 0.6445308,0.250781 8.4,8.4 0 0 0 0.2039064,0.06797 8.4,8.4 0 0 0 0.5859374,0.16172 8.4,8.4 0 0 0 0.232032,0.05156 8.4,8.4 0 0 0 0.58125,0.09844 8.4,8.4 0 0 0 0.269531,0.03281 8.4,8.4 0 0 0 0.625782,0.04453 A 8.4,8.4 0 0 0 12,21.6 a 8.4,8.4 0 0 0 0.839063,-0.04219 8.4,8.4 0 0 0 3.989063,-1.490626 8.4,8.4 0 0 0 0.02578,-0.01641 1.2,1.2 0 0 0 0.297657,1.197656 1.2,1.2 0 0 0 1.696874,0 1.2,1.2 0 0 0 0,-1.696874 1.2,1.2 0 0 0 -0.991406,-0.342189 8.4,8.4 0 0 0 0.534375,-0.574218 8.4,8.4 0 0 0 0.0375,-0.03984 8.4,8.4 0 0 0 0.01406,-0.01875 8.4,8.4 0 0 0 0.442968,-0.583594 8.4,8.4 0 0 0 0.07031,-0.09609 8.4,8.4 0 0 0 0.353906,-0.578905 8.4,8.4 0 0 0 0.08672,-0.152343 8.4,8.4 0 0 0 0.283595,-0.590626 8.4,8.4 0 0 0 0.07734,-0.171094 8.4,8.4 0 0 0 0.201561,-0.555469 8.4,8.4 0 0 0 0.08672,-0.2625 A 8.4,8.4 0 0 0 20.182031,15.05625 8.4,8.4 0 0 0 20.245313,14.775 8.4,8.4 0 0 0 20.325,14.235937 8.4,8.4 0 0 0 20.3625,13.93125 8.4,8.4 0 0 0 20.4,13.2 8.4,8.4 0 0 0 12,4.8 Z m 0,2.4 a 6,6 0 0 1 6,6 6,6 0 0 1 -6,6 6,6 0 0 1 -6,-6 A 6,6 0 0 1 6.030469,12.6 6,6 0 0 1 12,7.2 Z m 2.315626,3.597656 a 0.60006,0.60006 0 0 0 -0.276563,0.08672 L 11.1,12.58125 a 0.60006,0.60006 0 0 0 -0.220312,0.817968 l 2.121094,3.675001 a 0.60006,0.60006 0 0 0 1.108594,-0.154688 0.60006,0.60006 0 0 0 -0.06797,-0.445312 l -1.821093,-3.154688 2.41875,-1.396875 a 0.60006,0.60006 0 0 0 -0.323437,-1.125 z"
     id="path1" />
</svg>
