<?xml version="1.0" encoding="UTF-8" standalone="no"?>
<svg
   width="24"
   height="24"
   version="1.1"
   id="svg1"
   sodipodi:docname="albert-tray.svg"
   xmlns:inkscape="http://www.inkscape.org/namespaces/inkscape"
   xmlns:sodipodi="http://sodipodi.sourceforge.net/DTD/sodipodi-0.dtd"
   xmlns="http://www.w3.org/2000/svg"
   xmlns:svg="http://www.w3.org/2000/svg">
  <sodipodi:namedview
     id="namedview1"
     pagecolor="#ffffff"
     bordercolor="#000000"
     borderopacity="0.25"
     inkscape:showpageshadow="2"
     inkscape:pageopacity="0.0"
     inkscape:pagecheckerboard="0"
     inkscape:deskcolor="#d1d1d1" />
  <defs
     id="defs1">
    <style
       id="current-color-scheme"
       type="text/css">.ColorScheme-Text {color:#d8dee9} .ColorScheme-Highlight {color:#3b4252}</style>
  </defs>
  <path
     d="m 21.014676,3.6015828 a 3.5948986,3.5982832 0 0 0 -2.25478,0.705468 C 17.934541,4.9214124 16.941313,5.6341176 16.024627,6.3343944 15.884163,6.15975 15.855848,6.010464 15.691801,5.8351764 14.761552,4.841184 13.261282,3.8894052 11.543193,3.6695508 8.712541,3.3075288 6.0478426,4.525698 4.396807,6.1093944 2.7457714,7.693092 1.7772718,9.5336484 1.0240126,11.164865 c -0.052092,0.112908 -0.42794524,0.883608 -0.71252884,1.832812 -0.2845836,0.949204 -0.696318,2.187949 -0.124224,4.033593 0.3257448,1.049782 1.14643564,2.069197 2.01336364,2.599219 0.866928,0.530022 1.6748064,0.678932 2.3274396,0.733594 1.3042164,0.109236 2.2053828,-0.124807 2.878242,-0.285937 1.6797408,-0.400398 3.034338,-1.021092 4.382993,-1.701563 0.788625,0.8463 1.808924,1.599691 3.609523,1.89375 1.153053,0.220733 1.856891,0.12221 2.709486,-0.01876 0.876177,-0.144853 1.747919,-0.329716 2.817302,-0.95625 a 3.5948986,3.5982832 0 0 0 0.989104,-0.857813 l 2.397753,-2.997655 a 3.5948986,3.5982832 0 0 0 0.787533,-2.25 3.5948986,3.5982832 0 0 0 -1.93836,-3.189845 c 0.11052,-0.1151998 0.235029,-0.2081902 0.346889,-0.3257806 A 3.5948986,3.5982832 0 0 0 21.014676,3.6015828 Z M 10.429867,7.199238 c 0.206275,0.0018 0.417463,0.016716 0.635183,0.044532 2.163854,0.2766252 2.990138,2.513927 3.984537,4.415626 2.344207,-1.556631 4.350583,-3.3449704 5.85024,-4.4601568 -1.825881,1.9175388 -3.210125,3.2951028 -5.580698,4.9476568 0.464132,0.816431 0.983365,1.535462 1.706321,1.924218 1.221649,0.656401 2.131905,0.326925 4.474401,-0.871875 l -2.400098,3 c -0.825862,0.483384 -2.390497,0.69449 -3.075126,0.55547 -0.960039,-0.1416 -2.010513,-1.193194 -2.782144,-2.233595 -0.164685,-0.222405 -0.314067,-0.475582 -0.466425,-0.721873 -0.574816,0.348691 -1.19526,0.714115 -1.877422,1.103906 -1.3764564,0.7716 -2.5861138,1.263956 -4.3548658,1.685156 -1.0585632,0.2532 -2.6165196,0.487481 -2.957934,-0.611719 -0.3555744,-1.146 0.4935732,-2.912513 0.6703404,-3.295313 C 5.5071154,9.9749714 7.3357534,7.1723364 10.429867,7.199238 Z M 8.5008814,9.0039264 C 8.041663,8.9599344 7.5663838,9.0688464 7.1016058,9.3883008 6.4891006,9.8099822 5.8919182,10.568569 5.428099,11.380489 c -0.74067,1.2948 -0.3130104,2.979676 1.62663,3.346876 1.8750072,-0.09872 3.67352,-0.697716 5.353344,-1.530469 C 11.806911,12.139989 11.250342,11.015117 10.563466,10.229709 9.9899924,9.5739072 9.2662462,9.0772392 8.5008814,9.0039264 Z"
     style="fill:currentColor;stroke-width:1.2"
     class="ColorScheme-Text"
     id="path1" />
</svg>
