<?xml version="1.0" encoding="UTF-8" standalone="no"?>
<svg
   width="24"
   height="24"
   version="1"
   id="svg1"
   sodipodi:docname="anatine-notification.svg"
   xmlns:inkscape="http://www.inkscape.org/namespaces/inkscape"
   xmlns:sodipodi="http://sodipodi.sourceforge.net/DTD/sodipodi-0.dtd"
   xmlns="http://www.w3.org/2000/svg"
   xmlns:svg="http://www.w3.org/2000/svg">
  <sodipodi:namedview
     id="namedview1"
     pagecolor="#ffffff"
     bordercolor="#000000"
     borderopacity="0.25"
     inkscape:showpageshadow="2"
     inkscape:pageopacity="0.0"
     inkscape:pagecheckerboard="0"
     inkscape:deskcolor="#d1d1d1" />
  <defs
     id="defs1">
    <style
       id="current-color-scheme"
       type="text/css">.ColorScheme-Text {color:#d8dee9} .ColorScheme-Highlight {color:#3b4252}</style>
  </defs>
  <path
     style="fill:currentColor;stroke-width:1.2"
     class="ColorScheme-Text"
     d="m 10.1348,21.591592 c -2.10828,-0.2208 -3.5772,-0.8364 -4.6626,-1.9548 -0.43848,-0.4512 -0.73644,-0.8676 -0.984,-1.3728 -0.52404,-1.0692 -0.6882,-2.2716 -0.43176,-3.1608 0.25512,-0.8844 0.8352,-1.86 1.65192,-2.7768 0.45348,-0.51 0.6828,-0.84 0.89268,-1.2552 0.25296,-0.5004 0.2802,-0.8364 0.25896,-1.3008001 -0.02064,-0.45132 -0.11544,-0.64584 -0.35796,-0.85116 -0.2298,-0.19452 -0.3246,-0.30168 -1.03572,-0.26712 -0.6942,0.03384 -1.03464,-0.00924 -1.3662,-0.1728 -0.25716,-0.12684 -0.34836,-0.27012 -0.2688,-0.42264 0.4134,-0.32916 0.55836,-0.68916 1.01268,-0.85668 -0.66492,-0.57864 -1.32132,-1.18392 -1.344,-2.0484 0.046703,-0.462996 0.466476,-0.351648 0.466476,-0.351648 0.658248,0.136056 1.3386,0.27288 1.95852,0.294264 0.178272,-0.024672 0.366216,-0.073176 0.417648,-0.107796 0.051444,-0.03462 0.191628,-0.239772 0.311532,-0.455904 0.467316,-0.842352 0.962184,-1.38624 1.51656,-1.66656 0.638808,-0.323124 1.5426,-0.495972 2.4006,-0.459072 1.0314,0.044364 1.9074,0.408264 2.62272,1.08954 0.491748,0.4683 0.817176,0.585408 1.28496,0.462348 0.329016,-0.086568 0.336444,-0.086136 0.336444,0.019176 0,0.138384 -0.108228,0.317712 -0.274356,0.454572 l -0.153036,0.126072 0.154272,0.09348 c 0.212604,0.12882 0.187416,0.232416 -0.06552,0.269568 -0.210672,0.030948 -0.36858,0.102252 -0.36858,0.166428 0,0.022668 0.03024,0.219036 0.0672,0.436392 0.09068,0.533256 0.05838,1.56648 -0.06492,2.07648 -0.191184,0.790716 -0.480372,1.34748 -0.974544,1.87608 -0.384156,0.35676 -1.47072,1.0881121 -1.57188,1.1535721 0.04754,0 0.46356,-0.02492 0.742068,2.69e-4 1.019376,0.0922 1.72932,0.267516 2.75292,0.754284 0.96684,0.459756 1.37772,0.509328 1.91292,0.230796 0.341448,-0.177732 0.830244,-0.55692 1.1955,-1.05924 0.312492,-0.429744 0.498408,-0.6118323 0.788652,-0.6118323 0.284268,0 0.488472,0.1911723 0.703632,0.5262843 0.304692,0.474564 0.470892,0.813468 0.58914,1.64016 0.08449,0.590748 0.06077,1.97748 -0.04394,2.56644 -0.62574,3.51984 -2.8272,5.8896 -6.18804,6.6612 -0.907056,0.208236 -1.27248,0.245676 -2.52948,0.25908 -0.652092,0.007 -1.26048,0.0048 -1.35204,-0.0047 z"
     id="path1" />
  <circle
     style="fill:currentColor;stroke-width:1.2"
     class="ColorScheme-Text"
     cx="19.1"
     cy="5.9999919"
     r="2.4000001"
     id="circle1" />
</svg>
