<?xml version="1.0" encoding="UTF-8" standalone="no"?>
<svg
   width="24"
   height="24"
   version="1.1"
   id="svg1"
   sodipodi:docname="android-messages-desktop-tray-unread.svg"
   xmlns:inkscape="http://www.inkscape.org/namespaces/inkscape"
   xmlns:sodipodi="http://sodipodi.sourceforge.net/DTD/sodipodi-0.dtd"
   xmlns="http://www.w3.org/2000/svg"
   xmlns:svg="http://www.w3.org/2000/svg">
  <sodipodi:namedview
     id="namedview1"
     pagecolor="#ffffff"
     bordercolor="#000000"
     borderopacity="0.25"
     inkscape:showpageshadow="2"
     inkscape:pageopacity="0.0"
     inkscape:pagecheckerboard="0"
     inkscape:deskcolor="#d1d1d1" />
  <defs
     id="defs1">
    <style
       id="current-color-scheme"
       type="text/css">.ColorScheme-Text {color:#d8dee9} .ColorScheme-Highlight {color:#3b4252}</style>
  </defs>
  <path
     style="fill:currentColor;stroke-width:1.2"
     class="ColorScheme-Text"
     d="M 5.0763673,3.6 A 3.6,3.6 0 0 1 5.9998047,6 3.6,3.6 0 0 1 2.9810547,9.5507813 L 3.0044921,9.5859374 3.6021484,10.5 v 5.946094 c 0,2.189929 1.7332517,3.953906 3.8859376,3.953906 h 12.628125 c 2.152686,0 3.885937,-1.763977 3.885937,-3.953906 V 7.5539063 C 24.002148,5.3639768 22.268897,3.6 20.116211,3.6 H 12.588085 7.488086 6.9208984 Z M 7.8021484,7.2 H 19.802148 c 0.3324,0 0.6,0.2676 0.6,0.6 0,0.3324 -0.2676,0.6 -0.6,0.6 H 7.8021484 c -0.3324,0 -0.6,-0.2676 -0.6,-0.6 0,-0.3324 0.2676,-0.6 0.6,-0.6 z m 0,3.6 H 19.802148 c 0.3324,0 0.6,0.2676 0.6,0.6 0,0.3324 -0.2676,0.6 -0.6,0.6 H 7.8021484 c -0.3324,0 -0.6,-0.2676 -0.6,-0.6 0,-0.3324 0.2676,-0.6 0.6,-0.6 z m 0,3.6 h 7.1999996 c 0.3324,0 0.6,0.2676 0.6,0.6 0,0.3324 -0.2676,0.6 -0.6,0.6 H 7.8021484 c -0.3324,0 -0.6,-0.2676 -0.6,-0.6 0,-0.3324 0.2676,-0.6 0.6,-0.6 z"
     id="path1" />
  <circle
     style="fill:currentColor;stroke-width:1.2"
     class="ColorScheme-Text"
     cx="2.3998046"
     cy="6"
     r="2.4000001"
     id="circle1" />
</svg>
