<?xml version="1.0" encoding="UTF-8" standalone="no"?>
<svg
   width="24"
   height="24"
   version="1.1"
   id="svg1"
   sodipodi:docname="antimicro-panel.svg"
   xmlns:inkscape="http://www.inkscape.org/namespaces/inkscape"
   xmlns:sodipodi="http://sodipodi.sourceforge.net/DTD/sodipodi-0.dtd"
   xmlns="http://www.w3.org/2000/svg"
   xmlns:svg="http://www.w3.org/2000/svg">
  <sodipodi:namedview
     id="namedview1"
     pagecolor="#ffffff"
     bordercolor="#000000"
     borderopacity="0.25"
     inkscape:showpageshadow="2"
     inkscape:pageopacity="0.0"
     inkscape:pagecheckerboard="0"
     inkscape:deskcolor="#d1d1d1" />
  <defs
     id="defs1">
    <style
       id="current-color-scheme"
       type="text/css">.ColorScheme-Text {color:#d8dee9} .ColorScheme-Highlight {color:#3b4252}</style>
  </defs>
  <path
     style="fill:currentColor;stroke-width:1.2"
     class="ColorScheme-Text"
     d="m 6.0299878,3.5005234 v 0.00234 c -2.98645,0 -5.23175872,2.4012826 -5.38873192,5.3765626 L 0.04354956,19.032162 c -0.37803168,2.22 1.77931804,3.620569 3.59326874,1.192969 1.1310945,-1.5348 3.5627981,-4.725 3.5627981,-4.725 l 9.6008036,0.04922 3.586237,4.825781 c 1.79883,2.4144 3.824233,0.429449 3.595614,-1.204687 L 23.386908,9.0013047 c 9.41e-4,-0.041549 0.01176,-0.080094 0.01176,-0.121875 -3.6e-5,-2.97888 -2.402798,-5.3789063 -5.388769,-5.3789063 z m -1.2305723,2.4 h 2.4002009 v 2.4 H 9.5998172 V 10.700524 H 7.1996164 v 2.4 H 4.7994155 v -2.4 H 2.3992146 V 8.3005234 h 2.4002009 z m 13.2011055,0 c 0.662797,5e-7 1.200099,0.5372586 1.200099,1.2 0,0.6627414 -0.537302,1.1999995 -1.200099,1.2 -0.662797,3e-7 -1.200101,-0.5372581 -1.200101,-1.2 0,-0.6627419 0.537304,-1.2000002 1.200101,-1.2 z m -2.400202,2.4 c 0.662797,-2e-7 1.200101,0.5372585 1.200101,1.2000003 0,0.6627423 -0.537304,1.2000003 -1.200101,1.2000003 -0.662797,0 -1.200099,-0.537258 -1.200099,-1.2000003 0,-0.6627413 0.537302,-1.1999998 1.200099,-1.2000003 z m 4.800402,0 c 0.662797,-2e-7 1.200101,0.5372585 1.200101,1.2000003 0,0.6627423 -0.537304,1.2000003 -1.200101,1.2000003 -0.662797,0 -1.200101,-0.537258 -1.200101,-1.2000003 0,-0.6627418 0.537304,-1.2000005 1.200101,-1.2000003 z m -2.4002,2.4000006 c 0.662797,0 1.200099,0.537259 1.200099,1.2 0,0.66274 -0.537302,1.2 -1.200099,1.2 -0.662797,0 -1.200101,-0.537258 -1.200101,-1.2 0,-0.662742 0.537304,-1.2 1.200101,-1.2 z"
     id="path1" />
</svg>
