<?xml version="1.0" encoding="UTF-8" standalone="no"?>
<svg
   width="24"
   height="24"
   version="1.1"
   id="svg2"
   sodipodi:docname="ao-app-tray.svg"
   xmlns:inkscape="http://www.inkscape.org/namespaces/inkscape"
   xmlns:sodipodi="http://sodipodi.sourceforge.net/DTD/sodipodi-0.dtd"
   xmlns="http://www.w3.org/2000/svg"
   xmlns:svg="http://www.w3.org/2000/svg">
  <sodipodi:namedview
     id="namedview2"
     pagecolor="#ffffff"
     bordercolor="#000000"
     borderopacity="0.25"
     inkscape:showpageshadow="2"
     inkscape:pageopacity="0.0"
     inkscape:pagecheckerboard="0"
     inkscape:deskcolor="#d1d1d1" />
  <defs
     id="defs1">
    <style
       id="current-color-scheme"
       type="text/css">.ColorScheme-Text {color:#d8dee9} .ColorScheme-Highlight {color:#3b4252}</style>
  </defs>
  <path
     style="fill:currentColor;stroke-width:1.2"
     class="ColorScheme-Text"
     d="m 12.049219,2.4000474 c -0.390176,-0.00924 -0.777498,0.093215 -1.115625,0.2929687 L 4.6664063,6.4008287 C 4.0070866,6.790791 3.599952,7.5122409 3.6,8.2922348 v 7.4156262 c -2e-7,0.483926 0.1714938,0.934357 0.4476563,1.307812 L 20.203126,7.4180161 C 20.02342,7.0003502 19.732272,6.6366317 19.333594,6.4008287 L 13.066406,2.6906724 C 12.757885,2.5084298 12.407558,2.4088662 12.051563,2.4000474 Z m 8.266407,5.2921874 a 2.1306488,2.1829829 0 0 1 0.0164,0.063281 c -0.0053,-0.021372 -0.01056,-0.042122 -0.0164,-0.063281 z M 4.2023437,17.221922 c 0.015307,0.01624 0.031052,0.03112 0.046876,0.04687 a 2.1306488,2.1829829 0 0 1 -0.046876,-0.04687 z"
     id="path1" />
  <path
     style="opacity:0.35;fill:currentColor;stroke-width:1.2"
     class="ColorScheme-Text"
     d="M 20.21771,7.4109783 4.0329425,17.022189 a 2.1306488,2.1829829 0 0 0 0.6325508,0.57656 l 6.2690137,3.708735 a 2.1306488,2.1829829 0 0 0 2.130986,0 l 6.269014,-3.708735 A 2.1306488,2.1829829 0 0 0 20.4,15.708757 V 8.2912874 A 2.1306488,2.1829829 0 0 0 20.21771,7.4109783 Z"
     id="path2" />
</svg>
