<?xml version="1.0" encoding="UTF-8" standalone="no"?>
<svg
   width="24"
   height="24"
   version="1"
   id="svg1"
   sodipodi:docname="audacious-panel.svg"
   xmlns:inkscape="http://www.inkscape.org/namespaces/inkscape"
   xmlns:sodipodi="http://sodipodi.sourceforge.net/DTD/sodipodi-0.dtd"
   xmlns="http://www.w3.org/2000/svg"
   xmlns:svg="http://www.w3.org/2000/svg">
  <sodipodi:namedview
     id="namedview1"
     pagecolor="#ffffff"
     bordercolor="#000000"
     borderopacity="0.25"
     inkscape:showpageshadow="2"
     inkscape:pageopacity="0.0"
     inkscape:pagecheckerboard="0"
     inkscape:deskcolor="#d1d1d1" />
  <defs
     id="defs1">
    <style
       id="current-color-scheme"
       type="text/css">.ColorScheme-Text {color:#d8dee9} .ColorScheme-Highlight {color:#3b4252}</style>
  </defs>
  <path
     style="fill:currentColor;stroke-width:1.2"
     class="ColorScheme-Text"
     d="M 12,2.4 A 9.6,9.6 0 0 0 2.4,12 9.6,9.6 0 0 0 12,21.6 9.6,9.6 0 0 0 21.6,12 9.6,9.6 0 0 0 12,2.4 Z m -0.138276,4.8024 h 0.0023 c 2.24076,0.084756 3.56628,1.5996 3.71256,3.80856 0.16476,2.49012 -0.569532,3.13944 -0.255468,3.63984 0.655824,1.044948 -0.271728,1.3176 -0.888276,1.82808 -0.384,0.318 -1.1268,0.174 -1.494,-0.2784 -1.116,-0.6456 -0.684,0.594 -2.988,0.6 -1.19796,-0.0492 -2.29836,-0.9132 -2.60868,-2.0784 -0.47568,-1.788 0.2226,-3.1068 2.16564,-3.7296 0.56184,-0.18 1.67544,-0.072 2.16624,-0.4308 0.462,-0.3384 0.2988,-0.8256 -0.27,-0.888 C 10.58802,9.58212 9.3159,9.95088 8.56326,9.80208 7.95918,9.68208 7.77534,8.52864 8.16954,8.03256 8.81466,7.22052 10.46922,7.25544 11.40402,7.21224 11.56146,7.20492 11.711676,7.1971812 11.861052,7.20288 Z m -0.29766,5.33904 c -0.518976,0 -0.949224,0.387336 -0.949224,0.869532 0,0.48222 0.430212,0.878904 0.949224,0.878904 0.519,0 0.928128,-0.396708 0.928128,-0.878904 0,-0.482172 -0.409116,-0.869532 -0.928128,-0.869532 z"
     id="path1" />
</svg>
