<?xml version="1.0" encoding="UTF-8" standalone="no"?>
<svg
   width="24"
   height="24"
   version="1.1"
   id="svg1"
   sodipodi:docname="audio-input-microphone-low-zero-panel.svg"
   xmlns:inkscape="http://www.inkscape.org/namespaces/inkscape"
   xmlns:sodipodi="http://sodipodi.sourceforge.net/DTD/sodipodi-0.dtd"
   xmlns="http://www.w3.org/2000/svg"
   xmlns:svg="http://www.w3.org/2000/svg">
  <sodipodi:namedview
     id="namedview1"
     pagecolor="#ffffff"
     bordercolor="#000000"
     borderopacity="0.25"
     inkscape:showpageshadow="2"
     inkscape:pageopacity="0.0"
     inkscape:pagecheckerboard="0"
     inkscape:deskcolor="#d1d1d1" />
  <defs
     id="defs1">
    <style
       id="current-color-scheme"
       type="text/css">.ColorScheme-Text {color:#d8dee9} .ColorScheme-Highlight {color:#3b4252}</style>
  </defs>
  <g
     transform="translate(-176 -648.36)"
     style=""
     id="g1">
    <path
       style="fill:currentColor;stroke-width:1.2"
       class="ColorScheme-Text"
       d="m 188,650.76 c -1.99452,0 -3.6,1.60548 -3.6,3.6 v 6 c 0,1.99452 1.60548,3.6 3.6,3.6 1.99452,0 3.6,-1.60548 3.6,-3.6 v -6 c 0,-1.99452 -1.60548,-3.6 -3.6,-3.6 z m 0,2.4 c 0.6648,0 1.2,0.5352 1.2,1.2 v 6 c 0,0.6648 -0.5352,1.2 -1.2,1.2 -0.6648,0 -1.2,-0.5352 -1.2,-1.2 v -6 c 0,-0.6648 0.5352,-1.2 1.2,-1.2 z m -7.2,6 v 1.2 c 0,3.5634 2.59488,6.51864 6,7.08744 V 669.96 h 2.4 v -2.51256 c 3.40512,-0.56891 6,-3.52416 6,-7.08744 v -1.2 h -2.4 v 1.2 c 0,2.68008 -2.11992,4.8 -4.8,4.8 -2.68008,0 -4.8,-2.11992 -4.8,-4.8 v -1.2 z"
       id="path1" />
  </g>
</svg>
