<?xml version="1.0" encoding="UTF-8" standalone="no"?>
<svg
   width="24"
   height="24"
   version="1.1"
   id="svg1"
   sodipodi:docname="audio-recorder-off.svg"
   xmlns:inkscape="http://www.inkscape.org/namespaces/inkscape"
   xmlns:sodipodi="http://sodipodi.sourceforge.net/DTD/sodipodi-0.dtd"
   xmlns="http://www.w3.org/2000/svg"
   xmlns:svg="http://www.w3.org/2000/svg">
  <sodipodi:namedview
     id="namedview1"
     pagecolor="#ffffff"
     bordercolor="#000000"
     borderopacity="0.25"
     inkscape:showpageshadow="2"
     inkscape:pageopacity="0.0"
     inkscape:pagecheckerboard="0"
     inkscape:deskcolor="#d1d1d1" />
  <defs
     id="defs1">
    <style
       id="current-color-scheme"
       type="text/css">.ColorScheme-Text {color:#d8dee9} .ColorScheme-Highlight {color:#3b4252}</style>
  </defs>
  <path
     style="opacity:0.35;fill:currentColor;stroke-width:1.2"
     class="ColorScheme-Text"
     d="m 6.0000056,10.8 a 1.2,1.2 0 0 0 -1.2,1.2 1.2,1.2 0 0 0 0.00703,0.133594 c 0.076447,2.922075 2.6318514,5.31043 5.9929694,5.777343 V 19.2 H 7.2000056 a 1.2,1.2 0 0 0 -1.2,1.2 1.2,1.2 0 0 0 1.2,1.2 h 9.6000014 a 1.2,1.2 0 0 0 1.199998,-1.2 1.2,1.2 0 0 0 -1.199998,-1.2 h -3.6 v -1.289063 c 3.365619,-0.467538 5.923078,-2.864001 5.992968,-5.791406 A 1.2,1.2 0 0 0 19.200005,12 a 1.2,1.2 0 0 0 -1.2,-1.2 1.2,1.2 0 0 0 -1.199998,1.2 h -0.01876 c -0.100236,2.481343 -1.693158,3.6 -4.781243,3.6 -3.088319,0 -4.6810253,-1.118657 -4.7812512,-3.6 h -0.01875 A 1.2,1.2 0 0 0 6.0000056,10.8 Z"
     id="path1" />
  <rect
     style="opacity:0.35;fill:currentColor;stroke-width:1.2"
     class="ColorScheme-Text"
     width="12"
     height="9.6000004"
     x="-14.4"
     y="-16.799999"
     rx="5.0003996"
     ry="4.8000002"
     transform="matrix(0,-1,-1,0,0,0)"
     id="rect1" />
</svg>
