<?xml version="1.0" encoding="UTF-8" standalone="no"?>
<svg
   width="24"
   height="24"
   version="1.1"
   id="svg1"
   sodipodi:docname="audio-volume-off.svg"
   xmlns:inkscape="http://www.inkscape.org/namespaces/inkscape"
   xmlns:sodipodi="http://sodipodi.sourceforge.net/DTD/sodipodi-0.dtd"
   xmlns="http://www.w3.org/2000/svg"
   xmlns:svg="http://www.w3.org/2000/svg">
  <sodipodi:namedview
     id="namedview1"
     pagecolor="#ffffff"
     bordercolor="#000000"
     borderopacity="0.25"
     inkscape:showpageshadow="2"
     inkscape:pageopacity="0.0"
     inkscape:pagecheckerboard="0"
     inkscape:deskcolor="#d1d1d1" />
  <defs
     id="defs1">
    <style
       id="current-color-scheme"
       type="text/css">.ColorScheme-Text {color:#d8dee9} .ColorScheme-Highlight {color:#3b4252}</style>
  </defs>
  <path
     style="opacity:0.35;fill:currentColor;stroke-width:1.2"
     class="ColorScheme-Text"
     d="M 2.8875,1.2 1.2,2.8875 5.7515626,7.4484374 4.8,8.4 H 1.2 v 7.2 h 3.6 l 6,6 v -9.103126 l 2.4,2.4 V 16.8 c 0,0 0.567061,-0.201203 1.246874,-0.65625 l 1.633595,1.633594 C 15.236443,18.391876 14.271281,18.884143 13.2,19.2 v 2.4 c 1.683876,-0.385426 3.235966,-1.141696 4.542187,-2.160937 L 21.1125,22.8 22.8,21.1125 19.467187,17.770313 17.807813,16.110937 16.127344,14.430469 13.2,11.503126 10.8,9.1031256 7.4484374,5.7515626 Z M 10.8,2.4 9.1453126,4.0546874 10.8,5.709375 Z m 2.4,0 v 2.4 c 3.442056,1.014852 6,3.675432 6,7.2 0,0.646177 -0.112572,1.251876 -0.274219,1.835156 L 20.775,15.684374 C 21.298861,14.54693 21.6,13.306338 21.6,12 21.6,7.337148 17.87346,3.469716 13.2,2.4 Z m 0,4.8 v 0.909375 l 3.58125,3.581251 C 16.578512,8.3363678 13.2,7.2 13.2,7.2 Z"
     id="path1" />
</svg>
