<?xml version="1.0" encoding="UTF-8" standalone="no"?>
<svg
   width="24"
   height="24"
   version="1.1"
   id="svg1"
   sodipodi:docname="audio-on.svg"
   xmlns:inkscape="http://www.inkscape.org/namespaces/inkscape"
   xmlns:sodipodi="http://sodipodi.sourceforge.net/DTD/sodipodi-0.dtd"
   xmlns="http://www.w3.org/2000/svg"
   xmlns:svg="http://www.w3.org/2000/svg">
  <sodipodi:namedview
     id="namedview1"
     pagecolor="#ffffff"
     bordercolor="#000000"
     borderopacity="0.25"
     inkscape:showpageshadow="2"
     inkscape:pageopacity="0.0"
     inkscape:pagecheckerboard="0"
     inkscape:deskcolor="#d1d1d1" />
  <defs
     id="defs1">
    <style
       id="current-color-scheme"
       type="text/css">.ColorScheme-Text {color:#d8dee9} .ColorScheme-Highlight {color:#3b4252}</style>
  </defs>
  <g
     transform="matrix(1,0,0,1,4,4)"
     style=""
     id="g1">
    <path
       class="ColorScheme-Text"
       d="m 7.95,-0.4 -4.8,4.8 h -3.6 v 7.2 h 3.6 l 4.8,4.8 z m 2.4,0 v 1.8 c 2.784,0.888 4.8,3.516 4.8,6.6 0,3.084 -2.016,5.712 -4.8,6.6 v 1.8 c 3.78,-0.936 6.6,-4.32 6.6,-8.4 0,-4.08 -2.82,-7.464 -6.6,-8.4 z m 0,4.8 v 7.2 C 11.622,10.904 12.4968,9.56 12.4968,8 12.4968,6.44 11.634,5.096 10.35,4.4 Z"
       style="fill:currentColor;stroke-width:1.2"
       id="path1" />
  </g>
</svg>
