<?xml version="1.0" encoding="UTF-8" standalone="no"?>
<svg
   width="24"
   height="24"
   version="1.1"
   id="svg1"
   sodipodi:docname="autokey-status-error.svg"
   xmlns:inkscape="http://www.inkscape.org/namespaces/inkscape"
   xmlns:sodipodi="http://sodipodi.sourceforge.net/DTD/sodipodi-0.dtd"
   xmlns="http://www.w3.org/2000/svg"
   xmlns:svg="http://www.w3.org/2000/svg">
  <sodipodi:namedview
     id="namedview1"
     pagecolor="#ffffff"
     bordercolor="#000000"
     borderopacity="0.25"
     inkscape:showpageshadow="2"
     inkscape:pageopacity="0.0"
     inkscape:pagecheckerboard="0"
     inkscape:deskcolor="#d1d1d1" />
  <defs
     id="defs1">
    <style
       id="current-color-scheme"
       type="text/css">.ColorScheme-Text {color:#d8dee9} .ColorScheme-Highlight {color:#3b4252}</style>
  </defs>
  <g
     style=""
     id="g1">
    <path
       style="fill:currentColor;stroke-width:1.2"
       class="ColorScheme-Text"
       d="M 2.3999264,18.2436 V 18.9 c 0,1.4544 1.24572,2.7 2.7,2.7 H 18.899926 c 1.4544,0 2.7,-1.2456 2.7,-2.7 v -0.6564 c -0.6384,0.582 -1.47,0.9564 -2.4,0.9564 H 4.7999264 c -0.92952,0 -1.76208,-0.3744 -2.4,-0.9564 z M 11.999926,4.8 c 0.260282,0 0.513251,0.16296 0.59526,0.42 l 1.044,3.18036 h 3.4212 c 0.58395,0 0.826017,0.82344 0.3516,1.16388 l -2.7768,1.99944 1.056,3.2418 c 0.173147,0.55044 -0.454401,1.01256 -0.9228,0.6756 l -2.76846,-2.0166 -2.7581397,2.0166 c -0.472566,0.34644 -1.1105343,-0.12036 -0.9234,-0.6756 L 9.3871062,11.55168 6.6239264,9.5412 C 6.1539688,9.19908 6.3947382,8.39904 6.9760664,8.39976 H 10.396786 L 11.453986,5.22 C 11.531266,4.98108 11.739644,4.8 11.999926,4.8 Z M 5.9999264,2.4 c -1.2231874,-2.4e-4 -2.2632352,1.18452 -2.4,2.4 L 2.4145956,15.3348 C 2.2566638,16.7568 3.3692418,18.00024 4.7999264,18 H 19.199926 c 1.430541,0 2.544146,-1.24344 2.386229,-2.6652 L 20.399926,4.8 c -0.136851,-1.21536 -1.17695,-2.4 -2.4,-2.4 z"
       id="path1" />
  </g>
</svg>
