<?xml version="1.0" encoding="UTF-8" standalone="no"?>
<svg
   width="24"
   height="24"
   version="1.1"
   id="svg2"
   sodipodi:docname="ayatanawebmail-messages-new.svg"
   xmlns:inkscape="http://www.inkscape.org/namespaces/inkscape"
   xmlns:sodipodi="http://sodipodi.sourceforge.net/DTD/sodipodi-0.dtd"
   xmlns="http://www.w3.org/2000/svg"
   xmlns:svg="http://www.w3.org/2000/svg">
  <sodipodi:namedview
     id="namedview2"
     pagecolor="#ffffff"
     bordercolor="#000000"
     borderopacity="0.25"
     inkscape:showpageshadow="2"
     inkscape:pageopacity="0.0"
     inkscape:pagecheckerboard="0"
     inkscape:deskcolor="#d1d1d1" />
  <defs
     id="defs1">
    <style
       id="current-color-scheme"
       type="text/css">.ColorScheme-Text {color:#d8dee9} .ColorScheme-Highlight {color:#3b4252}</style>
  </defs>
  <path
     style="fill:currentColor;stroke-width:1.2"
     class="ColorScheme-Text"
     d="M 4.8,4.8 C 3.4704,4.8 2.4,5.8704 2.4,7.2 v 9.6 c 0,1.3296 1.0704,2.4 2.4,2.4 H 18 c -1.974,0 -3.6,-1.626 -3.6,-3.6 0,-1.974 1.626,-3.6 3.6,-3.6 1.974,0 3.6,1.626 3.6,3.6 V 7.2 c 0,-1.3296 -1.0704,-2.4 -2.4,-2.4 z m 0,2.4 7.2,3.6 7.2,-3.6 V 9.6 L 12,13.2 4.8,9.6 Z"
     id="path1" />
  <path
     style="fill:currentColor;stroke-width:1.2"
     class="ColorScheme-Text"
     d="M 18,13.2 A 2.4,2.4 0 0 0 15.6,15.6 2.4,2.4 0 0 0 18,18 2.4,2.4 0 0 0 20.4,15.6 2.4,2.4 0 0 0 18,13.2 Z"
     id="path2" />
</svg>
