<?xml version="1.0" encoding="UTF-8" standalone="no"?>
<svg
   width="24"
   height="24"
   version="1.1"
   id="svg2"
   sodipodi:docname="ayatana-indicator-keyboard-Cm.svg"
   xmlns:inkscape="http://www.inkscape.org/namespaces/inkscape"
   xmlns:sodipodi="http://sodipodi.sourceforge.net/DTD/sodipodi-0.dtd"
   xmlns="http://www.w3.org/2000/svg"
   xmlns:svg="http://www.w3.org/2000/svg">
  <sodipodi:namedview
     id="namedview2"
     pagecolor="#ffffff"
     bordercolor="#000000"
     borderopacity="0.25"
     inkscape:showpageshadow="2"
     inkscape:pageopacity="0.0"
     inkscape:pagecheckerboard="0"
     inkscape:deskcolor="#d1d1d1" />
  <defs
     id="defs1">
    <style
       id="current-color-scheme"
       type="text/css">.ColorScheme-Text {color:#d8dee9} .ColorScheme-Highlight {color:#3b4252}</style>
  </defs>
  <g
     transform="translate(1,1)"
     style=""
     id="g2">
    <rect
       style="opacity:0;stroke-width:1.2"
       width="26.4"
       height="26.4"
       x="-2.2"
       y="-2.2"
       id="rect1" />
    <path
       style="fill:none;stroke:currentColor;stroke-width:2.4;stroke-linecap:round;stroke-linejoin:bevel"
       class="ColorScheme-Text"
       d="m 7.4003799,14.598436 c 0,1.2 0,1.2 -1.2,1.199463 -0.478524,-2.15e-4 -2.0909244,5.37e-4 -2.4,5.37e-4 -0.5547492,0 -1.1999988,0 -1.1999988,-1.2 l 1.68e-5,-3.60054 -1.68e-5,-3.5994595 c -6e-6,-1.1999999 0,-1.1999999 1.1999988,-1.1999999 0.5186508,0 0.973332,-3.037e-4 1.200018,-5.39e-4 0.5077152,-5.272e-4 0.542964,5.39e-4 1.199982,5.39e-4 1.2,0 1.2,0 1.2,1.1999999"
       id="path1" />
    <path
       style="fill:none;stroke:currentColor;stroke-width:2.4;stroke-linecap:round;stroke-linejoin:round"
       class="ColorScheme-Text"
       d="M 19.40038,15.8 V 6.1999996 m -7.2,0 3.6,4.7999984 3.6,-4.7999984 M 12.20038,15.8 V 6.1999996"
       id="path2" />
  </g>
</svg>
