<?xml version="1.0" encoding="UTF-8" standalone="no"?>
<svg
   width="24"
   height="24"
   version="1.1"
   id="svg1"
   sodipodi:docname="ayatana-indicator-notification-unread-dnd.svg"
   xmlns:inkscape="http://www.inkscape.org/namespaces/inkscape"
   xmlns:sodipodi="http://sodipodi.sourceforge.net/DTD/sodipodi-0.dtd"
   xmlns="http://www.w3.org/2000/svg"
   xmlns:svg="http://www.w3.org/2000/svg">
  <sodipodi:namedview
     id="namedview1"
     pagecolor="#ffffff"
     bordercolor="#000000"
     borderopacity="0.25"
     inkscape:showpageshadow="2"
     inkscape:pageopacity="0.0"
     inkscape:pagecheckerboard="0"
     inkscape:deskcolor="#d1d1d1" />
  <defs
     id="defs1">
    <style
       id="current-color-scheme"
       type="text/css">.ColorScheme-Text {color:#d8dee9} .ColorScheme-Highlight {color:#3b4252}</style>
  </defs>
  <path
     style="fill:currentColor;stroke-width:1.2"
     class="ColorScheme-Text"
     d="m 18.422659,2.3998917 a 1.2001138,1.1996643 0 0 0 -0.192187,0.023437 L 5.8718777,5.0272354 a 1.2001138,1.1996643 0 0 0 -0.035156,0.011724 C 4.1128722,5.4547183 2.8979895,6.7562758 2.0796902,8.2522354 1.261391,9.7480755 0.76902484,11.503462 0.44609644,13.216299 c -0.2124018,1.126516 -0.32744088,2.190229 -0.41015628,3.1875 a 3.6,3.6 0 0 1 2.26406254,-0.803907 3.6,3.6 0 0 1 0.2179687,0.01176 C 2.849613,12.468171 3.6932415,8.3952042 5.8671902,8.3952042 c 3.5368236,0 3.6328125,10.7953138 3.6328125,10.7953138 h -3.6 a 3.6,3.6 0 0 1 0,0.0094 3.6,3.6 0 0 1 -0.8554687,2.332031 l 6.949219,0.06797 a 1.2001138,1.1996643 0 0 0 0.264843,-0.02578 L 24.12969,19.019412 a 1.2001138,1.1996643 0 0 0 0.946876,-1.115624 c 0,0 0.177087,-3.567678 -0.44297,-7.249219 C 24.323568,8.8138545 23.826191,6.9293185 22.913284,5.3694229 22.000378,3.8095273 20.517898,2.5183057 18.544534,2.4092667 a 1.2001138,1.1996643 0 0 0 -0.121875,0 z m 0.06094,2.4234374 c 1.010992,0.083969 1.707694,0.63531 2.357813,1.7460938 0.66795,1.1413725 1.14252,2.7970075 1.425,4.4742191 0.489522,2.906391 0.378178,5.108115 0.35625,5.838281 L 12.230471,19.115518 C 12.222432,16.1125 11.861317,8.8924497 8.3750027,6.9514542 Z m 1.455471,5.9718759 -5.540626,1.415624 -0.09844,0.135938 0.07969,1.666406 0.16875,0.04687 4.073437,-1.080469 0.0914,1.394532 0.117192,0.01876 1.380468,-0.475782 0.08906,-0.07735 -0.253126,-2.948437 z M 5.9000027,11.992861 a 1.2,1.1995506 0 0 0 -1.2,1.2 1.2,1.1995506 0 0 0 0.3796875,0.874218 l -0.7710938,2.146876 a 3.6,3.6 0 0 1 0.6585938,0.574218 L 7.7000027,16.774111 6.741409,14.048329 a 1.2,1.1995506 0 0 0 0.3585937,-0.855468 1.2,1.1995506 0 0 0 -1.2,-1.2 z"
     id="path1" />
  <circle
     style="fill:currentColor;stroke-width:1.2"
     class="ColorScheme-Text"
     cx="2.3000028"
     cy="19.20001"
     r="2.4000001"
     id="circle1" />
</svg>
