<?xml version="1.0" encoding="UTF-8" standalone="no"?>
<svg
   width="24"
   height="24"
   version="1.1"
   id="svg2"
   sodipodi:docname="ayatana-indicator-keyboard-Mr.svg"
   xmlns:inkscape="http://www.inkscape.org/namespaces/inkscape"
   xmlns:sodipodi="http://sodipodi.sourceforge.net/DTD/sodipodi-0.dtd"
   xmlns="http://www.w3.org/2000/svg"
   xmlns:svg="http://www.w3.org/2000/svg">
  <sodipodi:namedview
     id="namedview2"
     pagecolor="#ffffff"
     bordercolor="#000000"
     borderopacity="0.25"
     inkscape:showpageshadow="2"
     inkscape:pageopacity="0.0"
     inkscape:pagecheckerboard="0"
     inkscape:deskcolor="#d1d1d1" />
  <defs
     id="defs1">
    <style
       id="current-color-scheme"
       type="text/css">.ColorScheme-Text {color:#d8dee9} .ColorScheme-Highlight {color:#3b4252}</style>
  </defs>
  <g
     transform="translate(1,1)"
     style=""
     id="g2">
    <rect
       style="opacity:0;stroke-width:1.2"
       width="26.4"
       height="26.4"
       x="-2.2"
       y="-2.2"
       id="rect1" />
    <path
       style="fill:none;stroke:currentColor;stroke-width:2.4;stroke-linecap:round;stroke-linejoin:round"
       class="ColorScheme-Text"
       d="M 9.7995022,15.8 V 6.1999996 m -7.1999997,0 3.5999999,4.7999984 3.5999998,-4.7999984 M 2.5995025,15.8 V 6.1999996"
       id="path1" />
    <path
       style="fill:none;stroke:currentColor;stroke-width:2.4;stroke-linecap:round"
       class="ColorScheme-Text"
       d="m 19.40378,15.799786 -2.400001,-3.599998 m -2.400001,-1.200003 2.399978,-5e-6 c 0.508603,-10e-7 0.874858,5.46e-4 1.200012,5.46e-4 1.199999,0 1.199999,0 1.199999,-1.2000008 0,-0.3080645 1.8e-5,-0.7197271 1.3e-5,-1.2005374 l -1.3e-5,-1.1994622 c 0,-1.2 0,-1.2 -1.199999,-1.2 -0.269405,0 -0.652934,0.011328 -1.049423,0.00863 -1.350588,-0.00918 -2.550567,-0.00907 -2.550567,-0.00907 M 14.603895,15.8 V 6.1999995"
       id="path2" />
  </g>
</svg>
