<?xml version="1.0" encoding="UTF-8" standalone="no"?>
<svg
   width="24"
   height="24"
   version="1.1"
   id="svg1"
   sodipodi:docname="barrier-connected.svg"
   xmlns:inkscape="http://www.inkscape.org/namespaces/inkscape"
   xmlns:sodipodi="http://sodipodi.sourceforge.net/DTD/sodipodi-0.dtd"
   xmlns="http://www.w3.org/2000/svg"
   xmlns:svg="http://www.w3.org/2000/svg">
  <sodipodi:namedview
     id="namedview1"
     pagecolor="#ffffff"
     bordercolor="#000000"
     borderopacity="0.25"
     inkscape:showpageshadow="2"
     inkscape:pageopacity="0.0"
     inkscape:pagecheckerboard="0"
     inkscape:deskcolor="#d1d1d1" />
  <defs
     id="defs1">
    <style
       id="current-color-scheme"
       type="text/css">.ColorScheme-Text {color:#d8dee9} .ColorScheme-Highlight {color:#3b4252}</style>
  </defs>
  <path
     style="fill:currentColor;stroke-width:1.2"
     class="ColorScheme-Text"
     d="m 9.0004001,4.5003415 c -0.9941125,0 -1.8,0.8058874 -1.8,1.8 0,0.9941125 0.8058875,1.8 1.8,1.8 1.8069509,0 3.5341819,0.3871176 5.0929699,1.3523432 0.70362,-0.9246716 1.632535,-1.7151776 2.775,-2.3531245 C 14.488583,5.3315457 11.733374,4.5003415 9.0004001,4.5003415 Z m -5.98125,1.2 c -0.077515,-0.00109 -0.1550205,0.00282 -0.2320312,0.011724 -0.9879201,0.117294 -1.6933421,1.0137675 -1.575,2.0015625 0.3777424,3.18312 1.62023,5.451128 3.2414062,6.946874 1.6211763,1.495745 3.4787538,2.232072 5.0414063,2.896875 0.9151466,0.39019 1.9732796,-0.036 2.3624996,-0.951562 0.390191,-0.915148 -0.036,-1.97328 -0.951561,-2.3625 C 9.3196282,13.56846 7.9157366,12.95767 6.8933689,12.014404 5.8710011,11.071137 5.0878721,9.8082495 4.7886814,7.2870602 4.6815085,6.3885631 3.9239722,5.7092889 3.0191501,5.7003415 Z m 17.9015629,1.2 c -0.118596,0.00556 -0.236362,0.022822 -0.351562,0.051563 -3.076719,0.7594674 -5.083737,2.1909168 -6.084376,4.0874995 -0.440435,0.834792 -0.680287,1.684135 -0.848437,2.542968 1.133627,-1.201288 2.712336,-1.882116 4.364063,-1.882031 0.154059,-4.61e-4 0.30808,0.005 0.461719,0.0164 0.566933,-0.477676 1.444079,-0.891421 2.969531,-1.267969 0.965931,-0.237762 1.555854,-1.2139735 1.317187,-2.1796843 -0.194278,-0.788315 -0.892246,-1.3489931 -1.703907,-1.36875 -0.04139,-0.00143 -0.08282,-0.00143 -0.124218,0 z m -12.7500003,2.26875 c -0.1307425,0.7487108 -0.2715005,1.4164905 -0.43125,1.9898435 0.7349869,0.665517 1.8775363,1.21017 3.2414073,1.8 0.340333,-0.971548 0.561943,-2.076281 0.752343,-3.2531247 C 10.871669,9.4374375 9.9661942,9.3003411 9.0004001,9.3003411 c -0.2890209,0 -0.5641696,-0.053047 -0.8296874,-0.1312496 z m 9.5484383,3.7382805 c -0.318375,0.01912 -0.640853,0.07127 -0.960938,0.157032 -2.56068,0.68616 -4.07979,3.317444 -3.39375,5.878124 0.686088,2.56056 3.317445,4.07991 5.878125,3.39375 2.56068,-0.68616 4.07979,-3.317444 3.39375,-5.878124 -0.600327,-2.24049 -2.688564,-3.684571 -4.917187,-3.550782 z M 3.2886814,15.185497 c -0.2111707,0.04645 -0.3749022,0.09979 -0.6117187,0.14297 -0.9789534,0.178048 -1.6277413,1.116586 -1.4484376,2.095311 0.1780499,0.978954 1.1165879,1.627741 2.0953125,1.448437 1.3616646,-0.248259 2.5593563,-0.631586 3.5976563,-1.155468 -1.0760546,-0.526621 -2.2119009,-1.188387 -3.28125,-2.175 -0.1210708,-0.111703 -0.2346922,-0.237042 -0.3515625,-0.35625 z m 16.4835936,0.107808 a 0.60006,0.60006 0 0 1 0.564845,0.874218 l -1.8,3.6 a 0.60006,0.60006 0 0 1 -0.869532,0.232032 l -1.8,-1.2 a 0.60006,0.60006 0 1 1 0.665625,-0.998438 l 1.235157,0.822656 1.495311,-2.990624 a 0.60006,0.60006 0 0 1 0.508594,-0.339844 z"
     id="path1" />
</svg>
