<?xml version="1.0" encoding="UTF-8" standalone="no"?>
<svg
   width="24"
   height="24"
   version="1.1"
   id="svg1"
   sodipodi:docname="barrier-disconnected.svg"
   xmlns:inkscape="http://www.inkscape.org/namespaces/inkscape"
   xmlns:sodipodi="http://sodipodi.sourceforge.net/DTD/sodipodi-0.dtd"
   xmlns="http://www.w3.org/2000/svg"
   xmlns:svg="http://www.w3.org/2000/svg">
  <sodipodi:namedview
     id="namedview1"
     pagecolor="#ffffff"
     bordercolor="#000000"
     borderopacity="0.25"
     inkscape:showpageshadow="2"
     inkscape:pageopacity="0.0"
     inkscape:pagecheckerboard="0"
     inkscape:deskcolor="#d1d1d1" />
  <defs
     id="defs1">
    <style
       id="current-color-scheme"
       type="text/css">.ColorScheme-Text {color:#d8dee9} .ColorScheme-Highlight {color:#3b4252}</style>
  </defs>
  <path
     style="opacity:0.35;fill:currentColor;stroke-width:1.2"
     class="ColorScheme-Text"
     d="m 9.0001457,4.7997704 a 1.8,1.8 0 0 0 -1.8,1.8 1.8,1.8 0 0 0 1.8,1.8 c 1.8069503,0 3.5341813,0.3871176 5.0929693,1.3523434 0.70362,-0.9246718 1.632535,-1.7151778 2.775,-2.3531246 C 14.488327,5.6309747 11.733119,4.7997704 9.0001457,4.7997704 Z m -5.98125,1.2 a 1.8,1.8 0 0 0 -0.2320313,0.011724 1.8,1.8 0 0 0 -1.575,2.0015626 c 0.3777425,3.18312 1.6202301,5.451128 3.2414063,6.946874 1.6211763,1.495745 3.4787538,2.232072 5.0414063,2.896875 a 1.8,1.8 0 0 0 2.362499,-0.951562 1.8,1.8 0 0 0 -0.951561,-2.3625 C 9.3193752,13.867901 7.9154822,13.257099 6.8931144,12.313833 5.8707467,11.370566 5.0876177,10.107679 4.788427,7.5864892 A 1.8,1.8 0 0 0 3.0188957,5.9997704 Z m 17.9015623,1.2 a 1.8,1.8 0 0 0 -0.351563,0.051563 c -3.076718,0.7594674 -5.083736,2.190918 -6.084375,4.0874996 -1.000637,1.896582 -1.05312,3.86286 -1.272655,5.864063 a 1.8,1.8 0 0 0 1.591406,1.985155 1.8,1.8 0 0 0 1.985155,-1.591406 c 0.230487,-2.101023 0.388629,-3.645983 0.88125,-4.579688 0.492623,-0.933703 1.261495,-1.651586 3.761719,-2.26875 a 1.8,1.8 0 0 0 1.317188,-2.1796864 1.8,1.8 0 0 0 -1.703907,-1.36875 1.8,1.8 0 0 0 -0.124218,-2e-7 z m -12.7499997,2.26875 c -0.1307424,0.7487106 -0.2715005,1.4164906 -0.43125,1.9898436 0.7349869,0.665517 1.877538,1.21017 3.2414067,1.8 0.340333,-0.971548 0.561943,-2.076281 0.752343,-3.253125 C 10.871413,9.7368666 9.9659403,9.5997704 9.0001457,9.5997704 c -0.2890209,0 -0.5641697,-0.053047 -0.8296874,-0.13125 z M 20.960302,12.145083 c -0.680999,0.214378 -1.210819,0.428916 -1.502344,0.621094 -0.397788,0.262227 -0.541257,0.459714 -0.726563,0.810937 -0.129685,0.245803 -0.246445,0.711157 -0.358593,1.314843 a 1.8,1.8 0 0 0 2.217187,0.525 1.8,1.8 0 0 0 0.827344,-2.40703 C 21.271485,12.711511 21.117329,12.426199 20.960302,12.145083 Z M 3.288427,15.484927 c -0.2111707,0.04645 -0.3749021,0.09979 -0.6117187,0.142969 a 1.8,1.8 0 0 0 -1.4484376,2.095311 1.8,1.8 0 0 0 2.0953125,1.448438 c 1.3616643,-0.24826 2.5593562,-0.631587 3.5976562,-1.155468 -1.0760545,-0.526622 -2.2119008,-1.188388 -3.28125,-2.175 C 3.5189187,15.729473 3.4052973,15.604135 3.288427,15.484927 Z"
     id="path1" />
</svg>
