<?xml version="1.0" encoding="UTF-8" standalone="no"?>
<svg
   width="24"
   height="24"
   version="1.1"
   id="svg1"
   sodipodi:docname="barrier-transfering.svg"
   xmlns:inkscape="http://www.inkscape.org/namespaces/inkscape"
   xmlns:sodipodi="http://sodipodi.sourceforge.net/DTD/sodipodi-0.dtd"
   xmlns="http://www.w3.org/2000/svg"
   xmlns:svg="http://www.w3.org/2000/svg">
  <sodipodi:namedview
     id="namedview1"
     pagecolor="#ffffff"
     bordercolor="#000000"
     borderopacity="0.25"
     inkscape:showpageshadow="2"
     inkscape:pageopacity="0.0"
     inkscape:pagecheckerboard="0"
     inkscape:deskcolor="#d1d1d1" />
  <defs
     id="defs1">
    <style
       id="current-color-scheme"
       type="text/css">.ColorScheme-Text {color:#d8dee9} .ColorScheme-Highlight {color:#3b4252}</style>
  </defs>
  <path
     style="fill:currentColor;stroke-width:1.2"
     class="ColorScheme-Text"
     d="m 9.0004001,4.5 c -0.9941125,0 -1.8,0.8058875 -1.8,1.8 0,0.9941125 0.8058875,1.8 1.8,1.8 1.8069509,0 3.5341819,0.3871176 5.0929699,1.3523436 0.70362,-0.924672 1.632535,-1.715178 2.775,-2.3531249 C 14.488583,5.3312042 11.733374,4.5 9.0004001,4.5 Z m -5.98125,1.2 C 2.9416351,5.69891 2.8641296,5.70282 2.7871189,5.711724 c -0.9879201,0.117294 -1.6933421,1.0137676 -1.575,2.0015626 0.3777424,3.1831204 1.62023,5.4511284 3.2414062,6.9468744 1.6211763,1.495745 3.4787538,2.232072 5.0414063,2.896875 0.9151466,0.39019 1.9732796,-0.036 2.3624996,-0.951562 0.390191,-0.915148 -0.036,-1.97328 -0.951561,-2.3625 C 9.3196287,13.568125 7.9157366,12.957329 6.8933689,12.014063 5.8710011,11.070796 5.0878721,9.8079084 4.7886814,7.2867187 4.6815085,6.3882216 3.9239722,5.7089474 3.0191501,5.7 Z M 20.920713,6.9 c -0.118596,0.00556 -0.236362,0.022822 -0.351562,0.051563 -3.076719,0.7594674 -5.083737,2.1909168 -6.084376,4.0875 -0.956662,1.813233 -1.048966,3.691302 -1.246874,5.601563 0.173188,-0.09215 0.366324,-0.140429 0.5625,-0.140626 h 1.8 v -3.6 c 6.6e-5,-0.662714 0.537285,-1.199934 1.2,-1.2 h 1.685156 C 19.053194,11.229733 19.92494,10.820359 21.431651,10.448437 22.397582,10.210668 22.987505,9.2344608 22.748838,8.26875 22.55456,7.4804351 21.856592,6.9197569 21.044931,6.9 21.003541,6.89857 20.962111,6.89857 20.920713,6.9 Z M 8.1707127,9.16875 c -0.1307425,0.7487112 -0.2715005,1.416491 -0.43125,1.989844 0.7349869,0.665517 1.8775375,1.21017 3.2414073,1.8 0.340333,-0.971548 0.561943,-2.076281 0.752343,-3.2531248 C 10.871669,9.4370964 9.9661942,9.3 9.0004001,9.3 8.7113792,9.3 8.4362305,9.2469528 8.1707127,9.16875 Z M 16.800401,12.9 v 4.8 h -3 l 2.1,2.4 2.1,2.4 2.1,-2.4 2.1,-2.4 h -3 V 12.9 Z M 3.2886814,15.185156 c -0.2111707,0.04645 -0.3749022,0.09979 -0.6117187,0.14297 -0.9789534,0.178048 -1.6277413,1.116586 -1.4484376,2.095311 0.1780499,0.978954 1.1165879,1.627741 2.0953125,1.448437 1.3616645,-0.248259 2.5593563,-0.631586 3.5976563,-1.155468 -1.0760546,-0.526621 -2.2119009,-1.188387 -3.28125,-2.175 -0.1210708,-0.111703 -0.2346922,-0.237042 -0.3515625,-0.35625 z"
     id="path1" />
</svg>
