<?xml version="1.0" encoding="UTF-8" standalone="no"?>
<svg
   width="24"
   height="24"
   version="1.1"
   id="svg3"
   sodipodi:docname="bauh-update-tray.svg"
   xmlns:inkscape="http://www.inkscape.org/namespaces/inkscape"
   xmlns:sodipodi="http://sodipodi.sourceforge.net/DTD/sodipodi-0.dtd"
   xmlns="http://www.w3.org/2000/svg"
   xmlns:svg="http://www.w3.org/2000/svg">
  <sodipodi:namedview
     id="namedview3"
     pagecolor="#ffffff"
     bordercolor="#000000"
     borderopacity="0.25"
     inkscape:showpageshadow="2"
     inkscape:pageopacity="0.0"
     inkscape:pagecheckerboard="0"
     inkscape:deskcolor="#d1d1d1" />
  <defs
     id="defs1">
    <style
       id="current-color-scheme"
       type="text/css">.ColorScheme-Text {color:#d8dee9} .ColorScheme-Highlight {color:#3b4252}</style>
  </defs>
  <path
     style="fill:currentColor;stroke-width:1.2"
     class="ColorScheme-Text"
     d="m 33.871058,-22.936396 c -5.30196,0 -9.6,4.29804 -9.6,9.6 0,5.3016 4.29804,9.6 9.6,9.6 5.3016,0 9.6,-4.2984 9.6,-9.6 0,-5.30196 -4.2984,-9.6 -9.6,-9.6 z m -1.2,3.6 h 2.4 v 6 h 3.6 l -4.8,6 -4.8,-6 h 3.6 z"
     id="path1" />
  <path
     style="fill:currentColor;stroke-width:1.2"
     class="ColorScheme-Text"
     d="M 4.0245061,8.2868051 2.5690374,9.1258677 C 2.3513829,9.2579114 2.1592775,9.4278135 2.0018498,9.6274301 c -0.00313,0.00312 -0.00625,0.00624 -0.00937,0.00937 -0.070126,0.077972 -0.134364,0.1610231 -0.1921874,0.2484376 -0.045264,0.087034 -0.08442,0.1771063 -0.1171872,0.2695313 -0.035224,0.07009 -0.066522,0.142086 -0.09375,0.215625 7.781e-4,0.0016 0.00156,0.0031 0.00234,0.0047 -0.057268,0.190939 -0.087251,0.389008 -0.089062,0.58828 v 7.211718 c 4.07e-4,0.758229 0.4069241,1.45877 1.0664063,1.8375 l 6.2671873,3.604688 c 0.6597744,0.379925 1.4730382,0.379925 2.1328132,0 l 6.267187,-3.604688 c 0.659482,-0.37873 1.065999,-1.079272 1.066406,-1.8375 v -7.211718 c -3.85e-4,-0.201519 -0.02959,-0.401997 -0.08672,-0.595313 C 18.061973,9.8438878 17.71108,9.3989194 17.236225,9.1258677 L 15.780757,8.2868051 c 9.38e-4,0.0046 -5.14e-4,0.00943 0,0.014063 a 6,6 0 0 1 0.121874,1.2023435 6,6 0 0 1 -5.9999999,5.9999994 6,6 0 0 1 -6,-5.9999994 6,6 0 0 1 0.1195308,-1.125 c -0.00374,-0.031148 -0.00373,-0.061696 0.00234,-0.091406 z"
     id="path2" />
  <path
     style="fill:currentColor;stroke-width:1.2"
     class="ColorScheme-Text"
     d="m 9.9026311,4.7032114 c -2.6592002,0 -4.8,2.1408 -4.8,4.8 0,2.6591996 2.1407998,4.7999996 4.8,4.7999996 2.6591999,0 4.7999999,-2.1408 4.7999999,-4.7999996 0,-2.6592 -2.1408,-4.8 -4.7999999,-4.8 z m 0,1.2 c 1.9882249,0 3.5999999,1.611775 3.5999999,3.6 h 0.96 l -1.56,1.7999996 -1.56,-1.7999996 h 0.96 c 0,-1.3254834 -1.074517,-2.4 -2.3999999,-2.4 -1.3254828,0 -2.4,1.0745166 -2.4,2.4 0,1.3254836 1.0745172,2.3999996 2.4,2.3999996 v 1.2 c -1.9882248,0 -3.6,-1.611775 -3.6,-3.5999996 0,-1.988225 1.6117752,-3.6 3.6,-3.6 z"
     id="path3" />
</svg>
