<?xml version="1.0" encoding="UTF-8" standalone="no"?>
<svg
   width="24"
   height="24"
   version="1.1"
   id="svg2"
   sodipodi:docname="bauh-tray.svg"
   xmlns:inkscape="http://www.inkscape.org/namespaces/inkscape"
   xmlns:sodipodi="http://sodipodi.sourceforge.net/DTD/sodipodi-0.dtd"
   xmlns="http://www.w3.org/2000/svg"
   xmlns:svg="http://www.w3.org/2000/svg">
  <sodipodi:namedview
     id="namedview2"
     pagecolor="#ffffff"
     bordercolor="#000000"
     borderopacity="0.25"
     inkscape:showpageshadow="2"
     inkscape:pageopacity="0.0"
     inkscape:pagecheckerboard="0"
     inkscape:deskcolor="#d1d1d1" />
  <defs
     id="defs1">
    <style
       id="current-color-scheme"
       type="text/css">.ColorScheme-Text {color:#d8dee9} .ColorScheme-Highlight {color:#3b4252}</style>
  </defs>
  <path
     style="fill:currentColor;stroke-width:1.2"
     class="ColorScheme-Text"
     d="m 33.871058,-22.936396 c -5.30196,0 -9.6,4.29804 -9.6,9.6 0,5.3016 4.29804,9.6 9.6,9.6 5.3016,0 9.6,-4.2984 9.6,-9.6 0,-5.30196 -4.2984,-9.6 -9.6,-9.6 z m -1.2,3.6 h 2.4 v 6 h 3.6 l -4.8,6 -4.8,-6 h 3.6 z"
     id="path1" />
  <path
     style="fill:currentColor;stroke-width:1.2"
     class="ColorScheme-Text"
     d="m 9.9026311,4.7032114 c -2.6592002,0 -4.8,2.1408 -4.8,4.8 0,2.6591996 2.1407998,4.7999996 4.8,4.7999996 2.6591999,0 4.7999999,-2.1408 4.7999999,-4.7999996 0,-2.6592 -2.1408,-4.8 -4.7999999,-4.8 z m 0,2.4 c 1.3254869,0 2.3999999,1.0745135 2.3999999,2.4 0,1.3254866 -1.074513,2.3999996 -2.3999999,2.3999996 -1.3254864,0 -2.4,-1.074513 -2.4,-2.3999996 0,-1.3254865 1.0745136,-2.4 2.4,-2.4 z m -0.2414064,0.459375 c -0.070356,0.00715 -0.1404528,0.011856 -0.2085936,0.025781 -0.1368012,0.02798 -0.2656932,0.064015 -0.3914064,0.1171872 -0.6008148,0.2540868 -1.054908,0.7816922 -1.2164064,1.425 0.0042,0.00451 0.00936,0.00896 0.014064,0.014063 0.112716,0.1203887 0.4067952,0.286387 0.625782,0.365625 0.11976,0.043343 0.352596,0.1105164 0.5109372,0.1429687 0.1583496,0.032389 0.2640372,0.064388 0.2484372,0.065624 -0.0156,0.00127 -0.086628,0.05389 -0.157032,0.1171872 -0.1342908,0.1207361 -0.2021172,0.2284455 -0.2601552,0.4195315 -0.031848,0.104625 -0.029784,0.137897 0.01176,0.194531 0.025008,0.03413 0.1371972,0.113952 0.2484372,0.182812 0.11124,0.06887 0.2418876,0.163625 0.288282,0.208594 0.172842,0.167509 0.2859372,0.468366 0.2859372,0.759376 0,0.07447 0.00864,0.1143 0.014064,0.13125 0.014136,0.0012 0.025668,-0.0013 0.03984,0 0.031992,-0.01234 0.080772,-0.02743 0.1570308,-0.06563 C 10.51112,11.346654 10.800979,10.932362 10.772203,10.384457 10.749242,9.947526 10.546066,9.7894792 9.7151311,9.6133677 9.1032667,9.4836684 8.7729439,9.2648604 8.7729439,8.9875864 c 0,-0.073118 0.025584,-0.1170072 0.105468,-0.196875 0.08586,-0.085873 0.102384,-0.090604 0.16875,-0.077344 0.042264,0.00845 0.152808,0.062459 0.2367192,0.1289063 0.1888944,0.1495766 0.2796492,0.2085937 0.3773436,0.2085937 0.041616,0 0.079692,-0.00551 0.079692,-0.011724 0,-0.00623 -0.0315,-0.055088 -0.065628,-0.1054692 -0.188592,-0.2778848 -0.1774236,-0.7982582 0.025776,-1.2421874 0.03192,-0.069692 0.057276,-0.1155228 0.053904,-0.1289063 -0.028224,0.00168 -0.06576,-0.00293 -0.093756,0 z M 4.0245061,8.2868051 2.5690374,9.1258677 C 2.3513829,9.2579114 2.1592775,9.4278135 2.0018498,9.6274301 c -0.00313,0.00312 -0.00625,0.00624 -0.00937,0.00937 -0.070126,0.077972 -0.134364,0.1610231 -0.1921874,0.2484376 -0.045264,0.087034 -0.08442,0.1771063 -0.1171872,0.2695313 -0.035224,0.07009 -0.066522,0.142086 -0.09375,0.215625 7.781e-4,0.0016 0.00156,0.0031 0.00234,0.0047 -0.057268,0.190939 -0.087251,0.389008 -0.089062,0.58828 v 7.211718 c 4.07e-4,0.758231 0.4069241,1.458771 1.0664063,1.8375 l 6.2671873,3.604688 c 0.6597744,0.379925 1.4730382,0.379925 2.1328132,0 l 6.267187,-3.604688 c 0.659482,-0.378729 1.065999,-1.079271 1.066406,-1.8375 v -7.211718 c -3.85e-4,-0.201519 -0.02959,-0.401997 -0.08672,-0.595313 C 18.061973,9.8438878 17.71108,9.3989194 17.236225,9.1258677 L 15.780757,8.2868051 c 9.37e-4,0.0046 -5.15e-4,0.00943 0,0.014063 a 6,6 0 0 1 0.121874,1.2023435 6,6 0 0 1 -5.9999999,5.9999994 6,6 0 0 1 -6,-5.9999994 6,6 0 0 1 0.1195308,-1.125 c -0.00374,-0.031148 -0.00373,-0.061696 0.00234,-0.091406 z M 11.613568,8.542274 c -0.06559,0.016925 -0.343548,0.311412 -0.410156,0.4453124 -0.140882,0.2832377 -0.08789,0.4677586 0.248438,0.8226563 0.11652,0.1229439 0.258444,0.2878553 0.302344,0.3656253 0.04388,0.07778 0.08112,0.142374 0.0914,0.13125 0.01032,-0.01112 0.0415,-0.101332 0.06563,-0.196875 0.06342,-0.2510338 0.06835,-0.6871419 0,-0.9398442 -0.05294,-0.1957405 -0.23916,-0.597764 -0.288281,-0.6281248 -0.0024,-0.00146 -0.005,-0.00113 -0.0094,0 z"
     id="path2" />
</svg>
