<?xml version="1.0" encoding="UTF-8" standalone="no"?>
<svg
   width="24"
   height="24"
   version="1.1"
   id="svg1"
   sodipodi:docname="bitcoin-indicator.svg"
   xmlns:inkscape="http://www.inkscape.org/namespaces/inkscape"
   xmlns:sodipodi="http://sodipodi.sourceforge.net/DTD/sodipodi-0.dtd"
   xmlns="http://www.w3.org/2000/svg"
   xmlns:svg="http://www.w3.org/2000/svg">
  <sodipodi:namedview
     id="namedview1"
     pagecolor="#ffffff"
     bordercolor="#000000"
     borderopacity="0.25"
     inkscape:showpageshadow="2"
     inkscape:pageopacity="0.0"
     inkscape:pagecheckerboard="0"
     inkscape:deskcolor="#d1d1d1" />
  <defs
     id="defs1">
    <style
       id="current-color-scheme"
       type="text/css">.ColorScheme-Text {color:#d8dee9} .ColorScheme-Highlight {color:#3b4252}</style>
  </defs>
  <path
     style="fill:currentColor;stroke-width:1.2"
     class="ColorScheme-Text"
     d="M 12,2.4 A 9.6,9.6 0 0 0 2.4,12 9.6,9.6 0 0 0 12,21.6 9.6,9.6 0 0 0 21.6,12 9.6,9.6 0 0 0 12,2.4 Z M 9.6,4.8 h 1.2 v 2.4000001 c 0.363804,-0.0132 0.841651,-6e-6 1.2,0 v -2.4 h 1.2 v 2.4 h 1.2 C 15.080069,7.2 15.600244,8.4 15.6,9.3 15.599594,10.8 15.080069,11.33181 14.179687,11.4 15.59915,11.401146 16.8,12 16.8,13.8 c 0,2.560354 -1.329376,2.833829 -3.61875,3 l 0.0375,2.4 h -1.2 l -0.0375,-2.4 H 10.8 v 2.378906 l -1.2,0.0211 v -2.4 c -0.3189108,0 -0.717534,-0.012 -1.0476564,0 H 7.2 v -1.2 c 0,0 0.8287572,0.0156 0.8109372,0 0.3858828,-0.012 0.3679008,-0.431068 0.3890628,-0.6 V 9.058596 C 8.342832,8.7912828 8.1669984,8.3916024 7.6148436,8.4000024 c 0.016464,-0.017994 -0.4148436,0 -0.4148436,0 v -1.2 h 1.2796872 c 0.2826048,0 0.8252964,0.012 1.1203128,0 v -2.4 z m 1.2,3.6 v 2.4 c 1.523248,0 2.400166,7.9e-5 2.4,-1.2 1.66e-4,-1.1999821 -0.707778,-1.2 -2.4,-1.2 z m 0,3.6 v 3.6 c 2.4,0 3.60025,1.19e-4 3.6,-1.8 2.5e-4,-1.799972 -1.2,-1.79991 -3.6,-1.8 z"
     id="path1" />
</svg>
