<?xml version="1.0" encoding="UTF-8" standalone="no"?>
<svg
   width="24"
   height="24"
   version="1.1"
   id="svg1"
   sodipodi:docname="bluemail-tray.svg"
   xmlns:inkscape="http://www.inkscape.org/namespaces/inkscape"
   xmlns:sodipodi="http://sodipodi.sourceforge.net/DTD/sodipodi-0.dtd"
   xmlns="http://www.w3.org/2000/svg"
   xmlns:svg="http://www.w3.org/2000/svg">
  <sodipodi:namedview
     id="namedview1"
     pagecolor="#ffffff"
     bordercolor="#000000"
     borderopacity="0.25"
     inkscape:showpageshadow="2"
     inkscape:pageopacity="0.0"
     inkscape:pagecheckerboard="0"
     inkscape:deskcolor="#d1d1d1" />
  <defs
     id="defs1">
    <style
       id="current-color-scheme"
       type="text/css">.ColorScheme-Text {color:#d8dee9} .ColorScheme-Highlight {color:#3b4252}</style>
  </defs>
  <path
     style="fill:currentColor;stroke-width:1.2"
     class="ColorScheme-Text"
     d="m 11.887499,2.5000187 c -0.577241,0.017435 -0.935153,0.4466388 -1.190626,0.646875 L 8.8031241,4.64455 C 9.2755504,4.3280789 9.9530115,4.0386679 10.799999,3.9437687 v 5.75625 c 0,0.6627423 0.537258,1.2000003 1.2,1.2000003 0.662742,0 1.2,-0.53726 1.2,-1.2000003 0,-0.6627418 -0.537258,-1.2 -1.2,-1.2 -0.154486,0.0012 -0.307283,0.032258 -0.45,0.091406 v -2.45625 c 0.159048,-0.022094 0.289415,-0.034469 0.45,-0.035156 1.988225,0 3.6,1.6117747 3.6,3.6 0,1.9882243 -1.611775,3.6000003 -3.6,3.6000003 -1.988226,0 -3.5999999,-1.611776 -3.5999999,-3.6000003 V 4.9633 l -5.5171875,4.3546874 3.2531249,2.6648436 3.8789065,3.138281 c 0.596938,-0.298035 1.148317,-0.557437 1.797656,-0.623437 0.679878,-0.06911 1.409698,0.103559 2.264063,0.550781 0,0 0.0023,0 0.0023,0 L 17.72578,12.097675 21.117186,9.3203313 13.303125,3.1468937 C 13.047108,2.9466575 12.68974,2.5174542 12.112499,2.5000187 c -0.03602,-0.00115 -0.07472,0.00241 -0.1125,0.00469 -0.03778,-0.00226 -0.07646,-0.00577 -0.1125,-0.00469 z M 2.3999991,10.503925 v 0.604687 3.391407 1.317187 3.274219 0.208594 c 0,0.01534 0.00412,0.02933 0.00469,0.04453 L 8.8804678,15.746893 5.8570303,13.300019 h -0.00703 L 5.3578116,12.896893 Z m 19.1999999,0 -3.0375,2.458594 -0.4125,0.3375 h -0.0047 l -2.946094,2.383593 6.400781,3.625781 c 2.5e-5,-0.0032 0,-0.0062 0,-0.0094 V 19.091399 15.81718 14.499993 11.108586 Z m -9.346874,5.184374 c -0.11126,-0.0076 -0.21569,-0.0058 -0.318752,0.0047 -0.412243,0.0419 -0.848434,0.234965 -1.464843,0.54375 l -7.4226559,4.122655 c 0.1659799,0.08648 0.3523184,0.140626 0.553125,0.140626 h 0.2039062 16.3921877 0.203906 c 0.213954,0 0.412351,-0.05969 0.585937,-0.157031 l -7.464843,-4.23048 C 12.975616,15.826796 12.5869,15.711111 12.253125,15.688299 Z"
     id="path1" />
</svg>
