<?xml version="1.0" encoding="UTF-8" standalone="no"?>
<svg
   width="24"
   height="24"
   version="1.1"
   id="svg1"
   sodipodi:docname="bomi-panel.svg"
   xmlns:inkscape="http://www.inkscape.org/namespaces/inkscape"
   xmlns:sodipodi="http://sodipodi.sourceforge.net/DTD/sodipodi-0.dtd"
   xmlns="http://www.w3.org/2000/svg"
   xmlns:svg="http://www.w3.org/2000/svg">
  <sodipodi:namedview
     id="namedview1"
     pagecolor="#ffffff"
     bordercolor="#000000"
     borderopacity="0.25"
     inkscape:showpageshadow="2"
     inkscape:pageopacity="0.0"
     inkscape:pagecheckerboard="0"
     inkscape:deskcolor="#d1d1d1" />
  <defs
     id="defs1">
    <style
       id="current-color-scheme"
       type="text/css">.ColorScheme-Text {color:#d8dee9} .ColorScheme-Highlight {color:#3b4252}</style>
  </defs>
  <path
     style="fill:currentColor;stroke-width:1.2"
     class="ColorScheme-Text"
     d="m 12,2.39986 a 9.6,9.6 0 0 0 -1.2,0.08676 v 11.916 c 0,0.6648 -0.5352,1.2 -1.2,1.2 -0.6648,0 -1.2,-0.5352 -1.2,-1.2 V 3.10834 a 9.6,9.6 0 0 0 -6,8.892 9.6,9.6 0 0 0 9.6,9.6 9.6,9.6 0 0 0 9.6,-9.6 9.6,9.6 0 0 0 -9.6,-9.6 z m 0.33516,6 a 0.360072,0.327312 0 0 1 0.02808,0 0.360072,0.327312 0 0 1 0.171096,0.04224 l 6.48048,3.27192 a 0.360072,0.327312 0 0 1 0,0.571872 l -6.48048,3.2742 a 0.360072,0.327312 0 0 1 -0.54,-0.3 v -6.54612 a 0.360072,0.327312 0 0 1 0.336,-0.324 z"
     id="path1" />
</svg>
