<?xml version="1.0" encoding="UTF-8" standalone="no"?>
<svg
   width="24"
   height="24"
   version="1.1"
   id="svg3"
   sodipodi:docname="both-good-signal-lock.svg"
   xmlns:inkscape="http://www.inkscape.org/namespaces/inkscape"
   xmlns:sodipodi="http://sodipodi.sourceforge.net/DTD/sodipodi-0.dtd"
   xmlns="http://www.w3.org/2000/svg"
   xmlns:svg="http://www.w3.org/2000/svg">
  <sodipodi:namedview
     id="namedview3"
     pagecolor="#ffffff"
     bordercolor="#000000"
     borderopacity="0.25"
     inkscape:showpageshadow="2"
     inkscape:pageopacity="0.0"
     inkscape:pagecheckerboard="0"
     inkscape:deskcolor="#d1d1d1" />
  <defs
     id="defs1">
    <style
       id="current-color-scheme"
       type="text/css">.ColorScheme-Text {color:#d8dee9} .ColorScheme-Highlight {color:#3b4252}</style>
  </defs>
  <path
     style="fill:currentColor;stroke-width:1.2"
     class="ColorScheme-Text"
     d="m 18,13.1 c -1.3296,0 -2.4,1.09308 -2.4,2.4375 V 16.7 h -1.2 v 4.8 h 7.2 V 16.7 H 20.4 V 15.5375 C 20.4,14.19362 19.3296,13.1 18,13.1 Z m 0,1.2 c 0.6648,0 1.2,0.53088 1.2,1.2 v 1.2 h -2.4 v -1.2 c 0,-0.66912 0.5352,-1.2 1.2,-1.2 z"
     id="path1" />
  <path
     style="opacity:0.35;fill:currentColor;stroke-width:1.2"
     class="ColorScheme-Text"
     d="M 12,3.5 C 8.33928,3.5 4.89672,4.78784 2.4,7.1 L 12,20.3 13.2,18.65 V 15.5 h 1.216406 C 14.439985,13.53811 16.027388,11.9 18,11.9 c 0.03458,0 0.06644,0.01068 0.100776,0.01176 L 21.6,7.1 C 19.1028,4.78772 15.6612,3.5 12,3.5 Z"
     id="path2" />
  <path
     style="fill:currentColor;stroke-width:1.2"
     class="ColorScheme-Text"
     d="M 12,7.1 A 9.6,9.6 0 0 0 4.7835937,10.378906 L 12,20.3 13.2,18.65 V 15.5 h 1.216406 C 14.439985,13.53811 16.027388,11.9 18,11.9 c 0.0345,0 0.06652,0.0084 0.100776,0.0094 l 1.110943,-1.52811 A 9.6,9.6 0 0 0 12,7.1 Z"
     id="path3" />
</svg>
