<?xml version="1.0" encoding="UTF-8" standalone="no"?>
<svg
   width="24"
   height="24"
   version="1.1"
   id="svg1"
   sodipodi:docname="brave-tray.svg"
   xmlns:inkscape="http://www.inkscape.org/namespaces/inkscape"
   xmlns:sodipodi="http://sodipodi.sourceforge.net/DTD/sodipodi-0.dtd"
   xmlns="http://www.w3.org/2000/svg"
   xmlns:svg="http://www.w3.org/2000/svg">
  <sodipodi:namedview
     id="namedview1"
     pagecolor="#ffffff"
     bordercolor="#000000"
     borderopacity="0.25"
     inkscape:showpageshadow="2"
     inkscape:pageopacity="0.0"
     inkscape:pagecheckerboard="0"
     inkscape:deskcolor="#d1d1d1" />
  <defs
     id="defs1">
    <style
       id="current-color-scheme"
       type="text/css">.ColorScheme-Text {color:#d8dee9} .ColorScheme-Highlight {color:#3b4252}</style>
  </defs>
  <path
     style="fill:currentColor;stroke-width:1.2"
     class="ColorScheme-Text"
     d="M 5.8137309,2.3999996 C 5.6387546,2.5321802 4.0878054,4.9648121 3.4454576,6.027053 2.6901043,7.2763422 2.4763542,7.4361904 2.4149589,7.911772 c -0.085953,0.6653155 0.134296,0.7767823 2.3907569,3.11372 0.7589986,0.786178 1.3939179,1.47389 1.4127202,1.528758 0.084803,0.246712 0.017573,0.6191 -0.2285833,1.270219 -0.3378698,0.893611 -0.369181,1.142724 -0.2060999,1.682385 0.1774707,0.586467 0.478745,1.058259 0.9330698,1.468806 0.422476,0.379851 0.5864141,0.76045 0.8356413,0.768124 0.089215,0.0019 0.5923309,-0.512342 1.1166858,-0.794353 v -0.0037 c 1.1425263,-0.611982 1.3113099,-0.73937 2.1846553,-1.622431 0.73425,-0.74282 0.872563,-0.966302 0.768191,-1.247737 -0.0355,-0.09518 -0.590017,-0.6771 -1.229104,-1.292728 C 8.8827614,11.328445 8.9489049,11.918293 9.523526,10.339799 9.8646464,9.4024499 9.952058,9.1118699 9.9507152,8.8521131 9.9487964,8.4596003 9.821072,8.167823 9.5647458,7.9640845 9.4609503,7.8813997 8.5487689,7.4588032 7.5374747,7.0273457 6.5259877,6.5962718 5.7054559,6.2154491 5.7125547,6.1805335 5.728671,6.1007263 6.8439897,5.9639414 7.6536396,5.9407283 L 8.2644435,5.9257403 9.3923719,6.375375 c 0.9823241,0.3919375 1.1366941,0.4706417 1.2103681,0.6294886 0.04643,0.1001424 0.08321,0.2352968 0.08244,0.2997565 -7.67e-4,0.065419 -0.182914,1.3577838 -0.404704,2.4319195 -0.3883244,1.8810314 -0.4007,1.5712144 -0.2997812,1.6861294 0.1602022,0.182254 1.7317332,0.604057 2.2221272,0.562044 0.559848,-0.05084 1.701927,-0.438891 1.817427,-0.569538 0.09344,-0.1059 0.07692,0.160191 -0.303529,-1.6786354 -0.22217,-1.0741357 -0.403938,-2.36746 -0.404705,-2.4319195 -7.68e-4,-0.065227 0.03563,-0.1988465 0.08244,-0.2997565 0.07387,-0.1588469 0.219319,-0.2353688 1.094202,-0.5845252 1.410169,-0.5638307 1.382682,-0.5607785 2.664306,-0.4309 0.598604,0.057937 1.110391,0.1373427 1.139169,0.1686132 0.03262,0.036258 -0.0037,0.080664 -0.0862,0.1161552 -0.07866,0.03645 -0.901891,0.3882086 -1.832413,0.7868607 -0.930905,0.3984602 -1.79177,0.7960333 -1.911107,0.8842817 -0.280686,0.2073835 -0.414028,0.5038003 -0.415946,0.9105103 -0.0016,0.2568792 0.08778,0.5426016 0.419694,1.4502155 0.231384,0.632703 0.419693,1.208944 0.419693,1.28146 0,0.293138 -0.193578,0.149016 -1.255332,1.169051 -0.609924,0.586275 -1.151074,1.149716 -1.202875,1.25523 -0.05179,0.105132 -0.07925,0.268198 -0.06371,0.359708 0.02686,0.155969 0.754682,0.961292 1.498906,1.656154 0.312542,0.291603 2.207531,1.647402 2.51067,1.701118 0.253257,0.04412 0.523599,-0.385456 0.966795,-0.805596 0.435523,-0.412464 0.696602,-0.825037 0.873115,-1.386373 0.165011,-0.52527 0.12574,-0.879305 -0.202342,-1.731093 -0.249406,-0.650159 -0.31483,-1.007842 -0.23233,-1.251484 0.01919,-0.05813 0.696841,-0.78897 1.502653,-1.626178 1.757439,-1.8236697 2.174916,-2.1472401 2.270846,-2.4729909 0.107436,-0.3614349 0.0319,-0.8397023 -0.209847,-1.318929 C 20.768746,5.9896914 18.386834,2.3999996 18.18346,2.3999996 17.139742,2.5908846 16.266846,3.4062373 15.166911,3.5999999 14.339712,2.763127 13.161153,2.5888956 11.996722,2.3999996 10.55953,2.6498771 9.9628232,2.6808721 8.8227865,3.5999999 7.7395451,3.4208174 6.9351534,2.546185 5.8137309,2.3999996 Z M 12.004215,16.29746 c -0.260858,-0.0012 -0.521229,0.105456 -0.985529,0.322239 -0.832482,0.387525 -2.7057788,1.442279 -2.8629127,1.614938 -0.1623135,0.178415 -0.079291,0.346659 0.3297599,0.663211 0.8428409,0.65227 2.4582068,1.903452 2.4582068,1.903452 1.098591,1.068563 1.013086,1.07121 2.139689,-0.02998 0,0 1.177171,-0.888538 2.225879,-1.746081 0.590622,-0.481529 0.68425,-0.601132 0.588319,-0.771874 -0.07732,-0.136209 -1.982705,-1.207958 -2.892889,-1.626177 -0.478596,-0.219653 -0.739666,-0.328534 -1.000523,-0.329732 z"
     id="path1" />
</svg>
