<?xml version="1.0" encoding="UTF-8" standalone="no"?>
<svg
   width="24"
   height="24"
   version="1.1"
   id="svg2"
   sodipodi:docname="brightness-low-symbolic.svg"
   xmlns:inkscape="http://www.inkscape.org/namespaces/inkscape"
   xmlns:sodipodi="http://sodipodi.sourceforge.net/DTD/sodipodi-0.dtd"
   xmlns="http://www.w3.org/2000/svg"
   xmlns:svg="http://www.w3.org/2000/svg">
  <sodipodi:namedview
     id="namedview2"
     pagecolor="#ffffff"
     bordercolor="#000000"
     borderopacity="0.25"
     inkscape:showpageshadow="2"
     inkscape:pageopacity="0.0"
     inkscape:pagecheckerboard="0"
     inkscape:deskcolor="#d1d1d1" />
  <defs
     id="defs1">
    <style
       id="current-color-scheme"
       type="text/css">.ColorScheme-Text {color:#d8dee9} .ColorScheme-Highlight {color:#3b4252}</style>
  </defs>
  <path
     class="ColorScheme-Text"
     d="m 12,1.8 -3,3 H 4.8 V 9 L 1.8,12.00036 4.8,15 v 4.2 H 9 l 3,3 3,-3 h 4.2 V 15 l 3,-3 -3,-3 V 4.8 H 15 Z M 12,6 c 3.295291,0 6,2.7018142 6,6 0,3.298186 -2.701814,6 -6,6 C 8.7018142,18 6,15.298186 6,12 6,8.7018142 8.7047083,6 12,6 Z"
     style="opacity:0.35;fill:currentColor;stroke-width:1.2"
     id="path1" />
  <path
     class="ColorScheme-Text"
     d="m 8.4,12 c 0,-1.993315 1.606982,-3.6 3.6,-3.6 v 7.2 C 10.006982,15.6 8.4,13.993315 8.4,12 Z"
     style="fill:currentColor;stroke-width:1.2"
     id="path2" />
</svg>
