<?xml version="1.0" encoding="UTF-8" standalone="no"?>
<svg
   width="24"
   height="24"
   version="1"
   id="svg1"
   sodipodi:docname="bumblebee-indicator-active.svg"
   xmlns:inkscape="http://www.inkscape.org/namespaces/inkscape"
   xmlns:sodipodi="http://sodipodi.sourceforge.net/DTD/sodipodi-0.dtd"
   xmlns="http://www.w3.org/2000/svg"
   xmlns:svg="http://www.w3.org/2000/svg">
  <sodipodi:namedview
     id="namedview1"
     pagecolor="#ffffff"
     bordercolor="#000000"
     borderopacity="0.25"
     inkscape:showpageshadow="2"
     inkscape:pageopacity="0.0"
     inkscape:pagecheckerboard="0"
     inkscape:deskcolor="#d1d1d1" />
  <defs
     id="defs1">
    <style
       id="current-color-scheme"
       type="text/css">.ColorScheme-Text {color:#d8dee9} .ColorScheme-Highlight {color:#3b4252}</style>
  </defs>
  <path
     style="fill:currentColor;stroke-width:1.2"
     class="ColorScheme-Text"
     d="m 1.474611,10.83253 c 0,0 2.27832,-3.3868804 6.8274,-3.7371604 v -1.22868 c -5.03868,0.4074 -9.402,4.7066404 -9.402,4.7066404 0,0 2.47128,7.19784 9.402,7.85688 v -1.30608 c -5.08608,-0.6444 -6.8274,-6.2916 -6.8274,-6.2916 z m 6.8274,3.6948 v 1.196088 c -3.84396,-0.6912 -4.91088,-4.7172 -4.91088,-4.7172 0,0 1.8456,-2.0599204 4.911,-2.3940004 v 1.31244 c -0.00188,0 -0.00316,-6.804e-4 -0.00484,-6.804e-4 -1.60884,-0.19452 -2.8656,1.3197598 -2.8656,1.3197598 0,0 0.704448,2.54916 2.87148,3.28272 m 0,-10.9270798 v 2.26632 c 0.147924,-0.01134 0.295836,-0.020995 0.444552,-0.026113 5.72844,-0.19452 9.46092,4.7335198 9.46092,4.7335198 0,0 -4.28688,5.25192 -8.75304,5.25192 -0.40932,0 -0.792516,-0.03827 -1.152444,-0.102504 V 17.124 c 0.307776,0.03931 0.626892,0.06253 0.95988,0.06253 4.15608,0 7.1616,-2.13852 10.07196,-4.66956 0.482532,0.389352 2.45796,1.33656 2.86404,1.75116 -2.7672,2.33412 -9.21612,4.21572 -12.8724,4.21572 -0.352416,0 -0.690876,-0.02148 -1.023564,-0.05382 v 1.96932 h 15.7968 v -16.8 h -15.7968 z m 0,5.01288 v -1.51776 c 0.1464,-0.00882 0.293904,-0.018191 0.444552,-0.023042 4.11936,-0.130368 6.82188,3.5665198 6.82188,3.5665198 0,0 -2.919,4.08456 -6.04884,4.08456 -0.450432,0 -0.85428,-0.07291 -1.21776,-0.196056 V 9.9247188 c 1.60368,0.1952402 1.92648,0.9089522 2.89056,2.5282802 l 2.14416,-1.82172 c 0,0 -1.56528,-2.0683202 -4.20396,-2.0683202 -0.286824,-9.84e-5 -0.561276,0.020232 -0.830796,0.049152"
     id="path1" />
</svg>
