<?xml version="1.0" encoding="UTF-8" standalone="no"?>
<svg
   width="24"
   height="24"
   version="1.1"
   id="svg1"
   sodipodi:docname="cadence-panel.svg"
   xmlns:inkscape="http://www.inkscape.org/namespaces/inkscape"
   xmlns:sodipodi="http://sodipodi.sourceforge.net/DTD/sodipodi-0.dtd"
   xmlns="http://www.w3.org/2000/svg"
   xmlns:svg="http://www.w3.org/2000/svg">
  <sodipodi:namedview
     id="namedview1"
     pagecolor="#ffffff"
     bordercolor="#000000"
     borderopacity="0.25"
     inkscape:showpageshadow="2"
     inkscape:pageopacity="0.0"
     inkscape:pagecheckerboard="0"
     inkscape:deskcolor="#d1d1d1" />
  <defs
     id="defs1">
    <style
       id="current-color-scheme"
       type="text/css">.ColorScheme-Text {color:#d8dee9} .ColorScheme-Highlight {color:#3b4252}</style>
  </defs>
  <path
     style="fill:currentColor;stroke-width:1.2"
     class="ColorScheme-Text"
     d="M 11.999997,2.4001569 C 10.914049,2.4181569 9.2580324,2.670773 8.8289028,3.1384382 8.3712672,3.6371642 8.272139,4.3383295 8.3999966,5.1142195 8.643749,6.5934151 10.68643,8.4069309 11.896872,10.038438 c -0.0084,0.01056 -0.0173,0.02228 -0.02578,0.03281 -0.60969,0.758729 -1.8812764,1.454735 -2.4750009,2.04375 0.0957,-0.431083 0.1646095,-1.37933 0.1804688,-1.678124 0.013584,-0.255951 0.00668,-0.4545532 -0.072656,-0.6164068 C 9.4642115,9.7395372 9.3929963,9.6619476 9.2953138,9.6306216 9.1976338,9.5992896 9.096837,9.6201816 9.0093762,9.6610896 8.7732333,10.267002 8.3826555,11.082089 8.064845,11.843122 c -0.2922528,0.485377 -0.4988589,1.354465 -0.6328125,1.664061 -0.068976,0.159421 -0.1203469,0.298444 -0.1523438,0.419532 -0.030144,0.114072 -0.044932,0.2143 -0.039844,0.307031 0.166944,0.225116 0.4368816,0.192181 0.65625,0.20625 0.09522,-9.98e-4 0.1947231,-0.01786 0.3046875,-0.08437 0.2580588,-0.156112 0.5740832,-0.40281 0.9117188,-0.691406 -0.2408064,0.797037 -0.281535,1.051183 -0.665625,1.942968 -0.00528,0.01243 -0.013362,0.02508 -0.01875,0.0375 -2.026674,-0.275883 -4.1401934,-0.10104 -5.5710938,0.391406 -0.7505568,0.258302 -1.3285522,0.83394 -1.5539062,1.469532 -0.2253528,0.635594 -0.088099,1.44313 0.478125,2.444531 0.566226,1.001401 1.1908248,1.46043 1.85625,1.603125 0.6654252,0.142695 1.3299883,-0.04392 1.9453125,-0.541406 1.173084,-0.948428 2.2308322,-3.148805 3.0539062,-5.001563 0.013512,0.002 0.028687,0.0028 0.042187,0.0047 0.9692891,0.142995 1.8990803,1.447524 2.7117203,1.661719 -0.425522,0.133608 -0.923332,0.271937 -1.192971,0.407812 -0.2308626,0.11634 -0.4019082,0.22137 -0.5039058,0.370313 -0.051,0.07447 -0.084696,0.17487 -0.063276,0.274219 0.02142,0.09935 0.091512,0.175237 0.1710936,0.229687 0.159174,0.1089 0.3850872,0.168846 0.7218752,0.217969 0.336787,0.04912 0.900827,0.07904 1.471876,0.08672 0.0017,2.3e-5 0.003,-2.2e-5 0.0047,0 0.0017,-2.2e-5 0.003,2.3e-5 0.0047,0 0.571048,-0.0077 1.135088,-0.03761 1.471875,-0.08672 0.336789,-0.04913 0.562701,-0.109068 0.721875,-0.217969 0.07958,-0.05444 0.149673,-0.130339 0.171093,-0.229687 0.02142,-0.09935 -0.01228,-0.199747 -0.06328,-0.274219 -0.102,-0.148943 -0.273043,-0.253973 -0.503906,-0.370313 -0.269639,-0.135874 -0.767449,-0.274204 -1.192969,-0.407812 0.812638,-0.214195 1.74243,-1.518724 2.711719,-1.661719 0.0135,-0.0019 0.02868,-0.0026 0.04219,-0.0047 0.823074,1.852758 1.880822,4.053135 3.053906,5.001563 0.615324,0.497486 1.279888,0.684101 1.945313,0.541406 0.665425,-0.142695 1.290024,-0.601724 1.85625,-1.603125 0.56623,-1.001401 0.703478,-1.808937 0.478124,-2.444531 -0.225354,-0.635592 -0.803348,-1.21123 -1.553905,-1.469532 -1.4309,-0.492446 -3.544422,-0.667289 -5.571095,-0.391406 -0.0054,-0.01242 -0.01346,-0.02507 -0.01874,-0.0375 -0.384092,-0.891785 -0.424819,-1.145931 -0.665625,-1.942968 0.337635,0.288596 0.65366,0.535294 0.911719,0.691406 0.109968,0.06652 0.209467,0.08338 0.304687,0.08437 0.219369,-0.01406 0.489306,0.01886 0.65625,-0.20625 0.005,-0.09274 -0.0097,-0.192959 -0.03984,-0.307031 -0.03199,-0.121088 -0.08336,-0.260111 -0.152343,-0.419532 -0.133954,-0.309596 -0.34056,-1.178684 -0.632813,-1.664061 -0.317811,-0.761033 -0.708389,-1.57612 -0.944531,-2.1820324 -0.08747,-0.040896 -0.188258,-0.0618 -0.285938,-0.030468 -0.09768,0.03132 -0.168898,0.108912 -0.208594,0.1898436 -0.07938,0.1618536 -0.08624,0.3604558 -0.07266,0.6164068 0.01586,0.298794 0.08477,1.247041 0.180469,1.678124 -0.593724,-0.589015 -1.86531,-1.285021 -2.475,-2.04375 -0.0085,-0.01056 -0.01739,-0.02225 -0.02578,-0.03281 C 13.313569,8.4069309 15.35625,6.593415 15.600002,5.1142195 15.72786,4.3383295 15.62873,3.6371642 15.171096,3.1384382 14.741961,2.670773 13.085946,2.4181569 11.999997,2.4001569 Z"
     id="path1" />
</svg>
