<?xml version="1.0" encoding="UTF-8" standalone="no"?>
<svg
   width="24"
   height="24"
   version="1.1"
   id="svg1"
   sodipodi:docname="camera-on.svg"
   xmlns:inkscape="http://www.inkscape.org/namespaces/inkscape"
   xmlns:sodipodi="http://sodipodi.sourceforge.net/DTD/sodipodi-0.dtd"
   xmlns="http://www.w3.org/2000/svg"
   xmlns:svg="http://www.w3.org/2000/svg">
  <sodipodi:namedview
     id="namedview1"
     pagecolor="#ffffff"
     bordercolor="#000000"
     borderopacity="0.25"
     inkscape:showpageshadow="2"
     inkscape:pageopacity="0.0"
     inkscape:pagecheckerboard="0"
     inkscape:deskcolor="#d1d1d1" />
  <defs
     id="defs1">
    <style
       id="current-color-scheme"
       type="text/css">.ColorScheme-Text {color:#d8dee9} .ColorScheme-Highlight {color:#3b4252}</style>
  </defs>
  <path
     style="fill:currentColor;stroke-width:1.2"
     class="ColorScheme-Text"
     d="m 11.99995,3.6 c -3.97644,0 -7.2,3.22356 -7.2,7.2 0,2.5044 1.28496,4.71012 3.225,6 h -0.825 c -2.4,0 -2.4,2.4 -2.4,2.4 v 1.2 h 14.4 v -1.2 c 0,0 0,-2.4 -2.4,-2.4 h -0.825 c 1.9404,-1.29 3.2256,-3.4956 3.2256,-6 0,-3.97644 -3.2232,-7.2 -7.2,-7.2 z m 0,4.80468 a 2.4,2.4 0 0 1 2.4,2.4 2.4,2.4 0 0 1 -2.4,2.4 2.4,2.4 0 0 1 -2.4,-2.4 2.4,2.4 0 0 1 2.4,-2.4 z"
     id="path1" />
</svg>
