<?xml version="1.0" encoding="UTF-8" standalone="no"?>
<svg
   width="24"
   height="24"
   version="1.1"
   id="svg1"
   sodipodi:docname="camera-off.svg"
   xmlns:inkscape="http://www.inkscape.org/namespaces/inkscape"
   xmlns:sodipodi="http://sodipodi.sourceforge.net/DTD/sodipodi-0.dtd"
   xmlns="http://www.w3.org/2000/svg"
   xmlns:svg="http://www.w3.org/2000/svg">
  <sodipodi:namedview
     id="namedview1"
     pagecolor="#ffffff"
     bordercolor="#000000"
     borderopacity="0.25"
     inkscape:showpageshadow="2"
     inkscape:pageopacity="0.0"
     inkscape:pagecheckerboard="0"
     inkscape:deskcolor="#d1d1d1" />
  <defs
     id="defs1">
    <style
       id="current-color-scheme"
       type="text/css">.ColorScheme-Text {color:#d8dee9} .ColorScheme-Highlight {color:#3b4252}</style>
  </defs>
  <path
     style="opacity:0.35;fill:currentColor;stroke-width:1.2"
     class="ColorScheme-Text"
     d="M 4.1875,3.5 2.5,5.1875 4.5789063,7.2757808 C 4.0230482,8.2941212 3.7,9.4575392 3.7,10.7 c 0,2.5044 1.28496,4.71 3.225,6 H 6.1 c -2.4,0 -2.4,2.4 -2.4,2.4 v 1.2 H 17.603126 L 18.8125,21.5 20.5,19.8125 16.227344,15.530469 12.826563,12.129687 9.475,8.7781256 6.0695313,5.3726563 Z M 10.9,3.5 C 9.921874,3.5 8.9893082,3.6951183 8.1390626,4.0484374 L 17.544531,13.453906 C 17.898194,12.604369 18.1,11.67715 18.1,10.7 18.1,6.72356 14.8768,3.5 10.9,3.5 Z m -2.3320313,7.764844 1.7718753,1.771875 C 9.4632946,12.825783 8.7789041,12.141393 8.5679687,11.264844 Z"
     id="path1" />
</svg>
