<?xml version="1.0" encoding="UTF-8" standalone="no"?>
<svg
   width="24"
   height="24"
   version="1.1"
   id="svg1"
   sodipodi:docname="cantata-panel.svg"
   xmlns:inkscape="http://www.inkscape.org/namespaces/inkscape"
   xmlns:sodipodi="http://sodipodi.sourceforge.net/DTD/sodipodi-0.dtd"
   xmlns="http://www.w3.org/2000/svg"
   xmlns:svg="http://www.w3.org/2000/svg">
  <sodipodi:namedview
     id="namedview1"
     pagecolor="#ffffff"
     bordercolor="#000000"
     borderopacity="0.25"
     inkscape:showpageshadow="2"
     inkscape:pageopacity="0.0"
     inkscape:pagecheckerboard="0"
     inkscape:deskcolor="#d1d1d1" />
  <defs
     id="defs1">
    <style
       id="current-color-scheme"
       type="text/css">.ColorScheme-Text {color:#d8dee9} .ColorScheme-Highlight {color:#3b4252}</style>
  </defs>
  <path
     style="fill:currentColor;stroke-width:1.2"
     class="ColorScheme-Text"
     d="M 11.772656,2.3769863 A 9.6,9.6 0 0 0 2.3999999,12.028549 9.6000005,9.6000005 0 0 0 21.6,12.028549 9.6,9.6 0 0 0 11.772656,2.3769863 Z M 12,4.7746424 c 3.970108,0 7.2,3.2298927 7.2,7.2000006 0,3.970107 -3.229892,7.199999 -7.2,7.199999 -3.9701075,0 -7.2000001,-3.229892 -7.2000001,-7.199999 0,-3.9701079 3.2298926,-7.2000006 7.2000001,-7.2000006 z m 0.480469,1.2 C 12.000469,5.9746424 12,6.476205 12,6.476205 v 5.746875 c -0.461402,-0.16325 -0.804628,-0.247633 -1.319531,-0.248437 -1.8556761,0 -3.4804689,1.074516 -3.4804689,2.399999 0,1.325484 1.7443236,2.4 3.5999999,2.4 1.855678,0 3.600001,-1.074516 3.600001,-2.4 V 8.3746424 c 0,0 2.720748,1.390402 1.589062,2.4281256 -0.31081,0.178284 -0.413194,0.453836 -0.358594,0.69375 0.08291,0.36433 0.527975,0.64642 1.14375,0.384375 C 17.699437,11.398506 18,10.533706 18,9.8137056 18,7.653705 14.40047,5.9746424 12.480469,5.9746424 Z"
     id="path1" />
</svg>
