<?xml version="1.0" encoding="UTF-8" standalone="no"?>
<svg
   width="24"
   height="24"
   version="1.1"
   id="svg1"
   sodipodi:docname="cisco-tray-quarantined.svg"
   xmlns:inkscape="http://www.inkscape.org/namespaces/inkscape"
   xmlns:sodipodi="http://sodipodi.sourceforge.net/DTD/sodipodi-0.dtd"
   xmlns="http://www.w3.org/2000/svg"
   xmlns:svg="http://www.w3.org/2000/svg">
  <sodipodi:namedview
     id="namedview1"
     pagecolor="#ffffff"
     bordercolor="#000000"
     borderopacity="0.25"
     inkscape:showpageshadow="2"
     inkscape:pageopacity="0.0"
     inkscape:pagecheckerboard="0"
     inkscape:deskcolor="#d1d1d1" />
  <defs
     id="defs1">
    <style
       id="current-color-scheme"
       type="text/css">.ColorScheme-Text {color:#d8dee9} .ColorScheme-Highlight {color:#3b4252}</style>
  </defs>
  <path
     style="fill:currentColor;stroke-width:1.2"
     class="ColorScheme-Text"
     d="M 11.900053,2.4 C 8.3117229,2.4 5.2017392,4.3523561 3.5539592,7.2539063 4.952906,6.4594492 6.5699829,6 8.3000529,6 c 0.6297108,0 1.2445884,0.063462 1.8398441,0.178125 0.0022,-0.00559 0.0049,-0.010824 0.0071,-0.016406 0.130858,-0.340297 0.280423,-0.6689321 0.447656,-0.9890624 0.01548,-0.029849 0.0311,-0.059398 0.04687,-0.089063 0.153367,-0.2861808 0.320947,-0.5618829 0.501563,-0.8296875 0.03586,-0.053626 0.06857,-0.10887 0.105468,-0.1617188 0.182367,-0.2590392 0.377141,-0.5083505 0.583593,-0.7476562 0.03365,-0.039232 0.06416,-0.08086 0.09844,-0.1195308 C 12.175971,2.9495833 12.433495,2.685517 12.708691,2.4398437 12.441517,2.4177145 12.173085,2.4 11.900053,2.4 Z m 3.871874,0.8132813 c -0.347263,0.180585 -0.672159,0.3951177 -0.98203,0.628125 -0.077,0.057568 -0.148097,0.1222769 -0.222657,0.1828124 -0.257019,0.2101594 -0.503739,0.4337764 -0.728906,0.6773439 -0.03583,0.038425 -0.07282,0.075636 -0.107808,0.1148436 -0.549021,0.6207465 -0.995339,1.3339994 -1.307813,2.11875 2.215505,1.0516082 3.94031,2.9321486 4.823437,5.2359378 0.41281,-0.09779 0.831529,-0.164063 1.253907,-0.164063 1.026403,0 2.051658,0.292517 2.941406,0.869532 0.0268,-0.29013 0.05859,-0.578962 0.05859,-0.876563 0,-3.9380017 -2.35049,-7.302861 -5.728126,-8.7867187 z M 8.3000529,8.4 C 5.8046877,8.4 3.6120251,9.655758 2.3211467,11.573437 2.3149067,11.715888 2.3000529,11.855964 2.3000529,12 c 0,5.3184 4.2816,9.6 9.6000001,9.6 0.143246,0 0.282541,-0.01494 0.424219,-0.0211 h 0.0024 c 0.585994,-0.39446 1.109155,-0.874376 1.553907,-1.420313 -0.557073,-0.937723 -0.804564,-2.003803 -0.745313,-3.063281 -0.120533,-0.09462 -0.250306,-0.177898 -0.365626,-0.278906 -0.0037,-0.0032 -0.0079,-0.0061 -0.01176,-0.0094 -0.313628,-0.275537 -0.606138,-0.574274 -0.88125,-0.888281 -0.03738,-0.0426 -0.07352,-0.08564 -0.11016,-0.128906 -0.251971,-0.298062 -0.488653,-0.607351 -0.703125,-0.935157 -0.0155,-0.02365 -0.03158,-0.04651 -0.04687,-0.07031 -0.217401,-0.338793 -0.409502,-0.695256 -0.583594,-1.061718 -0.03354,-0.07048 -0.06424,-0.141858 -0.0961,-0.213282 -0.157472,-0.353608 -0.300383,-0.714874 -0.4148437,-1.089843 -0.0078,-0.02537 -0.018228,-0.04954 -0.025776,-0.075 -0.114528,-0.386753 -0.1968948,-0.787125 -0.2625,-1.192968 -0.015384,-0.095 -0.029604,-0.189993 -0.042192,-0.285937 C 9.5371233,10.450814 9.5000529,10.03018 9.5000529,9.6 c 0,-0.3667824 0.021048,-0.7271796 0.060936,-1.0828128 C 9.1511857,8.4452616 8.7310893,8.4 8.3000529,8.4 Z m 3.6164061,0.975 c -0.0024,0.075924 -0.01641,0.1484856 -0.01641,0.225 0,0.2985372 0.02358,0.590224 0.0586,0.878906 0.01068,0.0883 0.02603,0.175239 0.03984,0.2625 0.03352,0.210864 0.07524,0.419249 0.126563,0.623438 0.02126,0.08482 0.0414,0.169546 0.06563,0.253125 0.07908,0.272087 0.169657,0.539361 0.278905,0.796875 0.11592,0.27324 0.250938,0.53534 0.398438,0.789843 0.0197,0.0341 0.04069,0.06704 0.06094,0.100788 0.138675,0.230431 0.289469,0.453077 0.452344,0.665625 0.01594,0.02086 0.03071,0.04261 0.04687,0.06328 0.150427,0.191914 0.316627,0.370681 0.485155,0.546094 0.216511,-0.353842 0.463375,-0.693062 0.76875,-0.998438 0.12756,-0.127559 0.273306,-0.223078 0.410157,-0.335156 -0.56734,-1.640558 -1.696976,-3.013827 -3.175782,-3.87188 z m 6.522657,3.825 a 4.2,4.2 0 0 0 -2.908594,1.230469 4.2,4.2 0 0 0 0,5.939062 4.2,4.2 0 0 0 5.939062,0 4.2,4.2 0 0 0 0,-5.939062 A 4.2,4.2 0 0 0 18.439116,13.2 Z m 0.11016,1.2 A 3,3 0 0 1 20.62115,15.278906 3,3 0 0 1 20.998494,19.05 L 16.845366,14.896874 A 3,3 0 0 1 18.549272,14.4 Z m -2.547657,1.35 4.153125,4.153126 A 3,3 0 0 1 16.378959,19.521094 3,3 0 0 1 16.001616,15.75 Z"
     id="path1" />
</svg>
