<?xml version="1.0" encoding="UTF-8" standalone="no"?>
<svg
   width="24"
   height="24"
   version="1.1"
   id="svg1"
   sodipodi:docname="cisco-tray-reconnecting.svg"
   xmlns:inkscape="http://www.inkscape.org/namespaces/inkscape"
   xmlns:sodipodi="http://sodipodi.sourceforge.net/DTD/sodipodi-0.dtd"
   xmlns="http://www.w3.org/2000/svg"
   xmlns:svg="http://www.w3.org/2000/svg">
  <sodipodi:namedview
     id="namedview1"
     pagecolor="#ffffff"
     bordercolor="#000000"
     borderopacity="0.25"
     inkscape:showpageshadow="2"
     inkscape:pageopacity="0.0"
     inkscape:pagecheckerboard="0"
     inkscape:deskcolor="#d1d1d1" />
  <defs
     id="defs1">
    <style
       id="current-color-scheme"
       type="text/css">.ColorScheme-Text {color:#d8dee9} .ColorScheme-Highlight {color:#3b4252}</style>
  </defs>
  <path
     style="fill:currentColor;stroke-width:1.2"
     class="ColorScheme-Text"
     d="M 11.900097,2.4 C 8.3117668,2.4 5.2017831,4.3523561 3.5540031,7.2539063 4.9529499,6.4594492 6.5700268,6 8.3000968,6 8.9298076,6 9.5446852,6.063462 10.13994,6.178125 c 0.0022,-0.00559 0.0049,-0.010824 0.0071,-0.016406 0.130859,-0.340297 0.280424,-0.6689321 0.447657,-0.9890624 0.01548,-0.029849 0.0311,-0.059398 0.04687,-0.089063 0.153367,-0.2861808 0.320947,-0.5618829 0.501563,-0.8296875 0.03586,-0.053626 0.06857,-0.10887 0.105468,-0.1617188 0.182367,-0.2590392 0.37714,-0.5083505 0.583593,-0.7476562 0.03365,-0.039232 0.06416,-0.08086 0.09844,-0.1195308 C 12.175972,2.9495832 12.433494,2.685517 12.70869,2.4398437 12.441561,2.4177145 12.173129,2.4 11.900097,2.4 Z m 3.871874,0.8132813 c -0.347263,0.180585 -0.672159,0.3951177 -0.982031,0.628125 -0.077,0.057568 -0.148096,0.1222769 -0.222656,0.1828124 -0.25702,0.2101594 -0.50374,0.4337763 -0.728906,0.6773439 -0.03583,0.038425 -0.07282,0.075636 -0.107808,0.1148436 -0.549021,0.6207465 -0.995339,1.3339994 -1.307813,2.11875 2.258135,1.071843 4.006532,3.0045098 4.872656,5.3695308 0.325091,-0.15926 0.671115,-0.278283 1.045313,-0.3 h 0.0047 c 0.09959,-0.0054 0.200412,-0.0054 0.3,0 1.014035,0.05424 1.907322,0.667644 2.376562,1.551563 l 0.243751,0.459376 C 21.407015,13.364778 21.500097,12.695207 21.500097,12 c 0,-3.9380017 -2.350491,-7.302861 -5.728126,-8.7867187 z M 8.3000968,8.4 C 5.8047316,8.4 3.6120689,9.655758 2.3211905,11.573437 2.3149505,11.715888 2.3000968,11.855964 2.3000968,12 c 0,5.3184 4.2816,9.6 9.6000002,9.6 0.143246,0 0.282541,-0.01494 0.424219,-0.0211 h 0.0024 c 0.350407,-0.235876 0.670412,-0.511388 0.972656,-0.803906 -0.270078,-0.78846 -0.258073,-1.687574 0.16875,-2.491407 l 0.35625,-0.670313 c -0.0242,-0.01637 -0.04829,-0.0329 -0.07266,-0.04921 -0.343018,-0.2299 -0.672518,-0.476552 -0.982032,-0.747656 -0.0037,-0.0032 -0.0079,-0.0061 -0.01176,-0.0094 -0.313628,-0.275537 -0.606138,-0.574274 -0.88125,-0.888281 -0.03738,-0.0426 -0.07352,-0.08564 -0.11016,-0.128906 -0.251971,-0.298062 -0.488653,-0.607351 -0.703125,-0.935157 -0.0155,-0.02365 -0.03158,-0.04651 -0.04687,-0.07031 -0.217401,-0.338794 -0.409501,-0.695256 -0.583594,-1.061718 -0.03354,-0.07048 -0.06424,-0.141859 -0.0961,-0.213282 -0.157472,-0.353608 -0.300383,-0.714874 -0.4148434,-1.089843 -0.0078,-0.02537 -0.018228,-0.04954 -0.025776,-0.075 -0.114528,-0.386753 -0.1968948,-0.787125 -0.2625,-1.192968 -0.015384,-0.095 -0.029604,-0.189993 -0.042192,-0.285937 C 9.5371564,10.45079 9.5000968,10.03018 9.5000968,9.6 c 0,-0.3667824 0.021048,-0.7271796 0.060936,-1.0828128 C 9.1512296,8.4452616 8.7311332,8.4 8.3000968,8.4 Z m 3.6164062,0.975 c -0.0024,0.075924 -0.01641,0.1484856 -0.01641,0.225 0,0.2985372 0.02358,0.590224 0.0586,0.878906 0.01068,0.0883 0.02603,0.175239 0.03984,0.2625 0.03352,0.210864 0.07524,0.419249 0.126563,0.623438 0.02126,0.08482 0.0414,0.169546 0.06563,0.253125 0.07908,0.272087 0.169657,0.539361 0.278905,0.796875 0.11592,0.27324 0.250938,0.53534 0.398438,0.789843 0.0197,0.0341 0.04069,0.06703 0.06094,0.100788 0.138675,0.230431 0.289469,0.453077 0.452344,0.665625 0.01594,0.02086 0.03071,0.04261 0.04687,0.06328 0.367875,0.469326 0.791306,0.891278 1.263281,1.256251 0.01939,0.01502 0.03905,0.0297 0.0586,0.04453 0.06634,0.05022 0.140497,0.09013 0.208593,0.138281 l 0.471094,-0.883594 C 15.117557,12.355492 13.784774,10.459034 11.916503,9.375 Z m 6.494531,3.827344 a 1.6893305,1.8361205 0 0 0 -1.373437,0.916406 l -1.25625,2.3625 -1.253907,2.364844 A 1.6893305,1.8361205 0 0 0 15.987597,21.6 h 2.5125 2.510156 a 1.6893305,1.8361205 0 0 0 1.4625,-2.753906 l -1.25625,-2.364844 -1.253906,-2.3625 a 1.6893305,1.8361205 0 0 0 -1.382813,-0.916406 1.6893305,1.8361205 0 0 0 -0.16875,0 z M 17.900097,14.4 h 1.2 V 18 h -1.2 z m 0,4.8 h 1.2 v 1.2 h -1.2 z"
     id="path1" />
</svg>
