<?xml version="1.0" encoding="UTF-8" standalone="no"?>
<svg
   width="24"
   height="24"
   version="1.1"
   id="svg1"
   sodipodi:docname="cisco-tray-notconnected.svg"
   xmlns:inkscape="http://www.inkscape.org/namespaces/inkscape"
   xmlns:sodipodi="http://sodipodi.sourceforge.net/DTD/sodipodi-0.dtd"
   xmlns="http://www.w3.org/2000/svg"
   xmlns:svg="http://www.w3.org/2000/svg">
  <sodipodi:namedview
     id="namedview1"
     pagecolor="#ffffff"
     bordercolor="#000000"
     borderopacity="0.25"
     inkscape:showpageshadow="2"
     inkscape:pageopacity="0.0"
     inkscape:pagecheckerboard="0"
     inkscape:deskcolor="#d1d1d1" />
  <defs
     id="defs1">
    <style
       id="current-color-scheme"
       type="text/css">.ColorScheme-Text {color:#d8dee9} .ColorScheme-Highlight {color:#3b4252}</style>
  </defs>
  <path
     style="fill:currentColor;stroke-width:1.2"
     class="ColorScheme-Text"
     d="m 11.999999,2.4000001 c -3.5883302,0 -6.6983138,1.9523561 -8.3460938,4.8539063 1.3989468,-0.7944571 3.0160236,-1.2539063 4.7460936,-1.2539063 0.6297108,0 1.2445884,0.063462 1.8398432,0.178125 0.0022,-0.00559 0.0049,-0.010824 0.0071,-0.016406 0.130859,-0.340297 0.280424,-0.6689321 0.447657,-0.9890624 0.01548,-0.029849 0.0311,-0.059398 0.04687,-0.089063 0.153367,-0.2861808 0.320946,-0.5618829 0.501561,-0.8296875 0.03586,-0.053626 0.06857,-0.10887 0.105468,-0.1617188 0.182368,-0.2590392 0.37714,-0.5083501 0.583593,-0.7476558 0.03365,-0.039232 0.06416,-0.08086 0.09844,-0.1195308 0.245405,-0.2754167 0.502929,-0.5394831 0.778125,-0.7851563 -0.267129,-0.022129 -0.535561,-0.039844 -0.808593,-0.039844 z m 3.871874,0.8132813 c -0.347264,0.180585 -0.672159,0.3951178 -0.982031,0.628125 -0.077,0.057568 -0.148096,0.1222769 -0.222656,0.1828124 -0.25702,0.2101594 -0.50374,0.4337765 -0.728906,0.6773439 -0.03583,0.038425 -0.07282,0.075636 -0.107808,0.1148436 -0.549021,0.6207465 -0.995338,1.3339994 -1.307812,2.11875 3.24095,1.5383448 5.477344,4.8261807 5.477344,8.6648437 0,0.367344 -0.03242,0.726664 -0.07266,1.082813 0.0038,6.71e-4 0.0079,-6.65e-4 0.01176,0 0.40975,0.07204 0.829851,0.117192 1.2609,0.117192 0.397666,0 0.785089,-0.04154 1.164843,-0.103128 0.780217,-1.387607 1.235157,-2.984464 1.235157,-4.696872 0,-3.938002 -2.350492,-7.3028612 -5.728126,-8.7867189 z M 8.3999988,8.3999999 c -2.4953652,0 -4.688028,1.2557593 -5.9789064,3.1734381 -0.00624,0.142451 -0.021096,0.282526 -0.021096,0.426562 0,5.3184 4.2816,9.6 9.5999996,9.6 0.143247,0 0.28254,-0.01494 0.424218,-0.0211 h 0.0024 c 1.191362,-0.801961 2.124468,-1.952621 2.662502,-3.307032 -0.0016,-7.48e-4 -0.0031,-0.0016 -0.0047,-0.0024 -0.388997,-0.183899 -0.760101,-0.395704 -1.11797,-0.628124 -0.03884,-0.0252 -0.07639,-0.0516 -0.11484,-0.07734 -0.343018,-0.229901 -0.672517,-0.476553 -0.98203,-0.747657 -0.0037,-0.0032 -0.0079,-0.0061 -0.01176,-0.0094 -0.313629,-0.275537 -0.606137,-0.574235 -0.881249,-0.888241 -0.03738,-0.0426 -0.07352,-0.08564 -0.11016,-0.128906 -0.251971,-0.298062 -0.488653,-0.607352 -0.703126,-0.935157 -0.0155,-0.02365 -0.03158,-0.04651 -0.04687,-0.07031 -0.2174,-0.338796 -0.409501,-0.695256 -0.583593,-1.061718 -0.03354,-0.07048 -0.06424,-0.141858 -0.0961,-0.213281 -0.157473,-0.353611 -0.300383,-0.714874 -0.414844,-1.089843 -0.0078,-0.02537 -0.01823,-0.04954 -0.025776,-0.075 C 9.881592,11.957784 9.7992252,11.557411 9.73362,11.151568 9.718236,11.056564 9.704016,10.961575 9.691428,10.86563 9.637092,10.45082 9.600024,10.030184 9.600024,9.6000048 9.600024,9.2332223 9.621072,8.8728251 9.66096,8.5171919 9.2511552,8.4452639 8.8310592,8.3999999 8.4000228,8.3999999 Z m 3.6164062,0.975 c -0.0024,0.075924 -0.0164,0.1484856 -0.0164,0.225 0,0.2985373 0.02358,0.5902241 0.0586,0.8789061 0.01068,0.0883 0.02603,0.175239 0.03984,0.2625 0.03352,0.210864 0.07524,0.41925 0.126563,0.623439 0.02126,0.08482 0.0414,0.169545 0.06563,0.253124 0.07908,0.272087 0.169657,0.539362 0.278905,0.796876 0.11592,0.27324 0.250938,0.53534 0.398439,0.789843 0.0197,0.0341 0.04069,0.06704 0.06094,0.100776 0.138674,0.230432 0.289468,0.453077 0.452343,0.665625 0.01594,0.02086 0.03071,0.04261 0.04687,0.06328 0.367876,0.469325 0.791308,0.891277 1.263282,1.25625 0.01939,0.01502 0.03905,0.0297 0.0586,0.04453 0.230193,0.174276 0.47113,0.336684 0.721875,0.482813 0.0049,0.0029 0.0091,0.0066 0.01406,0.0094 0.0024,-0.07637 0.01406,-0.15035 0.01406,-0.22733 0,-2.667393 -1.439328,-4.980824 -3.583594,-6.2249997 z m 5.34375,9.6375001 c -0.175687,0.460742 -0.373471,0.909941 -0.614063,1.333594 0.588173,-0.33402 1.124754,-0.742288 1.626563,-1.188281 -0.0032,-2.75e-4 -0.0061,-0.002 -0.0094,-0.0024 -0.340466,-0.02922 -0.673926,-0.07948 -1.003124,-0.142969 z"
     id="path1" />
</svg>
