<?xml version="1.0" encoding="UTF-8" standalone="no"?>
<svg
   width="24"
   height="24"
   version="1.1"
   id="svg1"
   sodipodi:docname="cisco-tray-connected.svg"
   xmlns:inkscape="http://www.inkscape.org/namespaces/inkscape"
   xmlns:sodipodi="http://sodipodi.sourceforge.net/DTD/sodipodi-0.dtd"
   xmlns="http://www.w3.org/2000/svg"
   xmlns:svg="http://www.w3.org/2000/svg">
  <sodipodi:namedview
     id="namedview1"
     pagecolor="#ffffff"
     bordercolor="#000000"
     borderopacity="0.25"
     inkscape:showpageshadow="2"
     inkscape:pageopacity="0.0"
     inkscape:pagecheckerboard="0"
     inkscape:deskcolor="#d1d1d1" />
  <defs
     id="defs1">
    <style
       id="current-color-scheme"
       type="text/css">.ColorScheme-Text {color:#d8dee9} .ColorScheme-Highlight {color:#3b4252}</style>
  </defs>
  <path
     style="fill:currentColor;stroke-width:1.2"
     class="ColorScheme-Text"
     d="M 11.9,2.4 C 8.31167,2.4 5.2016863,4.3523561 3.5539063,7.2539063 4.9528531,6.4594492 6.56993,6 8.3,6 c 0.6297108,0 1.2445884,0.063462 1.839844,0.178125 0.0022,-0.00559 0.0049,-0.010824 0.0071,-0.016406 0.130858,-0.340297 0.280423,-0.6689321 0.447656,-0.9890624 0.01548,-0.029849 0.0311,-0.059398 0.04687,-0.089063 0.153367,-0.2861808 0.320947,-0.5618829 0.501563,-0.8296875 0.03586,-0.053626 0.06857,-0.10887 0.105468,-0.1617188 0.182367,-0.2590392 0.377141,-0.5083505 0.583593,-0.7476562 0.03365,-0.039232 0.06416,-0.08086 0.09844,-0.1195308 C 12.175875,2.9495832 12.433398,2.685517 12.708594,2.4398437 12.441464,2.4177145 12.173032,2.4 11.9,2.4 Z m 3.871874,0.8132813 c -0.347263,0.180585 -0.672159,0.3951177 -0.98203,0.628125 -0.077,0.057568 -0.148097,0.1222769 -0.222657,0.1828124 -0.257019,0.2101594 -0.503739,0.4337763 -0.728906,0.6773439 -0.03583,0.038425 -0.07282,0.075636 -0.107808,0.1148436 -0.549021,0.6207465 -0.995339,1.3339994 -1.307813,2.11875 2.313661,1.0981995 4.096687,3.0976768 4.938281,5.5429698 C 17.876962,12.182195 18.464682,12 19.1,12 c 0.900714,0 1.711247,0.351558 2.339063,0.909374 C 21.467881,12.608693 21.5,12.308744 21.5,12 21.5,8.0619983 19.14951,4.697139 15.771874,3.2132813 Z M 8.3,8.4 C 5.8046348,8.4 3.6119721,9.655758 2.3210937,11.573437 2.3148537,11.715888 2.3,11.855964 2.3,12 c 0,5.3184 4.2816,9.6 9.6,9.6 0.143246,0 0.282541,-0.01494 0.424219,-0.0211 h 0.0024 C 13.115943,21.047501 13.777161,20.351701 14.3,19.55625 v -1.671094 c -0.14307,-0.08352 -0.294779,-0.153595 -0.433594,-0.24375 -0.03884,-0.0252 -0.07639,-0.0516 -0.11484,-0.07734 -0.343018,-0.2299 -0.672518,-0.476552 -0.982032,-0.747656 -0.0037,-0.0032 -0.0079,-0.0061 -0.01176,-0.0094 -0.313628,-0.275537 -0.606138,-0.574274 -0.88125,-0.888281 -0.03738,-0.0426 -0.07352,-0.08564 -0.11016,-0.128906 -0.251971,-0.298062 -0.488653,-0.607351 -0.703125,-0.935157 -0.0155,-0.02365 -0.03158,-0.04651 -0.04687,-0.07031 -0.217401,-0.338794 -0.409501,-0.695256 -0.583594,-1.061718 -0.03354,-0.07048 -0.06424,-0.141859 -0.0961,-0.213282 -0.157472,-0.353608 -0.300383,-0.714874 -0.4148434,-1.089843 -0.0078,-0.02537 -0.018228,-0.04954 -0.025776,-0.075 -0.114528,-0.386753 -0.1968948,-0.787125 -0.2625,-1.192968 -0.015384,-0.095 -0.029604,-0.189993 -0.042192,-0.285937 C 9.5371088,10.45079 9.5,10.03018 9.5,9.6 9.5,9.2332176 9.521048,8.8728204 9.560936,8.5171872 9.1511328,8.4452616 8.7310364,8.4 8.3,8.4 Z m 3.616406,0.975 C 11.914006,9.450924 11.9,9.5234856 11.9,9.6 c 0,0.2985372 0.02358,0.590224 0.0586,0.878906 0.01068,0.0883 0.02603,0.175239 0.03984,0.2625 0.03352,0.210864 0.07524,0.419249 0.126563,0.623438 0.02126,0.08482 0.0414,0.169546 0.06563,0.253125 0.07908,0.272087 0.169657,0.539361 0.278905,0.796875 0.11592,0.27324 0.250938,0.53534 0.398438,0.789843 0.0197,0.0341 0.04069,0.06703 0.06094,0.100788 0.138675,0.230431 0.289469,0.453077 0.452344,0.665625 0.01594,0.02086 0.03071,0.04261 0.04687,0.06328 0.367876,0.469326 0.791306,0.891278 1.263281,1.256251 0.01939,0.01502 0.03905,0.0297 0.0586,0.04453 0.126295,0.09562 0.263484,0.177099 0.396093,0.264843 L 15.5,15.6 c 0,-2.667394 -1.439328,-4.980824 -3.583594,-6.225 z M 19.1,13.2 c -1.3296,0 -2.4,1.09308 -2.4,2.4375 V 16.8 h -1.2 v 4.8 h 7.2 V 16.8 H 21.5 V 15.6375 C 21.5,14.29362 20.4296,13.2 19.1,13.2 Z m 0,1.2 c 0.6648,0 1.2,0.53088 1.2,1.2 v 1.2 h -2.4 v -1.2 c 0,-0.66912 0.5352,-1.2 1.2,-1.2 z"
     id="path1" />
</svg>
