<?xml version="1.0" encoding="UTF-8" standalone="no"?>
<svg
   width="24"
   height="24"
   version="1.1"
   id="svg1"
   sodipodi:docname="clockify-blue.svg"
   xmlns:inkscape="http://www.inkscape.org/namespaces/inkscape"
   xmlns:sodipodi="http://sodipodi.sourceforge.net/DTD/sodipodi-0.dtd"
   xmlns="http://www.w3.org/2000/svg"
   xmlns:svg="http://www.w3.org/2000/svg">
  <sodipodi:namedview
     id="namedview1"
     pagecolor="#ffffff"
     bordercolor="#000000"
     borderopacity="0.25"
     inkscape:showpageshadow="2"
     inkscape:pageopacity="0.0"
     inkscape:pagecheckerboard="0"
     inkscape:deskcolor="#d1d1d1" />
  <defs
     id="defs1">
    <style
       id="current-color-scheme"
       type="text/css">.ColorScheme-Text {color:#d8dee9} .ColorScheme-Highlight {color:#3b4252}</style>
  </defs>
  <path
     style="fill:currentColor;stroke-width:1.2"
     class="ColorScheme-Text"
     d="m 13.179492,2.4 c -5.3019332,0 -9.5999998,4.2980666 -9.5999998,9.6 0,5.301934 4.2980666,9.6 9.5999998,9.6 1.653478,-0.0018 3.278927,-0.43019 4.717969,-1.244531 L 16.015429,18.607031 A 7.2,7.2 0 0 1 13.179492,19.2 7.2,7.2 0 0 1 5.9794922,12 7.2,7.2 0 0 1 13.179492,4.8 7.2,7.2 0 0 1 16.127929,5.4328126 L 17.902149,3.65625 C 16.462331,2.8369417 14.836092,2.4041636 13.179492,2.4 Z m 6.173437,2.2054687 -4.771874,4.7742185 1.272656,1.2726568 4.771875,-4.774219 z M 13.179492,10.8 a 1.2,1.2 0 0 0 -1.2,1.2 1.2,1.2 0 0 0 1.2,1.2 1.2,1.2 0 0 0 1.2,-1.2 1.2,1.2 0 0 0 -1.2,-1.2 z m 2.674219,2.547656 -1.272656,1.272657 4.771874,4.774218 1.272657,-1.272657 z"
     id="path1" />
</svg>
