<?xml version="1.0" encoding="UTF-8" standalone="no"?>
<svg
   width="24"
   height="24"
   version="1.1"
   id="svg1"
   sodipodi:docname="cloudstatus.svg"
   xmlns:inkscape="http://www.inkscape.org/namespaces/inkscape"
   xmlns:sodipodi="http://sodipodi.sourceforge.net/DTD/sodipodi-0.dtd"
   xmlns="http://www.w3.org/2000/svg"
   xmlns:svg="http://www.w3.org/2000/svg">
  <sodipodi:namedview
     id="namedview1"
     pagecolor="#ffffff"
     bordercolor="#000000"
     borderopacity="0.25"
     inkscape:showpageshadow="2"
     inkscape:pageopacity="0.0"
     inkscape:pagecheckerboard="0"
     inkscape:deskcolor="#d1d1d1" />
  <defs
     id="defs1">
    <style
       id="current-color-scheme"
       type="text/css">.ColorScheme-Text {color:#d8dee9} .ColorScheme-Highlight {color:#3b4252}</style>
  </defs>
  <path
     style="fill:currentColor;stroke-width:1.2"
     class="ColorScheme-Text"
     d="m 11.360101,4.80011 c -2.7426321,0.0023 -5.1789534,1.7915976 -6.05748,4.44876 -1.7725999,0.871079 -2.9007042,2.703526 -2.90256,4.7148 0,2.89194 2.29232,5.23632 5.12004,5.23632 1.2555609,-0.0025 2.46645,-0.476764 3.40248,-1.3326 0.14553,0.01296 0.291451,0.02082 0.437508,0.02357 0.935153,-0.0026 1.858368,-0.21494 2.70468,-0.621816 0.742799,0.407443 1.572467,0.621035 2.41536,0.621816 2.828034,-4.74e-4 5.120107,-2.34574 5.1192,-5.238 -2.59e-4,-2.8918956 -2.292722,-5.2360434 -5.1204,-5.23584 h -0.0102 C 15.262233,5.7718952 13.369836,4.803405 11.359009,4.80011 Z"
     id="path1" />
</svg>
