<?xml version="1.0" encoding="UTF-8" standalone="no"?>
<svg
   width="24"
   height="24"
   version="1.1"
   id="svg1"
   sodipodi:docname="com.leinardi.gwe-symbolic.svg"
   xmlns:inkscape="http://www.inkscape.org/namespaces/inkscape"
   xmlns:sodipodi="http://sodipodi.sourceforge.net/DTD/sodipodi-0.dtd"
   xmlns="http://www.w3.org/2000/svg"
   xmlns:svg="http://www.w3.org/2000/svg">
  <sodipodi:namedview
     id="namedview1"
     pagecolor="#ffffff"
     bordercolor="#000000"
     borderopacity="0.25"
     inkscape:showpageshadow="2"
     inkscape:pageopacity="0.0"
     inkscape:pagecheckerboard="0"
     inkscape:deskcolor="#d1d1d1" />
  <defs
     id="defs1">
    <style
       id="current-color-scheme"
       type="text/css">.ColorScheme-Text {color:#d8dee9} .ColorScheme-Highlight {color:#3b4252}</style>
  </defs>
  <path
     style="fill:currentColor;stroke-width:1.2"
     class="ColorScheme-Text"
     d="M 8.1609376,3.5999496 C 4.9698976,3.5999496 2.4,6.1698472 2.4,9.3608868 v 7.6781252 c 0,1.255763 0.398965,2.41612 1.0757813,3.360938 h 0.00937 4.9828127 c -2.00236,-1.523792 -2.589839,-2.259376 -2.589839,-2.259375 0,-2e-6 0.4517182,-0.235146 1.1343754,-0.550782 0.6826548,-0.315636 1.4864304,-0.305462 2.1796872,-0.825 0,0 1.8731004,2.162823 3.7359364,3.635157 H 16.05 c -0.584695,-0.38582 -1.16175,-0.783653 -1.720313,-1.207031 -3.197142,-2.429665 -4.9218738,-6.632813 -4.9218738,-6.632813 0,0 2.7339378,-3.2939532 8.4023428,-4.6804692 1.084116,-0.2666616 2.316708,-0.4222752 3.445313,-0.4757808 6e-4,0.00192 0.0017,0.00516 0.0024,0.00708 0.04625,0.1291152 0.08702,0.2606268 0.124218,0.39375 0.0044,0.01758 0.0097,0.033936 0.01406,0.051564 0.05344,0.1990788 0.09482,0.4022208 0.126563,0.6093744 0.0018,0.012924 0.0053,0.024564 0.0071,0.0375 0.03172,0.2167992 0.0535,0.4389948 0.06094,0.663282 9.4e-5,0.00252 -2.88e-4,0.00456 0,0.00708 1.4e-4,0.00444 -1.36e-4,0.00972 0,0.014064 -1.030877,0.249036 -2.554471,0.6319584 -3.796876,1.1390626 -2.296724,0.937937 -4.553906,3.208594 -4.553906,3.208594 0,0 -2e-4,0.952518 2.175,3.7125 1.158474,1.47009 2.4374,2.491043 3.4125,3.152343 h 1.689844 0.0047 C 21.200387,19.455005 21.6,18.296088 21.6,17.039012 V 12.6562 c -1.061353,0.634468 -2.080411,1.457596 -2.83125,2.435156 0.06116,1.110844 0.642187,4.007813 0.642187,4.007813 -2.344842,-2.361157 -3.016406,-4.530469 -3.016406,-4.530469 0,0 1.412185,-2.283408 4.851563,-3.846094 0.09277,-0.04217 0.237098,-0.08278 0.353906,-0.121876 V 9.3608868 c 0,-3.1910396 -2.569897,-5.7609372 -5.760937,-5.7609372 z"
     id="path1" />
</svg>
