<?xml version="1.0" encoding="UTF-8" standalone="no"?>
<svg
   width="24"
   height="24"
   version="1.1"
   id="svg1"
   sodipodi:docname="copyq-normal.svg"
   xmlns:inkscape="http://www.inkscape.org/namespaces/inkscape"
   xmlns:sodipodi="http://sodipodi.sourceforge.net/DTD/sodipodi-0.dtd"
   xmlns="http://www.w3.org/2000/svg"
   xmlns:svg="http://www.w3.org/2000/svg">
  <sodipodi:namedview
     id="namedview1"
     pagecolor="#ffffff"
     bordercolor="#000000"
     borderopacity="0.25"
     inkscape:showpageshadow="2"
     inkscape:pageopacity="0.0"
     inkscape:pagecheckerboard="0"
     inkscape:deskcolor="#d1d1d1" />
  <defs
     id="defs1">
    <style
       id="current-color-scheme"
       type="text/css">.ColorScheme-Text {color:#d8dee9} .ColorScheme-Highlight {color:#3b4252}</style>
  </defs>
  <path
     style="fill:currentColor;stroke-width:1.2"
     class="ColorScheme-Text"
     d="m 6.59996,3.5000023 a 4.2,4.2 0 0 0 -4.2,4.2 4.2,4.2 0 0 0 4.2,4.1999997 4.2,4.2 0 0 0 1.77192,-0.396 l 1.82808,2.196 -6.6,7.8 8.4,-6 8.4,6 -6.6,-7.8 1.82808,-2.1984 a 4.2,4.2 0 0 0 1.7724,0.3984 4.2,4.2 0 0 0 4.2,-4.1999997 4.2,4.2 0 0 0 -0.0024,-0.03048 c 9.2e-5,-0.02358 -0.002,-0.046734 -0.0024,-0.070313 a 4.2,4.2 0 0 0 -0.054,-0.56484 c -0.0216,-0.1434 -0.0552,-0.28332 -0.0912,-0.4242 a 4.2,4.2 0 0 0 -0.0708,-0.24612 c -0.0756,-0.23352 -0.1752,-0.45768 -0.2928,-0.67728 -0.1848,-0.34572 -0.402,-0.67824 -0.6912,-0.97032 -0.6432,-0.64896 -1.446,-1.02564 -2.28,-1.15548 a 4.2,4.2 0 0 0 -0.03281,-0.00469 4.2,4.2 0 0 0 -0.553128,-0.051563 c -0.0144,-1.2e-4 -0.0288,-0.00468 -0.0432,-0.00468 -0.0071,0 -0.01403,0.0023 -0.0211,0.00234 a 4.2,4.2 0 0 0 -0.0648,-0.0024 4.2,4.2 0 0 0 -4.2,4.2 4.2,4.2 0 0 0 0.4596,1.9008 l -1.6596,2.2992007 -1.6572,-2.2944007 a 4.2,4.2 0 0 0 0.4572,-1.9056 4.2,4.2 0 0 0 -4.2,-4.2 z m 0,2.4 a 1.8,1.8 0 0 1 1.8,1.8 1.8,1.8 0 0 1 -1.8,1.8 1.8,1.8 0 0 1 -1.8,-1.8 1.8,1.8 0 0 1 1.8,-1.8 z m 10.8,0 a 1.8,1.8 0 0 1 1.8,1.8 1.8,1.8 0 0 1 -1.8,1.8 1.8,1.8 0 0 1 -1.8,-1.8 1.8,1.8 0 0 1 1.8,-1.8 z"
     id="path1" />
</svg>
