<?xml version="1.0" encoding="UTF-8" standalone="no"?>
<svg
   width="24"
   height="24"
   version="1.1"
   id="svg1"
   sodipodi:docname="copyq-busy.svg"
   xmlns:inkscape="http://www.inkscape.org/namespaces/inkscape"
   xmlns:sodipodi="http://sodipodi.sourceforge.net/DTD/sodipodi-0.dtd"
   xmlns="http://www.w3.org/2000/svg"
   xmlns:svg="http://www.w3.org/2000/svg">
  <sodipodi:namedview
     id="namedview1"
     pagecolor="#ffffff"
     bordercolor="#000000"
     borderopacity="0.25"
     inkscape:showpageshadow="2"
     inkscape:pageopacity="0.0"
     inkscape:pagecheckerboard="0"
     inkscape:deskcolor="#d1d1d1" />
  <defs
     id="defs1">
    <style
       id="current-color-scheme"
       type="text/css">.ColorScheme-Text {color:#d8dee9} .ColorScheme-Highlight {color:#3b4252}</style>
  </defs>
  <path
     style="fill:currentColor;stroke-width:1.2"
     class="ColorScheme-Text"
     d="m 7.79995,2.4 c -2.3196,0 -4.2,1.8804 -4.2,4.2 0,2.3196 1.8804,4.2 4.2,4.2 0.31248,-0.0012 0.62376,-0.0372 0.92808,-0.108 l 2.07192,3.108 c -2.7,4.2 1.2,7.8 1.2,7.8 0,0 3.9,-3.6 1.2,-7.8 l 2.0742,-3.10776 c 0.3048,0.0708 0.6144,0.1068 0.9264,0.108 2.3196,0 4.2,-1.8804 4.2,-4.2 0,-2.3196 -1.8804,-4.2 -4.2,-4.2 -2.3196,0 -4.2,1.8804 -4.2,4.2 0.0014,0.967296 0.336732,1.9044 0.949224,2.65308 l -0.9492,1.54692 -0.9468,-1.54452 c 0.612,-0.74964 0.9468,-1.68768 0.9468,-2.65548 0,-2.3196 -1.8804,-4.2 -4.2,-4.2 z m 0,2.4 c 0.99408,0 1.8,0.80592 1.8,1.8 0,0.99408 -0.80592,1.8 -1.8,1.8 -0.99408,0 -1.8,-0.80592 -1.8,-1.8 0,-0.99408 0.80592,-1.8 1.8,-1.8 z m 8.4,0 c 0.9936,0 1.8,0.80592 1.8,1.8 0,0.99408 -0.8064,1.8 -1.8,1.8 -0.9936,0 -1.8,-0.80592 -1.8,-1.8 0,-0.99408 0.8064,-1.8 1.8,-1.8 z"
     id="path1" />
</svg>
