<?xml version="1.0" encoding="UTF-8" standalone="no"?>
<svg
   width="24"
   height="24"
   version="1.1"
   id="svg1"
   sodipodi:docname="corectrl-panel.svg"
   xmlns:inkscape="http://www.inkscape.org/namespaces/inkscape"
   xmlns:sodipodi="http://sodipodi.sourceforge.net/DTD/sodipodi-0.dtd"
   xmlns="http://www.w3.org/2000/svg"
   xmlns:svg="http://www.w3.org/2000/svg">
  <sodipodi:namedview
     id="namedview1"
     pagecolor="#ffffff"
     bordercolor="#000000"
     borderopacity="0.25"
     inkscape:showpageshadow="2"
     inkscape:pageopacity="0.0"
     inkscape:pagecheckerboard="0"
     inkscape:deskcolor="#d1d1d1" />
  <defs
     id="defs1">
    <style
       id="current-color-scheme"
       type="text/css">.ColorScheme-Text {color:#d8dee9} .ColorScheme-Highlight {color:#3b4252}</style>
  </defs>
  <g
     transform="translate(4,4)"
     style=""
     id="g1">
    <path
       style="fill:currentColor;stroke-width:1.2"
       d="m -0.4,-1.6 v 2.4 h -1.2 v 14.4 h 1.2 v 2.4 H 2 v -2.4 h 2.4 v 2.4 h 2.4 v -2.4 h 2.4 v 2.4 h 2.4 V 15.2 H 14 v 2.4 h 2.4 v -2.4 h 1.2 V 0.8 H 16.4 V -1.6 H 14 V 0.8 H 11.6 V -1.6 H 9.2 V 0.8 H 6.8 V -1.6 H 4.4 V 0.8 H 2 v -2.4 z m 1.2,4.8 h 6 V 5.6 H 5.6 V 4.4 H 2 V 8 h 1.2 v 3.6 h 2.4 v -1.2 h 1.2 v 2.4 h -6 z m 8.4,0 h 6 V 5.6 H 14 V 4.4 H 10.4 V 8 h 1.2 v 3.6 H 14 v -1.2 h 1.2 v 2.4 h -6 z"
       class="ColorScheme-Text"
       id="path1" />
  </g>
</svg>
