<?xml version="1.0" encoding="UTF-8" standalone="no"?>
<svg
   width="24"
   height="24"
   version="1.1"
   id="svg1"
   sodipodi:docname="cpod-tray.svg"
   xmlns:inkscape="http://www.inkscape.org/namespaces/inkscape"
   xmlns:sodipodi="http://sodipodi.sourceforge.net/DTD/sodipodi-0.dtd"
   xmlns="http://www.w3.org/2000/svg"
   xmlns:svg="http://www.w3.org/2000/svg">
  <sodipodi:namedview
     id="namedview1"
     pagecolor="#ffffff"
     bordercolor="#000000"
     borderopacity="0.25"
     inkscape:showpageshadow="2"
     inkscape:pageopacity="0.0"
     inkscape:pagecheckerboard="0"
     inkscape:deskcolor="#d1d1d1" />
  <defs
     id="defs1">
    <style
       id="current-color-scheme"
       type="text/css">.ColorScheme-Text {color:#d8dee9} .ColorScheme-Highlight {color:#3b4252}</style>
  </defs>
  <path
     style="fill:currentColor;stroke-width:1.2"
     class="ColorScheme-Text"
     d="m 12,2.4 c -5.3184,0 -9.6,4.2815999 -9.6,9.6 0,5.3184 4.2816,9.6 9.6,9.6 5.3184,0 9.6,-4.2816 9.6,-9.6 0,-5.3184001 -4.2816,-9.6 -9.6,-9.6 z m 0,1.2 c 2.241116,0.00235 4.389059,0.900166 5.964844,2.49375 L 17.257031,6.7828126 C 15.866682,5.3803615 13.974826,4.5906226 12,4.5890626 7.906596,4.5890623 4.5890624,7.9065954 4.5890626,12 c 0,4.093404 3.3175334,7.410937 7.4109374,7.410937 1.97463,-0.002 3.867077,-0.791183 5.257031,-2.19375 l 0.710156,0.691407 C 16.390613,19.501945 14.241506,20.39868 12,20.4 7.3608084,20.4 3.6,16.639192 3.6,12 3.6,7.3608078 7.3608084,3.6 12,3.6 Z M 12,6 c 1.59375,0.00152 3.120034,0.6377851 4.244531,1.7671874 l -0.7125,0.6960934 C 14.595583,7.5271502 13.324112,7.0020319 12,7.0007813 9.238704,7.0007813 7.0007813,9.2387052 7.0007813,12 c 0,2.761296 2.2379227,4.999219 4.9992187,4.999219 1.324112,-0.0012 2.595583,-0.526368 3.532031,-1.4625 l 0.7125,0.696094 C 15.119874,17.361857 13.593608,17.998786 12,18 8.6864459,18 6,15.313555 6,12 6,8.686446 8.6864459,6 12,6 Z m 0,2.4 c 0.945871,3.78e-4 1.853317,0.3738936 2.526563,1.0382808 L 13.788281,10.155469 C 13.309328,9.6895536 12.668186,9.4299864 12,9.4289064 10.580065,9.4289064 9.4289063,10.580065 9.4289063,12 c 0,1.419935 1.1511587,2.571094 2.5710937,2.571094 0.668599,4e-6 1.310852,-0.260897 1.790626,-0.726563 l 0.735937,0.717188 C 13.853888,15.226598 12.945809,15.598818 12,15.6 10.012091,15.600001 8.4,13.987908 8.4,12 8.4,10.012092 10.012091,8.4 12,8.4 Z"
     id="path1" />
</svg>
