<?xml version="1.0" encoding="UTF-8" standalone="no"?>
<svg
   width="24"
   height="24"
   version="1.1"
   id="svg1"
   sodipodi:docname="cpu-frequency-indicator.svg"
   xmlns:inkscape="http://www.inkscape.org/namespaces/inkscape"
   xmlns:sodipodi="http://sodipodi.sourceforge.net/DTD/sodipodi-0.dtd"
   xmlns="http://www.w3.org/2000/svg"
   xmlns:svg="http://www.w3.org/2000/svg">
  <sodipodi:namedview
     id="namedview1"
     pagecolor="#ffffff"
     bordercolor="#000000"
     borderopacity="0.25"
     inkscape:showpageshadow="2"
     inkscape:pageopacity="0.0"
     inkscape:pagecheckerboard="0"
     inkscape:deskcolor="#d1d1d1" />
  <defs
     id="defs1">
    <style
       id="current-color-scheme"
       type="text/css">.ColorScheme-Text {color:#d8dee9} .ColorScheme-Highlight {color:#3b4252}</style>
  </defs>
  <path
     style="fill:currentColor;stroke-width:1.2"
     class="ColorScheme-Text"
     d="m 6.4176931,2.3999879 a 0.309876,0.309876 0 0 0 -0.30504,0.31476 v 1.88088 c -0.77916,0.13044 -1.3872,0.73848 -1.51776,1.51764 h -1.88088 a 0.309876,0.309876 0 1 0 0,0.61968 h 1.84932 v 3.0984 h -1.84932 a 0.309876,0.309876 0 1 0 0,0.6196801 h 1.84932 v 3.0984 h -1.84932 a 0.309876,0.309876 0 1 0 0,0.61968 h 1.84932 v 3.0984 h -1.84932 a 0.309876,0.309876 0 1 0 0,0.61968 h 1.88088 c 0.130512,0.779112 0.738612,1.3872 1.51776,1.51776 v 1.88088 a 0.309876,0.309876 0 1 0 0.61968,0 v -1.84932 h 3.0984 v 1.84932 a 0.309876,0.309876 0 1 0 0.6196799,0 v -1.84932 h 3.0984 v 1.84932 a 0.309876,0.309876 0 1 0 0.61968,0 v -1.84932 h 3.0984 v 1.84932 a 0.309876,0.309876 0 1 0 0.61968,0 v -1.88088 c 0.779112,-0.130512 1.3872,-0.738612 1.51776,-1.51776 h 1.88088 a 0.309876,0.309876 0 0 0 0.314676,-0.314676 0.309876,0.309876 0 0 0 -0.314676,-0.305004 h -1.84932 v -3.0984 h 1.84932 a 0.309876,0.309876 0 0 0 0.314676,-0.314676 0.309876,0.309876 0 0 0 -0.314676,-0.305004 h -1.84932 v -3.0984 h 1.84932 a 0.309876,0.309876 0 0 0 0.314676,-0.314676 0.309876,0.309876 0 0 0 -0.314676,-0.3050041 h -1.84932 v -3.0984 h 1.84932 a 0.309876,0.309876 0 0 0 0.3168,-0.31488 0.309876,0.309876 0 0 0 -0.3144,-0.30504 h -1.88088 c -0.1308,-0.77916 -0.7392,-1.3872 -1.518,-1.51776 v -1.88088 a 0.309876,0.309876 0 0 0 -0.3156,-0.31464 0.309876,0.309876 0 0 0 -0.3048,0.31476 v 1.84932 h -3.0984 v -1.84932 a 0.309876,0.309876 0 0 0 -0.3144,-0.31476 0.309876,0.309876 0 0 0 -0.3048,0.31476 v 1.84932 h -3.0984 v -1.84932 a 0.309876,0.309876 0 0 0 -0.3144,-0.31476 0.309876,0.309876 0 0 0 -0.3059999,0.31476 v 1.84932 h -3.0984 v -1.84932 a 0.309876,0.309876 0 0 0 -0.31416,-0.31476 z"
     id="path1" />
</svg>
