<?xml version="1.0" encoding="UTF-8" standalone="no"?>
<svg
   width="24"
   height="24"
   version="1.1"
   id="svg2"
   sodipodi:docname="crow-translate-tray.svg"
   xmlns:inkscape="http://www.inkscape.org/namespaces/inkscape"
   xmlns:sodipodi="http://sodipodi.sourceforge.net/DTD/sodipodi-0.dtd"
   xmlns="http://www.w3.org/2000/svg"
   xmlns:svg="http://www.w3.org/2000/svg">
  <sodipodi:namedview
     id="namedview2"
     pagecolor="#ffffff"
     bordercolor="#000000"
     borderopacity="0.25"
     inkscape:showpageshadow="2"
     inkscape:pageopacity="0.0"
     inkscape:pagecheckerboard="0"
     inkscape:deskcolor="#d1d1d1" />
  <defs
     id="defs1">
    <style
       id="current-color-scheme"
       type="text/css">.ColorScheme-Text {color:#d8dee9} .ColorScheme-Highlight {color:#3b4252}</style>
  </defs>
  <path
     style="opacity:0.35;fill:currentColor;stroke-width:1.2"
     class="ColorScheme-Text"
     d="m 12,2.4 c -5.30196,0 -9.6,4.29804 -9.6,9.6 0,3.1284 1.50384,5.8992 3.82032,7.6524 C 6.2628,19.6284 6.30744,19.6092 6.3492,19.584 7.0368,19.1772 7.6962,18.6984 8.33208,18.1872 6.21984,16.932 4.8,14.6352 4.8,12 4.8,8.02344 8.02356,4.8 12,4.8 c 0.8712,0 1.7016,0.16188 2.4756,0.44532 C 14.478,4.59216 14.448,3.93972 14.334,3.2976 14.3988,3.07404 14.424,2.961 14.4732,2.73744 V 2.73276 C 13.6824,2.52228 12.8568,2.4 12,2.4 Z m 2.6136,0.36792 c 0.1896,0.8676 0.2556,1.7472 0.2556,2.62968 C 17.4168,6.5064 19.2,9.0432 19.2,12 c 0,3.9756 -3.2232,7.2 -7.2,7.2 -1.1616,0 -2.256,-0.282 -3.2274,-0.7716 C 8.76216,18.438 8.75268,18.4488 8.74224,18.4572 8.04744,19.0224 7.29768,19.4856 6.50388,19.8636 8.0616,20.9544 9.954,21.6 12,21.6 c 5.3016,0 9.6,-4.2984 9.6,-9.6 0,-4.39488 -2.9568,-8.09292 -6.9864,-9.23208 z"
     id="path1" />
  <path
     style="fill:currentColor;stroke-width:1.2"
     class="ColorScheme-Text"
     d="m 14.538,2.4024 c 0,0 -0.0384,0.19872 -0.0648,0.33516 -0.0492,0.22356 -0.1392,0.56016 -0.1392,0.56016 0.1884,1.06836 0.1932,2.1684 0.09,3.24372 l -0.1008,0.73368 c -0.0228,0.05532 0.4476,0.04452 0.4476,0.04452 l 0.072,-0.75708 C 14.9052,5.16948 14.898,3.76728 14.538,2.4024 Z m -0.2388,4.92888 c -0.4572,0.4062 -0.9204,0.83688 -1.2636,1.32672 -0.8268,1.1832 -1.3548,2.6784 -2.4228,3.7008 -0.4344,0.414 -1.4604,1.092 -1.4604,1.092 0.27348,0.0396 0.5772,0.0672 0.8508,0.012 -0.55176,0.3492 -1.16904,0.6804 -1.61964,1.146 0,0 -0.4542,0.4608 -0.67032,0.6984 0.17472,-0.108 0.3792,-0.2304 0.59064,-0.2316 0.34944,-0.0048 1.01952,-0.3924 1.01952,-0.3924 0,0 -1.26168,0.8124 -1.77888,1.3152 0,0 -0.62604,0.5592 -0.87888,0.8856 L 6.43356,17.1732 C 6.85884,17.016 7.29072,16.854 7.73676,16.758 L 7.28904,16.9152 C 6.89364,17.0712 6.441,17.1888 6.10308,17.3856 5.49396,17.742 4.89012,18.654 4.46724,19.2564 4.24188,19.5744 3.8706,19.8432 3.68676,20.1708 3.58092,20.358 3.59112,20.5548 3.61644,20.604 3.80256,20.946 4.73268,21.2352 5.24292,21.3612 5.85672,21.5088 6.5022,21.5748 7.13436,21.6 7.509,21.522 7.89684,21.3672 8.1726,21.1032 8.54736,20.7456 9.08856,20.3988 9.30468,19.9356 9.42876,19.674 9.6192,19.5204 9.6264,19.5168 c -0.28332,0.4668 -0.59316,0.9204 -0.9288,1.35 -0.1608,0.2028 -0.38196,0.4608 -0.38196,0.4608 0.37464,-0.1332 0.76656,-0.354 1.13436,-0.414 0.228,-0.0384 0.4788,-0.144 0.654,-0.3048 0.186,-0.1728 0.4668,-0.2412 0.6324,-0.4176 0.4572,-0.4896 0.7656,-1.236 1.2024,-1.7508 l 0.288,-0.372 0.1464,-0.2064 -0.7224,1.5696 -0.0048,0.0144 c -0.078,0.1416 -0.1944,0.2784 -0.3144,0.4056 l -0.0468,0.0516 0.024,0.0048 c 0.4668,-0.246 0.8784,-0.6216 1.3236,-0.9168 l 0.0384,-0.0228 c 0.3324,-0.1932 0.6276,-0.534 0.8736,-0.8064 0.2328,-0.258 0.3504,-0.414 0.4128,-0.7812 l 0.0048,-0.0324 0.2688,-1.584 0.0876,-0.4668 0.0348,-0.1128 v 0.0564 c -0.018,0.9288 -0.168,1.9284 -0.0252,2.8404 0.1056,0.6756 0.1656,0.5376 0.1656,0.5376 0.0624,-0.7968 -0.0204,-1.7652 0.2412,-2.49 0.1776,-0.4896 0.462,-1.0212 0.5532,-1.5492 0.0948,-0.5412 0.0912,-1.1184 0.078,-1.6728 -0.0192,-0.7176 -0.0636,-1.4412 -0.1668,-2.1564 0.0972,0.3396 0.2376,0.696 0.2556,1.0452 l 0.0372,1.0104 c 0.078,-0.4164 0.138,-0.8592 0.0912,-1.2828 -0.0432,-0.3888 0.0324,-0.786 -0.0108,-1.1688 0,0 -0.0744,-1.0428 -0.2448,-1.5192 C 15.1644,8.37084 14.9532,7.90656 14.8284,7.43916 L 14.754,7.33128 C 14.574,8.6088 14.136,9.9084 13.734,11.1 c -0.5064,1.5084 -1.3188,2.784 -2.0832,4.1508 -0.702,1.254 -1.8144,2.3148 -2.90856,3.2064 C 7.78788,19.2336 6.73248,19.8264 5.59692,20.2548 5.24364,20.3868 4.84824,20.4324 4.4742,20.4444 4.19892,20.4516 3.99372,20.4348 3.99372,20.4348 4.80588,20.2608 5.62884,20.01 6.3492,19.584 8.34744,18.4008 10.23,16.7796 11.4024,14.7144 12.1476,13.4028 12.852,12.1164 13.3428,10.6764 13.71,9.594 14.0916,8.4696 14.2992,7.33128 Z"
     id="path2" />
</svg>
