<?xml version="1.0" encoding="UTF-8" standalone="no"?>
<svg
   width="24"
   height="24"
   version="1.1"
   id="svg1"
   sodipodi:docname="cryptfolder-open-light.svg"
   xmlns:inkscape="http://www.inkscape.org/namespaces/inkscape"
   xmlns:sodipodi="http://sodipodi.sourceforge.net/DTD/sodipodi-0.dtd"
   xmlns="http://www.w3.org/2000/svg"
   xmlns:svg="http://www.w3.org/2000/svg">
  <sodipodi:namedview
     id="namedview1"
     pagecolor="#ffffff"
     bordercolor="#000000"
     borderopacity="0.25"
     inkscape:showpageshadow="2"
     inkscape:pageopacity="0.0"
     inkscape:pagecheckerboard="0"
     inkscape:deskcolor="#d1d1d1" />
  <defs
     id="defs1">
    <style
       id="current-color-scheme"
       type="text/css">.ColorScheme-Text {color:#d8dee9} .ColorScheme-Highlight {color:#3b4252}</style>
  </defs>
  <path
     style="fill:currentColor;stroke-width:1.2"
     class="ColorScheme-Text"
     d="M 12,2.4 C 9.366,2.4 7.24008,4.54608 7.2,7.2 V 8.4 H 8.4 9.6 V 7.2 c 0,-1.3296 1.0704,-2.4 2.4,-2.4 1.3296,0 2.4,1.0704 2.4,2.4 V 12 H 12 8.4 7.2 6 c -0.6648,0 -1.2,0.5352 -1.2,1.2 v 7.2 c 0,0.6648 0.5352,1.2 1.2,1.2 h 12 c 0.6648,0 1.2,-0.5352 1.2,-1.2 V 13.2 C 19.2,12.5352 18.6648,12 18,12 H 16.8 V 7.275 C 16.8,4.587 14.6592,2.4 12,2.4 Z"
     id="path1" />
</svg>
