<?xml version="1.0" encoding="UTF-8" standalone="no"?>
<svg
   width="24"
   height="24"
   version="1.1"
   id="svg1"
   sodipodi:docname="cryptkeeper.svg"
   xmlns:inkscape="http://www.inkscape.org/namespaces/inkscape"
   xmlns:sodipodi="http://sodipodi.sourceforge.net/DTD/sodipodi-0.dtd"
   xmlns="http://www.w3.org/2000/svg"
   xmlns:svg="http://www.w3.org/2000/svg">
  <sodipodi:namedview
     id="namedview1"
     pagecolor="#ffffff"
     bordercolor="#000000"
     borderopacity="0.25"
     inkscape:showpageshadow="2"
     inkscape:pageopacity="0.0"
     inkscape:pagecheckerboard="0"
     inkscape:deskcolor="#d1d1d1" />
  <defs
     id="defs1">
    <style
       id="current-color-scheme"
       type="text/css">.ColorScheme-Text {color:#d8dee9} .ColorScheme-Highlight {color:#3b4252}</style>
  </defs>
  <g
     style=""
     id="g1">
    <path
       style="fill:currentColor;stroke-width:1.2"
       class="ColorScheme-Text"
       d="M 15,2.4 A 6.6,6.6 0 0 0 8.4,9 6.6,6.6 0 0 0 15,15.6 6.6,6.6 0 0 0 21.6,9 6.6,6.6 0 0 0 15,2.4 Z m 0.3864,2.96724 a 3,2.4 45 0 1 2.2272,1.01952 3,2.4 45 0 1 0.4236,3.81792 A 3,2.4 45 0 1 14.22,9.78048 3,2.4 45 0 1 13.7952,5.96256 3,2.4 45 0 1 15.3864,5.36724 Z M 7.51872,11.184 2.7516,15.9516 A 1.20012,1.20012 0 0 0 2.4,16.8 v 3.6 a 1.20012,1.20012 0 0 0 1.2,1.2 H 7.2 A 1.20012,1.20012 0 0 0 8.4,20.4 V 18 h 2.4 A 1.20012,1.20012 0 0 0 12,16.8 v -0.6048 c -0.9276,-0.3888 -1.764,-0.9528 -2.47032,-1.65 l -4.09224,4.092 A 0.900756,0.900756 0 0 1 4.16256,17.3652 L 8.3976,13.1292 C 8.02068,12.5304 7.72236,11.8776 7.51872,11.184 Z"
       id="path1" />
  </g>
</svg>
