<?xml version="1.0" encoding="UTF-8" standalone="no"?>
<svg
   width="24"
   height="24"
   version="1.1"
   id="svg1"
   sodipodi:docname="cryptfolder-indicator-light.svg"
   xmlns:inkscape="http://www.inkscape.org/namespaces/inkscape"
   xmlns:sodipodi="http://sodipodi.sourceforge.net/DTD/sodipodi-0.dtd"
   xmlns="http://www.w3.org/2000/svg"
   xmlns:svg="http://www.w3.org/2000/svg">
  <sodipodi:namedview
     id="namedview1"
     pagecolor="#ffffff"
     bordercolor="#000000"
     borderopacity="0.25"
     inkscape:showpageshadow="2"
     inkscape:pageopacity="0.0"
     inkscape:pagecheckerboard="0"
     inkscape:deskcolor="#d1d1d1" />
  <defs
     id="defs1">
    <style
       id="current-color-scheme"
       type="text/css">.ColorScheme-Text {color:#d8dee9} .ColorScheme-Highlight {color:#3b4252}</style>
  </defs>
  <path
     style="fill:currentColor;stroke-width:1.2"
     class="ColorScheme-Text"
     d="M 12,3.6 C 9.3408,3.6 7.2,5.78592 7.2,8.475 V 10.8 H 6 c -0.6648,0 -1.2,0.5352 -1.2,1.2 v 7.2 c 0,0.6648 0.5352,1.2 1.2,1.2 h 12 c 0.6648,0 1.2,-0.5352 1.2,-1.2 V 12 c 0,-0.6648 -0.5352,-1.2 -1.2,-1.2 H 16.8 V 8.475 C 16.8,5.787 14.6592,3.6 12,3.6 Z M 12,6 c 1.3296,0 2.4,1.0704 2.4,2.4 v 2.4 H 9.6 V 8.4 C 9.6,7.0704 10.6704,6 12,6 Z"
     id="path1" />
</svg>
