<?xml version="1.0" encoding="UTF-8" standalone="no"?>
<svg
   width="24"
   height="24"
   version="1.1"
   id="svg1"
   sodipodi:docname="deltachat-tray.svg"
   xmlns:inkscape="http://www.inkscape.org/namespaces/inkscape"
   xmlns:sodipodi="http://sodipodi.sourceforge.net/DTD/sodipodi-0.dtd"
   xmlns="http://www.w3.org/2000/svg"
   xmlns:svg="http://www.w3.org/2000/svg">
  <sodipodi:namedview
     id="namedview1"
     pagecolor="#ffffff"
     bordercolor="#000000"
     borderopacity="0.25"
     inkscape:showpageshadow="2"
     inkscape:pageopacity="0.0"
     inkscape:pagecheckerboard="0"
     inkscape:deskcolor="#d1d1d1" />
  <defs
     id="defs1">
    <style
       id="current-color-scheme"
       type="text/css">.ColorScheme-Text {color:#d8dee9} .ColorScheme-Highlight {color:#3b4252}</style>
  </defs>
  <path
     style="fill:currentColor;stroke-width:1.2"
     class="ColorScheme-Text"
     d="M 11.631907,2.411332 C 6.3460289,2.6720598 2.0831513,7.2969038 2.4186257,12.707425 c 0.2726172,4.396751 3.4500552,7.955082 7.8046883,8.739844 1.841563,0.331874 3.685502,0.123147 5.505469,-0.61875 1.767251,-0.720413 2.529395,-0.713562 4.497656,0.03281 0.526798,0.199765 0.979948,0.339462 1.007812,0.311718 0.02787,-0.02774 -0.13464,-0.415858 -0.360937,-0.8625 -0.699518,-1.380634 -0.88109,-2.499591 -0.583594,-3.585938 0.07741,-0.282651 0.332632,-0.994987 0.569531,-1.58203 0.576528,-1.428652 0.743265,-2.202154 0.740625,-3.447657 C 21.594476,9.0972689 20.573508,6.7745802 18.635033,4.9496132 17.03592,3.4441379 14.962219,2.5592294 12.703001,2.4183632 12.342583,2.3958905 11.984299,2.3939501 11.631907,2.411332 Z m 0.154687,2.3882812 c 0.971163,-0.0081 1.828395,0.093068 2.43047,0.2835938 1.247508,0.3947793 1.803783,1.2384513 1.188282,1.8 C 14.864575,7.3765769 14.349859,7.2619098 13.267844,6.405082 12.899554,6.1134397 12.365208,5.7691306 12.081907,5.6386758 10.870596,5.080888 9.3819077,5.5781275 9.3819077,6.4660195 c 0,0.1290571 0.1412676,0.3956557 0.3164059,0.590625 0.3325574,0.3702115 0.6759734,0.4964281 3.3914064,2.0578125 1.924998,1.106881 2.91733,1.968282 3.410156,2.960157 0.606623,1.298194 0.281042,3.181288 -0.890625,4.310155 -0.625493,0.613527 -1.430017,1.120315 -2.221875,1.359374 -0.355834,0.107425 -0.98371,0.216822 -1.396875,0.24375 C 10.00619,18.117188 8.3209013,17.265679 7.5561257,15.747269 7.0875461,14.810738 7.0754489,13.736734 7.5584705,12.608988 8.1320129,11.470258 9.4783301,10.522426 11.099876,10.119926 11.510269,10.018057 11.86307,9.8891784 11.882688,9.8316444 11.902309,9.7741104 11.288344,9.2665261 10.518626,8.7043007 8.9648537,7.5693763 8.6332769,7.249431 8.6178449,6.573832 8.6000849,5.7962032 9.2104625,5.2358756 10.403782,4.9378945 10.760274,4.8488756 11.203897,4.8044708 11.786594,4.7996132 Z m 0.735938,5.6390628 c -0.07719,-2.01e-4 -0.16541,0.01158 -0.283594,0.02813 -0.819534,0.11471 -1.719146,0.532923 -2.2406244,1.040624 -0.6803287,0.662355 -0.8851363,1.241472 -0.8789059,2.489063 0.00985,1.456769 1.2185303,3.059017 2.9390623,3.044531 1.654595,-0.0367 2.632176,-1.145565 2.803126,-2.561719 0.125054,-1.247763 -0.404717,-2.473499 -1.507032,-3.487499 -0.477431,-0.439182 -0.600459,-0.55255 -0.832032,-0.553125 z"
     id="path1" />
</svg>
