<?xml version="1.0" encoding="UTF-8" standalone="no"?>
<svg
   width="24"
   height="24"
   version="1.1"
   id="svg2"
   sodipodi:docname="desktopdisconnected.svg"
   xmlns:inkscape="http://www.inkscape.org/namespaces/inkscape"
   xmlns:sodipodi="http://sodipodi.sourceforge.net/DTD/sodipodi-0.dtd"
   xmlns="http://www.w3.org/2000/svg"
   xmlns:svg="http://www.w3.org/2000/svg">
  <sodipodi:namedview
     id="namedview2"
     pagecolor="#ffffff"
     bordercolor="#000000"
     borderopacity="0.25"
     inkscape:showpageshadow="2"
     inkscape:pageopacity="0.0"
     inkscape:pagecheckerboard="0"
     inkscape:deskcolor="#d1d1d1" />
  <defs
     id="defs1">
    <style
       id="current-color-scheme"
       type="text/css">.ColorScheme-Text {color:#d8dee9} .ColorScheme-Highlight {color:#3b4252}</style>
  </defs>
  <path
     style="opacity:0.35;fill:currentColor;stroke-width:1.2"
     class="ColorScheme-Text"
     d="M 3.6,3.5 C 2.9352,3.5 2.4,4.0352 2.4,4.7 v 12 c 0,0.6648 0.5352,1.2 1.2,1.2 h 6 c -0.6648,0 -1.2,0.5352 -1.2,1.2 v 1.2 h 6 c 0,-0.620297 0.226334,-1.226156 0.665626,-1.689844 a 1.20012,1.20012 0 0 1 0.0211,-0.02344 l 0.08906,-0.08672 -0.08906,-0.08672 C 14.951735,18.278286 14.843522,18.12761 14.749226,17.970308 14.636987,17.935785 14.523851,17.9 14.4,17.9 h 0.314063 C 14.508743,17.529292 14.4,17.116315 14.4,16.7 V 15.5 H 4.8 V 5.9 h 14.4 v 8.709374 C 19.572773,14.401473 19.982228,14.3 20.4,14.3 h 1.2 V 4.7 c 0,-0.6648 -0.5352,-1.2 -1.2,-1.2 z"
     id="path1" />
  <path
     style="fill:currentColor;stroke-width:1.2"
     class="ColorScheme-Text"
     d="m 15.6,15.5 v 1.2 c 0,0.336 0.12,0.648 0.336,0.864 l 0.936,0.936 -0.936,0.936 C 15.72,19.664 15.6,19.976 15.6,20.3 v 1.2 h 1.2 c 0.336,0 0.648,-0.12 0.864,-0.336 l 0.936,-0.936 0.936,0.936 c 0.216,0.216 0.54,0.336 0.864,0.336 h 1.2 v -1.2 c 0,-0.324 -0.12,-0.636 -0.336,-0.864 L 20.328,18.5 21.264,17.564 C 21.48,17.348 21.6,17.036 21.6,16.7 v -1.2 h -1.2 c -0.324,0 -0.648,0.12 -0.864,0.336 L 18.6,16.784 17.664,15.836 C 17.448,15.62 17.136,15.5 16.8,15.5 Z"
     id="path2" />
</svg>
