<?xml version="1.0" encoding="UTF-8" standalone="no"?>
<svg
   width="24"
   height="24"
   version="1.1"
   id="svg1"
   sodipodi:docname="devhub-tray.svg"
   xmlns:inkscape="http://www.inkscape.org/namespaces/inkscape"
   xmlns:sodipodi="http://sodipodi.sourceforge.net/DTD/sodipodi-0.dtd"
   xmlns="http://www.w3.org/2000/svg"
   xmlns:svg="http://www.w3.org/2000/svg">
  <sodipodi:namedview
     id="namedview1"
     pagecolor="#ffffff"
     bordercolor="#000000"
     borderopacity="0.25"
     inkscape:showpageshadow="2"
     inkscape:pageopacity="0.0"
     inkscape:pagecheckerboard="0"
     inkscape:deskcolor="#d1d1d1" />
  <defs
     id="defs1">
    <style
       id="current-color-scheme"
       type="text/css">.ColorScheme-Text {color:#d8dee9} .ColorScheme-Highlight {color:#3b4252}</style>
  </defs>
  <path
     style="fill:currentColor;stroke-width:1.2"
     class="ColorScheme-Text"
     d="M 12,2.4 A 9.6,9.6 0 0 0 2.4,12 9.6,9.6 0 0 0 12,21.6 9.6,9.6 0 0 0 21.6,12 9.6,9.6 0 0 0 12,2.4 Z M 8.2406249,8.4000001 c 0.2282678,4.956e-4 0.5465147,0.016308 1.110938,0.046872 2.1945091,0.118848 2.6499181,0.1228416 3.9187501,0.03984 1.564305,-0.102336 3.057871,-0.103284 3.492187,-0.0024 0.886103,0.2060087 1.692307,0.8949336 2.142187,1.8328129 0.245658,0.512126 0.321246,0.921008 0.288282,1.542187 -0.02758,0.519521 -0.126737,1.003836 -0.285938,1.392187 -0.251615,0.613785 -0.854085,1.312737 -1.357031,1.575001 -0.570239,0.297358 -1.532972,0.540964 -2.723437,0.686718 -0.639103,0.07825 -3.993197,0.117852 -4.9593758,0.0586 C 8.9064445,15.512956 7.6807394,15.315348 7.0898436,15.124219 6.2139751,14.840915 5.645193,14.342402 5.2078124,13.48125 4.927486,12.929318 4.8377009,12.563785 4.8093749,11.838281 4.7892461,11.322718 4.7981789,11.208773 4.8749993,10.907813 5.0314849,10.29473 5.3162015,9.8034432 5.8078118,9.2976565 6.2855191,8.8061737 6.8049415,8.5671265 7.6734367,8.4421873 7.8743197,8.4132913 8.0123564,8.3995201 8.2406249,8.4000001 Z M 9.0000001,9.6 A 1.7986195,2.4 0 0 0 7.1999999,12 1.7986195,2.4 0 0 0 9.0000001,14.4 1.7986195,2.4 0 0 0 10.8,12 1.7986195,2.4 0 0 0 9.0000001,9.6 Z M 15,9.6 A 1.7986196,2.4 0 0 0 13.2,12 1.7986196,2.4 0 0 0 15,14.4 1.7986196,2.4 0 0 0 16.8,12 1.7986196,2.4 0 0 0 15,9.6 Z"
     id="path1" />
</svg>
