<?xml version="1.0" encoding="UTF-8" standalone="no"?>
<svg
   width="24"
   height="24"
   version="1.1"
   id="svg1"
   sodipodi:docname="devhub-notification.svg"
   xmlns:inkscape="http://www.inkscape.org/namespaces/inkscape"
   xmlns:sodipodi="http://sodipodi.sourceforge.net/DTD/sodipodi-0.dtd"
   xmlns="http://www.w3.org/2000/svg"
   xmlns:svg="http://www.w3.org/2000/svg">
  <sodipodi:namedview
     id="namedview1"
     pagecolor="#ffffff"
     bordercolor="#000000"
     borderopacity="0.25"
     inkscape:showpageshadow="2"
     inkscape:pageopacity="0.0"
     inkscape:pagecheckerboard="0"
     inkscape:deskcolor="#d1d1d1" />
  <defs
     id="defs1">
    <style
       id="current-color-scheme"
       type="text/css">.ColorScheme-Text {color:#d8dee9} .ColorScheme-Highlight {color:#3b4252}</style>
  </defs>
  <path
     style="fill:currentColor;stroke-width:1.2"
     class="ColorScheme-Text"
     d="M 11.9,2.4 A 9.6,9.6 0 0 0 2.3,12 9.6,9.6 0 0 0 11.9,21.6 9.6,9.6 0 0 0 16.845313,20.210156 3.6,3.6 0 0 1 16.7,19.2 3.6,3.6 0 0 1 20.3,15.6 3.6,3.6 0 0 1 20.766406,15.630469 9.6,9.6 0 0 0 21.5,12 9.6,9.6 0 0 0 11.9,2.4 Z m -3.759375,6 c 0.2282678,4.956e-4 0.5465142,0.016308 1.1109376,0.046872 2.1945094,0.118848 2.6499184,0.1228452 3.9187504,0.03984 1.564305,-0.102336 3.057871,-0.1032276 3.492187,-0.0024 0.886103,0.2060088 1.692307,0.8949336 2.142187,1.832813 0.245658,0.512125 0.321246,0.921009 0.288282,1.542187 -0.02758,0.51952 -0.126737,1.003837 -0.285938,1.392187 -0.251615,0.613786 -0.854085,1.312737 -1.357031,1.575 -0.570239,0.297358 -1.532972,0.540965 -2.723437,0.686718 -0.639103,0.07825 -3.993197,0.117852 -4.9593758,0.0586 C 8.8064448,15.513017 7.5807396,15.315348 6.9898437,15.124219 6.1139752,14.840915 5.545193,14.342402 5.1078126,13.48125 4.827486,12.929318 4.737701,12.563785 4.709375,11.838281 4.6892462,11.322718 4.6981796,11.208773 4.775,10.907813 4.9314856,10.29473 5.2162022,9.8034432 5.7078126,9.2976564 6.1855197,8.8061736 6.7049422,8.5671264 7.5734374,8.4421872 7.7743204,8.4132912 7.9123566,8.39952 8.140625,8.4 Z M 8.9,9.6 A 1.7986195,2.4 0 0 0 7.1,12 1.7986195,2.4 0 0 0 8.9,14.4 1.7986195,2.4 0 0 0 10.7,12 1.7986195,2.4 0 0 0 8.9,9.6 Z m 6,0 A 1.7986196,2.4 0 0 0 13.1,12 1.7986196,2.4 0 0 0 14.9,14.4 1.7986196,2.4 0 0 0 16.7,12 1.7986196,2.4 0 0 0 14.9,9.6 Z"
     id="path1" />
  <circle
     style="fill:currentColor;stroke-width:1.2"
     class="ColorScheme-Text"
     cx="20.299999"
     cy="19.200001"
     r="2.4000001"
     id="circle1" />
</svg>
