<?xml version="1.0" encoding="UTF-8" standalone="no"?>
<svg
   width="24"
   height="24"
   version="1.1"
   id="svg1"
   sodipodi:docname="dino-status-online.svg"
   xmlns:inkscape="http://www.inkscape.org/namespaces/inkscape"
   xmlns:sodipodi="http://sodipodi.sourceforge.net/DTD/sodipodi-0.dtd"
   xmlns="http://www.w3.org/2000/svg"
   xmlns:svg="http://www.w3.org/2000/svg">
  <sodipodi:namedview
     id="namedview1"
     pagecolor="#ffffff"
     bordercolor="#000000"
     borderopacity="0.25"
     inkscape:showpageshadow="2"
     inkscape:pageopacity="0.0"
     inkscape:pagecheckerboard="0"
     inkscape:deskcolor="#d1d1d1" />
  <defs
     id="defs1">
    <style
       id="current-color-scheme"
       type="text/css">.ColorScheme-Text {color:#d8dee9} .ColorScheme-Highlight {color:#3b4252}</style>
  </defs>
  <path
     style="fill:currentColor;stroke-width:1.2"
     class="ColorScheme-Text"
     d="M 12,2.4 A 9.6,9.6 0 0 0 2.4,12 9.6,9.6 0 0 0 12,21.6 9.6,9.6 0 0 0 21.6,12 9.6,9.6 0 0 0 12,2.4 Z m 2.38125,2.3226563 A 1.20012,1.20012 0 0 1 15.6,5.9390626 V 10.63125 a 1.20012,1.20012 0 0 1 0,0.391406 v 4.55625 a 1.20012,1.20012 0 0 1 0,0.02109 V 16.78359 A 1.20012,1.20012 0 1 1 13.2,16.8 H 9.6 L 8.4,15.6 V 10.821094 L 9.6,9.6210936 h 3.6 V 5.9390626 A 1.20012,1.20012 0 0 1 14.38125,4.7226563 Z M 10.8,12.021094 V 14.4 h 2.4 v -2.378906 z"
     id="path1" />
</svg>
