<?xml version="1.0" encoding="UTF-8" standalone="no"?>
<svg
   width="24"
   height="24"
   version="1.1"
   id="svg1"
   sodipodi:docname="discord-tray-unread.svg"
   xmlns:inkscape="http://www.inkscape.org/namespaces/inkscape"
   xmlns:sodipodi="http://sodipodi.sourceforge.net/DTD/sodipodi-0.dtd"
   xmlns="http://www.w3.org/2000/svg"
   xmlns:svg="http://www.w3.org/2000/svg">
  <sodipodi:namedview
     id="namedview1"
     pagecolor="#ffffff"
     bordercolor="#000000"
     borderopacity="0.25"
     inkscape:showpageshadow="2"
     inkscape:pageopacity="0.0"
     inkscape:pagecheckerboard="0"
     inkscape:deskcolor="#d1d1d1" />
  <defs
     id="defs1">
    <style
       id="current-color-scheme"
       type="text/css">.ColorScheme-Text {color:#d8dee9} .ColorScheme-Highlight {color:#3b4252}</style>
  </defs>
  <circle
     style="fill:currentColor;stroke-width:1.2"
     class="ColorScheme-Text"
     cx="22.6"
     cy="4.9000001"
     r="2.4000001"
     id="circle1" />
  <path
     style="fill:currentColor;stroke-width:1.2"
     class="ColorScheme-Text"
     d="M 7.8481236,4.9001983 C 6.476837,5.1326005 5.1655701,5.5399015 3.9410925,6.0931669 c -0.01056,0.00454 -0.019757,0.011352 -0.025781,0.021094 C 1.4262406,9.7734472 0.744877,14.544188 1.0793746,18.069182 c 0.00156,0.01724 0.00984,0.0317 0.023436,0.04219 1.6422167,1.186732 3.2340853,1.9084 4.7953123,2.385937 0.024984,0.0074 0.052069,-8.63e-4 0.067969,-0.0211 0.3693084,-0.496269 0.6974259,-0.565341 0.9796875,-1.115626 0.016656,-0.03222 0.00124,-0.06929 -0.032813,-0.08203 -0.522174,-0.194915 -1.0193692,-0.433251 -1.4976563,-0.703125 -0.037836,-0.02174 -0.041831,-0.07529 -0.00703,-0.100776 0.100656,-0.07422 0.2038944,-0.15172 0.3,-0.229688 0.017388,-0.01424 0.040489,-0.01607 0.060937,-0.0071 3.1421414,1.411664 7.7446999,1.411664 10.8497689,0 0.02044,-0.0097 0.04279,-0.0071 0.06094,0.0071 0.09613,0.07796 0.198594,0.155474 0.3,0.229688 0.0348,0.02549 0.0308,0.07903 -0.0071,0.100776 -0.478287,0.275116 -0.974723,0.508954 -1.497656,0.703125 -0.03404,0.01274 -0.04948,0.04981 -0.03281,0.08203 0.288318,0.549514 0.617192,0.616987 0.979687,1.113282 0.01514,0.02099 0.04298,0.03095 0.06797,0.02344 1.568801,-0.477535 3.160126,-1.199203 4.802344,-2.385937 0.01439,-0.01056 0.02425,-0.02495 0.02579,-0.04219 0.400327,-4.075279 -0.672444,-8.8144061 -2.840625,-11.9525774 -0.0053,-0.010488 -0.01283,-0.018944 -0.02344,-0.023437 -1.223679,-0.55248 -2.534947,-0.9598177 -3.906992,-1.1929651 -0.02498,-0.00454 -0.05041,0.00569 -0.06328,0.028124 -0.168784,0.2953697 -0.356596,0.5385365 -0.487505,0.8414069 -1.475722,-0.2174 -4.1449328,-0.2174 -5.5903934,0 C 8.2749605,5.460148 8.0809296,5.2236924 7.9114049,4.9283232 7.8985337,4.9065864 7.8731129,4.8964452 7.8481236,4.9001983 Z M 7.5973425,12.099651 c 1.0102472,0 1.8181375,0.814895 1.8023437,1.8 0,0.992198 -0.799993,1.8 -1.8023437,1.8 -0.9866127,0 -1.7976563,-0.807802 -1.7976563,-1.8 0,-0.992199 0.7952785,-1.8 1.7976563,-1.8 z m 7.2028935,0 c 1.010274,0 1.815767,0.814895 1.8,1.8 2e-6,0.992198 -0.789726,1.8 -1.8,1.8 -0.986584,0 -1.8,-0.807802 -1.8,-1.8 0,-0.992199 0.797621,-1.8 1.8,-1.8 z"
     id="path1" />
</svg>
