<?xml version="1.0" encoding="UTF-8" standalone="no"?>
<svg
   width="24"
   height="24"
   version="1.1"
   viewBox="0 0 24 24"
   id="svg1"
   sodipodi:docname="drive-harddisk.svg"
   xmlns:inkscape="http://www.inkscape.org/namespaces/inkscape"
   xmlns:sodipodi="http://sodipodi.sourceforge.net/DTD/sodipodi-0.dtd"
   xmlns="http://www.w3.org/2000/svg"
   xmlns:svg="http://www.w3.org/2000/svg">
  <sodipodi:namedview
     id="namedview1"
     pagecolor="#ffffff"
     bordercolor="#000000"
     borderopacity="0.25"
     inkscape:showpageshadow="2"
     inkscape:pageopacity="0.0"
     inkscape:pagecheckerboard="0"
     inkscape:deskcolor="#d1d1d1" />
  <defs
     id="defs1">
    <style
       id="current-color-scheme"
       type="text/css">.ColorScheme-Text {color:#d8dee9} .ColorScheme-Highlight {color:#3b4252}</style>
  </defs>
  <path
     class="ColorScheme-Text"
     d="M 5.4,2.4 C 4.4028912,2.4 3.6,3.2028912 3.6,4.2 v 15.6 c 0,0.995299 0.8028912,1.8 1.8,1.8 h 13.2 c 0.995299,0 1.8,-0.802891 1.8,-1.8 V 4.2 C 20.4,3.2046998 19.591223,2.4 18.6,2.4 Z M 12,4.8 c 3.30723,0 6,2.6927699 6,6 0,3.30723 -2.69123,6 -6,6 H 6 v -6 c 0,-3.3092741 2.6927699,-6 6,-6 z m 0,2.4 c -1.996308,0 -3.6,1.6036919 -3.6,3.6 0,1.996308 1.603692,3.6 3.6,3.6 1.996308,0 3.6,-1.603194 3.6,-3.6 0,-1.9968065 -1.603692,-3.6 -3.6,-3.6 z"
     style="fill:currentColor;stroke-width:1.2"
     id="path1" />
</svg>
