<?xml version="1.0" encoding="UTF-8" standalone="no"?>
<svg
   width="24"
   height="24"
   version="1.1"
   id="svg1"
   sodipodi:docname="dropboxstatus-idle.svg"
   xmlns:inkscape="http://www.inkscape.org/namespaces/inkscape"
   xmlns:sodipodi="http://sodipodi.sourceforge.net/DTD/sodipodi-0.dtd"
   xmlns="http://www.w3.org/2000/svg"
   xmlns:svg="http://www.w3.org/2000/svg">
  <sodipodi:namedview
     id="namedview1"
     pagecolor="#ffffff"
     bordercolor="#000000"
     borderopacity="0.25"
     inkscape:showpageshadow="2"
     inkscape:pageopacity="0.0"
     inkscape:pagecheckerboard="0"
     inkscape:deskcolor="#d1d1d1" />
  <defs
     id="defs1">
    <style
       id="current-color-scheme"
       type="text/css">.ColorScheme-Text {color:#d8dee9} .ColorScheme-Highlight {color:#3b4252}</style>
  </defs>
  <path
     style="fill:currentColor;stroke-width:1.2"
     class="ColorScheme-Text"
     d="m 7.11076,2.3 -6,3.6 4.8,3.58128 L 1.099,13.0904 7.11076,16.7 11.911,13.1 5.91076,9.5 11.911,5.9 l 6,3.6192 -6,3.5808 2.1324,1.6008 c 1.098,-1.7388 3.0108,-2.7936 5.0676,-2.796 1.29,0.0036 2.544,0.4212 3.5772,1.1928 l 0.0348,-0.0204 -4.8108,-3.564 4.8,-3.6006 -6,-3.6 -4.8,3.58128 L 7.11208,2.3126 Z M 19.111,13.1 c -2.6508,0 -4.8,2.1492 -4.8,4.8 0,2.6508 2.1492,4.8 4.8,4.8 2.6508,0 4.8,-2.1492 4.8,-4.8 0,-2.6508 -2.1492,-4.8 -4.8,-4.8 z m -7.2012,1.1832 -4.79976,3.6 -1.2,-0.7188 v 0.7188 l 5.99976,3.6 1.7724,-1.0608 c -0.3756,-0.7968 -0.5712,-1.6644 -0.5724,-2.544 0,-0.804 0.1608,-1.6008 0.4752,-2.34 l -1.6752,-1.26 z m 11.0268,1.8972 -4.23,4.8492 -2.274,-2.2524 c -0.2256,-0.2256 -0.2256,-0.6384 0,-0.8652 0.2268,-0.2256 0.6396,-0.2256 0.8652,0 l 1.3524,1.3524 3.6192,-4.1436 c 0.3252,0.3264 0.6672,1.0596 0.6672,1.0596 z"
     id="path1" />
</svg>
