<?xml version="1.0" encoding="UTF-8" standalone="no"?>
<svg
   width="24"
   height="24"
   version="1.1"
   id="svg1"
   sodipodi:docname="element-desktop-tray.svg"
   xmlns:inkscape="http://www.inkscape.org/namespaces/inkscape"
   xmlns:sodipodi="http://sodipodi.sourceforge.net/DTD/sodipodi-0.dtd"
   xmlns="http://www.w3.org/2000/svg"
   xmlns:svg="http://www.w3.org/2000/svg">
  <sodipodi:namedview
     id="namedview1"
     pagecolor="#ffffff"
     bordercolor="#000000"
     borderopacity="0.25"
     inkscape:showpageshadow="2"
     inkscape:pageopacity="0.0"
     inkscape:pagecheckerboard="0"
     inkscape:deskcolor="#d1d1d1" />
  <defs
     id="defs1">
    <style
       id="current-color-scheme"
       type="text/css">.ColorScheme-Text {color:#d8dee9} .ColorScheme-Highlight {color:#3b4252}</style>
  </defs>
  <path
     style="fill:currentColor;stroke-width:1.2"
     class="ColorScheme-Text"
     d="m 10.464062,2.4 c -0.636224,0 -1.1515616,0.5153304 -1.1515616,1.151562 0,0.6362316 0.5153376,1.1531256 1.1515616,1.1531256 2.96912,0 5.376563,2.4059196 5.376563,5.3749994 0,0.63624 0.515322,1.151563 1.151562,1.151563 0.63624,0 1.151563,-0.515323 1.151563,-1.151563 C 18.14375,5.8381428 14.705582,2.4 10.464062,2.4 Z M 10.079688,5.8562496 C 5.8381428,5.8562568 2.3999988,9.2943768 2.4,13.535938 c 0,0.63624 0.5153304,1.151562 1.151562,1.151562 0.6362328,0 1.1531256,-0.515322 1.1531256,-1.151562 0,-2.96912 2.4059196,-5.3765632 5.3750004,-5.3765632 0.63624,0 1.151562,-0.5153304 1.151562,-1.1515632 0,-0.6362316 -0.515322,-1.151562 -1.151562,-1.151562 z m 10.36875,3.4562496 c -0.63624,0 -1.153126,0.51534 -1.153126,1.1515628 0,2.969121 -2.405878,5.376563 -5.374999,5.376563 -0.63624,0 -1.151563,0.515322 -1.151563,1.151562 0,0.63624 0.515323,1.151563 1.151563,1.151563 4.24152,0 7.679687,-3.438168 7.679687,-7.679688 0,-0.6362228 -0.515322,-1.1515628 -1.151562,-1.1515628 z M 7.0078116,12.768751 c -0.6362316,0 -1.151562,0.515321 -1.151562,1.151561 0,4.241521 3.4381272,7.679688 7.6796884,7.679688 0.63624,0 1.151563,-0.515322 1.151563,-1.151562 0,-0.63624 -0.515323,-1.153126 -1.151563,-1.153126 -2.969121,0 -5.3765632,-2.40588 -5.3765632,-5.375 0,-0.63624 -0.5153304,-1.151561 -1.1515632,-1.151561 z"
     id="path1" />
</svg>
