<?xml version="1.0" encoding="UTF-8" standalone="no"?>
<svg
   width="24"
   height="24"
   version="1.1"
   id="svg1"
   sodipodi:docname="eu.scarpetta.QtWAW-tray.svg"
   xmlns:inkscape="http://www.inkscape.org/namespaces/inkscape"
   xmlns:sodipodi="http://sodipodi.sourceforge.net/DTD/sodipodi-0.dtd"
   xmlns="http://www.w3.org/2000/svg"
   xmlns:svg="http://www.w3.org/2000/svg">
  <sodipodi:namedview
     id="namedview1"
     pagecolor="#ffffff"
     bordercolor="#000000"
     borderopacity="0.25"
     inkscape:showpageshadow="2"
     inkscape:pageopacity="0.0"
     inkscape:pagecheckerboard="0"
     inkscape:deskcolor="#d1d1d1" />
  <defs
     id="defs1">
    <style
       id="current-color-scheme"
       type="text/css">.ColorScheme-Text {color:#d8dee9} .ColorScheme-Highlight {color:#3b4252}</style>
  </defs>
  <path
     style="fill:currentColor;stroke-width:1.2"
     class="ColorScheme-Text"
     d="M 12.192598,2.4 C 10.624372,2.4 8.9747216,2.5969452 7.6410356,3.4359372 6.5048012,4.136634 5.8325552,5.3321364 5.4261908,6.5273436 4.900826,8.1164832 4.788068,9.8375592 4.80041,11.49375 c 0.023808,1.532146 0.1637184,3.771185 0.6820308,5.23125 0.3164532,0.863298 0.779484,1.71349 1.5164064,2.320313 0.9590544,0.795407 2.2258572,1.154444 3.4687508,1.296093 1.037508,0.10896 2.094344,0.123429 3.126562,-0.0375 L 16.80041,21.6 v -2.165626 c 0.987264,-0.673874 1.341233,-1.644546 1.734375,-2.7375 0.587071,-1.60674 0.668271,-4.015977 0.665625,-5.702343 C 19.179254,9.3198996 18.993953,7.578072 18.363691,6.0023436 17.974075,5.0426568 17.390149,4.1142384 16.491036,3.5132808 15.25343,2.665908 13.685947,2.4 12.192598,2.4 Z m -0.5625,2.4234372 c 0.07349,-0.0018 0.147085,-2.88e-4 0.220312,0.00708 0.09763,0.00972 0.197225,-0.00156 0.295313,0 0.653921,0.01056 1.305453,0.102792 1.914844,0.3164052 0.78983,0.2741328 1.459689,0.8105628 1.814063,1.4906256 0.543571,1.0306368 0.752702,2.1691968 0.857811,3.2929692 0.11412,1.4954338 0.09695,2.9336618 -0.138281,4.4203118 -0.165171,0.884783 -0.322752,1.817208 -1.005469,2.514845 l 0.02344,2.402343 -2.8875,-1.33125 c -1.081139,0.06942 -2.220848,0.0013 -3.1968758,-0.447656 C 8.9581556,17.222885 8.4741116,16.805164 8.191814,16.293798 7.8494552,15.68139 7.6606712,15.013318 7.5285332,14.343798 7.1301116,12.22102 7.0331852,10.093339 7.5777452,7.9828608 7.801982,7.1868192 8.1291116,6.3704676 8.791808,5.7703608 9.3684152,5.25636 10.170652,4.99074 10.971496,4.8914544 c 0.217284,-0.024828 0.438128,-0.062484 0.658593,-0.067968 z"
     id="path1" />
</svg>
