<?xml version="1.0" encoding="UTF-8" standalone="no"?>
<svg
   width="24"
   height="24"
   version="1.1"
   xml:space="preserve"
   id="svg2"
   sodipodi:docname="everpad-mono.svg"
   xmlns:inkscape="http://www.inkscape.org/namespaces/inkscape"
   xmlns:sodipodi="http://sodipodi.sourceforge.net/DTD/sodipodi-0.dtd"
   xmlns="http://www.w3.org/2000/svg"
   xmlns:svg="http://www.w3.org/2000/svg"><sodipodi:namedview
   id="namedview2"
   pagecolor="#ffffff"
   bordercolor="#000000"
   borderopacity="0.25"
   inkscape:showpageshadow="2"
   inkscape:pageopacity="0.0"
   inkscape:pagecheckerboard="0"
   inkscape:deskcolor="#d1d1d1" />
 <defs
   id="defs1">
  <style
   id="current-color-scheme"
   type="text/css">.ColorScheme-Text {color:#d8dee9} .ColorScheme-Highlight {color:#3b4252}</style></defs>
 <g
   transform="matrix(1.2838 0 0 -1.2418 .66407 22.928)"
   style=""
   id="g2">
  <g
   style=""
   id="g1">
   <path
   style="fill:currentColor;stroke-width:1.2"
   class="ColorScheme-Text"
   d="m 14.980561,13.842419 c -0.1128,0.6144 -0.4872,0.9192 -0.8196,1.0416 -1.40316,0.58086 -2.61924,0.636024 -4.158,0.681036 -0.066,0.4308 -0.3707997,0.57 -0.7079997,0.7056 -0.9048,0.3612 -2.3064,0.2712 -2.6628,0.1728 -0.2856,-0.0792 -0.6048,-0.2388 -0.7776,-0.4872 -0.1176,-0.1692 -0.1968,-0.3792 -0.1968,-0.6792 0,-0.1692 0.0048,-0.5676 0.0084,-0.9192 0.0048,-0.3516 0.0096,-0.477744 0.0096,-0.477744 0,-0.3132 -0.258,-0.248352 -0.576,-0.248352 h -1.4676 c -1.39584,0 -1.40256,-1.6056 -1.308,-2.6724 0.0516,-0.3984 0.492,-3.2015997 0.9096,-4.0547997 0.1644,-0.3276 0.2724,-0.4692 0.5904,-0.6144 0.708,-0.3 2.3304,-0.6324 3.0888,-0.7308 0.7548,-0.0936 1.2336,-0.2952 1.5144,0.2904 0,0 0.0564,0.1452 0.1356,0.3612 0.2448,0.7356 0.2772,1.3872 0.2772,1.8612 0,0.0516 0.0744,0.0516 0.0744,0 0,-0.3336 -0.0648,-1.5144 0.84,-1.8336 0.3563997,-0.126 1.0967997,-0.234 1.8467997,-0.3228 0.6792,-0.0756 1.1712,-0.342 1.1712,-2.0676 0,-1.05 -0.2196,-1.1904 -1.3872,-1.1904 -0.942,0 -1.3032,-0.0228 -1.3032,0.7176 0,0.6 0.6,0.534 1.0452,0.534 0.1968,0 0.0516,0.1452 0.0516,0.516 0,0.3696 0.234,0.5808 0.0144,0.5856 -1.5371997,0.042 -2.4419997,0.0048 -2.4419997,-1.8984 0,-1.7256 0.6696,-2.0436 2.8499997,-2.0436 1.71,0 2.3148,0.0564 3.018,2.2212 0.1416,0.4272 0.4788,1.7352 0.6852,3.924 0.1308,1.3872 -0.1224,5.5691997 -0.324,6.6275997 z m -2.9808,-4.6259997 c -0.2112,0.0096 -0.4128,-0.0048 -0.6048,-0.0324 0.0564,0.4212 0.234,0.9467997 0.8628,0.9227997 0.6984,-0.0228 0.7968,-0.6743997 0.7968,-1.1159997 -0.2952,0.132 -0.6564,0.2112 -1.0548,0.2256 z"
   id="path1" />
  </g>
 </g>
</svg>
