<?xml version="1.0" encoding="UTF-8" standalone="no"?>
<svg
   width="24"
   height="24"
   version="1.1"
   id="svg1"
   sodipodi:docname="exaile-pause.svg"
   xmlns:inkscape="http://www.inkscape.org/namespaces/inkscape"
   xmlns:sodipodi="http://sodipodi.sourceforge.net/DTD/sodipodi-0.dtd"
   xmlns="http://www.w3.org/2000/svg"
   xmlns:svg="http://www.w3.org/2000/svg">
  <sodipodi:namedview
     id="namedview1"
     pagecolor="#ffffff"
     bordercolor="#000000"
     borderopacity="0.25"
     inkscape:showpageshadow="2"
     inkscape:pageopacity="0.0"
     inkscape:pagecheckerboard="0"
     inkscape:deskcolor="#d1d1d1" />
  <defs
     id="defs1">
    <style
       id="current-color-scheme"
       type="text/css">.ColorScheme-Text {color:#d8dee9} .ColorScheme-Highlight {color:#3b4252}</style>
  </defs>
  <path
     style="fill:currentColor;stroke-width:1.2"
     class="ColorScheme-Text"
     d="m 12,2.4 c -5.3184,0 -9.6,4.2816 -9.6,9.6 0,5.3184 4.2816,9.6 9.6,9.6 5.3184,0 9.6,-4.2816 9.6,-9.6 0,-5.3184 -4.2816,-9.6 -9.6,-9.6 z m -2.4,6 c 0.6648,0 1.2,1.0704 1.2,2.4 v 2.4 c 0,1.3296 -0.5352,2.4 -1.2,2.4 -0.6648,0 -1.2,-1.0704 -1.2,-2.4 V 10.8 C 8.4,9.4704 8.9352,8.4 9.6,8.4 Z m 4.8,0 c 0.6648,0 1.2,1.0704 1.2,2.4 v 2.4 c 0,1.3296 -0.5352,2.4 -1.2,2.4 -0.6648,0 -1.2,-1.0704 -1.2,-2.4 v -2.4 c 0,-1.3296 0.5352,-2.4 1.2,-2.4 z"
     id="path1" />
</svg>
