<?xml version="1.0" encoding="UTF-8" standalone="no"?>
<svg
   width="24"
   height="24"
   version="1.1"
   id="svg1"
   sodipodi:docname="fcitx-mozc-tool.svg"
   xmlns:inkscape="http://www.inkscape.org/namespaces/inkscape"
   xmlns:sodipodi="http://sodipodi.sourceforge.net/DTD/sodipodi-0.dtd"
   xmlns="http://www.w3.org/2000/svg"
   xmlns:svg="http://www.w3.org/2000/svg">
  <sodipodi:namedview
     id="namedview1"
     pagecolor="#ffffff"
     bordercolor="#000000"
     borderopacity="0.25"
     inkscape:showpageshadow="2"
     inkscape:pageopacity="0.0"
     inkscape:pagecheckerboard="0"
     inkscape:deskcolor="#d1d1d1" />
  <defs
     id="defs1">
    <style
       id="current-color-scheme"
       type="text/css">.ColorScheme-Text {color:#d8dee9} .ColorScheme-Highlight {color:#3b4252}</style>
  </defs>
  <path
     style="fill:currentColor;stroke-width:1.2"
     class="ColorScheme-Text"
     d="m 15.6,2.4 c -1.41744,0.538572 -2.4,1.716 -2.4,3.18048 0,1.46448 0.98256,2.6088 2.4,3.1476 v 2.91336 c 1.5288,0.75996 2.7816,1.99056 3.6,3.49896 V 8.72808 C 20.6172,8.18928 21.6,7.04496 21.6,5.58048 21.6,4.116 20.6172,2.938572 19.2,2.4 V 4.8 C 19.2,6 18,6 18,6 h -1.2 c 0,0 -1.2,0 -1.2,-1.2 z M 12,12 C 8.0112,12 4.8,15.2112 4.8,19.2 H 2.4 v 2.4 H 21.6 V 19.2 H 19.2 C 19.2,15.2112 15.9888,12 12,12 Z m 0,3.6 c 1.9944,0 3.6,1.6056 3.6,3.6 H 8.4 c 0,-1.9944 1.6056,-3.6 3.6,-3.6 z"
     id="path1" />
</svg>
