<?xml version="1.0" encoding="UTF-8" standalone="no"?>
<svg
   width="24"
   height="24"
   version="1.1"
   id="svg1"
   sodipodi:docname="fcitx-erbi-panel.svg"
   xmlns:inkscape="http://www.inkscape.org/namespaces/inkscape"
   xmlns:sodipodi="http://sodipodi.sourceforge.net/DTD/sodipodi-0.dtd"
   xmlns="http://www.w3.org/2000/svg"
   xmlns:svg="http://www.w3.org/2000/svg">
  <sodipodi:namedview
     id="namedview1"
     pagecolor="#ffffff"
     bordercolor="#000000"
     borderopacity="0.25"
     inkscape:showpageshadow="2"
     inkscape:pageopacity="0.0"
     inkscape:pagecheckerboard="0"
     inkscape:deskcolor="#d1d1d1" />
  <defs
     id="defs1">
    <style
       id="current-color-scheme"
       type="text/css">.ColorScheme-Text {color:#d8dee9} .ColorScheme-Highlight {color:#3b4252}</style>
  </defs>
  <path
     style="fill:currentColor;stroke-width:1.2"
     class="ColorScheme-Text"
     d="M 4.8,2.4 C 3.4704,2.4 2.4,3.4704 2.4,4.8 v 14.4 c 0,1.3296 1.0704,2.4 2.4,2.4 h 14.4 c 1.3296,0 2.4,-1.0704 2.4,-2.4 V 4.8 c 0,-1.3296 -1.0704,-2.4 -2.4,-2.4 z m 9.6375,1.190625 1.2,0.01875 C 15.625274,4.4255522 15.65199,5.2147075 15.682031,6 H 19.2 v 1.2 h -3.459374 c 0.178588,2.7698856 0.57773,5.280743 1.068748,7.239844 0.348362,1.389927 0.738938,2.512396 1.094532,3.250782 0.177797,0.36919 0.351462,0.641418 0.475781,0.7875 0.05542,0.06511 -0.0017,0.03607 0.01406,0.04687 0.286044,-0.07632 0.445428,-0.184509 0.574219,-0.515626 0.145972,-0.375289 0.211312,-0.973866 0.220312,-1.65 l 1.2,0.01406 c -0.0097,0.728216 -0.05635,1.437104 -0.302344,2.069532 -0.245988,0.632428 -0.792081,1.198865 -1.56328,1.333594 a 0.60006,0.60006 0 0 1 -0.0961,0.0071 C 17.980169,19.789456 17.69749,19.528774 17.465616,19.256312 17.233738,18.98385 17.02912,18.638112 16.823428,18.210999 16.412054,17.35676 16.009216,16.176233 15.646873,14.730517 15.131574,12.674452 14.71857,10.071697 14.538281,7.2 H 4.8 V 6 h 9.684374 C 14.454893,5.2079773 14.425165,4.4140858 14.4375,3.590625 Z M 18,3.6 c 0.5002,0.4547272 0.909815,0.9318314 1.228126,1.4320313 l -1.160157,0.6820313 c -0.272837,-0.5002001 -0.637461,-0.9998002 -1.092188,-1.5 z M 6,8.4 h 7.2 V 9.6 H 6 Z m 0,2.4 h 7.2 V 12 H 6 Z m 0,2.4 h 1.2 6 v 3.6 H 12 V 14.4 H 7.2 v 2.4 H 6 v -2.4 z m 2.4117187,2.4 H 9.7101564 C 9.61023,17.044814 9.2496566,18.138368 8.5945313,18.832031 7.8214952,19.696013 6.4351744,20.218109 4.434375,20.4 L 3.8882813,19.239844 C 5.7071898,19.057952 6.9111985,18.648337 7.5023437,18.011719 8.0180706,17.495992 8.3137843,16.682731 8.4117187,15.6 Z m 2.0320313,1.197656 c 1.136818,0.545673 2.183354,1.182593 3.138281,1.910157 L 12.625781,19.8 C 11.716327,19.026964 10.717127,18.367548 9.6257808,17.821874 Z"
     id="path1" />
</svg>
