<?xml version="1.0" encoding="UTF-8" standalone="no"?>
<svg
   width="24"
   height="24"
   version="1.1"
   id="svg1"
   sodipodi:docname="fcitx-skk-panel.svg"
   xmlns:inkscape="http://www.inkscape.org/namespaces/inkscape"
   xmlns:sodipodi="http://sodipodi.sourceforge.net/DTD/sodipodi-0.dtd"
   xmlns="http://www.w3.org/2000/svg"
   xmlns:svg="http://www.w3.org/2000/svg">
  <sodipodi:namedview
     id="namedview1"
     pagecolor="#ffffff"
     bordercolor="#000000"
     borderopacity="0.25"
     inkscape:showpageshadow="2"
     inkscape:pageopacity="0.0"
     inkscape:pagecheckerboard="0"
     inkscape:deskcolor="#d1d1d1" />
  <defs
     id="defs1">
    <style
       id="current-color-scheme"
       type="text/css">.ColorScheme-Text {color:#d8dee9} .ColorScheme-Highlight {color:#3b4252}</style>
  </defs>
  <g
     transform="matrix(1,0,0,1,4,4)"
     style=""
     id="g1">
    <path
       class="ColorScheme-Text"
       d="m 0.8,-1.6 c -1.3296,0 -2.4,1.0704 -2.4,2.4 v 14.4 c 0,1.3296 1.0704,2.4 2.4,2.4 h 14.4 c 1.3296,0 2.4,-1.0704 2.4,-2.4 V 0.8 c 0,-1.3296 -1.0704,-2.4 -2.4,-2.4 z M 5.6,3.2 H 6.8 V 8.3516 L 9.5516,5.6 H 10.4 V 3.2 h 1.2 V 8.3516 L 14.3516,5.6 h 1.6968 l -3.6,3.6 3.6,3.6 H 14.3516 L 11.6,10.0484 V 12.8 H 9.5516 L 6.8,10.0484 V 12.8 H 5.6 v -2.4 c 0,0.6996 -0.1854,1.3332 -0.6258,1.7748 C 4.5326,12.6152 3.8996,12.8 3.2,12.8 2.5004,12.8 1.8674,12.6152 1.4258,12.1748 0.9854,11.7332 0.8,11.0996 0.8,10.4 H 2 c 0,0.5004 0.1146,0.7668 0.2742,0.9252 C 2.4326,11.4848 2.6996,11.6 3.2,11.6 3.7004,11.6 3.9674,11.4848 4.1258,11.3252 4.2854,11.1668 4.4,10.9004 4.4,10.4 4.4,9.8996 4.2854,9.6326 4.1258,9.4742 3.9674,9.3146 3.7004,9.2 3.2,9.2 2.5004,9.2 1.8674,9.0146 1.4258,8.5742 0.9854,8.1326 0.8,7.4996 0.8,6.8 0.8,6.1004 0.9854,5.4674 1.4258,5.0258 1.8674,4.5854 2.5004,4.4 3.2,4.4 3.8996,4.4 4.5326,4.5854 4.9742,5.0258 5.4146,5.4674 5.6,6.1004 5.6,6.8 Z m 0,3.6 H 4.4 C 4.4,6.2996 4.2854,6.0326 4.1258,5.8742 3.9674,5.7146 3.7004,5.6 3.2,5.6 2.6996,5.6 2.4326,5.7146 2.2742,5.8742 2.1146,6.0326 2,6.2996 2,6.8 2,7.3004 2.1146,7.5674 2.2742,7.7258 2.4326,7.8854 2.6996,8 3.2,8 3.8996,8 4.5326,8.1854 4.9742,8.6258 5.4146,9.0674 5.6,9.7004 5.6,10.4 Z M 10.4,6.4484 7.6484,9.2 10.4,11.9516 Z"
       style="fill:currentColor;stroke-width:1.2"
       id="path1" />
  </g>
</svg>
