<?xml version="1.0" encoding="UTF-8" standalone="no"?>
<svg
   width="24"
   height="24"
   version="1.1"
   id="svg1"
   sodipodi:docname="fcitx-mozc-properties.svg"
   xmlns:inkscape="http://www.inkscape.org/namespaces/inkscape"
   xmlns:sodipodi="http://sodipodi.sourceforge.net/DTD/sodipodi-0.dtd"
   xmlns="http://www.w3.org/2000/svg"
   xmlns:svg="http://www.w3.org/2000/svg">
  <sodipodi:namedview
     id="namedview1"
     pagecolor="#ffffff"
     bordercolor="#000000"
     borderopacity="0.25"
     inkscape:showpageshadow="2"
     inkscape:pageopacity="0.0"
     inkscape:pagecheckerboard="0"
     inkscape:deskcolor="#d1d1d1" />
  <defs
     id="defs1">
    <style
       id="current-color-scheme"
       type="text/css">.ColorScheme-Text {color:#d8dee9} .ColorScheme-Highlight {color:#3b4252}</style>
  </defs>
  <path
     style="fill:currentColor;stroke-width:1.2"
     class="ColorScheme-Text"
     d="M 9.6023436,2.4 9.3914065,4.9289063 a 7.5418048,7.5418048 0 0 0 -2.2031251,1.275 l -2.2992186,-1.0828126 -2.4,4.1554691 2.0859374,1.4507812 A 7.5418048,7.5418048 0 0 0 4.4601566,11.997656 7.5418048,7.5418048 0 0 0 4.570313,13.275 l -2.0812501,1.44375 2.4,4.157813 2.2921875,-1.080469 a 7.5418048,7.5418048 0 0 0 2.2101562,1.267969 L 9.5976565,21.6 h 4.7999995 l 0.210938,-2.528906 a 7.5418048,7.5418048 0 0 0 2.203125,-1.275 l 2.299218,1.082812 2.4,-4.155469 L 19.425,13.272656 A 7.5418048,7.5418048 0 0 0 19.53984,12.002344 7.5418048,7.5418048 0 0 0 19.42968,10.725 l 2.08125,-1.44375 -2.4,-4.1578126 -2.292187,1.0804689 A 7.5418048,7.5418048 0 0 0 14.608594,4.9359374 L 14.402344,2.4 Z M 12,8.4 A 3.5999993,3.5999993 0 0 1 15.6,12 3.5999993,3.5999993 0 0 1 12,15.6 3.5999993,3.5999993 0 0 1 8.4000002,12 3.5999993,3.5999993 0 0 1 12,8.4 Z"
     id="path1" />
</svg>
