<?xml version="1.0" encoding="UTF-8" standalone="no"?>
<svg
   width="24"
   height="24"
   version="1.1"
   id="svg1"
   sodipodi:docname="fcitx-chewing-panel.svg"
   xmlns:inkscape="http://www.inkscape.org/namespaces/inkscape"
   xmlns:sodipodi="http://sodipodi.sourceforge.net/DTD/sodipodi-0.dtd"
   xmlns="http://www.w3.org/2000/svg"
   xmlns:svg="http://www.w3.org/2000/svg">
  <sodipodi:namedview
     id="namedview1"
     pagecolor="#ffffff"
     bordercolor="#000000"
     borderopacity="0.25"
     inkscape:showpageshadow="2"
     inkscape:pageopacity="0.0"
     inkscape:pagecheckerboard="0"
     inkscape:deskcolor="#d1d1d1" />
  <defs
     id="defs1">
    <style
       id="current-color-scheme"
       type="text/css">.ColorScheme-Text {color:#d8dee9} .ColorScheme-Highlight {color:#3b4252}</style>
  </defs>
  <g
     transform="matrix(1,0,0,1,4,4)"
     style=""
     id="g1">
    <path
       class="ColorScheme-Text"
       d="m 0.8,-1.6 c -1.3296,0 -2.4,1.0704 -2.4,2.4 v 14.4 c 0,1.3296 1.0704,2.4 2.4,2.4 h 14.4 c 1.3296,0 2.4,-1.0704 2.4,-2.4 V 0.8 c 0,-1.3296 -1.0704,-2.4 -2.4,-2.4 z m 0,2.4 H 8 V 2 H 5.6 V 5.6 H 7.4 8 L 7.51952,5.23904 C 7.51952,5.23904 9.2,2.9 9.2,0.8 h 1.2 c 0,0.85044 -0.19848,1.66644 -0.45936,2.4 H 11.6 V 0.8 h 1.2 v 2.4 h 2.4 v 1.2 h -2.4 v 2.4 h 2.4 V 8 h -6 V 6.8 h 2.4 V 4.4 H 9.43676 C 8.95832,5.34752 8.48048,5.96096 8.48048,5.96096 L 8,5.6 v 9.6 H 0.8 V 5.6 H 2 V 2 H 0.8 Z M 3.2,2 V 5.6 H 4.4 V 2 Z m 0,4.8 v 3.6 H 2 v 1.2 h 3.6 v 1.2 H 2 V 14 H 6.8 V 6.8 H 5.6 v 3.6 H 4.4 V 6.8 Z m 6,2.4 h 6 v 6 h -6 z m 1.2,1.2 V 14 H 14 v -3.6 z"
       style="fill:currentColor;stroke-width:1.2"
       id="path1" />
  </g>
</svg>
