<?xml version="1.0" encoding="UTF-8" standalone="no"?>
<svg
   width="24"
   height="24"
   version="1.1"
   id="svg1"
   sodipodi:docname="fcitx-googlepinyin-panel.svg"
   xmlns:inkscape="http://www.inkscape.org/namespaces/inkscape"
   xmlns:sodipodi="http://sodipodi.sourceforge.net/DTD/sodipodi-0.dtd"
   xmlns="http://www.w3.org/2000/svg"
   xmlns:svg="http://www.w3.org/2000/svg">
  <sodipodi:namedview
     id="namedview1"
     pagecolor="#ffffff"
     bordercolor="#000000"
     borderopacity="0.25"
     inkscape:showpageshadow="2"
     inkscape:pageopacity="0.0"
     inkscape:pagecheckerboard="0"
     inkscape:deskcolor="#d1d1d1" />
  <defs
     id="defs1">
    <style
       id="current-color-scheme"
       type="text/css">.ColorScheme-Text {color:#d8dee9} .ColorScheme-Highlight {color:#3b4252}</style>
  </defs>
  <g
     transform="matrix(1,0,0,1,4,4)"
     style=""
     id="g1">
    <path
       class="ColorScheme-Text"
       d="m 0.8,-1.6 c -1.3296,0 -2.4,1.0704 -2.4,2.4 v 14.4 c 0,1.3296 1.0704,2.4 2.4,2.4 h 14.4 c 1.3296,0 2.4,-1.0704 2.4,-2.4 V 0.8 c 0,-1.3296 -1.0704,-2.4 -2.4,-2.4 z M 7.87808,1.4024 C 9.43112,1.3742 10.9952,1.89032 12.2564,2.95388 L 10.7072,4.78904 C 9.09104,3.4256 6.74096,3.46604 5.1758,4.88744 3.61052,6.30908 3.34124,8.6462 4.54292,10.38596 5.7446,12.1256 8.0246,12.7016 9.90776,11.7404 10.9664,11.2004 11.6876,10.26896 12.0032,9.20708 H 8 v -2.4 L 14.4776,6.8 C 14.9984,9.62564 13.6268,12.5372 11,13.8776 8.0618,15.3776 4.44428,14.4668 2.56952,11.7524 0.69476,9.03824 1.11896,5.32856 3.56096,3.11096 4.78196,2.00204 6.32516,1.4312 7.87808,1.4024 Z"
       style="fill:currentColor;stroke-width:1.2"
       id="path1" />
  </g>
</svg>
