<?xml version="1.0" encoding="UTF-8" standalone="no"?>
<svg
   width="24"
   height="24"
   version="1.1"
   id="svg1"
   sodipodi:docname="fcitx-sayura-panel.svg"
   xmlns:inkscape="http://www.inkscape.org/namespaces/inkscape"
   xmlns:sodipodi="http://sodipodi.sourceforge.net/DTD/sodipodi-0.dtd"
   xmlns="http://www.w3.org/2000/svg"
   xmlns:svg="http://www.w3.org/2000/svg">
  <sodipodi:namedview
     id="namedview1"
     pagecolor="#ffffff"
     bordercolor="#000000"
     borderopacity="0.25"
     inkscape:showpageshadow="2"
     inkscape:pageopacity="0.0"
     inkscape:pagecheckerboard="0"
     inkscape:deskcolor="#d1d1d1" />
  <defs
     id="defs1">
    <style
       id="current-color-scheme"
       type="text/css">.ColorScheme-Text {color:#d8dee9} .ColorScheme-Highlight {color:#3b4252}</style>
  </defs>
  <g
     transform="matrix(1,0,0,1,4,4)"
     style=""
     id="g1">
    <path
       class="ColorScheme-Text"
       d="m 0.8,-1.6 c -1.3296,0 -2.4,1.0704 -2.4,2.4 v 14.4 c 0,1.3296 1.0704,2.4 2.4,2.4 h 14.4 c 1.3296,0 2.4,-1.0704 2.4,-2.4 V 0.8 c 0,-1.3296 -1.0704,-2.4 -2.4,-2.4 z m 10.5588,2.46792 1.0476,0.83676 c -0.0384,0.06348 -0.0708,0.12036 -0.096,0.17112 -0.0132,0.05076 -0.0192,0.12816 -0.0192,0.22968 0,0.13956 0.0456,0.2958 0.1344,0.4734 0.6144,0.47136 0.9792,1.03308 1.3728,1.63836 0.1044,0.22344 0.2232,0.44376 0.2412,0.67968 0.042,0.54384 -0.1764,1.0032 -0.5316,1.371 -0.3552,0.36792 -1.3452,0.5508 -2.2452,0.5508 -0.2412,0 -0.5964,-0.03264 -0.8628,-0.09612 v 4.4442 c 0.228,-0.0636 0.5532,-0.1452 0.7692,-0.246 0.228,-0.102 0.462,-0.216 0.7032,-0.3432 l 0.4944,1.2756 c -0.3048,0.1392 -0.6132,0.2652 -0.9312,0.3792 -0.3036,0.102 -0.7188,0.192 -1.0356,0.2676 v 3.9 H 9.2 v -3.6732 c -0.3678,0.0516 -2.19204,0.1344 -2.52192,0.1344 -1.1796,0 -2.2068,-0.1716 -3.08196,-0.5136 C 2.72084,11.9924 2.03528,11.4716 1.54064,10.7864 1.0586,10.10288 0.8,9.12584 0.8,8.0984 0.8342,7.38296 1.09496,6.8402 1.4516,6.38276 2.1746,5.46572 3.0344,5.02448 4.01564,4.65776 4.4342,4.54364 4.92236,4.51304 5.48048,4.475 6.05132,4.42436 6.73676,4.4 7.53596,4.4 H 9.2 C 9.16196,3.80384 8.94248,2.83916 8.6,2.56016 8.27024,2.28104 7.84508,2.14292 7.325,2.14292 c -0.49476,0 -0.86892,0.09576 -1.1226,0.28596 -0.2538,0.1776 -0.3798,0.42348 -0.3798,0.74064 0,0 0.01884,0.24792 0.01884,0.28596 L 4.48904,3.6266 C 4.46372,3.51236 4.4516,3.03596 4.4516,3.03596 c 0,-0.69768 0.24828,-1.2306 0.74292,-1.59852 0.49476,-0.3678 1.1718,-0.55068 2.03436,-0.55068 1.31928,0 2.23248,0.53292 2.73984,1.5984 C 10.3112,1.9016 10.7756,1.36268 11.3588,0.86792 Z M 11.2436,2.80856 C 10.9268,3.18908 10.622,3.56336 10.5332,3.93128 10.4444,4.29908 10.4,4.21952 10.4,4.6508 v 0.83664 c 0.204,0.0408 0.528,0.07512 0.7872,0.07512 0.4188,0 1.0704,-0.06912 1.236,-0.20868 0.1584,-0.2214 0.2028,-0.4038 0.1896,-0.5718 C 12.5528,4.45124 12.4184,4.18184 12.2468,3.9266 11.9852,3.45992 11.5712,3.13736 11.2436,2.80856 Z M 7.66952,5.6 C 6.78164,5.59976 6.06944,5.62424 5.53676,5.675 5.01668,5.72576 4.59152,5.80928 4.26176,5.9234 3.9446,6.02492 3.65996,6.16016 3.40628,6.31256 2.7014,6.87836 2.38928,7.37624 2.3234,7.91792 2.29712,8.28212 2.22296,8.59316 2.2766,8.86256 c 0.2418,1.21608 0.93444,1.63104 1.85388,2.19144 0.67224,0.3048 1.57104,0.4548 2.7,0.4548 0.34248,0 2.05236,-0.0564 2.36952,-0.0936 V 5.6 Z"
       style="fill:currentColor;stroke-width:1.2"
       id="path1" />
  </g>
</svg>
