<?xml version="1.0" encoding="UTF-8" standalone="no"?>
<svg
   width="24"
   height="24"
   version="1.1"
   id="svg1"
   sodipodi:docname="fcitx-mozc-katakana-half.svg"
   xmlns:inkscape="http://www.inkscape.org/namespaces/inkscape"
   xmlns:sodipodi="http://sodipodi.sourceforge.net/DTD/sodipodi-0.dtd"
   xmlns="http://www.w3.org/2000/svg"
   xmlns:svg="http://www.w3.org/2000/svg">
  <sodipodi:namedview
     id="namedview1"
     pagecolor="#ffffff"
     bordercolor="#000000"
     borderopacity="0.25"
     inkscape:showpageshadow="2"
     inkscape:pageopacity="0.0"
     inkscape:pagecheckerboard="0"
     inkscape:deskcolor="#d1d1d1" />
  <defs
     id="defs1">
    <style
       id="current-color-scheme"
       type="text/css">.ColorScheme-Text {color:#d8dee9} .ColorScheme-Highlight {color:#3b4252}</style>
  </defs>
  <path
     style="fill:currentColor;stroke-width:1.2"
     class="ColorScheme-Text"
     d="M 4.8,2.4 C 3.4704,2.4 2.4,3.4704 2.4,4.8 v 14.4 c 0,1.3296 1.0704,2.4 2.4,2.4 h 14.4 c 1.3296,0 2.4,-1.0704 2.4,-2.4 V 4.8 c 0,-1.3296 -1.0704,-2.4 -2.4,-2.4 z m 4.8,3.5989218 h 9.138281 c 0.330822,-5.056e-4 0.5534,0.4383908 0.424219,0.834375 -0.957757,2.9470896 -1.952651,4.8197012 -3.447656,6.5718752 l -0.857813,-0.890625 c 1.262689,-1.479895 1.98348,-3.0315938 2.847656,-5.3156252 H 9.6 Z m 3.6,3.5976558 1.2,0.00468 c -0.0047,1.7631014 0.149754,2.9227364 -0.215624,4.6076204 -0.36538,1.684883 -1.480954,2.64526 -3.264845,3.846836 L 10.495313,16.752601 C 12.108592,15.665942 12.631703,15.29324 12.9375,13.88311 13.243297,12.472982 13.195182,11.41338 13.2,9.5965776 Z M 4.8,16.799476 h 3.6 v 1.2 H 4.8 Z"
     id="path1" />
</svg>
