<?xml version="1.0" encoding="UTF-8" standalone="no"?>
<svg
   width="24"
   height="24"
   version="1.1"
   id="svg1"
   sodipodi:docname="fcitx-kkc-panel.svg"
   xmlns:inkscape="http://www.inkscape.org/namespaces/inkscape"
   xmlns:sodipodi="http://sodipodi.sourceforge.net/DTD/sodipodi-0.dtd"
   xmlns="http://www.w3.org/2000/svg"
   xmlns:svg="http://www.w3.org/2000/svg">
  <sodipodi:namedview
     id="namedview1"
     pagecolor="#ffffff"
     bordercolor="#000000"
     borderopacity="0.25"
     inkscape:showpageshadow="2"
     inkscape:pageopacity="0.0"
     inkscape:pagecheckerboard="0"
     inkscape:deskcolor="#d1d1d1" />
  <defs
     id="defs1">
    <style
       id="current-color-scheme"
       type="text/css">.ColorScheme-Text {color:#d8dee9} .ColorScheme-Highlight {color:#3b4252}</style>
  </defs>
  <g
     transform="matrix(1,0,0,1,4,4)"
     style=""
     id="g1">
    <path
       class="ColorScheme-Text"
       d="m 0.8,-1.6 c -1.3296,0 -2.4,1.0704 -2.4,2.4 v 14.4 c 0,1.3296 1.0704,2.4 2.4,2.4 h 14.4 c 1.3296,0 2.4,-1.0704 2.4,-2.4 V 0.8 c 0,-1.3296 -1.0704,-2.4 -2.4,-2.4 z m 0,4.8 H 2 V 8.3516 L 4.7516,5.6 H 5.6 V 3.2 H 6.8 V 8.3516 L 9.5516,5.6 h 1.6968 l -3.6,3.6 3.6,3.6 H 9.5516 L 6.8,10.0484 V 12.8 H 4.7516 L 2,10.0484 V 12.8 H 0.8 Z m 12,2.4 c 0.6996,0 1.3332,0.18432 1.7748,0.6258 C 15.0152,6.66716 15.2,7.30004 15.2,8 H 14 C 14,7.49996 13.8848,7.23284 13.7252,7.0742 13.5668,6.91568 13.3004,6.8 12.8,6.8 12.2996,6.8 12.0332,6.91568 11.8748,7.0742 11.7152,7.23284 11.6,7.49996 11.6,8 v 2.4 c 0,0.5004 0.1152,0.7668 0.2748,0.9252 0.1584,0.1596 0.4248,0.2748 0.9252,0.2748 0.5004,0 0.7668,-0.1152 0.9252,-0.2748 C 13.8848,11.1668 14,10.9004 14,10.4 h 1.2 c 0,0.6996 -0.1848,1.3332 -0.6252,1.7748 C 14.1332,12.6152 13.4996,12.8 12.8,12.8 12.1004,12.8 11.4668,12.6152 11.0252,12.1748 10.5848,11.7332 10.4,11.0996 10.4,10.4 V 8 C 10.4,7.30004 10.5848,6.66716 11.0252,6.2258 11.4668,5.78432 12.1004,5.6 12.8,5.6 Z M 5.6,6.4484 2.8484,9.2 5.6,11.9516 Z"
       style="fill:currentColor;stroke-width:1.2"
       id="path1" />
  </g>
</svg>
