<?xml version="1.0" encoding="UTF-8" standalone="no"?>
<svg
   width="24"
   height="24"
   version="1.1"
   id="svg1"
   sodipodi:docname="fcitx-shuangpin-panel.svg"
   xmlns:inkscape="http://www.inkscape.org/namespaces/inkscape"
   xmlns:sodipodi="http://sodipodi.sourceforge.net/DTD/sodipodi-0.dtd"
   xmlns="http://www.w3.org/2000/svg"
   xmlns:svg="http://www.w3.org/2000/svg">
  <sodipodi:namedview
     id="namedview1"
     pagecolor="#ffffff"
     bordercolor="#000000"
     borderopacity="0.25"
     inkscape:showpageshadow="2"
     inkscape:pageopacity="0.0"
     inkscape:pagecheckerboard="0"
     inkscape:deskcolor="#d1d1d1" />
  <defs
     id="defs1">
    <style
       id="current-color-scheme"
       type="text/css">.ColorScheme-Text {color:#d8dee9} .ColorScheme-Highlight {color:#3b4252}</style>
  </defs>
  <g
     transform="matrix(1,0,0,1,4,4)"
     style=""
     id="g1">
    <path
       class="ColorScheme-Text"
       d="m 0.8,-1.6 c -1.3296,0 -2.4,1.0704 -2.4,2.4 v 14.4 c 0,1.3296 1.0704,2.4 2.4,2.4 h 14.4 c 1.3296,0 2.4,-1.0704 2.4,-2.4 V 0.8 c 0,-1.3296 -1.0704,-2.4 -2.4,-2.4 z m 0,2.4 H 7.45856 L 7.3976,1.46096 c 0,0 -0.39312,4.22268 -1.46952,7.35468 0.6996,1.044 1.36668,2.12316 2.20548,3.61116 L 7.09064,13.016 c -0.6468,-1.14 -1.18068,-2.0268 -1.70628,-2.8434 -1.6728,3.7446 -4.03824,5.379 -4.03824,5.379 L 0.67808,14.5532 c 0,0 2.36484,-1.572 3.91644,-5.5806 -0.918,-1.332 -1.96164,-2.676 -3.66324,-4.8 L 1.86872,3.4274 c 1.4172,1.764 2.3676,2.98932 3.2016,4.14132 C 5.73152,5.28872 6.02804,2.768 6.11324,2 H 0.8 Z m 7.2,0 h 7.2 v 0.6 c 0,2.58 -0.9996,5.96424 -2.0484,8.29224 -0.1332,0.3 -0.2904,0.55128 -0.4404,0.82776 0.7488,1.308 1.752,2.544 3.4128,3.8784 l -0.7524,0.9348 c -1.5384,-1.2408 -2.5764,-2.448 -3.3636,-3.672 -1.67184,2.3808 -3.72444,3.6396 -3.72444,3.6396 l -0.621,-1.026 c 0,0 2.13636,-1.3188 3.68184,-3.7668 C 10.9388,9.72776 10.5992,8.93576 10.28048,8.10776 9.37088,5.76776 8.83016,2.708 8.70776,2 H 8 Z M 9.92888,2 c 0.168,0.924 0.68232,3.6366 1.47192,5.6766 0.2076,0.54 0.4212,1.04316 0.6468,1.53516 C 12.956,7.19576 13.778,4.22 13.9088,2 Z"
       style="fill:currentColor;stroke-width:1.2"
       id="path1" />
  </g>
</svg>
