<?xml version="1.0" encoding="UTF-8" standalone="no"?>
<svg
   width="24"
   height="24"
   version="1.1"
   id="svg1"
   sodipodi:docname="fcitx-unikey-panel.svg"
   xmlns:inkscape="http://www.inkscape.org/namespaces/inkscape"
   xmlns:sodipodi="http://sodipodi.sourceforge.net/DTD/sodipodi-0.dtd"
   xmlns="http://www.w3.org/2000/svg"
   xmlns:svg="http://www.w3.org/2000/svg">
  <sodipodi:namedview
     id="namedview1"
     pagecolor="#ffffff"
     bordercolor="#000000"
     borderopacity="0.25"
     inkscape:showpageshadow="2"
     inkscape:pageopacity="0.0"
     inkscape:pagecheckerboard="0"
     inkscape:deskcolor="#d1d1d1" />
  <defs
     id="defs1">
    <style
       id="current-color-scheme"
       type="text/css">.ColorScheme-Text {color:#d8dee9} .ColorScheme-Highlight {color:#3b4252}</style>
  </defs>
  <g
     transform="matrix(1,0,0,1,4,4)"
     style=""
     id="g1">
    <path
       class="ColorScheme-Text"
       d="m 0.8,-1.6 c -1.3296,0 -2.4,1.0704 -2.4,2.4 v 14.4 c 0,1.3296 1.0704,2.4 2.4,2.4 h 14.4 c 1.3296,0 2.4,-1.0704 2.4,-2.4 V 0.8 c 0,-1.3296 -1.0704,-2.4 -2.4,-2.4 z M 2,2 H 3.2 V 3.8 C 3.2,4.63328 3.35288,5.09264 3.51872,5.3 3.68468,5.50736 3.89996,5.6 4.4,5.6 4.90004,5.6 5.11532,5.50736 5.28128,5.3 5.44712,5.09264 5.6,4.63328 5.6,3.8 V 2 H 6.8 V 3.8 C 6.8,4.76672 6.65288,5.50736 6.21872,6.05 5.78468,6.59264 5.09996,6.8 4.4,6.8 3.70004,6.8 3.01532,6.59264 2.58128,6.05 2.14712,5.50736 2,4.76672 2,3.8 Z m 9.6,0 h 1.2 v 4.8 h -1.2 z m -6,8.4 h 1.2 l 2.4,3 v -3 h 1.2 v 4.8 H 9.2 l -2.4,-3 v 3 H 5.6 Z"
       style="fill:currentColor;stroke-width:1.2"
       id="path1" />
  </g>
</svg>
