<?xml version="1.0" encoding="UTF-8" standalone="no"?>
<svg
   width="24"
   height="24"
   version="1.1"
   id="svg1"
   sodipodi:docname="fcitx-kbd-panel.svg"
   xmlns:inkscape="http://www.inkscape.org/namespaces/inkscape"
   xmlns:sodipodi="http://sodipodi.sourceforge.net/DTD/sodipodi-0.dtd"
   xmlns="http://www.w3.org/2000/svg"
   xmlns:svg="http://www.w3.org/2000/svg">
  <sodipodi:namedview
     id="namedview1"
     pagecolor="#ffffff"
     bordercolor="#000000"
     borderopacity="0.25"
     inkscape:showpageshadow="2"
     inkscape:pageopacity="0.0"
     inkscape:pagecheckerboard="0"
     inkscape:deskcolor="#d1d1d1" />
  <defs
     id="defs1">
    <style
       id="current-color-scheme"
       type="text/css">.ColorScheme-Text {color:#d8dee9} .ColorScheme-Highlight {color:#3b4252}</style>
  </defs>
  <g
     transform="matrix(1,0,0,1,1,1)"
     style=""
     id="g1">
    <path
       style="fill:currentColor;stroke-width:1.2"
       class="ColorScheme-Text"
       d="M 3.9,3.8 C 2.5704,3.8 1.5,4.8704 1.5,6.2 v 9.6 c 0,1.3296 1.0704,2.4 2.4,2.4 h 13.2 c 1.3296,0 2.4,-1.0704 2.4,-2.4 V 6.2 C 19.5,4.8704 18.4296,3.8 17.1,3.8 Z M 4.2,6.2 H 6 c 0.1662,0 0.3,0.1338 0.3,0.3 V 8.3 C 6.3,8.4662 6.1662,8.6 6,8.6 H 4.2 C 4.0338,8.6 3.9,8.4662 3.9,8.3 V 6.5 C 3.9,6.3338 4.0338,6.2 4.2,6.2 Z m 3.6,0 h 1.8 c 0.1662,0 0.3,0.1338 0.3,0.3 V 8.3 C 9.9,8.4662 9.7662,8.6 9.6,8.6 H 7.8 C 7.6338,8.6 7.5,8.4662 7.5,8.3 V 6.5 C 7.5,6.3338 7.6338,6.2 7.8,6.2 Z m 3.6,0 h 1.8 c 0.1668,0 0.3,0.1338 0.3,0.3 v 1.8 c 0,0.1662 -0.1332,0.3 -0.3,0.3 H 11.4 C 11.2332,8.6 11.1,8.4662 11.1,8.3 V 6.5 c 0,-0.1662 0.1332,-0.3 0.3,-0.3 z m 3.6,0 h 1.8 c 0.1668,0 0.3,0.1338 0.3,0.3 v 1.8 c 0,0.1662 -0.1332,0.3 -0.3,0.3 H 15 C 14.8332,8.6 14.7,8.4662 14.7,8.3 V 6.5 C 14.7,6.3338 14.8332,6.2 15,6.2 Z M 4.2,9.8 H 6 c 0.1662,0 0.3,0.1332 0.3,0.3 v 1.8 c 0,0.1668 -0.1338,0.3 -0.3,0.3 H 4.2 C 4.0338,12.2 3.9,12.0668 3.9,11.9 V 10.1 C 3.9,9.9332 4.0338,9.8 4.2,9.8 Z m 3.6,0 h 1.8 c 0.1662,0 0.3,0.1332 0.3,0.3 v 1.8 c 0,0.1668 -0.1338,0.3 -0.3,0.3 H 7.8 C 7.6338,12.2 7.5,12.0668 7.5,11.9 V 10.1 C 7.5,9.9332 7.6338,9.8 7.8,9.8 Z m 3.6,0 h 1.8 c 0.1668,0 0.3,0.1332 0.3,0.3 v 1.8 c 0,0.1668 -0.1332,0.3 -0.3,0.3 h -1.8 c -0.1668,0 -0.3,-0.1332 -0.3,-0.3 v -1.8 c 0,-0.1668 0.1332,-0.3 0.3,-0.3 z m 3.6,0 h 1.8 c 0.1668,0 0.3,0.1332 0.3,0.3 v 1.8 c 0,0.1668 -0.1332,0.3 -0.3,0.3 H 15 c -0.1668,0 -0.3,-0.1332 -0.3,-0.3 v -1.8 c 0,-0.1668 0.1332,-0.3 0.3,-0.3 z m -8.4,3.6 h 7.8 c 0.1668,0 0.3,0.1332 0.3,0.3 v 1.8 c 0,0.1668 -0.1332,0.3 -0.3,0.3 H 6.6 c -0.1662,0 -0.3,-0.1332 -0.3,-0.3 v -1.8 c 0,-0.1668 0.1338,-0.3 0.3,-0.3 z"
       id="path1" />
  </g>
</svg>
