<?xml version="1.0" encoding="UTF-8" standalone="no"?>
<svg
   width="24"
   height="24"
   version="1.1"
   id="svg1"
   sodipodi:docname="fcitx-hangul-panel.svg"
   xmlns:inkscape="http://www.inkscape.org/namespaces/inkscape"
   xmlns:sodipodi="http://sodipodi.sourceforge.net/DTD/sodipodi-0.dtd"
   xmlns="http://www.w3.org/2000/svg"
   xmlns:svg="http://www.w3.org/2000/svg">
  <sodipodi:namedview
     id="namedview1"
     pagecolor="#ffffff"
     bordercolor="#000000"
     borderopacity="0.25"
     inkscape:showpageshadow="2"
     inkscape:pageopacity="0.0"
     inkscape:pagecheckerboard="0"
     inkscape:deskcolor="#d1d1d1" />
  <defs
     id="defs1">
    <style
       id="current-color-scheme"
       type="text/css">.ColorScheme-Text {color:#d8dee9} .ColorScheme-Highlight {color:#3b4252}</style>
  </defs>
  <g
     transform="matrix(1,0,0,1,4,4)"
     style=""
     id="g1">
    <path
       class="ColorScheme-Text"
       d="m 0.8,-1.6 c -1.3296,0 -2.4,1.0704 -2.4,2.4 v 14.4 c 0,1.3296 1.0704,2.4 2.4,2.4 h 14.4 c 1.3296,0 2.4,-1.0704 2.4,-2.4 V 0.8 c 0,-1.3296 -1.0704,-2.4 -2.4,-2.4 z M 4.4,0.8 H 6.8 V 2 H 4.4 Z M 11.6,2 h 1.2 v 3.6 h 2.4 v 1.2 h -2.4 v 4.8 H 11.6 Z M 2,3.2 H 9.2 V 4.4 H 2 Z m 3.6,2.4 c 1.91628,0 3.6,1.26924 3.6,3 0,1.73076 -1.68372,3 -3.6,3 -1.91628,0 -3.6,-1.26924 -3.6,-3 0,-1.73076 1.68372,-3 3.6,-3 z m 0,1.2 c -1.3974,0 -2.4,0.87984 -2.4,1.8 0,0.92016 1.0026,1.8 2.4,1.8 C 6.9974,10.4 8,9.52016 8,8.6 8,7.67984 6.9974,6.8 5.6,6.8 Z m -1.2,6 H 5.6 V 14 H 14 v 1.2 H 4.4 Z"
       style="fill:currentColor;stroke-width:1.2"
       id="path1" />
  </g>
</svg>
