<?xml version="1.0" encoding="UTF-8" standalone="no"?>
<svg
   width="24"
   height="24"
   version="1.1"
   id="svg1"
   sodipodi:docname="fcitx-mozc-hiragana.svg"
   xmlns:inkscape="http://www.inkscape.org/namespaces/inkscape"
   xmlns:sodipodi="http://sodipodi.sourceforge.net/DTD/sodipodi-0.dtd"
   xmlns="http://www.w3.org/2000/svg"
   xmlns:svg="http://www.w3.org/2000/svg">
  <sodipodi:namedview
     id="namedview1"
     pagecolor="#ffffff"
     bordercolor="#000000"
     borderopacity="0.25"
     inkscape:showpageshadow="2"
     inkscape:pageopacity="0.0"
     inkscape:pagecheckerboard="0"
     inkscape:deskcolor="#d1d1d1" />
  <defs
     id="defs1">
    <style
       id="current-color-scheme"
       type="text/css">.ColorScheme-Text {color:#d8dee9} .ColorScheme-Highlight {color:#3b4252}</style>
  </defs>
  <path
     style="fill:currentColor;stroke-width:1.2"
     class="ColorScheme-Text"
     d="M 4.8,2.4 C 3.4704,2.4 2.4,3.4704 2.4,4.8 v 14.4 c 0,1.3296 1.0704,2.4 2.4,2.4 h 14.4 c 1.3296,0 2.4,-1.0704 2.4,-2.4 V 4.8 c 0,-1.3296 -1.0704,-2.4 -2.4,-2.4 z m 6,2.3695313 L 12,4.8304685 11.882813,7.2 H 18 v 1.2 h -6.175781 l -0.128906,2.594531 c 0.688281,-0.09986 1.410398,-0.136349 2.130468,-0.124218 0.182933,-0.390498 0.7875,-1.4882822 0.7875,-1.4882822 L 15.7125,9.8625 c 0,0 -0.460026,0.844231 -0.548437,1.038281 0.04123,0.0062 0.08556,-0.0044 0.126563,0.0024 0.920485,0.15297 1.78606,0.445329 2.491405,0.944532 0.705344,0.499202 1.244181,1.232616 1.408595,2.151563 0.253344,1.416026 -0.45109,2.783073 -1.582032,3.71953 -1.130943,0.936401 -2.719757,1.612065 -4.408594,1.444079 l 0.119532,-1.192969 c 1.352328,0.134512 2.642858,-0.44416 3.525,-1.174603 0.882143,-0.730443 1.325993,-1.68445 1.164844,-2.585157 -0.106812,-0.596986 -0.416128,-1.027084 -0.918749,-1.382812 -0.502625,-0.355728 -1.204858,-0.609005 -1.996876,-0.740625 -0.174194,-0.02894 -0.371814,0.0078 -0.553124,-0.0094 -0.489364,1.006954 -0.663407,1.521612 -1.551563,2.927344 -0.779942,1.234455 -1.650107,2.420973 -2.5875,3.229687 C 9.9328668,18.638747 9.4422062,18.95557 8.9039075,19.106266 8.3656087,19.256962 7.7585951,19.209034 7.2445325,18.897672 6.5859269,18.498743 6.1659986,17.865073 6.0140626,17.175 5.862126,16.484927 5.9547142,15.745248 6.225,15.028126 c 0.5405717,-1.43425 1.8038369,-2.8112 3.6023436,-3.548439 0.2079674,-0.08525 0.4273894,-0.156963 0.6515624,-0.222656 L 10.619531,8.4 H 7.2 V 7.2 h 3.480469 z m 1.933594,7.2632817 c -0.05152,-8.41e-4 -0.102636,0.0013 -0.154688,0.0071 -0.322098,0.03527 -0.637702,0.08694 -0.942187,0.15 l -0.145313,2.908544 c 0.164662,-0.240026 0.327456,-0.486336 0.485157,-0.735937 0.693435,-1.097538 0.760482,-1.392082 1.223437,-2.310937 -0.158071,0.0077 -0.311839,-0.01624 -0.466406,-0.01876 z m -2.317968,0.50625 c -0.04456,0.01705 -0.09041,0.03386 -0.133595,0.05156 -1.4903042,0.610901 -2.5249644,1.773125 -2.9343747,2.859374 -0.2047053,0.543125 -0.2516938,1.058535 -0.1617189,1.467187 0.089975,0.408653 0.2936925,0.718702 0.6820313,0.953907 0.2347779,0.142212 0.425302,0.160087 0.7125,0.07969 C 8.8676669,17.870381 9.231596,17.656985 9.6164064,17.325 9.809514,17.158408 10.007328,16.963512 10.207031,16.7461 Z"
     id="path1" />
</svg>
