<?xml version="1.0" encoding="UTF-8" standalone="no"?>
<svg
   width="24"
   height="24"
   version="1.1"
   id="svg2"
   sodipodi:docname="feedindicator-active.svg"
   xmlns:inkscape="http://www.inkscape.org/namespaces/inkscape"
   xmlns:sodipodi="http://sodipodi.sourceforge.net/DTD/sodipodi-0.dtd"
   xmlns="http://www.w3.org/2000/svg"
   xmlns:svg="http://www.w3.org/2000/svg">
  <sodipodi:namedview
     id="namedview2"
     pagecolor="#ffffff"
     bordercolor="#000000"
     borderopacity="0.25"
     inkscape:showpageshadow="2"
     inkscape:pageopacity="0.0"
     inkscape:pagecheckerboard="0"
     inkscape:deskcolor="#d1d1d1" />
  <defs
     id="defs1">
    <style
       id="current-color-scheme"
       type="text/css">.ColorScheme-Text {color:#d8dee9} .ColorScheme-Highlight {color:#3b4252}</style>
  </defs>
  <path
     style="opacity:0.35;fill:currentColor;stroke-width:1.2"
     class="ColorScheme-Text"
     d="m 12,2.4 c -5.3019336,0 -9.6,4.2980664 -9.6,9.6 0,5.301934 4.2980664,9.6 9.6,9.6 5.301934,0 9.6,-4.298066 9.6,-9.6 H 19.2 A 7.2,7.2 0 0 1 12,19.2 7.2,7.2 0 0 1 4.8,12 7.2,7.2 0 0 1 12,4.8 Z M 12,6 a 6,6 0 0 0 -6,6 6,6 0 0 0 6,6 6,6 0 0 0 6,-6 H 15.6 A 3.6,3.6 0 0 1 12,15.6 3.6,3.6 0 0 1 8.4,12 3.6,3.6 0 0 1 12,8.4 Z"
     id="path1" />
  <path
     style="opacity:1;fill:currentColor;stroke-width:1.2"
     class="ColorScheme-Text"
     d="m 12,2.4 v 2.4 a 7.2,7.2 0 0 1 7.2,7.2 h 2.4 C 21.6,6.6980664 17.301934,2.4 12,2.4 Z M 12,6 V 8.4 A 3.6,3.6 0 0 1 15.6,12 H 18 A 6,6 0 0 0 12,6 Z"
     id="path2" />
  <circle
     style="opacity:1;fill:currentColor;stroke-width:1.2"
     class="ColorScheme-Text"
     cx="12"
     cy="12"
     r="2.4000001"
     id="circle2" />
</svg>
