<?xml version="1.0" encoding="UTF-8" standalone="no"?>
<svg
   width="24"
   height="24"
   version="1.1"
   id="svg1"
   sodipodi:docname="ferdium-indirect.svg"
   xmlns:inkscape="http://www.inkscape.org/namespaces/inkscape"
   xmlns:sodipodi="http://sodipodi.sourceforge.net/DTD/sodipodi-0.dtd"
   xmlns="http://www.w3.org/2000/svg"
   xmlns:svg="http://www.w3.org/2000/svg">
  <sodipodi:namedview
     id="namedview1"
     pagecolor="#ffffff"
     bordercolor="#000000"
     borderopacity="0.25"
     inkscape:showpageshadow="2"
     inkscape:pageopacity="0.0"
     inkscape:pagecheckerboard="0"
     inkscape:deskcolor="#d1d1d1" />
  <defs
     id="defs1">
    <style
       id="current-color-scheme"
       type="text/css">.ColorScheme-Text {color:#d8dee9} .ColorScheme-Highlight {color:#3b4252}</style>
  </defs>
  <path
     style="fill:currentColor;stroke-width:1.2"
     class="ColorScheme-Text"
     d="m 18.000062,5.1000406 a 2.4,2.4 0 0 0 -2.4,2.4 2.4,2.4 0 0 0 2.4,2.4 2.4,2.4 0 0 0 2.4,-2.4 2.4,2.4 0 0 0 -2.4,-2.4 z M 12.063343,8.7023843 C 11.70819,8.6691081 11.286207,8.9051776 9.2274058,10.284415 7.3919397,11.513898 7.0232541,11.724818 6.7406871,11.716447 6.525597,11.710087 6.1185018,11.596765 4.7250621,11.153947 2.6699765,10.500855 2.1056607,10.348067 1.5703746,10.293791 c -0.3463276,-0.03512 -0.4304857,0.03739 -0.3328125,0.290624 0.2168321,0.56168 1.1679843,1.754369 2.3859374,2.990626 1.0843932,1.100683 1.9947023,1.854123 2.6109376,2.16328 0.3658389,0.18354 0.4999645,0.199232 0.88125,0.103126 0.4946373,-0.124634 1.4164459,-0.579341 2.5851558,-1.275 0.3971961,-0.236384 1.0014031,-0.595648 1.3429691,-0.799219 0.341566,-0.203572 0.695497,-0.400817 0.785156,-0.438281 0.14924,-0.06244 0.170622,-0.0659 0.27422,-0.02813 0.191745,0.06988 0.439192,0.208703 1.345311,0.754689 2.174361,1.310159 2.997055,1.72359 3.644532,1.830468 0.302543,0.04994 0.643673,-0.08067 1.171875,-0.447657 1.45987,-1.01427 3.960303,-3.68445 4.448437,-4.75078 0.169796,-0.370781 0.106881,-0.438885 -0.346875,-0.384375 -0.532267,0.06389 -1.072892,0.211649 -2.960156,0.813281 -1.431416,0.456265 -1.935427,0.597715 -2.151563,0.602344 -0.277805,0.006 -0.644921,-0.20607 -2.453906,-1.420313 -1.818858,-1.2208488 -2.407896,-1.5652153 -2.7375,-1.5960937 z"
     id="path1" />
</svg>
