<?xml version="1.0" encoding="UTF-8" standalone="no"?>
<svg
   width="24"
   height="24"
   version="1.1"
   id="svg1"
   sodipodi:docname="ferdium-tray.svg"
   xmlns:inkscape="http://www.inkscape.org/namespaces/inkscape"
   xmlns:sodipodi="http://sodipodi.sourceforge.net/DTD/sodipodi-0.dtd"
   xmlns="http://www.w3.org/2000/svg"
   xmlns:svg="http://www.w3.org/2000/svg">
  <sodipodi:namedview
     id="namedview1"
     pagecolor="#ffffff"
     bordercolor="#000000"
     borderopacity="0.25"
     inkscape:showpageshadow="2"
     inkscape:pageopacity="0.0"
     inkscape:pagecheckerboard="0"
     inkscape:deskcolor="#d1d1d1" />
  <defs
     id="defs1">
    <style
       id="current-color-scheme"
       type="text/css">.ColorScheme-Text {color:#d8dee9} .ColorScheme-Highlight {color:#3b4252}</style>
  </defs>
  <path
     style="fill:currentColor;stroke-width:1.2"
     class="ColorScheme-Text"
     d="M 12.077798,8.3033878 C 11.643724,8.2645658 11.12797,8.5399774 8.6116664,10.149072 6.3683287,11.583454 5.9177149,11.829524 5.5723566,11.819757 5.30947,11.812338 4.8119112,11.68013 3.1088252,11.163514 0.59706455,10.401582 -0.09265177,10.22333 -0.74688757,10.16001 -1.1701752,10.11903 -1.2730346,10.20364 -1.1536567,10.499068 c 0.26501577,0.655288 1.42753029,2.046741 2.9161334,3.489026 1.3253639,1.284118 2.4379593,2.163123 3.1911325,2.523802 0.4471347,0.214128 0.6110652,0.232436 1.0770789,0.120315 0.6045542,-0.145405 1.7312047,-0.675891 3.1596219,-1.487485 0.4854616,-0.275778 1.223933,-0.694914 1.6414,-0.932412 0.417467,-0.237498 0.850049,-0.467615 0.959632,-0.511323 0.182402,-0.07284 0.208538,-0.07688 0.335155,-0.03282 0.234355,0.08153 0.536789,0.243485 1.644263,0.880462 2.65754,1.528503 3.663052,2.010834 4.454409,2.135525 0.369773,0.05827 0.786708,-0.09413 1.432285,-0.522261 1.784279,-1.183299 4.84035,-4.298478 5.436956,-5.542518 0.207529,-0.432573 0.130635,-0.512025 -0.423956,-0.448433 -0.650546,0.07453 -1.311307,0.246922 -3.617954,0.948819 -1.749502,0.532304 -2.365512,0.697327 -2.629676,0.702727 -0.339538,0.007 -0.788234,-0.240413 -2.999207,-1.657014 C 13.200578,8.7411682 12.480646,8.3394118 12.077798,8.3033878 Z"
     id="path1" />
</svg>
