<?xml version="1.0" encoding="UTF-8" standalone="no"?>
<svg
   width="24"
   height="24"
   version="1"
   id="svg1"
   sodipodi:docname="firewall-applet-panic.svg"
   xmlns:inkscape="http://www.inkscape.org/namespaces/inkscape"
   xmlns:sodipodi="http://sodipodi.sourceforge.net/DTD/sodipodi-0.dtd"
   xmlns="http://www.w3.org/2000/svg"
   xmlns:svg="http://www.w3.org/2000/svg">
  <sodipodi:namedview
     id="namedview1"
     pagecolor="#ffffff"
     bordercolor="#000000"
     borderopacity="0.25"
     inkscape:showpageshadow="2"
     inkscape:pageopacity="0.0"
     inkscape:pagecheckerboard="0"
     inkscape:deskcolor="#d1d1d1" />
  <defs
     id="defs1">
    <style
       id="current-color-scheme"
       type="text/css">.ColorScheme-Text {color:#d8dee9} .ColorScheme-Highlight {color:#3b4252}</style>
  </defs>
  <g
     transform="matrix(.046206 0 0 .045375 3.8524 3.9989)"
     style=""
     id="g1">
    <path
       style="fill:currentColor;stroke-width:26.2075"
       class="ColorScheme-Text"
       d="M 174.3561,-34.923618 -1.4557188,17.607661 c -2.3996649,0.846298 -4.0072327,12.541073 -4.0072327,15.085255 0,62.734454 16.6028765,135.317694 45.5494845,199.028034 23.479839,51.67705 65.705117,120.59741 133.516427,155.53363 0.85702,0.42315 1.79195,0.66117 2.72689,0.66117 0.94324,0 1.87636,-0.22744 2.7391,-0.67148 67.79573,-34.92829 110.021,-103.85129 133.50343,-155.53099 28.957,-63.71034 45.55209,-136.304158 45.55209,-199.028034 0,-2.544182 -1.61017,-14.238957 -3.99945,-15.085254 l -175.8196,-52.531279 c -1.29125,-0.456022 -2.66535,-0.456022 -3.95633,0 z m 0.81157,79.237258 c 0.73782,-0.256534 1.54472,-0.256534 2.28254,0 l 100.48208,34.867461 c 1.37643,0.476042 2.28539,1.719042 2.28539,3.149814 0,35.282675 -9.48127,76.095375 -26.02234,111.933435 -13.41942,29.06768 -37.548,67.85456 -76.28805,87.50188 -0.46747,0.26447 -1.01284,0.37026 -1.55822,0.37026 -0.54538,0 -1.09076,-0.10579 -1.5842,-0.37026 -38.72966,-19.62352 -62.85875,-58.42098 -76.275063,-87.48601 -16.543144,-35.83541 -26.02234,-76.65341 -26.02234,-111.941371 0,-1.430772 0.911561,-2.673772 2.282798,-3.149814 L 175.1804,44.321574 Z M 150.36594,70.554155 V 176.34135 h 51.9408 V 70.554155 Z m 0,132.233995 v 52.8936 h 51.9408 v -52.8936 z"
       id="path1" />
  </g>
</svg>
