<?xml version="1.0" encoding="UTF-8" standalone="no"?>
<svg
   width="24"
   height="24"
   version="1"
   id="svg1"
   sodipodi:docname="firewall-applet.svg"
   xmlns:inkscape="http://www.inkscape.org/namespaces/inkscape"
   xmlns:sodipodi="http://sodipodi.sourceforge.net/DTD/sodipodi-0.dtd"
   xmlns="http://www.w3.org/2000/svg"
   xmlns:svg="http://www.w3.org/2000/svg">
  <sodipodi:namedview
     id="namedview1"
     pagecolor="#ffffff"
     bordercolor="#000000"
     borderopacity="0.25"
     inkscape:showpageshadow="2"
     inkscape:pageopacity="0.0"
     inkscape:pagecheckerboard="0"
     inkscape:deskcolor="#d1d1d1" />
  <defs
     id="defs1">
    <style
       id="current-color-scheme"
       type="text/css">.ColorScheme-Text {color:#d8dee9} .ColorScheme-Highlight {color:#3b4252}</style>
  </defs>
  <g
     transform="matrix(.046206 0 0 .045375 3.8524 3.9993)"
     style=""
     id="g1">
    <path
       style="fill:currentColor;stroke-width:26.2081"
       class="ColorScheme-Text"
       d="M 174.35186,-34.903974 -1.4547673,17.629688 C -3.8544322,18.476024 -5.462,30.168685 -5.462,32.712982 c 0,62.734656 16.602877,135.270938 45.549485,198.986818 23.479838,51.67939 65.705115,120.60288 133.503435,155.54069 0.86482,0.42317 1.79715,0.6612 2.73988,0.6612 0.94273,0 1.87506,-0.23803 2.73988,-0.6612 67.79573,-34.93781 110.0236,-103.8613 133.50084,-155.54069 28.95699,-63.72117 45.55208,-136.260096 45.55208,-198.986818 0,-2.544297 -1.61016,-14.236958 -3.99944,-15.083294 L 178.30974,-34.903974 c -1.29119,-0.456017 -2.66534,-0.456017 -3.95633,0 z m 0.81157,79.187956 c 0.73782,-0.256545 1.54475,-0.256545 2.28256,0 l 100.48208,34.869044 c 1.37643,0.476064 2.28539,1.71912 2.28539,3.149956 0,35.284278 -9.47919,76.101478 -26.02234,111.938518 -13.42669,29.06899 -37.548,67.84705 -76.28805,87.49792 -0.49084,0.26448 -1.03102,0.37027 -1.57121,0.37027 -0.54018,0 -1.08036,-0.10579 -1.5712,-0.37027 C 136.01801,262.115 111.88891,223.31578 98.472606,194.2415 81.929461,158.4071 72.450265,117.59255 72.450265,82.302982 c 0,-1.430836 0.911561,-2.673892 2.282798,-3.149956 L 175.16579,44.283982 Z"
       id="path1" />
  </g>
</svg>
