<?xml version="1.0" encoding="UTF-8" standalone="no"?>
<svg
   width="24"
   height="24"
   version="1.1"
   id="svg3"
   sodipodi:docname="flameshot-tray.svg"
   xmlns:inkscape="http://www.inkscape.org/namespaces/inkscape"
   xmlns:sodipodi="http://sodipodi.sourceforge.net/DTD/sodipodi-0.dtd"
   xmlns="http://www.w3.org/2000/svg"
   xmlns:svg="http://www.w3.org/2000/svg">
  <sodipodi:namedview
     id="namedview3"
     pagecolor="#ffffff"
     bordercolor="#000000"
     borderopacity="0.25"
     inkscape:showpageshadow="2"
     inkscape:pageopacity="0.0"
     inkscape:pagecheckerboard="0"
     inkscape:deskcolor="#d1d1d1" />
  <defs
     id="defs1">
    <style
       id="current-color-scheme"
       type="text/css">.ColorScheme-Text {color:#d8dee9} .ColorScheme-Highlight {color:#3b4252}</style>
  </defs>
  <g
     transform="translate(1,1)"
     style=""
     id="g3">
    <path
       class="ColorScheme-Text"
       d="m 21.7044,2.7 c 0,0 -0.2424,2.58252 -4.8252,4.62888 -0.042,1.1004 -0.1968,2.2086 -0.5796,3.26232 -0.63,1.7364 -1.9176,3.3192 -3.9636,4.1304 C 9.0319202,16.0308 7.4318402,17.6748 6.6036002,19.0428 7.9855202,18.0444 10.2372,17.0808 13.9392,16.7088 20.9484,16.0056 21.7044,2.7 21.7044,2.7 Z"
       style="opacity:0.35;fill:currentColor;stroke-width:1.2"
       id="path1" />
    <path
       class="ColorScheme-Text"
       d="m 14.1948,-0.9 c 0,0 0.5076,3.86232 -3.8904,7.2024 0.3624,1.02168 0.612,2.12892 0.6,3.28116 -0.0156,1.57044 -0.5652,3.23484 -1.8914398,4.58724 -0.89232,0.9084 -1.551,1.7484 -2.04132,2.5092 1.09056,-1.086 2.65044,-2.1744 4.9215598,-3.0744 C 18.8124,10.8636 14.1948,-0.9 14.1948,-0.9 Z"
       style="fill:currentColor;stroke-width:1.2"
       id="path2" />
    <path
       class="ColorScheme-Text"
       d="M 2.1216002,11.7012 C 7.2170402,5.7048 6.0710402,1.5 6.0710402,1.5 c 0,0 6.5265598,7.3044 2.0856,11.8296 -4.96224,5.0544 -3.582,8.5704 -3.582,8.5704 0,0 -5.37503998,-6.7596 -2.45304,-10.1988 z"
       style="fill:currentColor;stroke-width:1.2"
       id="path3" />
  </g>
</svg>
