<?xml version="1.0" encoding="UTF-8" standalone="no"?>
<svg
   width="24"
   height="24"
   version="1.1"
   id="svg2"
   sodipodi:docname="fluxgui-light.svg"
   xmlns:inkscape="http://www.inkscape.org/namespaces/inkscape"
   xmlns:sodipodi="http://sodipodi.sourceforge.net/DTD/sodipodi-0.dtd"
   xmlns="http://www.w3.org/2000/svg"
   xmlns:svg="http://www.w3.org/2000/svg">
  <sodipodi:namedview
     id="namedview2"
     pagecolor="#ffffff"
     bordercolor="#000000"
     borderopacity="0.25"
     inkscape:showpageshadow="2"
     inkscape:pageopacity="0.0"
     inkscape:pagecheckerboard="0"
     inkscape:deskcolor="#d1d1d1" />
  <defs
     id="defs1">
    <style
       id="current-color-scheme"
       type="text/css">.ColorScheme-Text {color:#d8dee9} .ColorScheme-Highlight {color:#3b4252}</style>
  </defs>
  <g
     transform="translate(-593 -955.36)"
     style=""
     id="g2">
    <path
       style="fill:currentColor;stroke-width:1.2"
       class="ColorScheme-Text"
       d="m 608,961.35981 a 1.8,1.8 0 0 0 -1.8,1.8 1.8,1.8 0 0 0 1.8,1.8 1.8,1.8 0 0 0 1.8,-1.8 1.8,1.8 0 0 0 -1.8,-1.8 z m -5.13048,7.24452 c -0.81602,-0.0209 -1.6938,0.14493 -2.70708,0.5578 -1.09311,0.4454 -2.35512,1.23108 -3.79692,2.3766 1.60092,3.3132 4.95468,5.4198 8.63436,5.4234 2.79084,-10e-4 5.44296,-1.21704 7.26564,-3.33048 -2.88528,-1.61496 -4.98072,-3.5694 -7.06404,-4.46952 -0.76172,-0.32912 -1.51608,-0.53688 -2.33208,-0.5578 z"
       id="path1" />
    <path
       opacity="0.35"
       style="fill:currentColor;stroke-width:1.2"
       class="ColorScheme-Text"
       d="m 605,957.75981 c -5.30196,0 -9.6,4.29804 -9.6,9.6 0.004,1.019 0.17008,2.03088 0.4922,2.9976 1.39968,-1.08627 2.65416,-1.8354 3.81564,-2.30856 1.1425,-0.46553 2.20068,-0.65038 3.18984,-0.62578 0.98912,0.0246 1.91088,0.25972 2.77968,0.63515 2.41956,1.04545 4.52736,3.0222 7.32888,4.58904 1.03766,-1.5684 1.5918,-3.40692 1.59372,-5.28744 0,-5.30196 -4.29804,-9.6 -9.6,-9.6 z m 3,2.3976 a 3,3 0 0 1 3,3 3,3 0 0 1 -3,3 3,3 0 0 1 -3,-3 3,3 0 0 1 3,-3 z"
       id="path2" />
  </g>
</svg>
