<?xml version="1.0" encoding="UTF-8" standalone="no"?>
<svg
   width="24"
   height="24"
   version="1.1"
   id="svg1"
   sodipodi:docname="franz-panel.svg"
   xmlns:inkscape="http://www.inkscape.org/namespaces/inkscape"
   xmlns:sodipodi="http://sodipodi.sourceforge.net/DTD/sodipodi-0.dtd"
   xmlns="http://www.w3.org/2000/svg"
   xmlns:svg="http://www.w3.org/2000/svg">
  <sodipodi:namedview
     id="namedview1"
     pagecolor="#ffffff"
     bordercolor="#000000"
     borderopacity="0.25"
     inkscape:showpageshadow="2"
     inkscape:pageopacity="0.0"
     inkscape:pagecheckerboard="0"
     inkscape:deskcolor="#d1d1d1" />
  <defs
     id="defs1">
    <style
       id="current-color-scheme"
       type="text/css">.ColorScheme-Text {color:#d8dee9} .ColorScheme-Highlight {color:#3b4252}</style>
  </defs>
  <path
     fill-rule="evenodd"
     style="fill:currentColor;stroke-width:1.2"
     class="ColorScheme-Text"
     d="m 9.1030572,9.200072 c -0.705168,0 -1.51944,1.32324 -2.38128,2.7234 -0.160908,0.260568 -0.317568,0.514116 -0.468744,0.75 -0.485952,0.847548 -1.141404,2.17512 -1.7742,2.52888 -0.53022,0.292116 -1.104144,0.482808 -1.56096,0.482808 -0.308844,0 -0.431484,-0.09444 -0.461724,-0.121872 -0.21048,-0.1992 -0.46392,-0.3636 -0.65616,-0.3636 -0.27216,0 -0.6,0 -0.6,0.6 0,1.8 3.67956,2.8716 5.31096,2.9808 0.22788,0.0132 0.4608,0.0192 0.6984,0.0192 h 0.058594 c 1.75584,-0.03017 3.3356398,-0.841044 4.2351598,-2.16996 0.184656,-0.271548 0.450444,-0.229692 0.496872,-0.229692 0.04644,0 0.312216,-0.04186 0.496872,0.229692 0.899544,1.32888 2.4792,2.13984 4.23516,2.16996 h 0.0586 c 0.237576,0 0.47058,-0.0064 0.698436,-0.01876 1.632,-0.1092 5.3112,-1.1808 5.3112,-2.9808 0,-0.6 -0.3276,-0.6 -0.6,-0.6 -0.192216,0 -0.445668,0.164424 -0.656256,0.363276 -0.03024,0.02743 -0.152868,0.121872 -0.461724,0.121872 -0.456792,0 -1.030716,-0.190704 -1.56096,-0.482808 -0.63282,-0.353832 -1.28832,-1.68132 -1.7742,-2.52888 -0.151188,-0.235884 -0.307848,-0.489432 -0.468744,-0.75 -0.8616,-1.4004 -1.6752,-2.724 -2.3808,-2.724 -0.5004,0 -1.08,0.3576 -1.638,0.7032 -0.4656,0.288 -0.9456,0.4968 -1.2588,0.4968 -0.3132,0 -0.7932,-0.2088 -1.2588,-0.4968 -0.558,-0.3456 -1.1375998,-0.7032 -1.6381198,-0.7032 z"
     id="path1" />
</svg>
