<?xml version="1.0" encoding="UTF-8" standalone="no"?>
<svg
   width="24"
   height="24"
   version="1.1"
   id="svg1"
   sodipodi:docname="freezer-panel.svg"
   xmlns:inkscape="http://www.inkscape.org/namespaces/inkscape"
   xmlns:sodipodi="http://sodipodi.sourceforge.net/DTD/sodipodi-0.dtd"
   xmlns="http://www.w3.org/2000/svg"
   xmlns:svg="http://www.w3.org/2000/svg">
  <sodipodi:namedview
     id="namedview1"
     pagecolor="#ffffff"
     bordercolor="#000000"
     borderopacity="0.25"
     inkscape:showpageshadow="2"
     inkscape:pageopacity="0.0"
     inkscape:pagecheckerboard="0"
     inkscape:deskcolor="#d1d1d1" />
  <defs
     id="defs1">
    <style
       id="current-color-scheme"
       type="text/css">.ColorScheme-Text {color:#d8dee9} .ColorScheme-Highlight {color:#3b4252}</style>
  </defs>
  <path
     style="fill:currentColor;stroke-width:1.2"
     class="ColorScheme-Text"
     d="M 7.3132813,3.5000001 C 6.5297671,3.5000001 5.9,4.1413026 5.9,4.9390627 V 6.5000001 9.5 H 19.1 V 6.5000001 4.9390627 c 0,-0.7977604 -0.629767,-1.4390626 -1.413281,-1.4390626 z m 1.5867187,1.2 a 0.6,0.6 0 0 1 0.6,0.6 v 2.3999998 a 0.6,0.6 0 0 1 -0.6,0.6 0.6,0.6 0 0 1 -0.6,-0.6 V 5.3000001 a 0.6,0.6 0 0 1 0.6,-0.6 z M 5.9,10.7 v 3.6 3.6 0.960938 c 0,0.722908 0.5197868,1.314986 1.2,1.420312 V 20.9 c 0,0.3324 0.2676,0.6 0.6,0.6 h 1.2 c 0.3324,0 0.6,-0.2676 0.6,-0.6 v -0.6 h 6 v 0.6 c 0,0.3324 0.2676,0.6 0.6,0.6 h 1.2 c 0.3324,0 0.6,-0.2676 0.6,-0.6 v -0.61875 c 0.680213,-0.105324 1.2,-0.697404 1.2,-1.420312 V 17.9 14.3 10.7 Z m 3,1.2 a 0.6,0.6 0 0 1 0.6,0.6 v 2.4 A 0.6,0.6 0 0 1 8.9,15.5 0.6,0.6 0 0 1 8.3,14.9 v -2.4 a 0.6,0.6 0 0 1 0.6,-0.6 z"
     id="path1" />
</svg>
