<?xml version="1.0" encoding="UTF-8" standalone="no"?>
<svg
   width="24"
   height="24"
   version="1.1"
   id="svg1"
   sodipodi:docname="gammastep-status-off.svg"
   xmlns:inkscape="http://www.inkscape.org/namespaces/inkscape"
   xmlns:sodipodi="http://sodipodi.sourceforge.net/DTD/sodipodi-0.dtd"
   xmlns="http://www.w3.org/2000/svg"
   xmlns:svg="http://www.w3.org/2000/svg">
  <sodipodi:namedview
     id="namedview1"
     pagecolor="#ffffff"
     bordercolor="#000000"
     borderopacity="0.25"
     inkscape:showpageshadow="2"
     inkscape:pageopacity="0.0"
     inkscape:pagecheckerboard="0"
     inkscape:deskcolor="#d1d1d1" />
  <defs
     id="defs1">
    <style
       id="current-color-scheme"
       type="text/css">.ColorScheme-Text {color:#d8dee9} .ColorScheme-Highlight {color:#3b4252}</style>
  </defs>
  <path
     style="opacity:0.35;fill:currentColor;stroke-width:1.2"
     class="ColorScheme-Text"
     d="M 12,2.4 C 8.6937144,2.4 6,5.1606787 6,8.5617192 6,10.296055 6.622965,11.303641 7.228125,11.992969 7.5307055,12.337657 7.8265428,12.608756 8.0320313,12.853126 8.2375188,13.097588 8.4,14.494645 8.4,14.730469 c 0,2.069194 1.2,3.269194 3.6,3.267187 2.4,0.002 3.6,-1.197993 3.6,-3.267187 0,-0.265776 0.299731,-1.650929 0.489844,-1.877343 0.190108,-0.22637 0.466282,-0.471676 0.752343,-0.796876 C 17.41431,11.405754 18,10.415479 18,8.5617192 18,5.1606787 15.306286,2.4 12,2.4 Z m 0,2.4 c 1.97032,0 3.6,1.6279214 3.6,3.7617192 0,1.3482444 -0.24932,1.5567398 -0.560156,1.9101568 -0.175425,0.199426 -0.410376,0.387666 -0.7875,0.836718 v 0.0024 c -0.622936,0.74189 -0.510833,0.878752 -0.597657,1.141406 -0.08682,0.262654 -0.153059,0.510488 -0.213281,0.759376 -0.06022,0.248887 -0.111396,0.489766 -0.152343,0.714843 -0.04094,0.224964 -0.08906,0.286302 -0.08906,0.80385 0,0.570648 -0.09882,0.619361 -0.135937,0.653905 -0.03712,0.03455 -0.262054,0.213951 -1.061719,0.213282 H 12 11.9976 C 11.198047,15.598325 10.973057,15.418921 10.935937,15.384374 10.898818,15.349831 10.8,15.301117 10.8,14.730469 c 0,-0.669107 -0.05644,-0.814241 -0.138281,-1.319532 -0.04092,-0.252645 -0.08878,-0.513129 -0.164063,-0.801563 -0.01758,-0.06733 -0.03353,-0.146071 -0.04219,-0.21328 l 0.560157,1.839843 c 0.04182,0.130993 0.167503,0.217071 0.292968,0.173437 0.125462,-0.04368 0.208226,-0.173743 0.166406,-0.304687 L 10.061714,9.4570308 c 0.308302,0.1844808 0.731309,0.3968796 1.244531,0.5179692 0.787751,0.185822 1.751782,0.125459 2.5875,-0.4148436 l -1.366406,4.4929696 c -0.04182,0.130989 0.04094,0.261007 0.166406,0.304687 0.125464,0.04368 0.251149,-0.04249 0.292969,-0.173439 l 1.546875,-5.0882804 c 0.01507,-0.047208 -4.55e-4,-0.09048 -0.01406,-0.1335936 0.0035,-0.027552 0.01044,-0.05394 0.0047,-0.082032 -0.01879,-0.091632 -0.08646,-0.164412 -0.173439,-0.1875 -0.08698,-0.02304 -0.178326,0.006 -0.236718,0.07734 C 13.33154,9.567252 12.291673,9.7126056 11.407016,9.5039016 10.52237,9.2951976 9.839058,8.732808 9.839058,8.732808 9.791142,8.699688 9.73443,8.684808 9.6773388,8.692968 9.5786856,8.710728 9.499718,8.791524 9.4828078,8.8945296 c -0.00362,0.022092 0.00734,0.041712 0.00937,0.063276 -0.033934,0.055668 -0.045072,0.1244196 -0.023435,0.1921884 l 0.8695312,2.854687 C 10.258858,11.831774 10.13481,11.62419 9.8695308,11.308594 9.496509,10.864993 9.2353312,10.639296 9.0328126,10.408594 8.65388,9.9769584 8.4,9.7213428 8.4,8.5617192 8.4,6.4279214 10.02968,4.8 12,4.8 Z m 2.034374,14.08125 C 13.417874,19.093422 12.7341,19.19827 12,19.197656 c -0.718499,6e-4 -1.390469,-0.09706 -1.996874,-0.3 -0.2510812,0.24556 -0.4175962,0.499121 -0.4007824,0.733594 0.01794,0.250235 0.2226468,0.427567 0.5320324,0.539063 1.993938,0.220389 3.235394,-0.700936 3.899998,-1.289063 z M 14.1,19.054687 c -0.05996,0.08718 -0.131688,0.174881 -0.241406,0.257813 -1.090893,0.82515 -2.434626,1.065866 -3.717188,0.8625 0.160138,0.05668 0.339098,0.09938 0.553125,0.11484 0.02839,0.0073 0.0751,0.0097 0.105468,0.0164 V 20.5125 C 10.8,21.088494 11.364707,21.6 12,21.6 c 0.635294,0 1.2,-0.511506 1.2,-1.0875 v -0.217969 c 0.701597,-0.121392 1.147548,-0.344499 1.195313,-0.660937 C 14.426561,19.426516 14.311757,19.22846 14.1,19.054687 Z"
     id="path1" />
</svg>
