<?xml version="1.0" encoding="UTF-8" standalone="no"?>
<svg
   width="24"
   height="24"
   version="1.1"
   id="svg1"
   sodipodi:docname="gdlauncher-tray.svg"
   xmlns:inkscape="http://www.inkscape.org/namespaces/inkscape"
   xmlns:sodipodi="http://sodipodi.sourceforge.net/DTD/sodipodi-0.dtd"
   xmlns="http://www.w3.org/2000/svg"
   xmlns:svg="http://www.w3.org/2000/svg">
  <sodipodi:namedview
     id="namedview1"
     pagecolor="#ffffff"
     bordercolor="#000000"
     borderopacity="0.25"
     inkscape:showpageshadow="2"
     inkscape:pageopacity="0.0"
     inkscape:pagecheckerboard="0"
     inkscape:deskcolor="#d1d1d1" />
  <defs
     id="defs1">
    <style
       id="current-color-scheme"
       type="text/css">.ColorScheme-Text {color:#d8dee9} .ColorScheme-Highlight {color:#3b4252}</style>
  </defs>
  <path
     style="fill:currentColor;stroke-width:1.2"
     class="ColorScheme-Text"
     d="m 12.049218,2.4006577 a 2.1306488,2.1828943 0 0 0 -1.115624,0.290613 L 4.6664064,6.4012736 A 2.1306488,2.1828943 0 0 0 3.6,8.292602 v 7.415319 a 2.1306488,2.1828943 0 0 0 1.0664064,1.891328 l 6.2671876,3.707658 a 2.1306488,2.1828943 0 0 0 2.132812,0 l 6.267188,-3.707658 A 2.1306488,2.1828943 0 0 0 20.4,15.707921 V 8.292602 A 2.1306488,2.1828943 0 0 0 19.333594,6.4012736 L 13.066406,2.6912707 A 2.1306488,2.1828943 0 0 0 12.049218,2.4006577 Z M 8.4468744,8.4027539 c 0.1496256,-0.00312 0.3042984,-0.00144 0.4078128,0.00708 1.0561092,0.08688 2.1325828,0.5408304 2.9671868,1.2515089 0.111996,0.0954 0.149578,0.119532 0.178126,0.119532 0.02852,0 0.06613,-0.024156 0.178124,-0.119532 0.834581,-0.7106917 1.913423,-1.1646241 2.969532,-1.2515113 0.207027,-0.017028 0.613665,-0.00876 0.7875,0.016404 1.327341,0.192066 2.063753,1.0831932 2.064844,2.5006785 3.1e-4,0.356483 -0.03538,0.603917 -0.13125,0.911681 -0.240811,0.773027 -0.784696,1.456955 -1.6125,2.024916 -0.276751,0.189876 -0.645053,0.394589 -0.942187,0.524979 -0.02684,0.01176 -0.02531,0.01396 -0.04687,0.02344 0.0017,0.04189 0.0047,0.07705 0.0047,0.121868 2e-6,1.145353 -0.525138,2.157794 -1.333594,2.788948 -0.02862,0.0232 -0.05726,0.04586 -0.08672,0.06797 -0.01987,0.01446 -0.04075,0.02816 -0.06094,0.04218 -0.387401,0.276062 -0.839624,0.463507 -1.338281,0.541383 -0.0036,6e-4 -0.0098,-0.0078 -0.01406,-0.0094 -0.143612,0.0204 -0.289396,0.03516 -0.438282,0.03516 -0.08995,0 -0.179059,-0.0065 -0.267187,-0.01406 -0.0012,0.0044 -0.0012,0.0048 -0.0024,0.0094 -4.8e-4,0 -0.0042,-0.0089 -0.0047,-0.0094 -1.679046,-0.147704 -2.9976562,-1.635705 -2.9976562,-3.452201 0,-0.0452 0.00312,-0.082 0.00468,-0.124213 -0.020808,-0.0091 -0.0189,-0.0098 -0.044532,-0.0211 C 8.2879248,14.21283 7.8560892,13.956215 7.499934,13.683046 6.6441048,13.026614 6.1485288,12.24117 6.0210276,11.339392 c -0.028104,-0.198683 -0.028044,-0.621857 0,-0.829653 C 6.1271916,9.7232256 6.4486308,9.1623935 7.0007148,8.8035587 7.2965904,8.6112503 7.6479924,8.4865403 8.0647776,8.4262307 8.1516936,8.4136787 8.297184,8.4059987 8.4468084,8.4027947 Z M 9.199218,10.816716 c -0.078792,0.0032 -0.1616736,0.0129 -0.225,0.03047 -0.3151932,0.08748 -0.5343744,0.25913 -0.5343744,0.419514 0,0.06487 0.022932,0.109008 0.084372,0.166399 0.070872,0.06622 0.1854888,0.116196 0.4382808,0.194524 0.1273824,0.03947 0.2931348,0.09782 0.3679692,0.128901 0.32817,0.1362 0.62043,0.33185 0.8789064,0.585914 0.09262,0.09104 0.105924,0.09844 0.147656,0.09844 0.03269,0 0.054,-0.0078 0.075,-0.02813 0.03553,-0.03437 0.03786,-0.08208 0.01176,-0.260146 C 10.366608,11.627187 10.161989,11.265416 9.8086272,11.034677 9.6838764,10.953217 9.4862232,10.854458 9.4008144,10.83078 9.3538704,10.81777 9.278046,10.81346 9.1992516,10.81672 Z m 5.674219,0.0047 c -0.104292,-0.01278 -0.201206,-0.0102 -0.271874,0.0094 -0.0854,0.02368 -0.28306,0.122438 -0.407813,0.203898 -0.353362,0.230737 -0.560316,0.592508 -0.6375,1.117922 -0.02611,0.178067 -0.02381,0.22577 0.01176,0.260146 0.021,0.02032 0.04232,0.02813 0.075,0.02813 0.04172,0 0.05502,-0.0073 0.147656,-0.09844 0.137693,-0.135342 0.293405,-0.26082 0.442964,-0.356237 0.252061,-0.160817 0.441535,-0.246258 0.803906,-0.358578 0.318959,-0.09886 0.444635,-0.166808 0.501563,-0.271863 0.02596,-0.04787 0.02452,-0.132764 -0.0047,-0.187493 -0.04878,-0.09133 -0.195323,-0.203103 -0.346875,-0.264833 -0.0992,-0.04039 -0.20977,-0.06924 -0.314062,-0.08203 z m -3.625781,3.213144 c -0.05966,0 -0.07646,0.01656 -0.124219,0.11718 -0.09488,0.199898 -0.196291,0.525247 -0.229687,0.740594 -0.0463,0.2983 0.0025,0.662879 0.09844,0.735909 0.07204,0.05483 0.140081,0.01568 0.250781,-0.145307 0.242349,-0.352451 0.289875,-0.811284 0.135938,-1.298384 -0.03941,-0.124676 -0.06019,-0.149994 -0.13125,-0.149994 z m 1.502344,0 c -0.02572,6.46e-4 -0.04966,0.0079 -0.06563,0.01874 -0.01811,0.01228 -0.03892,0.0542 -0.06328,0.131245 -0.153938,0.487101 -0.106404,0.945934 0.135937,1.298385 0.03658,0.05318 0.08676,0.111348 0.11016,0.131244 0.07788,0.06617 0.153975,0.03838 0.196876,-0.07265 0.08326,-0.215639 0.08134,-0.550636 -0.0047,-0.878871 -0.06205,-0.236774 -0.196884,-0.581607 -0.241404,-0.614042 -0.0138,-0.01008 -0.04225,-0.0147 -0.06797,-0.01406 z"
     id="path1" />
</svg>
