<?xml version="1.0" encoding="UTF-8" standalone="no"?>
<svg
   width="24"
   height="24"
   version="1.1"
   id="svg1"
   sodipodi:docname="gitlab-tray.svg"
   xmlns:inkscape="http://www.inkscape.org/namespaces/inkscape"
   xmlns:sodipodi="http://sodipodi.sourceforge.net/DTD/sodipodi-0.dtd"
   xmlns="http://www.w3.org/2000/svg"
   xmlns:svg="http://www.w3.org/2000/svg">
  <sodipodi:namedview
     id="namedview1"
     pagecolor="#ffffff"
     bordercolor="#000000"
     borderopacity="0.25"
     inkscape:showpageshadow="2"
     inkscape:pageopacity="0.0"
     inkscape:pagecheckerboard="0"
     inkscape:deskcolor="#d1d1d1" />
  <defs
     id="defs1">
    <style
       id="current-color-scheme"
       type="text/css">.ColorScheme-Text {color:#d8dee9} .ColorScheme-Highlight {color:#3b4252}</style>
  </defs>
  <path
     style="fill:currentColor;stroke-width:1.2"
     class="ColorScheme-Text"
     d="m 5.2360325,2.4001904 c -0.1649664,0 -0.330132,0.09132 -0.3917352,0.2743392 L 2.6462201,9.6 h 5.376156 L 5.6277677,2.6745296 C 5.5661357,2.4915092 5.4009989,2.4001904 5.2360325,2.4001904 Z M 8.0223761,9.6 12,21.6 15.977624,9.6 Z m 7.9552479,0 H 21.35378 L 19.155704,2.6745296 c -0.123207,-0.3660396 -0.660205,-0.3660396 -0.78347,0 z M 21.35378,9.6 12,21.6 22.460346,14.265863 c 0.288628,-0.202285 0.409552,-0.560763 0.299327,-0.88815 z M 12,21.6 2.6462201,9.6 1.2403277,13.377713 c -0.11022,0.327387 0.01068,0.685865 0.2993268,0.88815 z"
     id="path1" />
</svg>
