<?xml version="1.0" encoding="UTF-8" standalone="no"?>
<svg
   width="24"
   height="24"
   version="1.1"
   id="svg1"
   sodipodi:docname="glipper.svg"
   xmlns:inkscape="http://www.inkscape.org/namespaces/inkscape"
   xmlns:sodipodi="http://sodipodi.sourceforge.net/DTD/sodipodi-0.dtd"
   xmlns="http://www.w3.org/2000/svg"
   xmlns:svg="http://www.w3.org/2000/svg">
  <sodipodi:namedview
     id="namedview1"
     pagecolor="#ffffff"
     bordercolor="#000000"
     borderopacity="0.25"
     inkscape:showpageshadow="2"
     inkscape:pageopacity="0.0"
     inkscape:pagecheckerboard="0"
     inkscape:deskcolor="#d1d1d1" />
  <defs
     id="defs1">
    <style
       id="current-color-scheme"
       type="text/css">.ColorScheme-Text {color:#d8dee9} .ColorScheme-Highlight {color:#3b4252}</style>
  </defs>
  <g
     style=""
     id="g1">
    <path
       style="fill:currentColor;stroke-width:1.2"
       class="ColorScheme-Text"
       d="m 18.824155,3.80272 -0.5064,-0.42492 c -0.75264,-0.63084 -1.70064,-0.97824 -2.6694,-0.97824 -1.29204,0 -2.49756,0.59448 -3.30732,1.63092 l -7.7941202,9.97548 c -0.714072,0.91368 -1.040988,2.06088 -0.92196,3.23004 0.119028,1.16904 0.669756,2.22024 1.552212,2.95992 l 0.50694,0.42492 c 0.75252,0.6324 1.7004,0.9792 2.66904,0.9792 0.149556,0 0.30084,-0.012 0.449652,-0.024 1.121976,-0.12252 2.1322802,-0.68712 2.8417202,-1.5864 0.0024,0 0.0037,0 5.25852,-6.72912 0.935844,-1.19796 0.756264,-2.96124 -0.400212,-3.9306 l -0.2652,-0.222 c -0.4788,-0.40056 -1.08,-0.62112 -1.6956,-0.62112 -0.820344,0 -1.58568,0.37752 -2.1,1.0356 l -5.2483202,6.71712 c -0.342936,0.43908 -0.277164,1.08528 0.146724,1.44048 0.175416,0.147 0.396144,0.228 0.621492,0.228 0.300204,0 0.580596,-0.13836 0.769368,-0.37992 l 5.2479602,-6.7176 c 0.137292,-0.17568 0.341796,-0.27636 0.560988,-0.27636 0.166584,0 0.32298,0.0576 0.45234,0.16572 l 0.265752,0.22284 c 0.149304,0.12504 0.242616,0.30324 0.262824,0.50184 0.02015,0.19848 -0.0352,0.393 -0.15606,0.54744 l -5.24244,6.7098 c -0.4328762,0.55368 -1.0772522,0.8712 -1.7679602,0.8712 -0.5178,0 -1.024488,-0.18564 -1.4268,-0.52284 l -0.50694,-0.4248 c -0.47016,-0.3936 -0.76512,-0.9552 -0.8286,-1.5804 -0.06372,-0.6252 0.11148,-1.2384 0.4932,-1.7268 L 13.880635,5.3224 c 0.432876,-0.55404 1.077456,-0.8718 1.76844,-0.8718 0.51786,0 1.024596,0.18564 1.4268,0.52284 l 0.50688,0.4248 c 0.973812,0.81624 1.124952,2.30076 0.336984,3.30924 -0.166176,0.21276 -0.242424,0.47964 -0.214728,0.75168 0.02774,0.27204 0.156108,0.51672 0.361356,0.6888 0.175464,0.147 0.396192,0.228 0.621552,0.228 0.300204,0 0.580548,-0.13848 0.76926,-0.37992 0.713028,-0.91248 1.040076,-2.05968 0.919926,-3.23172 -0.12015,-1.17204 -0.67095,-2.22336 -1.55295,-2.9616 z"
       id="path1" />
  </g>
</svg>
