<?xml version="1.0" encoding="UTF-8" standalone="no"?>
<svg
   width="24"
   height="24"
   version="1.1"
   id="svg2"
   sodipodi:docname="gmail-tray.svg"
   xmlns:inkscape="http://www.inkscape.org/namespaces/inkscape"
   xmlns:sodipodi="http://sodipodi.sourceforge.net/DTD/sodipodi-0.dtd"
   xmlns="http://www.w3.org/2000/svg"
   xmlns:svg="http://www.w3.org/2000/svg">
  <sodipodi:namedview
     id="namedview2"
     pagecolor="#ffffff"
     bordercolor="#000000"
     borderopacity="0.25"
     inkscape:showpageshadow="2"
     inkscape:pageopacity="0.0"
     inkscape:pagecheckerboard="0"
     inkscape:deskcolor="#d1d1d1" />
  <defs
     id="defs1">
    <style
       id="current-color-scheme"
       type="text/css">.ColorScheme-Text {color:#d8dee9} .ColorScheme-Highlight {color:#3b4252}</style>
  </defs>
  <path
     style="opacity:0.35;fill:currentColor;stroke-width:1.2"
     class="ColorScheme-Text"
     d="M 6.0492187,4.7996286 12.007031,9.053535 17.9625,4.7996286 Z M 6,10.65666 v 8.542969 h 12 v -8.53125 l -4.596094,3.283594 c -0.830809,0.593608 -1.960597,0.593608 -2.791406,0 z"
     id="path1" />
  <path
     style="fill:currentColor;stroke-width:1.2"
     class="ColorScheme-Text"
     d="M 3.6445313,4.8 A 1.199015,1.1984486 0 0 0 2.4023437,6.0492187 C 2.4022976,6.0524868 2.4,6.0820313 2.4,6.0820313 V 18.007031 C 2.4,18.662867 2.927949,19.207416 3.590625,19.2 H 4.8 V 8.3273437 l 6.510937,4.6476573 a 1.199015,1.1984486 0 0 0 1.394532,0 L 19.2,8.3390626 V 19.2 h 1.176563 C 21.068963,19.198801 21.6,18.66435 21.6,18.01875 V 5.9882813 c 0,-0.00418 -0.0023,-0.00756 -0.0024,-0.011724 A 1.2001496,1.1995827 0 0 0 21.51088,5.5593697 C 21.50238,5.5377507 21.4949,5.5170577 21.4851,5.4960887 A 1.2001496,1.1995827 0 0 0 21.269531,5.184375 C 21.249421,5.163087 21.230191,5.143213 21.208591,5.123438 A 1.2001496,1.1995827 0 0 0 20.917969,4.9289063 c -0.03943,-0.019163 -0.07793,-0.034372 -0.119532,-0.049219 A 1.2001496,1.1995827 0 0 0 20.463281,4.8117191 C 20.441268,4.8105029 20.422272,4.8 20.4,4.8 L 20.3929,4.811724 A 1.2001496,1.1995827 0 0 0 19.701563,5.0320313 L 12.007031,10.528125 4.3125,5.0320313 A 1.199015,1.1984486 0 0 0 3.6445313,4.8 Z"
     id="path2" />
</svg>
