<?xml version="1.0" encoding="UTF-8" standalone="no"?>
<svg
   width="24"
   height="24"
   version="1.1"
   id="svg2"
   sodipodi:docname="gmail-tray-unread.svg"
   xmlns:inkscape="http://www.inkscape.org/namespaces/inkscape"
   xmlns:sodipodi="http://sodipodi.sourceforge.net/DTD/sodipodi-0.dtd"
   xmlns="http://www.w3.org/2000/svg"
   xmlns:svg="http://www.w3.org/2000/svg">
  <sodipodi:namedview
     id="namedview2"
     pagecolor="#ffffff"
     bordercolor="#000000"
     borderopacity="0.25"
     inkscape:showpageshadow="2"
     inkscape:pageopacity="0.0"
     inkscape:pagecheckerboard="0"
     inkscape:deskcolor="#d1d1d1" />
  <defs
     id="defs1">
    <style
       id="current-color-scheme"
       type="text/css">.ColorScheme-Text {color:#d8dee9} .ColorScheme-Highlight {color:#3b4252}</style>
  </defs>
  <path
     style="opacity:0.35;fill:currentColor;stroke-width:1.2"
     class="ColorScheme-Text"
     d="M 6.0492187,4.7999995 12.007031,9.0539059 17.9625,4.7999995 Z M 6,10.657031 V 19.2 H 17.402344 A 3,3 0 0 1 16.8,17.4 3,3 0 0 1 18,15.002344 V 10.66875 l -4.596094,3.283594 c -0.830809,0.593608 -1.960597,0.593608 -2.791406,0 z"
     id="path1" />
  <path
     style="fill:currentColor;stroke-width:1.2"
     class="ColorScheme-Text"
     d="M 3.6445313,4.7999995 A 1.199015,1.1984486 0 0 0 2.4023437,6.0492182 C 2.4022976,6.0524863 2.4,6.0820307 2.4,6.0820307 V 18.007031 C 2.4,18.662867 2.927949,19.207416 3.590625,19.2 H 4.8 V 8.3273432 L 11.310937,12.975 a 1.199015,1.1984486 0 0 0 1.394532,0 L 19.2,8.339062 v 6.126564 a 3,3 0 0 1 0.6,-0.06563 3,3 0 0 1 1.8,0.604687 V 5.9882807 c 0,-0.00418 -0.0023,-0.00756 -0.0024,-0.011724 A 1.2001496,1.1995827 0 0 0 21.510876,5.5593692 C 21.502356,5.53775 21.494892,5.5170572 21.4851,5.4960884 A 1.2001496,1.1995827 0 0 0 21.269531,5.1843745 c -0.02011,-0.021288 -0.03934,-0.041162 -0.06094,-0.060937 A 1.2001496,1.1995827 0 0 0 20.917969,4.9289057 c -0.03943,-0.019163 -0.07793,-0.034372 -0.119532,-0.049219 A 1.2001496,1.1995827 0 0 0 20.463281,4.8117185 C 20.441268,4.810502 20.422272,4.7999995 20.4,4.7999995 l -0.0071,0.011724 A 1.2001496,1.1995827 0 0 0 19.701563,5.0320307 L 12.007031,10.528126 4.3125,5.0320307 A 1.199015,1.1984486 0 0 0 3.6445313,4.7999995 Z"
     id="path2" />
  <circle
     style="fill:currentColor;stroke-width:1.2"
     class="ColorScheme-Text"
     cx="19.799999"
     cy="17.400074"
     r="1.8"
     id="circle2" />
</svg>
