<?xml version="1.0" encoding="UTF-8" standalone="no"?>
<svg
   width="24"
   height="24"
   version="1.1"
   id="svg1"
   sodipodi:docname="gnome-pie-symbolic.svg"
   xmlns:inkscape="http://www.inkscape.org/namespaces/inkscape"
   xmlns:sodipodi="http://sodipodi.sourceforge.net/DTD/sodipodi-0.dtd"
   xmlns="http://www.w3.org/2000/svg"
   xmlns:svg="http://www.w3.org/2000/svg">
  <sodipodi:namedview
     id="namedview1"
     pagecolor="#ffffff"
     bordercolor="#000000"
     borderopacity="0.25"
     inkscape:showpageshadow="2"
     inkscape:pageopacity="0.0"
     inkscape:pagecheckerboard="0"
     inkscape:deskcolor="#d1d1d1" />
  <defs
     id="defs1">
    <style
       id="current-color-scheme"
       type="text/css">.ColorScheme-Text {color:#d8dee9} .ColorScheme-Highlight {color:#3b4252}</style>
  </defs>
  <path
     style="fill:currentColor;stroke-width:1.2"
     class="ColorScheme-Text"
     d="m 14.690851,2.4112317 c -1.344338,0.1008 -2.615757,0.8462623 -3.335157,2.1046873 -1.151039,2.01336 -0.452542,4.5770852 1.560938,5.728125 2.01324,1.15104 4.577324,0.452423 5.728124,-1.5609382 1.1508,-2.0133594 0.452663,-4.5771444 -1.560937,-5.7281244 v -0.00234 C 16.328719,2.5210461 15.497453,2.3507553 14.690851,2.4112353 Z M 6.3799136,4.8088877 C 5.4196688,4.8808637 4.5101444,5.4123564 3.99632,6.3112314 c -0.82212,1.4382 -0.3225756,3.2701872 1.1156244,4.0921866 1.4382,0.822 3.2701884,0.322216 4.0921884,-1.1156238 C 10.026133,7.849234 9.5263472,6.0177264 8.0885072,5.1956064 7.5491372,4.8873114 6.95606,4.7657017 6.3799136,4.8088877 Z M 18.379913,10.808888 c -0.96021,0.072 -1.869754,0.603543 -2.383594,1.502343 -0.82212,1.43808 -0.322454,3.270043 1.115626,4.092187 1.4382,0.82212 3.270043,0.322455 4.092187,-1.115625 0.82212,-1.438199 0.322454,-3.270042 -1.115626,-4.092186 -0.539324,-0.308296 -1.132466,-0.429921 -1.708593,-0.386719 z M 4.6221008,12.006544 c -0.7681428,0.0575 -1.4943864,0.483244 -1.905468,1.202344 -0.657744,1.15068 -0.257568,2.616618 0.892968,3.274218 1.15056,0.6576 2.6164992,0.256632 3.2742192,-0.892968 0.65772,-1.150802 0.2575908,-2.6165 -0.8929692,-3.27422 -0.4314144,-0.2466 -0.9078636,-0.343878 -1.36875,-0.309374 z m 9.9351552,4.797655 c -0.933139,-0.06046 -1.856017,0.431106 -2.301562,1.319532 -0.594084,1.18464 -0.115824,2.626252 1.06875,3.220312 1.184641,0.594084 2.626252,0.115836 3.220312,-1.06875 0.594084,-1.18464 0.115836,-2.626252 -1.06875,-3.220312 -0.29616,-0.148521 -0.607702,-0.23063 -0.91875,-0.250782 z m -6.8906232,1.2 c -0.5761356,0.04331 -1.1214384,0.363094 -1.4296884,0.902344 -0.49332,0.8628 -0.1928472,1.96305 0.6703128,2.45625 0.8628,0.4932 1.96293,0.192488 2.45625,-0.670312 0.4932244,-0.8628 0.1925592,-1.96299 -0.6703128,-2.45625 C 8.36942,18.051281 8.0123132,17.978212 7.6666328,18.004199 Z"
     id="path1" />
</svg>
