<?xml version="1.0" encoding="UTF-8" standalone="no"?>
<svg
   width="24"
   height="24"
   version="1.1"
   id="svg3"
   sodipodi:docname="goldendict-scan-tray.svg"
   xmlns:inkscape="http://www.inkscape.org/namespaces/inkscape"
   xmlns:sodipodi="http://sodipodi.sourceforge.net/DTD/sodipodi-0.dtd"
   xmlns="http://www.w3.org/2000/svg"
   xmlns:svg="http://www.w3.org/2000/svg">
  <sodipodi:namedview
     id="namedview3"
     pagecolor="#ffffff"
     bordercolor="#000000"
     borderopacity="0.25"
     inkscape:showpageshadow="2"
     inkscape:pageopacity="0.0"
     inkscape:pagecheckerboard="0"
     inkscape:deskcolor="#d1d1d1" />
  <defs
     id="defs1">
    <style
       id="current-color-scheme"
       type="text/css">.ColorScheme-Text {color:#d8dee9} .ColorScheme-Highlight {color:#3b4252}</style>
  </defs>
  <path
     style="fill:currentColor;stroke-width:1.2"
     class="ColorScheme-Text"
     d="M 3.3609374,3.5 C 2.8290974,3.5 2.4,3.8737024 2.4,4.3390626 V 20.660937 C 2.4,21.126296 2.8290976,21.5 3.3609374,21.5 H 18 v -2.4 h -4.8 v -1.2 h 1.2 2.4 1.2 V 16.7 H 16.8 V 15.5 H 18 v -1.2 -1.2 -1.2 -1.2 h 1.2 2.4 V 4.3390626 C 21.6,3.8737026 21.170903,3.5 20.639063,3.5 H 20.4 13.2 v 4.8 h 1.2 1.2 v 1.2 h -2.4 v 1.2 h 2.4 v 1.2 H 13.2 V 10.7 H 10.8 9.6 v 1.2 H 8.4 4.8 V 10.7 H 7.2 8.4 V 7.1 H 7.2 4.8 V 5.9 H 8.4 V 3.5 Z M 14.4,5.9 h 4.8 V 7.1 H 16.8 15.6 14.4 Z M 4.8,8.3 H 7.2 V 9.5 H 4.8 Z m 12,0 h 2.4 V 9.5 H 18 16.8 Z m -12,4.8 h 3.6 v 1.2 H 4.8 Z m 8.4,0 h 2.4 1.2 v 1.2 h -2.4 -1.2 z m -8.4,2.4 h 3.6 v 1.2 H 7.2 6 4.8 Z m 4.8,0 h 1.2 v 1.2 H 9.6 Z m 3.6,0 h 1.2 v 1.2 H 13.2 Z M 4.8,17.9 H 6 v 1.2 H 4.8 Z m 2.4,0 h 1.2 1.2 1.2 v 1.2 H 7.2 Z"
     id="path1" />
  <path
     style="opacity:0.35;fill:currentColor;stroke-width:1.2"
     class="ColorScheme-Text"
     d="M 9.59976,2.9 V 9.5 H 10.8 11.99976 V 2.9 c 0,0 -0.09736,-0.6 -1.19976,-0.6 -1.1024088,0 -1.20024,0.6 -1.20024,0.6 z"
     id="path2" />
  <path
     style="fill:currentColor;stroke-width:1.2"
     class="ColorScheme-Text"
     d="m 19.2,11.9 v 7.2 h 2.4 v -7.2 z m 0,8.4 v 2.4 h 2.4 v -2.4 z"
     id="path3" />
</svg>
