<?xml version="1.0" encoding="UTF-8" standalone="no"?>
<svg
   width="24"
   height="24"
   version="1.1"
   id="svg2"
   sodipodi:docname="goldendict-tray.svg"
   xmlns:inkscape="http://www.inkscape.org/namespaces/inkscape"
   xmlns:sodipodi="http://sodipodi.sourceforge.net/DTD/sodipodi-0.dtd"
   xmlns="http://www.w3.org/2000/svg"
   xmlns:svg="http://www.w3.org/2000/svg">
  <sodipodi:namedview
     id="namedview2"
     pagecolor="#ffffff"
     bordercolor="#000000"
     borderopacity="0.25"
     inkscape:showpageshadow="2"
     inkscape:pageopacity="0.0"
     inkscape:pagecheckerboard="0"
     inkscape:deskcolor="#d1d1d1" />
  <defs
     id="defs1">
    <style
       id="current-color-scheme"
       type="text/css">.ColorScheme-Text {color:#d8dee9} .ColorScheme-Highlight {color:#3b4252}</style>
  </defs>
  <path
     style="fill:currentColor;stroke-width:1.2"
     class="ColorScheme-Text"
     d="M 3.3609372,3.6 C 2.8290972,3.6 2.4,3.9737024 2.4,4.4390626 V 20.760937 C 2.4,21.226296 2.8290972,21.6 3.3609372,21.6 H 20.639063 C 21.170903,21.6 21.6,21.226296 21.6,20.760937 V 4.4390626 C 21.6,3.9737026 21.170903,3.6 20.639063,3.6 H 20.4 13.2 v 4.8 h 1.2 1.2 v 1.2 h -2.4 v 1.2 h 2.4 V 12 H 13.2 V 10.8 H 10.8 9.6 V 12 H 8.4 4.8 V 10.8 H 7.2 8.4 V 7.2 H 7.2 4.8 V 6 H 8.4 V 3.6 Z M 14.4,6 h 4.8 V 7.2 H 16.8 15.6 14.4 Z M 4.8,8.4 H 7.2 V 9.6 H 4.8 Z m 12,0 h 2.4 V 9.6 H 18 16.8 Z m 1.2,2.4 h 1.2 V 12 H 18 Z M 4.8,13.2 h 3.6 v 1.2 H 4.8 Z m 8.4,0 h 2.4 1.2 v 1.2 h -2.4 -1.2 z m 4.8,0 h 1.2 v 1.2 H 18 Z M 4.8,15.6 h 3.6 v 1.2 H 7.2 6 4.8 Z m 4.8,0 h 1.2 v 1.2 H 9.6 Z m 3.6,0 h 1.2 v 1.2 h -1.2 z m 3.6,0 h 1.2 1.2 v 1.2 H 18 16.8 Z M 4.8,18 H 6 v 1.2 H 4.8 Z m 2.4,0 h 1.2 1.2 1.2 v 1.2 H 7.2 Z m 6,0 h 1.2 2.4 1.2 v 1.2 h -4.8 z"
     id="path1" />
  <path
     style="opacity:0.35;fill:currentColor;stroke-width:1.2"
     class="ColorScheme-Text"
     d="M 9.59976,3 V 9.6 H 10.8 11.99976 V 3 C 11.99976,3 11.902404,2.4 10.8,2.4 9.6975912,2.4 9.59976,3 9.59976,3 Z"
     id="path2" />
</svg>
