<?xml version="1.0" encoding="UTF-8" standalone="no"?>
<svg
   width="24"
   height="24"
   version="1.1"
   id="svg1"
   sodipodi:docname="google-chat-tray.svg"
   xmlns:inkscape="http://www.inkscape.org/namespaces/inkscape"
   xmlns:sodipodi="http://sodipodi.sourceforge.net/DTD/sodipodi-0.dtd"
   xmlns="http://www.w3.org/2000/svg"
   xmlns:svg="http://www.w3.org/2000/svg">
  <sodipodi:namedview
     id="namedview1"
     pagecolor="#ffffff"
     bordercolor="#000000"
     borderopacity="0.25"
     inkscape:showpageshadow="2"
     inkscape:pageopacity="0.0"
     inkscape:pagecheckerboard="0"
     inkscape:deskcolor="#d1d1d1" />
  <defs
     id="defs1">
    <style
       id="current-color-scheme"
       type="text/css">.ColorScheme-Text {color:#d8dee9} .ColorScheme-Highlight {color:#3b4252}</style>
  </defs>
  <path
     style="fill:currentColor;stroke-width:1.2"
     class="ColorScheme-Text"
     d="m 9.1195312,2.399424 c -1.06368,0 -1.919531,0.8933407 -1.919531,2.0015625 V 5.999424 H 14.880469 C 16.567402,5.999424 18,7.3631481 18,9.0580174 v 5.3414066 h 1.680469 c 1.06368,0 1.919531,-0.893342 1.919531,-2.001563 V 4.4009865 C 21.6,3.2927647 20.744149,2.399424 19.680469,2.399424 Z m -4.7999999,4.8 C 3.255851,7.199424 2.4,8.0286723 2.4,9.0580174 v 7.4320316 4.403905 c 0,0.628043 0.7828606,0.941452 1.2398436,0.49922 l 3.0000004,-3.39375 h 8.179687 c 1.62,0 1.980469,-1.319871 1.980469,-1.989844 V 15.599424 H 9.1195312 C 7.38484,15.599424 6,14.12424 6,12.397861 V 7.199424 Z m 2.8804689,0 v 1.2 4.00078 c 1.502e-4,0.137705 0.014508,0.271035 0.03984,0.400782 1.452e-4,7.5e-4 -1.464e-4,0.0016 0,0.0024 0.01266,0.06446 0.028452,0.127829 0.046872,0.189844 2.136e-4,7.22e-4 -2.146e-4,0.0017 0,0.0024 0.018492,0.06199 0.039348,0.123593 0.063276,0.182813 2.735e-4,6.78e-4 -2.748e-4,0.0017 0,0.0024 0.048276,0.119076 0.107316,0.231626 0.1757807,0.3375 3.672e-4,5.69e-4 -3.684e-4,0.0018 0,0.0023 0.068592,0.105852 0.148074,0.202951 0.2343756,0.292969 0.1303885,0.136042 0.2792329,0.252149 0.442968,0.344531 0.2720328,0.153791 0.5840064,0.241421 0.9164064,0.241421 h 6.4804691 1.2 v -1.2 -4.1414066 c 0,-1.0293451 -0.855851,-1.8585934 -1.919531,-1.8585934 H 8.3999884 Z"
     id="path1" />
</svg>
