<?xml version="1.0" encoding="UTF-8" standalone="no"?>
<svg
   width="24"
   height="24"
   version="1.1"
   id="svg2"
   sodipodi:docname="google-chrome-panel.svg"
   xmlns:inkscape="http://www.inkscape.org/namespaces/inkscape"
   xmlns:sodipodi="http://sodipodi.sourceforge.net/DTD/sodipodi-0.dtd"
   xmlns="http://www.w3.org/2000/svg"
   xmlns:svg="http://www.w3.org/2000/svg">
  <sodipodi:namedview
     id="namedview2"
     pagecolor="#ffffff"
     bordercolor="#000000"
     borderopacity="0.25"
     inkscape:showpageshadow="2"
     inkscape:pageopacity="0.0"
     inkscape:pagecheckerboard="0"
     inkscape:deskcolor="#d1d1d1" />
  <defs
     id="defs1">
    <style
       id="current-color-scheme"
       type="text/css">.ColorScheme-Text {color:#d8dee9} .ColorScheme-Highlight {color:#3b4252}</style>
  </defs>
  <g
     style=""
     id="g2">
    <path
       style="fill:currentColor;stroke-width:1.2"
       class="ColorScheme-Text"
       d="M 12,2.4 A 9.6,9.6 0 0 0 5.2758,5.1516 l 3.30696,5.7276 A 3.6,3.6 0 0 1 12,8.4 h 8.8944 A 9.6,9.6 0 0 0 12,2.4 Z M 4.43904,6.10308 A 9.6,9.6 0 0 0 2.4,12 9.6,9.6 0 0 0 9.43824,21.2412 L 12.7404,15.5208 A 3.6,3.6 0 0 1 12,15.6 3.6,3.6 0 0 1 8.88744,13.7976 L 8.88276,13.8 Z M 14.676,9.6 A 3.6,3.6 0 0 1 15.6,12 3.6,3.6 0 0 1 15.1152,13.7976 L 15.1176,13.8 10.6734,21.4968 A 9.6,9.6 0 0 0 12,21.6 9.6,9.6 0 0 0 21.6,12 9.6,9.6 0 0 0 21.288,9.6 Z"
       id="path1" />
    <path
       style="fill:currentColor;stroke-width:1.2"
       class="ColorScheme-Text"
       d="M 11.999788,9.6 A 2.3999575,2.3999575 0 0 0 9.6,11.999788 2.3999575,2.3999575 0 0 0 11.999788,14.4 2.3999575,2.3999575 0 0 0 14.4,11.999788 2.3999575,2.3999575 0 0 0 11.999788,9.6 Z"
       id="path2" />
  </g>
</svg>
