<?xml version="1.0" encoding="UTF-8" standalone="no"?>
<svg
   width="24"
   height="24"
   version="1"
   id="svg1"
   sodipodi:docname="google-music-manager-panel.svg"
   xmlns:inkscape="http://www.inkscape.org/namespaces/inkscape"
   xmlns:sodipodi="http://sodipodi.sourceforge.net/DTD/sodipodi-0.dtd"
   xmlns="http://www.w3.org/2000/svg"
   xmlns:svg="http://www.w3.org/2000/svg">
  <sodipodi:namedview
     id="namedview1"
     pagecolor="#ffffff"
     bordercolor="#000000"
     borderopacity="0.25"
     inkscape:showpageshadow="2"
     inkscape:pageopacity="0.0"
     inkscape:pagecheckerboard="0"
     inkscape:deskcolor="#d1d1d1" />
  <defs
     id="defs1">
    <style
       id="current-color-scheme"
       type="text/css">.ColorScheme-Text {color:#d8dee9} .ColorScheme-Highlight {color:#3b4252}</style>
  </defs>
  <path
     style="fill:currentColor;stroke-width:1.2"
     class="ColorScheme-Text"
     d="m 12,3.49997 c -4.6392,0 -8.4,3.7608 -8.4,8.4 v 1.63356 a 4.8,4.8 0 0 0 -1.2,3.1668 4.8,4.8 0 0 0 4.8,4.8 h 1.2 v -9.6 H 7.2 A 4.8,4.8 0 0 0 6,12.05993 v -0.1596 c 0,-3.324 2.676,-6 6,-6 3.324,0 6,2.676 6,6 v 0.157032 a 4.8,4.8 0 0 0 -1.2,-0.1572 h -1.2 v 9.6 h 1.2 a 4.8,4.8 0 0 0 4.8,-4.8 4.8,4.8 0 0 0 -1.2,-3.16644 v -1.6332 c 0,-4.6392 -3.7608,-8.4 -8.4,-8.4 z"
     id="path1" />
</svg>
