<?xml version="1.0" encoding="UTF-8" standalone="no"?>
<svg
   width="24"
   height="24"
   version="1.1"
   id="svg1"
   sodipodi:docname="gpm-monitor.svg"
   xmlns:inkscape="http://www.inkscape.org/namespaces/inkscape"
   xmlns:sodipodi="http://sodipodi.sourceforge.net/DTD/sodipodi-0.dtd"
   xmlns="http://www.w3.org/2000/svg"
   xmlns:svg="http://www.w3.org/2000/svg">
  <sodipodi:namedview
     id="namedview1"
     pagecolor="#ffffff"
     bordercolor="#000000"
     borderopacity="0.25"
     inkscape:showpageshadow="2"
     inkscape:pageopacity="0.0"
     inkscape:pagecheckerboard="0"
     inkscape:deskcolor="#d1d1d1" />
  <defs
     id="defs1">
    <style
       id="current-color-scheme"
       type="text/css">.ColorScheme-Text {color:#d8dee9} .ColorScheme-Highlight {color:#3b4252}</style>
  </defs>
  <path
     style="fill:currentColor;stroke-width:1.2"
     class="ColorScheme-Text"
     d="m 12.9348,4.8013188 c -0.0612,-0.0066 -0.1236,0.01188 -0.1704,0.054 -0.048,0.042 -0.0768,0.10272 -0.0828,0.16872 l -0.2712,2.98356 c -0.0132,0.13728 0.0828,0.261 0.2112,0.2742 0.7416,0.07704 1.4556,0.2916 2.1252,0.63756 0.1092,0.063 0.2388,0.00936 0.312,-0.11724 l 1.2144,-2.7 c 0.0552,-0.1242 0.0072,-0.27288 -0.108,-0.33276 -1.0176,-0.52536 -2.1048,-0.85104 -3.2304,-0.96804 z m -2.2356,0.04452 c -1.1202,0.16296 -2.19384,0.53388 -3.19212,1.1016 -0.11376,0.06468 -0.15636,0.21564 -0.09612,0.33756 l 1.31016,2.6484 c 0.04188,0.0846 0.12276,0.13128 0.20628,0.13128 0.03684,0 0.07296,-0.0084 0.10776,-0.0282 0.65724,-0.37392 1.36524,-0.61692 2.10204,-0.7242 0.1284,-0.01848 0.2172,-0.14448 0.1992,-0.28128 l -0.3744,-2.9718 c -0.018,-0.13668 -0.1356,-0.23172 -0.2628,-0.21336 z m 7.1832,2.15628 c -0.0612,0.00684 -0.1176,0.04008 -0.1572,0.09144 l -1.764,2.325 c -0.0396,0.05136 -0.0564,0.11688 -0.0492,0.18384 0.006,0.0648 0.036,0.126 0.084,0.168 0.5796,0.5052002 1.0656,1.1076002 1.4484,1.7928002 0.0444,0.078 0.1224,0.1224 0.2016,0.1224 0.0408,0 0.0828,-0.0108 0.12,-0.0348 l 2.4,-1.5384 c 0.1116,-0.0708 0.1404,-0.2364002 0.0792,-0.3420002 -0.5784,-1.0374 -1.3152,-1.95084 -2.1912,-2.7144 -0.048,-0.04176 -0.1092,-0.06048 -0.1716,-0.05388 z m -12.04884,0.2484 c -0.06192,-0.0042 -0.12228,0.01728 -0.16872,0.06096 -0.84816,0.79932 -1.55244,1.74108 -2.09292,2.8009202 -0.02964,0.0588 -0.03612,0.1296 -0.01884,0.192 0.0174,0.0636 0.05592,0.1164 0.11016,0.1488 l 2.454,1.4388 c 0.10992,0.0636 0.2454,0.0216 0.31632,-0.1008 0.35724,-0.7008 0.82404,-1.3236 1.38516,-1.8516002 0.04656,-0.0444 0.07344,-0.1056 0.0774,-0.1716 0.00396,-0.066 -0.01548,-0.1332 -0.05628,-0.183 l -1.84692,-2.25 c -0.04068,-0.0498 -0.09756,-0.08016 -0.15936,-0.08448 z m 15.03804,4.5502802 -2.67,0.8952 c -0.1224,0.0408 -0.1908,0.1824 -0.1524,0.3132 0.192,0.6564 0.3036,1.3404 0.288,2.0352 l -0.0072,0.318 c -0.0036,0.1032 0.0852,0.2628 0.2232,0.2628 l 2.8032,0.138 c 0.1236,0 0.2256,-0.1044 0.2316,-0.2388 0.0072,-0.1668 0.012,-0.48 0.012,-0.48 0,-1.05 -0.1476,-2.0856 -0.438,-3.0804 -0.0384,-0.1308 -0.168,-0.2052 -0.2904,-0.1632 z m -9,2.7156 -3.78576,-2.3928 c 0,0 -0.09936,-0.0408 -0.15,-0.0348 0,0 -0.09936,0.03 -0.13812,0.0696 -0.07776,0.0804 -0.09528,0.2064 -0.04464,0.3072 l 2.06532,4.1484 c 0,0 -0.012,0.1632 -0.012,0.2436 0,0.6264 0.2268,1.2132 0.6396,1.6548 0.4128,0.4428 0.9612,0.6876 1.5444,0.6876 0.5844,0 1.134,-0.2448 1.5468,-0.6876 0.4128,-0.4416 0.6396,-1.0284 0.6396,-1.6548 0,-0.6252 -0.2268,-1.2144 -0.6396,-1.656 -0.4116,-0.4428 -0.9612,-0.6864 -1.5444,-0.6876 z m -8.85048,-2.3484 c -0.05964,-0.0168 -0.12456,-0.0096 -0.1782,0.024 -0.05352,0.0324 -0.09156,0.0876 -0.10776,0.1524 -0.22176,0.876 -0.33516,1.7844 -0.33516,2.7 0,0.156 0.01176,0.48 0.01176,0.48 0.00576,0.1344 0.10824,0.2388 0.23208,0.2388 l 2.80308,-0.138 c 0.11796,-0.0048 0.22272,-0.1128 0.22272,-0.2628 -0.0048,-0.1116 -0.00708,-0.318 -0.00708,-0.318 0,-0.606 0.07392,-1.206 0.22032,-1.7844 0.0336,-0.1332 -0.03996,-0.27 -0.16404,-0.306 z"
     id="path1" />
</svg>
