<?xml version="1.0" encoding="UTF-8" standalone="no"?>
<svg
   width="24"
   height="24"
   version="1.1"
   id="svg2"
   sodipodi:docname="gpm-brightness-kbd.svg"
   xmlns:inkscape="http://www.inkscape.org/namespaces/inkscape"
   xmlns:sodipodi="http://sodipodi.sourceforge.net/DTD/sodipodi-0.dtd"
   xmlns="http://www.w3.org/2000/svg"
   xmlns:svg="http://www.w3.org/2000/svg">
  <sodipodi:namedview
     id="namedview2"
     pagecolor="#ffffff"
     bordercolor="#000000"
     borderopacity="0.25"
     inkscape:showpageshadow="2"
     inkscape:pageopacity="0.0"
     inkscape:pagecheckerboard="0"
     inkscape:deskcolor="#d1d1d1" />
  <defs
     id="defs1">
    <style
       id="current-color-scheme"
       type="text/css">.ColorScheme-Text {color:#d8dee9} .ColorScheme-Highlight {color:#3b4252}</style>
  </defs>
  <path
     style="fill:currentColor;stroke-width:1.2"
     class="ColorScheme-Text"
     d="M 12.07207,2.1927734 9.4447266,4.9279297 H 6.0720703 V 8.300586 L 3.336914,10.92793 h 3.9351563 c 0,-2.6520002 2.1480001,-4.8000003 4.7999997,-4.8000003 2.652,0 4.8,2.1480001 4.8,4.8000003 h 3.935157 L 18.07207,8.5279297 v -3.6 h -3.335156 z m 0,5.1351563 c -1.98828,0 -3.5999997,1.61172 -3.5999997,3.6000003 H 12.07207 Z"
     id="path1" />
  <path
     class="ColorScheme-Text"
     d="m 20.47207,13.32793 c 0,-0.6648 -0.5352,-1.2 -1.2,-1.2 H 3.6720703 c -0.6648,0 -1.2,0.5352 -1.2,1.2 v 6 c 0,0.6648 0.5352,1.2 1.2,1.2 H 19.27207 c 0.6648,0 1.2,-0.5352 1.2,-1.2 z m -3.6,0 v 1.2 h -1.2 v -1.2 z m 0,2.4 v 1.2 h -1.2 v -1.2 z m -1.2,2.4 v 1.2 H 7.2720705 v -1.2 z m -1.2,-4.8 v 1.2 h -1.2 v -1.2 z m 0,2.4 v 1.2 h -1.2 v -1.2 z m -2.4,-2.4 v 1.2 h -1.2 v -1.2 z m 0,2.4 v 1.2 h -1.2 v -1.2 z m -2.3999997,-2.4 v 1.2 H 8.4720705 v -1.2 z m 0,2.4 v 1.2 H 8.4720705 v -1.2 z m -2.3999998,-2.4 v 1.2 h -1.2 v -1.2 z m 0,2.4 v 1.2 h -1.2 v -1.2 z"
     style="fill:currentColor;fill-rule:evenodd;stroke-width:1.2"
     id="path2" />
</svg>
