<?xml version="1.0" encoding="UTF-8" standalone="no"?>
<svg
   width="24"
   height="24"
   version="1.1"
   id="svg1"
   sodipodi:docname="gpm-inhibit.svg"
   xmlns:inkscape="http://www.inkscape.org/namespaces/inkscape"
   xmlns:sodipodi="http://sodipodi.sourceforge.net/DTD/sodipodi-0.dtd"
   xmlns="http://www.w3.org/2000/svg"
   xmlns:svg="http://www.w3.org/2000/svg">
  <sodipodi:namedview
     id="namedview1"
     pagecolor="#ffffff"
     bordercolor="#000000"
     borderopacity="0.25"
     inkscape:showpageshadow="2"
     inkscape:pageopacity="0.0"
     inkscape:pagecheckerboard="0"
     inkscape:deskcolor="#d1d1d1" />
  <defs
     id="defs1">
    <style
       id="current-color-scheme"
       type="text/css">.ColorScheme-Text {color:#d8dee9} .ColorScheme-Highlight {color:#3b4252}</style>
  </defs>
  <path
     style="fill:currentColor;stroke-width:1.2"
     class="ColorScheme-Text"
     d="m 2.6226177,3.5853473 c -1.6197931,-0.031129 -1.63647298,2.4089814 -0.016406,2.4 V 19.185347 c -0.022861,1.61658 2.4017739,1.620617 2.3976564,0.0164 h -0.00469 V 4.750191 C 4.9794918,4.1046626 4.4565,3.5854124 3.8062116,3.5853473 Z m 3.5765626,1.2 V 17.985347 h 1.2070313 v 1.528126 c 0,0.872161 0.871875,0.871874 0.871875,0.871874 h 0.328125 1.2000002 v -2.4 h 2.3999992 v 2.395313 h 2.4 v -2.395313 h 2.4 v 2.397657 h 1.2 0.328125 c 0,0 0.871875,2.87e-4 0.871875,-0.871876 v -1.525781 h 0.360938 c 0.46536,0 0.839062,-0.367617 0.839062,-0.825 V 5.6103473 c 0,-0.4573824 -0.373702,-0.825 -0.839062,-0.825 z M 12.19918,7.2017536 h 2.4 v 2.4000001 h -2.4 z m 0,3.6000004 h 2.4 v 4.8 h -2.4 z"
     id="path1" />
</svg>
