<?xml version="1.0" encoding="UTF-8" standalone="no"?>
<svg
   width="24"
   height="24"
   version="1.1"
   id="svg2"
   sodipodi:docname="gpm-brightness-lcd-invalid.svg"
   xmlns:inkscape="http://www.inkscape.org/namespaces/inkscape"
   xmlns:sodipodi="http://sodipodi.sourceforge.net/DTD/sodipodi-0.dtd"
   xmlns="http://www.w3.org/2000/svg"
   xmlns:svg="http://www.w3.org/2000/svg">
  <sodipodi:namedview
     id="namedview2"
     pagecolor="#ffffff"
     bordercolor="#000000"
     borderopacity="0.25"
     inkscape:showpageshadow="2"
     inkscape:pageopacity="0.0"
     inkscape:pagecheckerboard="0"
     inkscape:deskcolor="#d1d1d1" />
  <defs
     id="defs1">
    <style
       id="current-color-scheme"
       type="text/css">.ColorScheme-Text {color:#d8dee9} .ColorScheme-Highlight {color:#3b4252}</style>
  </defs>
  <path
     style="opacity:0.35;fill:currentColor;stroke-width:1.2"
     class="ColorScheme-Text"
     d="m 12.00033,3.2652001 -2.6274,2.73516 H 6.0003299 V 9.37296 L 3.26517,12.00036 6.0003299,14.6652 V 18 H 9.37293 l 2.6274,2.7348 L 14.66553,18 h 3.3348 v -3.3348 l 2.7348,-2.66484 -2.7348,-2.4 V 6.0003601 h -3.3348 z m 0,3.93516 c 2.652,0 4.8,2.1479999 4.8,4.7999999 0,2.65164 -2.148,4.79964 -4.8,4.79964 -2.6520001,0 -4.8000001,-2.148 -4.8000001,-4.79964 0,-2.652 2.148,-4.7999999 4.8000001,-4.7999999 z"
     id="path1" />
  <path
     style="fill:currentColor;stroke-width:1.2"
     class="ColorScheme-Text"
     d="m 10.80015,8.4 v 4.8 h 2.4 V 8.4 Z m 0,6 v 1.2 h 2.4 v -1.2 z"
     id="path2" />
</svg>
