<?xml version="1.0" encoding="UTF-8" standalone="no"?>
<svg
   width="24"
   height="24"
   version="1.1"
   id="svg2"
   sodipodi:docname="gpm-brightness-kbd-invalid.svg"
   xmlns:inkscape="http://www.inkscape.org/namespaces/inkscape"
   xmlns:sodipodi="http://sodipodi.sourceforge.net/DTD/sodipodi-0.dtd"
   xmlns="http://www.w3.org/2000/svg"
   xmlns:svg="http://www.w3.org/2000/svg">
  <sodipodi:namedview
     id="namedview2"
     pagecolor="#ffffff"
     bordercolor="#000000"
     borderopacity="0.25"
     inkscape:showpageshadow="2"
     inkscape:pageopacity="0.0"
     inkscape:pagecheckerboard="0"
     inkscape:deskcolor="#d1d1d1" />
  <defs
     id="defs1">
    <style
       id="current-color-scheme"
       type="text/css">.ColorScheme-Text {color:#d8dee9} .ColorScheme-Highlight {color:#3b4252}</style>
  </defs>
  <path
     class="ColorScheme-Text"
     d="M 20.5,13.2 C 20.5,12.5352 19.9648,12 19.3,12 H 3.7 c -0.6648,0 -1.2,0.5352 -1.2,1.2 v 6 c 0,0.6648 0.5352,1.2 1.2,1.2 h 15.6 c 0.6648,0 1.2,-0.5352 1.2,-1.2 z m -3.6,0 v 1.2 h -1.2 v -1.2 z m 0,2.4 v 1.2 H 15.7 V 15.6 Z M 15.7,18 v 1.2 H 7.3000002 V 18 Z m -1.2,-4.8 v 1.2 h -1.2 v -1.2 z m 0,2.4 v 1.2 h -1.2 v -1.2 z m -2.4,-2.4 v 1.2 h -1.2 v -1.2 z m 0,2.4 v 1.2 H 10.9 V 15.6 Z M 9.7,13.2 v 1.2 H 8.5000002 v -1.2 z m 0,2.4 v 1.2 H 8.5000002 V 15.6 Z M 7.3000002,13.2 v 1.2 h -1.2 v -1.2 z m 0,2.4 v 1.2 h -1.2 v -1.2 z"
     style="opacity:0.35;fill:currentColor;fill-rule:evenodd;stroke-width:1.2"
     id="path1" />
  <path
     style="fill:currentColor;stroke-width:1.2"
     class="ColorScheme-Text"
     d="m 10.9,3.6 v 4.8 h 2.4 V 3.6 Z m 0,6 v 1.2 h 2.4 V 9.6 Z"
     id="path2" />
</svg>
