<?xml version="1.0" encoding="UTF-8" standalone="no"?>
<svg
   width="24"
   height="24"
   version="1.1"
   id="svg2"
   sodipodi:docname="gpm-battery-missing.svg"
   xmlns:inkscape="http://www.inkscape.org/namespaces/inkscape"
   xmlns:sodipodi="http://sodipodi.sourceforge.net/DTD/sodipodi-0.dtd"
   xmlns="http://www.w3.org/2000/svg"
   xmlns:svg="http://www.w3.org/2000/svg">
  <sodipodi:namedview
     id="namedview2"
     pagecolor="#ffffff"
     bordercolor="#000000"
     borderopacity="0.25"
     inkscape:showpageshadow="2"
     inkscape:pageopacity="0.0"
     inkscape:pagecheckerboard="0"
     inkscape:deskcolor="#d1d1d1" />
  <defs
     id="defs1">
    <style
       id="current-color-scheme"
       type="text/css">.ColorScheme-Text {color:#d8dee9} .ColorScheme-Highlight {color:#3b4252}</style>
  </defs>
  <path
     style="opacity:0.35;fill:currentColor;stroke-width:1.2"
     class="ColorScheme-Text"
     d="M 9.6,3.6 V 4.8 H 6 v 14.4 c 0,0.66 0.5352,1.2 1.2,1.2 h 9.6 c 0.6648,0 1.2,-0.54 1.2,-1.2 V 4.8 H 14.4 V 3.6 Z M 12,7.2 c 1.974,0 3.6,1.626 3.6,3.6 0,1.50804 -1.0716,2.56872 -2.4,3.1008 V 18 H 9.6 V 12 H 8.4 V 10.8 C 8.4,8.826 10.026,7.2 12,7.2 Z"
     id="path1" />
  <path
     style="fill:currentColor;stroke-width:1.2"
     class="ColorScheme-Text"
     d="m 12,8.4 a 2.4,2.4 0 0 0 -2.4,2.4 h 1.2 A 1.2,1.2 0 0 1 12,9.6 1.2,1.2 0 0 1 13.2,10.8 1.2,1.2 0 0 1 12,12 h -1.2 v 2.4 H 12 V 13.2 A 2.4,2.4 0 0 0 14.4,10.8 2.4,2.4 0 0 0 12,8.4 Z m -1.2,7.2 v 1.2 H 12 v -1.2 z"
     id="path2" />
</svg>
