<?xml version="1.0" encoding="UTF-8" standalone="no"?>
<svg
   width="24"
   height="24"
   version="1.1"
   id="svg2"
   sodipodi:docname="gpm-brightness-kbd-disabled.svg"
   xmlns:inkscape="http://www.inkscape.org/namespaces/inkscape"
   xmlns:sodipodi="http://sodipodi.sourceforge.net/DTD/sodipodi-0.dtd"
   xmlns="http://www.w3.org/2000/svg"
   xmlns:svg="http://www.w3.org/2000/svg">
  <sodipodi:namedview
     id="namedview2"
     pagecolor="#ffffff"
     bordercolor="#000000"
     borderopacity="0.25"
     inkscape:showpageshadow="2"
     inkscape:pageopacity="0.0"
     inkscape:pagecheckerboard="0"
     inkscape:deskcolor="#d1d1d1" />
  <defs
     id="defs1">
    <style
       id="current-color-scheme"
       type="text/css">.ColorScheme-Text {color:#d8dee9} .ColorScheme-Highlight {color:#3b4252}</style>
  </defs>
  <g
     transform="translate(1,1)"
     style=""
     id="g2">
    <path
       class="ColorScheme-Text"
       d="M 11.0721,2.19277 8.4447,4.92793 H 5.0721 v 3.3726 l -2.73516,2.6274 H 6.2721 c 0,-2.652 2.148,-4.8 4.8,-4.8 2.652,0 4.8,2.148 4.8,4.8 h 3.9348 l -2.7348,-2.4 v -3.6 h -3.3348 z m 0,5.13516 c -1.98828,0 -3.6,1.61172 -3.6,3.6 h 3.6 z"
       style="opacity:0.35;fill:currentColor;stroke-width:1.2"
       id="path1" />
    <path
       class="ColorScheme-Text"
       d="m 19.4721,13.32793 c 0,-0.6648 -0.5352,-1.2 -1.2,-1.2 h -15.6 c -0.6648,0 -1.2,0.5352 -1.2,1.2 v 6 c 0,0.6648 0.5352,1.2 1.2,1.2 h 15.6 c 0.6648,0 1.2,-0.5352 1.2,-1.2 z m -3.6,0 v 1.2 h -1.2 v -1.2 z m 0,2.4 v 1.2 h -1.2 v -1.2 z m -1.2,2.4 v 1.2 h -8.4 v -1.2 z m -1.2,-4.8 v 1.2 h -1.2 v -1.2 z m 0,2.4 v 1.2 h -1.2 v -1.2 z m -2.4,-2.4 v 1.2 h -1.2 v -1.2 z m 0,2.4 v 1.2 h -1.2 v -1.2 z m -2.4,-2.4 v 1.2 h -1.2 v -1.2 z m 0,2.4 v 1.2 h -1.2 v -1.2 z m -2.4,-2.4 v 1.2 h -1.2 v -1.2 z m 0,2.4 v 1.2 h -1.2 v -1.2 z"
       style="opacity:0.35;fill:currentColor;fill-rule:evenodd;stroke-width:1.2"
       id="path2" />
  </g>
</svg>
