<?xml version="1.0" encoding="UTF-8" standalone="no"?>
<svg
   width="24"
   height="24"
   version="1.1"
   id="svg2"
   sodipodi:docname="gpm-inhibit-invalid.svg"
   xmlns:inkscape="http://www.inkscape.org/namespaces/inkscape"
   xmlns:sodipodi="http://sodipodi.sourceforge.net/DTD/sodipodi-0.dtd"
   xmlns="http://www.w3.org/2000/svg"
   xmlns:svg="http://www.w3.org/2000/svg">
  <sodipodi:namedview
     id="namedview2"
     pagecolor="#ffffff"
     bordercolor="#000000"
     borderopacity="0.25"
     inkscape:showpageshadow="2"
     inkscape:pageopacity="0.0"
     inkscape:pagecheckerboard="0"
     inkscape:deskcolor="#d1d1d1" />
  <defs
     id="defs1">
    <style
       id="current-color-scheme"
       type="text/css">.ColorScheme-Text {color:#d8dee9} .ColorScheme-Highlight {color:#3b4252}</style>
  </defs>
  <path
     style="opacity:0.35;fill:currentColor;stroke-width:1.2"
     class="ColorScheme-Text"
     d="m 2.6226176,3.5849855 c -1.6197931,-0.031129 -1.63647322,2.4089814 -0.016406,2.4 V 19.184985 c -0.022862,1.61658 2.4017739,1.620617 2.3976564,0.01641 H 4.999178 V 4.7498292 C 4.9794917,4.1043008 4.4564999,3.5850506 3.8062115,3.5849855 Z m 3.5765626,1.2 V 17.984985 h 1.2070313 v 1.528126 c 0,0.872161 0.871875,0.871874 0.871875,0.871874 h 0.328125 1.2000002 v -2.4 h 2.3999993 v 2.395313 h 2.4 v -2.395313 h 2.392969 v -6 h -0.583594 c -0.480213,0.0018 -0.767862,-0.533196 -0.501563,-0.932812 l 1.771876,-2.6671875 h -1.270313 c -0.811393,0.011472 -0.811393,-1.2114751 0,-1.2 h 2.390625 c 0.479152,1.023e-4 0.764924,0.5340802 0.499219,0.9328126 l -1.771876,2.6671869 h 1.272657 c 0.0338,-4.76e-4 0.05807,0.01278 0.08906,0.0164 h 1.710937 V 5.6099855 c 0,-0.4573824 -0.373702,-0.825 -0.839062,-0.825 z m 2.4070313,2.4 h 4.7999995 c 1.006642,-4.199e-4 1.566488,1.1640588 0.9375,1.9499999 l -3.239062,4.0499996 h 2.301562 c 1.622787,-0.02296 1.622787,2.42295 0,2.4 H 8.6062115 c -1.0066428,4.2e-4 -1.5664883,-1.164058 -0.9375,-1.95 L 10.907775,9.5849854 H 8.6062115 c -1.6227873,0.022944 -1.6227873,-2.4229501 0,-2.3999999 z"
     id="path1" />
  <path
     style="fill:currentColor;stroke-width:1.2"
     class="ColorScheme-Text"
     d="m 18.19918,12.001392 v 4.8 h 2.4 v -4.8 z m 0,6 v 2.4 h 2.4 v -2.4 z"
     id="path2" />
</svg>
