<?xml version="1.0" encoding="UTF-8" standalone="no"?>
<svg
   width="24"
   height="24"
   version="1.1"
   id="svg1"
   sodipodi:docname="gpmdp-tray-play.svg"
   xmlns:inkscape="http://www.inkscape.org/namespaces/inkscape"
   xmlns:sodipodi="http://sodipodi.sourceforge.net/DTD/sodipodi-0.dtd"
   xmlns="http://www.w3.org/2000/svg"
   xmlns:svg="http://www.w3.org/2000/svg">
  <sodipodi:namedview
     id="namedview1"
     pagecolor="#ffffff"
     bordercolor="#000000"
     borderopacity="0.25"
     inkscape:showpageshadow="2"
     inkscape:pageopacity="0.0"
     inkscape:pagecheckerboard="0"
     inkscape:deskcolor="#d1d1d1" />
  <defs
     id="defs1">
    <style
       id="current-color-scheme"
       type="text/css">.ColorScheme-Text {color:#d8dee9} .ColorScheme-Highlight {color:#3b4252}</style>
  </defs>
  <path
     style="fill:currentColor;stroke-width:1.2"
     class="ColorScheme-Text"
     d="m 15.3,11.900001 c 0,1.9884 -1.6116,3.6 -3.6,3.6 -1.9884,0 -3.6,-1.6116 -3.6,-3.6 0,-1.9884004 1.6116,-3.6000004 3.6,-3.6000004 1.9884,0 3.6,1.6116 3.6,3.6000004 z M 4.29864,2.3002406 c -0.25272,0.00564 -0.47268,0.0966 -0.63756,0.2604 C 3.42684,2.7898406 3.3,3.1608806 3.3,3.6410006 V 20.152401 c 0,0.48 0.13764,0.852 0.36,1.0812 0.34152,0.3384 0.8736,0.3696 1.48008,0.0084 l 14.19312,-8.2704 c 1.0224,-0.5892 1.0224,-1.5492 0,-2.1492 l -0.5736,-0.3348 C 18.102,7.1879606 15.1932,4.7002406 11.7,4.7002406 c -0.7848,0 -1.5408,0.1278 -2.2476,0.36 l -4.31232,-2.51136 c -0.30324,-0.1746 -0.58872,-0.25392 -0.84144,-0.24864 z m 7.40136,3.6 c 3.3288,0 6,2.67216 6,5.9997604 0,0.2268 -0.0396,0.4488 -0.066,0.6732 l -8.2752,4.818 C 8.54652,17.174001 5.7,15.371601 5.7,11.900001 c 0,-3.4200004 2.8794,-5.9997604 6,-5.9997604 z m 12,13.1997604 -6,3.6 v -7.2 z"
     id="path1" />
</svg>
