<?xml version="1.0" encoding="UTF-8" standalone="no"?>
<svg
   width="24"
   height="24"
   version="1.1"
   id="svg1"
   sodipodi:docname="guake-tray.svg"
   xmlns:inkscape="http://www.inkscape.org/namespaces/inkscape"
   xmlns:sodipodi="http://sodipodi.sourceforge.net/DTD/sodipodi-0.dtd"
   xmlns="http://www.w3.org/2000/svg"
   xmlns:svg="http://www.w3.org/2000/svg">
  <sodipodi:namedview
     id="namedview1"
     pagecolor="#ffffff"
     bordercolor="#000000"
     borderopacity="0.25"
     inkscape:showpageshadow="2"
     inkscape:pageopacity="0.0"
     inkscape:pagecheckerboard="0"
     inkscape:deskcolor="#d1d1d1" />
  <defs
     id="defs1">
    <style
       id="current-color-scheme"
       type="text/css">.ColorScheme-Text {color:#d8dee9} .ColorScheme-Highlight {color:#3b4252}</style>
  </defs>
  <g
     style=""
     id="g1">
    <path
       style="fill:currentColor;stroke-width:1.2"
       class="ColorScheme-Text"
       d="M 4.7999725,2.4 C 3.4704066,2.4 2.4,3.4703957 2.4,4.7999725 V 19.200028 C 2.4,20.529593 3.4703957,21.6 4.7999725,21.6 H 19.200028 C 20.529593,21.6 21.6,20.529605 21.6,19.200028 V 4.7999725 C 21.6,3.4704066 20.529605,2.4 19.200028,2.4 Z M 9.5999176,4.7999725 V 5.9999587 H 13.199876 V 8.3999312 H 9.5999176 v 1.199986 h 1.1999864 c 0.899995,0 1.727984,0.3804012 2.247623,0.9659948 0.519594,0.584396 0.752397,1.317576 0.752397,2.034004 0,0.716395 -0.232803,1.451995 -0.752397,2.036424 -0.519594,0.585594 -1.347606,0.963596 -2.247623,0.963596 H 9.5999176 v 1.199987 H 8.3999312 V 15.599936 H 4.7999725 V 13.199964 H 8.3999312 V 11.999978 H 7.199945 c -0.8999952,0 -1.7277646,-0.378003 -2.247623,-0.963597 C 4.4323646,10.451986 4.1999244,9.7163856 4.1999244,8.9999568 c 0,-0.7166362 0.2324402,-1.4494649 0.7523976,-2.0343331 0.5198364,-0.5848792 1.3476058,-0.965632 2.247623,-0.965632 H 8.3999312 V 4.799989 Z M 7.199945,8.3999312 c -0.3000021,0 -0.3722389,0.07164 -0.4523956,0.1617545 -0.080035,0.09012 -0.1475975,0.2550011 -0.1475975,0.4382387 0,0.1833588 0.067562,0.3505248 0.1475975,0.4406364 0.080156,0.08976 0.1523935,0.1593564 0.4523956,0.1593564 h 1.1999862 v -1.199986 z m 2.4000826,4.8000558 h 1.1999854 c 0.300003,0 0.371998,-0.0696 0.452397,-0.159599 0.0804,-0.09 0.147597,-0.256806 0.147597,-0.440395 0,-0.1836 -0.0672,-0.347994 -0.147597,-0.437997 -0.0803,-0.0902 -0.1518,-0.1617 -0.452099,-0.1617 l -1.2001346,-1.48e-4 z m 3.5999594,3.599958 h 5.99993 v 2.399972 h -5.99993 z"
       id="path1" />
  </g>
</svg>
