<?xml version="1.0" encoding="UTF-8" standalone="no"?>
<svg
   width="24"
   height="24"
   version="1.1"
   id="svg2"
   sodipodi:docname="guitarix-tray.svg"
   xmlns:inkscape="http://www.inkscape.org/namespaces/inkscape"
   xmlns:sodipodi="http://sodipodi.sourceforge.net/DTD/sodipodi-0.dtd"
   xmlns="http://www.w3.org/2000/svg"
   xmlns:svg="http://www.w3.org/2000/svg">
  <sodipodi:namedview
     id="namedview2"
     pagecolor="#ffffff"
     bordercolor="#000000"
     borderopacity="0.25"
     inkscape:showpageshadow="2"
     inkscape:pageopacity="0.0"
     inkscape:pagecheckerboard="0"
     inkscape:deskcolor="#d1d1d1" />
  <defs
     id="defs1">
    <style
       id="current-color-scheme"
       type="text/css">.ColorScheme-Text {color:#d8dee9} .ColorScheme-Highlight {color:#3b4252}</style>
  </defs>
  <path
     style="fill:currentColor;stroke-width:1.2"
     class="ColorScheme-Text"
     d="M 3.3609376,8.4 C 2.8290974,8.4 2.4,8.8524228 2.4,9.4148436 V 20.585156 C 2.4,21.147577 2.8290974,21.6 3.3609376,21.6 H 20.639063 C 21.170903,21.6 21.6,21.147577 21.6,20.585156 V 9.4148436 C 21.6,8.8524228 21.170903,8.4 20.639063,8.4 Z M 7.8,10.8 A 4.2,4.2 0 0 1 12,15 4.2,4.2 0 0 1 16.2,10.8 4.2,4.2 0 0 1 20.4,15 4.2,4.2 0 0 1 16.2,19.2 4.2,4.2 0 0 1 12,15 4.2,4.2 0 0 1 7.8,19.2 4.2,4.2 0 0 1 3.6,15 4.2,4.2 0 0 1 7.8,10.8 Z m 0,2.4 A 1.8,1.8 0 0 0 6,15 1.8,1.8 0 0 0 7.8,16.8 1.8,1.8 0 0 0 9.6,15 1.8,1.8 0 0 0 7.8,13.2 Z m 8.4,0 A 1.8,1.8 0 0 0 14.4,15 1.8,1.8 0 0 0 16.2,16.8 1.8,1.8 0 0 0 18,15 1.8,1.8 0 0 0 16.2,13.2 Z"
     id="path1" />
  <path
     style="fill:currentColor;stroke-width:1.2"
     class="ColorScheme-Text"
     d="M 3.3609376,2.4 C 2.8290974,2.4 2.4,2.7831454 2.4,3.2578126 V 7.5421874 C 2.4,8.0168548 2.8290974,8.4 3.3609376,8.4 H 20.639063 C 21.170903,8.4 21.6,8.0168546 21.6,7.5421874 V 3.2578126 C 21.6,2.7831454 21.170903,2.4 20.639063,2.4 Z m 1.284375,1.2 H 19.354687 C 19.933728,3.6 20.4,3.9621976 20.4,4.4109374 V 6.3890626 C 20.4,6.8378024 19.933728,7.2 19.354687,7.2 H 4.6453126 C 4.0662716,7.2 3.6,6.8378024 3.6,6.3890626 V 4.4109374 C 3.6,3.9621974 4.0662716,3.6 4.6453126,3.6 Z M 5.4,4.8 A 0.6,0.6 0 0 0 4.8,5.4 0.6,0.6 0 0 0 5.4,6 0.6,0.6 0 0 0 6,5.4 0.6,0.6 0 0 0 5.4,4.8 Z m 2.4,0 A 0.6,0.6 0 0 0 7.2,5.4 0.6,0.6 0 0 0 7.8,6 0.6,0.6 0 0 0 8.4,5.4 0.6,0.6 0 0 0 7.8,4.8 Z m 2.4,0 A 0.6,0.6 0 0 0 9.6,5.4 0.6,0.6 0 0 0 10.2,6 0.6,0.6 0 0 0 10.8,5.4 0.6,0.6 0 0 0 10.2,4.8 Z m 7.8,0 V 6 h 1.2 V 4.8 Z"
     id="path2" />
</svg>
