<?xml version="1.0" encoding="UTF-8" standalone="no"?>
<svg
   width="24"
   height="24"
   version="1.1"
   id="svg1"
   sodipodi:docname="hangouts-available.svg"
   xmlns:inkscape="http://www.inkscape.org/namespaces/inkscape"
   xmlns:sodipodi="http://sodipodi.sourceforge.net/DTD/sodipodi-0.dtd"
   xmlns="http://www.w3.org/2000/svg"
   xmlns:svg="http://www.w3.org/2000/svg">
  <sodipodi:namedview
     id="namedview1"
     pagecolor="#ffffff"
     bordercolor="#000000"
     borderopacity="0.25"
     inkscape:showpageshadow="2"
     inkscape:pageopacity="0.0"
     inkscape:pagecheckerboard="0"
     inkscape:deskcolor="#d1d1d1" />
  <defs
     id="defs1">
    <style
       id="current-color-scheme"
       type="text/css">.ColorScheme-Text {color:#d8dee9} .ColorScheme-Highlight {color:#3b4252}</style>
  </defs>
  <g
     transform="translate(1,1)"
     style=""
     id="g1">
    <path
       style="fill:currentColor;stroke-width:1.2"
       class="ColorScheme-Text"
       d="m 11,1.4 c -4.6392,0 -8.4,3.7608 -8.4,8.4 0,4.6392 3.7608,8.4 8.4,8.4 v 2.4 c 0,0 8.4,-3.6 8.4,-10.8 0,-4.6392 -3.7608,-8.4 -8.4,-8.4 z m -4.2,6 h 2.4 c 0,0 0.6,0 0.6,0.6 v 3 c 0,1.452 -1.2,2.4 -2.16,2.4 C 7.4,13.4 7.4,13.1912 7.4,13.1912 V 12.44 c 0,0 0,-0.24 0.24,-0.24 0,0 0.96,-0.48 0.96,-1.2 H 6.8 c 0,0 -0.6,0 -0.6,-0.6 V 8 c 0,0 0,-0.6 0.6,-0.6 z m 4.8,0 H 14 c 0,0 0.6,0 0.6,0.6 v 3 c 0,1.452 -1.2,2.4 -2.16,2.4 -0.24,0 -0.24,-0.2088 -0.24,-0.2088 V 12.44 c 0,0 0,-0.24 0.24,-0.24 0,0 0.96,-0.48 0.96,-1.2 h -1.8 c 0,0 -0.6,0 -0.6,-0.6 V 8 c 0,0 0,-0.6 0.6,-0.6 z"
       id="path1" />
  </g>
</svg>
