<?xml version="1.0" encoding="UTF-8" standalone="no"?>
<svg
   width="24"
   height="24"
   version="1.1"
   id="svg1"
   sodipodi:docname="hangouts-working.svg"
   xmlns:inkscape="http://www.inkscape.org/namespaces/inkscape"
   xmlns:sodipodi="http://sodipodi.sourceforge.net/DTD/sodipodi-0.dtd"
   xmlns="http://www.w3.org/2000/svg"
   xmlns:svg="http://www.w3.org/2000/svg">
  <sodipodi:namedview
     id="namedview1"
     pagecolor="#ffffff"
     bordercolor="#000000"
     borderopacity="0.25"
     inkscape:showpageshadow="2"
     inkscape:pageopacity="0.0"
     inkscape:pagecheckerboard="0"
     inkscape:deskcolor="#d1d1d1" />
  <defs
     id="defs1">
    <style
       id="current-color-scheme"
       type="text/css">.ColorScheme-Text {color:#d8dee9} .ColorScheme-Highlight {color:#3b4252}</style>
  </defs>
  <g
     transform="translate(1,1)"
     style=""
     id="g1">
    <path
       style="fill:currentColor;stroke-width:1.2"
       class="ColorScheme-Text"
       d="m 11,1.4 c -4.6392,0 -8.4,3.7608 -8.4,8.4 0,4.6392 3.7608,8.4 8.4,8.4 v 2.4 C 11,20.6 19.4,17 19.4,9.8 19.4,5.1608 15.6392,1.4 11,1.4 Z M 7.4,8.6 A 1.2,1.2 0 0 1 8.6,9.8 1.2,1.2 0 0 1 7.4,11 1.2,1.2 0 0 1 6.2,9.8 1.2,1.2 0 0 1 7.4,8.6 Z m 3.6,0 A 1.2,1.2 0 0 1 12.2,9.8 1.2,1.2 0 0 1 11,11 1.2,1.2 0 0 1 9.8,9.8 1.2,1.2 0 0 1 11,8.6 Z m 3.6,0 A 1.2,1.2 0 0 1 15.8,9.8 1.2,1.2 0 0 1 14.6,11 1.2,1.2 0 0 1 13.4,9.8 1.2,1.2 0 0 1 14.6,8.6 Z"
       id="path1" />
  </g>
</svg>
