<?xml version="1.0" encoding="UTF-8" standalone="no"?>
<svg
   width="24"
   height="24"
   version="1.1"
   id="svg1"
   sodipodi:docname="harmony-tray.svg"
   xmlns:inkscape="http://www.inkscape.org/namespaces/inkscape"
   xmlns:sodipodi="http://sodipodi.sourceforge.net/DTD/sodipodi-0.dtd"
   xmlns="http://www.w3.org/2000/svg"
   xmlns:svg="http://www.w3.org/2000/svg">
  <sodipodi:namedview
     id="namedview1"
     pagecolor="#ffffff"
     bordercolor="#000000"
     borderopacity="0.25"
     inkscape:showpageshadow="2"
     inkscape:pageopacity="0.0"
     inkscape:pagecheckerboard="0"
     inkscape:deskcolor="#d1d1d1" />
  <defs
     id="defs1">
    <style
       id="current-color-scheme"
       type="text/css">.ColorScheme-Text {color:#d8dee9} .ColorScheme-Highlight {color:#3b4252}</style>
  </defs>
  <path
     style="fill:currentColor;stroke-width:1.2"
     class="ColorScheme-Text"
     d="m 11.999999,2.4 c -5.3184,0 -9.5999988,4.2816 -9.5999988,9.6 0,5.3184 4.2815988,9.6 9.5999988,9.6 C 17.3184,21.6 21.6,17.3184 21.6,12 21.6,6.6816 17.3184,2.4 11.999999,2.4 Z m 2.653127,4.8 c 0.245782,0 0.678927,0.1357883 0.827343,0.2601563 l 0.119532,0.1007808 -0.11484,0.3398438 c -0.26148,0.77568 -0.985601,4.2365851 -1.270314,6.0656251 -0.07524,0.483396 -0.182034,1.110527 -0.236718,1.394531 -0.11856,0.615588 -0.12299,0.849832 -0.0164,1.134376 0.16866,0.450264 0.16182,0.495525 -0.1125,0.621093 -0.135876,0.0622 -0.446798,0.14716 -0.691406,0.189844 -0.827292,0.14436 -1.080121,-0.03989 -1.080469,-0.7875 -2.48e-4,-0.503028 0.04612,-0.772321 0.363282,-2.092969 0.139632,-0.58146 0.253124,-1.102629 0.253124,-1.160157 0,-0.09739 -0.02374,-0.10422 -0.35625,-0.07031 -0.196392,0.02003 -0.796354,0.04081 -1.333594,0.04453 -0.537288,0.0037 -0.993288,0.02232 -1.0124996,0.04219 -0.0192,0.01987 -0.126162,0.439985 -0.2367192,0.932813 -0.110544,0.492828 -0.3079882,1.304344 -0.4406242,1.802344 -0.132636,0.498048 -0.2527236,1.05362 -0.2648436,1.235156 -0.014412,0.21564 -0.050436,0.357269 -0.105468,0.407813 -0.12504,0.114828 -0.742608,0.296045 -1.132032,0.332813 -0.47376,0.0492 -0.6419508,-0.159394 -0.6070308,-0.508595 0.031872,-0.313355 0.2176428,-0.990047 0.6820308,-2.475 0.785712,-2.51244 1.2800748,-5.369058 1.0710948,-6.1992184 -0.051936,-0.20634 -0.05928,-0.3109778 -0.021096,-0.3585937 0.118932,-0.1483081 0.5962056,-0.3105443 0.9890614,-0.3351563 0.8112604,-0.016861 0.7719884,0.284088 0.7453124,0.9375 -0.0239,0.5856604 -0.179701,1.6875414 -0.323437,2.4257814 -0.0446,0.229104 -0.0671,0.450295 -0.05156,0.492187 0.02342,0.06319 0.240616,0.07567 1.277344,0.075 0.687396,-4.26e-4 1.276556,-0.02008 1.310156,-0.04219 0.10488,-0.06901 0.166411,-0.302108 0.611719,-2.3226564 0.2382,-1.0808754 0.475236,-2.035717 0.525,-2.123437 0.113556,-0.2000872 0.392138,-0.358593 0.632811,-0.358593 z"
     id="path1" />
</svg>
