<?xml version="1.0" encoding="UTF-8" standalone="no"?>
<svg
   width="24"
   height="24"
   version="1.1"
   id="svg2"
   sodipodi:docname="hexchat-fileoffer.svg"
   xmlns:inkscape="http://www.inkscape.org/namespaces/inkscape"
   xmlns:sodipodi="http://sodipodi.sourceforge.net/DTD/sodipodi-0.dtd"
   xmlns="http://www.w3.org/2000/svg"
   xmlns:svg="http://www.w3.org/2000/svg">
  <sodipodi:namedview
     id="namedview2"
     pagecolor="#ffffff"
     bordercolor="#000000"
     borderopacity="0.25"
     inkscape:showpageshadow="2"
     inkscape:pageopacity="0.0"
     inkscape:pagecheckerboard="0"
     inkscape:deskcolor="#d1d1d1" />
  <defs
     id="defs1">
    <style
       id="current-color-scheme"
       type="text/css">.ColorScheme-Text {color:#d8dee9} .ColorScheme-Highlight {color:#3b4252}</style>
  </defs>
  <g
     style=""
     id="g2">
    <path
       style="fill:currentColor;stroke-width:1.2"
       class="ColorScheme-Text"
       d="M 6.5102304,3.6005679 C 6.0786091,3.6002301 5.6794764,3.82782 5.4627329,4.1978625 L 1.2634131,11.396857 c -0.2180006,0.372399 -0.2180006,0.832055 0,1.204453 l 4.1993198,7.19857 C 5.6793677,20.170086 6.0785208,20.40025 6.5102304,20.4 h 8.3842316 c 0.43095,-5.02e-4 0.829119,-0.230564 1.045372,-0.60012 l 4.196792,-7.19857 c 0.218001,-0.372398 0.218001,-0.832054 0,-1.204453 L 15.939834,4.1978625 C 15.723471,3.8284709 15.325325,3.6009811 14.894462,3.6005679 Z m 7.3371166,2.3995517 c 0.30902,-1.244e-4 0.596875,0.1482149 0.763942,0.3936789 v 0.00234 L 10.702304,10.302576 6.7937435,6.393591 C 6.9529655,6.1590656 7.2229791,6.0122467 7.5177241,5.9999292 Z M 5.5049049,8.4981293 9.0057744,11.998999 5.5049049,15.500293 3.6254459,12.430496 c -0.1643255,-0.266515 -0.1643255,-0.595842 0,-0.862357 L 5.5047773,8.4983843 Z m 10.3950531,0 1.879331,3.0697547 c 0.164325,0.266515 0.164325,0.595842 0,0.862357 l -1.87946,3.070223 -3.500869,-3.501296 3.500869,-3.5008687 z m -5.197527,5.1975267 3.906435,3.906435 c -0.166025,0.245688 -0.452907,0.394869 -0.761562,0.396021 H 7.557643 C 7.2486261,17.998241 6.9607714,17.849908 6.793701,17.60445 l 3.90856,-3.908986 z"
       id="path1" />
    <path
       style="fill:currentColor;stroke-width:1.2"
       class="ColorScheme-Text"
       d="M 18.547913,3.6005985 C 18.031376,3.6 17.734392,4.1582864 17.99643,4.5636999 l 1.142147,1.7574794 1.136492,1.7574794 c 0.278873,0.4284546 0.973496,0.4284546 1.252369,0 L 22.669203,6.3212643 23.805439,4.56387 C 24.078831,4.1352692 23.732935,3.6022976 23.179488,3.6 Z"
       id="path2" />
  </g>
</svg>
