<?xml version="1.0" encoding="UTF-8" standalone="no"?>
<svg
   width="24"
   height="24"
   version="1.1"
   id="svg1"
   sodipodi:docname="hipchat4-attention.svg"
   xmlns:inkscape="http://www.inkscape.org/namespaces/inkscape"
   xmlns:sodipodi="http://sodipodi.sourceforge.net/DTD/sodipodi-0.dtd"
   xmlns="http://www.w3.org/2000/svg"
   xmlns:svg="http://www.w3.org/2000/svg">
  <sodipodi:namedview
     id="namedview1"
     pagecolor="#ffffff"
     bordercolor="#000000"
     borderopacity="0.25"
     inkscape:showpageshadow="2"
     inkscape:pageopacity="0.0"
     inkscape:pagecheckerboard="0"
     inkscape:deskcolor="#d1d1d1" />
  <defs
     id="defs1">
    <style
       id="current-color-scheme"
       type="text/css">.ColorScheme-Text {color:#d8dee9} .ColorScheme-Highlight {color:#3b4252}</style>
  </defs>
  <g
     transform="translate(1 1.0027)"
     style=""
     id="g1">
    <path
       style="fill:currentColor;stroke-width:1.2"
       class="ColorScheme-Text"
       d="m 11.000037,1.3380119 c -5.24136,0 -9.6,3.99372 -9.6,9.0000001 0,5.00628 4.35864,9 9.6,9 a 1.20012,1.20012 0 0 0 0.0024,0 c 0.734832,-0.0016 1.45572,-0.142164 2.17032,-0.3 1.47384,0.970188 3.19704,1.84692 5.24064,1.47888 a 1.20012,1.20012 0 0 0 0.658596,-2.00388 c -0.6996,-0.738 -1.0692,-1.1988 -1.0908,-2.1828 1.5972,-1.6416 2.616,-3.732 2.6184,-5.9916 0,-5.0058001 -4.3584,-8.9995201 -9.6,-8.9995201 z m 0,2.4 c 4.03608,0 7.19856,2.98932 7.2,6.5976001 -0.0018,1.79928 -0.800448,3.52596 -2.2476,4.78356 a 1.20012,1.20012 0 0 0 -0.41016,0.843744 c -0.0388,0.754536 0.194004,1.32828 0.4125,1.90308 -0.5994,-0.244068 -1.20756,-0.593124 -1.86324,-1.04766 a 1.20012,1.20012 0 0 0 -1.008,-0.1692 c -0.6744,0.1896 -1.3764,0.2868 -2.0832,0.288 -4.03704,0 -7.2,-2.99064 -7.2,-6.6 -2e-7,-3.6093601 3.16296,-6.6000001 7.2,-6.6000001 z m 3.61872,8.2101601 a 0.900096,0.900096 0 0 0 -0.56016,0.18984 c -1.086036,0.818544 -2.08824,1.1817 -3.06096,1.183596 -0.97272,0.0019 -1.96776,-0.355956 -3.0516,-1.181256 a 0.90051881,0.90051881 0 1 0 -1.092192,1.43208 c 1.31616,1.0023 2.72112,1.55196 4.1484,1.5492 1.42728,-0.0028 2.82516,-0.556548 4.13904,-1.54692 a 0.900096,0.900096 0 0 0 -0.52266,-1.6266 z"
       id="path1" />
    <circle
       style="fill:currentColor;stroke-width:1.2"
       class="ColorScheme-Text"
       cx="11.000037"
       cy="8.6059322"
       r="2.4000001"
       id="circle1" />
  </g>
</svg>
