<?xml version="1.0" encoding="UTF-8" standalone="no"?>
<svg
   width="24"
   height="24"
   version="1"
   id="svg1"
   sodipodi:docname="hp-indicator.svg"
   xmlns:inkscape="http://www.inkscape.org/namespaces/inkscape"
   xmlns:sodipodi="http://sodipodi.sourceforge.net/DTD/sodipodi-0.dtd"
   xmlns="http://www.w3.org/2000/svg"
   xmlns:svg="http://www.w3.org/2000/svg">
  <sodipodi:namedview
     id="namedview1"
     pagecolor="#ffffff"
     bordercolor="#000000"
     borderopacity="0.25"
     inkscape:showpageshadow="2"
     inkscape:pageopacity="0.0"
     inkscape:pagecheckerboard="0"
     inkscape:deskcolor="#d1d1d1" />
  <defs
     id="defs1">
    <style
       id="current-color-scheme"
       type="text/css">.ColorScheme-Text {color:#d8dee9} .ColorScheme-Highlight {color:#3b4252}</style>
  </defs>
  <path
     style="fill:currentColor;stroke-width:1.2"
     class="ColorScheme-Text"
     d="m 11.999991,2.3999353 c -0.192312,0 -0.380088,0.017082 -0.569532,0.028124 -0.565248,1.61268 -1.140456,3.25944 -1.6969198,4.83516 0.7870798,0.029292 2.0042398,0.147432 2.5523998,0.857808 0.258228,0.33468 0.235776,0.858096 0.08437,1.26564 -0.712152,1.9977607 -1.44336,3.9907207 -2.1516,5.9882407 -0.6258598,0.0088 -1.2490798,-0.0053 -1.8749998,0 -0.087589,-0.0018 -0.171396,0.01382 -0.255468,-0.01876 0.797508,-2.19156 1.5786,-4.40364 2.3624398,-6.6024007 -0.373224,-0.00528 -0.7429678,0.00708 -1.1179678,0 -0.05678,0.120156 -0.1045236,0.254268 -0.14766,0.379692 -0.72228,2.0269207 -1.45152,4.0442407 -2.17032,6.0726007 -0.03433,0.05149 -0.024481,0.168744 -0.1054692,0.168744 -0.598164,0.0018 -1.196592,-0.0036 -1.79292,0 -0.10824,-0.0012 -0.21156,0.0108 -0.31632,-0.0204 1.42512,-3.948 2.85864,-8.4135607 4.28676,-12.5040007 -3.88524,1.22808 -6.68676,4.84824 -6.68676,9.1500007 0,4.4142 2.95236,8.10384 6.99612,9.23436 1.56588,-4.35432 3.37128,-9.26436 4.89372,-13.5348007 0.01531,-0.032376 0.02693,-0.112344 0.04219,-0.145308 v -0.00228 c 1.00398,0.01056 2.03352,0.019344 3.03744,0.021096 0.328356,0.00708 0.650328,-0.036624 0.970308,0.063276 0.367968,0.0999 0.708516,0.38676 0.820308,0.761724 0.0845,0.293112 0.02038,0.601488 -0.08437,0.883596 -0.639492,1.8670807 -1.29912,3.7078807 -1.95936,5.5664407 -0.165048,0.484548 -0.91638,0.784404 -1.41324,0.801564 -0.783888,0.0154 -1.56156,0.0056 -2.34372,0.0211 -0.650112,1.8114 -1.6032,3.99744 -2.30856,5.88276 0.312,0.03 0.6288,0.0468 0.9492,0.0468 5.3184,0 9.6,-4.2816 9.6,-9.6 0,-5.3184007 -4.2816,-9.6000007 -9.6,-9.6000007 z M 9.3961112,21.233935 c 0.26712,0.07468 0.537144,0.142812 0.8132758,0.194532 -0.2749678,-0.054 -0.5466478,-0.119988 -0.8132758,-0.194532 z M 9.0867512,2.8499353 c 0.37224,-0.11772 0.75444,-0.21108 1.1456398,-0.28128 -0.3899998,0.07224 -0.7735198,0.16368 -1.1456398,0.28128 z m 1.1456398,-0.28128 c 0.389856,-0.069864 0.788556,-0.1168716 1.192968,-0.140628 -0.404484,0.023772 -0.80376,0.068705 -1.192968,0.140628 z m 5.98596,6.16176 c -0.0318,-0.00348 -0.06272,-0.0048 -0.09376,0.00468 v -0.0024 c -0.02069,0.00528 -0.04788,0.02502 -0.06328,0.042192 -0.684012,1.9153197 -1.35996,3.8257197 -2.04612,5.7374397 0.376764,0.0018 0.762744,0.02597 1.139064,0 0.663744,-1.92936 1.3512,-3.85368 2.025,-5.7773997 -0.288732,-0.00708 -0.574356,0.00528 -0.86484,0 -0.03102,0.00444 -0.0643,-0.0012 -0.0961,-0.00468 z m -5.93436,12.7103997 c 0.250356,0.04486 0.50256,0.08732 0.759372,0.1125 -0.25728,-0.02526 -0.509148,-0.06542 -0.759372,-0.1125 z"
     id="path1" />
</svg>
