<?xml version="1.0" encoding="UTF-8" standalone="no"?>
<svg
   width="64"
   height="64"
   version="1.1"
   id="svg73"
   sodipodi:docname="image-loading.svg"
   inkscape:version="1.4 (e7c3feb100, 2024-10-09)"
   xmlns:inkscape="http://www.inkscape.org/namespaces/inkscape"
   xmlns:sodipodi="http://sodipodi.sourceforge.net/DTD/sodipodi-0.dtd"
   xmlns="http://www.w3.org/2000/svg"
   xmlns:svg="http://www.w3.org/2000/svg"
   xmlns:rdf="http://www.w3.org/1999/02/22-rdf-syntax-ns#"
   xmlns:cc="http://creativecommons.org/ns#"
   xmlns:dc="http://purl.org/dc/elements/1.1/">
  <metadata
     id="metadata77">
    <rdf:RDF>
      <cc:Work
         rdf:about="">
        <dc:format>image/svg+xml</dc:format>
        <dc:type
           rdf:resource="http://purl.org/dc/dcmitype/StillImage" />
      </cc:Work>
    </rdf:RDF>
  </metadata>
  <sodipodi:namedview
     pagecolor="#f5f7fa"
     bordercolor="#666666"
     borderopacity="1"
     objecttolerance="10"
     gridtolerance="10"
     guidetolerance="10"
     inkscape:pageopacity="0"
     inkscape:pageshadow="2"
     inkscape:window-width="1183"
     inkscape:window-height="973"
     id="namedview75"
     showgrid="false"
     inkscape:zoom="3.1445312"
     inkscape:cx="18.921739"
     inkscape:cy="8.1093169"
     inkscape:window-x="35"
     inkscape:window-y="32"
     inkscape:window-maximized="0"
     inkscape:current-layer="g877"
     inkscape:document-rotation="0"
     inkscape:pagecheckerboard="0"
     inkscape:showpageshadow="2"
     inkscape:deskcolor="#d1d1d1" />
  <defs
     id="defs29">
    <style
       id="current-color-scheme"
       type="text/css">.ColorScheme-Text {color:#d8dee9} .ColorScheme-Highlight {color:#3b4252}</style>
  </defs>
  <g
     id="g877"
     transform="matrix(1.1,0,0,1.1,-3.1845928,-3.2065454)"
     style="">
    <path
       style="fill:#f5f7fa;fill-opacity:1;stroke-width:0.245311"
       d=""
       id="path3" />
    <rect
       style="fill:#000000;stroke:none;stroke-width:1.80179;stroke-dasharray:none;filter:url(#filter1283)"
       id="rect246-1"
       width="43.030102"
       height="55.00037"
       x="10.516255"
       y="4.6219635"
       rx="6.3748298"
       ry="8.1482029" />
    <rect
       style="fill:#000000;stroke:url(#linearGradient885);stroke-width:1.96273;stroke-dasharray:none"
       id="rect246"
       width="42.186375"
       height="53.921928"
       x="10.938119"
       y="5.1611834"
       rx="6.2498331"
       ry="6.2181816" />
    <rect
       style="fill:currentColor;fill-opacity:1;stroke:none;stroke-width:1.6935;stroke-dasharray:none"
       id="rect246-5"
       width="40.180416"
       height="52.033363"
       x="11.941094"
       y="6.1054673"
       rx="5.1087275"
       ry="5.1087275"
       class="ColorScheme-Text" />
    <path
       id="path5"
       style="fill:#999999;fill-opacity:1;stroke:none;stroke-width:1.09091;stroke-dasharray:none;stroke-opacity:0.3"
       d="m 46.197878,26.88302 c 0,2.17074 -1.760369,3.927272 -3.927272,3.927272 -2.170739,0 -3.927273,-1.756532 -3.927273,-3.927272 0,-2.170739 1.756534,-3.927272 3.927273,-3.927272 2.166903,0 3.927272,1.756533 3.927272,3.927272 z m 0,0 m -9.818181,0 c 0,2.17074 -1.760369,3.927272 -3.927273,3.927272 -2.170738,0 -3.927272,-1.756532 -3.927272,-3.927272 0,-2.170739 1.756534,-3.927272 3.927272,-3.927272 2.166904,0 3.927273,1.756533 3.927273,3.927272 z m 0,0 m -9.818182,0 c 0,2.17074 -1.76037,3.927272 -3.927272,3.927272 -2.17074,0 -3.927274,-1.756532 -3.927274,-3.927272 0,-2.170739 1.756534,-3.927272 3.927274,-3.927272 2.166902,0 3.927272,1.756533 3.927272,3.927272 z m 0,0" />
    <path
       d="m 18.713618,52.300098 v -5.19273 h 0.654546 v 4.610911 h 2.269092 v 0.581819 z m 7.112733,-1.956365 q 0,0.967273 -0.494545,1.498183 -0.487274,0.530909 -1.323638,0.530909 -0.516364,0 -0.923637,-0.232727 -0.4,-0.24 -0.632728,-0.69091 -0.232727,-0.458182 -0.232727,-1.105455 0,-0.967273 0.487274,-1.49091 0.487272,-0.523637 1.323637,-0.523637 0.530909,0 0.930909,0.24 0.407273,0.232728 0.632728,0.683638 0.232727,0.443636 0.232727,1.090909 z m -2.945457,0 q 0,0.690909 0.269092,1.098182 0.276364,0.400001 0.872728,0.400001 0.58909,0 0.865455,-0.400001 0.276364,-0.407273 0.276364,-1.098182 0,-0.69091 -0.276364,-1.083637 -0.276365,-0.392728 -0.872729,-0.392728 -0.596364,0 -0.865454,0.392728 -0.269092,0.392727 -0.269092,1.083637 z m 5.432728,-2.007274 q 0.712728,0 1.054547,0.312727 0.341817,0.312728 0.341817,0.996365 v 2.654547 H 29.244532 L 29.120896,51.74737 h -0.02909 q -0.254546,0.320001 -0.538182,0.472727 -0.276364,0.152728 -0.770909,0.152728 -0.53091,0 -0.880001,-0.276364 -0.349091,-0.283637 -0.349091,-0.880001 0,-0.581818 0.458182,-0.894546 0.458181,-0.32 1.410909,-0.34909 l 0.66182,-0.02182 v -0.232727 q 0,-0.487273 -0.21091,-0.676365 -0.21091,-0.189091 -0.596364,-0.189091 -0.305455,0 -0.581819,0.09455 -0.276363,0.08728 -0.516363,0.203637 l -0.196364,-0.48 q 0.254546,-0.138183 0.603636,-0.232728 0.349091,-0.10182 0.727274,-0.10182 z m 0.189091,2.080001 q -0.727273,0.02909 -1.01091,0.232728 -0.276363,0.203636 -0.276363,0.574546 0,0.327272 0.196364,0.48 0.203636,0.152727 0.516364,0.152727 0.494545,0 0.821818,-0.269091 0.327273,-0.276364 0.327273,-0.843636 v -0.349092 z m 3.796372,1.956365 q -0.727273,0 -1.163638,-0.501819 -0.436363,-0.509091 -0.436363,-1.512728 0,-1.003637 0.436363,-1.512728 0.443638,-0.516364 1.170911,-0.516364 0.450908,0 0.734545,0.167273 0.29091,0.167273 0.472728,0.407273 h 0.04363 q -0.0073,-0.09455 -0.02909,-0.276364 -0.01454,-0.189091 -0.01454,-0.298182 v -1.556364 h 0.64 v 5.527276 h -0.516364 l -0.09455,-0.523637 h -0.02909 q -0.174546,0.247273 -0.465455,0.421819 -0.29091,0.174545 -0.749091,0.174545 z m 0.10182,-0.530909 q 0.618181,0 0.865454,-0.334546 0.254545,-0.341818 0.254545,-1.025455 v -0.116364 q 0,-0.727273 -0.24,-1.112727 -0.24,-0.392728 -0.887272,-0.392728 -0.516364,0 -0.778182,0.414545 -0.254547,0.407274 -0.254547,1.098183 0,0.698182 0.254547,1.083636 0.261818,0.385456 0.785455,0.385456 z m 3.316363,-4.901821 q 0.145456,0 0.254546,0.10182 0.116364,0.09455 0.116364,0.305455 0,0.203636 -0.116364,0.305454 -0.109092,0.10182 -0.254546,0.10182 -0.16,0 -0.26909,-0.10182 -0.109092,-0.10182 -0.109092,-0.305454 0,-0.21091 0.109092,-0.305455 0.109092,-0.10182 0.26909,-0.10182 z m 0.312728,1.461818 v 3.898185 h -0.64 v -3.898185 z m 3.112725,-0.07273 q 0.698183,0 1.054547,0.341819 0.356364,0.334546 0.356364,1.090909 v 2.538184 h -0.632728 v -2.494547 q 0,-0.938183 -0.872729,-0.938183 -0.647273,0 -0.894546,0.363637 -0.247272,0.363636 -0.247272,1.047274 v 2.021819 H 37.266356 V 48.40191 h 0.516364 l 0.09455,0.53091 h 0.03636 q 0.189091,-0.305455 0.523637,-0.450909 0.334545,-0.152728 0.705454,-0.152728 z m 4.000003,0 q 0.385456,0 0.69091,0.145455 0.312728,0.145455 0.53091,0.443637 h 0.03636 l 0.08728,-0.516365 h 0.509092 v 3.96364 q 0,0.836364 -0.429091,1.258182 -0.421818,0.421818 -1.316364,0.421818 -0.858183,0 -1.403638,-0.247272 v -0.589092 q 0.574546,0.305455 1.440002,0.305455 0.501818,0 0.785455,-0.298182 0.290909,-0.290909 0.290909,-0.8 v -0.152728 q 0,-0.08728 0.0073,-0.247273 0.0073,-0.167273 0.01454,-0.232727 h -0.02909 q -0.392728,0.589091 -1.207274,0.589091 -0.756363,0 -1.185454,-0.530909 -0.42182,-0.53091 -0.42182,-1.483638 0,-0.930909 0.42182,-1.476363 0.429091,-0.552729 1.178181,-0.552729 z m 0.08728,0.53818 q -0.487273,0 -0.756365,0.392728 -0.26909,0.385455 -0.26909,1.105455 0,0.72 0.261818,1.105456 0.26909,0.378181 0.778182,0.378181 0.589091,0 0.858183,-0.312727 0.269091,-0.32 0.269091,-1.025455 v -0.152728 q 0,-0.8 -0.276365,-1.141818 Q 43.819091,48.867363 43.23,48.867363 Z"
       id="text5786"
       style="font-size:6.06061px;text-align:center;text-anchor:middle;fill:#999999;stroke-width:2.18182"
       aria-label="Loading" />
  </g>
  <path
     id="gradient-path1"
     style="baseline-shift:baseline;display:inline;overflow:visible;opacity:0.3;vector-effect:none;fill:url(#linearGradient3);stroke-width:1.32;enable-background:accumulate;stop-color:#000000;stop-opacity:1"
     d="m 15.721875,1.3929687 c -4.385086,0 -7.9523436,3.5455059 -7.9523436,7.9171875 V 54.945312 c 0,4.371682 3.5672576,7.919532 7.9523436,7.919532 h 32.655468 c 4.385087,0 7.954689,-3.54785 7.954689,-7.919532 V 9.3101562 c 0,-4.3716816 -3.569602,-7.9171875 -7.954689,-7.9171875 z" />
</svg>
