<?xml version="1.0" encoding="UTF-8" standalone="no"?>
<svg
   width="64"
   height="64"
   version="1.1"
   id="svg73"
   sodipodi:docname="image-missing.svg"
   inkscape:version="1.4 (e7c3feb100, 2024-10-09)"
   xmlns:inkscape="http://www.inkscape.org/namespaces/inkscape"
   xmlns:sodipodi="http://sodipodi.sourceforge.net/DTD/sodipodi-0.dtd"
   xmlns="http://www.w3.org/2000/svg"
   xmlns:svg="http://www.w3.org/2000/svg"
   xmlns:rdf="http://www.w3.org/1999/02/22-rdf-syntax-ns#"
   xmlns:cc="http://creativecommons.org/ns#"
   xmlns:dc="http://purl.org/dc/elements/1.1/">
  <metadata
     id="metadata77">
    <rdf:RDF>
      <cc:Work
         rdf:about="">
        <dc:format>image/svg+xml</dc:format>
        <dc:type
           rdf:resource="http://purl.org/dc/dcmitype/StillImage" />
      </cc:Work>
    </rdf:RDF>
  </metadata>
  <sodipodi:namedview
     pagecolor="#f5f7fa"
     bordercolor="#666666"
     borderopacity="1"
     objecttolerance="10"
     gridtolerance="10"
     guidetolerance="10"
     inkscape:pageopacity="0"
     inkscape:pageshadow="2"
     inkscape:window-width="1183"
     inkscape:window-height="973"
     id="namedview75"
     showgrid="false"
     inkscape:zoom="4.4470387"
     inkscape:cx="19.001409"
     inkscape:cy="8.2077092"
     inkscape:window-x="35"
     inkscape:window-y="32"
     inkscape:window-maximized="0"
     inkscape:current-layer="g877"
     inkscape:document-rotation="0"
     inkscape:pagecheckerboard="0"
     inkscape:showpageshadow="2"
     inkscape:deskcolor="#d1d1d1" />
  <defs
     id="defs29">
    <style
       id="current-color-scheme"
       type="text/css">.ColorScheme-Text {color:#d8dee9} .ColorScheme-Highlight {color:#3b4252}</style>
  </defs>
  <g
     id="g877"
     transform="matrix(1.1,0,0,1.1,-3.1845928,-3.2065454)"
     style="">
    <path
       style="fill:#f5f7fa;fill-opacity:1;stroke-width:0.245311"
       d=""
       id="path3" />
    <rect
       style="fill:#000000;stroke:none;stroke-width:1.80179;stroke-dasharray:none;filter:url(#filter1283)"
       id="rect246-1"
       width="43.030102"
       height="55.00037"
       x="10.516255"
       y="4.6219635"
       rx="6.3748298"
       ry="8.1482029" />
    <rect
       style="fill:#000000;stroke:url(#linearGradient885);stroke-width:1.96273;stroke-dasharray:none"
       id="rect246"
       width="42.186375"
       height="53.921928"
       x="10.938119"
       y="5.1611834"
       rx="6.2498331"
       ry="6.2181816" />
    <rect
       style="fill:currentColor;fill-opacity:1;stroke:none;stroke-width:1.6935;stroke-dasharray:none"
       id="rect246-5"
       width="40.180416"
       height="52.033363"
       x="11.941094"
       y="6.1054673"
       rx="5.1087275"
       ry="5.1087275"
       class="ColorScheme-Text" />
    <path
       d="m 31.787382,14.209418 c -0.808693,-0.04478 -1.596506,0.43568 -2.211235,1.489076 L 19.97025,33.522672 c -0.820634,1.480125 0.0746,3.601834 1.680065,3.601834 h 20.226393 c 1.506982,0 2.924441,-1.781521 1.874031,-3.601834 L 34.046365,15.793988 c -0.614729,-0.993714 -1.450283,-1.539809 -2.258983,-1.58457 z m 0.09548,6.051805 c 0.838541,-0.02684 1.61143,0.749013 1.58457,1.587552 v 6.051804 c 0.01188,0.811684 -0.72216,1.536825 -1.536825,1.536825 -0.811683,0 -1.548762,-0.725141 -1.536824,-1.536825 v -6.051804 c -0.01188,-0.719173 0.546094,-1.402538 1.250346,-1.539807 0.07759,-0.02088 0.158163,-0.0358 0.238733,-0.04774 z m 0.04776,10.713006 c 0.850475,0 1.536824,0.689329 1.536824,1.539804 0,0.847495 -0.686349,1.536826 -1.536824,1.536826 -0.847488,0 -1.536825,-0.689331 -1.536825,-1.536826 0,-0.850475 0.689337,-1.539804 1.536825,-1.539804 z m 0,0"
       id="path3-5"
       style="fill:#999999;stroke:none;stroke-width:1.32;stroke-dasharray:none;stroke-opacity:0.3" />
    <path
       d="m 25.619308,49.69646 q 0,0.807272 -0.276365,1.41091 -0.269091,0.596364 -0.800001,0.930909 -0.530908,0.334546 -1.316364,0.334546 -0.807273,0 -1.345455,-0.334546 -0.530909,-0.334545 -0.792727,-0.938183 -0.261819,-0.603636 -0.261819,-1.410909 0,-0.800001 0.261819,-1.396365 0.261818,-0.596364 0.792727,-0.930909 0.538182,-0.334546 1.352729,-0.334546 0.778182,0 1.30909,0.334546 0.53091,0.327272 0.800001,0.930909 0.276365,0.596364 0.276365,1.403638 z m -4.101821,0 q 0,0.981818 0.414545,1.549092 0.414546,0.56 1.294546,0.56 0.887273,0 1.294547,-0.56 0.407273,-0.567274 0.407273,-1.549092 0,-0.98182 -0.407273,-1.534547 -0.407274,-0.56 -1.287273,-0.56 -0.880001,0 -1.30182,0.56 -0.414545,0.552727 -0.414545,1.534547 z m 5.80364,-1.301819 q 0,0.290909 -0.03636,0.545454 h 0.04363 q 0.18909,-0.298182 0.50909,-0.450908 0.327274,-0.152728 0.705455,-0.152728 0.712728,0 1.069092,0.341818 0.356364,0.334545 0.356364,1.083637 v 2.538184 h -0.632727 v -2.494547 q 0,-0.938183 -0.872728,-0.938183 -0.654546,0 -0.901819,0.370909 -0.24,0.363637 -0.24,1.047274 v 2.014547 h -0.640001 v -5.527276 h 0.640001 z m 9.949099,3.905457 H 36.50659 l -2.778184,-4.312731 h -0.02909 q 0.01454,0.254547 0.03636,0.632729 0.02182,0.378181 0.02182,0.778182 v 2.90182 H 33.15386 v -5.19273 h 0.756363 l 2.770911,4.298184 h 0.02909 q -0.0073,-0.116364 -0.02182,-0.349091 -0.0073,-0.232728 -0.02182,-0.509092 -0.0073,-0.276363 -0.0073,-0.509091 v -2.93091 h 0.610909 z m 4.712732,-1.956365 q 0,0.967273 -0.494546,1.498183 -0.487273,0.530909 -1.323637,0.530909 -0.516363,0 -0.923638,-0.232727 -0.399999,-0.24 -0.632727,-0.69091 -0.232727,-0.458182 -0.232727,-1.105455 0,-0.967273 0.487273,-1.49091 0.487274,-0.523637 1.323638,-0.523637 0.530908,0 0.930909,0.24 0.407273,0.232728 0.632728,0.683638 0.232727,0.443636 0.232727,1.090909 z m -2.945457,0 q 0,0.690909 0.269092,1.098182 0.276363,0.400001 0.872727,0.400001 0.589092,0 0.865456,-0.400001 0.276363,-0.407273 0.276363,-1.098182 0,-0.69091 -0.276363,-1.083637 -0.276364,-0.392728 -0.872728,-0.392728 -0.596364,0 -0.865455,0.392728 -0.269092,0.392727 -0.269092,1.083637 z m 4.523638,0.494546 h -0.414546 l -0.181818,-3.730911 h 0.778182 z M 42.89932,51.90737 q 0,-0.26909 0.130909,-0.378182 0.130909,-0.109092 0.32,-0.109092 0.181818,0 0.312727,0.109092 0.138183,0.109092 0.138183,0.378182 0,0.261818 -0.138183,0.378182 -0.130909,0.116364 -0.312727,0.116364 -0.189091,0 -0.32,-0.116364 Q 42.89932,52.169188 42.89932,51.90737 Z"
       id="text5786"
       style="font-size:6.06061px;text-align:center;text-anchor:middle;fill:#999999;stroke-width:2.18182"
       aria-label="Oh No!" />
  </g>
  <path
     id="gradient-path1"
     style="baseline-shift:baseline;display:inline;overflow:visible;opacity:0.3;vector-effect:none;fill:url(#linearGradient3);stroke-width:1.32;enable-background:accumulate;stop-color:#000000;stop-opacity:1"
     d="m 15.721875,1.3929687 c -4.385086,0 -7.9523436,3.5455059 -7.9523436,7.9171875 V 54.945312 c 0,4.371682 3.5672576,7.919532 7.9523436,7.919532 h 32.655468 c 4.385087,0 7.954689,-3.54785 7.954689,-7.919532 V 9.3101562 c 0,-4.3716816 -3.569602,-7.9171875 -7.954689,-7.9171875 z" />
</svg>
