<?xml version="1.0" encoding="UTF-8" standalone="no"?>
<svg
   width="24"
   height="24"
   version="1.1"
   id="svg2"
   sodipodi:docname="indicator-keyboard-Ru-8.svg"
   xmlns:inkscape="http://www.inkscape.org/namespaces/inkscape"
   xmlns:sodipodi="http://sodipodi.sourceforge.net/DTD/sodipodi-0.dtd"
   xmlns="http://www.w3.org/2000/svg"
   xmlns:svg="http://www.w3.org/2000/svg">
  <sodipodi:namedview
     id="namedview2"
     pagecolor="#ffffff"
     bordercolor="#000000"
     borderopacity="0.25"
     inkscape:showpageshadow="2"
     inkscape:pageopacity="0.0"
     inkscape:pagecheckerboard="0"
     inkscape:deskcolor="#d1d1d1" />
  <defs
     id="defs1">
    <style
       id="current-color-scheme"
       type="text/css">.ColorScheme-Text {color:#d8dee9} .ColorScheme-Highlight {color:#3b4252}</style>
  </defs>
  <g
     transform="translate(1,1)"
     style=""
     id="g2">
    <rect
       style="opacity:0;stroke-width:1.2"
       width="26.4"
       height="26.4"
       x="-2.2"
       y="-2.2"
       id="rect1" />
    <path
       style="fill:none;stroke:currentColor;stroke-width:2.4;stroke-linecap:round"
       class="ColorScheme-Text"
       d="m 8.60378,15.799788 -2.4000013,-3.6 m -2.4000015,-1.200004 2.3999788,-4e-6 c 0.5086034,-10e-7 0.8748577,5.45e-4 1.200012,5.45e-4 1.1999988,0 1.1999988,0 1.1999988,-1.1999998 0,-0.3080642 1.8e-5,-0.7197269 1.32e-5,-1.2005371 l -1.32e-5,-1.1994623 c 0,-1.2 0,-1.2 -1.1999988,-1.2 -0.2694047,0 -0.6529345,0.011328 -1.0494221,0.00863 -1.3505883,-0.00918 -2.5505687,-0.00907 -2.5505687,-0.00907 M 3.8038952,15.8 V 6.1999998"
       id="path1" />
    <path
       style="fill:none;stroke:currentColor;stroke-width:2.4;stroke-linecap:round;stroke-linejoin:bevel"
       class="ColorScheme-Text"
       d="M 18.200005,6.2057601 18.2,13.40576 c 0,1.200539 -5e-6,2.400539 -1.200007,2.400539 -0.474539,0 -0.733126,0.01152 -1.199991,-5.38e-4 -0.460627,0.0018 -8e-6,5.38e-4 -1.200007,5.38e-4 -1.200002,0 -1.199994,-1.2 -1.199994,-2.400539 l 5e-6,-7.1999999"
       id="path2" />
  </g>
</svg>
