<?xml version="1.0" encoding="UTF-8" standalone="no"?>
<svg
   width="24"
   height="24"
   version="1.1"
   id="svg2"
   sodipodi:docname="indicator-notification-unread.svg"
   xmlns:inkscape="http://www.inkscape.org/namespaces/inkscape"
   xmlns:sodipodi="http://sodipodi.sourceforge.net/DTD/sodipodi-0.dtd"
   xmlns="http://www.w3.org/2000/svg"
   xmlns:svg="http://www.w3.org/2000/svg">
  <sodipodi:namedview
     id="namedview2"
     pagecolor="#ffffff"
     bordercolor="#000000"
     borderopacity="0.25"
     inkscape:showpageshadow="2"
     inkscape:pageopacity="0.0"
     inkscape:pagecheckerboard="0"
     inkscape:deskcolor="#d1d1d1" />
  <defs
     id="defs1">
    <style
       id="current-color-scheme"
       type="text/css">.ColorScheme-Text {color:#d8dee9} .ColorScheme-Highlight {color:#3b4252}</style>
  </defs>
  <path
     style="fill:currentColor;stroke-width:1.2"
     class="ColorScheme-Text"
     d="m 18.422659,2.3998994 c -0.06458,0.00263 -0.128861,0.010464 -0.192187,0.023437 L 5.8718777,5.0272431 c -0.011784,0.00372 -0.023498,0.00763 -0.035156,0.011724 C 4.1128728,5.4547209 2.89799,6.7562835 2.0796906,8.2522431 1.2613916,9.7480831 0.76902524,11.50347 0.44609684,13.216306 c -0.2124018,1.126517 -0.327441,2.189709 -0.41015628,3.1875 A 3.6,3.6 0 0 1 2.3000027,15.5999 3.6,3.6 0 0 1 2.5179714,15.61166 c 0.3316416,-3.143296 1.17527,-7.2164483 3.3492188,-7.2164481 3.5368237,0 3.6328125,10.7953121 3.6328125,10.7953141 h -3.6 a 3.6,3.6 0 0 1 0,0.0094 3.6,3.6 0 0 1 -0.8554687,2.33203 l 6.949219,0.06797 c 0.08897,0.0012 0.177791,-0.0074 0.264843,-0.02578 L 24.12969,19.01942 c 0.532198,-0.114192 0.920867,-0.57213 0.946876,-1.115624 0,0 0.177087,-3.567678 -0.44297,-7.24922 C 24.323568,8.8138562 23.826191,6.9293262 22.913284,5.3694306 22.000378,3.809535 20.517898,2.5183134 18.544534,2.4092743 c -0.0406,-0.00206 -0.08128,-0.00206 -0.121875,0 z m 0.06094,2.4234374 c 1.010992,0.083969 1.707694,0.63531 2.357813,1.7460938 0.66795,1.1413725 1.14252,2.7970063 1.425,4.4742194 0.489522,2.90639 0.378178,5.108114 0.35625,5.838281 L 12.230471,19.115526 C 12.222433,16.112506 11.861317,8.8924574 8.3750027,6.9514619 Z m -3.536718,2.3765625 -2.950781,0.253125 -0.09609,0.1078125 1.417969,5.5406262 0.135937,0.09844 1.666407,-0.07969 0.04687,-0.16875 -1.080468,-4.0734393 1.39453,-0.091404 0.01875,-0.1171836 -0.475781,-1.3804682 z"
     id="path1" />
  <path
     style="opacity:0.35;fill:currentColor;stroke-width:1.2"
     class="ColorScheme-Text"
     d="m 5.8671902,8.3952119 c -2.1739487,0 -3.0175772,4.0729651 -3.3492188,7.2164071 a 3.6,3.6 0 0 1 3.3820313,3.578907 h 3.6 c 0,0 -0.095989,-10.7953141 -3.6328125,-10.7953141 z"
     id="path2" />
  <circle
     style="fill:currentColor;stroke-width:1.2"
     class="ColorScheme-Text"
     cx="2.3000028"
     cy="19.200008"
     r="2.4000001"
     id="circle2" />
</svg>
