<?xml version="1.0" encoding="UTF-8" standalone="no"?>
<svg
   width="24"
   height="24"
   version="1.1"
   id="svg1"
   sodipodi:docname="indicator-notification-read-dnd.svg"
   xmlns:inkscape="http://www.inkscape.org/namespaces/inkscape"
   xmlns:sodipodi="http://sodipodi.sourceforge.net/DTD/sodipodi-0.dtd"
   xmlns="http://www.w3.org/2000/svg"
   xmlns:svg="http://www.w3.org/2000/svg">
  <sodipodi:namedview
     id="namedview1"
     pagecolor="#ffffff"
     bordercolor="#000000"
     borderopacity="0.25"
     inkscape:showpageshadow="2"
     inkscape:pageopacity="0.0"
     inkscape:pagecheckerboard="0"
     inkscape:deskcolor="#d1d1d1" />
  <defs
     id="defs1">
    <style
       id="current-color-scheme"
       type="text/css">.ColorScheme-Text {color:#d8dee9} .ColorScheme-Highlight {color:#3b4252}</style>
  </defs>
  <path
     style="fill:currentColor;stroke-width:1.2"
     class="ColorScheme-Text"
     d="M 18.422757,2.3999888 A 1.2001138,1.1996643 0 0 0 18.23057,2.4234176 L 5.8719764,5.0263486 a 1.2001138,1.1996643 0 0 0 -0.03516,0.011724 C 4.1129672,5.4538369 2.8980848,6.7565338 2.0797856,8.2524934 1.2614864,9.748333 0.7691204,11.504203 0.446192,13.21704 c -0.3229284,1.712718 -0.466872,3.381114 -0.5203128,4.685744 -0.026724,0.652317 -0.030804,1.212563 -0.021096,1.64704 0.006,0.267619 0.040548,0.452778 0.058596,0.641947 1.956e-4,0 -2.04e-4,-2.81e-4 0,0.01176 a 1.2001138,1.1996643 0 0 0 -0.00468,0.08903 h 0.01176 c 0.013536,0.09596 -0.00828,0.165306 0.028128,0.304573 A 1.2001138,1.1996643 0 0 0 1.1470244,21.49211 L 11.9939,21.599882 a 1.2001138,1.1996643 0 0 0 0.264844,-0.02576 l 11.871093,-2.553731 a 1.2001138,1.1996643 0 0 0 0.946876,-1.11755 c 0,0 0.177088,-3.567306 -0.442969,-7.248846 C 24.323715,8.8132665 23.826338,6.928352 22.913431,5.3684564 22.000525,3.8085608 20.518045,2.5184477 18.544681,2.4094087 a 1.2001138,1.1996643 0 0 0 -0.121874,0 z m 0.06094,2.42253 c 1.010992,0.083969 1.707694,0.6369989 2.357813,1.7477827 0.66795,1.1413724 1.14252,2.7953322 1.425,4.4725435 0.489522,2.90639 0.378178,5.108272 0.35625,5.838438 l -10.392186,2.2351 C 12.22253,16.113365 11.861417,8.8931853 8.375102,6.9521897 Z M 5.8672892,8.395399 c 3.5368236,0 3.6328129,10.795956 3.6328129,10.795956 H 2.300102 c 0,0 0.03036,-10.795956 3.5671872,-10.795956 z m 14.0718748,2.399101 -5.540626,1.417439 -0.09844,0.135886 0.07969,1.665782 0.16875,0.04686 4.073437,-1.080064 0.0914,1.394009 0.117192,0.01874 1.380468,-0.475603 0.08906,-0.07732 -0.253134,-2.949676 z M 5.900102,11.994051 a 1.2,1.1995506 0 0 0 -1.2,1.19955 1.2,1.1995506 0 0 0 0.3796872,0.873893 l -0.9796872,2.72476 3.6,-0.01874 -0.9585936,-2.724761 A 1.2,1.1995506 0 0 0 7.100102,13.1936 a 1.2,1.1995506 0 0 0 -1.2,-1.199549 z"
     id="path1" />
</svg>
