<?xml version="1.0" encoding="UTF-8" standalone="no"?>
<svg
   width="24"
   height="24"
   version="1.1"
   id="svg2"
   sodipodi:docname="indicator-keyboard-Or.svg"
   xmlns:inkscape="http://www.inkscape.org/namespaces/inkscape"
   xmlns:sodipodi="http://sodipodi.sourceforge.net/DTD/sodipodi-0.dtd"
   xmlns="http://www.w3.org/2000/svg"
   xmlns:svg="http://www.w3.org/2000/svg">
  <sodipodi:namedview
     id="namedview2"
     pagecolor="#ffffff"
     bordercolor="#000000"
     borderopacity="0.25"
     inkscape:showpageshadow="2"
     inkscape:pageopacity="0.0"
     inkscape:pagecheckerboard="0"
     inkscape:deskcolor="#d1d1d1" />
  <defs
     id="defs1">
    <style
       id="current-color-scheme"
       type="text/css">.ColorScheme-Text {color:#d8dee9} .ColorScheme-Highlight {color:#3b4252}</style>
  </defs>
  <g
     transform="translate(1,1)"
     style=""
     id="g2">
    <rect
       style="opacity:0;stroke-width:1.2"
       width="26.4"
       height="26.4"
       x="-2.2"
       y="-2.2"
       id="rect1" />
    <path
       style="fill:none;stroke:currentColor;stroke-width:2.4;stroke-linecap:round;stroke-linejoin:bevel"
       class="ColorScheme-Text"
       d="m 6.2034854,6.1993048 c 2.8796144,0 2.4000014,2.4000012 2.4000014,4.7999982 0,2.4 0.4266936,4.873322 -2.4000014,4.800002 -2.8183044,0 -2.3999969,-2.400002 -2.3999969,-4.800002 0,-2.399997 -0.5225408,-4.7999982 2.3999969,-4.7999982"
       id="path1" />
    <path
       style="fill:none;stroke:currentColor;stroke-width:2.4;stroke-linecap:round"
       class="ColorScheme-Text"
       d="m 18.20378,15.799788 -2.400002,-3.6 m -2.400002,-1.200003 2.39998,-5e-6 c 0.508603,-10e-7 0.874858,5.45e-4 1.200012,5.45e-4 1.199998,0 1.199998,0 1.199998,-1.1999998 0,-0.3080639 1.8e-5,-0.7197268 1.4e-5,-1.200537 l -1.4e-5,-1.1994623 c 0,-1.2 0,-1.2 -1.199998,-1.2 -0.269405,0 -0.652936,0.011328 -1.049423,0.00863 -1.350588,-0.00918 -2.550569,-0.00907 -2.550569,-0.00907 M 13.403894,15.8 V 6.1999999"
       id="path2" />
  </g>
</svg>
