<?xml version="1.0" encoding="UTF-8" standalone="no"?>
<svg
   width="24"
   height="24"
   version="1.1"
   id="svg2"
   sodipodi:docname="indicator-keyboard-Gu.svg"
   xmlns:inkscape="http://www.inkscape.org/namespaces/inkscape"
   xmlns:sodipodi="http://sodipodi.sourceforge.net/DTD/sodipodi-0.dtd"
   xmlns="http://www.w3.org/2000/svg"
   xmlns:svg="http://www.w3.org/2000/svg">
  <sodipodi:namedview
     id="namedview2"
     pagecolor="#ffffff"
     bordercolor="#000000"
     borderopacity="0.25"
     inkscape:showpageshadow="2"
     inkscape:pageopacity="0.0"
     inkscape:pagecheckerboard="0"
     inkscape:deskcolor="#d1d1d1" />
  <defs
     id="defs1">
    <style
       id="current-color-scheme"
       type="text/css">.ColorScheme-Text {color:#d8dee9} .ColorScheme-Highlight {color:#3b4252}</style>
  </defs>
  <g
     transform="translate(1,1)"
     style=""
     id="g2">
    <rect
       style="opacity:0;stroke-width:1.2"
       width="26.4"
       height="26.4"
       x="-2.2"
       y="-2.2"
       id="rect1" />
    <path
       style="fill:none;stroke:currentColor;stroke-width:2.4;stroke-linecap:round;stroke-linejoin:bevel"
       class="ColorScheme-Text"
       d="m 7.4288299,12.199682 h 2.3999965 m -1.1999981,0 -1.35e-5,2.400538 c 0,1.2 0,1.2 -1.200003,1.199462 -0.4893324,0 -2.0418111,5.38e-4 -2.3999969,5.38e-4 -1.2000029,0 -1.2000029,0 -1.2000029,-1.2 l 1.81e-5,-3.60054 -1.81e-5,-3.5994597 c 0,-1.2 0,-1.2 1.2000029,-1.2 0.3009714,0 1.9391742,-4.355e-4 2.3999969,-5.39e-4 1.200003,5.39e-4 1.200003,5.39e-4 1.200003,1.200539"
       id="path1" />
    <path
       style="fill:none;stroke:currentColor;stroke-width:2.4;stroke-linecap:round;stroke-linejoin:bevel"
       class="ColorScheme-Text"
       d="M 19.400005,6.2057601 19.4,13.40576 c 0,1.200539 -5e-6,2.400539 -1.200007,2.400539 -0.474538,0 -0.733126,0.01152 -1.199989,-5.38e-4 -0.460629,0.0018 -10e-6,5.38e-4 -1.200009,5.38e-4 -1.200002,0 -1.199994,-1.2 -1.199994,-2.400539 l 5e-6,-7.1999999"
       id="path2" />
  </g>
</svg>
