<?xml version="1.0" encoding="UTF-8" standalone="no"?>
<svg
   width="24"
   height="24"
   version="1.1"
   id="svg2"
   sodipodi:docname="indicator-keyboard-Xs.svg"
   xmlns:inkscape="http://www.inkscape.org/namespaces/inkscape"
   xmlns:sodipodi="http://sodipodi.sourceforge.net/DTD/sodipodi-0.dtd"
   xmlns="http://www.w3.org/2000/svg"
   xmlns:svg="http://www.w3.org/2000/svg">
  <sodipodi:namedview
     id="namedview2"
     pagecolor="#ffffff"
     bordercolor="#000000"
     borderopacity="0.25"
     inkscape:showpageshadow="2"
     inkscape:pageopacity="0.0"
     inkscape:pagecheckerboard="0"
     inkscape:deskcolor="#d1d1d1" />
  <defs
     id="defs1">
    <style
       id="current-color-scheme"
       type="text/css">.ColorScheme-Text {color:#d8dee9} .ColorScheme-Highlight {color:#3b4252}</style>
  </defs>
  <g
     transform="translate(1,1)"
     style=""
     id="g2">
    <rect
       style="opacity:0;stroke-width:1.2"
       width="26.4"
       height="26.4"
       x="-2.2"
       y="-2.2"
       id="rect1" />
    <path
       style="fill:none;stroke:currentColor;stroke-width:2.4;stroke-linecap:round"
       class="ColorScheme-Text"
       d="m 9.8091164,6.2 -6.0000019,9.6 m 0,-9.6 6.0000019,9.6"
       id="path1" />
    <path
       style="fill:none;stroke:currentColor;stroke-width:2.4;stroke-linecap:round;stroke-linejoin:round"
       class="ColorScheme-Text"
       d="m 14.600061,14.600079 c 0,1.2 0,1.2 1.199998,1.2 0.430911,0 0.510359,2.61e-4 1.200012,3.7e-5 0.545463,-1.32e-4 -1.3e-5,-3.7e-5 1.19999,-3.7e-5 0,0 1.199989,0 1.199998,-1.2 l 9e-6,-1.20054 c 0,-5.0572607 -4.799998,0.253395 -4.785621,-4.7888447 -0.003,-0.5046546 -0.01451,-0.8944614 -0.01451,-1.210615 0,-1.1999999 1.199999,-1.1999999 1.199999,-1.1999999 0.302241,0 0.758048,-5.398e-4 1.200012,-5.39e-4 0.417214,0 0.889502,5.39e-4 1.199989,5.39e-4 1.199999,0 1.199999,0 1.199999,1.1999999"
       id="path2" />
  </g>
</svg>
