<?xml version="1.0" encoding="UTF-8" standalone="no"?>
<svg
   width="24"
   height="24"
   version="1.1"
   id="svg5"
   sodipodi:docname="indicator-lunar-satelite.svg"
   xmlns:inkscape="http://www.inkscape.org/namespaces/inkscape"
   xmlns:sodipodi="http://sodipodi.sourceforge.net/DTD/sodipodi-0.dtd"
   xmlns="http://www.w3.org/2000/svg"
   xmlns:svg="http://www.w3.org/2000/svg">
  <sodipodi:namedview
     id="namedview5"
     pagecolor="#ffffff"
     bordercolor="#000000"
     borderopacity="0.25"
     inkscape:showpageshadow="2"
     inkscape:pageopacity="0.0"
     inkscape:pagecheckerboard="0"
     inkscape:deskcolor="#d1d1d1" />
  <defs
     id="defs1">
    <style
       id="current-color-scheme"
       type="text/css">.ColorScheme-Text {color:#d8dee9} .ColorScheme-Highlight {color:#3b4252}</style>
  </defs>
  <g
     transform="translate(0 -1028.4)"
     style=""
     id="g5">
    <path
       style="fill:currentColor;stroke-width:1.2"
       class="ColorScheme-Text"
       d="m 13.245254,1034.0175 -7.24236,7.2424 c 1.124208,0.4403 2.17644,1.1289 3.06924,2.0219 a 1.20012,1.20012 0 0 0 0.00169,0 c 0.8913,0.8935 1.57896,1.9453 2.01852,3.0692 l 7.24392,-7.2439 -5.09112,-5.0913 z"
       id="path1" />
    <path
       style="fill:currentColor;stroke-width:1.2"
       class="ColorScheme-Text"
       d="m 6.526814,1030.5375 -1.69704,1.6971 1.69704,1.6971 1.69704,-1.6971 z m 2.54556,2.5456 -1.69704,1.6971 1.69704,1.6971 1.69704,-1.6971 z m -5.09112,0 -1.69704,1.6971 1.69704,1.6971 1.69704,-1.6971 z m 2.54556,2.5457 -1.69704,1.697 1.69704,1.697 1.69704,-1.697 z"
       id="path2" />
    <path
       style="fill:currentColor;stroke-width:1.2"
       class="ColorScheme-Text"
       d="m 17.558054,1041.5775 -1.69704,1.6971 1.69704,1.697 1.69704,-1.697 z m 2.54556,2.5456 -1.69704,1.697 1.69704,1.6972 1.69704,-1.6972 z m -5.09112,0 -1.69704,1.697 1.69704,1.6972 1.69704,-1.6972 z m 2.54556,2.5457 -1.69704,1.697 1.69704,1.697 1.69704,-1.697 z"
       id="path3" />
    <path
       style="fill:currentColor;stroke-width:1.2"
       class="ColorScheme-Text"
       d="m 8.223854,1044.0975 c -1.63512,-1.6351 -3.85104,-2.4721 -5.88828,-2.1428 a 0.60006,0.60006 0 0 0 -0.328164,1.0176 l 7.33848,7.3385 a 0.60006,0.60006 0 0 0 1.0176,-0.3282 c 0.32904,-2.0357 -0.50772,-4.2491 -2.1396,-5.8851 z"
       id="path4" />
    <path
       fill-rule="evenodd"
       style="fill:currentColor;stroke-width:1.2"
       class="ColorScheme-Text"
       d="m 17.190854,1033.9509 -0.9912,0.9915 1.2744,1.2726 0.9912,-0.9914 c -0.5436,-0.2857 -0.9876,-0.7286 -1.2744,-1.2727 z"
       id="path5" />
    <circle
       style="fill:currentColor;stroke-width:1.2"
       class="ColorScheme-Text"
       cx="19.836853"
       cy="1032.5775"
       r="1.8"
       id="circle5" />
  </g>
</svg>
