<?xml version="1.0" encoding="UTF-8" standalone="no"?>
<svg
   width="24"
   height="24"
   version="1.1"
   id="svg1"
   sodipodi:docname="indicator-fortune.svg"
   xmlns:inkscape="http://www.inkscape.org/namespaces/inkscape"
   xmlns:sodipodi="http://sodipodi.sourceforge.net/DTD/sodipodi-0.dtd"
   xmlns="http://www.w3.org/2000/svg"
   xmlns:svg="http://www.w3.org/2000/svg">
  <sodipodi:namedview
     id="namedview1"
     pagecolor="#ffffff"
     bordercolor="#000000"
     borderopacity="0.25"
     inkscape:showpageshadow="2"
     inkscape:pageopacity="0.0"
     inkscape:pagecheckerboard="0"
     inkscape:deskcolor="#d1d1d1" />
  <defs
     id="defs1">
    <style
       id="current-color-scheme"
       type="text/css">.ColorScheme-Text {color:#d8dee9} .ColorScheme-Highlight {color:#3b4252}</style>
  </defs>
  <path
     style="fill:currentColor;stroke-width:1.2"
     class="ColorScheme-Text"
     d="m 10.133026,2.6789208 c -4.0374001,1.16772 -6.8871601,4.30944 -6.5342401,8.6779202 0.40716,5.0412 7.7126401,10.1376 10.5734401,10.2432 1.24704,-0.294972 0.524772,-4.28592 -0.209268,-7.2984 -0.205776,-0.8139 -0.412608,-1.62456 -0.648744,-2.43984 -0.07681,-0.26412 -0.169296,-0.590916 -0.193572,-0.670692 -0.390792,-1.3108802 -0.863976,-2.8081202 -1.63764,-5.1886802 -0.14628,-0.430272 0.161688,-0.880632 0.612108,-0.89514 0.301464,-0.01008 0.572412,0.1845 0.661812,0.475296 1.34076,4.12608 1.87296,5.9396402 2.41956,8.0695202 2.15472,2.69928 5.28708,6.39336 6.29892,6.16308 1.56084,-0.355428 2.12604,-10.7454002 -0.720204,-13.9500002 -2.8464,-3.2046 -6.6168,-3.9576 -10.6224,-3.1866 z"
     id="path1" />
</svg>
