<?xml version="1.0" encoding="UTF-8" standalone="no"?>
<svg
   width="24"
   height="24"
   version="1.1"
   id="svg2"
   sodipodi:docname="indicator-lunar.svg"
   xmlns:inkscape="http://www.inkscape.org/namespaces/inkscape"
   xmlns:sodipodi="http://sodipodi.sourceforge.net/DTD/sodipodi-0.dtd"
   xmlns="http://www.w3.org/2000/svg"
   xmlns:svg="http://www.w3.org/2000/svg">
  <sodipodi:namedview
     id="namedview2"
     pagecolor="#ffffff"
     bordercolor="#000000"
     borderopacity="0.25"
     inkscape:showpageshadow="2"
     inkscape:pageopacity="0.0"
     inkscape:pagecheckerboard="0"
     inkscape:deskcolor="#d1d1d1" />
  <defs
     id="defs1">
    <style
       id="current-color-scheme"
       type="text/css">.ColorScheme-Text {color:#d8dee9} .ColorScheme-Highlight {color:#3b4252}</style>
  </defs>
  <path
     style="fill:currentColor;stroke-width:1.2"
     class="ColorScheme-Text"
     d="m 11.999983,2.40035 a 9.6,9.6 0 0 0 -9.6000004,9.6 9.6,9.6 0 0 0 9.6000004,9.6 9.6,9.6 0 0 0 1.125,-0.0768 c -2.8668,-2.16 -4.7256004,-5.64 -4.7256004,-9.48 0,-3.88524 1.8606004,-7.33332 4.7296804,-9.5274 a 9.6,9.6 0 0 0 -1.1292,-0.12 z"
     id="path1" />
  <path
     opacity="0.35"
     style="fill:currentColor;stroke-width:1.2"
     class="ColorScheme-Text"
     d="m 14.746783,2.76035 c -3.0864,1.92 -5.1468004,5.28 -5.1468004,9.24 0,3.89544 2.0607604,7.29264 5.1469204,9.19224 a 9.6,9.6 0 0 0 6.8532,-9.24 9.6,9.6 0 0 0 -6.85308,-9.19452 z"
     id="path2" />
</svg>
