<?xml version="1.0" encoding="UTF-8" standalone="no"?>
<svg
   width="24"
   height="24"
   version="1.1"
   id="svg1"
   sodipodi:docname="indicator-workspaces-3.svg"
   xmlns:inkscape="http://www.inkscape.org/namespaces/inkscape"
   xmlns:sodipodi="http://sodipodi.sourceforge.net/DTD/sodipodi-0.dtd"
   xmlns="http://www.w3.org/2000/svg"
   xmlns:svg="http://www.w3.org/2000/svg">
  <sodipodi:namedview
     id="namedview1"
     pagecolor="#ffffff"
     bordercolor="#000000"
     borderopacity="0.25"
     inkscape:showpageshadow="2"
     inkscape:pageopacity="0.0"
     inkscape:pagecheckerboard="0"
     inkscape:deskcolor="#d1d1d1" />
  <defs
     id="defs1">
    <style
       id="current-color-scheme"
       type="text/css">.ColorScheme-Text {color:#d8dee9} .ColorScheme-Highlight {color:#3b4252}</style>
  </defs>
  <path
     style="fill:currentColor;stroke-width:1.2"
     class="ColorScheme-Text"
     d="M 4.9,2.4 C 3.5704,2.4 2.5,3.4704 2.5,4.8 v 10.8 c 0,1.3296 1.0704,2.4 2.4,2.4 h 4.8 l -2.746875,2.4 c -1.2448955,1.08744 -1.1368421,1.2 0,1.2 h 9.093749 c 1.136843,0 1.136842,0 0,-1.2 L 13.3,18 h 4.8 c 1.3296,0 2.4,-1.0704 2.4,-2.4 V 4.8 c 0,-1.3296 -1.0704,-2.4 -2.4,-2.4 z m 0,2.4 H 18.1 V 15.6 H 4.9 Z M 8.5,6 v 1.2 h 4.8 V 9.6 H 8.5 v 1.2 h 4.8 v 2.4 H 8.5 v 1.2 h 6 V 13.2 10.8 9.6 6 Z"
     id="path1" />
</svg>
