<?xml version="1.0" encoding="UTF-8" standalone="no"?>
<svg
   width="24"
   height="24"
   version="1.1"
   id="svg2"
   sodipodi:docname="indicator-keyboard-Ar-2.svg"
   xmlns:inkscape="http://www.inkscape.org/namespaces/inkscape"
   xmlns:sodipodi="http://sodipodi.sourceforge.net/DTD/sodipodi-0.dtd"
   xmlns="http://www.w3.org/2000/svg"
   xmlns:svg="http://www.w3.org/2000/svg">
  <sodipodi:namedview
     id="namedview2"
     pagecolor="#ffffff"
     bordercolor="#000000"
     borderopacity="0.25"
     inkscape:showpageshadow="2"
     inkscape:pageopacity="0.0"
     inkscape:pagecheckerboard="0"
     inkscape:deskcolor="#d1d1d1" />
  <defs
     id="defs1">
    <style
       id="current-color-scheme"
       type="text/css">.ColorScheme-Text {color:#d8dee9} .ColorScheme-Highlight {color:#3b4252}</style>
  </defs>
  <g
     transform="translate(1,1)"
     style=""
     id="g2">
    <rect
       style="opacity:0;stroke-width:1.2"
       width="26.4"
       height="26.4"
       x="-2.2"
       y="-2.2"
       id="rect1" />
    <path
       style="fill:none;stroke:currentColor;stroke-width:2.4;stroke-linecap:round;stroke-linejoin:bevel"
       class="ColorScheme-Text"
       d="M 3.8002909,12.205773 H 8.6002906 M 3.8004109,15.805772 V 8.6057734 M 8.6002906,15.805772 V 8.6057734 m -4.7999997,0 -1.81e-5,-1.1994622 c 0,-1.2 0,-1.2 2.4000177,-1.200539 2.3999825,-5.389e-4 2.3999647,5.39e-4 2.3999825,1.200539 l 1.76e-5,1.1994622"
       id="path1" />
    <path
       style="fill:none;stroke:currentColor;stroke-width:2.4;stroke-linecap:round"
       class="ColorScheme-Text"
       d="m 18.20378,15.799788 -2.400001,-3.6 m -2.400003,-1.200004 2.39998,-4e-6 c 0.508603,-10e-7 0.874858,5.45e-4 1.200012,5.45e-4 1.199998,0 1.199998,0 1.199998,-1.1999998 0,-0.3080647 1.8e-5,-0.7197271 1.4e-5,-1.2005371 l -1.4e-5,-1.1994623 c 0,-1.2 0,-1.2 -1.199998,-1.2 -0.269405,0 -0.652934,0.011328 -1.049423,0.00863 -1.350588,-0.00918 -2.550569,-0.00907 -2.550569,-0.00907 M 13.403895,15.8 V 6.1999998"
       id="path2" />
  </g>
</svg>
