<?xml version="1.0" encoding="UTF-8" standalone="no"?>
<svg
   width="24"
   height="24"
   version="1"
   id="svg3"
   sodipodi:docname="indicator-feedindicator-attention.svg"
   xmlns:inkscape="http://www.inkscape.org/namespaces/inkscape"
   xmlns:sodipodi="http://sodipodi.sourceforge.net/DTD/sodipodi-0.dtd"
   xmlns="http://www.w3.org/2000/svg"
   xmlns:svg="http://www.w3.org/2000/svg">
  <sodipodi:namedview
     id="namedview3"
     pagecolor="#ffffff"
     bordercolor="#000000"
     borderopacity="0.25"
     inkscape:showpageshadow="2"
     inkscape:pageopacity="0.0"
     inkscape:pagecheckerboard="0"
     inkscape:deskcolor="#d1d1d1" />
  <defs
     id="defs1">
    <style
       id="current-color-scheme"
       type="text/css">.ColorScheme-Text {color:#d8dee9} .ColorScheme-Highlight {color:#3b4252}</style>
  </defs>
  <g
     transform="translate(1 1)"
     style=""
     id="g3">
    <path
       style="fill:currentColor;stroke-width:1.2"
       class="ColorScheme-Text"
       d="m 4.10254,15.268395 c -1.47564,0 -2.66736,1.194 -2.66736,2.6652 0,1.473 1.191756,2.66568 2.66736,2.66568 1.47216,0 2.66472,-1.192644 2.66472,-2.66568 -8.789e-4,-1.4712 -1.192644,-2.66568 -2.66472,-2.66568 z"
       id="path1" />
    <path
       style="fill:currentColor;stroke-width:1.2"
       class="ColorScheme-Text"
       d="m 1.43518,1.399995 v 3.18156 c 8.628,0.173136 15.5928,7.2402 15.5928,15.9108 0,0.03604 -0.0018,0.07295 -0.0018,0.10722 h 3.1842 c 0,-0.03604 0.0026,-0.07118 0.0026,-0.10722 0,-10.4232 -8.3952,-18.9192 -18.7776,-19.092 z"
       id="path2" />
    <path
       style="fill:currentColor;stroke-width:1.2"
       class="ColorScheme-Text"
       d="m 1.43518,7.776315 v 3.18336 c 5.11068,0.170496 9.21588,4.37772 9.21588,9.53316 0,0.03604 -8.78e-4,0.07295 -0.0035,0.10722 h 3.1842 c 0,-0.03427 0.0035,-0.07118 0.0035,-0.10722 0,-6.9096 -5.5338,-12.5436 -12.3996,-12.7164 z"
       id="path3" />
  </g>
</svg>
