<?xml version="1.0" encoding="UTF-8" standalone="no"?>
<svg
   width="24"
   height="24"
   version="1.1"
   id="svg2"
   sodipodi:docname="indicator-notification-read.svg"
   xmlns:inkscape="http://www.inkscape.org/namespaces/inkscape"
   xmlns:sodipodi="http://sodipodi.sourceforge.net/DTD/sodipodi-0.dtd"
   xmlns="http://www.w3.org/2000/svg"
   xmlns:svg="http://www.w3.org/2000/svg">
  <sodipodi:namedview
     id="namedview2"
     pagecolor="#ffffff"
     bordercolor="#000000"
     borderopacity="0.25"
     inkscape:showpageshadow="2"
     inkscape:pageopacity="0.0"
     inkscape:pagecheckerboard="0"
     inkscape:deskcolor="#d1d1d1" />
  <defs
     id="defs1">
    <style
       id="current-color-scheme"
       type="text/css">.ColorScheme-Text {color:#d8dee9} .ColorScheme-Highlight {color:#3b4252}</style>
  </defs>
  <path
     style="fill:currentColor;stroke-width:1.2"
     class="ColorScheme-Text"
     d="m 18.422668,2.3999909 c -0.06458,0.00263 -0.128861,0.010464 -0.192187,0.023437 L 5.8718866,5.0273346 c -0.011784,0.00372 -0.023498,0.00763 -0.035156,0.011724 C 4.1128811,5.4548175 2.8979985,6.756375 2.0796991,8.2523346 1.2614001,9.7481741 0.76903374,11.50356 0.44610534,13.216397 c -0.3229284,1.712718 -0.46687164,3.38287 -0.52031244,4.6875 -0.026724,0.652317 -0.0308016,1.210836 -0.0210936,1.645313 0.006,0.267619 0.0405456,0.453018 0.0585936,0.642187 1.956e-4,0 -2.04e-4,-3.21e-4 0,0.01176 -0.002664,0.02962 -0.004224,0.05933 -0.004692,0.08906 h 0.011724 c 0.013536,0.09596 -0.00828,0.16542 0.0281244,0.304687 0.13720776,0.523061 0.60751944,0.889713 1.1484376,0.895313 l 10.8468751,0.10777 c 0.08897,0.0012 0.17779,-0.0074 0.264843,-0.02578 l 11.871094,-2.554689 c 0.532197,-0.114192 0.920867,-0.57213 0.946875,-1.115624 0,0 0.177088,-3.567679 -0.442969,-7.249219 C 24.323577,8.8139544 23.8262,6.9294177 22.913292,5.3695221 22.000386,3.8096265 20.517906,2.5184049 18.544542,2.4093659 c -0.0406,-0.00206 -0.08128,-0.00206 -0.121874,0 z m 0.06094,2.4234374 c 1.010992,0.083969 1.707694,0.63531 2.357813,1.7460938 0.66795,1.1413725 1.14252,2.7970074 1.425,4.4742189 0.489522,2.90639 0.378177,5.108114 0.35625,5.838281 L 12.23048,19.115616 C 12.222441,16.112598 11.861326,8.8925489 8.3750116,6.9515534 Z M 5.8671991,8.3953034 c 3.5368237,0 3.6328125,10.7953126 3.6328125,10.7953126 h -7.2 c 0,0 0.03036,-10.7953128 3.5671875,-10.7953126 z m 9.0796869,-1.1953125 -2.950781,0.253125 -0.09609,0.1078124 1.417969,5.5406257 0.135937,0.09844 1.666406,-0.07969 0.04687,-0.16875 -1.080468,-4.0734375 1.394531,-0.091406 0.01875,-0.1171884 -0.475781,-1.3804683 z"
     id="path1" />
  <path
     style="opacity:0.35;fill:currentColor;stroke-width:1.2"
     class="ColorScheme-Text"
     d="m 5.8673115,8.3953889 c 3.5368236,0 3.6328129,10.7959561 3.6328129,10.7959561 H 2.3001243 c 0,0 0.03036,-10.7959561 3.5671872,-10.7959561 z"
     id="path2" />
</svg>
