<?xml version="1.0" encoding="UTF-8" standalone="no"?>
<svg
   width="24"
   height="24"
   version="1"
   id="svg3"
   sodipodi:docname="indicator-rss-aware.svg"
   xmlns:inkscape="http://www.inkscape.org/namespaces/inkscape"
   xmlns:sodipodi="http://sodipodi.sourceforge.net/DTD/sodipodi-0.dtd"
   xmlns="http://www.w3.org/2000/svg"
   xmlns:svg="http://www.w3.org/2000/svg">
  <sodipodi:namedview
     id="namedview3"
     pagecolor="#ffffff"
     bordercolor="#000000"
     borderopacity="0.25"
     inkscape:showpageshadow="2"
     inkscape:pageopacity="0.0"
     inkscape:pagecheckerboard="0"
     inkscape:deskcolor="#d1d1d1" />
  <defs
     id="defs1">
    <style
       id="current-color-scheme"
       type="text/css">.ColorScheme-Text {color:#d8dee9} .ColorScheme-Highlight {color:#3b4252}</style>
  </defs>
  <g
     transform="matrix(.73240 0 0 .73240 4 4)"
     style=""
     id="g3">
    <path
       style="fill:currentColor;stroke-width:1.2"
       class="ColorScheme-Text"
       d="m 1.5055,16.7502 c -2.0148,0 -3.642,1.6308 -3.642,3.6396 0,2.0112 1.6272,3.6396 3.642,3.6396 2.01,0 3.6384,-1.6284 3.6384,-3.6396 C 5.1427,18.381 3.5155,16.7502 1.5055,16.7502 Z"
       id="path1" />
    <path
       style="fill:currentColor;stroke-width:1.2"
       class="ColorScheme-Text"
       d="m -2.1365,-2.1846 v 4.344 c 11.7804,0.2364 21.2892,9.8856 21.2892,21.7248 0,0.0492 -0.0024,0.0996 -0.0024,0.1464 h 4.3476 c 0,-0.0492 0.0036,-0.0972 0.0036,-0.1464 0,-14.2332 -11.4624,-25.8324 -25.638,-26.0688 z"
       id="path2" />
    <path
       style="fill:currentColor;stroke-width:1.2"
       class="ColorScheme-Text"
       d="m -2.1365,6.5214 v 4.3464 c 6.978,0.2328 12.5832,5.9772 12.5832,13.0164 0,0.0492 -0.0012,0.0996 -0.0048,0.1464 h 4.3476 c 0,-0.0468 0.0048,-0.0972 0.0048,-0.1464 C 14.7931,14.451 7.2379,6.7578 -2.1365,6.5214 Z"
       id="path3" />
  </g>
</svg>
