<?xml version="1.0" encoding="UTF-8" standalone="no"?>
<svg
   width="24"
   height="24"
   version="1.1"
   id="svg2"
   sodipodi:docname="indicator-keyboard-Es-11.svg"
   xmlns:inkscape="http://www.inkscape.org/namespaces/inkscape"
   xmlns:sodipodi="http://sodipodi.sourceforge.net/DTD/sodipodi-0.dtd"
   xmlns="http://www.w3.org/2000/svg"
   xmlns:svg="http://www.w3.org/2000/svg">
  <sodipodi:namedview
     id="namedview2"
     pagecolor="#ffffff"
     bordercolor="#000000"
     borderopacity="0.25"
     inkscape:showpageshadow="2"
     inkscape:pageopacity="0.0"
     inkscape:pagecheckerboard="0"
     inkscape:deskcolor="#d1d1d1" />
  <defs
     id="defs1">
    <style
       id="current-color-scheme"
       type="text/css">.ColorScheme-Text {color:#d8dee9} .ColorScheme-Highlight {color:#3b4252}</style>
  </defs>
  <g
     transform="translate(1,1)"
     style=""
     id="g2">
    <rect
       style="opacity:0;stroke-width:1.2"
       width="26.4"
       height="26.4"
       x="-2.2"
       y="-2.2"
       id="rect1" />
    <path
       style="fill:none;stroke:currentColor;stroke-width:2.4;stroke-linecap:round;stroke-linejoin:bevel"
       class="ColorScheme-Text"
       d="M 3.8,15.799878 H 8.6000001 M 3.8,10.99988 H 8.6000001 M 3.8,6.1998817 H 8.6000001 M 3.8001198,15.8 V 6.1999996"
       id="path1" />
    <path
       style="fill:none;stroke:currentColor;stroke-width:2.4;stroke-linecap:round;stroke-linejoin:round"
       class="ColorScheme-Text"
       d="m 13.400061,14.600079 c 0,1.2 0,1.2 1.199998,1.2 0.430911,0 0.510359,2.62e-4 1.200012,3.9e-5 0.545463,-1.34e-4 -1.3e-5,-3.9e-5 1.19999,-3.9e-5 0,0 1.199989,0 1.199998,-1.2 l 9e-6,-1.200539 c 0,-5.0572617 -4.799998,0.253395 -4.785621,-4.7888457 -0.003,-0.5046546 -0.01451,-0.8944614 -0.01451,-1.210615 0,-1.1999999 1.199999,-1.1999999 1.199999,-1.1999999 0.302241,0 0.758048,-5.397e-4 1.200012,-5.389e-4 0.417214,0 0.889502,5.389e-4 1.199989,5.389e-4 1.199999,0 1.199999,0 1.199999,1.1999999"
       id="path2" />
  </g>
</svg>
