<?xml version="1.0" encoding="UTF-8" standalone="no"?>
<svg
   width="24"
   height="24"
   version="1.1"
   id="svg1"
   sodipodi:docname="indicator-privacy-panel.svg"
   xmlns:inkscape="http://www.inkscape.org/namespaces/inkscape"
   xmlns:sodipodi="http://sodipodi.sourceforge.net/DTD/sodipodi-0.dtd"
   xmlns="http://www.w3.org/2000/svg"
   xmlns:svg="http://www.w3.org/2000/svg">
  <sodipodi:namedview
     id="namedview1"
     pagecolor="#ffffff"
     bordercolor="#000000"
     borderopacity="0.25"
     inkscape:showpageshadow="2"
     inkscape:pageopacity="0.0"
     inkscape:pagecheckerboard="0"
     inkscape:deskcolor="#d1d1d1" />
  <defs
     id="defs1">
    <style
       id="current-color-scheme"
       type="text/css">.ColorScheme-Text {color:#d8dee9} .ColorScheme-Highlight {color:#3b4252}</style>
  </defs>
  <path
     style="fill:currentColor;stroke-width:1.2"
     class="ColorScheme-Text"
     d="M 12.012,4.8 C 5.2014,4.8 1.2,11.604 1.2,11.604 c 0,0 4.34952,7.596 10.812,7.596 6.9624,0 10.788,-7.596 10.788,-7.596 0,0 -3.864,-6.804 -10.788,-6.804 z M 12,8.4 c 1.98816,0 3.6,1.61184 3.6,3.6 0,1.98816 -1.61184,3.6 -3.6,3.6 -1.98816,0 -3.6,-1.61184 -3.6,-3.6 0,-1.98816 1.61184,-3.6 3.6,-3.6 z m 0,1.2 c -1.326,0 -2.4,1.075284 -2.4,2.4 0,1.326 1.075284,2.4 2.4,2.4 1.326,0 2.4,-1.073988 2.4,-2.4 0,-1.326012 -1.075284,-2.4 -2.4,-2.4 z"
     id="path1" />
</svg>
