<?xml version="1.0" encoding="UTF-8" standalone="no"?>
<svg
   width="24"
   height="24"
   version="1.1"
   id="svg5"
   sodipodi:docname="indicator-sensors-fan.svg"
   xmlns:inkscape="http://www.inkscape.org/namespaces/inkscape"
   xmlns:sodipodi="http://sodipodi.sourceforge.net/DTD/sodipodi-0.dtd"
   xmlns="http://www.w3.org/2000/svg"
   xmlns:svg="http://www.w3.org/2000/svg">
  <sodipodi:namedview
     id="namedview5"
     pagecolor="#ffffff"
     bordercolor="#000000"
     borderopacity="0.25"
     inkscape:showpageshadow="2"
     inkscape:pageopacity="0.0"
     inkscape:pagecheckerboard="0"
     inkscape:deskcolor="#d1d1d1" />
  <defs
     id="defs1">
    <style
       id="current-color-scheme"
       type="text/css">.ColorScheme-Text {color:#d8dee9} .ColorScheme-Highlight {color:#3b4252}</style>
  </defs>
  <g
     transform="translate(4,-1029.4)"
     style=""
     id="g5">
    <path
       style="fill:currentColor;stroke-width:1.2"
       class="ColorScheme-Text"
       d="m -0.4,1031.8 c -0.6648,0 -1.2,0.5352 -1.2,1.2 v 16.8 c 0,0.6648 0.5352,1.2 1.2,1.2 h 16.8 c 0.6648,0 1.2,-0.5352 1.2,-1.2 V 1033 c 0,-0.6648 -0.5352,-1.2 -1.2,-1.2 z m 0.6,1.2 a 0.6,0.6 0 0 1 0.6,0.6 0.6,0.6 0 0 1 -0.6,0.6 0.6,0.6 0 0 1 -0.6,-0.6 0.6,0.6 0 0 1 0.6,-0.6 z m 7.8,0 a 8.4,8.4 0 0 1 8.4,8.4 8.4,8.4 0 0 1 -8.4,8.4 8.4,8.4 0 0 1 -8.4,-8.4 8.4,8.4 0 0 1 8.4,-8.4 z m 7.8,0 a 0.6,0.6 0 0 1 0.6,0.6 0.6,0.6 0 0 1 -0.6,0.6 0.6,0.6 0 0 1 -0.6,-0.6 0.6,0.6 0 0 1 0.6,-0.6 z m -15.6,15.6 a 0.6,0.6 0 0 1 0.6,0.6 0.6,0.6 0 0 1 -0.6,0.6 0.6,0.6 0 0 1 -0.6,-0.6 0.6,0.6 0 0 1 0.6,-0.6 z m 15.6,0 a 0.6,0.6 0 0 1 0.6,0.6 0.6,0.6 0 0 1 -0.6,0.6 0.6,0.6 0 0 1 -0.6,-0.6 0.6,0.6 0 0 1 0.6,-0.6 z"
       id="path1" />
    <circle
       style="fill:currentColor;stroke-width:1.2"
       class="ColorScheme-Text"
       cx="8"
       cy="1041.4"
       r="2.4000001"
       id="circle1" />
    <path
       style="fill:currentColor;stroke-width:1.2"
       class="ColorScheme-Text"
       d="m 9.2024,1034.3219 c -0.66372,0 -1.20228,0.5363 -1.2024,1.2 v 2.2781 a 3.6,3.6 0 0 1 2.81256,1.3547 c 0.9468,-0.2046 1.746,-0.3931 2.5548,-0.5836 1.0728,-0.2529 0.6396,-1.1874 0.21,-1.7156 -1.0476,-1.2883 -2.5092,-2.1762 -4.13616,-2.5102 -0.07872,-0.016 -0.15888,-0.024 -0.23904,-0.024 z"
       id="path2" />
    <path
       style="fill:currentColor;stroke-width:1.2"
       class="ColorScheme-Text"
       d="m 15.0764,1042.6 c 0.0012,-0.6637 -0.536376,-1.2023 -1.2,-1.2024 h -2.27808 a 3.6,3.6 0 0 1 -1.35468,2.8126 c 0.204576,0.9474 0.393084,1.7464 0.583596,2.5546 0.252984,1.0731 1.18734,0.6396 1.71564,0.211 1.28832,-1.0483 2.1762,-2.5098 2.51016,-4.1368 0.01579,-0.079 0.02364,-0.1587 0.02344,-0.239 z"
       id="path3" />
    <path
       style="fill:currentColor;stroke-width:1.2"
       class="ColorScheme-Text"
       d="m 6.79628,1048.48 c 0.66372,0 1.20228,-0.5364 1.2024,-1.2 v -2.2782 a 3.6,3.6 0 0 1 -2.81256,-1.3547 c -0.9474,0.2046 -1.74648,0.3931 -2.55468,0.5836 -1.07304,0.2531 -0.6396,1.1874 -0.21096,1.7156 1.04832,1.2883 2.5098,2.1762 4.13676,2.5102 0.0792,0.016 0.15876,0.024 0.23904,0.024 z"
       id="path4" />
    <path
       style="fill:currentColor;stroke-width:1.2"
       class="ColorScheme-Text"
       d="m 0.92216,1040.2 c -0.0012,0.6637 0.5364,1.2023 1.2,1.2024 h 2.2782 a 3.6,3.6 0 0 1 1.35468,-2.8126 c -0.2046,-0.9474 -0.39312,-1.7464 -0.58356,-2.5546 -0.25308,-1.0731 -1.1874,-0.6396 -1.71564,-0.211 -1.28832,1.0483 -2.1762,2.5098 -2.51016,4.1368 -0.0156,0.079 -0.024,0.1587 -0.024,0.239 z"
       id="path5" />
  </g>
</svg>
