<?xml version="1.0" encoding="UTF-8" standalone="no"?>
<svg
   width="24"
   height="24"
   version="1.1"
   id="svg1"
   sodipodi:docname="indicator-sensors-memory.svg"
   xmlns:inkscape="http://www.inkscape.org/namespaces/inkscape"
   xmlns:sodipodi="http://sodipodi.sourceforge.net/DTD/sodipodi-0.dtd"
   xmlns="http://www.w3.org/2000/svg"
   xmlns:svg="http://www.w3.org/2000/svg">
  <sodipodi:namedview
     id="namedview1"
     pagecolor="#ffffff"
     bordercolor="#000000"
     borderopacity="0.25"
     inkscape:showpageshadow="2"
     inkscape:pageopacity="0.0"
     inkscape:pagecheckerboard="0"
     inkscape:deskcolor="#d1d1d1" />
  <defs
     id="defs1">
    <style
       id="current-color-scheme"
       type="text/css">.ColorScheme-Text {color:#d8dee9} .ColorScheme-Highlight {color:#3b4252}</style>
  </defs>
  <g
     transform="translate(1 -1029.4)"
     style=""
     id="g1">
    <path
       style="fill:currentColor;stroke-width:1.2"
       class="ColorScheme-Text"
       d="m 5.099995,1031.8 c -0.6648,0 -1.2,0.5352 -1.2,1.2 v 1.2 1.2 1.2 1.2 1.2 h 2.4 v -2.4 -1.2 -1.2 -2.4 z m 2.4,0 v 1.2 9.6 1.2 4.8 1.2 1.2 h 2.4 1.2 a 1.2,1.2 0 0 1 1.2,-1.2 1.2,1.2 0 0 1 1.19766,1.1157 1.8,1.8 0 0 1 0.0024,0.084 h 1.2 0.6 0.6 c 0.6648,0 1.2,-0.5352 1.2,-1.2 v -0.6 -0.6 -14.4 -0.6 -0.6 c 0,-0.6648 -0.5352,-1.2 -1.2,-1.2 h -0.6 -0.6 -1.2 a 1.2,1.2 0 0 1 -0.0071,0.12 1.2,1.2 0 0 1 -1.19292,1.0803 1.2,1.2 0 0 1 -1.2,-1.2 h -1.2 -1.2 -1.2 z m 2.4,3.6 h 4.8 v 2.4 h -4.8 z m 0,4.8 h 4.8 v 2.4 h -4.8 z m -6,1.2 v 1.2 1.2 1.2 1.2 1.2 1.2 1.2 c 0,0.6648 0.5352,1.2 1.2,1.2 h 1.2 v -2.4 -1.2 -1.2 -1.2 -2.4 -1.2 z m 6,3.6 h 4.8 v 2.4 h -4.8 z"
       id="path1" />
  </g>
</svg>
