<?xml version="1.0" encoding="UTF-8" standalone="no"?>
<svg
   width="24"
   height="24"
   version="1.1"
   id="svg2"
   sodipodi:docname="indicator-keyboard-Ig.svg"
   xmlns:inkscape="http://www.inkscape.org/namespaces/inkscape"
   xmlns:sodipodi="http://sodipodi.sourceforge.net/DTD/sodipodi-0.dtd"
   xmlns="http://www.w3.org/2000/svg"
   xmlns:svg="http://www.w3.org/2000/svg">
  <sodipodi:namedview
     id="namedview2"
     pagecolor="#ffffff"
     bordercolor="#000000"
     borderopacity="0.25"
     inkscape:showpageshadow="2"
     inkscape:pageopacity="0.0"
     inkscape:pagecheckerboard="0"
     inkscape:deskcolor="#d1d1d1" />
  <defs
     id="defs1">
    <style
       id="current-color-scheme"
       type="text/css">.ColorScheme-Text {color:#d8dee9} .ColorScheme-Highlight {color:#3b4252}</style>
  </defs>
  <g
     transform="translate(1,1)"
     style=""
     id="g2">
    <rect
       style="opacity:0;stroke-width:1.2"
       width="26.4"
       height="26.4"
       x="-2.2"
       y="-2.2"
       id="rect1" />
    <path
       style="fill:none;stroke:currentColor;stroke-width:2.4;stroke-linecap:round"
       class="ColorScheme-Text"
       d="M 3.8000007,15.8 H 8.5999993 M 3.8000008,6.1999996 H 8.5999993 M 6.2000028,15.8 V 6.1999996"
       id="path1" />
    <path
       style="fill:none;stroke:currentColor;stroke-width:2.4;stroke-linecap:round;stroke-linejoin:bevel"
       class="ColorScheme-Text"
       d="m 16.972898,12.199682 h 2.399996 m -1.199998,0 -1.4e-5,2.400538 c 0,1.2 0,1.2 -1.200002,1.199462 -0.489332,0 -2.041812,5.38e-4 -2.399998,5.38e-4 -1.200002,0 -1.200002,0 -1.200002,-1.2 l 1.8e-5,-3.600542 -1.8e-5,-3.5994579 c 0,-1.2 0,-1.2 1.200002,-1.2 0.300972,0 1.939175,-4.355e-4 2.399998,-5.391e-4 1.200002,5.391e-4 1.200002,5.391e-4 1.200002,1.2005391"
       id="path2" />
  </g>
</svg>
