<?xml version="1.0" encoding="UTF-8" standalone="no"?>
<svg
   width="24"
   height="24"
   version="1.1"
   id="svg2"
   sodipodi:docname="indicator-sensors-chip.svg"
   xmlns:inkscape="http://www.inkscape.org/namespaces/inkscape"
   xmlns:sodipodi="http://sodipodi.sourceforge.net/DTD/sodipodi-0.dtd"
   xmlns="http://www.w3.org/2000/svg"
   xmlns:svg="http://www.w3.org/2000/svg">
  <sodipodi:namedview
     id="namedview2"
     pagecolor="#ffffff"
     bordercolor="#000000"
     borderopacity="0.25"
     inkscape:showpageshadow="2"
     inkscape:pageopacity="0.0"
     inkscape:pagecheckerboard="0"
     inkscape:deskcolor="#d1d1d1" />
  <defs
     id="defs1">
    <style
       id="current-color-scheme"
       type="text/css">.ColorScheme-Text {color:#d8dee9} .ColorScheme-Highlight {color:#3b4252}</style>
  </defs>
  <g
     style="fill:currentColor"
     class="ColorScheme-Text"
     transform="translate(3,-1029.4)"
     id="g2">
    <rect
       width="9.6000004"
       height="18"
       x="4.1999998"
       y="1032.9"
       rx="1.2"
       ry="1.2"
       style="stroke-width:1.2"
       id="rect1" />
    <path
       d="m 0.9,1034.1 c -0.1662,0 -0.3,0.1338 -0.3,0.3 v 0.6 c 0,0.1662 0.1338,0.3 0.3,0.3 H 3 v -1.2 z m 0,2.4 c -0.1662,0 -0.3,0.1338 -0.3,0.3 v 0.6 c 0,0.1662 0.1338,0.3 0.3,0.3 H 3 v -1.2 z m 0,2.4 c -0.1662,0 -0.3,0.1338 -0.3,0.3 v 0.6 c 0,0.1662 0.1338,0.3 0.3,0.3 H 3 v -1.2 z m 0,2.4 c -0.1662,0 -0.3,0.1338 -0.3,0.3 v 0.6 c 0,0.1662 0.1338,0.3 0.3,0.3 H 3 v -1.2 z m 0,2.4 c -0.1662,0 -0.3,0.1338 -0.3,0.3 v 0.6 c 0,0.1662 0.1338,0.3 0.3,0.3 H 3 v -1.2 z m 0,2.4 c -0.1662,0 -0.3,0.1338 -0.3,0.3 v 0.6 c 0,0.1662 0.1338,0.3 0.3,0.3 H 3 v -1.2 z m 0,2.4 c -0.1662,0 -0.3,0.1338 -0.3,0.3 v 0.6 c 0,0.1662 0.1338,0.3 0.3,0.3 H 3 v -1.2 z"
       style="stroke-width:1.2"
       id="path1" />
    <path
       d="m 17.1,1034.1 c 0.1662,0 0.3,0.1338 0.3,0.3 v 0.6 c 0,0.1662 -0.1338,0.3 -0.3,0.3 H 15 v -1.2 z m 0,2.4 c 0.1662,0 0.3,0.1338 0.3,0.3 v 0.6 c 0,0.1662 -0.1338,0.3 -0.3,0.3 H 15 v -1.2 z m 0,2.4 c 0.1662,0 0.3,0.1338 0.3,0.3 v 0.6 c 0,0.1662 -0.1338,0.3 -0.3,0.3 H 15 v -1.2 z m 0,2.4 c 0.1662,0 0.3,0.1338 0.3,0.3 v 0.6 c 0,0.1662 -0.1338,0.3 -0.3,0.3 H 15 v -1.2 z m 0,2.4 c 0.1662,0 0.3,0.1338 0.3,0.3 v 0.6 c 0,0.1662 -0.1338,0.3 -0.3,0.3 H 15 v -1.2 z m 0,2.4 c 0.1662,0 0.3,0.1338 0.3,0.3 v 0.6 c 0,0.1662 -0.1338,0.3 -0.3,0.3 H 15 v -1.2 z m 0,2.4 c 0.1662,0 0.3,0.1338 0.3,0.3 v 0.6 c 0,0.1662 -0.1338,0.3 -0.3,0.3 H 15 v -1.2 z"
       style="stroke-width:1.2"
       id="path2" />
  </g>
</svg>
