<?xml version="1.0" encoding="UTF-8" standalone="no"?>
<svg
   width="24"
   height="24"
   version="1.1"
   id="svg1"
   sodipodi:docname="indicator-cpufreq-25.svg"
   xmlns:inkscape="http://www.inkscape.org/namespaces/inkscape"
   xmlns:sodipodi="http://sodipodi.sourceforge.net/DTD/sodipodi-0.dtd"
   xmlns="http://www.w3.org/2000/svg"
   xmlns:svg="http://www.w3.org/2000/svg">
  <sodipodi:namedview
     id="namedview1"
     pagecolor="#ffffff"
     bordercolor="#000000"
     borderopacity="0.25"
     inkscape:showpageshadow="2"
     inkscape:pageopacity="0.0"
     inkscape:pagecheckerboard="0"
     inkscape:deskcolor="#d1d1d1" />
  <defs
     id="defs1">
    <style
       id="current-color-scheme"
       type="text/css">.ColorScheme-Text {color:#d8dee9} .ColorScheme-Highlight {color:#3b4252}</style>
  </defs>
  <path
     style="fill:currentColor;stroke-width:1.2"
     class="ColorScheme-Text"
     d="m 6.4238608,2.3934153 a 0.309876,0.309876 0 0 0 -0.30468,0.31404 v 1.88208 c -0.77916,0.13044 -1.38588,0.73728 -1.51644,1.51632 h -1.88208 a 0.310548,0.310548 0 1 0 0,0.621096 h 1.8492 v 3.0984 h -1.8492 a 0.309876,0.309876 0 1 0 0,0.6187437 h 1.8492 v 3.0984 h -1.8492 a 0.309876,0.309876 0 1 0 0,0.618744 h 1.8492 v 3.0984 h -1.8492 a 0.310548,0.310548 0 1 0 0,0.621096 h 1.88208 c 0.130512,0.779112 0.737292,1.38588 1.51644,1.51644 v 1.88208 a 0.310548,0.310548 0 1 0 0.621096,0 v -1.8492 h 3.0984 v 1.8492 a 0.309876,0.309876 0 1 0 0.6187442,0 v -1.8492 h 3.0984 v 1.8492 a 0.309876,0.309876 0 1 0 0.618744,0 v -1.8492 h 3.0984 v 1.8492 a 0.310548,0.310548 0 0 0 0.621096,0 v -1.88208 c 0.779112,-0.130512 1.38588,-0.737292 1.51644,-1.51644 h 1.88208 a 0.309876,0.309876 0 0 0 0.314064,-0.314064 0.309876,0.309876 0 0 0 -0.314064,-0.307032 h -1.8492 v -3.0984 h 1.8492 a 0.309876,0.309876 0 0 0 0.314064,-0.314064 0.309876,0.309876 0 0 0 -0.314064,-0.304692 h -1.8492 v -3.0984 h 1.8492 a 0.309876,0.309876 0 0 0 0.314064,-0.314064 0.309876,0.309876 0 0 0 -0.314064,-0.3046917 h -1.8492 v -3.0984 h 1.8492 a 0.309876,0.309876 0 0 0 0.3132,-0.31668 0.309876,0.309876 0 0 0 -0.3144,-0.30468 h -1.88208 c -0.1308,-0.77904 -0.738,-1.38588 -1.5168,-1.51632 v -1.88208 a 0.309876,0.309876 0 0 0 -0.3168,-0.31404 0.309876,0.309876 0 0 0 -0.3048,0.31404 v 1.8492 h -3.0984 v -1.8492 a 0.309876,0.309876 0 0 0 -0.3144,-0.31404 0.309876,0.309876 0 0 0 -0.3036,0.31404 v 1.8492 h -3.0984 v -1.8492 a 0.309876,0.309876 0 0 0 -0.3144,-0.31404 0.309876,0.309876 0 0 0 -0.3048002,0.31404 v 1.8492 h -3.0984 v -1.8492 a 0.309876,0.309876 0 0 0 -0.31656,-0.31404 z M 6.6066688,16.793415 H 17.406669 c 0.3324,0 0.6,0.2676 0.6,0.6 0,0.3324 -0.2676,0.6 -0.6,0.6 H 6.6066688 c -0.3324,0 -0.6,-0.2676 -0.6,-0.6 0,-0.3324 0.2676,-0.6 0.6,-0.6 z"
     id="path1" />
</svg>
