<?xml version="1.0" encoding="UTF-8" standalone="no"?>
<svg
   width="24"
   height="24"
   version="1.1"
   id="svg1"
   sodipodi:docname="indicator-sound-switcher.svg"
   xmlns:inkscape="http://www.inkscape.org/namespaces/inkscape"
   xmlns:sodipodi="http://sodipodi.sourceforge.net/DTD/sodipodi-0.dtd"
   xmlns="http://www.w3.org/2000/svg"
   xmlns:svg="http://www.w3.org/2000/svg">
  <sodipodi:namedview
     id="namedview1"
     pagecolor="#ffffff"
     bordercolor="#000000"
     borderopacity="0.25"
     inkscape:showpageshadow="2"
     inkscape:pageopacity="0.0"
     inkscape:pagecheckerboard="0"
     inkscape:deskcolor="#d1d1d1" />
  <defs
     id="defs1">
    <style
       id="current-color-scheme"
       type="text/css">.ColorScheme-Text {color:#d8dee9} .ColorScheme-Highlight {color:#3b4252}</style>
  </defs>
  <g
     transform="translate(1,1)"
     style=""
     id="g1">
    <path
       style="fill:currentColor;stroke-width:1.2"
       class="ColorScheme-Text"
       d="M 11,1.4 A 9.6,9.6 0 0 0 1.4,11 9.6,9.6 0 0 0 11,20.6 9.6,9.6 0 0 0 20.6,11 9.6,9.6 0 0 0 11,1.4 Z m 0,4.8 A 4.8,4.8 0 0 1 15.8,11 4.8,4.8 0 0 1 11,15.8 4.8,4.8 0 0 1 6.2,11 4.8,4.8 0 0 1 11,6.2 Z"
       id="path1" />
    <circle
       opacity="0.35"
       style="fill:currentColor;stroke-width:1.2"
       class="ColorScheme-Text"
       cx="11"
       cy="11"
       r="3.5999999"
       id="circle1" />
  </g>
</svg>
