<?xml version="1.0" encoding="UTF-8" standalone="no"?>
<svg
   width="24"
   height="24"
   version="1.1"
   id="svg2"
   sodipodi:docname="indicator-keyboard-Be-9.svg"
   xmlns:inkscape="http://www.inkscape.org/namespaces/inkscape"
   xmlns:sodipodi="http://sodipodi.sourceforge.net/DTD/sodipodi-0.dtd"
   xmlns="http://www.w3.org/2000/svg"
   xmlns:svg="http://www.w3.org/2000/svg">
  <sodipodi:namedview
     id="namedview2"
     pagecolor="#ffffff"
     bordercolor="#000000"
     borderopacity="0.25"
     inkscape:showpageshadow="2"
     inkscape:pageopacity="0.0"
     inkscape:pagecheckerboard="0"
     inkscape:deskcolor="#d1d1d1" />
  <defs
     id="defs1">
    <style
       id="current-color-scheme"
       type="text/css">.ColorScheme-Text {color:#d8dee9} .ColorScheme-Highlight {color:#3b4252}</style>
  </defs>
  <g
     transform="translate(1,1)"
     style=""
     id="g2">
    <rect
       style="opacity:0;stroke-width:1.2"
       width="26.4"
       height="26.4"
       x="-2.2"
       y="-2.2"
       id="rect1" />
    <path
       style="fill:none;stroke:currentColor;stroke-width:2.4;stroke-linecap:round;stroke-linejoin:bevel"
       class="ColorScheme-Text"
       d="m 3.7619152,10.986331 c 0,0 2.3999814,0.02725 3.5999813,0.02722 0.4886625,-3e-5 0.8894269,4.15e-4 1.2000011,4.15e-4 1.1999995,0 1.1999995,0 1.1999995,1.2 0,0.30732 0,0.688816 1.2e-6,1.17262 0,0.481982 -1.2e-6,0.909777 -1.2e-6,1.22738 0,1.199999 0,1.199999 -1.1999995,1.199999 -0.3051485,0 -0.7280717,-2.93e-4 -1.2000211,-2.93e-4 -1.1999998,0 -3.5999799,-0.02722 -3.5999799,-0.02722 m 1.365e-4,-9.6001176 v 9.5999996 m -1.179e-4,-4.77279 2.3999814,-4e-6 c 2.4000002,0 2.4000002,0 2.4000214,-2.3999919 l -2.04e-5,-1.1995892 c 0,-1.2 0,-1.2 -1.1999998,-1.2 -0.3090716,0 -0.7160959,-4.175e-4 -1.2000012,-4.165e-4 l -2.3999814,4.5e-6 m 1.179e-4,9.6001191 V 6.2136648"
       id="path1" />
    <path
       style="fill:none;stroke:currentColor;stroke-width:2.4;stroke-linecap:round;stroke-linejoin:bevel"
       class="ColorScheme-Text"
       d="m 14.6,15.799878 h 4.8 M 14.6,10.99988 h 4.8 M 14.6,6.1998819 h 4.8 M 14.60012,15.8 V 6.1999999"
       id="path2" />
  </g>
</svg>
