<?xml version="1.0" encoding="UTF-8" standalone="no"?>
<svg
   width="24"
   height="24"
   version="1.1"
   id="svg1"
   sodipodi:docname="indicator-virtual-box.svg"
   xmlns:inkscape="http://www.inkscape.org/namespaces/inkscape"
   xmlns:sodipodi="http://sodipodi.sourceforge.net/DTD/sodipodi-0.dtd"
   xmlns="http://www.w3.org/2000/svg"
   xmlns:svg="http://www.w3.org/2000/svg">
  <sodipodi:namedview
     id="namedview1"
     pagecolor="#ffffff"
     bordercolor="#000000"
     borderopacity="0.25"
     inkscape:showpageshadow="2"
     inkscape:pageopacity="0.0"
     inkscape:pagecheckerboard="0"
     inkscape:deskcolor="#d1d1d1" />
  <defs
     id="defs1">
    <style
       id="current-color-scheme"
       type="text/css">.ColorScheme-Text {color:#d8dee9} .ColorScheme-Highlight {color:#3b4252}</style>
  </defs>
  <path
     style="fill:currentColor;stroke-width:1.2"
     class="ColorScheme-Text"
     d="M 4.8,2.4 C 3.4704,2.4 2.4,3.4704 2.4,4.8 v 14.4 c 0,1.3296 1.0704,2.4 2.4,2.4 h 14.4 c 1.3296,0 2.4,-1.0704 2.4,-2.4 V 4.8 c 0,-1.3296 -1.0704,-2.4 -2.4,-2.4 z m 5.990626,2.4 a 1.20012,1.20012 0 0 1 1.1625,0.8695313 l 1.333593,4.6710947 1.174218,-3.5203134 a 1.20012,1.20012 0 0 1 2.278126,0 L 18.864844,13.2 H 20.4 v 2.4 H 18 A 1.20012,1.20012 0 0 1 16.860937,14.779687 L 15.6,10.996874 14.339063,14.779687 a 1.20012,1.20012 0 0 1 -2.292189,-0.04921 L 11.00625,11.088287 9.5765626,18.23438 A 1.20012,1.20012 0 0 1 7.246875,18.33048 L 5.0953126,10.8 H 3.6 V 8.4 H 6 A 1.20012,1.20012 0 0 1 7.153125,9.2695308 L 8.19375,12.911719 9.6234372,5.765625 A 1.20012,1.20012 0 0 1 10.790626,4.8 Z"
     id="path1" />
</svg>
