<?xml version="1.0" encoding="UTF-8" standalone="no"?>
<svg
   width="24"
   height="24"
   version="1.1"
   id="svg1"
   sodipodi:docname="input-touchpad-on.svg"
   xmlns:inkscape="http://www.inkscape.org/namespaces/inkscape"
   xmlns:sodipodi="http://sodipodi.sourceforge.net/DTD/sodipodi-0.dtd"
   xmlns="http://www.w3.org/2000/svg"
   xmlns:svg="http://www.w3.org/2000/svg">
  <sodipodi:namedview
     id="namedview1"
     pagecolor="#ffffff"
     bordercolor="#000000"
     borderopacity="0.25"
     inkscape:showpageshadow="2"
     inkscape:pageopacity="0.0"
     inkscape:pagecheckerboard="0"
     inkscape:deskcolor="#d1d1d1" />
  <defs
     id="defs1">
    <style
       id="current-color-scheme"
       type="text/css">.ColorScheme-Text {color:#d8dee9} .ColorScheme-Highlight {color:#3b4252}</style>
  </defs>
  <g
     transform="matrix(1,0,0,1,1,1)"
     style=""
     id="g1">
    <path
       style="fill:currentColor;stroke-width:1.2"
       class="ColorScheme-Text"
       d="M 1.4,1.4 C 0.7352,1.4 0.2,1.9352 0.2,2.6 v 16.8 c 0,0.6648 0.5352,1.2 1.2,1.2 h 19.2 c 0.6648,0 1.2,-0.5352 1.2,-1.2 V 2.6 C 21.8,1.9352 21.2648,1.4 20.6,1.4 Z M 17,3.8 h 2.4 V 5 H 17 Z m 0,2.4 h 2.4 V 7.4 H 17 Z m 0,2.4 h 2.4 V 9.8 H 17 Z m 0,2.4 h 2.4 v 1.2 H 17 Z M 2.6,14.6 h 7.2 v 3.6 H 2.6 Z m 9.6,0 h 7.2 v 3.6 h -7.2 z"
       id="path1" />
  </g>
</svg>
