<?xml version="1.0" encoding="UTF-8" standalone="no"?>
<svg
   width="24"
   height="24"
   version="1.1"
   id="svg2"
   sodipodi:docname="insync-paused.svg"
   xmlns:inkscape="http://www.inkscape.org/namespaces/inkscape"
   xmlns:sodipodi="http://sodipodi.sourceforge.net/DTD/sodipodi-0.dtd"
   xmlns="http://www.w3.org/2000/svg"
   xmlns:svg="http://www.w3.org/2000/svg">
  <sodipodi:namedview
     id="namedview2"
     pagecolor="#ffffff"
     bordercolor="#000000"
     borderopacity="0.25"
     inkscape:showpageshadow="2"
     inkscape:pageopacity="0.0"
     inkscape:pagecheckerboard="0"
     inkscape:deskcolor="#d1d1d1" />
  <defs
     id="defs1">
    <style
       id="current-color-scheme"
       type="text/css">.ColorScheme-Text {color:#d8dee9} .ColorScheme-Highlight {color:#3b4252}</style>
  </defs>
  <path
     style="fill:currentColor;stroke-width:1.2"
     class="ColorScheme-Text"
     d="M 9.5878778,12 C 8.7760906,12.001613 7.952791,12.209698 7.1995966,12.644531 4.9040254,13.969739 4.1188838,16.904701 5.4441278,19.2 c 1.3252452,2.295179 4.2600172,3.080677 6.5554692,1.755469 2.295572,-1.325207 3.080715,-4.257825 1.755468,-6.553125 -0.828278,-1.434486 -2.283424,-2.282006 -3.8203124,-2.390625 -0.115272,-0.0082 -0.2309052,-0.012 -0.3468748,-0.01176 z m -2.3882812,2.4 h 1.2 v 4.8 h -1.2 z m 3.5999994,0 h 1.200001 v 4.8 h -1.200001 z"
     id="path1" />
  <path
     style="opacity:0.35;fill:currentColor;stroke-width:1.2"
     class="ColorScheme-Text"
     d="M 19.199597,2.4 C 13.314002,2.4 8.3147006,6.2759754 6.6183466,11.608594 a 6,6 0 0 1 2.896875,-0.801563 C 11.276979,7.2437725 14.944501,4.8 19.199597,4.8 Z m 0,4.8 c -3.055357,0 -5.739213,1.647546 -7.209375,4.099219 A 6,6 0 0 1 13.954285,12.675 C 14.97649,10.836802 16.935845,9.6 19.199597,9.6 Z m -1.8,4.8 a 1.8,1.8 0 0 0 -1.8,1.8 1.8,1.8 0 0 0 1.8,1.8 1.8,1.8 0 0 0 1.8,-1.8 1.8,1.8 0 0 0 -1.8,-1.8 z m -1.8,4.8 v 4.8 h 3.6 v -4.8 z"
     id="path2" />
</svg>
