<?xml version="1.0" encoding="UTF-8" standalone="no"?>
<svg
   width="24"
   height="24"
   version="1.1"
   id="svg1"
   sodipodi:docname="jamesdsp-tray.svg"
   xmlns:inkscape="http://www.inkscape.org/namespaces/inkscape"
   xmlns:sodipodi="http://sodipodi.sourceforge.net/DTD/sodipodi-0.dtd"
   xmlns="http://www.w3.org/2000/svg"
   xmlns:svg="http://www.w3.org/2000/svg">
  <sodipodi:namedview
     id="namedview1"
     pagecolor="#ffffff"
     bordercolor="#000000"
     borderopacity="0.25"
     inkscape:showpageshadow="2"
     inkscape:pageopacity="0.0"
     inkscape:pagecheckerboard="0"
     inkscape:deskcolor="#d1d1d1" />
  <defs
     id="defs1">
    <style
       id="current-color-scheme"
       type="text/css">.ColorScheme-Text {color:#d8dee9} .ColorScheme-Highlight {color:#3b4252}</style>
  </defs>
  <path
     style="fill:currentColor;stroke-width:1.2"
     class="ColorScheme-Text"
     d="M 5.5195313,2.4 C 4.6661988,2.4 3.8105044,2.531683 3.1710937,3.1710936 2.5316831,3.8105042 2.4,4.6661988 2.4,5.5195313 V 12 A 1.2,1.2 0 0 0 3.6,13.2 1.2,1.2 0 0 0 4.8,12 V 9.6 6.9351562 5.5195313 C 4.8,5.0866542 4.8601824,4.9186874 4.875,4.875 4.9186872,4.8601823 5.0866542,4.8 5.5195313,4.8 H 18.480469 c 0.432876,0 0.600844,0.060181 0.644531,0.075 0.01482,0.043687 0.075,0.2116542 0.075,0.6445313 V 7.2 A 1.2,1.2 0 0 0 20.4,8.4000001 1.2,1.2 0 0 0 21.6,7.2 V 5.5195313 C 21.6,4.6661988 21.468317,3.8105042 20.828906,3.1710937 20.189496,2.5316831 19.333801,2.4 18.480469,2.4 Z M 4.8,9.6 A 2.4,2.4 0 0 0 7.2,12 2.4,2.4 0 0 0 9.6,9.6 2.4,2.4 0 0 0 7.2,7.2 2.4,2.4 0 0 0 4.8,9.6 Z M 12,6 a 1.2,1.2 0 0 0 -1.2,1.2 v 2.4 1.417968 A 3.6,3.6 0 0 1 12,10.8 3.6,3.6 0 0 1 13.2,11.008594 V 10.8 7.2 A 1.2,1.2 0 0 0 12,6 Z m 4.8,0 A 1.2,1.2 0 0 0 15.6,7.2 V 7.420313 A 3.6,3.6 0 0 1 16.8,7.2 3.6,3.6 0 0 1 18,7.4156246 V 7.2 A 1.2,1.2 0 0 0 16.8,6 Z m 0,2.4000001 A 2.4,2.4 0 0 0 14.4,10.8 2.4,2.4 0 0 0 16.8,13.2 2.4,2.4 0 0 0 19.2,10.8 2.4,2.4 0 0 0 16.8,8.4000001 Z M 20.4,10.8 A 1.2,1.2 0 0 0 19.2,12 v 1.464844 5.015625 c 0,0.432876 -0.06018,0.600844 -0.075,0.644531 -0.04369,0.01482 -0.211655,0.075 -0.644531,0.075 H 5.5195313 C 5.0866542,19.2 4.9186874,19.139819 4.875,19.125 4.8601824,19.081313 4.8,18.913345 4.8,18.480469 V 16.8 A 1.2,1.2 0 0 0 3.6,15.6 1.2,1.2 0 0 0 2.4,16.8 v 1.680469 c 0,0.853332 0.1316831,1.709027 0.7710937,2.348437 C 3.8105044,21.468317 4.6661988,21.6 5.5195313,21.6 H 18.480469 c 0.853332,0 1.709027,-0.131683 2.348437,-0.771094 C 21.468317,20.189496 21.6,19.333801 21.6,18.480469 V 12 A 1.2,1.2 0 0 0 20.4,10.8 Z M 12,12 A 2.4,2.4 0 0 0 9.6,14.4 2.4,2.4 0 0 0 12,16.8 2.4,2.4 0 0 0 14.4,14.4 2.4,2.4 0 0 0 12,12 Z M 6,12.979687 V 16.8 A 1.2,1.2 0 0 0 7.2,18 1.2,1.2 0 0 0 8.4,16.8 V 14.4 12.982031 A 3.6,3.6 0 0 1 7.2,13.2 3.6,3.6 0 0 1 6,12.979687 Z m 12,1.2 A 3.6,3.6 0 0 1 16.8,14.4 3.6,3.6 0 0 1 15.6,14.184374 V 14.4 16.8 A 1.2,1.2 0 0 0 16.8,18 1.2,1.2 0 0 0 18,16.8 Z"
     id="path1" />
</svg>
