<?xml version="1.0" encoding="UTF-8" standalone="no"?>
<svg
   width="24"
   height="24"
   version="1.1"
   id="svg1"
   sodipodi:docname="kaku-tray.svg"
   xmlns:inkscape="http://www.inkscape.org/namespaces/inkscape"
   xmlns:sodipodi="http://sodipodi.sourceforge.net/DTD/sodipodi-0.dtd"
   xmlns="http://www.w3.org/2000/svg"
   xmlns:svg="http://www.w3.org/2000/svg">
  <sodipodi:namedview
     id="namedview1"
     pagecolor="#ffffff"
     bordercolor="#000000"
     borderopacity="0.25"
     inkscape:showpageshadow="2"
     inkscape:pageopacity="0.0"
     inkscape:pagecheckerboard="0"
     inkscape:deskcolor="#d1d1d1" />
  <defs
     id="defs1">
    <style
       id="current-color-scheme"
       type="text/css">.ColorScheme-Text {color:#d8dee9} .ColorScheme-Highlight {color:#3b4252}</style>
  </defs>
  <path
     style="fill:currentColor;stroke-width:1.2"
     class="ColorScheme-Text"
     d="m 17.758653,3.6995418 c -0.343108,0 -0.774852,0.05574 -0.958594,0.1242192 -0.784423,0.2923404 -1.392904,0.6002388 -1.741406,1.9969128 -0.5606,2.2466721 -1.523711,3.248438 -3.123047,3.248438 -0.488589,0 -0.493144,0.097572 -0.02579,0.5343733 0.907395,0.8480419 1.459505,2.1189899 1.608984,3.7054679 0.05876,0.623472 0.146479,0.899544 0.366797,1.157811 0.15896,0.186345 0.354919,0.3375 0.437109,0.3375 0.08219,0 0.241811,-0.276063 0.355079,-0.614061 0.152226,-0.45424 0.230558,-1.255701 0.3,-3.072657 0.08051,-2.1066246 0.131363,-2.5547754 0.355078,-3.1324187 0.572649,-1.4785995 1.853092,-2.2687467 3.15703,-1.6845471 0.626073,0.2805 1.166936,1.0951497 1.960548,2.4837656 0.588584,1.0298747 1.249983,1.8070282 1.538672,1.8070282 0.145833,0 0.149108,-0.2003 0.0047,-0.288281 C 21.401929,8.6858294 21.375028,6.648495 21.014113,5.6964174 20.374907,4.460481 19.132918,3.6995418 17.758653,3.6995418 Z M 9.2895115,8.8452842 c -0.113436,0.00102 -0.2431332,0.01092 -0.4042968,0.025788 -0.7623516,0.070224 -1.1414064,0.17016 -1.1414064,0.3011723 0,0.042804 0.4726056,0.5505024 1.0488276,1.1285115 1.1461687,1.149717 1.6944821,2.064708 1.9441411,3.244922 0.112404,0.38415 0.146093,0.777299 0.171094,1.171874 -0.856064,0.388858 -1.4062096,1.24179 -1.4074228,2.182031 0,1.325483 1.0745168,2.4 2.4000008,2.4 1.325484,0 2.4,-1.074517 2.4,-2.4 -8.4e-4,-0.922782 -0.530714,-1.763349 -1.36289,-2.162109 -0.120798,-0.331422 -0.09023,-0.652385 -0.09023,-0.979688 0,-1.961164 -1.025052,-3.7676167 -2.625001,-4.6265587 C 9.8171642,8.9137166 9.629813,8.8422062 9.2895115,8.8452902 Z M 6.7793551,9.6269223 6.1324807,10.065204 c -0.949782,0.645232 -1.875192,1.693484 -2.3730468,2.687108 -0.3944148,0.787173 -0.4432764,0.989427 -0.4898436,2.019141 -0.032388,0.716083 -0.1223436,1.281248 -0.2390628,1.508203 -0.2534184,0.492752 -0.1276464,0.955231 0.2882808,1.058202 0.1751064,0.04334 0.5878404,0.350879 0.9175776,0.682032 1.1040684,1.108794 3.2042748,1.56355 5.0800788,1.10039 C 9.8021222,19.000364 9.8610386,18.894481 9.5742758,18.659734 9.4712798,18.575422 9.2518507,18.242702 9.0856051,17.919108 8.5170571,16.812414 8.7285607,15.435772 9.6059162,14.547624 10.004003,14.144645 10.027764,14.080534 9.9586514,13.583171 9.9179354,13.289981 9.7491014,12.784847 9.582479,12.460514 9.2429095,11.799522 7.8136699,10.255403 7.1883391,9.8741881 Z M 5.6004487,14.499577 c 0.4970568,0 0.9,0.402943 0.9,0.9 0,0.497057 -0.4029432,0.9 -0.9,0.9 -0.4970556,0 -0.9,-0.402943 -0.9,-0.9 0,-0.497057 0.4029444,-0.9 0.9,-0.9 z m 6.3000003,1.2 c 0.662742,0 1.2,0.537258 1.2,1.2 0,0.662741 -0.537258,1.2 -1.2,1.2 -0.662743,0 -1.200001,-0.537259 -1.200001,-1.2 0,-0.662742 0.537258,-1.2 1.200001,-1.2 z"
     id="path1" />
</svg>
