<?xml version="1.0" encoding="UTF-8" standalone="no"?>
<svg
   width="24"
   height="24"
   version="1"
   id="svg1"
   sodipodi:docname="kazam-countdown.svg"
   xmlns:inkscape="http://www.inkscape.org/namespaces/inkscape"
   xmlns:sodipodi="http://sodipodi.sourceforge.net/DTD/sodipodi-0.dtd"
   xmlns="http://www.w3.org/2000/svg"
   xmlns:svg="http://www.w3.org/2000/svg">
  <sodipodi:namedview
     id="namedview1"
     pagecolor="#ffffff"
     bordercolor="#000000"
     borderopacity="0.25"
     inkscape:showpageshadow="2"
     inkscape:pageopacity="0.0"
     inkscape:pagecheckerboard="0"
     inkscape:deskcolor="#d1d1d1" />
  <defs
     id="defs1">
    <style
       id="current-color-scheme"
       type="text/css">.ColorScheme-Text {color:#d8dee9} .ColorScheme-Highlight {color:#3b4252}</style>
  </defs>
  <path
     style="fill:currentColor;stroke-width:1.2"
     class="ColorScheme-Text"
     d="M 2.6179687,4.8 C 1.8323287,4.8 1.2,5.4413026 1.2,6.2390626 V 17.760937 C 1.2,18.558937 1.8323287,19.2 2.6179687,19.2 H 15.382031 C 16.168031,19.2 16.8,18.558937 16.8,17.760937 V 14.4 l 6,2.4 V 7.2 l -6,2.4 V 6.2390626 C 16.8,5.4413026 16.168031,4.8 15.382031,4.8 Z M 8.4,7.2 A 4.8,4.8 0 0 1 13.2,12 4.8,4.8 0 0 1 8.4,16.8 4.8,4.8 0 0 1 3.6,12 4.8,4.8 0 0 1 8.4,7.2 Z m 0,1.2 A 3.6,3.6 0 0 0 4.8,12 3.6,3.6 0 0 0 8.4,15.6 3.6,3.6 0 0 0 12,12 3.6,3.6 0 0 0 8.4,8.4 Z"
     id="path1" />
</svg>
