<?xml version="1.0" encoding="UTF-8" standalone="no"?>
<svg
   width="24"
   height="24"
   version="1.1"
   id="svg1"
   sodipodi:docname="kdeconnectindicatordark-old.svg"
   xmlns:inkscape="http://www.inkscape.org/namespaces/inkscape"
   xmlns:sodipodi="http://sodipodi.sourceforge.net/DTD/sodipodi-0.dtd"
   xmlns="http://www.w3.org/2000/svg"
   xmlns:svg="http://www.w3.org/2000/svg">
  <sodipodi:namedview
     id="namedview1"
     pagecolor="#ffffff"
     bordercolor="#000000"
     borderopacity="0.25"
     inkscape:showpageshadow="2"
     inkscape:pageopacity="0.0"
     inkscape:pagecheckerboard="0"
     inkscape:deskcolor="#d1d1d1" />
  <defs
     id="defs1">
    <style
       id="current-color-scheme"
       type="text/css">.ColorScheme-Text {color:#d8dee9} .ColorScheme-Highlight {color:#3b4252}</style>
  </defs>
  <g
     transform="translate(1,1)"
     style=""
     id="g1">
    <path
       style="fill:currentColor;stroke-width:1.2"
       class="ColorScheme-Text"
       d="M 6.2,1.4 C 5,1.4 5,2.6 5,2.6 v 16.8 c 0,0 0,1.2 1.2,1.2 h 9.6 C 17,20.6 17,19.4 17,19.4 V 2.6 c 0,0 0,-1.2 -1.2,-1.2 z M 14.6,5 V 15.8 H 7.4 V 5.0024 Z m -4.2,12 h 1.2 c 0,0 0.6,0 0.6,0.6 v 1.2 c 0,0 0,0.6 -0.6,0.6 h -1.2 c 0,0 -0.6,0 -0.6,-0.6 v -1.2 c 0,0 0,-0.6 0.6,-0.6 z"
       id="path1" />
  </g>
</svg>
