<?xml version="1.0" encoding="UTF-8" standalone="no"?>
<!-- Created with Inkscape (http://www.inkscape.org/) -->

<svg
   width="64"
   version="1.1"
   height="64"
   id="svg1"
   sodipodi:docname="kdeconnectindicatordark.svg"
   inkscape:version="1.4.2 (ebf0e940d0, 2025-05-08)"
   xmlns:inkscape="http://www.inkscape.org/namespaces/inkscape"
   xmlns:sodipodi="http://sodipodi.sourceforge.net/DTD/sodipodi-0.dtd"
   xmlns="http://www.w3.org/2000/svg"
   xmlns:svg="http://www.w3.org/2000/svg">
  <sodipodi:namedview
     id="namedview1"
     pagecolor="#9c4444"
     bordercolor="#000000"
     borderopacity="0.25"
     inkscape:showpageshadow="2"
     inkscape:pageopacity="0.0"
     inkscape:pagecheckerboard="0"
     inkscape:deskcolor="#d1d1d1"
     inkscape:zoom="16"
     inkscape:cx="16.3125"
     inkscape:cy="29.25"
     inkscape:window-width="2560"
     inkscape:window-height="1376"
     inkscape:window-x="0"
     inkscape:window-y="0"
     inkscape:window-maximized="1"
     inkscape:current-layer="svg1" />
  <defs
     id="defs5455">
    <style
       id="current-color-scheme"
       type="text/css">.ColorScheme-Text {color:#d8dee9} .ColorScheme-Highlight {color:#3b4252}</style>
  </defs>
  <metadata
     id="metadata5458" />
  <path
     id="rect4232"
     style="fill:currentColor;fill-opacity:1;stroke-width:1.66558"
     class="ColorScheme-Text"
     d="M 20.426046,8 C 19.66624,8 19.055155,8.6110856 19.055155,9.3708896 V 54.62911 c 0,0.759804 0.611085,1.37089 1.370891,1.37089 h 23.14791 c 0.759802,0 1.370889,-0.611086 1.370889,-1.37089 V 9.3708896 C 44.944845,8.6110856 44.333758,8 43.573956,8 Z m 7.414123,1.713612 h 8.319663 c 0.384222,0 0.694878,0.307512 0.694878,0.691734 v 0.330145 c 0,0.384222 -0.310656,0.691734 -0.694878,0.691734 h -8.319663 c -0.384222,0 -0.694879,-0.307512 -0.694879,-0.691734 v -0.330145 c 0,-0.384222 0.310657,-0.691734 0.694879,-0.691734 z m -7.168872,3.427224 H 43.328704 V 50.859164 H 20.671297 Z m 12.775056,9.633958 -3.065638,0.295558 v 12.63042 l 3.034193,-0.459058 V 29.85877 l 4.081228,5.974061 3.197694,-1.01559 -4.178698,-5.744531 4.21014,-5.417529 -3.260579,-0.74833 -4.049785,5.41753 0.03144,-5.546443 z m -6.948777,3.078212 v 0.0031 c -0.0348,0.0052 -0.07158,0.01219 -0.09748,0.03773 l -1.207387,1.207388 c -0.05058,0.05092 -0.05573,0.127384 -0.01886,0.188656 l 1.40862,2.326739 c -0.250089,0.420377 -0.454427,0.870795 -0.597405,1.348879 l -2.587712,0.537666 c -0.072,0.01543 -0.122625,0.0835 -0.122625,0.157212 v 1.701035 c 0,0.072 0.05285,0.133781 0.122625,0.150924 l 2.509107,0.609983 c 0.134234,0.553532 0.341954,1.083393 0.616269,1.565832 l -1.452638,2.213547 c -0.04046,0.06188 -0.03394,0.145867 0.01886,0.198087 l 1.204244,1.204244 c 0.05057,0.05057 0.130546,0.05573 0.1918,0.01886 l 2.279575,-1.380323 c 0.447139,0.258166 0.930111,0.46282 1.440063,0.600551 l 0.531378,2.556269 c 0.01543,0.07217 0.07721,0.125769 0.150921,0.125769 h 1.70418 c 0.0715,0 0.134122,-0.04937 0.150923,-0.119484 l 0.628849,-2.568846 c 0.525931,-0.141948 1.019116,-0.352581 1.477794,-0.62256 l 2.248132,1.47465 c 0.06188,0.04028 0.145698,0.0336 0.19809,-0.01886 l 1.197954,-1.207389 c 0.05092,-0.05092 0.06236,-0.127557 0.02515,-0.188655 l -0.817504,-1.348879 -0.270404,0.08489 c -0.03875,0.01032 -0.08062,-0.0083 -0.103764,-0.04087 0,0 -0.516673,-0.760008 -1.191669,-1.748198 -0.807256,1.579645 -2.455479,2.660029 -4.351629,2.660029 -2.694407,0 -4.879865,-2.185439 -4.879865,-4.879864 0,-1.981918 1.186087,-3.685321 2.88327,-4.449103 v -1.257696 c -0.308893,0.108 -0.606197,0.238515 -0.88982,0.39303 v -0.0031 -0.0031 l -2.301586,-1.506091 c -0.03086,-0.02005 -0.06301,-0.02527 -0.09748,-0.02201 z" />
</svg>
