<?xml version="1.0" encoding="UTF-8" standalone="no"?>
<svg
   width="24"
   height="24"
   version="1"
   id="svg1"
   sodipodi:docname="keepassx-locked.svg"
   xmlns:inkscape="http://www.inkscape.org/namespaces/inkscape"
   xmlns:sodipodi="http://sodipodi.sourceforge.net/DTD/sodipodi-0.dtd"
   xmlns="http://www.w3.org/2000/svg"
   xmlns:svg="http://www.w3.org/2000/svg">
  <sodipodi:namedview
     id="namedview1"
     pagecolor="#ffffff"
     bordercolor="#000000"
     borderopacity="0.25"
     inkscape:showpageshadow="2"
     inkscape:pageopacity="0.0"
     inkscape:pagecheckerboard="0"
     inkscape:deskcolor="#d1d1d1" />
  <defs
     id="defs1">
    <style
       id="current-color-scheme"
       type="text/css">.ColorScheme-Text {color:#d8dee9} .ColorScheme-Highlight {color:#3b4252}</style>
  </defs>
  <path
     style="fill:currentColor;stroke-width:1.2"
     class="ColorScheme-Text"
     d="m 16.800083,2.3995175 c -2.650919,0 -4.8,2.14908 -4.8,4.8 0.0024,0.856212 0.233893,1.6962 0.670309,2.43276 L 9.5415115,12.760678 4.4508715,7.6705175 c -0.23508,-0.23508 -0.54408,-0.3516 -0.8508,-0.3516 -0.306744,0 -0.613392,0.11652 -0.848436,0.351564 -0.470088,0.470088 -0.470088,1.22676 0,1.69692 l 5.09064,5.0906405 -5.09064,5.09064 c -0.470088,0.470087 -0.470088,1.22916 0,1.6992 0.470088,0.470088 1.22916,0.470088 1.6992,0 l 0.848436,-0.848436 h 1.9008 v -1.9008 l 0.499224,-0.499224 h 1.9008 v -1.78356 l 5.0320795,5.03208 c 0.470088,0.470088 1.22676,0.470088 1.69692,0 0.470088,-0.470088 0.470088,-1.22916 0,-1.6992 l -5.09064,-5.09064 3.12888,-3.12888 c 0.736644,0.436416 1.576561,0.667848 2.43276,0.670308 2.65092,0 4.8,-2.1490805 4.8,-4.8000005 0,-2.65092 -2.14908,-4.8 -4.8,-4.8 z m 1.2,2.4 c 0.662736,0 1.2,0.537264 1.2,1.2 0,0.662736 -0.537264,1.2 -1.2,1.2 -0.662736,0 -1.2,-0.537264 -1.2,-1.2 0,-0.662736 0.537264,-1.2 1.2,-1.2 z"
     id="path1" />
</svg>
