<?xml version="1.0" encoding="UTF-8" standalone="no"?>
<svg
   width="24"
   height="24"
   version="1"
   id="svg2"
   sodipodi:docname="keepassx-indicator.svg"
   xmlns:inkscape="http://www.inkscape.org/namespaces/inkscape"
   xmlns:sodipodi="http://sodipodi.sourceforge.net/DTD/sodipodi-0.dtd"
   xmlns="http://www.w3.org/2000/svg"
   xmlns:svg="http://www.w3.org/2000/svg">
  <sodipodi:namedview
     id="namedview2"
     pagecolor="#ffffff"
     bordercolor="#000000"
     borderopacity="0.25"
     inkscape:showpageshadow="2"
     inkscape:pageopacity="0.0"
     inkscape:pagecheckerboard="0"
     inkscape:deskcolor="#d1d1d1" />
  <defs
     id="defs1">
    <style
       id="current-color-scheme"
       type="text/css">.ColorScheme-Text {color:#d8dee9} .ColorScheme-Highlight {color:#3b4252}</style>
  </defs>
  <g
     transform="translate(1.0008 .99917)"
     style=""
     id="g2">
    <path
       style="fill:currentColor;stroke-width:1.2"
       class="ColorScheme-Text"
       d="m 15.80009,1.3994395 c -2.65092,0 -4.8,2.14908 -4.8,4.8 0.0024,0.856212 0.233892,1.6962 0.670308,2.43276 l -3.1288805,3.1288805 -1.6992,1.69692 -5.09064,5.090639 c -0.470088,0.470088 -0.470088,1.22916 0,1.6992 0.470088,0.470088 1.22916,0.470088 1.6992,0 l 0.848436,-0.848436 h 1.9008 v -1.9008 l 0.499224,-0.499224 h 1.9008 v -1.78356 l 1.6382395,-1.75776 3.12888,-3.12888 c 0.736644,0.436417 1.576561,0.667848 2.43276,0.670309 2.65092,0 4.8,-2.1490805 4.8,-4.8000005 0,-2.65092 -2.14908,-4.8 -4.8,-4.8 z m 1.199999,2.4 c 0.662736,0 1.2,0.537264 1.2,1.2 0,0.662736 -0.537264,1.2 -1.2,1.2 -0.662736,0 -1.199999,-0.537264 -1.199999,-1.2 0,-0.662736 0.537263,-1.2 1.199999,-1.2 z"
       id="path1" />
    <path
       opacity="0.35"
       style="fill:currentColor;stroke-width:1.2"
       class="ColorScheme-Text"
       d="m 2.6000895,6.3194395 c -0.306744,0 -0.613392,0.11652 -0.848436,0.351564 -0.470088,0.470088 -0.470088,1.22676 0,1.69692 l 5.09064,5.0907595 1.6992,-1.696799 -5.09064,-5.0908805 c -0.23508,-0.23508 -0.54408,-0.3516 -0.8508,-0.3516 z m 7.6380005,7.1392805 -1.6380005,1.758 5.0320805,5.032079 c 0.470088,0.470088 1.22676,0.470088 1.69692,0 0.470088,-0.470087 0.470088,-1.22916 0,-1.6992 l -5.09064,-5.09064 z"
       id="path2" />
  </g>
</svg>
