<?xml version="1.0" encoding="UTF-8" standalone="no"?>
<svg
   width="24"
   height="24"
   version="1.1"
   id="svg2"
   sodipodi:docname="keyboard-battery-full.svg"
   xmlns:inkscape="http://www.inkscape.org/namespaces/inkscape"
   xmlns:sodipodi="http://sodipodi.sourceforge.net/DTD/sodipodi-0.dtd"
   xmlns="http://www.w3.org/2000/svg"
   xmlns:svg="http://www.w3.org/2000/svg">
  <sodipodi:namedview
     id="namedview2"
     pagecolor="#ffffff"
     bordercolor="#000000"
     borderopacity="0.25"
     inkscape:showpageshadow="2"
     inkscape:pageopacity="0.0"
     inkscape:pagecheckerboard="0"
     inkscape:deskcolor="#d1d1d1" />
  <defs
     id="defs1">
    <style
       id="current-color-scheme"
       type="text/css">.ColorScheme-Text {color:#d8dee9} .ColorScheme-Highlight {color:#3b4252}</style>
  </defs>
  <g
     transform="translate(-32 -720.36)"
     style=""
     id="g2">
    <path
       style="fill:currentColor;stroke-width:1.2"
       class="ColorScheme-Text"
       d="m 37.400001,722.75982 c -0.3324,0 -0.6,0.26762 -0.6,0.60002 v 0.6 h -2.4 v -3.2e-4 l -1.8e-5,17.4024 c 0,0.3324 0.2676,0.6 0.6,0.6 h 7.200001 c 0.3324,0 0.6,-0.2676 0.6,-0.6 v -17.4 l -0.600025,0.002 H 40.39996 v -0.6 c 0,-0.3324 -0.267601,-0.60001 -0.600001,-0.60001 z"
       id="path1" />
    <path
       fill-rule="evenodd"
       style="fill:currentColor;stroke-width:1.2"
       class="ColorScheme-Text"
       d="m 46.400001,723.95983 c -0.6648,0 -1.2,0.5352 -1.2,1.19999 v 15.6 c 0,0.6648 0.5352,1.20001 1.2,1.20001 h 6 c 0.664801,0 1.2,-0.53521 1.2,-1.20001 v -15.6 c 0,-0.66479 -0.535199,-1.19999 -1.2,-1.19999 z m 0,3.6 h 1.2 v 1.19999 h -1.2 z m 2.4,0 h 1.2 v 1.19999 h -1.2 z m 2.4,1.19999 h 1.2 v 8.4 h -1.2 z m -4.8,1.20001 h 1.2 v 1.19999 h -1.2 z m 2.4,0 h 1.2 v 1.19999 h -1.2 z m -2.4,2.39999 h 1.2 v 1.20001 h -1.2 z m 2.4,0 h 1.2 v 1.20001 h -1.2 z m -2.4,2.4 h 1.2 v 1.20001 h -1.2 z m 2.4,0 h 1.2 v 1.20001 h -1.2 z m -2.4,2.4 h 1.2 v 1.2 h -1.2 z m 2.4,0 h 1.2 v 1.2 h -1.2 z"
       id="path2" />
  </g>
</svg>
