<?xml version="1.0" encoding="UTF-8" standalone="no"?>
<svg
   width="24"
   height="24"
   version="1.1"
   id="svg1"
   sodipodi:docname="keybase-uploading.svg"
   xmlns:inkscape="http://www.inkscape.org/namespaces/inkscape"
   xmlns:sodipodi="http://sodipodi.sourceforge.net/DTD/sodipodi-0.dtd"
   xmlns="http://www.w3.org/2000/svg"
   xmlns:svg="http://www.w3.org/2000/svg">
  <sodipodi:namedview
     id="namedview1"
     pagecolor="#ffffff"
     bordercolor="#000000"
     borderopacity="0.25"
     inkscape:showpageshadow="2"
     inkscape:pageopacity="0.0"
     inkscape:pagecheckerboard="0"
     inkscape:deskcolor="#d1d1d1" />
  <defs
     id="defs1">
    <style
       id="current-color-scheme"
       type="text/css">.ColorScheme-Text {color:#d8dee9} .ColorScheme-Highlight {color:#3b4252}</style>
  </defs>
  <path
     style="fill:currentColor;stroke-width:1.2"
     class="ColorScheme-Text"
     d="M 9.705128,2.3 C 9.64976,2.3 9.2875284,2.9117104 8.9434098,3.5867187 8.4396501,4.5748752 8.1984854,5.3338555 8.116066,6.2117187 8.095703,6.428648 8.100071,6.6421297 8.113726,6.8515626 8.105226,6.9459116 8.100527,7.040439 8.099663,7.1351563 c 0,0.3859345 0.077616,0.7511484 0.1921875,1.0992187 -1.5180686,0.677079 -2.8036848,1.782083 -3.6867185,3.173438 -0.2172724,0.284109 -0.4092901,0.580254 -0.5484375,0.897656 -0.2186542,0.498761 -0.3808264,1.014985 -0.5039062,1.572657 -0.081898,0.330906 -0.1508272,0.665078 -0.1921876,1.010155 -0.00368,0.03072 0.00601,0.03716 0.021094,0.03281 -0.015786,0.132915 -0.03694,0.259235 -0.049219,0.398437 -0.03937,0.446265 -0.044097,0.63047 -0.014066,0.630472 l 4.7812498,-5.25 -1.2375,4.146094 c 0.00728,0.0073 0.1650451,-0.05708 0.3515625,-0.142968 1.1459521,-0.527644 2.5741553,-1.447758 3.8367187,-1.598439 0.435408,-0.05196 1.946082,-0.05696 2.4,-0.0094 0.44766,0.04691 0.875966,0.239319 1.317188,0.457031 1.114615,-1.060115 2.593803,-1.651607 4.132031,-1.652358 0.05629,0.0023 0.112548,0.0054 0.16875,0.0094 -0.01916,-0.0625 -0.04963,-0.133793 -0.103128,-0.227344 C 18.850214,11.376253 18.679683,11.069578 18.423876,10.723423 17.475174,9.6809288 16.362133,8.814536 15.105129,8.2390626 15.220738,7.8895753 15.29966,7.522909 15.29966,7.1351563 15.299629,7.0445479 15.29714,6.9536266 15.2903,6.8632813 15.29342,6.7729705 15.30206,6.6826167 15.29738,6.59375 15.233508,5.3731791 14.520054,4.5357666 13.44341,3.9851563 12.873402,3.6936457 12.001422,3.557374 11.432473,3.55625 10.722681,3.5548508 10.183281,2.944574 9.836378,2.4453126 9.780848,2.3653917 9.7216748,2.2999993 9.705128,2.3 Z m 9.194532,10.8 c -2.65092,0 -4.8,2.14908 -4.8,4.8 0,2.65092 2.14908,4.8 4.8,4.8 2.65092,0 4.8,-2.14908 4.8,-4.8 0,-2.65092 -2.14908,-4.8 -4.8,-4.8 z m -5.573437,1.188281 c -0.170785,-0.01789 -2.01274,-0.0073 -2.132813,0.0071 -0.797522,0.09518 -2.1948258,0.906774 -3.4781252,1.497656 -0.1064964,0.04903 -0.204062,0.0927 -0.2929688,0.128905 -0.044454,0.0181 -0.082386,0.03336 -0.1429688,0.0539 -0.030292,0.01032 -0.06084,0.02161 -0.1406249,0.03984 -0.039893,0.0091 -0.08713,0.02141 -0.20625,0.02813 -0.05956,0.0034 -0.273701,-0.01397 -0.2742188,-0.01406 C 6.6579946,16.029596 6.3935966,15.950084 6.3934098,15.95 6.3932229,15.949921 6.0114924,15.692302 6.0113785,15.692187 5.8557843,15.5358 5.7463063,15.339549 5.6949723,15.125 L 4.206691,16.758594 C 3.9999026,16.985797 3.7138564,17.125045 3.4074723,17.147656 3.6500672,18.766591 4.3604252,20.27936 5.4512223,21.5 h 8.6578117 c -0.782278,-1.037402 -1.20667,-2.300708 -1.209374,-3.6 4.42e-4,-1.201036 0.36132,-2.3743 1.035937,-3.367969 -0.255224,-0.126426 -0.471935,-0.229348 -0.609374,-0.24375 z M 18.89966,14.3 l 3,3.6 h -1.8 v 2.4 h -2.4 v -2.4 h -1.8 z M 8.0996598,16.7 c 0.6627416,0 1.2,0.537258 1.2,1.2 0,0.662742 -0.5372584,1.2 -1.2,1.2 -0.6627417,0 -1.2,-0.537258 -1.2,-1.2 0,-0.662742 0.5372583,-1.2 1.2,-1.2 z"
     id="path1" />
</svg>
