<?xml version="1.0" encoding="UTF-8" standalone="no"?>
<svg
   width="24"
   height="24"
   version="1.1"
   id="svg1"
   sodipodi:docname="keybase-update.svg"
   xmlns:inkscape="http://www.inkscape.org/namespaces/inkscape"
   xmlns:sodipodi="http://sodipodi.sourceforge.net/DTD/sodipodi-0.dtd"
   xmlns="http://www.w3.org/2000/svg"
   xmlns:svg="http://www.w3.org/2000/svg">
  <sodipodi:namedview
     id="namedview1"
     pagecolor="#ffffff"
     bordercolor="#000000"
     borderopacity="0.25"
     inkscape:showpageshadow="2"
     inkscape:pageopacity="0.0"
     inkscape:pagecheckerboard="0"
     inkscape:deskcolor="#d1d1d1" />
  <defs
     id="defs1">
    <style
       id="current-color-scheme"
       type="text/css">.ColorScheme-Text {color:#d8dee9} .ColorScheme-Highlight {color:#3b4252}</style>
  </defs>
  <path
     style="fill:currentColor;stroke-width:1.2"
     class="ColorScheme-Text"
     d="m 9.7051292,2.3 c -0.055368,0 -0.4176001,0.6117104 -0.7617187,1.2867187 -0.5037596,0.9881565 -0.7449244,1.7471368 -0.8273437,2.625 -0.020363,0.2169293 -0.015995,0.430411 -0.00234,0.6398439 -0.0085,0.094349 -0.013199,0.1888764 -0.014063,0.2835937 0,0.3859345 0.077616,0.7511484 0.1921874,1.0992187 -1.5180689,0.677079 -2.803685,1.782083 -3.6867187,3.173438 -0.2172724,0.284109 -0.4092901,0.580254 -0.5484375,0.897656 -0.2186542,0.498761 -0.3808264,1.014985 -0.5039062,1.572657 -0.081898,0.330906 -0.1508272,0.665078 -0.1921876,1.010155 -0.00368,0.03072 0.00601,0.03716 0.021094,0.03281 -0.015786,0.132915 -0.03694,0.259235 -0.049219,0.398437 -0.039366,0.446262 -0.044094,0.630467 -0.014063,0.630469 L 8.0996605,10.7 l -1.2375,4.146094 c 0.00728,0.0073 0.1650451,-0.05708 0.3515626,-0.142968 1.1459521,-0.527644 2.5741557,-1.447758 3.8367179,-1.598439 0.435408,-0.05196 1.946082,-0.05695 2.4,-0.0094 0.44766,0.04691 0.875966,0.239319 1.317188,0.457031 A 6,6 0 0 1 18.89966,11.9 6,6 0 0 1 19.06841,11.9094 C 19.04925,11.8469 19.01878,11.775607 18.965282,11.682056 18.850214,11.376253 18.679683,11.069578 18.423876,10.723423 17.47517,9.6809144 16.362133,8.814536 15.105129,8.2390626 15.220738,7.8895753 15.29966,7.522909 15.29966,7.1351563 15.299629,7.0445479 15.29714,6.9536266 15.2903,6.8632813 15.29342,6.7729705 15.30206,6.6826167 15.29738,6.59375 15.233571,5.3731791 14.520054,4.5357666 13.44341,3.9851563 12.873402,3.6936457 12.001422,3.557374 11.432473,3.55625 10.722681,3.5548508 10.183281,2.944574 9.8363792,2.4453126 9.7808492,2.3653917 9.721676,2.2999993 9.7051292,2.3 Z M 18.89966,13.1 c -2.65092,0 -4.8,2.14908 -4.8,4.8 0,2.65092 2.14908,4.8 4.8,4.8 2.65092,0 4.8,-2.14908 4.8,-4.8 0,-2.65092 -2.14908,-4.8 -4.8,-4.8 z m -5.573437,1.188281 c -0.170785,-0.01789 -2.01274,-0.0073 -2.132813,0.0071 -0.797521,0.09518 -2.1948251,0.906774 -3.4781245,1.497656 -0.1064964,0.04903 -0.2040619,0.0927 -0.2929687,0.128905 -0.044454,0.0181 -0.082386,0.03336 -0.1429689,0.0539 -0.030292,0.01032 -0.06084,0.02161 -0.1406248,0.03984 -0.039893,0.0091 -0.08713,0.02141 -0.20625,0.02813 -0.05956,0.0034 -0.2737011,-0.01397 -0.2742189,-0.01406 -2.588e-4,-4.8e-5 -0.2646569,-0.07961 -0.2648437,-0.07969 -1.868e-4,-7.9e-5 -0.3819174,-0.257697 -0.3820313,-0.257812 A 1.20012,1.20012 0 0 1 5.6949731,15.125 L 4.2066918,16.758594 A 1.20012,1.20012 0 0 1 3.4074731,17.147656 8.3999174,8.3999174 0 0 0 5.4512231,21.5 h 8.6578109 a 6,6 0 0 1 -1.209374,-3.6 6,6 0 0 1 1.035937,-3.367969 c -0.255224,-0.126426 -0.471935,-0.229348 -0.609374,-0.24375 z M 18.89966,14.3 a 3.6,3.6 0 0 1 3.6,3.6 h -1.2 a 2.4,2.4 0 0 0 -2.4,-2.4 z M 8.0996605,16.7 a 1.2,1.2 0 0 1 1.2,1.2 1.2,1.2 0 0 1 -1.2,1.2 1.2,1.2 0 0 1 -1.2,-1.2 1.2,1.2 0 0 1 1.2,-1.2 z m 7.1999995,1.2 h 1.2 a 2.4,2.4 0 0 0 2.4,2.4 v 1.2 a 3.6,3.6 0 0 1 -3.6,-3.6 z"
     id="path1" />
</svg>
