<?xml version="1.0" encoding="UTF-8" standalone="no"?>
<svg
   width="24"
   height="24"
   version="1.1"
   id="svg3"
   sodipodi:docname="keyboard-battery-low.svg"
   xmlns:inkscape="http://www.inkscape.org/namespaces/inkscape"
   xmlns:sodipodi="http://sodipodi.sourceforge.net/DTD/sodipodi-0.dtd"
   xmlns="http://www.w3.org/2000/svg"
   xmlns:svg="http://www.w3.org/2000/svg">
  <sodipodi:namedview
     id="namedview3"
     pagecolor="#ffffff"
     bordercolor="#000000"
     borderopacity="0.25"
     inkscape:showpageshadow="2"
     inkscape:pageopacity="0.0"
     inkscape:pagecheckerboard="0"
     inkscape:deskcolor="#d1d1d1" />
  <defs
     id="defs1">
    <style
       id="current-color-scheme"
       type="text/css">.ColorScheme-Text {color:#d8dee9} .ColorScheme-Highlight {color:#3b4252}</style>
  </defs>
  <g
     transform="translate(-104 -720.36)"
     style=""
     id="g3">
    <path
       opacity="0.35"
       style="fill:currentColor;stroke-width:1.2"
       class="ColorScheme-Text"
       d="m 109.4,722.75983 c -0.33241,0 -0.6,0.26761 -0.6,0.60001 v 0.6 l -2.4,-0.002 v -3.1e-4 l -1e-5,17.4024 c 0,0.3324 0.26759,0.6 0.6,0.6 h 7.2 c 0.33239,0 0.6,-0.2676 0.6,-0.6 l 1e-5,-17.4012 -0.60001,0.002 h -1.8 v -0.6 c 0,-0.3324 -0.26761,-0.60001 -0.6,-0.60001 z"
       id="path1" />
    <path
       style="fill:currentColor;stroke-width:1.2"
       class="ColorScheme-Text"
       d="m 106.4,734.75983 -1e-5,6.60204 c -1e-5,0.3324 0.26759,0.6 0.6,0.6 h 7.2 c 0.33239,0 0.6,-0.2676 0.6,-0.6 l 1e-5,-6.60204 z"
       id="path2" />
    <path
       fill-rule="evenodd"
       style="fill:currentColor;stroke-width:1.2"
       class="ColorScheme-Text"
       d="m 118.4,723.95983 c -0.6648,0 -1.2,0.5352 -1.2,1.2 v 15.6 c 0,0.6648 0.5352,1.2 1.2,1.2 h 6 c 0.6648,0 1.2,-0.5352 1.2,-1.2 v -15.6 c 0,-0.6648 -0.5352,-1.2 -1.2,-1.2 z m 0,3.6 h 1.2 v 1.2 h -1.2 z m 2.4,0 h 1.2 v 1.2 h -1.2 z m 2.4,1.2 h 1.2 v 8.4 h -1.2 z m -4.8,1.2 h 1.2 v 1.2 h -1.2 z m 2.4,0 h 1.2 v 1.2 h -1.2 z m -2.4,2.4 h 1.2 v 1.2 h -1.2 z m 2.4,0 h 1.2 v 1.2 h -1.2 z m -2.4,2.4 h 1.2 v 1.2 h -1.2 z m 2.4,0 h 1.2 v 1.2 h -1.2 z m -2.4,2.4 h 1.2 v 1.2 h -1.2 z m 2.4,0 h 1.2 v 1.2 h -1.2 z"
       id="path3" />
  </g>
</svg>
