<?xml version="1.0" encoding="UTF-8" standalone="no"?>
<svg
   width="24"
   height="24"
   version="1.1"
   id="svg1"
   sodipodi:docname="keybase-tray.svg"
   xmlns:inkscape="http://www.inkscape.org/namespaces/inkscape"
   xmlns:sodipodi="http://sodipodi.sourceforge.net/DTD/sodipodi-0.dtd"
   xmlns="http://www.w3.org/2000/svg"
   xmlns:svg="http://www.w3.org/2000/svg">
  <sodipodi:namedview
     id="namedview1"
     pagecolor="#ffffff"
     bordercolor="#000000"
     borderopacity="0.25"
     inkscape:showpageshadow="2"
     inkscape:pageopacity="0.0"
     inkscape:pagecheckerboard="0"
     inkscape:deskcolor="#d1d1d1" />
  <defs
     id="defs1">
    <style
       id="current-color-scheme"
       type="text/css">.ColorScheme-Text {color:#d8dee9} .ColorScheme-Highlight {color:#3b4252}</style>
  </defs>
  <path
     style="fill:currentColor;stroke-width:1.2"
     class="ColorScheme-Text"
     d="m 10.005129,2.4 c -0.055368,0 -0.4175999,0.6117104 -0.7617185,1.2867187 -0.5037597,0.9881565 -0.7449244,1.7471368 -0.8273437,2.625 -0.020363,0.2169293 -0.015995,0.430411 -0.00234,0.6398439 -0.0085,0.094349 -0.013199,0.1888764 -0.014063,0.2835937 0,0.3859345 0.077616,0.7511484 0.1921874,1.0992187 -1.5180726,0.677079 -2.8036885,1.782085 -3.6867222,3.173438 -0.2172724,0.284109 -0.4092901,0.580254 -0.5484374,0.897656 -0.2186543,0.498761 -0.3808265,1.014987 -0.5039063,1.572657 -0.081898,0.330906 -0.1508272,0.665078 -0.1921876,1.010155 -0.00368,0.03072 0.00601,0.03716 0.021094,0.03281 -0.015786,0.132915 -0.03694,0.259235 -0.049219,0.398437 -0.039366,0.446262 -0.044094,0.630467 -0.014063,0.630469 L 8.3996605,10.8 l -1.2375,4.146094 c 0.00728,0.0073 0.1650452,-0.05708 0.3515625,-0.142968 1.1459522,-0.527642 2.574155,-1.447758 3.836718,-1.598439 0.435408,-0.05196 1.946082,-0.05695 2.4,-0.0094 0.919502,0.09635 1.758966,0.805843 2.791406,1.089844 0.457469,0.125845 0.682355,0.156564 1.057032,0.142969 0.374952,-0.01358 0.594899,-0.06368 0.871875,-0.196876 0.691147,-0.33235 1.054758,-1.054003 0.953906,-1.832812 -0.0095,-0.0734 -0.02965,-0.144386 -0.04453,-0.215625 0.02963,-0.07334 0.002,-0.196381 -0.11484,-0.400782 C 19.15022,11.476282 18.979689,11.169607 18.723882,10.823452 17.77517,9.7809144 16.662133,8.914536 15.405129,8.3390626 15.520738,7.9895753 15.59966,7.622909 15.59966,7.2351563 15.599629,7.1445479 15.59714,7.0536266 15.5903,6.9632813 15.59342,6.8729705 15.60206,6.7826167 15.59738,6.69375 15.533571,5.4731791 14.820054,4.6357666 13.74341,4.0851563 13.173402,3.7936457 12.301422,3.657374 11.732473,3.65625 11.022681,3.6548508 10.483281,3.0445741 10.136379,2.5453126 10.080849,2.465392 10.021676,2.3999993 10.005129,2.4 Z m 10.192968,11.79375 c -0.282815,0.470932 -0.688857,0.868795 -1.207031,1.117969 -0.39466,0.189781 -0.882986,0.299571 -1.347656,0.316407 -0.457526,0.0166 -0.914023,-0.04589 -1.420313,-0.185157 -1.364841,-0.375437 -2.209345,-1.014081 -2.596874,-1.054688 -0.170785,-0.01789 -2.01274,-0.0073 -2.132813,0.0071 -0.797521,0.09518 -2.1948251,0.906774 -3.4781245,1.497656 -0.1064964,0.04903 -0.2040619,0.0927 -0.2929687,0.128905 -0.044454,0.0181 -0.082386,0.03336 -0.1429689,0.0539 -0.030292,0.01032 -0.06084,0.02161 -0.1406249,0.03984 -0.039893,0.0091 -0.08713,0.02141 -0.20625,0.02813 -0.05956,0.0034 -0.273701,-0.01397 -0.2742188,-0.01406 -2.588e-4,-4.8e-5 -0.2646569,-0.07961 -0.2648437,-0.07969 -1.869e-4,-7.9e-5 -0.3819174,-0.257697 -0.3820313,-0.257812 A 1.20012,1.20012 0 0 1 5.994973,15.225 L 4.5066918,16.858594 A 1.20012,1.20012 0 0 1 3.707473,17.247656 8.3999174,8.3999174 0 0 0 5.751223,21.6 H 18.250441 A 8.3999174,8.3999174 0 0 0 20.39966,16.000781 8.3999174,8.3999174 0 0 0 20.198097,14.19375 Z M 8.3996605,16.8 a 1.2,1.2 0 0 1 1.2,1.2 1.2,1.2 0 0 1 -1.2,1.2 1.2,1.2 0 0 1 -1.2,-1.2 1.2,1.2 0 0 1 1.2,-1.2 z m 7.1999995,0 a 1.2,1.2 0 0 1 1.2,1.2 1.2,1.2 0 0 1 -1.2,1.2 1.2,1.2 0 0 1 -1.2,-1.2 1.2,1.2 0 0 1 1.2,-1.2 z"
     id="path1" />
</svg>
