<?xml version="1.0" encoding="UTF-8" standalone="no"?>
<svg
   width="24"
   height="24"
   version="1.1"
   id="svg3"
   sodipodi:docname="keyboard-battery-good.svg"
   xmlns:inkscape="http://www.inkscape.org/namespaces/inkscape"
   xmlns:sodipodi="http://sodipodi.sourceforge.net/DTD/sodipodi-0.dtd"
   xmlns="http://www.w3.org/2000/svg"
   xmlns:svg="http://www.w3.org/2000/svg">
  <sodipodi:namedview
     id="namedview3"
     pagecolor="#ffffff"
     bordercolor="#000000"
     borderopacity="0.25"
     inkscape:showpageshadow="2"
     inkscape:pageopacity="0.0"
     inkscape:pagecheckerboard="0"
     inkscape:deskcolor="#d1d1d1" />
  <defs
     id="defs1">
    <style
       id="current-color-scheme"
       type="text/css">.ColorScheme-Text {color:#d8dee9} .ColorScheme-Highlight {color:#3b4252}</style>
  </defs>
  <g
     transform="translate(-56 -720.36)"
     style=""
     id="g3">
    <path
       opacity="0.35"
       style="fill:currentColor;stroke-width:1.2"
       class="ColorScheme-Text"
       d="m 61.400002,722.7598 c -0.332401,0 -0.600001,0.26761 -0.600001,0.60001 v 0.6 h -2.399999 v -3.1e-4 l -1.8e-5,17.4024 c 0,0.3324 0.2676,0.6 0.599999,0.6 h 7.200001 c 0.3324,0 0.6,-0.2676 0.6,-0.6 v -17.4 l -0.600024,0.002 h -1.8 v -0.6 c 0,-0.3324 -0.2676,-0.60001 -0.600001,-0.60001 z"
       id="path1" />
    <path
       style="fill:currentColor;stroke-width:1.2"
       class="ColorScheme-Text"
       d="m 58.400002,728.7598 -1.8e-5,12.6024 c 0,0.3324 0.2676,0.6 0.599999,0.6 h 7.200001 c 0.3324,0 0.6,-0.2676 0.6,-0.6 v -12.6 z"
       id="path2" />
    <path
       fill-rule="evenodd"
       style="fill:currentColor;stroke-width:1.2"
       class="ColorScheme-Text"
       d="m 70.400002,723.9598 c -0.6648,0 -1.200001,0.5352 -1.200001,1.2 v 15.6 c 0,0.6648 0.535201,1.2 1.200001,1.2 h 6 c 0.6648,0 1.2,-0.5352 1.2,-1.2 v -15.6 c 0,-0.6648 -0.5352,-1.2 -1.2,-1.2 z m 0,3.6 h 1.2 v 1.2 h -1.2 z m 2.399999,0 h 1.2 v 1.2 h -1.2 z m 2.4,1.2 h 1.200001 v 8.4 h -1.200001 z m -4.799999,1.2 h 1.2 v 1.2 h -1.2 z m 2.399999,0 h 1.2 v 1.2 h -1.2 z m -2.399999,2.4 h 1.2 v 1.2 h -1.2 z m 2.399999,0 h 1.2 v 1.2 h -1.2 z m -2.399999,2.4 h 1.2 v 1.2 h -1.2 z m 2.399999,0 h 1.2 v 1.2 h -1.2 z m -2.399999,2.4 h 1.2 v 1.2 h -1.2 z m 2.399999,0 h 1.2 v 1.2 h -1.2 z"
       id="path3" />
  </g>
</svg>
