<?xml version="1.0" encoding="UTF-8" standalone="no"?>
<svg
   width="24"
   height="24"
   version="1.1"
   id="svg2"
   sodipodi:docname="klipper-symbolic.svg"
   xmlns:inkscape="http://www.inkscape.org/namespaces/inkscape"
   xmlns:sodipodi="http://sodipodi.sourceforge.net/DTD/sodipodi-0.dtd"
   xmlns="http://www.w3.org/2000/svg"
   xmlns:svg="http://www.w3.org/2000/svg">
  <sodipodi:namedview
     id="namedview2"
     pagecolor="#ffffff"
     bordercolor="#000000"
     borderopacity="0.25"
     inkscape:showpageshadow="2"
     inkscape:pageopacity="0.0"
     inkscape:pagecheckerboard="0"
     inkscape:deskcolor="#d1d1d1" />
  <defs
     id="defs1">
    <style
       id="current-color-scheme"
       type="text/css">.ColorScheme-Text {color:#d8dee9} .ColorScheme-Highlight {color:#3b4252}</style>
  </defs>
  <path
     class="ColorScheme-Text"
     d="m 12,2.4 c -1.3296,0 -2.4,1.0704 -2.4,2.4 v 8.4 c 0,1.3296 1.0704,2.4 2.4,2.4 h 7.2 c 1.3296,0 2.4,-1.0704 2.4,-2.4 V 4.8 c 0,-1.3296 -1.0704,-2.4 -2.4,-2.4 z m 0,2.4 h 7.2 V 6 H 12 Z m 0,2.4 h 7.2 V 8.4 H 12 Z m 0,2.4 h 7.2 v 1.2 H 12 Z m 0,2.4 h 4.8 v 1.2 H 12 Z"
     style="opacity:0.35;fill:currentColor;stroke-width:1.2"
     id="path1" />
  <path
     class="ColorScheme-Text"
     d="m 4.8,8.4 c -1.3296,0 -2.4,1.0704 -2.4,2.4 v 8.4 c 0,1.3296 1.0704,2.4 2.4,2.4 H 12 c 1.3296,0 2.4,-1.0704 2.4,-2.4 V 10.8 C 14.4,9.4704 13.3296,8.4 12,8.4 Z m 0,2.4 H 12 V 12 H 4.8 Z m 0,2.4 H 12 v 1.2 H 4.8 Z m 0,2.4 H 12 v 1.2 H 4.8 Z m 0,2.4 h 4.8 v 1.2 H 4.8 Z"
     style="fill:currentColor;stroke-width:1.2"
     id="path2" />
</svg>
