<?xml version="1.0" encoding="UTF-8" standalone="no"?>
<svg
   width="24"
   height="24"
   version="1.1"
   id="svg1"
   sodipodi:docname="krb-expiring-ticket.svg"
   xmlns:inkscape="http://www.inkscape.org/namespaces/inkscape"
   xmlns:sodipodi="http://sodipodi.sourceforge.net/DTD/sodipodi-0.dtd"
   xmlns="http://www.w3.org/2000/svg"
   xmlns:svg="http://www.w3.org/2000/svg">
  <sodipodi:namedview
     id="namedview1"
     pagecolor="#ffffff"
     bordercolor="#000000"
     borderopacity="0.25"
     inkscape:showpageshadow="2"
     inkscape:pageopacity="0.0"
     inkscape:pagecheckerboard="0"
     inkscape:deskcolor="#d1d1d1" />
  <defs
     id="defs1">
    <style
       id="current-color-scheme"
       type="text/css">.ColorScheme-Text {color:#d8dee9} .ColorScheme-Highlight {color:#3b4252}</style>
  </defs>
  <path
     style="fill:currentColor;stroke-width:1.2"
     class="ColorScheme-Text"
     d="m 7.79997,7.1 c -2.98236,0 -5.4,2.418 -5.4,5.4 0,2.982 2.41764,5.4 5.4,5.4 2.28564,-0.0036 4.32168,-1.44504 5.08356,-3.6 l 3.9168,-0.0048 v 2.4 h 3.6 v -2.40468 l 1.2,0.0048 v -3.6 l -8.71644,0.0048 c -0.762,-2.15484 -2.7972,-3.59664 -5.0832,-3.59988 z m 0,3.6 c 0.99408,0 1.8,0.8064 1.8,1.8 0,0.9936 -0.80592,1.8 -1.8,1.8 -0.99408,0 -1.8,-0.8064 -1.8,-1.8 0,-0.9936 0.80592,-1.8 1.8,-1.8 z"
     id="path1" />
</svg>
