<?xml version="1.0" encoding="UTF-8" standalone="no"?>
<svg
   width="24"
   height="24"
   version="1.1"
   id="svg1"
   sodipodi:docname="krudiotray-light-on24.svg"
   xmlns:inkscape="http://www.inkscape.org/namespaces/inkscape"
   xmlns:sodipodi="http://sodipodi.sourceforge.net/DTD/sodipodi-0.dtd"
   xmlns="http://www.w3.org/2000/svg"
   xmlns:svg="http://www.w3.org/2000/svg">
  <sodipodi:namedview
     id="namedview1"
     pagecolor="#ffffff"
     bordercolor="#000000"
     borderopacity="0.25"
     inkscape:showpageshadow="2"
     inkscape:pageopacity="0.0"
     inkscape:pagecheckerboard="0"
     inkscape:deskcolor="#d1d1d1" />
  <defs
     id="defs1">
    <style
       id="current-color-scheme"
       type="text/css">.ColorScheme-Text {color:#d8dee9} .ColorScheme-Highlight {color:#3b4252}</style>
  </defs>
  <path
     style="fill:currentColor;stroke-width:1.2"
     class="ColorScheme-Text"
     d="m 2.4711774,3.4997893 c -0.75984,0 -1.3710938,0.6413026 -1.3710938,1.4390626 V 18.860727 c 0,0.798 0.6112538,1.439063 1.3710938,1.439063 H 16.700084 v -2.395313 -2.861718 -0.0024 c 7.12e-4,-1.031016 0.844762,-1.968823 1.93828,-1.940625 0.329882,0.0084 0.651972,0.106128 0.928126,0.276562 l 2.308594,1.434431 0.825,0.510937 V 4.9388519 c 0,-0.7975202 -0.610294,-1.4390626 -1.371094,-1.4390626 z m 5.8289062,3.6 c 2.6508004,0 4.8000004,2.14908 4.8000004,4.8000007 0,2.6508 -2.1492,4.8 -4.8000004,4.8 -2.65092,0 -4.8,-2.1492 -4.8,-4.8 0,-2.6509207 2.14908,-4.8000007 4.8,-4.8000007 z m 6.0000004,0 h 7.2 v 1.2 h -7.2 z m -6.0000004,2.4 c -1.3254316,0 -2.4,1.0745607 -2.4,2.4000007 0,1.3256 1.0745684,2.4 2.4,2.4 1.3254312,0 2.4000004,-1.0744 2.4000004,-2.4 0,-1.32544 -1.0745692,-2.4000007 -2.4000004,-2.4000007 z M 14.300084,10.69979 h 7.2 v 1.2 h -7.2 z m 4.307812,3.6 a 0.6913375,0.74138962 0 0 0 -0.707812,0.740626 v 2.859374 2.859374 a 0.6913375,0.74138962 0 0 0 1.035937,0.642189 l 2.308593,-1.429689 2.308595,-1.429687 a 0.6913375,0.74138962 0 0 0 0,-1.284374 l -2.308595,-1.429687 -2.308593,-1.429689 a 0.6913375,0.74138962 0 0 0 -0.328125,-0.09844 z"
     id="path1" />
</svg>
