<?xml version="1.0" encoding="UTF-8" standalone="no"?>
<svg
   width="24"
   height="24"
   version="1.1"
   id="svg2"
   sodipodi:docname="ladi-started.svg"
   xmlns:inkscape="http://www.inkscape.org/namespaces/inkscape"
   xmlns:sodipodi="http://sodipodi.sourceforge.net/DTD/sodipodi-0.dtd"
   xmlns="http://www.w3.org/2000/svg"
   xmlns:svg="http://www.w3.org/2000/svg">
  <sodipodi:namedview
     id="namedview2"
     pagecolor="#ffffff"
     bordercolor="#000000"
     borderopacity="0.25"
     inkscape:showpageshadow="2"
     inkscape:pageopacity="0.0"
     inkscape:pagecheckerboard="0"
     inkscape:deskcolor="#d1d1d1" />
  <defs
     id="defs1">
    <style
       id="current-color-scheme"
       type="text/css">.ColorScheme-Text {color:#d8dee9} .ColorScheme-Highlight {color:#3b4252}</style>
  </defs>
  <path
     style="fill:currentColor;stroke-width:1.2"
     class="ColorScheme-Text"
     d="m 20.878682,2.3037755 c -0.160056,-0.016598 -0.410838,0.020784 -0.874218,0.1382965 -0.922378,0.2339139 -1.116757,0.3047293 -1.10625,0.5063058 0.0059,0.1134504 0.0663,0.2150994 0.229688,0.3984815 L 18.450558,4.0219337 18.265402,3.836757 C 18.214752,3.786128 18.14869,3.761749 18.082589,3.761749 c -0.0661,0 -0.132165,0.024379 -0.182813,0.075008 l -0.2625,0.2625289 1.982813,1.9478711 0.246093,-0.2461208 c 0.101292,-0.1012584 0.101292,-0.2644066 0,-0.3656655 L 19.685714,5.2548821 20.363058,4.5774637 c 0.175652,0.1547859 0.272518,0.2135918 0.391406,0.2273688 0.194012,0.022481 0.240292,-0.208372 0.4875,-1.127468 C 21.486125,2.7696003 21.42459,2.7066563 21.211496,2.4936402 21.109724,2.3919042 21.03874,2.3203733 20.878682,2.3037755 Z m -3.670312,2.2244641 -5.765625,5.7662594 1.964063,1.961936 5.784374,-5.7803244 z M 9.8700889,10.528901 c -0.069168,8.7e-5 -0.1367772,0.02665 -0.1898436,0.07969 l -6.0351566,6.031134 c -0.106128,0.106092 -0.105864,0.276248 0,0.382074 l 3.0281256,3.026114 c 0.105864,0.105828 0.275898,0.106092 0.3820308,0 l 6.0328129,-6.031134 c 0.106128,-0.106092 0.105864,-0.276248 0,-0.382074 l -3.025782,-3.026114 c -0.05293,-0.05291 -0.1230203,-0.07979 -0.1921871,-0.07969 z m -6.8062502,7.608651 -0.6703116,0.668041 c -0.2579424,0.257848 -0.2579424,0.672725 0,0.930573 l 1.5703116,1.570485 c 0.2579424,0.257848 0.6748704,0.257848 0.9328128,0 l 0.6679692,-0.668042 z"
     id="path1" />
  <path
     style="fill:currentColor;stroke-width:1.2"
     class="ColorScheme-Text"
     d="m 16.164976,13.099917 a 0.74301581,0.7532493 0 0 0 -0.764982,0.752817 v 8.093381 a 0.74301581,0.7532493 0 0 0 1.114712,0.652447 l 3.456572,-2.023464 3.45699,-2.022987 a 0.74301581,0.7532493 0 0 0 0,-1.304919 l -3.45699,-2.022984 -3.456572,-2.023803 a 0.74301581,0.7532493 0 0 0 -0.349688,-0.100368 z"
     id="path2" />
</svg>
