<?xml version="1.0" encoding="UTF-8" standalone="no"?>
<svg
   width="24"
   height="24"
   version="1.1"
   id="svg1"
   sodipodi:docname="ladi-starting.svg"
   xmlns:inkscape="http://www.inkscape.org/namespaces/inkscape"
   xmlns:sodipodi="http://sodipodi.sourceforge.net/DTD/sodipodi-0.dtd"
   xmlns="http://www.w3.org/2000/svg"
   xmlns:svg="http://www.w3.org/2000/svg">
  <sodipodi:namedview
     id="namedview1"
     pagecolor="#ffffff"
     bordercolor="#000000"
     borderopacity="0.25"
     inkscape:showpageshadow="2"
     inkscape:pageopacity="0.0"
     inkscape:pagecheckerboard="0"
     inkscape:deskcolor="#d1d1d1" />
  <defs
     id="defs1">
    <style
       id="current-color-scheme"
       type="text/css">.ColorScheme-Text {color:#d8dee9} .ColorScheme-Highlight {color:#3b4252}</style>
  </defs>
  <path
     style="fill:currentColor;stroke-width:1.2"
     class="ColorScheme-Text"
     d="m 21.078689,2.4037381 c -0.160056,-0.016598 -0.410838,0.020784 -0.874218,0.1382965 -0.922379,0.2339139 -1.116757,0.3047294 -1.10625,0.5063058 0.0059,0.1134504 0.0663,0.2150994 0.229687,0.3984815 L 18.650564,4.1218963 18.465408,3.9367196 c -0.05065,-0.050629 -0.116712,-0.075008 -0.182813,-0.075008 -0.0661,0 -0.132164,0.024379 -0.182813,0.075008 l -0.2625,0.262529 1.982813,1.947871 0.246094,-0.2461208 c 0.101292,-0.1012584 0.101292,-0.2644066 0,-0.3656654 L 19.885721,5.3548447 20.563064,4.6774264 c 0.175653,0.1547858 0.272518,0.2135917 0.391407,0.2273688 0.194011,0.022481 0.240291,-0.2083721 0.4875,-1.1274681 0.24416,-0.9077642 0.182625,-0.9707082 -0.03047,-1.1837243 -0.101772,-0.101736 -0.172757,-0.1732669 -0.332814,-0.1898647 z m -3.670313,2.2244641 -5.765624,5.7662588 1.964062,1.961937 5.784375,-5.7803248 z m -7.338281,6.0006608 c -0.06917,8.8e-5 -0.136777,0.02665 -0.1898434,0.07969 l -6.0351565,6.031134 c -0.106128,0.106092 -0.105864,0.276249 0,0.382074 l 3.0281256,3.026115 c 0.105864,0.105828 0.275898,0.106092 0.3820308,0 l 6.0328125,-6.031134 c 0.106128,-0.106092 0.105864,-0.276249 0,-0.382074 l -3.025782,-3.026115 c -0.05293,-0.05291 -0.12302,-0.07979 -0.192187,-0.07969 z m -6.8062499,7.608652 -0.6703116,0.668041 c -0.2579424,0.257848 -0.2579424,0.672725 0,0.930572 l 1.5703116,1.570486 c 0.2579424,0.257848 0.6748704,0.257848 0.9328128,0 l 0.6679692,-0.668042 z"
     id="path1" />
</svg>
