<?xml version="1.0" encoding="UTF-8" standalone="no"?>
<svg
   width="24"
   height="24"
   version="1.1"
   id="svg1"
   sodipodi:docname="ladi-stopped.svg"
   xmlns:inkscape="http://www.inkscape.org/namespaces/inkscape"
   xmlns:sodipodi="http://sodipodi.sourceforge.net/DTD/sodipodi-0.dtd"
   xmlns="http://www.w3.org/2000/svg"
   xmlns:svg="http://www.w3.org/2000/svg">
  <sodipodi:namedview
     id="namedview1"
     pagecolor="#ffffff"
     bordercolor="#000000"
     borderopacity="0.25"
     inkscape:showpageshadow="2"
     inkscape:pageopacity="0.0"
     inkscape:pagecheckerboard="0"
     inkscape:deskcolor="#d1d1d1" />
  <defs
     id="defs1">
    <style
       id="current-color-scheme"
       type="text/css">.ColorScheme-Text {color:#d8dee9} .ColorScheme-Highlight {color:#3b4252}</style>
  </defs>
  <rect
     style="fill:currentColor;stroke-width:1.2"
     class="ColorScheme-Text"
     width="9.6000004"
     height="9.6000004"
     x="15.299994"
     y="13.1"
     rx="2.4000001"
     ry="2.4000001"
     id="rect1" />
  <path
     style="fill:currentColor;stroke-width:1.2"
     class="ColorScheme-Text"
     d="m 20.778682,2.3037381 c -0.160056,-0.016598 -0.410838,0.020784 -0.874218,0.1382965 -0.922378,0.2339139 -1.116757,0.3047293 -1.10625,0.5063058 0.0059,0.1134504 0.0663,0.2150994 0.229688,0.3984815 L 18.350558,4.0218963 18.165402,3.8367196 c -0.05065,-0.050629 -0.116712,-0.075008 -0.182813,-0.075008 -0.0661,0 -0.132165,0.024379 -0.182813,0.075008 l -0.2625,0.2625289 1.982813,1.9478711 0.246093,-0.2461208 c 0.101292,-0.1012584 0.101292,-0.2644066 0,-0.3656655 L 19.585714,5.2548447 20.263058,4.5774263 c 0.175652,0.1547859 0.272518,0.2135918 0.391406,0.2273688 0.194012,0.022481 0.240292,-0.208372 0.4875,-1.127468 C 21.386125,2.7695629 21.32459,2.7066189 21.111496,2.4936028 21.009724,2.3918668 20.93874,2.3203359 20.778682,2.3037381 Z m -3.670312,2.2244641 -5.765625,5.7662588 1.964063,1.961937 5.784374,-5.7803248 z M 9.7700888,10.528863 c -0.069168,8.8e-5 -0.1367772,0.02665 -0.1898436,0.07969 l -6.0351565,6.031134 c -0.106128,0.106092 -0.105864,0.276249 0,0.382074 l 3.0281256,3.026115 c 0.105864,0.105828 0.275898,0.106092 0.3820308,0 l 6.0328129,-6.031134 c 0.106128,-0.106092 0.105864,-0.276249 0,-0.382074 L 9.962276,10.608555 c -0.052932,-0.05291 -0.1230204,-0.07979 -0.1921872,-0.07969 z m -6.8062501,7.608652 -0.6703116,0.668041 c -0.2579424,0.257848 -0.2579424,0.672725 0,0.930572 l 1.5703116,1.570486 c 0.2579424,0.257848 0.6748704,0.257848 0.9328128,0 l 0.6679692,-0.668042 z"
     id="path1" />
</svg>
