<?xml version="1.0" encoding="UTF-8" standalone="no"?>
<svg
   width="24"
   height="24"
   version="1.1"
   id="svg2"
   sodipodi:docname="laptopdisconnected.svg"
   xmlns:inkscape="http://www.inkscape.org/namespaces/inkscape"
   xmlns:sodipodi="http://sodipodi.sourceforge.net/DTD/sodipodi-0.dtd"
   xmlns="http://www.w3.org/2000/svg"
   xmlns:svg="http://www.w3.org/2000/svg">
  <sodipodi:namedview
     id="namedview2"
     pagecolor="#ffffff"
     bordercolor="#000000"
     borderopacity="0.25"
     inkscape:showpageshadow="2"
     inkscape:pageopacity="0.0"
     inkscape:pagecheckerboard="0"
     inkscape:deskcolor="#d1d1d1" />
  <defs
     id="defs1">
    <style
       id="current-color-scheme"
       type="text/css">.ColorScheme-Text {color:#d8dee9} .ColorScheme-Highlight {color:#3b4252}</style>
  </defs>
  <path
     style="opacity:0.35;fill:currentColor;stroke-width:1.2"
     class="ColorScheme-Text"
     d="M 3.6,3.5 C 2.9352,3.5 2.4,4.0352 2.4,4.7 v 12 c 0,0.6648 0.5352,1.2 1.2,1.2 H 1.2 v 1.2 c 0,0.6648 1.0704,1.2 2.4,1.2 h 12 c 0,-0.620297 0.226334,-1.226156 0.665626,-1.689844 a 1.20012,1.20012 0 0 1 0.0211,-0.02344 L 16.375781,18.5 16.286719,18.413281 C 15.819304,17.945865 15.6,17.321714 15.6,16.7 H 4.8 V 5.9 h 14.4 v 8.714063 c 0.182898,0.101304 0.358854,0.218233 0.513281,0.372656 a 1.20012,1.20012 0 0 1 0.0047,0.0071 l 0.08203,0.08203 0.08203,-0.08203 a 1.20012,1.20012 0 0 1 0.0047,-0.0071 C 20.369848,14.50359 20.979703,14.3 21.6,14.3 V 4.7 c 0,-0.6648 -0.5352,-1.2 -1.2,-1.2 z m 6,14.4 h 4.8 v 1.2 H 9.6 Z"
     id="path1" />
  <path
     style="fill:currentColor;stroke-width:1.2"
     class="ColorScheme-Text"
     d="m 16.8,15.5 v 1.2 c 0,0.336 0.12,0.648 0.336,0.864 l 0.936,0.936 -0.936,0.936 C 16.92,19.664 16.8,19.976 16.8,20.3 v 1.2 H 18 c 0.336,0 0.648,-0.12 0.864,-0.336 l 0.936,-0.936 0.936,0.936 c 0.216,0.216 0.54,0.336 0.864,0.336 h 1.2 v -1.2 c 0,-0.324 -0.12,-0.636 -0.336,-0.864 L 21.528,18.5 22.464,17.564 C 22.68,17.348 22.8,17.036 22.8,16.7 v -1.2 h -1.2 c -0.324,0 -0.648,0.12 -0.864,0.336 L 19.8,16.784 18.864,15.836 C 18.648,15.62 18.336,15.5 18,15.5 Z"
     id="path2" />
</svg>
