<?xml version="1.0" encoding="UTF-8" standalone="no"?>
<svg
   width="24"
   height="24"
   version="1.1"
   id="svg2"
   sodipodi:docname="laptopattention.svg"
   xmlns:inkscape="http://www.inkscape.org/namespaces/inkscape"
   xmlns:sodipodi="http://sodipodi.sourceforge.net/DTD/sodipodi-0.dtd"
   xmlns="http://www.w3.org/2000/svg"
   xmlns:svg="http://www.w3.org/2000/svg">
  <sodipodi:namedview
     id="namedview2"
     pagecolor="#ffffff"
     bordercolor="#000000"
     borderopacity="0.25"
     inkscape:showpageshadow="2"
     inkscape:pageopacity="0.0"
     inkscape:pagecheckerboard="0"
     inkscape:deskcolor="#d1d1d1" />
  <defs
     id="defs1">
    <style
       id="current-color-scheme"
       type="text/css">.ColorScheme-Text {color:#d8dee9} .ColorScheme-Highlight {color:#3b4252}</style>
  </defs>
  <g
     transform="translate(1,1)"
     style=""
     id="g2">
    <path
       style="fill:currentColor;stroke-width:1.2"
       class="ColorScheme-Text"
       d="M 2.6,2.5 C 1.9352,2.5 1.4,3.0352 1.4,3.7 v 12 c 0,0.6648 0.5352,1.2 1.2,1.2 H 0.2 v 1.2 c 0,0.6648 1.0704,1.2 2.4,1.2 H 18.2 V 15.7 H 3.8 V 4.9 h 14.4 v 3.6 h 2.4 V 3.7 c 0,-0.6648 -0.5352,-1.2 -1.2,-1.2 z m 6,14.4 h 4.8 v 1.2 H 8.6 Z"
       id="path1" />
    <path
       style="fill:currentColor;stroke-width:1.2"
       class="ColorScheme-Text"
       d="m 19.4,9.7 v 4.8 l 0.3,2.4 h 1.8 l 0.3,-2.4 V 9.7 Z m 0,8.4 v 2.4 h 2.4 v -2.4 z"
       id="path2" />
  </g>
</svg>
