<?xml version="1.0" encoding="UTF-8" standalone="no"?>
<svg
   width="24"
   height="24"
   version="1.1"
   id="svg1"
   sodipodi:docname="liferea-unread.svg"
   xmlns:inkscape="http://www.inkscape.org/namespaces/inkscape"
   xmlns:sodipodi="http://sodipodi.sourceforge.net/DTD/sodipodi-0.dtd"
   xmlns="http://www.w3.org/2000/svg"
   xmlns:svg="http://www.w3.org/2000/svg">
  <sodipodi:namedview
     id="namedview1"
     pagecolor="#ffffff"
     bordercolor="#000000"
     borderopacity="0.25"
     inkscape:showpageshadow="2"
     inkscape:pageopacity="0.0"
     inkscape:pagecheckerboard="0"
     inkscape:deskcolor="#d1d1d1" />
  <defs
     id="defs1">
    <style
       id="current-color-scheme"
       type="text/css">.ColorScheme-Text {color:#d8dee9} .ColorScheme-Highlight {color:#3b4252}</style>
  </defs>
  <circle
     style="fill:currentColor;stroke-width:1.2"
     class="ColorScheme-Text"
     cx="21.4"
     cy="2.5999999"
     r="2.4000001"
     id="circle1" />
  <path
     style="fill:currentColor;stroke-width:1.2"
     class="ColorScheme-Text"
     d="m 11.8,2.5999998 c -5.3184,0 -9.6,4.2816 -9.6,9.6000002 0,5.3184 4.2816,9.6 9.6,9.6 5.3184,0 9.6,-4.2816 9.6,-9.6 0,-5.3184002 -4.2816,-9.6000002 -9.6,-9.6000002 z m 0,2.4 c 3.976458,0 7.2,3.2235436 7.2,7.2000002 0,3.976459 -3.223542,7.2 -7.2,7.2 -3.9764568,0 -7.2,-3.223541 -7.2,-7.2 0,-3.9764566 3.2235432,-7.2000002 7.2,-7.2000002 z M 11.078124,6.375781 c -0.211072,0.021456 -0.421357,0.037898 -0.62578,0.079687 -0.410402,0.08394 -0.7994236,0.1920466 -1.1765632,0.3515626 -1.8024432,0.7622597 -3.1623792,2.345076 -3.6468744,4.2750004 0.01242,0.01356 0.025524,0.02454 0.03984,0.03984 0.3381552,0.361166 1.222728,0.859163 1.8796872,1.096875 0.3592716,0.130029 1.055454,0.333882 1.5304692,0.43125 0.4750464,0.09719 0.7921116,0.192987 0.7453116,0.196875 -0.046788,0.0038 -0.2598828,0.161669 -0.4710936,0.351563 -0.4028736,0.362209 -0.6087036,0.682993 -0.7828116,1.25625 -0.095532,0.313875 -0.086844,0.418376 0.0375,0.588282 0.075036,0.102384 0.4115868,0.341856 0.7453116,0.548437 0.333738,0.206595 0.7256552,0.490863 0.8648432,0.625781 0.518524,0.502526 0.860157,1.402754 0.860157,2.275782 0,0.223394 0.02352,0.340585 0.03984,0.391405 0.04241,0.0038 0.07465,-0.0038 0.117192,0 0.09599,-0.03702 0.242317,-0.07997 0.471093,-0.194531 1.916753,-0.959504 2.791017,-2.200036 2.704689,-3.84375 -0.06876,-1.310812 -0.682975,-1.787288 -3.175781,-2.315626 -1.8355932,-0.389096 -2.8218756,-1.047865 -2.8218756,-1.879687 0,-0.219354 0.074412,-0.348672 0.3140628,-0.588281 0.257574,-0.2575918 0.3094908,-0.2741662 0.5085936,-0.2343754 0.126792,0.025344 0.4537284,0.1920674 0.7054692,0.3914064 0.566681,0.448737 0.843635,0.625782 1.136718,0.625782 0.124848,0 0.236719,-0.01883 0.236719,-0.0375 0,-0.0187 -0.09449,-0.162914 -0.196875,-0.314063 -0.565793,-0.833653 -0.529938,-2.3947727 0.07969,-3.7265626 0.09574,-0.2090764 0.167098,-0.3512734 0.15703,-0.3914062 -0.0847,0.00504 -0.192619,-0.00878 -0.276562,0 z m 5.882813,2.9414062 c -0.11406,-0.070392 -1.043106,0.9051128 -1.25625,1.3335938 -0.422647,0.849716 -0.263677,1.405622 0.745313,2.470313 0.34956,0.36883 0.770656,0.863569 0.902344,1.096874 0.131668,0.233346 0.245698,0.427135 0.276562,0.393751 0.03086,-0.03337 0.122123,-0.303992 0.194531,-0.590625 0.190234,-0.753102 0.205077,-2.063774 0,-2.821876 -0.158839,-0.587222 -0.715131,-1.790922 -0.8625,-1.8820308 z"
     id="path1" />
</svg>
