<?xml version="1.0" encoding="UTF-8" standalone="no"?>
<svg
   width="24"
   height="24"
   version="1.1"
   id="svg2"
   sodipodi:docname="listen.moe-desktop-app-tray.svg"
   xmlns:inkscape="http://www.inkscape.org/namespaces/inkscape"
   xmlns:sodipodi="http://sodipodi.sourceforge.net/DTD/sodipodi-0.dtd"
   xmlns="http://www.w3.org/2000/svg"
   xmlns:svg="http://www.w3.org/2000/svg">
  <sodipodi:namedview
     id="namedview2"
     pagecolor="#ffffff"
     bordercolor="#000000"
     borderopacity="0.25"
     inkscape:showpageshadow="2"
     inkscape:pageopacity="0.0"
     inkscape:pagecheckerboard="0"
     inkscape:deskcolor="#d1d1d1" />
  <defs
     id="defs1">
    <style
       id="current-color-scheme"
       type="text/css">.ColorScheme-Text {color:#d8dee9} .ColorScheme-Highlight {color:#3b4252}</style>
  </defs>
  <path
     style="fill:currentColor;stroke-width:1.2"
     class="ColorScheme-Text"
     d="M 2.8197162,2.4 C 2.5871934,2.4 2.4,2.5852615 2.4,2.8153846 V 4.4769228 12.784615 C 2.4,13.014738 2.5871934,13.2 2.8197162,13.2 H 4.3789428 C 4.6114644,13.2 4.8000384,13.014738 4.8,12.784615 V 4.8 H 9.1802832 C 9.412806,4.8 9.6,4.5872304 9.6,4.3571076 V 2.8153846 C 9.6,2.5852615 9.412806,2.4 9.1802832,2.4 H 4.4985816 Z"
     id="path1" />
  <path
     style="opacity:0.35;fill:currentColor;stroke-width:1.2"
     class="ColorScheme-Text"
     d="M 21.180284,21.6 C 21.412807,21.6 21.6,21.414738 21.6,21.184615 V 19.523077 11.215385 C 21.6,10.985262 21.412807,10.8 21.180284,10.8 H 19.621057 C 19.388536,10.8 19.199962,10.985262 19.2,11.215385 V 19.2 H 14.819717 C 14.587194,19.2 14.4,19.41277 14.4,19.642892 v 1.541723 C 14.4,21.414738 14.587194,21.6 14.819717,21.6 h 4.681701 z"
     id="path2" />
</svg>
