<?xml version="1.0" encoding="UTF-8" standalone="no"?>
<svg
   width="24"
   height="24"
   version="1.1"
   id="svg2"
   sodipodi:docname="lookit-panel.svg"
   xmlns:inkscape="http://www.inkscape.org/namespaces/inkscape"
   xmlns:sodipodi="http://sodipodi.sourceforge.net/DTD/sodipodi-0.dtd"
   xmlns="http://www.w3.org/2000/svg"
   xmlns:svg="http://www.w3.org/2000/svg">
  <sodipodi:namedview
     id="namedview2"
     pagecolor="#ffffff"
     bordercolor="#000000"
     borderopacity="0.25"
     inkscape:showpageshadow="2"
     inkscape:pageopacity="0.0"
     inkscape:pagecheckerboard="0"
     inkscape:deskcolor="#d1d1d1" />
  <defs
     id="defs1">
    <style
       id="current-color-scheme"
       type="text/css">.ColorScheme-Text {color:#d8dee9} .ColorScheme-Highlight {color:#3b4252}</style>
  </defs>
  <g
     transform="translate(0 -1028.4)"
     style=""
     id="g2">
    <path
       style="fill:currentColor;stroke-width:1.2"
       class="ColorScheme-Text"
       d="m 12,1030.8 c -5.28768,0 -9.6,4.3123 -9.6,9.6 0,3.5616 1.9608,6.6732 4.85388,8.3292 C 7.22232,1048.5564 7.2,1048.3812 7.2,1048.2 c 0,-0.7284 0.28644,-1.3596 0.74532,-1.842 C 6.04416,1045.0644 4.8,1042.884 4.8,1040.4 c 0,-3.9906 3.20928,-7.2 7.2,-7.2 3.9912,0 7.2,3.2094 7.2,7.2 0,0.6348 -0.0888,1.2468 -0.2412,1.8324 0.5304,0.612 0.9384,1.3404 1.1652,2.1516 0.1728,0.053 0.3408,0.1188 0.5052,0.1908 0.6156,-1.2648 0.9708,-2.6784 0.9708,-4.1748 0,-5.2877 -4.3128,-9.6 -9.6,-9.6 z m 0,3.6 c -3.3066,0 -6,2.6934 -6,6 0,2.2392 1.25004,4.1748 3.075,5.2056 0.19416,-0.078 0.39336,-0.1452 0.6018,-0.1872 0.0204,-0.264 0.0744,-0.5172 0.1296,-0.7692 C 8.26296,1043.8524 7.2,1042.2624 7.2,1040.4 c 0,-2.658 2.14188,-4.8 4.8,-4.8 2.658,0 4.8,2.142 4.8,4.8 0,0.1068 -0.024,0.2064 -0.03,0.312 0.4128,0.15 0.7932,0.3648 1.1532,0.6096 C 17.97,1041.0204 18,1040.7144 18,1040.4 c 0,-3.3066 -2.6928,-6 -6,-6 z"
       id="path1" />
    <path
       style="fill:currentColor;stroke-width:1.2"
       class="ColorScheme-Text"
       d="m 15,1041.6 a 4.2,4.2 0 0 0 -4.2,4.2 4.2,4.2 0 0 0 0.06328,0.7289 A 1.8,1.8 0 0 0 10.2,1046.4 a 1.8,1.8 0 0 0 -1.8,1.8 1.8,1.8 0 0 0 1.8,1.8 h 9 a 2.4,2.4 0 0 0 2.4,-2.4 2.4,2.4 0 0 0 -2.4,-2.4 2.4,2.4 0 0 0 -0.04687,0 4.2,4.2 0 0 0 -4.15308,-3.6024 z"
       id="path2" />
  </g>
</svg>
