<?xml version="1.0" encoding="UTF-8" standalone="no"?>
<svg
   width="24"
   height="24"
   version="1.1"
   id="svg2"
   sodipodi:docname="lutris-panel.svg"
   xmlns:inkscape="http://www.inkscape.org/namespaces/inkscape"
   xmlns:sodipodi="http://sodipodi.sourceforge.net/DTD/sodipodi-0.dtd"
   xmlns="http://www.w3.org/2000/svg"
   xmlns:svg="http://www.w3.org/2000/svg">
  <sodipodi:namedview
     id="namedview2"
     pagecolor="#ffffff"
     bordercolor="#000000"
     borderopacity="0.25"
     inkscape:showpageshadow="2"
     inkscape:pageopacity="0.0"
     inkscape:pagecheckerboard="0"
     inkscape:deskcolor="#d1d1d1" />
  <defs
     id="defs1">
    <style
       id="current-color-scheme"
       type="text/css">.ColorScheme-Text {color:#d8dee9} .ColorScheme-Highlight {color:#3b4252}</style>
  </defs>
  <path
     style="fill:currentColor;stroke-width:1.2"
     class="ColorScheme-Text"
     d="m 11.695775,2.3999987 c -5.0217573,-0.0045 -9.1605238,4.1311806 -9.292532,9.3492193 -0.1342618,5.300866 3.9170826,9.712188 9.04645,9.850781 4.150391,0.0024 7.750456,-2.39718 8.622249,-6.309374 -1.287068,2.137482 -3.698552,2.800098 -5.852068,2.793749 C 12.447509,18.069686 10.480111,17.656328 8.9677774,16.82578 6.9920057,15.732579 7.1361054,14.365164 7.2006732,13.408593 7.23798,12.85757 7.507012,11.924897 8.2201564,11.022656 c 0.2310024,0.08509 0.4547124,0.186055 0.6538754,0.32578 0.4915052,0.331904 0.9353706,0.828779 1.5655502,0.604689 0.430836,-0.151133 0.453417,-0.408863 0.288269,-0.829689 C 10.588388,10.781272 10.359046,10.19216 10.073976,9.9656249 9.96054,9.8758409 9.7947492,9.8199161 9.6169656,9.7710929 9.9185304,9.5788271 10.246571,9.3973907 10.622387,9.2390615 c 1.048676,-0.3703704 2.21133,-0.5811324 3.337343,-0.5671872 0.230142,0.3509292 0.436536,0.7122516 0.801525,0.8531244 0.609672,0.2477166 0.86233,-0.1568544 0.839023,-0.6492192 0.05663,0.016128 0.115212,0.026532 0.171086,0.044532 1.205602,0.2720892 2.073685,0.6216432 3.22016,1.0265634 0,0 -0.0098,0.019932 0.307016,0.098436 0.927963,0.147014 1.469138,-0.1123442 1.799916,-0.4593752 0.07966,-0.00456 0.155675,-0.033516 0.22499,-0.119532 C 21.448768,9.3109834 21.686887,9.084229 21.550778,8.7468718 21.594132,8.5638419 21.6,8.4351551 21.6,8.4351551 L 21.53672,8.0765612 21.342197,7.591405 l -0.0914,-0.20625 -0.01876,-0.0375 c 0.09404,-0.07739 0.165742,-0.2080306 0.178117,-0.3703126 0.0198,-0.2573186 -0.108947,-0.4805125 -0.28826,-0.5109374 -3.9e-4,-0.285207 -0.0174,-0.6111677 -0.07031,-1.0546876 C 20.978632,4.7998346 20.577095,4.5576078 20.446924,4.4624987 20.316462,4.3675607 19.70753,3.9083322 19.125112,3.6796861 18.542335,3.4510379 17.954606,3.2821034 17.229108,3.3843737 c -0.08056,0.011388 -0.157286,0.023242 -0.236708,0.035156 -0.01406,-0.00446 -0.02462,-0.00955 -0.03984,-0.014063 -0.276654,-0.082181 -0.472396,-0.5304163 -0.698405,-0.525 -0.01729,4.148e-4 -0.0362,0.00283 -0.0539,0.00469 -0.01742,0.00182 -0.03364,0.00368 -0.05156,0.00703 h -0.0024 c -0.01826,0.00341 -0.03503,0.00894 -0.0539,0.014063 -0.02062,0.00559 -0.04234,0.012451 -0.06094,0.021094 -0.132264,0.061502 -0.212389,0.2934841 -0.262488,0.4453125 -1.16029,-0.5867091 -2.458169,-0.9308852 -3.834147,-0.9679741 -0.08015,-0.00217 -0.15934,-0.00462 -0.23905,-0.00469 z m 6.831709,3.6046874 c 0.152393,-0.01814 0.312446,0.02182 0.442948,0.1242189 0.261296,0.2052464 0.306578,0.5809869 0.103128,0.8414062 -0.204051,0.2604182 -0.58022,0.3052794 -0.841367,0.1007808 -0.261149,-0.2055458 -0.309657,-0.5808372 -0.105468,-0.8414062 0.101808,-0.1299845 0.24837,-0.206859 0.400763,-0.225 z"
     id="path1" />
  <path
     style="opacity:0.35;fill:currentColor;stroke-width:1.2"
     class="ColorScheme-Text"
     d="m 13.587997,9.9337325 c -0.645734,0.023448 -1.29261,0.1560265 -1.926473,0.3281655 0.06313,0.145318 0.140385,0.317635 0.178118,0.410205 a 1.2000637,1.2002662 0 0 1 0.0071,0.01406 c 0.11982,0.305321 0.279498,0.708383 0.11484,1.284533 -0.164319,0.574944 -0.712539,0.968725 -1.122606,1.113416 -0.66131,0.232922 -1.3895687,0.05902 -1.8092903,-0.171115 -0.145722,-0.0799 -0.1780164,-0.121799 -0.2859252,-0.196898 -0.095184,0.267985 -0.3366228,0.656737 -0.344514,0.771187 -0.033744,0.499829 -0.050568,0.878138 0.056244,1.193116 0.106476,0.313964 0.3045324,0.656406 1.089792,1.09232 l 0.00468,0.0024 c 1.2746895,0.698734 3.0886975,1.095535 4.6802505,1.108728 1.903207,0.0047 3.812684,-0.550194 4.813837,-2.212769 a 1.2000637,1.2002662 0 0 1 1.288997,-0.555593 7.1995006,7.2010292 0 0 0 0.06797,-0.914174 7.1995006,7.2010292 0 0 0 -0.27655,-1.95727 c -0.321206,0.0361 -0.65738,0.04453 -1.012453,-0.01176 a 1.2000637,1.2002662 0 0 1 -0.100776,-0.0211 c -0.18427,-0.04565 -0.288721,-0.07308 -0.428886,-0.128917 -0.0056,-0.0023 -0.02002,-0.01188 -0.02578,-0.01406 -0.866382,-0.306674 -1.553396,-0.524585 -2.299111,-0.738371 -0.0038,0.0038 -7.27e-4,0.0079 -0.0047,0.01176 -0.501605,0.484262 -1.359246,0.52359 -1.92883,0.297687 -0.461393,-0.181125 -0.525535,-0.440639 -0.735902,-0.7055185 z"
     id="path2" />
</svg>
