<?xml version="1.0" encoding="UTF-8" standalone="no"?>
<svg
   width="24"
   height="24"
   version="1.1"
   id="svg1"
   sodipodi:docname="lyricfier-tray.svg"
   xmlns:inkscape="http://www.inkscape.org/namespaces/inkscape"
   xmlns:sodipodi="http://sodipodi.sourceforge.net/DTD/sodipodi-0.dtd"
   xmlns="http://www.w3.org/2000/svg"
   xmlns:svg="http://www.w3.org/2000/svg">
  <sodipodi:namedview
     id="namedview1"
     pagecolor="#ffffff"
     bordercolor="#000000"
     borderopacity="0.25"
     inkscape:showpageshadow="2"
     inkscape:pageopacity="0.0"
     inkscape:pagecheckerboard="0"
     inkscape:deskcolor="#d1d1d1" />
  <defs
     id="defs1">
    <style
       id="current-color-scheme"
       type="text/css">.ColorScheme-Text {color:#d8dee9} .ColorScheme-Highlight {color:#3b4252}</style>
  </defs>
  <path
     style="fill:currentColor;stroke-width:1.2"
     class="ColorScheme-Text"
     d="M 3.3609372,2.4 C 2.8290972,2.4 2.4,2.8290974 2.4,3.3609374 V 20.639063 C 2.4,21.170903 2.8290972,21.6 3.3609372,21.6 H 20.639063 C 21.170903,21.6 21.6,21.170903 21.6,20.639063 V 3.3609374 C 21.6,2.8290974 21.170903,2.4 20.639063,2.4 Z M 11.4,4.8 c 0.3324,0 0.6,0.4014 0.6,0.9 v 12.6 c 0,0.4986 -0.2676,0.9 -0.6,0.9 -0.3324,0 -0.6,-0.4014 -0.6,-0.9 V 5.7 c 0,-0.4986 0.2676,-0.9 0.6,-0.9 z M 4.2,6 C 4.5324,6 4.8,6.4446592 4.8,6.9984374 V 17.001563 C 4.8,17.555341 4.5324,18 4.2,18 3.8675999,18 3.6,17.555341 3.6,17.001563 V 6.9984374 C 3.6,6.444659 3.8675999,6 4.2,6 Z M 15,6 c 0.3324,0 0.6,0.3831452 0.6,0.8578126 V 17.142187 C 15.6,17.616854 15.3324,18 15,18 14.6676,18 14.4,17.616854 14.4,17.142187 V 6.8578126 C 14.4,6.3831452 14.6676,6 15,6 Z M 7.8000001,7.2 c 0.3323999,0 0.6,0.4290974 0.6,0.9609374 v 7.6781256 c 0,0.53184 -0.2676001,0.960937 -0.6,0.960937 -0.3324,0 -0.6,-0.429097 -0.6,-0.960937 V 8.1609374 c 0,-0.53184 0.2676,-0.9609374 0.6,-0.9609374 z M 18.6,7.2 c 0.3324,0 0.6,0.358141 0.6,0.8015626 V 15.998437 C 19.2,16.441859 18.9324,16.8 18.6,16.8 18.2676,16.8 18,16.441859 18,15.998437 V 8.0015626 C 18,7.558141 18.2676,7.2 18.6,7.2 Z"
     id="path1" />
</svg>
