<?xml version="1.0" encoding="UTF-8" standalone="no"?>
<svg
   width="24"
   height="24"
   version="1.1"
   id="svg1"
   sodipodi:docname="mate-sensors-applet-drive-harddisk.svg"
   xmlns:inkscape="http://www.inkscape.org/namespaces/inkscape"
   xmlns:sodipodi="http://sodipodi.sourceforge.net/DTD/sodipodi-0.dtd"
   xmlns="http://www.w3.org/2000/svg"
   xmlns:svg="http://www.w3.org/2000/svg">
  <sodipodi:namedview
     id="namedview1"
     pagecolor="#ffffff"
     bordercolor="#000000"
     borderopacity="0.25"
     inkscape:showpageshadow="2"
     inkscape:pageopacity="0.0"
     inkscape:pagecheckerboard="0"
     inkscape:deskcolor="#d1d1d1" />
  <defs
     id="defs1">
    <style
       id="current-color-scheme"
       type="text/css">.ColorScheme-Text {color:#d8dee9} .ColorScheme-Highlight {color:#3b4252}</style>
  </defs>
  <g
     transform="translate(1,1)"
     style=""
     id="g1">
    <path
       style="fill:currentColor;stroke-width:1.2"
       class="ColorScheme-Text"
       d="M 3.8,1.4 C 3.1352,1.4 2.6,1.9352 2.6,2.6 v 16.8 c 0,0.6648 0.5352,1.2 1.2,1.2 h 14.4 c 0.6648,0 1.2,-0.5352 1.2,-1.2 V 2.6 C 19.4,1.9352 18.8648,1.4 18.2,1.4 Z M 11,5 c 2.650967,0 4.8,2.1490332 4.8,4.8 0,2.650967 -2.149033,4.8 -4.8,4.8 H 6.2 V 9.8 C 6.2,7.1490332 8.3490332,5 11,5 Z m 0,2.4 c -1.3254834,0 -2.4,1.0745166 -2.4,2.4 0,1.325483 1.0745166,2.4 2.4,2.4 1.325483,0 2.4,-1.074517 2.4,-2.4 0,-1.3254834 -1.074517,-2.4 -2.4,-2.4 z"
       id="path1" />
  </g>
</svg>
