<?xml version="1.0" encoding="UTF-8" standalone="no"?>
<svg
   width="24"
   height="24"
   version="1.1"
   id="svg2"
   sodipodi:docname="mate-sensors-applet-case.svg"
   xmlns:inkscape="http://www.inkscape.org/namespaces/inkscape"
   xmlns:sodipodi="http://sodipodi.sourceforge.net/DTD/sodipodi-0.dtd"
   xmlns="http://www.w3.org/2000/svg"
   xmlns:svg="http://www.w3.org/2000/svg">
  <sodipodi:namedview
     id="namedview2"
     pagecolor="#ffffff"
     bordercolor="#000000"
     borderopacity="0.25"
     inkscape:showpageshadow="2"
     inkscape:pageopacity="0.0"
     inkscape:pagecheckerboard="0"
     inkscape:deskcolor="#d1d1d1" />
  <defs
     id="defs1">
    <style
       id="current-color-scheme"
       type="text/css">.ColorScheme-Text {color:#d8dee9} .ColorScheme-Highlight {color:#3b4252}</style>
  </defs>
  <g
     transform="translate(3,-1029.4)"
     style=""
     id="g2">
    <path
       style="fill:currentColor;stroke-width:1.2"
       class="ColorScheme-Text"
       d="m 1.8,1035.4 v 14.4 c 0,0.6648 0.5352,1.2 1.2,1.2 h 12 c 0.6648,0 1.2,-0.5352 1.2,-1.2 v -14.4 z m 3,2.4 h 8.4 a 0.60006,0.60006 0 0 1 0.6,0.6 v 2.4 2.4 a 0.60006,0.60006 0 0 1 -0.6,0.6 H 4.8 a 0.60006,0.60006 0 0 1 -0.6,-0.6 v -2.4 -2.4 a 0.60006,0.60006 0 0 1 0.6,-0.6 z m 0.6,1.2 v 1.2 h 7.2 v -1.2 z m 0,2.4 v 1.2 h 7.2 v -1.2 z m 0,3.6 h 1.2 v 1.2 H 7.8 V 1045 H 9 v 1.2 h 1.2 v -1.2 h 1.2 v 1.2 h 1.2 v -1.2 h 1.2 v 1.2 h -1.2 v 1.2 h 1.2 v 1.2 h -1.2 v -1.2 h -1.2 v 1.2 h -1.2 v -1.2 H 9 v 1.2 H 7.8 v -1.2 H 6.6 v 1.2 H 5.4 v -1.2 H 4.2 v -1.2 h 1.2 z m 0,1.2 v 1.2 h 1.2 v -1.2 z m 2.4,1.2 H 9 v -1.2 H 7.8 Z m 2.4,0 h 1.2 v -1.2 h -1.2 z"
       id="path1" />
    <path
       fill-rule="evenodd"
       style="fill:currentColor;stroke-width:1.2"
       class="ColorScheme-Text"
       d="m 1.8,1034.2 2.4,-2.4 h 9.6 l 2.4,2.4 z"
       id="path2" />
  </g>
</svg>
