<?xml version="1.0" encoding="UTF-8" standalone="no"?>
<svg
   width="24"
   height="24"
   version="1.1"
   id="svg8"
   sodipodi:docname="mate-sensors-applet-cpu.svg"
   xmlns:inkscape="http://www.inkscape.org/namespaces/inkscape"
   xmlns:sodipodi="http://sodipodi.sourceforge.net/DTD/sodipodi-0.dtd"
   xmlns="http://www.w3.org/2000/svg"
   xmlns:svg="http://www.w3.org/2000/svg">
  <sodipodi:namedview
     id="namedview8"
     pagecolor="#ffffff"
     bordercolor="#000000"
     borderopacity="0.25"
     inkscape:showpageshadow="2"
     inkscape:pageopacity="0.0"
     inkscape:pagecheckerboard="0"
     inkscape:deskcolor="#d1d1d1" />
  <defs
     id="defs1">
    <style
       id="current-color-scheme"
       type="text/css">.ColorScheme-Text {color:#d8dee9} .ColorScheme-Highlight {color:#3b4252}</style>
  </defs>
  <g
     style="fill:currentColor"
     class="ColorScheme-Text"
     transform="translate(4 -1029.4)"
     id="g8">
    <rect
       width="10.8"
       height="10.8"
       x="4.4000025"
       y="1037.8"
       rx="0.30000001"
       ry="0.30000001"
       style="stroke-width:1.2"
       id="rect1" />
    <rect
       width="1.2"
       height="2.4000001"
       x="14.000003"
       y="1031.8"
       rx="0.30000001"
       ry="0.30000001"
       style="stroke-width:1.2"
       id="rect2" />
    <rect
       width="1.2"
       height="2.4000001"
       x="9.2000027"
       y="1031.8"
       rx="0.30000001"
       ry="0.30000001"
       style="stroke-width:1.2"
       id="rect3" />
    <rect
       width="1.2"
       height="2.4000001"
       x="4.4000025"
       y="1031.8"
       rx="0.30000001"
       ry="0.30000001"
       style="stroke-width:1.2"
       id="rect4" />
    <g
       style="fill:currentColor"
       class="ColorScheme-Text"
       transform="matrix(0,1,-1,0,1033.4,1029.4)"
       id="g7">
      <rect
         width="1.2"
         height="2.4000001"
         x="17.999998"
         y="1032.6"
         rx="0.30000001"
         ry="0.30000001"
         style="stroke-width:1.2"
         id="rect5" />
      <rect
         width="1.2"
         height="2.4000001"
         x="13.199998"
         y="1032.6"
         rx="0.30000001"
         ry="0.30000001"
         style="stroke-width:1.2"
         id="rect6" />
      <rect
         width="1.2"
         height="2.4000001"
         x="8.3999977"
         y="1032.6"
         rx="0.30000001"
         ry="0.30000001"
         style="stroke-width:1.2"
         id="rect7" />
    </g>
    <path
       style="fill:currentColor;stroke-width:1.2"
       class="ColorScheme-Text"
       d="m 2.3000024,1034.2 c -0.831,0 -1.49999996,0.669 -1.49999996,1.5 v 0.9305 c 0.68591996,0.1385 1.19999996,0.7416 1.19999996,1.4695 v 0.6 c 0,0.7279 -0.51408,1.331 -1.19999996,1.4695 v 1.2605 c 0.68591996,0.1392 1.19999996,0.7416 1.19999996,1.47 v 0.6 c 0,0.7284 -0.51408,1.3308 -1.19999996,1.47 v 1.26 c 0.68591996,0.1392 1.19999996,0.7416 1.19999996,1.47 v 0.6 c 0,0.7188 -0.5016,1.314 -1.17419996,1.4628 0.12408,0.7044 0.73331996,1.2372 1.47419996,1.2372 H 16.100002 c 0.8304,0 1.5,-0.6696 1.5,-1.5 v -13.8 c 0,-0.7303 -0.5172,-1.3336 -1.2072,-1.4695 -0.0168,0.6497 -0.5388,1.1695 -1.1928,1.1695 h -1.2 c -0.6648,0 -1.2,-0.5352 -1.2,-1.2 h -1.2 c 0,0.6648 -0.5352,1.2 -1.2,1.2 H 9.2000024 c -0.6648,0 -1.2,-0.5352 -1.2,-1.2 h -1.2 c 0,0.6648 -0.5352,1.2 -1.2,1.2 h -1.2 c -0.6648,0 -1.2,-0.5352 -1.2,-1.2 z m 2.1,2.4 H 15.200002 c 0.6648,0 1.2,0.5352 1.2,1.2 v 10.8 c 0,0.6648 -0.5352,1.2 -1.2,1.2 H 4.4000024 c -0.6648,0 -1.2,-0.5352 -1.2,-1.2 v -10.8 c 0,-0.6648 0.5352,-1.2 1.2,-1.2 z"
       id="path7" />
  </g>
</svg>
