<?xml version="1.0" encoding="UTF-8" standalone="no"?>
<svg
   width="24"
   height="24"
   version="1.1"
   id="svg1"
   sodipodi:docname="mattermost-mention.svg"
   xmlns:inkscape="http://www.inkscape.org/namespaces/inkscape"
   xmlns:sodipodi="http://sodipodi.sourceforge.net/DTD/sodipodi-0.dtd"
   xmlns="http://www.w3.org/2000/svg"
   xmlns:svg="http://www.w3.org/2000/svg">
  <sodipodi:namedview
     id="namedview1"
     pagecolor="#ffffff"
     bordercolor="#000000"
     borderopacity="0.25"
     inkscape:showpageshadow="2"
     inkscape:pageopacity="0.0"
     inkscape:pagecheckerboard="0"
     inkscape:deskcolor="#d1d1d1" />
  <defs
     id="defs1">
    <style
       id="current-color-scheme"
       type="text/css">.ColorScheme-Text {color:#d8dee9} .ColorScheme-Highlight {color:#3b4252}</style>
  </defs>
  <path
     style="fill:currentColor;stroke-width:1.2"
     class="ColorScheme-Text"
     d="M 11.482031,2.3107422 A 9.5999999,9.5999999 0 0 0 2.1,11.899023 a 9.5999999,9.5999999 0 0 0 9.6,9.6 9.5999999,9.5999999 0 0 0 9.6,-9.6 9.5999999,9.5999999 0 0 0 -4.132031,-7.860937 V 6.0185547 A 7.2,7.2 0 0 1 18.9,10.699023 a 7.2,7.2 0 0 1 -7.2,7.2 7.2,7.2 0 0 1 -7.2,-7.2 7.2,7.2 0 0 1 5.873437,-7.0617183 c 0.347203,-0.4150808 0.740011,-0.8842453 0.911719,-1.0945313 0.06839,-0.083759 0.130811,-0.1540155 0.196875,-0.2320312 z m 2.23125,1.1882812 c -0.01762,0.00215 -0.03202,0.00774 -0.04453,0.014063 -0.04435,0.02243 -0.256656,0.2894476 -0.473437,0.5929688 -0.21678,0.3035204 -0.690543,0.9523047 -1.052344,1.44375 -0.3618,0.4914446 -1.049412,1.4335419 -1.525782,2.090625 C 9.6813192,8.9313154 9.53151,9.1906006 9.3773424,9.8037106 9.2810604,10.186638 9.2725872,10.806194 9.3585864,11.16543 c 0.2357964,0.984806 1.0249106,1.722849 2.0414066,1.9125 0.0462,0.0086 0.206072,0.01877 0.353906,0.0211 0.615935,0.0102 1.140348,-0.22905 1.584375,-0.721875 0.234021,-0.259741 0.29912,-0.361915 0.442969,-0.693751 0.09269,-0.213804 0.193391,-0.49715 0.225,-0.630468 0.0811,-0.341948 0.119508,-1.048117 0.07734,-2.6648434 V 3.6771484 C 14.064271,3.565795 13.836626,3.4839717 13.713281,3.4990234 Z M 22.5,17.899023 a 2.4,2.4 0 0 0 -2.4,2.4 2.4,2.4 0 0 0 2.4,2.4 2.4,2.4 0 0 0 2.4,-2.4 2.4,2.4 0 0 0 -2.4,-2.4 z"
     id="path1" />
</svg>
