<?xml version="1.0" encoding="UTF-8" standalone="no"?>
<svg
   width="24"
   height="24"
   version="1.1"
   id="svg1"
   sodipodi:docname="mattermost-tray.svg"
   xmlns:inkscape="http://www.inkscape.org/namespaces/inkscape"
   xmlns:sodipodi="http://sodipodi.sourceforge.net/DTD/sodipodi-0.dtd"
   xmlns="http://www.w3.org/2000/svg"
   xmlns:svg="http://www.w3.org/2000/svg">
  <sodipodi:namedview
     id="namedview1"
     pagecolor="#ffffff"
     bordercolor="#000000"
     borderopacity="0.25"
     inkscape:showpageshadow="2"
     inkscape:pageopacity="0.0"
     inkscape:pagecheckerboard="0"
     inkscape:deskcolor="#d1d1d1" />
  <defs
     id="defs1">
    <style
       id="current-color-scheme"
       type="text/css">.ColorScheme-Text {color:#d8dee9} .ColorScheme-Highlight {color:#3b4252}</style>
  </defs>
  <path
     style="fill:currentColor;stroke-width:1.2"
     class="ColorScheme-Text"
     d="M 11.782031,2.4107424 C 6.569963,2.5291111 2.40502,6.7856144 2.4,11.999023 c -10e-8,5.301934 4.2980664,9.6 9.6,9.6 5.301934,0 9.6,-4.298066 9.6,-9.6 C 21.59028,8.8608449 20.047373,5.9255239 17.467969,4.1380862 V 6.1185549 C 18.58485,7.4223269 19.19912,9.0822701 19.2,10.799023 c 0,3.97645 -3.22355,7.2 -7.2,7.2 -3.9764502,0 -7.2,-3.22355 -7.2,-7.2 0.00721,-3.4592081 2.4734402,-6.4243829 5.873437,-7.0617181 0.347203,-0.4150808 0.740011,-0.8842453 0.911719,-1.0945312 0.06839,-0.083759 0.130811,-0.1540156 0.196875,-0.2320313 z m 2.23125,1.1882813 c -0.01762,0.00215 -0.03202,0.00774 -0.04453,0.014063 -0.04435,0.02243 -0.256656,0.2894475 -0.473437,0.5929687 -0.21678,0.3035204 -0.690543,0.9523047 -1.052344,1.44375 C 12.08117,6.14125 11.393558,7.0833473 10.917188,7.7404304 9.9813192,9.0313157 9.83151,9.2906009 9.6773424,9.9037106 9.5810604,10.286638 9.5725872,10.906194 9.6585864,11.26543 c 0.2357964,0.984806 1.0249106,1.722849 2.0414066,1.9125 0.0462,0.0086 0.206072,0.01877 0.353906,0.0211 0.615935,0.0102 1.140348,-0.22905 1.584375,-0.721875 0.234021,-0.259741 0.29912,-0.361915 0.442969,-0.693751 0.09269,-0.213804 0.193391,-0.49715 0.225,-0.630468 0.0811,-0.341948 0.119508,-1.048117 0.07734,-2.6648431 V 3.7771487 C 14.364271,3.6657953 14.136626,3.5839719 14.013281,3.5990237 Z"
     id="path1" />
</svg>
