<?xml version="1.0" encoding="UTF-8" standalone="no"?>
<svg
   width="24"
   height="24"
   version="1.1"
   id="svg1"
   sodipodi:docname="media-playback-playing.svg"
   xmlns:inkscape="http://www.inkscape.org/namespaces/inkscape"
   xmlns:sodipodi="http://sodipodi.sourceforge.net/DTD/sodipodi-0.dtd"
   xmlns="http://www.w3.org/2000/svg"
   xmlns:svg="http://www.w3.org/2000/svg">
  <sodipodi:namedview
     id="namedview1"
     pagecolor="#ffffff"
     bordercolor="#000000"
     borderopacity="0.25"
     inkscape:showpageshadow="2"
     inkscape:pageopacity="0.0"
     inkscape:pagecheckerboard="0"
     inkscape:deskcolor="#d1d1d1" />
  <defs
     id="defs1">
    <style
       id="current-color-scheme"
       type="text/css">.ColorScheme-Text {color:#d8dee9} .ColorScheme-Highlight {color:#3b4252}</style>
  </defs>
  <path
     style="fill:currentColor;stroke-width:1.2"
     class="ColorScheme-Text"
     d="m 12,2.3 a 9.6,9.6 0 0 0 -9.6,9.6 9.6,9.6 0 0 0 9.6,9.6 9.6,9.6 0 0 0 2.423437,-0.323437 V 19.1 15.5 a 1.1772501,1.2234341 0 0 1 1.204689,-1.223437 1.1772501,1.2234341 0 0 1 0.560155,0.164063 l 3,1.797655 1.024219,0.616406 A 9.6,9.6 0 0 0 21.6,11.9 9.6,9.6 0 0 0 12,2.3 Z M 9.6,7.6648437 13.2,9.78125 16.8,11.9 13.2,14.01875 9.6,16.135156 V 11.9 Z M 15.6,15.5 v 3.6 3.6 l 3,-1.8 3,-1.8 -3,-1.8 z"
     id="path1" />
</svg>
