<?xml version="1.0" encoding="UTF-8" standalone="no"?>
<svg
   width="24"
   height="24"
   version="1.1"
   id="svg2"
   sodipodi:docname="media-playback-stopped-symbolic.svg"
   inkscape:version="1.4.2 (ebf0e940d0, 2025-05-08)"
   xmlns:inkscape="http://www.inkscape.org/namespaces/inkscape"
   xmlns:sodipodi="http://sodipodi.sourceforge.net/DTD/sodipodi-0.dtd"
   xmlns="http://www.w3.org/2000/svg"
   xmlns:svg="http://www.w3.org/2000/svg">
  <sodipodi:namedview
     id="namedview2"
     pagecolor="#505050"
     bordercolor="#eeeeee"
     borderopacity="1"
     inkscape:showpageshadow="0"
     inkscape:pageopacity="0"
     inkscape:pagecheckerboard="0"
     inkscape:deskcolor="#505050"
     inkscape:zoom="49.333333"
     inkscape:cx="12"
     inkscape:cy="12"
     inkscape:window-width="2560"
     inkscape:window-height="1392"
     inkscape:window-x="0"
     inkscape:window-y="0"
     inkscape:window-maximized="1"
     inkscape:current-layer="svg2" />
  <defs
     id="defs1">
    <style
       id="current-color-scheme"
       type="text/css">.ColorScheme-Text {color:#d8dee9} .ColorScheme-Highlight {color:#3b4252}</style>
  </defs>
  <path
     style="opacity:0.35;fill:currentColor;stroke-width:1.2"
     class="ColorScheme-Text"
     d="m 11.9,2.3 a 9.6,9.6 0 0 0 -9.6,9.6 9.6,9.6 0 0 0 9.6,9.6 9.6,9.6 0 0 0 2.4,-0.31875 V 15.699219 C 14.3,14.923616 14.918077,14.3 15.685156,14.3 h 5.503125 A 9.6,9.6 0 0 0 21.5,11.9 9.6,9.6 0 0 0 11.9,2.3 Z M 9.5,7.6648437 13.1,9.78125 16.7,11.9 13.1,14.01875 9.5,16.135156 V 11.9 Z"
     id="path1" />
  <path
     class="ColorScheme-Text"
     style="fill:currentColor;fill-opacity:1;fill-rule:evenodd;stroke-width:2.07846"
     d="m 15.5,15.5 v 7.2 h 7.2 v -7.2 z"
     id="path2" />
</svg>
