<?xml version="1.0" encoding="UTF-8" standalone="no"?>
<svg
   width="24"
   height="24"
   version="1.1"
   id="svg2"
   sodipodi:docname="megasynching.svg"
   xmlns:inkscape="http://www.inkscape.org/namespaces/inkscape"
   xmlns:sodipodi="http://sodipodi.sourceforge.net/DTD/sodipodi-0.dtd"
   xmlns="http://www.w3.org/2000/svg"
   xmlns:svg="http://www.w3.org/2000/svg">
  <sodipodi:namedview
     id="namedview2"
     pagecolor="#ffffff"
     bordercolor="#000000"
     borderopacity="0.25"
     inkscape:showpageshadow="2"
     inkscape:pageopacity="0.0"
     inkscape:pagecheckerboard="0"
     inkscape:deskcolor="#d1d1d1" />
  <defs
     id="defs1">
    <style
       id="current-color-scheme"
       type="text/css">.ColorScheme-Text {color:#d8dee9} .ColorScheme-Highlight {color:#3b4252}</style>
  </defs>
  <g
     transform="translate(1,1.0000001)"
     style="fill:currentColor"
     class="ColorScheme-Text"
     id="g1">
    <path
       style="fill:currentColor;stroke-width:1.2"
       class="ColorScheme-Text"
       d="m 10.899872,1.3 c -5.3012566,0 -9.6000004,4.2944928 -9.6000004,9.6 0,5.301256 4.2944925,9.6 9.6000004,9.6 0.391681,0 0.776061,-0.02944 1.155469,-0.075 a 6,6 0 0 1 -1.155469,-3.525 6,6 0 0 1 2.4,-4.790626 V 11.5 l -1.2,1.8 H 9.6998716 l -1.2,-1.8 v 3 h -2.4 V 7.3 h 2.4 l 2.4000004,3.6 2.4,-3.6 h 2.4 v 3.726563 a 6,6 0 0 1 1.2,-0.126563 6,6 0 0 1 3.525,1.153126 c 0.04539,-0.378755 0.075,-0.762071 0.075,-1.153126 0,-5.3012561 -4.294493,-9.6 -9.6,-9.6 z"
       id="path1" />
  </g>
  <path
     class="ColorScheme-Text"
     d="m 22.057562,15.499202 c -1.3254,-2.29572 -4.2612,-3.08244 -6.55692,-1.75692 -2.29584,1.32552 -3.08232,4.26108 -1.75692,6.55692 1.3254,2.29572 4.2612,3.08244 6.55692,1.75692 2.29584,-1.32552 3.08232,-4.26108 1.75692,-6.55692 z m -1.039212,0.6 a 3.6,3.6 0 0 1 -1.31772,4.91772 l -0.599976,-1.03932 a 2.4,2.4 0 0 0 0.878496,-3.27852 l 1.039176,-0.59988 z m -4.91772,-1.31772 0.599976,1.03932 a 2.4,2.4 0 0 0 -0.878496,3.27852 l -1.039176,0.59988 a 3.6,3.6 0 0 1 1.31772,-4.91772 z"
     style="fill:currentColor;stroke-width:1.2"
     id="path2" />
</svg>
