<?xml version="1.0" encoding="UTF-8" standalone="no"?>
<svg
   width="24"
   height="24"
   version="1.1"
   id="svg2"
   sodipodi:docname="mellowplayer-panel.svg"
   xmlns:inkscape="http://www.inkscape.org/namespaces/inkscape"
   xmlns:sodipodi="http://sodipodi.sourceforge.net/DTD/sodipodi-0.dtd"
   xmlns="http://www.w3.org/2000/svg"
   xmlns:svg="http://www.w3.org/2000/svg">
  <sodipodi:namedview
     id="namedview2"
     pagecolor="#ffffff"
     bordercolor="#000000"
     borderopacity="0.25"
     inkscape:showpageshadow="2"
     inkscape:pageopacity="0.0"
     inkscape:pagecheckerboard="0"
     inkscape:deskcolor="#d1d1d1" />
  <defs
     id="defs1">
    <style
       id="current-color-scheme"
       type="text/css">.ColorScheme-Text {color:#d8dee9} .ColorScheme-Highlight {color:#3b4252}</style>
  </defs>
  <path
     style="fill:currentColor;stroke-width:1.2"
     class="ColorScheme-Text"
     d="m 8.5,2.4 a 6,6 0 0 0 -6,6 6,6 0 0 0 0.366,2.0244 A 3.6,3.6 0 0 1 6.1,8.4 3.6,3.6 0 0 1 6.1072,8.4 V 5.2848 c 0,0 -0.0276,-0.3192 0.222,-0.4452 0.2436,-0.1212 0.4764,0.0732 0.4764,0.0732 l 2.3628,1.404 A 3.6,3.6 0 0 1 12.1,4.8 3.6,3.6 0 0 1 13.4824,5.0784 6,6 0 0 0 8.5,2.4 Z m 6.288,3.6096 A 3.6,3.6 0 0 1 15.7,8.4 3.6,3.6 0 0 1 15.3292,9.9816 l 2.4312,1.446 c 0,0 0.3396,0.168 0.3396,0.5676 0,0.4008 -0.3444,0.5316 -0.3444,0.5316 l -2.442,1.4508 A 3.6,3.6 0 0 1 15.7,15.6 3.6,3.6 0 0 1 14.7904,17.9856 6,6 0 0 0 20.5,12 6,6 0 0 0 14.788,6.0096 Z M 2.8636,13.5636 A 6,6 0 0 0 2.5,15.6 a 6,6 0 0 0 6,6 6,6 0 0 0 4.9896,-2.6784 A 3.6,3.6 0 0 1 12.1,19.2 3.6,3.6 0 0 1 9.142,17.646 l -2.472,1.47 c 0,0 -0.168,0.1464 -0.3828,0.0516 C 6.0436,19.0584 6.1072,18.78 6.1072,18.78 V 15.6 A 3.6,3.6 0 0 1 6.1,15.6 3.6,3.6 0 0 1 2.8636,13.5636 Z"
     id="path1" />
  <path
     style="opacity:0.35;fill:currentColor;stroke-width:1.2"
     class="ColorScheme-Text"
     d="M 12.1,4.8 A 3.6,3.6 0 0 0 9.1684,6.3192 l 3.2064,1.9044 2.9568,1.7604 A 3.6,3.6 0 0 0 15.7,8.4 3.6,3.6 0 0 0 12.1,4.8 Z m -6,3.6 a 3.6,3.6 0 0 0 -3.6,3.6 3.6,3.6 0 0 0 3.6,3.6 3.6,3.6 0 0 0 0.0072,0 V 11.9784 8.4 A 3.6,3.6 0 0 0 6.1,8.4 Z m 9.2112,5.58 -2.9484,1.7508 -3.2232,1.9152 A 3.6,3.6 0 0 0 12.1,19.2 3.6,3.6 0 0 0 15.7,15.6 3.6,3.6 0 0 0 15.3112,13.98 Z"
     id="path2" />
</svg>
