<?xml version="1.0" encoding="UTF-8" standalone="no"?>
<svg
   width="24"
   height="24"
   version="1.1"
   id="svg1"
   sodipodi:docname="messenger-indicator.svg"
   xmlns:inkscape="http://www.inkscape.org/namespaces/inkscape"
   xmlns:sodipodi="http://sodipodi.sourceforge.net/DTD/sodipodi-0.dtd"
   xmlns="http://www.w3.org/2000/svg"
   xmlns:svg="http://www.w3.org/2000/svg">
  <sodipodi:namedview
     id="namedview1"
     pagecolor="#ffffff"
     bordercolor="#000000"
     borderopacity="0.25"
     inkscape:showpageshadow="2"
     inkscape:pageopacity="0.0"
     inkscape:pagecheckerboard="0"
     inkscape:deskcolor="#d1d1d1" />
  <defs
     id="defs1">
    <style
       id="current-color-scheme"
       type="text/css">.ColorScheme-Text {color:#d8dee9} .ColorScheme-Highlight {color:#3b4252}</style>
  </defs>
  <path
     style="fill:currentColor;stroke-width:1.2"
     class="ColorScheme-Text"
     d="m 12.02157,2.300065 c -4.67184,0 -8.55564,3.11448 -9.40128,7.2324 -0.14424,0.6216 -0.2184,1.2564 -0.22032,1.8924 0.00361,2.733 1.32888,5.31468 3.6,7.01952 v 4.2552 l 2.7984,-2.7984 c 1.020768,0.338628 2.09508,0.521772 3.18048,0.52266 4.6014,-0.0029 8.5488,-3.08028 9.40308,-7.32888 0.1404,-0.6072 0.2184,-1.236 0.2184,-1.8816 0,-4.9236 -4.2888,-8.9136 -9.5784,-8.9136 z m -1.2216,4.8 2.4,4.2 6,-3 -7.2,7.2 -1.8,-4.2 -5.4,3 z"
     id="path1" />
</svg>
