<?xml version="1.0" encoding="UTF-8" standalone="no"?>
<svg
   width="24"
   height="24"
   version="1.1"
   id="svg1"
   sodipodi:docname="messenger-notification.svg"
   xmlns:inkscape="http://www.inkscape.org/namespaces/inkscape"
   xmlns:sodipodi="http://sodipodi.sourceforge.net/DTD/sodipodi-0.dtd"
   xmlns="http://www.w3.org/2000/svg"
   xmlns:svg="http://www.w3.org/2000/svg">
  <sodipodi:namedview
     id="namedview1"
     pagecolor="#ffffff"
     bordercolor="#000000"
     borderopacity="0.25"
     inkscape:showpageshadow="2"
     inkscape:pageopacity="0.0"
     inkscape:pagecheckerboard="0"
     inkscape:deskcolor="#d1d1d1" />
  <defs
     id="defs1">
    <style
       id="current-color-scheme"
       type="text/css">.ColorScheme-Text {color:#d8dee9} .ColorScheme-Highlight {color:#3b4252}</style>
  </defs>
  <g
     transform="translate(1,1)"
     style=""
     id="g1">
    <path
       style="fill:currentColor;stroke-width:1.2"
       class="ColorScheme-Text"
       d="m 11.021567,1.3 c -4.67184,0 -8.55564,3.11448 -9.40128,7.23276 -0.14424,0.62148 -0.2184,1.25604 -0.22032,1.89204 0.003,2.27076 0.928368,4.42932 2.54064,6.075 a 3.6,3.6 0 0 1 2.25936,-0.7992 3.6,3.6 0 0 1 3.6,3.6 3.6,3.6 0 0 1 -0.00234,0.04453 c 0.391284,0.04762 0.784944,0.07937 1.181256,0.07969 4.6014,-0.0029 8.5488,-3.08028 9.40308,-7.32888 0.1404,-0.6072 0.2184,-1.236 0.2184,-1.8816 0,-4.9236 -4.2888,-8.9136 -9.5784,-8.9136 z m -1.2216,4.8 2.4,4.2 6,-3 -7.2,7.2 -1.8,-4.2 -5.4,3 z"
       id="path1" />
    <circle
       style="fill:currentColor;stroke-width:1.2"
       class="ColorScheme-Text"
       cx="6.1999669"
       cy="19.299999"
       r="2.4000001"
       id="circle1" />
  </g>
</svg>
