<?xml version="1.0" encoding="UTF-8" standalone="no"?>
<svg
   width="24"
   height="24"
   version="1.1"
   id="svg2"
   sodipodi:docname="mic-volume-low.svg"
   xmlns:inkscape="http://www.inkscape.org/namespaces/inkscape"
   xmlns:sodipodi="http://sodipodi.sourceforge.net/DTD/sodipodi-0.dtd"
   xmlns="http://www.w3.org/2000/svg"
   xmlns:svg="http://www.w3.org/2000/svg">
  <sodipodi:namedview
     id="namedview2"
     pagecolor="#ffffff"
     bordercolor="#000000"
     borderopacity="0.25"
     inkscape:showpageshadow="2"
     inkscape:pageopacity="0.0"
     inkscape:pagecheckerboard="0"
     inkscape:deskcolor="#d1d1d1" />
  <defs
     id="defs1">
    <style
       id="current-color-scheme"
       type="text/css">.ColorScheme-Text {color:#d8dee9} .ColorScheme-Highlight {color:#3b4252}</style>
  </defs>
  <g
     transform="translate(4,-2.00044)"
     style=""
     id="g2">
    <path
       style="opacity:0.35;fill:currentColor;stroke-width:1.2"
       class="ColorScheme-Text"
       d="m 8,4.399956 c -1.99452,0 -3.6,1.60572 -3.6,3.6 v 6.0024 c 0,1.99428 1.60548,3.5976 3.6,3.5976 1.99452,0 3.6,-1.6032 3.6,-3.5976 v -6.0024 c 0,-1.99428 -1.60548,-3.6 -3.6,-3.6 z"
       id="path1" />
    <path
       style="fill:currentColor;stroke-width:1.2"
       class="ColorScheme-Text"
       d="m 0.8,12.799956 v 1.198128 c 0,3.5604 2.4,7.2024 6,7.2024 v 2.4 h 2.4 v -2.4 c 3.6,0 6,-3.64212 6,-7.2018 v -1.1976 h -2.4 v 1.198188 c 0,2.682 -2.1204,4.8024 -4.8,4.8024 -2.68008,0 -4.8,-2.1204 -4.8,-4.8024 v -1.1976 H 0.8 Z"
       id="path2" />
  </g>
</svg>
