<?xml version="1.0" encoding="UTF-8" standalone="no"?>
<svg
   width="24"
   height="24"
   version="1.1"
   id="svg3"
   sodipodi:docname="mic-volume-medium.svg"
   xmlns:inkscape="http://www.inkscape.org/namespaces/inkscape"
   xmlns:sodipodi="http://sodipodi.sourceforge.net/DTD/sodipodi-0.dtd"
   xmlns="http://www.w3.org/2000/svg"
   xmlns:svg="http://www.w3.org/2000/svg">
  <sodipodi:namedview
     id="namedview3"
     pagecolor="#ffffff"
     bordercolor="#000000"
     borderopacity="0.25"
     inkscape:showpageshadow="2"
     inkscape:pageopacity="0.0"
     inkscape:pagecheckerboard="0"
     inkscape:deskcolor="#d1d1d1" />
  <defs
     id="defs1">
    <style
       id="current-color-scheme"
       type="text/css">.ColorScheme-Text {color:#d8dee9} .ColorScheme-Highlight {color:#3b4252}</style>
  </defs>
  <g
     transform="translate(4,4)"
     style=""
     id="g3">
    <path
       style="fill:currentColor;stroke-width:1.2"
       class="ColorScheme-Text"
       d="M 4.4,5.6 V 8.0024 C 4.4,9.99668 6.00548,11.6 8,11.6 c 1.99452,0 3.6,-1.60344 3.6,-3.5976 V 5.6 Z"
       id="path1" />
    <path
       style="fill:currentColor;stroke-width:1.2"
       class="ColorScheme-Text"
       d="m 0.8,6.8 v 1.1982 c 0,3.5598 2.4,7.2018 6,7.2018 v 2.4 h 2.4 v -2.4 c 3.6,0 6,-3.64212 6,-7.2018 V 6.8 H 12.8 V 7.9982 C 12.8,10.6796 10.6796,12.8 8,12.8 5.31992,12.8 3.2,10.6796 3.2,7.9982 V 6.8 Z"
       id="path2" />
    <path
       style="opacity:0.35;fill:currentColor;stroke-width:1.2"
       class="ColorScheme-Text"
       d="M 8,-1.6 C 6.00548,-1.6 4.4,0.00572 4.4,2 v 3.6 h 7.2 V 2 C 11.6,0.00572 9.99452,-1.6 8,-1.6 Z"
       id="path3" />
  </g>
</svg>
