<?xml version="1.0" encoding="UTF-8" standalone="no"?>
<svg
   width="24"
   height="24"
   version="1.1"
   id="svg1"
   sodipodi:docname="minetime-tray.svg"
   xmlns:inkscape="http://www.inkscape.org/namespaces/inkscape"
   xmlns:sodipodi="http://sodipodi.sourceforge.net/DTD/sodipodi-0.dtd"
   xmlns="http://www.w3.org/2000/svg"
   xmlns:svg="http://www.w3.org/2000/svg">
  <sodipodi:namedview
     id="namedview1"
     pagecolor="#ffffff"
     bordercolor="#000000"
     borderopacity="0.25"
     inkscape:showpageshadow="2"
     inkscape:pageopacity="0.0"
     inkscape:pagecheckerboard="0"
     inkscape:deskcolor="#d1d1d1" />
  <defs
     id="defs1">
    <style
       id="current-color-scheme"
       type="text/css">.ColorScheme-Text {color:#d8dee9} .ColorScheme-Highlight {color:#3b4252}</style>
  </defs>
  <path
     style="fill:currentColor;stroke-width:1.2"
     class="ColorScheme-Text"
     d="m 12,2.4 c -5.3184,0 -9.6,4.2816 -9.6,9.6 0,5.3184 4.2816,9.6 9.6,9.6 5.3184,0 9.6,-4.2816 9.6,-9.6 0,-5.3184 -4.2816,-9.6 -9.6,-9.6 z m 0,2.4 c 3.9888,0 7.2,3.2112 7.2,7.2 0,3.9888 -3.2112,7.2 -7.2,7.2 C 8.0112,19.2 4.8,15.9888 4.8,12 4.8,8.0112 8.0112,4.8 12,4.8 Z M 8.7796874,7.2 8.1304687,7.5773437 7.921875,7.696875 7.2023437,8.1117187 7.2,8.1140626 l 0.00234,0.00234 v 0.667973 7.0546874 L 8.4,16.8 9.6,15.839063 V 10.7625 l 2.4,1.40625 2.4,-1.40625 v 5.076563 L 15.6,16.8 16.797656,15.839063 V 8.7843756 8.1164063 L 16.8,8.1140626 16.797656,8.1117187 16.078126,7.696875 15.869531,7.5773437 15.220313,7.2 12,9.2367192 Z"
     id="path1" />
</svg>
