<?xml version="1.0" encoding="UTF-8" standalone="no"?>
<svg
   width="24"
   height="24"
   version="1.1"
   id="svg1"
   sodipodi:docname="mini-calendar.svg"
   xmlns:inkscape="http://www.inkscape.org/namespaces/inkscape"
   xmlns:sodipodi="http://sodipodi.sourceforge.net/DTD/sodipodi-0.dtd"
   xmlns="http://www.w3.org/2000/svg"
   xmlns:svg="http://www.w3.org/2000/svg">
  <sodipodi:namedview
     id="namedview1"
     pagecolor="#ffffff"
     bordercolor="#000000"
     borderopacity="0.25"
     inkscape:showpageshadow="2"
     inkscape:pageopacity="0.0"
     inkscape:pagecheckerboard="0"
     inkscape:deskcolor="#d1d1d1" />
  <defs
     id="defs1">
    <style
       id="current-color-scheme"
       type="text/css">.ColorScheme-Text {color:#d8dee9} .ColorScheme-Highlight {color:#3b4252}</style>
  </defs>
  <path
     style="fill:currentColor;stroke-width:1.2"
     class="ColorScheme-Text"
     d="M 6,3.6 C 3.5996826,3.6 3.6,6 3.6,6 V 20.4 H 20.399683 L 20.4,6 C 20.400053,3.6 18,3.6 18,3.6 Z M 6,6 H 18 V 18 H 6 Z M 7.2,7.2 V 9.6 H 9.6 V 7.2 Z m 3.60012,0 v 2.4 h 2.4 V 7.2 Z m 3.6,0 v 2.4 h 2.4 V 7.2 Z M 7.2,10.8 v 2.4 h 2.4 v -2.4 z m 3.60012,0 v 2.4 h 2.4 v -2.4 z m 3.6,0 v 2.4 h 2.4 V 10.8 Z M 7.2,14.4 v 2.4 h 2.4 v -2.4 z m 3.60012,0 v 2.4 h 2.4 v -2.4 z m 3.6,0 v 2.4 h 2.4 v -2.4 z"
     id="path1" />
</svg>
