<?xml version="1.0" encoding="UTF-8" standalone="no"?>
<svg
   width="24"
   height="24"
   version="1.1"
   id="svg1"
   sodipodi:docname="mnotify-some-wireframe.svg"
   xmlns:inkscape="http://www.inkscape.org/namespaces/inkscape"
   xmlns:sodipodi="http://sodipodi.sourceforge.net/DTD/sodipodi-0.dtd"
   xmlns="http://www.w3.org/2000/svg"
   xmlns:svg="http://www.w3.org/2000/svg">
  <sodipodi:namedview
     id="namedview1"
     pagecolor="#ffffff"
     bordercolor="#000000"
     borderopacity="0.25"
     inkscape:showpageshadow="2"
     inkscape:pageopacity="0.0"
     inkscape:pagecheckerboard="0"
     inkscape:deskcolor="#d1d1d1" />
  <defs
     id="defs1">
    <style
       id="current-color-scheme"
       type="text/css">.ColorScheme-Text {color:#d8dee9} .ColorScheme-Highlight {color:#3b4252}</style>
  </defs>
  <path
     style="fill:currentColor;stroke-width:1.2"
     class="ColorScheme-Text"
     d="M 13.535939,2.4003231 A 1.1999442,1.1999442 0 0 0 12.551564,2.9839168 L 10.266408,6.7925106 4.0296891,3.7245418 A 1.1999442,1.1999442 0 0 0 2.3257829,5.0417294 l 1.1601562,5.6390616 a 1.1999442,1.1999442 0 0 0 0.014063,0.152344 v 3.775781 a 3.6,3.6 0 0 1 1.2,-0.208594 3.6,3.6 0 0 1 1.2,0.210937 v -2.16328 l 4.7999999,2.03203 v 4.05 l -2.4492187,-1.11328 a 3.6,3.6 0 0 1 0.049219,0.583593 3.6,3.6 0 0 1 -0.5109375,1.842187 l 3.4687502,1.579688 a 1.1999442,1.1999442 0 0 0 0.848438,0.154688 1.1999442,1.1999442 0 0 0 0.103128,-0.0211 l 0.01406,-0.0047 7.185937,-1.914844 a 1.1999442,1.1999442 0 0 0 0.890621,-1.160162 v -6.33982 l 2.29219,-5.0390609 A 1.1999442,1.1999442 0 0 0 21.924221,5.4776668 l -7.919532,-3 a 1.1999442,1.1999442 0 0 0 -0.46875,-0.077344 z m 0.557813,2.6765626 5.784375,2.1914061 -1.389845,3.0562492 -5.76328,-2.3859364 A 1.1999442,1.1999442 0 0 0 12.478908,7.7651674 Z M 5.1664079,6.9565731 8.2953142,8.4964174 5.6210954,9.1690726 Z m 7.2937501,3.4710929 2.826563,1.169531 -2.460939,0.618751 z m -2.428126,0.107808 0.234376,1.15547 -1.8000001,-0.761719 z m 7.86797,2.880474 v 4.139061 l -4.8,1.277344 v -4.211718 z"
     id="path1" />
  <circle
     style="fill:currentColor;stroke-width:1.2"
     class="ColorScheme-Text"
     cx="4.7000017"
     cy="18.000259"
     r="2.4000001"
     id="circle1" />
</svg>
