<?xml version="1.0" encoding="UTF-8" standalone="no"?>
<svg
   width="24"
   height="24"
   version="1.1"
   id="svg2"
   sodipodi:docname="mntray-news.svg"
   xmlns:inkscape="http://www.inkscape.org/namespaces/inkscape"
   xmlns:sodipodi="http://sodipodi.sourceforge.net/DTD/sodipodi-0.dtd"
   xmlns="http://www.w3.org/2000/svg"
   xmlns:svg="http://www.w3.org/2000/svg">
  <sodipodi:namedview
     id="namedview2"
     pagecolor="#ffffff"
     bordercolor="#000000"
     borderopacity="0.25"
     inkscape:showpageshadow="2"
     inkscape:pageopacity="0.0"
     inkscape:pagecheckerboard="0"
     inkscape:deskcolor="#d1d1d1" />
  <defs
     id="defs1">
    <style
       id="current-color-scheme"
       type="text/css">.ColorScheme-Text {color:#d8dee9} .ColorScheme-Highlight {color:#3b4252}</style>
  </defs>
  <path
     style="fill:currentColor;stroke-width:1.2"
     class="ColorScheme-Text"
     d="m 13.2,6 v 5.435156 C 13.2,12.391366 12.391367,13.2 11.435156,13.2 H 9.6 8.4 6 4.8 v 5.116406 c 0,0.54015 0.4157756,0.878036 0.9328126,0.883594 h 8.6390614 l 1.86797,2.4 1.865625,-2.4 h 2.561718 C 21.184254,19.2 21.6,18.856556 21.6,18.316406 V 6.975 C 21.6,6.43485 21.184254,6 20.667187,6 Z"
     id="path1" />
  <path
     style="fill:currentColor;stroke-width:1.2"
     class="ColorScheme-Text"
     d="M 2.9634782,2.4 C 2.6513113,2.4 2.4,2.6513113 2.4,2.9634782 V 11.43626 c 0,0.312168 0.2513113,0.56348 0.5634782,0.56348 H 4.8 V 4.8 H 8.4 V 2.4 Z M 9.6,2.4 v 9.59974 h 1.835922 c 0.312167,0 0.563478,-0.251312 0.563478,-0.56348 V 2.9634782 C 11.9994,2.6513113 11.748089,2.4 11.435922,2.4 Z M 6,6 v 5.99974 H 8.4 V 6 Z"
     id="path2" />
</svg>
