<?xml version="1.0" encoding="UTF-8" standalone="no"?>
<svg
   width="24"
   height="24"
   version="1.1"
   id="svg1"
   sodipodi:docname="mntray-regular.svg"
   xmlns:inkscape="http://www.inkscape.org/namespaces/inkscape"
   xmlns:sodipodi="http://sodipodi.sourceforge.net/DTD/sodipodi-0.dtd"
   xmlns="http://www.w3.org/2000/svg"
   xmlns:svg="http://www.w3.org/2000/svg">
  <sodipodi:namedview
     id="namedview1"
     pagecolor="#ffffff"
     bordercolor="#000000"
     borderopacity="0.25"
     inkscape:showpageshadow="2"
     inkscape:pageopacity="0.0"
     inkscape:pagecheckerboard="0"
     inkscape:deskcolor="#d1d1d1" />
  <defs
     id="defs1">
    <style
       id="current-color-scheme"
       type="text/css">.ColorScheme-Text {color:#d8dee9} .ColorScheme-Highlight {color:#3b4252}</style>
  </defs>
  <path
     style="fill:currentColor;stroke-width:1.2"
     class="ColorScheme-Text"
     d="M 2.9625,2.4 C 2.6503331,2.4 2.4,2.6503331 2.4,2.9625 v 8.472656 C 2.4,11.747324 2.6503331,12 2.9625,12 H 4.8 V 4.8 H 8.4 V 2.4 Z M 9.6,2.4 V 12 h 1.835156 C 11.747323,12 12,11.747324 12,11.435156 V 2.9625 C 12,2.6503331 11.747323,2.4 11.435156,2.4 Z M 6,6 v 6 H 8.4 V 6 Z m 7.2,0 v 5.435156 C 13.2,12.391366 12.391367,13.2 11.435156,13.2 H 9.6 8.4 6 4.8 v 5.116406 c 0,0.54015 0.4157755,0.878036 0.9328126,0.883594 h 8.6390614 l 1.86797,2.4 1.865625,-2.4 h 2.561718 C 21.184254,19.2 21.6,18.856556 21.6,18.316406 V 6.975 C 21.6,6.43485 21.184254,6 20.667187,6 Z"
     id="path1" />
</svg>
