<?xml version="1.0" encoding="UTF-8" standalone="no"?>
<svg
   width="24"
   height="24"
   version="1.1"
   id="svg1"
   sodipodi:docname="moderndeck-tray.svg"
   xmlns:inkscape="http://www.inkscape.org/namespaces/inkscape"
   xmlns:sodipodi="http://sodipodi.sourceforge.net/DTD/sodipodi-0.dtd"
   xmlns="http://www.w3.org/2000/svg"
   xmlns:svg="http://www.w3.org/2000/svg">
  <sodipodi:namedview
     id="namedview1"
     pagecolor="#ffffff"
     bordercolor="#000000"
     borderopacity="0.25"
     inkscape:showpageshadow="2"
     inkscape:pageopacity="0.0"
     inkscape:pagecheckerboard="0"
     inkscape:deskcolor="#d1d1d1" />
  <defs
     id="defs1">
    <style
       id="current-color-scheme"
       type="text/css">.ColorScheme-Text {color:#d8dee9} .ColorScheme-Highlight {color:#3b4252}</style>
  </defs>
  <path
     style="fill:currentColor;stroke-width:1.2"
     class="ColorScheme-Text"
     d="M 4.2984374,3.5005416 C 3.2497374,3.5005416 2.4,4.3140216 2.4,5.316948 v 11.967188 c 0,1.002926 0.8497374,1.807032 1.8984374,1.807032 h 4.7390621 l 0.4851564,0.585937 1.7085941,1.532812 c 0.325406,0.387006 0.941857,0.386419 1.267969,0 L 14.214844,19.677105 14.7,19.091168 h 5.001563 C 20.750262,19.091149 21.6,18.287062 21.6,17.284136 V 5.316948 c 0,-1.0029264 -0.849738,-1.8164064 -1.898437,-1.8164064 z m 4.4742185,2.4 h 0.018756 c 0.6817188,0.00528 1.1049029,0.825852 0.7710936,1.4882809 -0.3855444,0.76227 -0.8747628,1.7391937 -1.4718744,2.9273445 -0.112812,0.226017 -0.112836,0.509867 0.00468,0.735938 0.2209992,0.43632 0.5448072,1.074215 0.9726564,1.910157 0.1222416,0.241837 0.4378548,0.250624 0.5695313,0.01406 0.7099702,-1.246001 1.8654372,-3.2840789 3.4781252,-6.1125024 0.333857,-0.58356 0.902841,-0.941616 1.523438,-0.9468744 h 0.02344 c 0.662949,-0.01056 1.27872,0.3828192 1.607812,1.0242192 0.385545,0.7517761 0.902763,1.7570366 1.551562,3.0187507 0.2351,0.4521409 0.234996,1.0144589 0.0094,1.4718749 -0.409081,0.814845 -1.005433,2.003442 -1.790624,3.564843 -0.159831,0.315455 -0.46542,0.509181 -0.789845,0.503907 h -0.04219 c -0.681719,-0.0053 -1.104952,-0.82589 -0.771094,-1.488281 0.385495,-0.762324 0.874792,-1.739194 1.467187,-2.927344 0.11286,-0.231345 0.112848,-0.509867 -0.0047,-0.735938 C 15.674287,9.9126067 15.345872,9.2747102 14.90859,8.4388238 14.781631,8.1969865 14.470715,8.1928873 14.334372,8.4294638 13.64322,9.6754651 12.51337,11.70942 10.947653,14.53259 c -0.333809,0.604596 -0.921552,0.967969 -1.5562507,0.967969 h -0.075 c -0.6535164,0 -1.26,-0.388088 -1.5843744,-1.024219 -0.3855456,-0.75183 -0.9027192,-1.756396 -1.55625,-3.023437 -0.235086,-0.457362 -0.235086,-1.020959 0,-1.4835939 C 6.5942323,9.1596818 7.1976163,7.9729129 7.9828087,6.4114956 8.1426859,6.0960564 8.4435115,5.895306 8.7726523,5.9005584 Z"
     id="path1" />
</svg>
