<?xml version="1.0" encoding="UTF-8" standalone="no"?>
<svg
   width="24"
   height="24"
   version="1.1"
   id="svg1"
   sodipodi:docname="morgen-tray.svg"
   xmlns:inkscape="http://www.inkscape.org/namespaces/inkscape"
   xmlns:sodipodi="http://sodipodi.sourceforge.net/DTD/sodipodi-0.dtd"
   xmlns="http://www.w3.org/2000/svg"
   xmlns:svg="http://www.w3.org/2000/svg">
  <sodipodi:namedview
     id="namedview1"
     pagecolor="#ffffff"
     bordercolor="#000000"
     borderopacity="0.25"
     inkscape:showpageshadow="2"
     inkscape:pageopacity="0.0"
     inkscape:pagecheckerboard="0"
     inkscape:deskcolor="#d1d1d1" />
  <defs
     id="defs1">
    <style
       id="current-color-scheme"
       type="text/css">.ColorScheme-Text {color:#d8dee9} .ColorScheme-Highlight {color:#3b4252}</style>
  </defs>
  <path
     style="fill:currentColor;stroke-width:1.2"
     class="ColorScheme-Text"
     d="m 13.09828,2.5251563 v 3.5765624 h 3.6 v -2.559375 a 9,9 0 0 0 -3.6,-1.0171874 z m -1.199998,0.01875 A 9,9 0 0 0 8.2982814,3.568125 v 2.5335937 h 3.6000006 z m 5.999998,1.7601561 v 1.7976563 h 1.797657 A 9,9 0 0 0 17.89828,4.3040624 Z M 7.0982814,4.3298437 a 9,9 0 0 0 -1.771875,1.771875 h 1.771875 z M 4.5646876,7.301719 A 9,9 0 0 0 3.5404688,10.90172 H 7.0982814 V 7.301719 Z m 3.7335938,0 V 10.90172 H 11.898282 V 7.301719 Z m 4.7999986,0 v 3.600001 h 3.6 V 7.301719 Z m 4.8,0 v 3.600001 h 3.576563 A 9,9 0 0 0 20.457655,7.301719 Z M 3.5404688,12.10172 a 9,9 0 0 0 1.0242188,3.6 h 2.5335938 v -3.6 z m 4.7578126,0 v 3.6 h 3.6000006 v -3.6 z m 4.7999986,0 v 3.6 h 3.6 v -3.6 z m 4.8,0 v 3.6 h 2.533595 a 9,9 0 0 0 1.024218,-3.6 z m -12.5718736,4.8 a 9,9 0 0 0 1.771875,1.771874 V 16.90172 Z m 2.971875,0 v 2.533592 a 9,9 0 0 0 3.6000006,1.024219 V 16.90172 Z m 4.7999986,0 v 3.557811 a 9,9 0 0 0 3.6,-1.024219 V 16.90172 Z m 4.8,0 v 1.771874 a 9,9 0 0 0 1.771875,-1.771874 z"
     id="path1" />
</svg>
