<?xml version="1.0" encoding="UTF-8" standalone="no"?>
<svg
   width="24"
   height="24"
   version="1.1"
   id="svg2"
   sodipodi:docname="motrix-tray-active.svg"
   xmlns:inkscape="http://www.inkscape.org/namespaces/inkscape"
   xmlns:sodipodi="http://sodipodi.sourceforge.net/DTD/sodipodi-0.dtd"
   xmlns="http://www.w3.org/2000/svg"
   xmlns:svg="http://www.w3.org/2000/svg">
  <sodipodi:namedview
     id="namedview2"
     pagecolor="#ffffff"
     bordercolor="#000000"
     borderopacity="0.25"
     inkscape:showpageshadow="2"
     inkscape:pageopacity="0.0"
     inkscape:pagecheckerboard="0"
     inkscape:deskcolor="#d1d1d1" />
  <defs
     id="defs1">
    <style
       id="current-color-scheme"
       type="text/css">.ColorScheme-Text {color:#d8dee9} .ColorScheme-Highlight {color:#3b4252}</style>
  </defs>
  <path
     style="fill:currentColor;stroke-width:1.2"
     class="ColorScheme-Text"
     d="M 3.6,2.4 C 2.9352,2.4 2.4,2.9352 2.4,3.6 v 16.8 c 0,0.6648 0.5352,1.2 1.2,1.2 h 16.8 c 0.6648,0 1.2,-0.5352 1.2,-1.2 V 3.6 C 21.6,2.9352 21.0648,2.4 20.4,2.4 H 18 V 6.2390626 C 18,6.7709026 17.553218,7.2 16.999219,7.2 H 7.0007813 C 6.4467821,7.2 6,6.7709026 6,6.2390626 V 2.4 Z m 3.6,14.4 h 3.6 c 0.6648,0 1.2,0.5352 1.2,1.2 v 1.2 1.2 H 10.8 V 18 H 9.6 v 2.4 H 8.4 V 18 H 7.2 v 2.4 H 6 V 19.2 18 c 0,-0.6648 0.5352,-1.2 1.2,-1.2 z m 9.6,0 h 2.4 c 0.6648,0 1.2,0.5352 1.2,1.2 v 1.2 c 0,0.6648 -0.5352,1.2 -1.2,1.2 h -2.4 c -0.6648,0 -1.2,-0.5352 -1.2,-1.2 V 18 c 0,-0.6648 0.5352,-1.2 1.2,-1.2 z m -3,1.2 c 0.3324,0 0.6,0.2676 0.6,0.6 0,0.3324 -0.2676,0.6 -0.6,0.6 -0.3324,0 -0.6,-0.2676 -0.6,-0.6 0,-0.3324 0.2676,-0.6 0.6,-0.6 z m 3,0 v 1.2 h 2.4 V 18 Z"
     id="path1" />
  <path
     style="fill:currentColor;stroke-width:1.2"
     class="ColorScheme-Text"
     d="m 7.2,3.6 v 1.2 h 3.6 V 3.6 Z m 6,0 v 1.2 h 3.6 V 3.6 Z"
     id="path2" />
</svg>
