<?xml version="1.0" encoding="UTF-8" standalone="no"?>
<svg
   width="24"
   height="24"
   version="1.1"
   id="svg1"
   sodipodi:docname="mstdn-panel.svg"
   xmlns:inkscape="http://www.inkscape.org/namespaces/inkscape"
   xmlns:sodipodi="http://sodipodi.sourceforge.net/DTD/sodipodi-0.dtd"
   xmlns="http://www.w3.org/2000/svg"
   xmlns:svg="http://www.w3.org/2000/svg">
  <sodipodi:namedview
     id="namedview1"
     pagecolor="#ffffff"
     bordercolor="#000000"
     borderopacity="0.25"
     inkscape:showpageshadow="2"
     inkscape:pageopacity="0.0"
     inkscape:pagecheckerboard="0"
     inkscape:deskcolor="#d1d1d1" />
  <defs
     id="defs1">
    <style
       id="current-color-scheme"
       type="text/css">.ColorScheme-Text {color:#d8dee9} .ColorScheme-Highlight {color:#3b4252}</style>
  </defs>
  <path
     style="fill:currentColor;stroke-width:1.2"
     class="ColorScheme-Text"
     d="M 9.1991866,2.4 C 6.096786,2.4 3.5999675,4.922205 3.5999675,8.0554687 v 3.0890623 c 0,0.0041 0.0024,0.0077 0.0024,0.01176 0.00288,2.067158 0.19635,6.675459 1.825782,8.53125 C 6.8964504,21.359773 10.318973,21.6 11.702371,21.6 c 2.4585,0 3.897657,-0.963281 3.897657,-0.963281 V 18.6 c 0,0 -1.825319,0.631105 -3.576563,0.6 C 10.76362,19.165584 8.789886,18.671772 8.5195596,17.280469 8.4835956,17.107814 8.4679236,16.909736 8.4422196,16.722656 8.6925072,16.756934 8.939364,16.8 9.1992514,16.8 h 5.6015616 c 3.102401,0 5.599219,-2.522206 5.599219,-5.655469 V 8.0554687 C 20.400032,4.922205 17.903214,2.4 14.800813,2.4 Z m -0.799219,4.8 a 1.2,1.2 0 0 1 1.2000003,1.2 1.2,1.2 0 0 1 -1.2000003,1.2 1.2,1.2 0 0 1 -1.2,-1.2 1.2,1.2 0 0 1 1.2,-1.2 z"
     id="path1" />
</svg>
