<?xml version="1.0" encoding="UTF-8" standalone="no"?>
<svg
   width="24"
   height="24"
   version="1.1"
   id="svg1"
   sodipodi:docname="mullvad-tray-1.svg"
   xmlns:inkscape="http://www.inkscape.org/namespaces/inkscape"
   xmlns:sodipodi="http://sodipodi.sourceforge.net/DTD/sodipodi-0.dtd"
   xmlns="http://www.w3.org/2000/svg"
   xmlns:svg="http://www.w3.org/2000/svg">
  <sodipodi:namedview
     id="namedview1"
     pagecolor="#ffffff"
     bordercolor="#000000"
     borderopacity="0.25"
     inkscape:showpageshadow="2"
     inkscape:pageopacity="0.0"
     inkscape:pagecheckerboard="0"
     inkscape:deskcolor="#d1d1d1" />
  <defs
     id="defs1">
    <style
       id="current-color-scheme"
       type="text/css">.ColorScheme-Text {color:#d8dee9} .ColorScheme-Highlight {color:#3b4252}</style>
  </defs>
  <g
     transform="matrix(1,0,0,1,1,1)"
     style=""
     id="g1">
    <path
       style="opacity:0.35;fill:currentColor;stroke-width:1.2"
       class="ColorScheme-Text"
       d="M 11,1.4 A 9.6,9.6 0 0 0 1.4,11 9.6,9.6 0 0 0 11,20.6 9.6,9.6 0 0 0 20.6,11 9.6,9.6 0 0 0 11,1.4 Z M 13.4,5 c 0.8808,0 1.746,0.4218 2.424,1.07808 0.6768,0.6564 1.176,1.5816 1.176,2.63448 0,0.8268 -0.228,1.75944 -0.7308,2.46144 0,0 0.0024,0.0228 0.0084,0.0468 0.0072,0.0228 0.0264,0.0144 0.036,0.192 0.0132,0.2652 -0.1992,0.5724 -0.3936,0.6744 -0.0936,0.0492 -0.1788,0.0732 -0.2628,0.0888 0.0924,0.5424 0.2016,1.14 0.3588,1.7532 0.2172,0.8544 0.528,1.6728 0.8592,2.1048 C 17.18,16.43 16.8968,17.0024 16.3976,17 H 8 C 7.61444,16.9988 7.32932,16.64 7.41644,16.2644 7.51964,15.818 8.38052,14.1932 8.49452,13.8872 8.60852,13.5824 8.56904,13.4444 8.58824,13.4768 8.60864,13.5104 8.54348,13.394 8.00708,13.4 7.66712,13.4036 7.39184,13.1252 7.4,12.7856 L 7.40708,12.4628 C 6.56108,11.6576 5.42624,10.8248 4.59224,9.78824 4.5284,9.79556 4.4642,9.79952 4.4,9.8 3.40592,9.8 2.6,8.99408 2.6,8 2.6,7.00592 3.40592,6.2 4.4,6.2 5.16188,6.20108 5.8406,6.68168 6.09452,7.4 6.43172,7.3982 8.3576,7.40408 8.6,7.4 V 6.8 C 8.6,6.46868 8.86868,6.2 9.2,6.2 h 0.8856 C 10.166,6.0668 10.1744,5.885 10.2824,5.78984 10.55,5.5556 10.8668,5.411 11.2064,5.3 11.8844,5.078 12.6764,5 13.4,5 Z m 0,1.2 c -0.6288,0 -1.338,0.08328 -1.8216,0.24144 -0.2412,0.07896 -0.42,0.17748 -0.504,0.2508 C 10.9928,6.76544 11,6.76736 11,6.8 c 0,0.33132 -0.2688,0.6 -0.6,0.6 0.2412,-2.4e-4 0.4584,0.14376 0.5532,0.36564 0.0888,0.20832 0.1956,0.40392 0.312,0.59532 0.3336,0.41832 0.6504,0.8472 1.0356,1.19532 0.21,0.1764 0.93,0.64332 1.0452,0.70812 0.3396,0.1872 0.7008,0.3672 1.1112,0.5292 0.3456,0.1104 0.504,0.1248 0.6684,0.1476 0.0132,-0.0768 -0.0096,-0.1332 0.0228,-0.216 0.0228,-0.0564 0.054,-0.1116 0.0936,-0.1584 C 15.5288,10.2104 15.8,9.3134 15.8,8.71256 15.8,8.04224 15.4736,7.4096 14.9888,6.94064 14.5052,6.47168 13.8704,6.2 13.4,6.2 Z M 6.09452,8.6 c -0.0726,0.20556 -0.18264,0.396 -0.3234,0.56256 0.7272,0.84024 1.75272,1.69584 2.66712,2.61264 0.11652,0.1164 0.17964,0.2748 0.1758,0.4392 l -0.00468,0.234 c 0.3744,0.0912 0.81708,0.0972 1.00548,0.408 0.30276,0.5004 0.1644,1.0164 0.0024,1.4508 -0.162,0.4344 -0.66456,1.4004 -0.71016,1.4928 h 6.60972 c -0.2364,-0.5172 -0.5172,-0.9996 -0.6636,-1.5732 -0.2076,-0.8124 -0.3276,-1.566 -0.4272,-2.1792 0,0 -0.576,-0.2208 -0.672,-0.2628 C 13.2572,11.5868 12.6272,11.3 11.87,10.7612 11.0588,10.184 10.5944,9.42668 10.22,8.975 10.052,8.77364 9.9224,8.66684 9.8192,8.60468 Z"
       id="path1" />
  </g>
</svg>
