<?xml version="1.0" encoding="UTF-8" standalone="no"?>
<svg
   width="24"
   height="24"
   version="1.1"
   id="svg1"
   sodipodi:docname="multimedia-player-symbolic.svg"
   xmlns:inkscape="http://www.inkscape.org/namespaces/inkscape"
   xmlns:sodipodi="http://sodipodi.sourceforge.net/DTD/sodipodi-0.dtd"
   xmlns="http://www.w3.org/2000/svg"
   xmlns:svg="http://www.w3.org/2000/svg">
  <sodipodi:namedview
     id="namedview1"
     pagecolor="#ffffff"
     bordercolor="#000000"
     borderopacity="0.25"
     inkscape:showpageshadow="2"
     inkscape:pageopacity="0.0"
     inkscape:pagecheckerboard="0"
     inkscape:deskcolor="#d1d1d1" />
  <defs
     id="defs1">
    <style
       id="current-color-scheme"
       type="text/css">.ColorScheme-Text {color:#d8dee9} .ColorScheme-Highlight {color:#3b4252}</style>
  </defs>
  <path
     d="M 6,2.4 C 4.6704,2.4 3.6,3.4704 3.6,4.8 v 14.4 c 0,1.3296 1.0704,2.4 2.4,2.4 h 12 c 1.3296,0 2.4,-1.0704 2.4,-2.4 V 4.8 C 20.4,3.4704 19.3296,2.4 18,2.4 Z M 6,4.8 H 18 V 12 H 6 Z m 6,9.6 c 1.321876,0 2.4,1.081828 2.4,2.4 0,1.318172 -1.081129,2.4 -2.4,2.4 -1.318871,0 -2.4,-1.081129 -2.4,-2.4 0,-1.318871 1.078125,-2.4 2.4,-2.4 z"
     style="fill:currentColor;stroke-width:1.2"
     class="ColorScheme-Text"
     id="path1" />
</svg>
