<?xml version="1.0" encoding="UTF-8" standalone="no"?>
<svg
   width="24"
   height="24"
   version="1"
   id="svg1"
   sodipodi:docname="mumble-indicator.svg"
   xmlns:inkscape="http://www.inkscape.org/namespaces/inkscape"
   xmlns:sodipodi="http://sodipodi.sourceforge.net/DTD/sodipodi-0.dtd"
   xmlns="http://www.w3.org/2000/svg"
   xmlns:svg="http://www.w3.org/2000/svg">
  <sodipodi:namedview
     id="namedview1"
     pagecolor="#ffffff"
     bordercolor="#000000"
     borderopacity="0.25"
     inkscape:showpageshadow="2"
     inkscape:pageopacity="0.0"
     inkscape:pagecheckerboard="0"
     inkscape:deskcolor="#d1d1d1" />
  <defs
     id="defs1">
    <style
       id="current-color-scheme"
       type="text/css">.ColorScheme-Text {color:#d8dee9} .ColorScheme-Highlight {color:#3b4252}</style>
  </defs>
  <path
     style="fill:currentColor;stroke-width:1.2"
     class="ColorScheme-Text"
     d="m 12.000009,3.500026 c -4.6392,0 -8.4,3.7608 -8.4,8.4 v 1.63356 c -0.77136,0.8748 -1.19796,2.0004 -1.2,3.1668 0,2.65092 2.14908,4.8 4.8,4.8 h 1.2 v -9.6 h -1.2 c -0.40512,0.0024 -0.80832,0.0564 -1.2,0.1596 v -0.1596 c 0,-3.324 2.676,-6 6,-6 3.324,0 6,2.676 6,6 v 0.157032 c -0.3912,-0.1032 -0.7944,-0.156 -1.2,-0.1572 h -1.2 v 7.21284 c -0.469908,-0.02814 -0.968136,0.08891 -1.2,-0.02578 v -1.188 h -2.4 c -0.6648,0 -1.2,0.641304 -1.2,1.43904 v 0.721872 c 0,0.798 0.5352,1.4388 1.2,1.4388 h 3.6 0.904692 0.2952 c 2.65092,0 4.8,-2.14908 4.8,-4.8 -0.002,-1.166196 -0.428628,-2.29176 -1.2,-3.16644 v -1.6332 c 0,-4.6392 -3.7608,-8.4 -8.4,-8.4 z"
     id="path1" />
</svg>
