<?xml version="1.0" encoding="UTF-8" standalone="no"?>
<svg
   width="24"
   height="24"
   version="1.1"
   id="svg1"
   sodipodi:docname="museeq-panel.svg"
   xmlns:inkscape="http://www.inkscape.org/namespaces/inkscape"
   xmlns:sodipodi="http://sodipodi.sourceforge.net/DTD/sodipodi-0.dtd"
   xmlns="http://www.w3.org/2000/svg"
   xmlns:svg="http://www.w3.org/2000/svg">
  <sodipodi:namedview
     id="namedview1"
     pagecolor="#ffffff"
     bordercolor="#000000"
     borderopacity="0.25"
     inkscape:showpageshadow="2"
     inkscape:pageopacity="0.0"
     inkscape:pagecheckerboard="0"
     inkscape:deskcolor="#d1d1d1" />
  <defs
     id="defs1">
    <style
       id="current-color-scheme"
       type="text/css">.ColorScheme-Text {color:#d8dee9} .ColorScheme-Highlight {color:#3b4252}</style>
  </defs>
  <g
     transform="matrix(.99990 0 0 .99994 .55164 -.99969)"
     style=""
     id="g1">
    <path
       style="fill:currentColor;stroke-width:1.2"
       class="ColorScheme-Text"
       d="m 17.4465,17.1663 c -0.5496,0.1428 -1.7688,0.4452 -2.67,0.57 -1.1808,0.1644 -2.5464,0.2556 -3.5676,0.2376 -0.7296,-0.0132 -1.692,-0.1668 -2.16,-0.3492 -0.4476,-0.1836 -0.8556,-0.4272 -1.2,-0.732 v 5.7084 h -2.4 v -19.2 h 2.4 v 7.4172 c 0,0.8748 0.0516,1.6176 0.1536,2.2284 0.1224,0.6108 0.3048,1.1088 0.5496,1.4952 0.264,0.3864 0.6,0.672 1.0068,0.8544 0.4272,0.1632 1.3788,0.3 1.9896,0.3 0.264,0 1.4292,-0.066 1.6932,-0.0864 0.2844,-0.0204 0.5436,-0.0408 0.7884,-0.0612 0.2436,-0.0204 0.4116,-0.054 0.5952,-0.0744 0.1836,-0.0408 0.3516,-0.0576 0.4128,-0.078 V 3.3999 h 2.412 z"
       id="path1" />
  </g>
</svg>
