<?xml version="1.0" encoding="UTF-8" standalone="no"?>
<svg
   width="24"
   height="24"
   version="1.1"
   id="svg1"
   sodipodi:docname="network-wired-no-route.svg"
   xmlns:inkscape="http://www.inkscape.org/namespaces/inkscape"
   xmlns:sodipodi="http://sodipodi.sourceforge.net/DTD/sodipodi-0.dtd"
   xmlns="http://www.w3.org/2000/svg"
   xmlns:svg="http://www.w3.org/2000/svg">
  <sodipodi:namedview
     id="namedview1"
     pagecolor="#ffffff"
     bordercolor="#000000"
     borderopacity="0.25"
     inkscape:showpageshadow="2"
     inkscape:pageopacity="0.0"
     inkscape:pagecheckerboard="0"
     inkscape:deskcolor="#d1d1d1" />
  <defs
     id="defs1">
    <style
       id="current-color-scheme"
       type="text/css">.ColorScheme-Text {color:#d8dee9} .ColorScheme-Highlight {color:#3b4252}</style>
  </defs>
  <path
     class="ColorScheme-Text"
     d="m 2.5,3.6 c 0,0 -1.2,0 -1.2,1.2000001 L 1.3000001,18 c 0,1.2 1.2,1.2 1.2,1.2 h 3.6 L 7.3,20.4 h 8.4 l 1.2,-1.2 h 3.6 c 0,0 1.2,0.156 1.2,-1.2 V 4.8000001 C 21.7,3.6 20.5,3.6 20.5,3.6 Z m 9.6,3.5999999 c 1.32,0 2.4,1.074 2.4,2.4000001 0,1.326 -1.08,2.4 -2.4,2.4 v 1.2 h -1.2 v -2.4 h 1.2 c 0.66,0 1.2,-0.5376 1.2,-1.2 0,-0.6624 -0.54,-1.2 -1.2,-1.2 -0.66,0 -1.2,0.5376 -1.2,1.2 H 9.7 c 0,-1.3260001 1.08,-2.4000001 2.4,-2.4000001 z M 10.9,14.4 h 1.2 v 1.2 h -1.2 z"
     style="fill:currentColor;stroke-width:1.2"
     id="path1" />
</svg>
