<?xml version="1.0" encoding="UTF-8" standalone="no"?>
<svg
   width="24"
   height="24"
   version="1.1"
   id="svg1"
   sodipodi:docname="network-wired.svg"
   xmlns:inkscape="http://www.inkscape.org/namespaces/inkscape"
   xmlns:sodipodi="http://sodipodi.sourceforge.net/DTD/sodipodi-0.dtd"
   xmlns="http://www.w3.org/2000/svg"
   xmlns:svg="http://www.w3.org/2000/svg">
  <sodipodi:namedview
     id="namedview1"
     pagecolor="#ffffff"
     bordercolor="#000000"
     borderopacity="0.25"
     inkscape:showpageshadow="2"
     inkscape:pageopacity="0.0"
     inkscape:pagecheckerboard="0"
     inkscape:deskcolor="#d1d1d1" />
  <defs
     id="defs1">
    <style
       id="current-color-scheme"
       type="text/css">.ColorScheme-Text {color:#d8dee9} .ColorScheme-Highlight {color:#3b4252}</style>
  </defs>
  <path
     class="ColorScheme-Text"
     d="m 2.5,3.6 c 0,0 -1.2,0 -1.2,1.2 V 18 c 0,1.2 1.2,1.2 1.2,1.2 h 3.6 l 1.2,1.2 h 8.4 l 1.2,-1.2 h 3.6 c 0,0 1.2,0.156 1.2,-1.2 V 4.8 C 21.7,3.6 20.5,3.6 20.5,3.6 Z M 3.7,6 H 4.9 V 8.3999995 H 6.1 V 6 H 7.3 V 8.3999995 H 8.5 V 6 h 1.2 v 2.3999995 h 1.2 V 6 h 1.2 v 2.3999995 h 1.2 V 6 h 1.2 v 2.3999995 h 1.2 V 6 h 1.2 v 2.4 h 1.2 V 6 h 1.2 V 16.8 H 15.7 L 14.5,18 h -6 L 7.3,16.8 H 3.7 Z"
     style="fill:currentColor;stroke-width:1.2"
     id="path1" />
</svg>
