<?xml version="1.0" encoding="UTF-8" standalone="no"?>
<svg
   width="24"
   height="24"
   version="1.1"
   id="svg2"
   sodipodi:docname="network-flightmode-off-symbolic.svg"
   xmlns:inkscape="http://www.inkscape.org/namespaces/inkscape"
   xmlns:sodipodi="http://sodipodi.sourceforge.net/DTD/sodipodi-0.dtd"
   xmlns="http://www.w3.org/2000/svg"
   xmlns:svg="http://www.w3.org/2000/svg">
  <sodipodi:namedview
     id="namedview2"
     pagecolor="#ffffff"
     bordercolor="#000000"
     borderopacity="0.25"
     inkscape:showpageshadow="2"
     inkscape:pageopacity="0.0"
     inkscape:pagecheckerboard="0"
     inkscape:deskcolor="#d1d1d1" />
  <defs
     id="defs1">
    <style
       id="current-color-scheme"
       type="text/css">.ColorScheme-Text {color:#d8dee9} .ColorScheme-Highlight {color:#3b4252}</style>
  </defs>
  <path
     d="m 16.7,16.7 v 1.2 c 0,0.336 0.12,0.648 0.336,0.864 l 0.936,0.936 -0.936,0.936 C 16.82,20.864 16.7,21.176 16.7,21.5 v 1.2 h 1.2 c 0.336,0 0.648,-0.12 0.864,-0.336 l 0.936,-0.936 0.936,0.936 c 0.216,0.216 0.54,0.336 0.864,0.336 h 1.2 v -1.2 c 0,-0.324 -0.12,-0.636 -0.336,-0.864 L 21.428,19.7 22.364,18.764 C 22.58,18.548 22.7,18.236 22.7,17.9 v -1.2 h -1.2 c -0.324,0 -0.648,0.12 -0.864,0.336 L 19.7,17.984 18.764,17.036 C 18.548,16.82 18.236,16.7 17.9,16.7 Z"
     style="fill:currentColor;stroke-width:1.2"
     class="ColorScheme-Text"
     id="path1" />
  <path
     d="m 9.681668,3.53732 1.73124,7.16256 H 4.7885 L 3.32594,8.56244 C 3.158828,8.311844 3.1787,8.299964 2.91344,8.29994 h -0.2625 c 0,0 -0.35094,6e-5 -0.35094,0.525 l 0.6,3.075 -0.6,3.075 c 0,0.52506 0.31344,0.525 0.31344,0.525 h 0.3 c 0.253908,0 0.245064,-0.0108 0.4125,-0.2625 L 4.7885,13.1 h 6.624408 l -1.71798,7.125 c -0.30354,1.25886 -0.322332,1.275 0.6375,1.275 0.518388,0 0.541296,-0.0024 0.8625,-0.6 l 4.19298,-7.8 H 20.3 c 0.6648,0 1.2,-0.5352 1.2,-1.2 0,-0.6648 -0.5352,-1.2 -1.2,-1.2 H 15.387908 L 11.181668,2.9 C 10.88042,2.341376 10.841708,2.3 10.394168,2.3 9.37472,2.3 9.385496,2.312 9.681668,3.53732 Z"
     style="opacity:0.35;fill:currentColor;stroke-width:1.2"
     class="ColorScheme-Text"
     id="path2" />
</svg>
