<?xml version="1.0" encoding="UTF-8" standalone="no"?>
<svg
   width="24"
   height="24"
   version="1.1"
   id="svg1"
   sodipodi:docname="network-wireless-no-route.svg"
   xmlns:inkscape="http://www.inkscape.org/namespaces/inkscape"
   xmlns:sodipodi="http://sodipodi.sourceforge.net/DTD/sodipodi-0.dtd"
   xmlns="http://www.w3.org/2000/svg"
   xmlns:svg="http://www.w3.org/2000/svg">
  <sodipodi:namedview
     id="namedview1"
     pagecolor="#ffffff"
     bordercolor="#000000"
     borderopacity="0.25"
     inkscape:showpageshadow="2"
     inkscape:pageopacity="0.0"
     inkscape:pagecheckerboard="0"
     inkscape:deskcolor="#d1d1d1" />
  <defs
     id="defs1">
    <style
       id="current-color-scheme"
       type="text/css">.ColorScheme-Text {color:#d8dee9} .ColorScheme-Highlight {color:#3b4252}</style>
  </defs>
  <path
     d="m 12,3.5999999 c -3.66072,0 -7.10328,1.28784 -9.6,3.6 L 12,20.4 21.6,7.1999999 c -2.4972,-2.31228 -5.9388,-3.6 -9.6,-3.6 z m 0,3.6 c 1.332,0 2.4,1.08 2.4,2.4000001 0,1.332 -1.068,2.4 -2.4,2.4 v 1.2 H 10.8 V 10.8 H 12 c 0.672,0 1.2,-0.528 1.2,-1.2 0,-0.6599999 -0.528,-1.2000001 -1.2,-1.2000001 -0.66,0 -1.2,0.5400002 -1.2,1.2000001 H 9.6 C 9.6,8.2799999 10.68,7.1999999 12,7.1999999 Z M 10.8,14.4 H 12 v 1.2 h -1.2 z"
     style="fill:currentColor;stroke-width:1.2"
     class="ColorScheme-Text"
     id="path1" />
</svg>
