<?xml version="1.0" encoding="UTF-8" standalone="no"?>
<svg
   width="24"
   height="24"
   version="1.1"
   id="svg2"
   sodipodi:docname="network-wireless-offline.svg"
   xmlns:inkscape="http://www.inkscape.org/namespaces/inkscape"
   xmlns:sodipodi="http://sodipodi.sourceforge.net/DTD/sodipodi-0.dtd"
   xmlns="http://www.w3.org/2000/svg"
   xmlns:svg="http://www.w3.org/2000/svg">
  <sodipodi:namedview
     id="namedview2"
     pagecolor="#ffffff"
     bordercolor="#000000"
     borderopacity="0.25"
     inkscape:showpageshadow="2"
     inkscape:pageopacity="0.0"
     inkscape:pagecheckerboard="0"
     inkscape:deskcolor="#d1d1d1" />
  <defs
     id="defs1">
    <style
       id="current-color-scheme"
       type="text/css">.ColorScheme-Text {color:#d8dee9} .ColorScheme-Highlight {color:#3b4252}</style>
  </defs>
  <path
     style="fill:currentColor;stroke-width:1.2"
     class="ColorScheme-Text"
     d="m 15.6,15.5 v 1.2 c 0,0.336 0.12,0.648 0.336,0.864 l 0.936,0.936 -0.936,0.936 C 15.72,19.664 15.6,19.976 15.6,20.3 v 1.2 h 1.2 c 0.336,0 0.648,-0.12 0.864,-0.336 l 0.936,-0.936 0.936,0.936 c 0.216,0.216 0.54,0.336 0.864,0.336 h 1.2 v -1.2 c 0,-0.324 -0.12,-0.636 -0.336,-0.864 L 20.328,18.5 21.264,17.564 C 21.48,17.348 21.6,17.036 21.6,16.7 v -1.2 h -1.2 c -0.324,0 -0.648,0.12 -0.864,0.336 L 18.6,16.784 17.664,15.836 C 17.448,15.62 17.136,15.5 16.8,15.5 Z"
     id="path1" />
  <path
     style="opacity:0.35;fill:currentColor;stroke-width:1.2"
     class="ColorScheme-Text"
     d="M 12,3.5 C 8.33928,3.5 4.89672,4.78784 2.4,7.1 L 12,20.3 14.423437,16.967187 C 14.414269,16.878098 14.4,16.789464 14.4,16.7 v -1.2 -1.2 h 1.964063 L 21.6,7.1 C 19.1028,4.78772 15.6612,3.5 12,3.5 Z"
     id="path2" />
</svg>
