<?xml version="1.0" encoding="UTF-8" standalone="no"?>
<svg
   width="24"
   height="24"
   version="1.1"
   id="svg2"
   sodipodi:docname="network-disconnected.svg"
   xmlns:inkscape="http://www.inkscape.org/namespaces/inkscape"
   xmlns:sodipodi="http://sodipodi.sourceforge.net/DTD/sodipodi-0.dtd"
   xmlns="http://www.w3.org/2000/svg"
   xmlns:svg="http://www.w3.org/2000/svg">
  <sodipodi:namedview
     id="namedview2"
     pagecolor="#ffffff"
     bordercolor="#000000"
     borderopacity="0.25"
     inkscape:showpageshadow="2"
     inkscape:pageopacity="0.0"
     inkscape:pagecheckerboard="0"
     inkscape:deskcolor="#d1d1d1" />
  <defs
     id="defs1">
    <style
       id="current-color-scheme"
       type="text/css">.ColorScheme-Text {color:#d8dee9} .ColorScheme-Highlight {color:#3b4252}</style>
  </defs>
  <path
     style="fill:currentColor;stroke-width:1.2"
     class="ColorScheme-Text"
     d="m 15.55,15.6 v 1.2 c 0,0.336 0.12,0.648 0.336,0.864 l 0.936,0.936 -0.936,0.936 C 15.67,19.764 15.55,20.076 15.55,20.4 v 1.2 h 1.2 c 0.336,0 0.648,-0.12 0.864,-0.336 l 0.936,-0.936 0.936,0.936 c 0.216,0.216 0.54,0.336 0.864,0.336 h 1.2 v -1.2 c 0,-0.324 -0.12,-0.636 -0.336,-0.864 L 20.278,18.6 21.214,17.664 C 21.43,17.448 21.55,17.136 21.55,16.8 v -1.2 h -1.2 c -0.324,0 -0.648,0.12 -0.864,0.336 L 18.55,16.884 17.614,15.936 C 17.398,15.72 17.086,15.6 16.75,15.6 Z"
     id="path1" />
  <path
     style="opacity:0.35;fill:currentColor;stroke-width:1.2"
     class="ColorScheme-Text"
     d="m 14.35,2.4 v 2.4 h -3.6 v 6 h 3.6 v 2.4 l 6.6,-5.4 z m -4.8,7.2 -6.6,5.4 6.6,5.4 V 18 h 3.6 v -6 h -3.6 z"
     id="path2" />
</svg>
