<?xml version="1.0" encoding="UTF-8" standalone="no"?>
<svg
   width="24"
   height="24"
   version="1.1"
   id="svg1"
   sodipodi:docname="network-cellular-no-route.svg"
   xmlns:inkscape="http://www.inkscape.org/namespaces/inkscape"
   xmlns:sodipodi="http://sodipodi.sourceforge.net/DTD/sodipodi-0.dtd"
   xmlns="http://www.w3.org/2000/svg"
   xmlns:svg="http://www.w3.org/2000/svg">
  <sodipodi:namedview
     id="namedview1"
     pagecolor="#ffffff"
     bordercolor="#000000"
     borderopacity="0.25"
     inkscape:showpageshadow="2"
     inkscape:pageopacity="0.0"
     inkscape:pagecheckerboard="0"
     inkscape:deskcolor="#d1d1d1" />
  <defs
     id="defs1">
    <style
       id="current-color-scheme"
       type="text/css">.ColorScheme-Text {color:#d8dee9} .ColorScheme-Highlight {color:#3b4252}</style>
  </defs>
  <g
     transform="translate(-152 -596.36)"
     style=""
     id="g1">
    <path
       style="fill:currentColor;stroke-width:1.2"
       class="ColorScheme-Text"
       d="m 172.4,599.97 -16.8,16.8 h 16.8 z m -3.6,7.2 c 1.32552,0 2.4,1.07452 2.4,2.4 0,1.32548 -1.07452,2.4 -2.4,2.4 v 1.2 h -1.2 v -2.4 h 1.2 c 0.66275,0 1.2,-0.53726 1.2,-1.2 0,-0.66274 -0.53725,-1.2 -1.2,-1.2 -0.66274,0 -1.2,0.53726 -1.2,1.2 h -1.2 c 0,-1.32552 1.07452,-2.4 2.4,-2.4 z m -0.6,6.9 a 0.9,0.9 0 0 1 0.9,0.9 0.9,0.9 0 0 1 -0.9,0.9 0.9,0.9 0 0 1 -0.9,-0.9 0.9,0.9 0 0 1 0.9,-0.9 z"
       id="path1" />
  </g>
</svg>
