<?xml version="1.0" encoding="UTF-8" standalone="no"?>
<svg
   width="24"
   height="24"
   version="1.1"
   id="svg1"
   sodipodi:docname="network-cellular-3g.svg"
   xmlns:inkscape="http://www.inkscape.org/namespaces/inkscape"
   xmlns:sodipodi="http://sodipodi.sourceforge.net/DTD/sodipodi-0.dtd"
   xmlns="http://www.w3.org/2000/svg"
   xmlns:svg="http://www.w3.org/2000/svg">
  <sodipodi:namedview
     id="namedview1"
     pagecolor="#ffffff"
     bordercolor="#000000"
     borderopacity="0.25"
     inkscape:showpageshadow="2"
     inkscape:pageopacity="0.0"
     inkscape:pagecheckerboard="0"
     inkscape:deskcolor="#d1d1d1" />
  <defs
     id="defs1">
    <style
       id="current-color-scheme"
       type="text/css">.ColorScheme-Text {color:#d8dee9} .ColorScheme-Highlight {color:#3b4252}</style>
  </defs>
  <g
     transform="translate(-272 -524.36)"
     style=""
     id="g1">
    <path
       style="fill:currentColor;stroke-width:1.2"
       class="ColorScheme-Text"
       d="m 274.4001,530.4325 -6e-4,11.925 c -1.2e-4,2.4 2.4,2.4 2.4,2.4 h 14.4 c 2.4,0 2.4,-2.4 2.4,-2.4 v -12 c 0,0 1e-5,-2.4 -2.4,-2.4 h -14.4 c 0,0 -2.39928,5.2e-4 -2.3994,2.475 z m 2.39964,-0.075 h 4.8 c 0.79967,0.0194 1.40064,1.00578 1.0506,1.725 l -1.65,3.33744 c 0.4255,0.13862 0.89896,0.23468 1.1625,0.525 0.39886,0.43937 0.6375,0.97224 0.6375,1.61256 v 2.4 c 0,1.33488 -1.08878,2.4 -2.4,2.4 h -3.6 l -6e-4,-2.4 h 3.6 v -2.4 h -1.1994 c -0.79967,-0.0194 -1.40004,-1.00578 -1.05,-1.725 l 1.5,-3.075 h -2.85 z m 12,0 c 2.4,0 2.4,2.4 2.4,2.4 v 1.2 h -2.4 v -1.2 h -2.4 v 7.2 h 2.4 v -2.4 h -1.2 l 9.6e-4,-2.36256 2.39904,-0.0374 1.20096,0.0374 v 4.725 c 0,6e-5 -9.6e-4,2.43756 -2.40096,2.43756 l -2.39904,-6e-5 c 0,0 -2.40096,6e-5 -2.40096,-2.4 v -7.2 c 0,-2.4 2.4,-2.4 2.4,-2.4 z"
       id="path1" />
  </g>
</svg>
