<?xml version="1.0" encoding="UTF-8" standalone="no"?>
<svg
   width="24"
   height="24"
   version="1.1"
   id="svg2"
   sodipodi:docname="network-wired-acquiring.svg"
   xmlns:inkscape="http://www.inkscape.org/namespaces/inkscape"
   xmlns:sodipodi="http://sodipodi.sourceforge.net/DTD/sodipodi-0.dtd"
   xmlns="http://www.w3.org/2000/svg"
   xmlns:svg="http://www.w3.org/2000/svg">
  <sodipodi:namedview
     id="namedview2"
     pagecolor="#ffffff"
     bordercolor="#000000"
     borderopacity="0.25"
     inkscape:showpageshadow="2"
     inkscape:pageopacity="0.0"
     inkscape:pagecheckerboard="0"
     inkscape:deskcolor="#d1d1d1" />
  <defs
     id="defs1">
    <style
       id="current-color-scheme"
       type="text/css">.ColorScheme-Text {color:#d8dee9} .ColorScheme-Highlight {color:#3b4252}</style>
  </defs>
  <path
     class="ColorScheme-Text"
     d="m 5.4999999,10.7 a 1.8,1.8 0 0 0 -1.8,1.8 1.8,1.8 0 0 0 1.8,1.8 1.8,1.8 0 0 0 1.8,-1.8 1.8,1.8 0 0 0 -1.8,-1.8 z M 11.5,10.7 A 1.8,1.8 0 0 0 9.6999999,12.5 1.8,1.8 0 0 0 11.5,14.3 1.8,1.8 0 0 0 13.3,12.5 1.8,1.8 0 0 0 11.5,10.7 Z m 6,0 a 1.8,1.8 0 0 0 -1.8,1.8 1.8,1.8 0 0 0 1.8,1.8 1.8,1.8 0 0 0 1.8,-1.8 1.8,1.8 0 0 0 -1.8,-1.8 z"
     style="fill:currentColor;stroke-width:1.2"
     id="path1" />
  <path
     class="ColorScheme-Text"
     d="m 2.4999998,3.5 c 0,0 -1.1999999,0 -1.1999999,1.2 v 4.8 h 2.4 V 5.9 h 1.2 V 8.3 H 6.1 V 5.9 H 7.3 V 8.3 H 8.5000001 V 5.9 H 9.6999999 V 8.3 H 10.9 V 5.9 h 1.200001 V 8.3 H 13.3 V 5.9 h 1.2 v 2.4 h 1.200001 V 5.9 h 1.199998 V 8.3 H 18.1 V 5.9 h 1.200001 v 3.6 h 2.4 V 4.7 c 0,-1.2 -1.200002,-1.2 -1.200002,-1.2 z m -1.1999999,12 v 3.6 c 0,1.2 1.1999999,1.2 1.1999999,1.2 H 6.1 l 1.2,1.2 h 8.400001 l 1.199998,-1.2 h 3.6 c 0,0 1.200002,0.156 1.200002,-1.2 v -3.6 h -2.4 v 2.4 h -3.6 L 14.5,19.1 H 8.5000001 L 7.3,17.9 H 3.6999999 v -2.4 z"
     style="opacity:0.35;fill:currentColor;stroke-width:1.2"
     id="path2" />
</svg>
