<?xml version="1.0" encoding="UTF-8" standalone="no"?>
<svg
   width="24"
   height="24"
   version="1.1"
   id="svg1"
   sodipodi:docname="network-cellular-4g.svg"
   xmlns:inkscape="http://www.inkscape.org/namespaces/inkscape"
   xmlns:sodipodi="http://sodipodi.sourceforge.net/DTD/sodipodi-0.dtd"
   xmlns="http://www.w3.org/2000/svg"
   xmlns:svg="http://www.w3.org/2000/svg">
  <sodipodi:namedview
     id="namedview1"
     pagecolor="#ffffff"
     bordercolor="#000000"
     borderopacity="0.25"
     inkscape:showpageshadow="2"
     inkscape:pageopacity="0.0"
     inkscape:pagecheckerboard="0"
     inkscape:deskcolor="#d1d1d1" />
  <defs
     id="defs1">
    <style
       id="current-color-scheme"
       type="text/css">.ColorScheme-Text {color:#d8dee9} .ColorScheme-Highlight {color:#3b4252}</style>
  </defs>
  <g
     transform="translate(-296 -524.36)"
     style=""
     id="g1">
    <path
       style="fill:currentColor;stroke-width:1.2"
       class="ColorScheme-Text"
       d="m 300.8,527.96 c 0,0 -2.39988,0 -2.4,2.475 v 11.925 c -10e-5,2.4 2.4,2.4 2.4,2.4 h 14.4 c 2.4,0 2.4,-2.4 2.4,-2.4 v -12 c 0,0 0,-2.4 -2.4,-2.4 z m 2.4e-4,2.4 h 2.4 v 4.8 h 1.2 v -4.8 h 2.4 v 12 h -2.4 v -4.8 h -1.2 c -2.4,0 -2.4,-2.4 -2.4,-2.4 z m 9.6,0 h 2.4 c 2.4,0 2.4,2.4 2.4,2.4 v 1.2 h -2.4 v -1.2 h -2.4 v 7.2 h 2.4 v -2.4 h -1.2 v -2.36256 l 2.4,-0.0374 1.2,0.0374 v 4.725 c 0,6e-5 0,2.43744 -2.4,2.43744 h -2.4 c 0,0 -2.4,0 -2.4,-2.4 v -7.2 c 0,-2.4 2.4,-2.4 2.4,-2.4 z"
       id="path1" />
  </g>
</svg>
