<?xml version="1.0" encoding="UTF-8" standalone="no"?>
<svg
   width="24"
   height="24"
   version="1.1"
   id="svg1"
   sodipodi:docname="network-cellular-hspa.svg"
   xmlns:inkscape="http://www.inkscape.org/namespaces/inkscape"
   xmlns:sodipodi="http://sodipodi.sourceforge.net/DTD/sodipodi-0.dtd"
   xmlns="http://www.w3.org/2000/svg"
   xmlns:svg="http://www.w3.org/2000/svg">
  <sodipodi:namedview
     id="namedview1"
     pagecolor="#ffffff"
     bordercolor="#000000"
     borderopacity="0.25"
     inkscape:showpageshadow="2"
     inkscape:pageopacity="0.0"
     inkscape:pagecheckerboard="0"
     inkscape:deskcolor="#d1d1d1" />
  <defs
     id="defs1">
    <style
       id="current-color-scheme"
       type="text/css">.ColorScheme-Text {color:#d8dee9} .ColorScheme-Highlight {color:#3b4252}</style>
  </defs>
  <g
     transform="translate(-344 -524.36)"
     style=""
     id="g1">
    <path
       style="fill:currentColor;stroke-width:1.2"
       class="ColorScheme-Text"
       d="m 350,527.96 c 0,0 -2.4,0 -2.4,2.475 v 11.925 c 0,2.4 2.4,2.4 2.4,2.4 h 12 c 2.4,0 2.4,-2.4 2.4,-2.4 v -12 c 0,0 0,-2.4 -2.4,-2.4 z m 3.6,2.4 2.4e-4,4.8 h 4.8 l -2.4e-4,-4.8 h 2.4 l 2.4e-4,12 -2.40024,-2e-5 2.4e-4,-4.8 h -4.8 l -2.4e-4,4.8 -2.39976,2e-5 -2.4e-4,-12 z"
       id="path1" />
  </g>
</svg>
