<?xml version="1.0" encoding="UTF-8" standalone="no"?>
<svg
   width="24"
   height="24"
   version="1.1"
   id="svg3"
   sodipodi:docname="network-cellular-secure-signal-low.svg"
   xmlns:inkscape="http://www.inkscape.org/namespaces/inkscape"
   xmlns:sodipodi="http://sodipodi.sourceforge.net/DTD/sodipodi-0.dtd"
   xmlns="http://www.w3.org/2000/svg"
   xmlns:svg="http://www.w3.org/2000/svg">
  <sodipodi:namedview
     id="namedview3"
     pagecolor="#ffffff"
     bordercolor="#000000"
     borderopacity="0.25"
     inkscape:showpageshadow="2"
     inkscape:pageopacity="0.0"
     inkscape:pagecheckerboard="0"
     inkscape:deskcolor="#d1d1d1" />
  <defs
     id="defs1">
    <style
       id="current-color-scheme"
       type="text/css">.ColorScheme-Text {color:#d8dee9} .ColorScheme-Highlight {color:#3b4252}</style>
  </defs>
  <g
     transform="translate(-104 -620.36)"
     style=""
     id="g3">
    <path
       opacity="0.35"
       style="fill:currentColor;stroke-width:1.2"
       class="ColorScheme-Text"
       d="m 124.3,623.87102 -16.8,16.8 h 9.6 v -4.8048 h 1.21644 c 0.0235,-1.96188 1.611,-3.6 3.58356,-3.6 0.92929,0 1.76496,0.37137 2.4,0.96093 v -9.35628 z"
       id="path1" />
    <path
       style="fill:currentColor;stroke-width:1.2"
       class="ColorScheme-Text"
       d="m 112.3,635.87102 -4.8,4.8 h 4.8 z"
       id="path2" />
    <path
       style="fill:currentColor;stroke-width:1.2"
       class="ColorScheme-Text"
       d="m 121.9,633.45902 c -1.3296,0 -2.4,1.09302 -2.4,2.43744 v 1.1625 h -1.2 v 4.8 h 7.2 v -4.8 h -1.2 v -1.1625 c 0,-1.34388 -1.0704,-2.43744 -2.4,-2.43744 z m 0,1.2 c 0.6648,0 1.2,0.53088 1.2,1.2 v 1.2 h -2.4 v -1.2 c 0,-0.66912 0.5352,-1.2 1.2,-1.2 z"
       id="path3" />
  </g>
</svg>
