<?xml version="1.0" encoding="UTF-8" standalone="no"?>
<svg
   width="24"
   height="24"
   version="1.1"
   id="svg2"
   sodipodi:docname="network-cellular-offline.svg"
   xmlns:inkscape="http://www.inkscape.org/namespaces/inkscape"
   xmlns:sodipodi="http://sodipodi.sourceforge.net/DTD/sodipodi-0.dtd"
   xmlns="http://www.w3.org/2000/svg"
   xmlns:svg="http://www.w3.org/2000/svg">
  <sodipodi:namedview
     id="namedview2"
     pagecolor="#ffffff"
     bordercolor="#000000"
     borderopacity="0.25"
     inkscape:showpageshadow="2"
     inkscape:pageopacity="0.0"
     inkscape:pagecheckerboard="0"
     inkscape:deskcolor="#d1d1d1" />
  <defs
     id="defs1">
    <style
       id="current-color-scheme"
       type="text/css">.ColorScheme-Text {color:#d8dee9} .ColorScheme-Highlight {color:#3b4252}</style>
  </defs>
  <g
     transform="translate(-176 -596.36)"
     style=""
     id="g2">
    <path
       opacity="0.35"
       style="fill:currentColor;stroke-width:1.2"
       class="ColorScheme-Text"
       d="m 196.3,599.87 -16.8,16.8 h 10.8 v -6 h 6 z"
       id="path1" />
    <path
       style="fill:currentColor;stroke-width:1.2"
       class="ColorScheme-Text"
       d="m 191.5,611.87 v 1.2 c 0,0.33137 0.12035,0.64535 0.3375,0.8625 l 0.9375,0.9375 -0.9375,0.9375 c -0.21715,0.21715 -0.3375,0.53113 -0.3375,0.8625 v 1.2 h 1.2 c 0.33137,0 0.64535,-0.12035 0.8625,-0.3375 l 0.9375,-0.9375 0.9375,0.9375 c 0.21715,0.21715 0.53113,0.3375 0.8625,0.3375 h 1.2 v -1.2 c 0,-0.33137 -0.12035,-0.64535 -0.3375,-0.8625 l -0.9375,-0.9375 0.9375,-0.9375 c 0.21715,-0.21715 0.3375,-0.53113 0.3375,-0.8625 v -1.2 h -1.2 c -0.33137,0 -0.64535,0.12035 -0.8625,0.3375 l -0.9375,0.9375 -0.9375,-0.9375 C 193.34535,611.99035 193.03137,611.87 192.7,611.87 Z"
       id="path2" />
  </g>
</svg>
