<?xml version="1.0" encoding="UTF-8" standalone="no"?>
<svg
   width="24"
   height="24"
   version="1.1"
   id="svg4"
   sodipodi:docname="network-wireless-acquiring.svg"
   xmlns:inkscape="http://www.inkscape.org/namespaces/inkscape"
   xmlns:sodipodi="http://sodipodi.sourceforge.net/DTD/sodipodi-0.dtd"
   xmlns="http://www.w3.org/2000/svg"
   xmlns:svg="http://www.w3.org/2000/svg">
  <sodipodi:namedview
     id="namedview4"
     pagecolor="#ffffff"
     bordercolor="#000000"
     borderopacity="0.25"
     inkscape:showpageshadow="2"
     inkscape:pageopacity="0.0"
     inkscape:pagecheckerboard="0"
     inkscape:deskcolor="#d1d1d1" />
  <defs
     id="defs1">
    <style
       id="current-color-scheme"
       type="text/css">.ColorScheme-Text {color:#d8dee9} .ColorScheme-Highlight {color:#3b4252}</style>
  </defs>
  <path
     style="fill:currentColor;stroke-width:1.2"
     class="ColorScheme-Text"
     d="M 8.4,12 A 2.4,2.4 0 0 1 6,14.4 2.4,2.4 0 0 1 3.6,12 2.4,2.4 0 0 1 6,9.6 2.4,2.4 0 0 1 8.4,12 Z"
     id="path1" />
  <path
     style="fill:currentColor;stroke-width:1.2"
     class="ColorScheme-Text"
     d="M 14.4,12 A 2.4,2.4 0 0 1 12,14.4 2.4,2.4 0 0 1 9.6,12 2.4,2.4 0 0 1 12,9.6 2.4,2.4 0 0 1 14.4,12 Z"
     id="path2" />
  <path
     style="fill:currentColor;stroke-width:1.2"
     class="ColorScheme-Text"
     d="M 20.4,12 A 2.4,2.4 0 0 1 18,14.4 2.4,2.4 0 0 1 15.6,12 2.4,2.4 0 0 1 18,9.6 2.4,2.4 0 0 1 20.4,12 Z"
     id="path3" />
  <path
     style="opacity:0.35;fill:currentColor;stroke-width:1.2"
     class="ColorScheme-Text"
     d="M 12,3.6 C 8.33928,3.6 4.89672,4.88784 2.4,7.2 L 3.271875,8.4 H 20.728126 L 21.6,7.2 C 19.1028,4.88772 15.6612,3.6 12,3.6 Z M 8.5101563,15.6 12,20.4 15.489844,15.6 Z"
     id="path4" />
</svg>
