<?xml version="1.0" encoding="UTF-8" standalone="no"?>
<svg
   width="24"
   height="24"
   version="1.1"
   id="svg1"
   sodipodi:docname="network-wired-available.svg"
   xmlns:inkscape="http://www.inkscape.org/namespaces/inkscape"
   xmlns:sodipodi="http://sodipodi.sourceforge.net/DTD/sodipodi-0.dtd"
   xmlns="http://www.w3.org/2000/svg"
   xmlns:svg="http://www.w3.org/2000/svg">
  <sodipodi:namedview
     id="namedview1"
     pagecolor="#ffffff"
     bordercolor="#000000"
     borderopacity="0.25"
     inkscape:showpageshadow="2"
     inkscape:pageopacity="0.0"
     inkscape:pagecheckerboard="0"
     inkscape:deskcolor="#d1d1d1" />
  <defs
     id="defs1">
    <style
       id="current-color-scheme"
       type="text/css">.ColorScheme-Text {color:#d8dee9} .ColorScheme-Highlight {color:#3b4252}</style>
  </defs>
  <path
     class="ColorScheme-Text"
     d="m 2.4,3.6 c 0,0 -1.2,0 -1.2,1.2000001 V 18 c 0,1.2 1.2,1.2 1.2,1.2 H 6 l 1.2,1.2 h 7.2 l 1.2,-1.2 h 1.2 V 16.8 H 15.6 L 14.4,18 h -6 L 7.2,16.8 H 3.6 V 6.0000002 H 4.8 V 8.4000001 H 6 V 6.0000002 H 7.2 V 8.4000001 H 8.4 V 6.0000002 h 1.2 v 2.3999999 h 1.2 V 6.0000002 H 12 v 2.3999999 h 1.2 V 6.0000002 h 1.2 v 2.3999999 h 1.2 V 6.0000002 h 1.2 v 2.4 H 18 v -2.4 h 1.2 V 14.4 h 2.4 V 4.8000002 c 0,-1.2000001 -1.2,-1.2000001 -1.2,-1.2000001 z"
     style="opacity:0.35;fill:currentColor;stroke-width:1.2"
     id="path1" />
  <circle
     cx="20.4"
     cy="18"
     r="2.4000001"
     style="fill:currentColor;stroke-width:1.2"
     class="ColorScheme-Text"
     id="circle1" />
</svg>
