<?xml version="1.0" encoding="UTF-8" standalone="no"?>
<svg
   width="24"
   height="24"
   version="1.1"
   id="svg1"
   sodipodi:docname="nixnote2-tray.svg"
   xmlns:inkscape="http://www.inkscape.org/namespaces/inkscape"
   xmlns:sodipodi="http://sodipodi.sourceforge.net/DTD/sodipodi-0.dtd"
   xmlns="http://www.w3.org/2000/svg"
   xmlns:svg="http://www.w3.org/2000/svg">
  <sodipodi:namedview
     id="namedview1"
     pagecolor="#ffffff"
     bordercolor="#000000"
     borderopacity="0.25"
     inkscape:showpageshadow="2"
     inkscape:pageopacity="0.0"
     inkscape:pagecheckerboard="0"
     inkscape:deskcolor="#d1d1d1" />
  <defs
     id="defs1">
    <style
       id="current-color-scheme"
       type="text/css">.ColorScheme-Text {color:#d8dee9} .ColorScheme-Highlight {color:#3b4252}</style>
  </defs>
  <path
     style="fill:currentColor;stroke-width:1.2"
     class="ColorScheme-Text"
     d="m 11.35978,2.4045537 c -0.802197,0.04158 -2.3542411,0.4088313 -3.16172,1.7179689 0,0 -0.745369,-0.240181 0.1242188,-1.6078126 0,0 -2.3223205,-0.1148436 -3.590625,1.0851563 H 2.3996226 V 15.799086 c 0,0 3.156215,6.976356 13.4109374,5.627344 0,0 4.64082,-0.701325 4.033594,-5.050782 0,0 1.450069,-1.649223 1.657032,-3.752344 0.191273,-1.942331 0.170024,-2.8651236 -0.649219,-5.3824127 -0.05718,-0.1754832 -0.300053,-0.162252 -0.3375,0.01875 -0.287164,1.3886154 -0.846898,4.2016437 -3.267187,5.6214757 0,0 1.27418,-1.649569 0.578906,-4.5039127 -0.02228,-0.091548 -0.148753,-0.081977 -0.159376,0.011724 -0.101964,0.9059844 -0.465105,2.1643677 -1.701561,2.5585997 0,0 -1.008084,-2.8903476 -4.361719,-4.7789064 0,0 0.289672,-0.9031962 0.372656,-1.546875 0.08273,-0.6439476 -0.207653,-0.9439373 -0.04219,-1.2445313 0.165722,-0.3006012 0.827345,-0.7289062 0.827345,-0.7289063 0,0 -0.599365,-0.2853347 -1.401563,-0.24375 z m 1.7625,9.5976563 c 0.724508,-0.04584 1.320535,0.550403 1.275,1.275 -0.03804,0.5972 -0.52049,1.082651 -1.11797,1.120313 -0.724498,0.04584 -1.323231,-0.550405 -1.277343,-1.275 0.03767,-0.597543 0.522842,-1.082651 1.120313,-1.120313 z m 4.18828,6 c 0.164001,0.0095 0.344343,0.04126 0.492189,0.126563 0.04913,0.0284 0.220053,0.127059 0.194531,0.24375 -0.02425,0.111168 -0.211124,0.175885 -0.28125,0.199218 -0.215219,0.07171 -0.300424,0.01128 -0.58125,0.06797 -0.0685,0.0138 -0.278411,0.0574 -0.459376,0.173437 -0.147358,0.09462 -0.1107,0.131844 -0.246094,0.220313 -0.133149,0.0872 -0.415726,0.213433 -0.616406,0.15 -0.191633,-0.06046 -0.210049,-0.26139 -0.213281,-0.3 -0.0226,-0.274957 0.292048,-0.482757 0.424219,-0.569531 0.135713,-0.0889 0.44273,-0.257145 0.9,-0.3 0.07738,-0.0073 0.222717,-0.02111 0.386718,-0.01176 z"
     id="path1" />
</svg>
