<?xml version="1.0" encoding="UTF-8" standalone="no"?>
<svg
   width="24"
   height="24"
   version="1.1"
   id="svg1"
   sodipodi:docname="nm-device-wired-secureoffline.svg"
   xmlns:inkscape="http://www.inkscape.org/namespaces/inkscape"
   xmlns:sodipodi="http://sodipodi.sourceforge.net/DTD/sodipodi-0.dtd"
   xmlns="http://www.w3.org/2000/svg"
   xmlns:svg="http://www.w3.org/2000/svg">
  <sodipodi:namedview
     id="namedview1"
     pagecolor="#ffffff"
     bordercolor="#000000"
     borderopacity="0.25"
     inkscape:showpageshadow="2"
     inkscape:pageopacity="0.0"
     inkscape:pagecheckerboard="0"
     inkscape:deskcolor="#d1d1d1" />
  <defs
     id="defs1">
    <style
       id="current-color-scheme"
       type="text/css">.ColorScheme-Text {color:#d8dee9} .ColorScheme-Highlight {color:#3b4252}</style>
  </defs>
  <path
     style="fill:currentColor;stroke-width:1.2"
     class="ColorScheme-Text"
     d="M 12,2.4 A 3.6,3.6 0 0 0 8.4,6 V 8.4 H 7.2 C 6.5352,8.4 6,8.9352 6,9.6 v 4.8 c 0,0.6648 0.5352,1.2 1.2,1.2 h 9.6 c 0.6648,0 1.2,-0.5352 1.2,-1.2 V 9.6 C 18,8.9352 17.4648,8.4 16.8,8.4 H 15.6 V 6 A 3.6,3.6 0 0 0 12,2.4 Z m 0,2.4 c 0.691169,0 1.2,0.5088312 1.2,1.2 V 8.4 H 10.8 V 6 c 0,-0.6911688 0.508831,-1.2 1.2,-1.2 z m -1.2,12 V 18 H 8.4 v 1.2 2.4 h 7.2 V 19.2 18 h -2.4 v -1.2 z m -7.2,2.4 c -0.6648,0 -1.2,0.5352 -1.2,1.2 0,0.6648 0.5352,1.2 1.2,1.2 h 3.6 v -2.4 z m 13.2,0 v 2.4 h 3.6 c 0.6648,0 1.2,-0.5352 1.2,-1.2 0,-0.6648 -0.5352,-1.2 -1.2,-1.2 z"
     id="path1" />
</svg>
