<?xml version="1.0" encoding="UTF-8" standalone="no"?>
<svg
   width="24"
   height="24"
   version="1.1"
   id="svg2"
   sodipodi:docname="nm-no-connection.svg"
   xmlns:inkscape="http://www.inkscape.org/namespaces/inkscape"
   xmlns:sodipodi="http://sodipodi.sourceforge.net/DTD/sodipodi-0.dtd"
   xmlns="http://www.w3.org/2000/svg"
   xmlns:svg="http://www.w3.org/2000/svg">
  <sodipodi:namedview
     id="namedview2"
     pagecolor="#ffffff"
     bordercolor="#000000"
     borderopacity="0.25"
     inkscape:showpageshadow="2"
     inkscape:pageopacity="0.0"
     inkscape:pagecheckerboard="0"
     inkscape:deskcolor="#d1d1d1" />
  <defs
     id="defs1">
    <style
       id="current-color-scheme"
       type="text/css">.ColorScheme-Text {color:#d8dee9} .ColorScheme-Highlight {color:#3b4252}</style>
  </defs>
  <path
     class="ColorScheme-Text"
     d="m 16.8,15.5 v 1.2 c 0,0.324 0.12,0.636 0.336,0.864 l 0.936,0.936 -0.936,0.936 C 16.92,19.652 16.8,19.964 16.8,20.3 v 1.2 H 18 c 0.336,0 0.648,-0.12 0.864,-0.336 l 0.936,-0.948 0.936,0.948 C 20.952,21.38 21.264,21.5 21.6,21.5 h 1.2 v -1.2 c 0,-0.336 -0.12,-0.648 -0.336,-0.864 L 21.528,18.5 22.464,17.564 C 22.68,17.336 22.8,17.024 22.8,16.7 v -1.2 h -1.2 c -0.336,0 -0.648,0.12 -0.864,0.336 L 19.8,16.772 18.864,15.836 C 18.648,15.62 18.336,15.5 18,15.5 Z"
     style="fill:currentColor;stroke-width:1.2"
     id="path1" />
  <path
     class="ColorScheme-Text"
     d="m 2.4,3.5 c 0,0 -1.2,10e-8 -1.2,1.2000001 V 17.9 c 0,1.2 1.2,1.2 1.2,1.2 H 6 l 1.2,1.2 h 8.4 V 17.9 H 8.4 L 7.2,16.7 H 3.6 V 5.9000002 H 4.8 V 8.3000001 H 6 V 5.9000002 H 7.2 V 8.3000001 H 8.4 V 5.9000002 h 1.2 v 2.3999999 h 1.2 V 5.9000002 H 12 v 2.3999999 h 1.2 V 5.9000002 h 1.2 v 2.3999999 h 1.2 V 5.9000002 h 1.2 v 2.4 H 18 v -2.4 h 1.2 V 14.3 h 2.4 V 4.7000002 c 0,-1.2 -1.2,-1.2000001 -1.2,-1.2000001 z"
     style="opacity:0.35;fill:currentColor;stroke-width:1.2"
     id="path2" />
</svg>
