<?xml version="1.0" encoding="UTF-8" standalone="no"?>
<svg
   width="24"
   height="24"
   version="1"
   id="svg1"
   sodipodi:docname="nomachine-indicator.svg"
   xmlns:inkscape="http://www.inkscape.org/namespaces/inkscape"
   xmlns:sodipodi="http://sodipodi.sourceforge.net/DTD/sodipodi-0.dtd"
   xmlns="http://www.w3.org/2000/svg"
   xmlns:svg="http://www.w3.org/2000/svg">
  <sodipodi:namedview
     id="namedview1"
     pagecolor="#ffffff"
     bordercolor="#000000"
     borderopacity="0.25"
     inkscape:showpageshadow="2"
     inkscape:pageopacity="0.0"
     inkscape:pagecheckerboard="0"
     inkscape:deskcolor="#d1d1d1" />
  <defs
     id="defs1">
    <style
       id="current-color-scheme"
       type="text/css">.ColorScheme-Text {color:#d8dee9} .ColorScheme-Highlight {color:#3b4252}</style>
  </defs>
  <g
     transform="matrix(1,0,0,1,1,1)"
     style=""
     id="g1">
    <path
       style="fill:currentColor;stroke-width:1.2"
       class="ColorScheme-Text"
       d="m 2.6,1.40044 c -0.6648,0 -1.2,0.54 -1.2,1.2 v 16.79952 c 0,0.66 0.5352,1.2 1.2,1.2 h 16.8 c 0.66,0 1.2,-0.54 1.2,-1.2 V 2.60044 c 0,-0.66 -0.54,-1.2 -1.2,-1.2 z m 1.19988,4.8 h 2.4 v 5.99952 h -2.4 z m 3.6,0 H 17 v 9.59952 h -2.4 v -6 h -1.2 v 6 H 11 v -6 H 9.79988 v 6 h -2.4 z m -3.6,7.19952 h 2.4 v 2.4 h -2.4 z"
       id="path1" />
  </g>
</svg>
