<?xml version="1.0" encoding="UTF-8" standalone="no"?>
<svg
   width="24"
   height="24"
   version="1.1"
   id="svg2"
   sodipodi:docname="notification-active-symbolic.svg"
   xmlns:inkscape="http://www.inkscape.org/namespaces/inkscape"
   xmlns:sodipodi="http://sodipodi.sourceforge.net/DTD/sodipodi-0.dtd"
   xmlns="http://www.w3.org/2000/svg"
   xmlns:svg="http://www.w3.org/2000/svg">
  <sodipodi:namedview
     id="namedview2"
     pagecolor="#ffffff"
     bordercolor="#000000"
     borderopacity="0.25"
     inkscape:showpageshadow="2"
     inkscape:pageopacity="0.0"
     inkscape:pagecheckerboard="0"
     inkscape:deskcolor="#d1d1d1" />
  <defs
     id="defs1">
    <style
       id="current-color-scheme"
       type="text/css">.ColorScheme-Text {color:#d8dee9} .ColorScheme-Highlight {color:#3b4252}</style>
  </defs>
  <path
     class="ColorScheme-Text"
     d="m 15.714293,4.34104 c -2.65596,-0.897324 -5.64696,0.1638 -7.1046,2.68824 l -2.7,4.6758 -3.278916,0.87888 -0.3,0.52032 2.078916,1.20012 10.3926,6 2.0796,1.2 0.3,-0.5208 -0.8796,-3.2784 1.5,-2.5968 1.2,-2.07912 c 0.654,-1.1316 0.8772,-2.38044 0.7596,-3.58356 -0.1824,0.02892 -0.366,0.05856 -0.5556,0.05856 -1.974,0 -3.6,-1.626 -3.6,-3.6 0,-0.52344 0.1188,-1.01844 0.3276,-1.46628 0,0 -0.2172,-0.09612 -0.2196,-0.09696 z M 7.208213,17.3044 c 0,0.8568 0.456,1.65 1.1976,2.0784 0.74196,0.4272 1.65636,0.426 2.3976,-0.0024 z"
     style="fill:currentColor;stroke-width:1.2"
     id="path1" />
  <path
     class="ColorScheme-Text"
     d="m 21.606293,5.8996 a 2.4,2.4 0 0 1 -2.4,2.4 2.4,2.4 0 0 1 -2.4,-2.4 2.4,2.4 0 0 1 2.4,-2.4 2.4,2.4 0 0 1 2.4,2.4 z"
     style="fill:currentColor;stroke-width:1.2"
     id="path2" />
</svg>
