<?xml version="1.0" encoding="UTF-8" standalone="no"?>
<svg
   width="24"
   height="24"
   version="1.1"
   id="svg1"
   sodipodi:docname="notification-inactive.svg"
   xmlns:inkscape="http://www.inkscape.org/namespaces/inkscape"
   xmlns:sodipodi="http://sodipodi.sourceforge.net/DTD/sodipodi-0.dtd"
   xmlns="http://www.w3.org/2000/svg"
   xmlns:svg="http://www.w3.org/2000/svg">
  <sodipodi:namedview
     id="namedview1"
     pagecolor="#ffffff"
     bordercolor="#000000"
     borderopacity="0.25"
     inkscape:showpageshadow="2"
     inkscape:pageopacity="0.0"
     inkscape:pagecheckerboard="0"
     inkscape:deskcolor="#d1d1d1" />
  <defs
     id="defs1">
    <style
       id="current-color-scheme"
       type="text/css">.ColorScheme-Text {color:#d8dee9} .ColorScheme-Highlight {color:#3b4252}</style>
  </defs>
  <path
     class="ColorScheme-Text"
     d="m 12,3.5 c 0.66,0 1.2,0.54 1.2,1.2 0,0.036 0,0.084 -0.012,0.12 C 15.936,5.372 18,7.784 18,10.7 v 5.4 l 2.4,2.4 v 0.6 H 3.6 V 18.5 L 6,16.1 V 10.7 C 6,7.784 8.064,5.372 10.812,4.82 10.8,4.784 10.8,4.736 10.8,4.7 10.8,4.04 11.34,3.5 12,3.5 Z m 2.076,16.8 c -0.432,0.744 -1.224,1.2 -2.076,1.2 -0.852,0 -1.644,-0.456 -2.076,-1.2 z"
     style="fill:currentColor;stroke-width:1.2"
     id="path1" />
</svg>
