<?xml version="1.0" encoding="UTF-8" standalone="no"?>
<svg
   width="24"
   height="24"
   version="1.1"
   id="svg2"
   sodipodi:docname="numlock-off.svg"
   xmlns:inkscape="http://www.inkscape.org/namespaces/inkscape"
   xmlns:sodipodi="http://sodipodi.sourceforge.net/DTD/sodipodi-0.dtd"
   xmlns="http://www.w3.org/2000/svg"
   xmlns:svg="http://www.w3.org/2000/svg">
  <sodipodi:namedview
     id="namedview2"
     pagecolor="#ffffff"
     bordercolor="#000000"
     borderopacity="0.25"
     inkscape:showpageshadow="2"
     inkscape:pageopacity="0.0"
     inkscape:pagecheckerboard="0"
     inkscape:deskcolor="#d1d1d1" />
  <defs
     id="defs1">
    <style
       id="current-color-scheme"
       type="text/css">.ColorScheme-Text {color:#d8dee9} .ColorScheme-Highlight {color:#3b4252}</style>
  </defs>
  <g
     opacity=".35"
     transform="matrix(.99995 0 0 1 .00071135 -1028.4)"
     style=""
     id="g2">
    <path
       fill-rule="evenodd"
       style="fill:currentColor;stroke-width:1.2"
       class="ColorScheme-Text"
       d="m 6.00003,1030.8 a 2.40024,2.40024 0 0 0 -2.38596,2.1352 l -1.2,10.7996 a 2.40024,2.40024 0 0 0 2.38596,2.6652 h 14.4 a 2.40024,2.40024 0 0 0 2.3856,-2.6652 l -1.2,-10.7996 a 2.40024,2.40024 0 0 0 -2.3856,-2.1352 z m 7.2,2.4 v 2.4 6 h 2.4 v 2.4 h -7.2 v -2.4 h 2.4 v -5.4 l -2.4,0.6 v -2.4 z"
       id="path1" />
    <path
       style="fill:currentColor;stroke-width:1.2"
       class="ColorScheme-Text"
       d="m 2.40003,1046.6436 v 0.6564 c 0,1.4544 1.24572,2.7 2.7,2.7 h 13.8 c 1.4544,0 2.7,-1.2456 2.7,-2.7 v -0.6564 c -0.6384,0.582 -1.47,0.9564 -2.4,0.9564 h -14.4 c -0.92952,0 -1.76208,-0.3744 -2.4,-0.9564 z"
       id="path2" />
  </g>
</svg>
