<?xml version="1.0" encoding="UTF-8" standalone="no"?>
<svg
   width="24"
   height="24"
   version="1.1"
   id="svg2"
   sodipodi:docname="nutstore-synchronizing-panel.svg"
   xmlns:inkscape="http://www.inkscape.org/namespaces/inkscape"
   xmlns:sodipodi="http://sodipodi.sourceforge.net/DTD/sodipodi-0.dtd"
   xmlns="http://www.w3.org/2000/svg"
   xmlns:svg="http://www.w3.org/2000/svg">
  <sodipodi:namedview
     id="namedview2"
     pagecolor="#ffffff"
     bordercolor="#000000"
     borderopacity="0.25"
     inkscape:showpageshadow="2"
     inkscape:pageopacity="0.0"
     inkscape:pagecheckerboard="0"
     inkscape:deskcolor="#d1d1d1" />
  <defs
     id="defs1">
    <style
       id="current-color-scheme"
       type="text/css">.ColorScheme-Text {color:#d8dee9} .ColorScheme-Highlight {color:#3b4252}</style>
  </defs>
  <path
     style="fill:currentColor;stroke-width:1.2"
     class="ColorScheme-Text"
     d="m 11.100882,3.4005013 c -0.7248,-0.00284 -1.4287534,0.093442 -2.0859374,0.2882813 -0.9991068,0.3949229 -1.8196538,0.7587685 -0.8859375,1.2515624 1.7705263,0.9250236 3.4383509,2.1867329 4.8820319,3.7851563 1.121746,1.2419819 2.031609,2.6052057 2.749218,4.0242187 a 6,6 0 0 1 3.239062,-0.949219 6,6 0 0 1 1.11797,0.107808 C 19.902874,10.023332 19.132931,8.0218726 17.672757,6.4051888 15.862987,4.4014373 13.383222,3.4094563 11.100882,3.4005013 Z m 8.8875,0.00703 c -0.245033,-0.022631 -0.512877,0.016403 -0.789843,0.084374 -0.597494,0.1696726 -1.174043,0.6088596 -1.734376,1.0757812 0.382416,0.3169742 0.754805,0.6522641 1.099219,1.0335938 0.133083,0.1473483 0.251843,0.3022815 0.375,0.4546875 0.143395,-0.068422 0.29901,-0.131075 0.485157,-0.1734375 0.429994,-0.097858 1.160947,0.1800225 1.5,0.3023437 0.451138,0.00773 0.539216,-0.6714669 0.43828,-1.1507812 C 21.243739,4.473409 20.875465,4.074973 20.644632,3.6981576 20.456073,3.5153011 20.233415,3.4301621 19.988382,3.4075333 Z M 7.2993196,5.8286263 C 7.2467836,5.8671055 7.1948788,5.8988863 7.1422884,5.9387827 3.1696692,8.9528582 0.94564003,15.6146 2.9493196,17.973938 4.8888399,20.25773 9.5432534,20.790902 13.257132,19.525501 a 6,6 0 0 1 -0.257813,-1.725 6,6 0 0 1 1.8,-4.284374 C 14.111188,12.107213 13.225285,10.752706 12.120413,9.5294076 10.774698,8.0394522 9.2218968,6.8656031 7.5735384,6.0044076 h -0.00234 l -0.00234,-0.00234 C 7.4800629,5.9552039 7.3903864,5.8842959 7.2993196,5.8286263 Z"
     id="path1" />
  <path
     style="fill:currentColor;stroke-width:1.2"
     class="ColorScheme-Text"
     d="m 19.334476,13.01222 c -0.922131,-0.06517 -1.874363,0.13586 -2.735157,0.632812 -2.295571,1.325208 -3.080713,4.26017 -1.755469,6.555469 1.325245,2.295179 4.260018,3.080677 6.555469,1.755469 2.295572,-1.325206 3.080715,-4.257825 1.75547,-6.553125 C 22.32651,13.968358 20.871363,13.12084 19.334476,13.01222 Z m -0.335157,0.46875 0.6,0.6 0.6,0.6 -0.6,0.6 -0.6,0.6 v -0.480469 a 2.4,2.4 0 0 0 -2.4,2.4 v 2.676563 a 3.6,3.6 0 0 1 -1.2,-2.676563 3.6,3.6 0 0 1 3.6,-3.6 z m 2.4,1.642968 a 3.6,3.6 0 0 1 1.2,2.676563 3.6,3.6 0 0 1 -3.6,3.6 v 0.6 l -0.6,-0.6 -0.6,-0.6 0.6,-0.6 0.6,-0.6 v 0.6 a 2.4,2.4 0 0 0 2.4,-2.4 z"
     id="path2" />
</svg>
