<?xml version="1.0" encoding="UTF-8" standalone="no"?>
<svg
   width="24"
   height="24"
   version="1.1"
   id="svg1"
   sodipodi:docname="nutstore-panel.svg"
   xmlns:inkscape="http://www.inkscape.org/namespaces/inkscape"
   xmlns:sodipodi="http://sodipodi.sourceforge.net/DTD/sodipodi-0.dtd"
   xmlns="http://www.w3.org/2000/svg"
   xmlns:svg="http://www.w3.org/2000/svg">
  <sodipodi:namedview
     id="namedview1"
     pagecolor="#ffffff"
     bordercolor="#000000"
     borderopacity="0.25"
     inkscape:showpageshadow="2"
     inkscape:pageopacity="0.0"
     inkscape:pagecheckerboard="0"
     inkscape:deskcolor="#d1d1d1" />
  <defs
     id="defs1">
    <style
       id="current-color-scheme"
       type="text/css">.ColorScheme-Text {color:#d8dee9} .ColorScheme-Highlight {color:#3b4252}</style>
  </defs>
  <path
     style="fill:currentColor;stroke-width:1.2"
     class="ColorScheme-Text"
     d="m 11.301067,3.6005523 c -0.7248,-0.00284 -1.428835,0.093442 -2.0860181,0.2882812 -0.9991068,0.3949229 -1.8196884,0.7587686 -0.885972,1.2515625 1.7705261,0.9250236 3.4385381,2.1867329 4.8822191,3.7851561 2.296988,2.5431919 3.722208,5.5909559 4.375947,8.5968739 0.185051,1.039528 1.084456,0.118416 1.453182,-0.2625 C 21.057583,15.16355 20.957189,10.019797 17.873191,6.6052397 16.063422,4.6014882 13.583407,3.6095073 11.301067,3.6005523 Z m 8.887839,0.00703 c -0.245033,-0.022631 -0.512908,0.016403 -0.789874,0.084374 -0.597493,0.1696725 -1.174109,0.6088594 -1.734442,1.0757811 0.382416,0.3169741 0.754847,0.6522641 1.099262,1.0335939 0.133082,0.1473482 0.251857,0.3022814 0.375014,0.4546874 0.143395,-0.068422 0.299028,-0.1310749 0.485174,-0.1734374 0.429995,-0.097858 1.161005,0.1800224 1.500058,0.3023437 0.451139,0.00773 0.539233,-0.671467 0.438298,-1.1507813 C 21.444316,4.67346 21.076014,4.2750239 20.845181,3.8982085 20.656621,3.7153521 20.433938,3.6302137 20.188906,3.6075843 Z M 7.4993585,6.0286773 c -0.052536,0.038479 -0.104448,0.07026 -0.157038,0.1101564 -3.9726192,3.0140764 -6.1968084,9.6758173 -4.1931288,12.0351553 2.3328744,2.746967 8.5999163,2.97052 12.4246953,0.564844 0.329796,-0.207431 0.631165,-0.434372 0.918783,-0.672656 -0.03869,-0.114816 -0.06792,-0.229542 -0.08672,-0.335156 l 0.0094,0.04453 C 15.802783,14.95908 14.463533,12.102038 12.320638,9.7294582 10.974923,8.2395031 9.4219457,7.065654 7.7735873,6.2044585 h -0.0024 l -0.00228,-0.00234 C 7.6801193,6.1552585 7.5904325,6.0843505 7.4993657,6.028681 Z"
     id="path1" />
</svg>
