<?xml version="1.0" encoding="UTF-8" standalone="no"?>
<svg
   width="24"
   height="24"
   version="1.1"
   id="svg2"
   sodipodi:docname="nutstore-paused-panel.svg"
   xmlns:inkscape="http://www.inkscape.org/namespaces/inkscape"
   xmlns:sodipodi="http://sodipodi.sourceforge.net/DTD/sodipodi-0.dtd"
   xmlns="http://www.w3.org/2000/svg"
   xmlns:svg="http://www.w3.org/2000/svg">
  <sodipodi:namedview
     id="namedview2"
     pagecolor="#ffffff"
     bordercolor="#000000"
     borderopacity="0.25"
     inkscape:showpageshadow="2"
     inkscape:pageopacity="0.0"
     inkscape:pagecheckerboard="0"
     inkscape:deskcolor="#d1d1d1" />
  <defs
     id="defs1">
    <style
       id="current-color-scheme"
       type="text/css">.ColorScheme-Text {color:#d8dee9} .ColorScheme-Highlight {color:#3b4252}</style>
  </defs>
  <path
     style="opacity:0.35;fill:currentColor;stroke-width:1.2"
     class="ColorScheme-Text"
     d="M 11.100846,3.4000057 C 10.376046,3.3971617 9.672092,3.4934473 9.014908,3.688287 8.0158012,4.0832099 7.1952542,4.4470555 8.1289705,4.9398494 9.8994968,5.864873 11.567322,7.1265823 13.011002,8.7250057 c 1.121747,1.2419814 2.03161,2.6052053 2.749218,4.0242183 a 6,6 0 0 1 3.239063,-0.949219 6,6 0 0 1 1.117969,0.107808 C 19.902837,10.022836 19.132894,8.0213769 17.67272,6.4046931 15.862951,4.4009417 13.383186,3.4089607 11.100846,3.4000057 Z m 8.8875,0.00703 c -0.245033,-0.022631 -0.512878,0.016403 -0.789844,0.084374 -0.597493,0.1696726 -1.174043,0.6088596 -1.734376,1.0757812 0.382416,0.3169742 0.754805,0.652264 1.09922,1.0335938 0.133082,0.1473482 0.251842,0.3022814 0.375,0.4546874 0.143395,-0.068422 0.29901,-0.1310749 0.485156,-0.1734374 0.429995,-0.097858 1.160947,0.1800224 1.5,0.3023437 0.451139,0.00773 0.539216,-0.6714669 0.438281,-1.1507813 C 21.243703,4.4729133 20.875429,4.0744773 20.644596,3.697662 20.456036,3.5148055 20.233378,3.4296665 19.988346,3.4070377 Z M 7.299283,5.8281307 C 7.246747,5.8666099 7.1948422,5.8983907 7.1422518,5.9382871 3.1696326,8.9523626 0.94560345,15.614105 2.949283,17.973443 c 1.9395203,2.283792 6.5939338,2.816964 10.307813,1.551563 a 6,6 0 0 1 -0.257813,-1.725001 6,6 0 0 1 1.8,-4.284374 C 14.111151,12.106717 13.225249,10.752209 12.120376,9.5289115 10.774662,8.0389566 9.2218602,6.8651075 7.5735018,6.003912 h -0.00234 l -0.00234,-0.00234 C 7.4800263,5.9547083 7.3903498,5.8838003 7.299283,5.8281307 Z"
     id="path1" />
  <path
     style="fill:currentColor;stroke-width:1.2"
     class="ColorScheme-Text"
     d="m 19.333525,13.011922 c -0.922131,-0.06517 -1.874041,0.135712 -2.734835,0.632664 -2.295571,1.325208 -3.080508,4.26097 -1.755264,6.556269 1.325245,2.295178 4.25925,3.080263 6.554701,1.755055 2.295571,-1.325207 3.082852,-4.258625 1.757607,-6.553925 -0.828279,-1.434487 -2.285322,-2.281444 -3.822209,-2.390063 z m -2.734835,2.390063 h 1.199858 v 4.79887 H 16.59869 Z m 3.599578,0 h 1.199859 v 4.79887 h -1.199859 z"
     id="path2" />
</svg>
