<?xml version="1.0" encoding="UTF-8" standalone="no"?>
<svg
   width="24"
   height="24"
   version="1.1"
   id="svg1"
   sodipodi:docname="obs-tray.svg"
   xmlns:inkscape="http://www.inkscape.org/namespaces/inkscape"
   xmlns:sodipodi="http://sodipodi.sourceforge.net/DTD/sodipodi-0.dtd"
   xmlns="http://www.w3.org/2000/svg"
   xmlns:svg="http://www.w3.org/2000/svg">
  <sodipodi:namedview
     id="namedview1"
     pagecolor="#ffffff"
     bordercolor="#000000"
     borderopacity="0.25"
     inkscape:showpageshadow="2"
     inkscape:pageopacity="0.0"
     inkscape:pagecheckerboard="0"
     inkscape:deskcolor="#d1d1d1" />
  <defs
     id="defs1">
    <style
       id="current-color-scheme"
       type="text/css">.ColorScheme-Text {color:#d8dee9} .ColorScheme-Highlight {color:#3b4252}</style>
  </defs>
  <path
     style="fill:currentColor;stroke-width:1.2"
     class="ColorScheme-Text"
     d="M 12,2.4 A 9.6,9.6 0 0 0 2.4,12 9.6,9.6 0 0 0 12,21.6 9.6,9.6 0 0 0 21.6,12 9.6,9.6 0 0 0 12,2.4 Z m 0,2.4 a 7.2,7.2 0 0 1 7.1508,6.4356 c -0.1992,-0.3168 -0.4272,-0.6204 -0.7104,-0.9 C 17.652,9.555 16.6908,9.09132 15.5556,8.93904 15.3864,8.91636 15.2448,8.87496 15.0144,8.96016 14.7828,9.04464 14.67,9.22896 14.6016,9.34452 14.5032,9.5112 13.9416,10.086 13.626,10.2864 c -0.8916,0.57 -2.418,0.5712 -3.3132,0 C 9.25332,9.612 8.64768,8.28888 8.83824,7.1226 8.94612,6.4626 9.22908,5.88996 9.6936,5.3976 9.7908,5.29536 9.8616,5.21532 9.9216,5.1492 9.9348,5.13336 9.9468,5.11332 9.9588,5.1 A 7.2,7.2 0 0 1 12,4.8 Z M 7.51644,6.36564 C 7.23252,6.98892 7.04388,7.79052 7.04532,8.4492 c 0.00144,0.61512 0.15108,1.3428 0.38436,1.926 0.06168,0.1548 0.13584,0.3612 0.35856,0.4992 0.22272,0.1392 0.38352,0.132 0.60708,0.1572 0.19428,0.0228 0.59592,0.1128 0.7734,0.174 C 10.956,11.82 11.796,13.8672 10.9572,15.5808 10.3944,16.7304 9.03972,17.4924 7.8492,17.358 7.69512,17.34 7.58148,17.3316 7.4766,17.3316 7.42416,17.3328 7.38672,17.3244 7.275,17.358 7.2618,17.3616 7.24008,17.3724 7.2234,17.3784 A 7.2,7.2 0 0 1 4.8,12 7.2,7.2 0 0 1 7.51644,6.36564 Z m 0.5484,1.83048 0.0024,0.00228 C 8.19324,8.95572 8.49696,9.59784 9.00708,10.188 8.832,10.1484 8.66184,10.0932 8.50548,10.0752 8.33016,10.056 8.32164,10.0512 8.33676,10.0644 8.331,10.05 8.33328,10.0548 8.31792,10.02 8.14224,9.57948 8.00748,8.89416 8.00628,8.44452 8.00616,8.37804 8.05752,8.27604 8.06484,8.19612 Z M 15.3864,9.8748 c 0.012,0 -0.03,0.0084 0.0396,0.018 0.3924,0.0528 0.6312,0.3264 0.954,0.4572 -0.4056,-0.0612 -0.7728,-0.2952 -1.188,-0.2244 -0.0828,0.012 -0.1068,0.1104 -0.1872,0.1284 0.1224,-0.1368 0.2952,-0.24 0.3816,-0.3792 z m 0.4992,1.1568 c 1.2468,0.03 2.4756,0.8628 2.9256,2.0604 0.036,0.096 0.0612,0.168 0.084,0.2256 0.012,0.0288 0.024,0.0528 0.0372,0.0816 0.0084,0.0156 0.0132,0.0288 0.0264,0.0516 0.006,0.012 0.0156,0.0264 0.0276,0.0444 0.0084,0.012 0.0252,0.0276 0.042,0.0468 A 7.2,7.2 0 0 1 12,19.2 7.2,7.2 0 0 1 8.9742,18.5232 c 0.43704,0 0.8706,-0.0312 1.2306,-0.1416 l 0.0372,-0.0108 0.0264,-0.0144 0.006,-0.0048 c 0.972,-0.318 1.9932,-1.0308 2.5572,-1.824 l 0.3024,-0.4188 -0.2784,-0.8364 c -0.6468,-1.9572 0.4932,-3.864 2.4984,-4.2024 0.1764,-0.03 0.3528,-0.042 0.5316,-0.0384 z m -2.388,0.2436 c -0.6948,0.5652 -1.248,1.2672 -1.53,2.0604 C 11.7,12.57 11.1948,11.8644 10.542,11.3016 c 0.9684,0.3624 1.9992,0.3612 2.9556,-0.0264 z m -1.5348,4.35 0.1056,0.324 -0.0192,0.0252 c -0.1092,0.156 -0.408,0.252 -0.5952,0.4176 0.1008,-0.1512 0.2844,-0.222 0.366,-0.3864 0.0612,-0.126 0.0972,-0.2532 0.1428,-0.3804 z"
     id="path1" />
</svg>
