<?xml version="1.0" encoding="UTF-8" standalone="no"?>
<svg
   width="24"
   height="24"
   version="1.1"
   id="svg2"
   sodipodi:docname="obs-tray-active.svg"
   xmlns:inkscape="http://www.inkscape.org/namespaces/inkscape"
   xmlns:sodipodi="http://sodipodi.sourceforge.net/DTD/sodipodi-0.dtd"
   xmlns="http://www.w3.org/2000/svg"
   xmlns:svg="http://www.w3.org/2000/svg">
  <sodipodi:namedview
     id="namedview2"
     pagecolor="#ffffff"
     bordercolor="#000000"
     borderopacity="0.25"
     inkscape:showpageshadow="2"
     inkscape:pageopacity="0.0"
     inkscape:pagecheckerboard="0"
     inkscape:deskcolor="#d1d1d1" />
  <defs
     id="defs1">
    <style
       id="current-color-scheme"
       type="text/css">.ColorScheme-Text {color:#d8dee9} .ColorScheme-Highlight {color:#3b4252}</style>
  </defs>
  <path
     style="fill:currentColor;stroke-width:1.2"
     class="ColorScheme-Text"
     d="m 11.9,2.3 a 9.6,9.6 0 0 0 -9.6,9.6 9.6,9.6 0 0 0 6,8.8944 V 17.2532 C 8.11496,17.2724 7.93004,17.2784 7.7492,17.258 7.59512,17.24 7.48148,17.2316 7.3766,17.2316 7.32416,17.2328 7.28672,17.2244 7.175,17.258 7.1618,17.2616 7.14008,17.2724 7.1234,17.2784 A 7.2,7.2 0 0 1 4.7,11.9 7.2,7.2 0 0 1 7.41644,6.26564 C 7.13252,6.88892 6.94388,7.69052 6.94532,8.3492 c 0.00144,0.61512 0.15108,1.3428 0.38436,1.926 0.06168,0.1548 0.13584,0.3612 0.35856,0.4992 0.22272,0.1404 0.38352,0.132 0.60708,0.1572 0.19428,0.0228 0.59592,0.1128 0.7734,0.174 1.78728,0.6144 2.62728,2.6616 1.78848,4.3752 -0.0036,0.0072 -0.0084,0.0132 -0.012,0.0192 h 2.0208 l -0.1104,-0.3276 c -0.6468,-1.9572 0.4932,-3.864 2.4984,-4.2024 0.1764,-0.03 0.3528,-0.042 0.5316,-0.0384 1.2468,0.03 2.4756,0.8628 2.9256,2.0604 0.036,0.096 0.0612,0.168 0.084,0.2256 0.012,0.0288 0.024,0.0528 0.0372,0.0816 0.0084,0.0156 0.0132,0.0288 0.0264,0.0516 0.006,0.012 0.0156,0.0264 0.0276,0.0444 0.0084,0.012 0.0252,0.0276 0.042,0.0468 A 7.2,7.2 0 0 1 18.1268,15.5 h 2.6676 A 9.6,9.6 0 0 0 21.5,11.9 9.6,9.6 0 0 0 11.9,2.3 Z m 0,2.4 a 7.2,7.2 0 0 1 7.1508,6.4356 c -0.1992,-0.3168 -0.4272,-0.6204 -0.7104,-0.9 C 17.552,9.45536 16.5908,8.99132 15.4556,8.83904 15.2864,8.81636 15.1448,8.77496 14.9144,8.86016 14.6828,8.94464 14.57,9.12896 14.5016,9.24452 14.4032,9.4112 13.8416,9.986 13.526,10.1864 c -0.8916,0.57 -2.418,0.5712 -3.3132,0 C 9.15308,9.512 8.54768,8.18888 8.73824,7.0226 8.84612,6.3626 9.1292,5.78996 9.5936,5.2976 9.6908,5.19536 9.7616,5.11532 9.8216,5.0492 9.8348,5.03336 9.8468,5.01332 9.8588,5 A 7.2,7.2 0 0 1 11.9,4.7 Z M 7.96484,8.09612 7.96724,8.0984 C 8.09324,8.85572 8.39696,9.49808 8.90708,10.088 8.732,10.0484 8.56184,9.9932 8.40548,9.9752 8.23016,9.956 8.22164,9.9512 8.23676,9.9644 8.231,9.95 8.23328,9.9548 8.21792,9.92 8.04224,9.479 7.90748,8.79416 7.90628,8.34452 7.90616,8.27804 7.95752,8.17604 7.96484,8.09612 Z M 15.2864,9.7748 c 0.012,0 -0.03,0.0084 0.0396,0.018 0.3924,0.0528 0.6312,0.3264 0.954,0.4572 -0.4056,-0.0612 -0.7728,-0.2952 -1.188,-0.2244 -0.0828,0.0108 -0.1068,0.1104 -0.1872,0.1284 0.1224,-0.1368 0.2952,-0.24 0.3816,-0.3792 z m -1.8888,1.4004 c -0.6948,0.5652 -1.248,1.2672 -1.53,2.0604 C 11.6,12.47 11.0948,11.7644 10.442,11.2016 c 0.9684,0.3624 1.9992,0.3612 2.9556,-0.0264 z"
     id="path1" />
  <path
     style="fill:currentColor;stroke-width:1.2"
     class="ColorScheme-Text"
     d="m 9.5,16.7 v 6 h 1.2 V 21.1484 L 12.2516,22.7 H 13.1 V 21.8516 L 11.5484,20.3 H 13.1 v -3.6 z m 4.8,0 v 6 h 3.6 v -1.2 h -2.4 v -1.2 h 2.4 v -1.2 h -2.4 v -1.2 h 2.4 v -1.2 z m 4.8,0 v 6 h 3.6 v -1.2 h -2.4 v -3.6 h 2.4 v -1.2 z m -8.4,1.2 h 1.2 v 1.2 h -1.2 z"
     id="path2" />
</svg>
