<?xml version="1.0" encoding="UTF-8" standalone="no"?>
<svg
   width="24"
   height="24"
   version="1"
   id="svg1"
   sodipodi:docname="octopi-error.svg"
   xmlns:inkscape="http://www.inkscape.org/namespaces/inkscape"
   xmlns:sodipodi="http://sodipodi.sourceforge.net/DTD/sodipodi-0.dtd"
   xmlns="http://www.w3.org/2000/svg"
   xmlns:svg="http://www.w3.org/2000/svg">
  <sodipodi:namedview
     id="namedview1"
     pagecolor="#ffffff"
     bordercolor="#000000"
     borderopacity="0.25"
     inkscape:showpageshadow="2"
     inkscape:pageopacity="0.0"
     inkscape:pagecheckerboard="0"
     inkscape:deskcolor="#d1d1d1" />
  <defs
     id="defs1">
    <style
       id="current-color-scheme"
       type="text/css">.ColorScheme-Text {color:#d8dee9} .ColorScheme-Highlight {color:#3b4252}</style>
  </defs>
  <path
     style="fill:currentColor;stroke-width:1.2"
     class="ColorScheme-Text"
     d="m 4.7999997,9.60002 h 3.7e-6 v 8.4 c 0,2.4 3.7e-6,3.59952 1.8,3.59976 1.8,2.47e-4 1.8,-1.199748 1.8,-3.59976 -3.6e-6,2.4 -3.6e-6,3.6 1.7999996,3.59976 1.8,-2.47e-4 1.8,-1.199748 1.8,-3.59976 -3e-6,2.4 3e-6,3.59952 1.8,3.59976 1.8,2.47e-4 1.8,-1.199748 1.8,-3.59976 -3e-6,2.4 3e-6,3.59952 1.8,3.59976 1.8,2.47e-4 1.8,-1.199748 1.8,-3.59976 v -8.4 h -0.0024 c 0.0024,-3.59976 -1.1976,-7.19976 -7.1976,-7.2 -5.9999996,-2.4e-4 -7.1999996,3.60024 -7.1999996,7.2 z m 4.2,-1.2 c 0.9972,0 1.8000003,0.8028 1.8000003,1.8 0,0.9972 -0.8028003,1.8 -1.8000003,1.8 -0.9972,0 -1.8,-0.8028 -1.8,-1.8 0,-0.9972 0.8028,-1.8 1.8,-1.8 z m 7.2000003,0 c 0.9972,0 1.8,0.8028 1.8,1.8 0,0.9972 -0.8028,1.8 -1.8,1.8 -0.9972,0 -1.8,-0.8028 -1.8,-1.8 0,-0.9972 0.8028,-1.8 1.8,-1.8 z"
     id="path1" />
</svg>
