<?xml version="1.0" encoding="UTF-8" standalone="no"?>
<svg
   width="24"
   height="24"
   version="1.1"
   id="svg1"
   sodipodi:docname="onboard-panel.svg"
   xmlns:inkscape="http://www.inkscape.org/namespaces/inkscape"
   xmlns:sodipodi="http://sodipodi.sourceforge.net/DTD/sodipodi-0.dtd"
   xmlns="http://www.w3.org/2000/svg"
   xmlns:svg="http://www.w3.org/2000/svg">
  <sodipodi:namedview
     id="namedview1"
     pagecolor="#ffffff"
     bordercolor="#000000"
     borderopacity="0.25"
     inkscape:showpageshadow="2"
     inkscape:pageopacity="0.0"
     inkscape:pagecheckerboard="0"
     inkscape:deskcolor="#d1d1d1" />
  <defs
     id="defs1">
    <style
       id="current-color-scheme"
       type="text/css">.ColorScheme-Text {color:#d8dee9} .ColorScheme-Highlight {color:#3b4252}</style>
  </defs>
  <path
     style="fill:currentColor;stroke-width:1.2"
     class="ColorScheme-Text"
     d="M 5.1421872,2.3999999 C 3.622644,2.3999999 2.4,3.6226439 2.4,5.1421919 V 18.857808 C 2.4,20.377356 3.6226452,21.6 5.1421872,21.6 H 18.857813 C 20.377355,21.6 21.6,20.377356 21.6,18.857808 V 5.1421919 c 0,-1.519548 -1.222645,-2.742192 -2.742187,-2.742192 z m 2.6601564,2.4 c 0.9375912,0 1.669584,0.267192 2.2007824,0.799224 0.531438,0.5319 0.796874,1.263444 0.796874,2.200776 0,0.9348362 -0.265436,1.6688762 -0.796874,2.2007761 C 9.4719276,10.532448 8.7399348,10.8 7.8023436,10.8 6.8672772,10.8 6.1308384,10.532448 5.5968756,10.000776 5.0655576,9.4688761 4.8,8.7348361 4.8,7.7999999 c 0,-0.937332 0.2655576,-1.668876 0.7968756,-2.200776 0.5339628,-0.532032 1.2704016,-0.799224 2.205468,-0.799224 z m 0,1.080468 c -0.4584552,0 -0.8137932,0.168216 -1.0664064,0.503904 -0.2527332,0.335688 -0.3820308,0.806232 -0.3820308,1.415628 0,0.6068882 0.1292976,1.0799402 0.3820308,1.4156282 0.2526132,0.335688 0.6079512,0.5039039 1.0664064,0.5039039 0.46098,0 0.8161368,-0.1682159 1.06875,-0.5039039 0.2526132,-0.335688 0.3796872,-0.80874 0.3796872,-1.4156282 0,-0.609396 -0.127074,-1.07994 -0.3796872,-1.415628 -0.2526132,-0.335688 -0.60777,-0.503904 -1.06875,-0.503904 z M 14.4,13.2 h 2.257031 c 0.809987,0 1.396083,0.125052 1.757813,0.37734 0.365335,0.252288 0.546093,0.654096 0.546093,1.209384 0,0.291864 -0.06582,0.543468 -0.199218,0.75 -0.132193,0.204048 -0.326537,0.3534 -0.578906,0.45234 0.323274,0.09648 0.575685,0.274668 0.752343,0.534372 0.176661,0.259716 0.264844,0.579048 0.264844,0.956256 0,0.578772 -0.189775,1.012884 -0.569531,1.296084 C 18.250712,19.060224 17.671229,19.2 16.896094,19.2 H 14.4 Z m 1.504687,1.05234 v 1.27032 h 0.829687 c 0.236751,0 0.416483,-0.05412 0.539063,-0.161724 0.122572,-0.10632 0.185157,-0.264432 0.185157,-0.473436 0,-0.206532 -0.06258,-0.36474 -0.185157,-0.471096 -0.12258,-0.11004 -0.302313,-0.164064 -0.539063,-0.164064 z m -0.0024,2.325 v 1.57032 h 0.88125 c 0.301642,0 0.531809,-0.06576 0.682032,-0.196884 0.153823,-0.131088 0.229687,-0.330648 0.229687,-0.595308 0,-0.259704 -0.07357,-0.454968 -0.225,-0.583596 -0.15142,-0.131088 -0.382674,-0.194532 -0.686719,-0.194532 z"
     id="path1" />
</svg>
