<?xml version="1.0" encoding="UTF-8" standalone="no"?>
<svg
   width="24"
   height="24"
   version="1.1"
   id="svg2"
   sodipodi:docname="openbazaar-system-tray.svg"
   xmlns:inkscape="http://www.inkscape.org/namespaces/inkscape"
   xmlns:sodipodi="http://sodipodi.sourceforge.net/DTD/sodipodi-0.dtd"
   xmlns="http://www.w3.org/2000/svg"
   xmlns:svg="http://www.w3.org/2000/svg">
  <sodipodi:namedview
     id="namedview2"
     pagecolor="#ffffff"
     bordercolor="#000000"
     borderopacity="0.25"
     inkscape:showpageshadow="2"
     inkscape:pageopacity="0.0"
     inkscape:pagecheckerboard="0"
     inkscape:deskcolor="#d1d1d1" />
  <defs
     id="defs1">
    <style
       id="current-color-scheme"
       type="text/css">.ColorScheme-Text {color:#d8dee9} .ColorScheme-Highlight {color:#3b4252}</style>
  </defs>
  <g
     transform="translate(4,4)"
     style=""
     id="g2">
    <path
       style="opacity:0.35;fill:currentColor;stroke-width:1.2"
       class="ColorScheme-Text"
       d="m 7.4959477,10.5 -2.028,4.8 H 10.543948 L 8.5159477,10.5 Z"
       id="path1" />
    <path
       style="fill:currentColor;stroke-width:1.2"
       class="ColorScheme-Text"
       d="m 0.20378767,6.9 c -0.45228,7.2e-4 -0.678396,0.35688 -0.58128,0.74532 l 0.3,1.2 c 0.06672,0.26688 0.30624,0.45432 0.58128,0.45468 H 15.501148 c 0.2748,-6e-4 0.5136,-0.18804 0.5808,-0.45468 l 0.3,-1.2 C 16.476748,7.26708 16.191148,6.90096 15.801148,6.9 Z M 7.9999477,-1.5 c -0.78,1.524 -1.764,3.168 -3.372,5.028 -0.72,0.816 -1.428,1.536 -2.112,2.172 H 13.435948 c -0.648,-0.6 -1.308,-1.272 -1.992,-2.04 C 9.7759477,1.764 8.7559477,0.036 7.9999477,-1.5 Z m 1.86,0.936 c 0.6480003,1.08 1.4400003,2.244 2.4840003,3.432 1.02,1.152 2.004,2.076 2.928,2.832 h 0.528 l -1.728,-4.8 c -1.272,0.024 -2.736,-0.564 -3.684,-1.104 -0.192,-0.108 -0.36,-0.24 -0.5280003,-0.36 z m -3.78,0.084 c -1.188,0.732 -2.832,1.404 -4.152,1.38 0,0 -1.09200003,3.06 -1.71600003,4.8 h 0.492 C 1.6519477,4.908 2.6719477,3.936 3.7159477,2.736 c 0.96,-1.104 1.728,-2.196 2.364,-3.216 z m -5.064,10.98 c 0.288,2.172 0.552,6 2.028,6 h 1.908 l -1.74,-3.012 c -0.024,-0.048 -0.012,-0.108 0.024,-0.144 l 3.372,-2.856 z m 8.376,-0.012 3.3720003,2.856 c 0.036,0.036 0.048,0.096 0.024,0.144 l -1.74,3.012 h 1.896 c 1.464,0 1.74,-3.828 2.04,-6 z"
       id="path2" />
  </g>
</svg>
