<?xml version="1.0" encoding="UTF-8" standalone="no"?>
<svg
   width="24"
   height="24"
   version="1.1"
   id="svg1"
   sodipodi:docname="opensnitch-tray-pause.svg"
   xmlns:inkscape="http://www.inkscape.org/namespaces/inkscape"
   xmlns:sodipodi="http://sodipodi.sourceforge.net/DTD/sodipodi-0.dtd"
   xmlns="http://www.w3.org/2000/svg"
   xmlns:svg="http://www.w3.org/2000/svg">
  <sodipodi:namedview
     id="namedview1"
     pagecolor="#ffffff"
     bordercolor="#000000"
     borderopacity="0.25"
     inkscape:showpageshadow="2"
     inkscape:pageopacity="0.0"
     inkscape:pagecheckerboard="0"
     inkscape:deskcolor="#d1d1d1" />
  <defs
     id="defs1">
    <style
       id="current-color-scheme"
       type="text/css">.ColorScheme-Text {color:#d8dee9} .ColorScheme-Highlight {color:#3b4252}</style>
  </defs>
  <path
     style="fill:currentColor;stroke-width:1.2"
     class="ColorScheme-Text"
     d="m 14.784332,3.599744 c -0.113148,-0.00134 -0.22641,0.00133 -0.342187,0.00703 -1.042631,0.051858 -1.924315,0.4724564 -2.791406,1.0734367 -0.368786,0.2555589 -0.924329,0.8967819 -1.169531,1.21875 -0.123197,0.1620696 -0.122383,0.1625484 -0.311719,0.1125 C 10.062605,5.9836839 9.667837,5.9635503 9.2624578,5.9645871 8.6270711,5.9660151 8.4965217,5.9793471 8.1351141,6.0794307 6.0936645,6.6441166 4.6779028,8.3026684 4.5655828,10.44115 l -0.025781,0.4875 -0.1640624,0.04922 c -0.5809383,0.180371 -1.3037475,0.530569 -1.8140631,1.059369 -0.6086436,0.63065 -1.0200548,1.37983 -1.2515624,2.275781 -0.09798,0.379009 -0.1101563,0.502317 -0.1101563,1.188282 0,0.685983 0.012224,0.81156 0.1101564,1.190625 0.503616,1.948992 2.0282748,3.38044 3.9,3.663282 0.1374384,0.02083 3.0249293,0.03859 6.417187,0.04219 6.608928,0.0055 6.51201,0.0084 7.28672,-0.213282 0.73168,-0.209254 1.73328,-0.824254 2.30625,-1.417968 0.599689,-0.621354 1.178982,-1.650029 1.3875,-2.465626 0.511179,-1.999589 -0.0072,-4.004114 -1.40625,-5.442187 -0.247199,-0.254112 -0.60372,-0.567517 -0.792189,-0.696099 l -0.342187,-0.2320303 0.0211,-0.4945315 C 20.128593,8.4881564 19.953776,7.6187366 19.551521,6.7661502 18.992093,5.5804312 18.180969,4.7395458 17.036677,4.1599002 16.308894,3.7913817 15.576416,3.6091126 14.784332,3.599744 Z m -0.225,2.4046874 c 0.548142,-0.026984 0.895639,0.046224 1.392189,0.2976563 0.71787,0.3636399 1.06548,0.7163378 1.429687,1.4882813 0.248048,0.5257407 0.334531,0.9537726 0.309375,1.5445314 l -0.0211,0.4921867 c -0.03486,0.8284659 0.360363,1.6162479 1.045313,2.0835939 l 0.314063,0.215625 c -0.0121,0.0024 0.33823,0.288171 0.452344,0.405468 0.828307,0.851443 1.121186,1.923159 0.801562,3.173439 -0.06461,0.252711 -0.57374,1.17062 -0.789843,1.39453 -0.179136,0.185622 -1.146841,0.752195 -1.2375,0.778126 -0.410113,0.117324 -0.05677,0.07705 -0.867189,0.100776 -0.810414,0.02374 -2.453786,0.02146 -5.758593,0.01876 -1.692449,-0.0018 -3.2591059,-0.0064 -4.4156248,-0.01406 -0.5782596,-0.0038 -1.0548005,-0.0095 -1.3875,-0.01406 -0.1283622,-0.0018 -0.212889,-0.003 -0.2929689,-0.0047 -0.8616957,-0.146556 -1.6237173,-0.802764 -1.9007811,-1.875 -0.077472,-0.299914 -0.032811,0.07099 -0.032811,-0.588287 0,-0.659375 -0.044631,-0.288713 0.032813,-0.588282 0.1401219,-0.542282 0.3280873,-0.869432 0.6539061,-1.207031 v -0.0024 C 4.5030223,13.4794 5.0971357,13.147696 5.0882359,13.15046 l 0.1570313,-0.04921 c 0.9622749,-0.296495 1.637087,-1.042809 1.6898437,-2.048387 l 0.025781,-0.4875 C 7.0214276,9.412886 7.7062156,8.688338 8.7749578,8.3927127 v -0.00234 c 0.2718297,-0.075277 -0.1103052,-0.024425 0.4921875,-0.025781 0.1440118,-3.684e-4 0.2862488,0.00445 0.3937497,0.00937 0.194598,0.079834 0.647345,0.2258549 1.5,-0.079687 1.042333,-0.3735115 1.168576,-0.9757068 1.230469,-1.059375 -0.05488,0.07205 0.588598,-0.6750144 0.625781,-0.7007813 h 0.0024 c 0.549475,-0.3808811 0.892174,-0.497209 1.539787,-0.529689 z M 9.5999578,9.599744 v 7.199999 H 11.999958 V 9.599744 Z m 3.6000002,0 v 7.199999 h 2.4 V 9.599744 Z"
     id="path1" />
</svg>
