<?xml version="1.0" encoding="UTF-8" standalone="no"?>
<svg
   width="24"
   height="24"
   version="1.1"
   id="svg1"
   sodipodi:docname="opensnitch-tray-red.svg"
   xmlns:inkscape="http://www.inkscape.org/namespaces/inkscape"
   xmlns:sodipodi="http://sodipodi.sourceforge.net/DTD/sodipodi-0.dtd"
   xmlns="http://www.w3.org/2000/svg"
   xmlns:svg="http://www.w3.org/2000/svg">
  <sodipodi:namedview
     id="namedview1"
     pagecolor="#ffffff"
     bordercolor="#000000"
     borderopacity="0.25"
     inkscape:showpageshadow="2"
     inkscape:pageopacity="0.0"
     inkscape:pagecheckerboard="0"
     inkscape:deskcolor="#d1d1d1" />
  <defs
     id="defs1">
    <style
       id="current-color-scheme"
       type="text/css">.ColorScheme-Text {color:#d8dee9} .ColorScheme-Highlight {color:#3b4252}</style>
  </defs>
  <path
     style="fill:currentColor;stroke-width:1.2"
     class="ColorScheme-Text"
     d="m 14.784328,3.5000285 c -0.113148,-0.00134 -0.22641,0.00133 -0.342188,0.00703 -1.04263,0.051858 -1.924315,0.4724564 -2.791406,1.0734367 -0.368785,0.255559 -0.924329,0.896782 -1.169531,1.21875 -0.123197,0.1620696 -0.122383,0.1625484 -0.311719,0.1125 C 10.0626,5.8839684 9.6678324,5.8638348 9.2624532,5.8648716 8.6270665,5.8662996 8.4965171,5.8796316 8.1351095,5.9797152 6.0936599,6.5444011 4.6778982,8.2029529 4.5655782,10.341434 l -0.025781,0.4875 -0.1640624,0.04922 c -0.5809383,0.18037 -1.3037475,0.53057 -1.8140631,1.05937 -0.6086436,0.63065 -1.0200548,1.37983 -1.2515624,2.275781 -0.09798,0.379009 -0.1101563,0.502317 -0.1101563,1.188282 0,0.685983 0.012224,0.81156 0.1101564,1.190625 0.503616,1.948992 2.0282748,3.38044 3.9,3.663282 0.1059876,0.01607 2.0426806,0.02783 4.3898436,0.03516 v -2.4 c -0.8195469,-0.0024 -1.7610247,-0.0029 -2.3859373,-0.0071 -0.5782596,-0.0038 -1.0548005,-0.0095 -1.3875,-0.01406 -0.1283622,-0.0018 -0.212889,-0.003 -0.2929688,-0.0047 -0.8616958,-0.146556 -1.6237175,-0.802764 -1.9007812,-1.875 -0.077474,-0.29987 -0.032813,0.07104 -0.032813,-0.588243 0,-0.659375 -0.044631,-0.288713 0.032813,-0.588282 0.1401219,-0.542282 0.3280873,-0.869432 0.6539061,-1.207031 v -0.0024 c 0.216349,-0.224185 0.8104624,-0.555889 0.8015626,-0.553125 l 0.1570313,-0.04921 c 0.9622749,-0.296495 1.637087,-1.042809 1.6898437,-2.048387 l 0.025781,-0.4875 C 7.021423,9.3131705 7.706211,8.5886225 8.7749532,8.2929972 v -0.00234 C 9.0467829,8.21538 8.664648,8.2662324 9.2671407,8.2648764 c 0.144012,-3.684e-4 0.2862488,0.00445 0.3937497,0.00937 0.194598,0.079834 0.6473446,0.2258549 1.4999996,-0.079687 1.042334,-0.3735115 1.168576,-0.9757068 1.23047,-1.059375 -0.05488,0.07205 0.588597,-0.6750144 0.62578,-0.7007813 h 0.0024 c 0.549532,-0.3808796 0.89223,-0.4972075 1.539844,-0.5296875 0.548142,-0.026984 0.895639,0.046224 1.392188,0.2976562 0.71787,0.36364 1.06548,0.7163379 1.429688,1.4882813 0.248048,0.5257408 0.334531,0.9537724 0.309375,1.5445312 l -0.0211,0.4921872 c -0.03486,0.8284655 0.360363,1.6162475 1.045313,2.0835935 l 0.314063,0.215625 c -0.0121,0.0024 0.338229,0.288171 0.452343,0.405468 0.828308,0.851444 1.121187,1.923159 0.801563,3.173439 -0.06461,0.252711 -0.57374,1.17062 -0.789843,1.394531 -0.179136,0.185622 -1.146842,0.752194 -1.2375,0.778125 -0.410114,0.117324 -0.05677,0.07705 -0.867189,0.100776 -0.516215,0.01512 -1.582016,0.01813 -2.988281,0.01876 v 2.4 c 3.620612,-0.0023 3.880005,-0.03185 4.514063,-0.213282 0.731681,-0.209253 1.73328,-0.824253 2.30625,-1.417968 0.599689,-0.621354 1.178982,-1.650029 1.3875,-2.465625 0.51118,-1.999589 -0.0072,-4.004115 -1.40625,-5.442188 -0.247254,-0.254109 -0.603775,-0.567514 -0.792243,-0.696096 l -0.342188,-0.2320301 0.0211,-0.494532 C 20.128589,8.3884409 19.953772,7.5190211 19.551516,6.6664348 18.992088,5.4807157 18.180965,4.6398304 17.036672,4.0601848 16.308889,3.6916662 15.576413,3.5093971 14.784328,3.5000285 Z m -3.984375,7.1999995 v 4.8 l 0.3,2.4 h 1.8 l 0.3,-2.4 v -4.8 z m 0,8.4 v 2.4 h 2.4 v -2.4 z"
     id="path1" />
</svg>
