<?xml version="1.0" encoding="UTF-8" standalone="no"?>
<svg
   width="24"
   height="24"
   version="1"
   id="svg1"
   sodipodi:docname="optimus-tray-intel-symbolic.svg"
   xmlns:inkscape="http://www.inkscape.org/namespaces/inkscape"
   xmlns:sodipodi="http://sodipodi.sourceforge.net/DTD/sodipodi-0.dtd"
   xmlns="http://www.w3.org/2000/svg"
   xmlns:svg="http://www.w3.org/2000/svg">
  <sodipodi:namedview
     id="namedview1"
     pagecolor="#ffffff"
     bordercolor="#000000"
     borderopacity="0.25"
     inkscape:showpageshadow="2"
     inkscape:pageopacity="0.0"
     inkscape:pagecheckerboard="0"
     inkscape:deskcolor="#d1d1d1" />
  <defs
     id="defs1">
    <style
       id="current-color-scheme"
       type="text/css">.ColorScheme-Text {color:#d8dee9} .ColorScheme-Highlight {color:#3b4252}</style>
  </defs>
  <g
     transform="matrix(1,0,0,1,1,1)"
     style=""
     id="g1">
    <path
       style="fill:currentColor;stroke-width:1.2"
       class="ColorScheme-Text"
       d="M 2.6,1.4 C 1.2704,1.4 0.2,2.4704 0.2,3.8 v 14.4 c 0,1.3296 1.0704,2.4 2.4,2.4 h 16.8 c 1.3296,0 2.4,-1.0704 2.4,-2.4 V 3.8 C 21.8,2.4704 20.7296,1.4 19.4,1.4 Z M 1.4,6.2 H 2.6 V 7.4 H 1.4 Z M 9.8,7.4 H 11 v 1.2 h 1.2 V 9.8 H 11 v 2.4 c 0,0.3096 0.0636,1.2 0.3888,1.2 H 12.2 v 1.2 H 11 c -1.1172,0 -1.2,-1.404 -1.2,-2.1612 z m 9.6,0 h 1.2 v 7.2 c -1.032,-0.0984 -1.2,-0.4872 -1.2,-1.2 z m -18,1.2 h 1.2 v 6 C 1.56812,14.5016 1.4,13.5128 1.4,12.8 Z m 2.4,0 h 3 c 1.19712,-0.01392 1.8,1.04052 1.8,1.8 v 4.2 H 7.4 V 10.4 C 7.4,10.0832 6.9968,9.8 6.59612,9.8 H 5 v 4.8 H 3.8 Z m 12.1176,0 H 15.92 c 1.4472,0.00144 2.28,1.266 2.28,2.9268 V 12.2 h -3.426 c 0.0552,0.6732 0.468,1.1628 1.1832,1.1628 0.6036,0 0.9036,-0.1812 1.2516,-0.5532 l 0.8364,0.8688 c -0.5388,0.5724 -1.1004,0.9192 -2.0976,0.9192 -1.3008,0 -2.5452,-0.7668 -2.5452,-3.0048 0,-1.91136 1.0848,-2.9916 2.5152,-2.9928 z M 15.8,9.8 A 1.2,1.2 0 0 0 14.6,11 H 17 A 1.2,1.2 0 0 0 15.8,9.8 Z"
       id="path1" />
  </g>
</svg>
