<?xml version="1.0" encoding="UTF-8" standalone="no"?>
<svg
   width="24"
   height="24"
   version="1.1"
   id="svg2"
   sodipodi:docname="org.keepassxc.KeePassXC-monochrome-dark-locked.svg"
   xmlns:inkscape="http://www.inkscape.org/namespaces/inkscape"
   xmlns:sodipodi="http://sodipodi.sourceforge.net/DTD/sodipodi-0.dtd"
   xmlns="http://www.w3.org/2000/svg"
   xmlns:svg="http://www.w3.org/2000/svg">
  <sodipodi:namedview
     id="namedview2"
     pagecolor="#ffffff"
     bordercolor="#000000"
     borderopacity="0.25"
     inkscape:showpageshadow="2"
     inkscape:pageopacity="0.0"
     inkscape:pagecheckerboard="0"
     inkscape:deskcolor="#d1d1d1" />
  <defs
     id="defs1">
    <style
       id="current-color-scheme"
       type="text/css">.ColorScheme-Text {color:#d8dee9} .ColorScheme-Highlight {color:#3b4252}</style>
  </defs>
  <path
     style="fill:currentColor;stroke-width:1.2"
     class="ColorScheme-Text"
     d="m 11.7,2.3 a 6,6 0 0 0 -6,6 6,6 0 0 0 3.6,5.491406 V 20.3 l 2.4,2.4 1.2,-1.2 v -6 h 1.216406 c 0.0041,-0.33566 0.06734,-0.655501 0.157031,-0.965626 L 14.1,14.360937 v -0.564843 a 6,6 0 0 0 0.698437,-0.367968 c 0.361387,-0.510101 0.847314,-0.921334 1.415626,-1.188282 A 6,6 0 0 0 17.7,8.3 a 6,6 0 0 0 -6,-6 z m 0,1.2 A 2.4000002,2.4000002 0 0 1 14.1,5.9 2.4000002,2.4000002 0 0 1 11.7,8.3 2.4000002,2.4000002 0 0 1 9.3,5.9 2.4000002,2.4000002 0 0 1 11.7,3.5 Z m -1.2,10.8 h 1.2 v 4.8 h -1.2 z"
     id="path1" />
  <path
     style="fill:currentColor;stroke-width:1.2"
     class="ColorScheme-Text"
     d="m 17.7,13.1 c -1.3296,0 -2.4,1.09302 -2.4,2.43744 v 1.1625 h -1.2 v 4.8 h 7.2 v -4.8 h -1.2 v -1.1625 C 20.1,14.19356 19.0296,13.1 17.7,13.1 Z m 0,1.2 c 0.6648,0 1.2,0.53088 1.2,1.2 v 1.2 h -2.4 v -1.2 c 0,-0.66912 0.5352,-1.2 1.2,-1.2 z"
     id="path2" />
</svg>
