<?xml version="1.0" encoding="UTF-8" standalone="no"?>
<svg
   width="24"
   height="24"
   version="1.1"
   id="svg2"
   sodipodi:docname="org.kde.neochat.tray.svg"
   xmlns:inkscape="http://www.inkscape.org/namespaces/inkscape"
   xmlns:sodipodi="http://sodipodi.sourceforge.net/DTD/sodipodi-0.dtd"
   xmlns="http://www.w3.org/2000/svg"
   xmlns:svg="http://www.w3.org/2000/svg">
  <sodipodi:namedview
     id="namedview2"
     pagecolor="#ffffff"
     bordercolor="#000000"
     borderopacity="0.25"
     inkscape:showpageshadow="2"
     inkscape:pageopacity="0.0"
     inkscape:pagecheckerboard="0"
     inkscape:deskcolor="#d1d1d1" />
  <defs
     id="defs1">
    <style
       id="current-color-scheme"
       type="text/css">.ColorScheme-Text {color:#d8dee9} .ColorScheme-Highlight {color:#3b4252}</style>
  </defs>
  <path
     style="opacity:0.35;fill:currentColor;stroke-width:1.2"
     class="ColorScheme-Text"
     d="m 20.4,4.800399 v 9.850782 c 0,1.16112 -0.948798,2.149219 -2.132813,2.149219 H 11.060156 L 10.026563,17.798837 9.80625,18.0004 h 3.161719 c 0.357163,0 0.503743,-0.02748 0.738281,0.271875 l 1.089844,1.052343 2.341406,2.144532 C 17.521201,21.840589 18.000401,21.37693 18,20.634775 v -2.182031 c 0,-0.46666 0.466406,-0.452344 0.466406,-0.452344 h 2.200781 C 21.184254,18.0004 21.6,17.568207 21.6,17.051181 V 5.7332116 C 21.6,5.2161863 21.184254,4.800399 20.667187,4.800399 Z"
     id="path1" />
  <path
     style="fill:currentColor;stroke-width:1.2"
     class="ColorScheme-Text"
     d="M 3.3328126,2.4001907 C 2.815746,2.4001907 2.4,2.815978 2.4,3.3330031 V 14.650972 c 0,0.517026 0.415746,0.949219 0.9328126,0.949219 h 2.2007811 c 0,0 0.4664063,-0.01432 0.4664063,0.452344 v 2.182031 c -4.013e-4,0.742159 0.4788006,1.205815 0.8625,0.834375 l 2.3414063,-2.14453 1.0898437,-1.052345 c 0.234539,-0.299353 0.381118,-0.271875 0.738281,-0.271875 h 7.235156 c 0.517067,0 0.932813,-0.432193 0.932813,-0.949219 V 3.3330031 C 19.2,2.815978 18.784254,2.4001907 18.267187,2.4001907 Z m 1.4671874,2.4 h 12 v 8.4000003 h -5.767969 c -0.117024,0 -0.404459,-0.06943 -1.0546874,0.11016 C 9.4443779,13.457554 8.9268342,13.8425 8.596875,14.179882 l 0.030469,-0.03516 -0.6679687,0.644532 C 7.6311845,14.196629 7.2080849,13.676595 6.7875,13.479098 6.1660458,13.187277 5.6425232,13.193851 5.5148437,13.200191 H 4.8 Z m 1.2,1.2 v 1.2 h 9.6 v -1.2 z m 0,2.4000002 v 1.2000005 h 7.2 V 8.4001909 Z m 0,2.4000001 v 1.2 h 4.8 v -1.2 z"
     id="path2" />
</svg>
