<?xml version="1.0" encoding="UTF-8" standalone="no"?>
<svg
   width="24"
   height="24"
   version="1.1"
   id="svg2"
   sodipodi:docname="org.sparkleshare.SparkleShare-syncing-down.svg"
   xmlns:inkscape="http://www.inkscape.org/namespaces/inkscape"
   xmlns:sodipodi="http://sodipodi.sourceforge.net/DTD/sodipodi-0.dtd"
   xmlns="http://www.w3.org/2000/svg"
   xmlns:svg="http://www.w3.org/2000/svg">
  <sodipodi:namedview
     id="namedview2"
     pagecolor="#ffffff"
     bordercolor="#000000"
     borderopacity="0.25"
     inkscape:showpageshadow="2"
     inkscape:pageopacity="0.0"
     inkscape:pagecheckerboard="0"
     inkscape:deskcolor="#d1d1d1" />
  <defs
     id="defs1">
    <style
       id="current-color-scheme"
       type="text/css">.ColorScheme-Text {color:#d8dee9} .ColorScheme-Highlight {color:#3b4252}</style>
  </defs>
  <path
     style="fill:currentColor;stroke-width:1.2"
     class="ColorScheme-Text"
     d="M 3.5710937,2.3 C 3.5710937,2.3 2.2,2.351228 2.2,3.7226563 V 18.928906 c 0,0 -3.347e-4,1.371094 1.3710937,1.371094 H 13.508594 A 6,6 0 0 1 13,17.9 6,6 0 0 1 13.021094,17.4875 L 11.8,16.692969 9.5289064,18.174219 C 8.5898679,18.789187 7.3500585,17.947437 7.6820313,16.920313 L 8.4859374,14.316406 6.278125,12.750781 C 5.3635618,12.103381 5.8373813,10.738586 6.9835937,10.71875 L 9.7515628,10.66719 10.660937,7.8570341 c 0.173663,-0.4690919 0.653815,-0.7771509 1.183594,-0.759375 0.497063,0.01771 0.93162,0.3192007 1.094532,0.759375 l 0.909374,2.8101559 2.770313,0.05156 c 0.803405,0.01534 1.260946,0.689566 1.155469,1.314844 A 6,6 0 0 1 19,11.9 6,6 0 0 1 21.4,12.403906 V 6.10625 C 21.4,4.7348214 20.028906,4.7351563 20.028906,4.7351563 H 13.171094 L 10.428906,2.3 Z M 11.785937,8.2742187 10.876563,11.084374 C 10.70514,11.546895 10.268169,11.857467 9.775,11.867187 l -2.6015626,0.04922 2.00625,1.422657 c 0.4274866,0.303267 0.6087346,0.848884 0.4476562,1.347656 l -0.7640623,2.482031 c 0.00552,-0.0029 0.00169,0.0049 0.00937,0 L 11.146094,15.6875 c 0.398197,-0.259406 0.911959,-0.259406 1.310156,0 l 0.792187,0.515626 a 6,6 0 0 1 0.717189,-1.558595 c -0.138011,-0.487139 0.03916,-1.010693 0.454687,-1.305468 l 2.00625,-1.422657 -2.599219,-0.04922 c -0.494032,-0.0088 -0.932172,-0.319506 -1.103907,-0.782812 L 11.816406,8.2742187 h -0.0024 c 0.0149,0.040512 0.0163,0.024454 -0.01176,0.021094 -0.02768,0.0027 -0.03151,0.019718 -0.0164,-0.021094 z"
     id="path1" />
  <path
     style="fill:currentColor;stroke-width:1.2"
     class="ColorScheme-Text"
     d="m 19,13.1 c -2.65092,0 -4.8,2.14908 -4.8,4.8 0,2.65092 2.14908,4.8 4.8,4.8 2.65092,0 4.8,-2.14908 4.8,-4.8 0,-2.65092 -2.14908,-4.8 -4.8,-4.8 z m -1.2,2.4 h 2.4 v 2.4 H 22 L 20.5,19.7 19,21.5 17.5,19.7 16,17.9 h 1.8 z"
     id="path2" />
</svg>
