<?xml version="1.0" encoding="UTF-8" standalone="no"?>
<svg
   width="24"
   height="24"
   version="1.1"
   id="svg1"
   sodipodi:docname="org.rnd2.cpupower_gui-panel.svg"
   xmlns:inkscape="http://www.inkscape.org/namespaces/inkscape"
   xmlns:sodipodi="http://sodipodi.sourceforge.net/DTD/sodipodi-0.dtd"
   xmlns="http://www.w3.org/2000/svg"
   xmlns:svg="http://www.w3.org/2000/svg">
  <sodipodi:namedview
     id="namedview1"
     pagecolor="#ffffff"
     bordercolor="#000000"
     borderopacity="0.25"
     inkscape:showpageshadow="2"
     inkscape:pageopacity="0.0"
     inkscape:pagecheckerboard="0"
     inkscape:deskcolor="#d1d1d1" />
  <defs
     id="defs1">
    <style
       id="current-color-scheme"
       type="text/css">.ColorScheme-Text {color:#d8dee9} .ColorScheme-Highlight {color:#3b4252}</style>
  </defs>
  <path
     style="fill:currentColor;stroke-width:1.2"
     class="ColorScheme-Text"
     d="M 7.2,2.4 V 4.8 H 5.7609374 C 5.2290974,4.8 4.8,5.2290974 4.8,5.7609374 V 7.2 H 2.4 v 2.4 h 2.4 v 1.2 H 2.4 v 2.4 h 2.4 v 1.2 H 2.4 v 2.4 h 2.4 v 1.439063 C 4.8,18.770903 5.2290974,19.2 5.7609374,19.2 H 7.2 v 2.4 h 2.4 v -2.4 h 1.2 v 2.4 h 2.4 v -2.4 h 1.2 v 2.4 h 2.4 v -2.4 h 1.439063 C 18.770903,19.2 19.2,18.770903 19.2,18.239063 V 16.8 h 2.4 v -2.4 h -2.4 v -1.2 h 2.4 V 10.8 H 19.2 V 9.6 h 2.4 V 7.2 H 19.2 V 5.7609374 C 19.2,5.2290974 18.770903,4.8 18.239063,4.8 H 16.8 V 2.4 H 14.4 V 4.8 H 13.2 V 2.4 H 10.8 V 4.8 H 9.6 V 2.4 Z m 6.871874,3.6 -1.24453,4.8 H 15 L 9.9281256,18 11.172656,13.2 H 9 Z"
     id="path1" />
</svg>
