<?xml version="1.0" encoding="UTF-8" standalone="no"?>
<svg
   width="24"
   height="24"
   version="1.1"
   id="svg2"
   sodipodi:docname="pcloud-pause.svg"
   xmlns:inkscape="http://www.inkscape.org/namespaces/inkscape"
   xmlns:sodipodi="http://sodipodi.sourceforge.net/DTD/sodipodi-0.dtd"
   xmlns="http://www.w3.org/2000/svg"
   xmlns:svg="http://www.w3.org/2000/svg">
  <sodipodi:namedview
     id="namedview2"
     pagecolor="#ffffff"
     bordercolor="#000000"
     borderopacity="0.25"
     inkscape:showpageshadow="2"
     inkscape:pageopacity="0.0"
     inkscape:pagecheckerboard="0"
     inkscape:deskcolor="#d1d1d1" />
  <defs
     id="defs1">
    <style
       id="current-color-scheme"
       type="text/css">.ColorScheme-Text {color:#d8dee9} .ColorScheme-Highlight {color:#3b4252}</style>
  </defs>
  <path
     style="opacity:0.35;fill:currentColor;stroke-width:1.2"
     class="ColorScheme-Text"
     d="m 12.59988,3.4002608 a 7.8,7.8 0 0 0 -7.2117185,4.8375 6,6 0 0 0 -5.38828124362,5.9625002 6,6 0 0 0 6.00000004362,6 h 7.7085937 a 6,6 0 0 1 -0.508594,-2.4 6,6 0 0 1 0.135937,-1.25625 5.4,5.4 0 0 1 -0.735937,0.05625 5.4,5.4 0 0 1 -5.3999997,-5.4 5.4,5.4 0 0 1 5.3999997,-5.4000002 5.4,5.4 0 0 1 5.4,5.4000002 5.4,5.4 0 0 1 -0.05859,0.740625 6,6 0 0 1 1.258593,-0.140625 6,6 0 0 1 2.988281,0.803906 3.6,3.6 0 0 0 0.611719,-2.003906 3.6,3.6 0 0 0 -3.6,-3.6000002 3.6,3.6 0 0 0 -0.02813,0 7.8,7.8 0 0 0 -6.571873,-3.6 z m 0,3.6 a 4.2,4.2 0 0 0 -4.1999997,4.2000002 4.2,4.2 0 0 0 4.1999997,4.2 4.2,4.2 0 0 0 1.188281,-0.173437 6,6 0 0 1 2.838282,-2.838282 4.2,4.2 0 0 0 0.173437,-1.188281 4.2,4.2 0 0 0 -4.2,-4.2000002 z m -1.8,1.2 h 1.2 1.8 a 1.8,1.8 0 0 1 1.8,1.8000002 1.8,1.8 0 0 1 -1.8,1.8 h -1.8 v 2.4 h -1.2 v -2.4 z m 1.2,1.1999999 v 1.2000003 h 1.8 a 0.6,0.6 0 0 0 0.6,-0.6 0.6,0.6 0 0 0 -0.6,-0.6000003 z"
     id="path1" />
  <path
     style="fill:currentColor;stroke-width:1.2"
     class="ColorScheme-Text"
     d="m 19.535037,13.009635 c -0.92224,-0.06518 -1.874262,0.135743 -2.735157,0.632813 -2.29584,1.32552 -3.080869,4.261973 -1.755469,6.557813 1.3254,2.29572 4.259749,3.080989 6.555469,1.755469 2.29584,-1.32552 3.083213,-4.259629 1.757813,-6.555469 -0.828376,-1.434826 -2.28559,-2.281981 -3.822656,-2.390626 z m -2.735157,2.390626 h 1.2 v 4.8 h -1.2 z m 3.6,0 h 1.2 v 4.8 h -1.2 z"
     id="path2" />
</svg>
