<?xml version="1.0" encoding="UTF-8" standalone="no"?>
<svg
   width="24"
   height="24"
   version="1.1"
   id="svg2"
   sodipodi:docname="pcloud-sync.svg"
   xmlns:inkscape="http://www.inkscape.org/namespaces/inkscape"
   xmlns:sodipodi="http://sodipodi.sourceforge.net/DTD/sodipodi-0.dtd"
   xmlns="http://www.w3.org/2000/svg"
   xmlns:svg="http://www.w3.org/2000/svg">
  <sodipodi:namedview
     id="namedview2"
     pagecolor="#ffffff"
     bordercolor="#000000"
     borderopacity="0.25"
     inkscape:showpageshadow="2"
     inkscape:pageopacity="0.0"
     inkscape:pagecheckerboard="0"
     inkscape:deskcolor="#d1d1d1" />
  <defs
     id="defs1">
    <style
       id="current-color-scheme"
       type="text/css">.ColorScheme-Text {color:#d8dee9} .ColorScheme-Highlight {color:#3b4252}</style>
  </defs>
  <path
     style="fill:currentColor;stroke-width:1.2"
     class="ColorScheme-Text"
     d="m 12.599872,3.4002608 a 7.8,7.8 0 0 0 -7.2117191,4.8375 6,6 0 0 0 -5.38828132473,5.9625002 6,6 0 0 0 6.00000002473,6 h 7.7085934 a 6,6 0 0 1 -0.508593,-2.4 6,6 0 0 1 0.135937,-1.25625 5.4,5.4 0 0 1 -0.735937,0.05625 5.4,5.4 0 0 1 -5.4000004,-5.4 5.4,5.4 0 0 1 5.4000004,-5.4000002 5.4,5.4 0 0 1 5.4,5.4000002 5.4,5.4 0 0 1 -0.05859,0.740625 6,6 0 0 1 1.258594,-0.140625 6,6 0 0 1 2.98828,0.803906 3.6,3.6 0 0 0 0.61172,-2.003906 3.6,3.6 0 0 0 -3.6,-3.6000002 3.6,3.6 0 0 0 -0.02813,0 7.8,7.8 0 0 0 -6.571874,-3.6 z m 0,3.6 a 4.2,4.2 0 0 0 -4.2000004,4.2000002 4.2,4.2 0 0 0 4.2000004,4.2 4.2,4.2 0 0 0 1.18828,-0.173437 6,6 0 0 1 2.838282,-2.838282 4.2,4.2 0 0 0 0.173438,-1.188281 4.2,4.2 0 0 0 -4.2,-4.2000002 z m -1.8,1.2 h 1.2 1.8 a 1.8,1.8 0 0 1 1.8,1.8000002 1.8,1.8 0 0 1 -1.8,1.8 h -1.8 v 2.4 h -1.2 v -2.4 z m 1.2,1.1999999 v 1.2000003 h 1.8 a 0.6,0.6 0 0 0 0.6,-0.6 0.6,0.6 0 0 0 -0.6,-0.6000003 z"
     id="path1" />
  <path
     style="fill:currentColor;stroke-width:1.2"
     class="ColorScheme-Text"
     d="m 23.357562,15.399178 c -1.3254,-2.29572 -4.2612,-3.08244 -6.55692,-1.75692 -2.29584,1.32552 -3.08232,4.26108 -1.75692,6.55692 1.3254,2.29572 4.2612,3.08244 6.55692,1.75692 2.29584,-1.32552 3.08232,-4.26108 1.75692,-6.55692 z m -1.039212,0.6 a 3.6,3.6 0 0 1 -1.31772,4.91772 l -0.599976,-1.03932 a 2.4,2.4 0 0 0 0.878496,-3.27852 l 1.039176,-0.59988 z m -4.91772,-1.31772 0.599976,1.03932 a 2.4,2.4 0 0 0 -0.878496,3.27852 l -1.039176,0.59988 a 3.6,3.6 0 0 1 1.31772,-4.91772 z"
     id="path2" />
</svg>
