<?xml version="1.0" encoding="UTF-8" standalone="no"?>
<svg
   width="24"
   height="24"
   version="1.1"
   id="svg1"
   sodipodi:docname="pcloud-warning.svg"
   xmlns:inkscape="http://www.inkscape.org/namespaces/inkscape"
   xmlns:sodipodi="http://sodipodi.sourceforge.net/DTD/sodipodi-0.dtd"
   xmlns="http://www.w3.org/2000/svg"
   xmlns:svg="http://www.w3.org/2000/svg">
  <sodipodi:namedview
     id="namedview1"
     pagecolor="#ffffff"
     bordercolor="#000000"
     borderopacity="0.25"
     inkscape:showpageshadow="2"
     inkscape:pageopacity="0.0"
     inkscape:pagecheckerboard="0"
     inkscape:deskcolor="#d1d1d1" />
  <defs
     id="defs1">
    <style
       id="current-color-scheme"
       type="text/css">.ColorScheme-Text {color:#d8dee9} .ColorScheme-Highlight {color:#3b4252}</style>
  </defs>
  <path
     style="fill:currentColor;stroke-width:1.2"
     class="ColorScheme-Text"
     d="M 12.6,3.6 A 7.8,7.8 0 0 0 5.3882808,8.4375001 6,6 0 0 0 0,14.4 a 6,6 0 0 0 6,6 h 14.1 c 2.15391,0 3.9,-1.74609 3.9,-3.9 0,-1.472374 -0.825326,-2.739365 -2.029687,-3.403126 A 3.6,3.6 0 0 0 22.8,10.8 3.6,3.6 0 0 0 19.2,7.2 3.6,3.6 0 0 0 19.17187,7.2 7.8,7.8 0 0 0 12.599996,3.6 Z m 0,2.4 A 5.4,5.4 0 0 1 18,11.4 5.4,5.4 0 0 1 12.6,16.8 5.4,5.4 0 0 1 7.2,11.4 5.4,5.4 0 0 1 12.6,6 Z m 0,1.1999999 A 4.2,4.2 0 0 0 8.4,11.4 4.2,4.2 0 0 0 12.6,15.6 4.2,4.2 0 0 0 16.8,11.4 4.2,4.2 0 0 0 12.6,7.1999999 Z M 10.8,8.4 h 1.2 1.8 a 1.8,1.8 0 0 1 1.8,1.8 1.8,1.8 0 0 1 -1.8,1.8 H 12 v 2.4 H 10.8 V 12 Z M 12,9.6 v 1.2 h 1.8 a 0.6,0.6 0 0 0 0.6,-0.6 0.6,0.6 0 0 0 -0.6,-0.6 z"
     id="path1" />
</svg>
