<?xml version="1.0" encoding="UTF-8" standalone="no"?>
<svg
   width="24"
   height="24"
   version="1.1"
   id="svg3"
   sodipodi:docname="phone-battery-medium.svg"
   xmlns:inkscape="http://www.inkscape.org/namespaces/inkscape"
   xmlns:sodipodi="http://sodipodi.sourceforge.net/DTD/sodipodi-0.dtd"
   xmlns="http://www.w3.org/2000/svg"
   xmlns:svg="http://www.w3.org/2000/svg">
  <sodipodi:namedview
     id="namedview3"
     pagecolor="#ffffff"
     bordercolor="#000000"
     borderopacity="0.25"
     inkscape:showpageshadow="2"
     inkscape:pageopacity="0.0"
     inkscape:pagecheckerboard="0"
     inkscape:deskcolor="#d1d1d1" />
  <defs
     id="defs1">
    <style
       id="current-color-scheme"
       type="text/css">.ColorScheme-Text {color:#d8dee9} .ColorScheme-Highlight {color:#3b4252}</style>
  </defs>
  <g
     transform="translate(-80 -744.36)"
     style=""
     id="g3">
    <path
       style="fill:currentColor;stroke-width:1.2"
       class="ColorScheme-Text"
       d="m 93.100002,746.75983 c -1.2,0 -1.2,1.2 -1.2,1.2 v 16.8 c 0,0 0,1.2 1.2,1.2 H 102.7 c 1.2,0 1.2,-1.2 1.2,-1.2 v -16.8 c 0,0 0,-1.2 -1.2,-1.2 z m 1.19976,2.40408 h 7.199998 v 13.2 h -7.199998 z"
       id="path1" />
    <path
       opacity="0.35"
       style="fill:currentColor;stroke-width:1.2"
       class="ColorScheme-Text"
       d="m 84.100002,746.75983 c -0.3324,0 -0.6,0.26761 -0.6,0.60001 v 0.6 h -2.4 v -3.2e-4 l -1.8e-5,17.4024 c 0,0.3324 0.2676,0.6 0.6,0.6 h 7.2 c 0.3324,0 0.6,-0.2676 0.6,-0.6 v -17.4 l -0.600024,0.002 h -1.8 v -0.6 c 0,-0.3324 -0.2676,-0.60001 -0.6,-0.60001 z"
       id="path2" />
    <path
       style="fill:currentColor;stroke-width:1.2"
       class="ColorScheme-Text"
       d="m 81.100002,756.35982 -1.8e-5,9.00205 c -2e-6,0.3324 0.2676,0.6 0.6,0.6 h 7.2 c 0.3324,0 0.6,-0.2676 0.6,-0.6 v -9 z"
       id="path3" />
  </g>
</svg>
