<?xml version="1.0" encoding="UTF-8" standalone="no"?>
<svg
   width="24"
   height="24"
   version="1.1"
   id="svg2"
   sodipodi:docname="phone-battery-empty.svg"
   xmlns:inkscape="http://www.inkscape.org/namespaces/inkscape"
   xmlns:sodipodi="http://sodipodi.sourceforge.net/DTD/sodipodi-0.dtd"
   xmlns="http://www.w3.org/2000/svg"
   xmlns:svg="http://www.w3.org/2000/svg">
  <sodipodi:namedview
     id="namedview2"
     pagecolor="#ffffff"
     bordercolor="#000000"
     borderopacity="0.25"
     inkscape:showpageshadow="2"
     inkscape:pageopacity="0.0"
     inkscape:pagecheckerboard="0"
     inkscape:deskcolor="#d1d1d1" />
  <defs
     id="defs1">
    <style
       id="current-color-scheme"
       type="text/css">.ColorScheme-Text {color:#d8dee9} .ColorScheme-Highlight {color:#3b4252}</style>
  </defs>
  <path
     style="fill:currentColor;stroke-width:1.2"
     class="ColorScheme-Text"
     d="m 13.100002,2.4 c -1.2,0 -1.2,1.2 -1.2,1.2 v 16.8 c 0,0 0,1.2 1.2,1.2 h 9.6 c 1.2,0 1.2,-1.2 1.2,-1.2 V 3.6 c 0,0 0,-1.2 -1.2,-1.2 z m 1.19976,2.40408 h 7.2 v 13.2 h -7.2 z"
     id="path1" />
  <path
     opacity="0.35"
     style="fill:currentColor;stroke-width:1.2"
     class="ColorScheme-Text"
     d="m 4.100002,2.4 c -0.3324,0 -0.6,0.2676 -0.6,0.6 v 0.6 l -2.4,-0.0024 v -3.12e-4 l -2.4e-5,17.4024 c 0,0.3324 0.2676,0.6 0.6,0.6 h 7.2 c 0.3324,0 0.6,-0.2676 0.6,-0.6 l 2.4e-5,-17.4012 -0.600024,0.0024 h -1.8 v -0.6 c 0,-0.3324 -0.2676,-0.600012 -0.6,-0.600012 z"
     id="path2" />
</svg>
