<?xml version="1.0" encoding="UTF-8" standalone="no"?>
<svg
   width="24"
   height="24"
   version="1.1"
   id="svg1"
   sodipodi:docname="pia_tray_disconnected.svg"
   xmlns:inkscape="http://www.inkscape.org/namespaces/inkscape"
   xmlns:sodipodi="http://sodipodi.sourceforge.net/DTD/sodipodi-0.dtd"
   xmlns="http://www.w3.org/2000/svg"
   xmlns:svg="http://www.w3.org/2000/svg">
  <sodipodi:namedview
     id="namedview1"
     pagecolor="#ffffff"
     bordercolor="#000000"
     borderopacity="0.25"
     inkscape:showpageshadow="2"
     inkscape:pageopacity="0.0"
     inkscape:pagecheckerboard="0"
     inkscape:deskcolor="#d1d1d1" />
  <defs
     id="defs1">
    <style
       id="current-color-scheme"
       type="text/css">.ColorScheme-Text {color:#d8dee9} .ColorScheme-Highlight {color:#3b4252}</style>
  </defs>
  <path
     style="opacity:0.35;fill:currentColor;stroke-width:1.2"
     class="ColorScheme-Text"
     d="m 12.5,2.4 c -3.6446923,0 -6.5994526,2.7931718 -6.6,6.2390628 0.00206,0.16041 0.010656,0.3206856 0.025781,0.480468 H 5.9 V 9.6 H 4.5007813 C 3.9467812,9.6 3.5,10.015746 3.5,10.532813 v 6.534374 C 3.5,17.584254 3.9467812,18 4.5007813,18 H 5.9 v 2.639063 C 5.9,21.170903 6.3523206,21.6 6.9148437,21.6 h 3.5554693 l 1.521093,-2.4 h 1.017188 l 1.521093,2.4 h 3.555469 C 18.647679,21.6 19.1,21.170903 19.1,20.639063 V 18 h 1.399219 C 21.053218,18 21.5,17.584254 21.5,17.067187 V 10.532813 C 21.5,10.015746 21.053218,9.6 20.499219,9.6 H 19.1 V 9.1195308 h -0.0211 c 0.01356,-0.15984 0.0206,-0.3201156 0.0211,-0.480468 C 19.099453,5.1931718 16.144693,2.4 12.5,2.4 Z m 0,2.4 c 2.319196,-10e-8 4.2,1.2 4.2,4.7730468 -6.7e-4,0.017976 -0.0014,0.03594 -0.0024,0.053904 H 8.3 c -1.117e-4,-0.017964 -1.117e-4,-0.03594 0,-0.053904 C 8.3,5.9999999 10.180804,4.7999998 12.5,4.8 Z m -3,2.4 v 1.2 h 1.2 V 7.2 Z m 4.8,0 v 1.2 h 1.2 V 7.2 Z m -1.8,3.6 c 1.108,0 1.760155,0.938626 1.760155,2.090626 V 13.2 h 0.740626 C 15.273768,13.15302 15.5,13.515085 15.5,13.8 v 2.486719 C 15.5,16.571633 15.277782,16.8 15.000781,16.8 H 9.9992192 C 9.7222184,16.8 9.5,16.571633 9.5,16.286719 V 13.8 c 0,-0.284915 0.2222184,-0.6 0.4992192,-0.6 H 10.739844 V 12.890626 C 10.739844,11.738162 11.392,10.8 12.5,10.8 Z m 0,1.028906 c -0.554,0 -0.759374,0.459078 -0.759374,1.028907 V 13.2 h 1.51875 v -0.342187 c 0,-0.569829 -0.205376,-1.028907 -0.759376,-1.028907 z"
     id="path1" />
</svg>
