<?xml version="1.0" encoding="UTF-8" standalone="no"?>
<svg
   width="24"
   height="24"
   version="1.1"
   id="svg1"
   sodipodi:docname="pomodoro-start-light.svg"
   xmlns:inkscape="http://www.inkscape.org/namespaces/inkscape"
   xmlns:sodipodi="http://sodipodi.sourceforge.net/DTD/sodipodi-0.dtd"
   xmlns="http://www.w3.org/2000/svg"
   xmlns:svg="http://www.w3.org/2000/svg">
  <sodipodi:namedview
     id="namedview1"
     pagecolor="#ffffff"
     bordercolor="#000000"
     borderopacity="0.25"
     inkscape:showpageshadow="2"
     inkscape:pageopacity="0.0"
     inkscape:pagecheckerboard="0"
     inkscape:deskcolor="#d1d1d1" />
  <defs
     id="defs1">
    <style
       id="current-color-scheme"
       type="text/css">.ColorScheme-Text {color:#d8dee9} .ColorScheme-Highlight {color:#3b4252}</style>
  </defs>
  <path
     style="fill:currentColor;stroke-width:1.2"
     class="ColorScheme-Text"
     d="M 12,1.2 C 9.44688,1.2 7.0986,2.08122 5.25,3.5625 L 3.075,1.3875 1.3875,3.075 3.5625,5.25 C 2.08122,7.0986 1.2,9.44688 1.2,12 1.2,17.9652 6.03528,22.8 12,22.8 17.9652,22.8 22.8,17.9652 22.8,12 22.8,9.44688 21.9195,7.0986 20.4375,5.25 L 22.6125,3.075 20.925,1.3875 18.75,3.5625 C 16.9008,2.08122 14.5536,1.2 12,1.2 Z m 0,2.4 c 4.6392,0 8.4,3.7608 8.4,8.4 0,4.6392 -3.7608,8.4 -8.4,8.4 C 7.3608,20.4 3.6,16.6392 3.6,12 3.6,7.3608 7.3608,3.6 12,3.6 Z M 9.6,7.2 v 9.6 L 16.8,12 Z"
     id="path1" />
</svg>
