<?xml version="1.0" encoding="UTF-8" standalone="no"?>
<svg
   width="24"
   height="24"
   version="1.1"
   id="svg1"
   sodipodi:docname="pomodoneapp-indicator.svg"
   xmlns:inkscape="http://www.inkscape.org/namespaces/inkscape"
   xmlns:sodipodi="http://sodipodi.sourceforge.net/DTD/sodipodi-0.dtd"
   xmlns="http://www.w3.org/2000/svg"
   xmlns:svg="http://www.w3.org/2000/svg">
  <sodipodi:namedview
     id="namedview1"
     pagecolor="#ffffff"
     bordercolor="#000000"
     borderopacity="0.25"
     inkscape:showpageshadow="2"
     inkscape:pageopacity="0.0"
     inkscape:pagecheckerboard="0"
     inkscape:deskcolor="#d1d1d1" />
  <defs
     id="defs1">
    <style
       id="current-color-scheme"
       type="text/css">.ColorScheme-Text {color:#d8dee9} .ColorScheme-Highlight {color:#3b4252}</style>
  </defs>
  <path
     style="fill:currentColor;stroke-width:1.2"
     class="ColorScheme-Text"
     d="M 12,2.3999999 A 9.6,9.6 0 0 0 2.3999999,12 9.6,9.6 0 0 0 12,21.6 9.6,9.6 0 0 0 21.6,12 9.6,9.6 0 0 0 12,2.3999999 Z m -3,4.8 h 6 c 0.9972,0 1.8,0.8028 1.8,1.8000002 V 15 c 0,0.9972 -0.8028,1.8 -1.8,1.8 H 9 C 8.0028,16.8 7.1999999,15.9972 7.1999999,15 V 9.0000001 C 7.1999999,8.0027999 8.0028,7.1999999 9,7.1999999 Z M 10.319532,9.6 C 9.920652,9.6 9.6,9.9206508 9.6,10.319531 v 3.360937 C 9.6,14.079348 9.920652,14.4 10.319532,14.4 h 3.360937 C 14.079349,14.4 14.4,14.079348 14.4,13.680468 V 10.319531 C 14.4,9.9206508 14.079349,9.6 13.680469,9.6 Z"
     id="path1" />
</svg>
