<?xml version="1.0" encoding="UTF-8" standalone="no"?>
<svg
   width="24"
   height="24"
   version="1.1"
   id="svg1"
   sodipodi:docname="pomodoro-indicator-light-29.svg"
   xmlns:inkscape="http://www.inkscape.org/namespaces/inkscape"
   xmlns:sodipodi="http://sodipodi.sourceforge.net/DTD/sodipodi-0.dtd"
   xmlns="http://www.w3.org/2000/svg"
   xmlns:svg="http://www.w3.org/2000/svg">
  <sodipodi:namedview
     id="namedview1"
     pagecolor="#ffffff"
     bordercolor="#000000"
     borderopacity="0.25"
     inkscape:showpageshadow="2"
     inkscape:pageopacity="0.0"
     inkscape:pagecheckerboard="0"
     inkscape:deskcolor="#d1d1d1" />
  <defs
     id="defs1">
    <style
       id="current-color-scheme"
       type="text/css">.ColorScheme-Text {color:#d8dee9} .ColorScheme-Highlight {color:#3b4252}</style>
  </defs>
  <g
     transform="translate(0 -1028.4)"
     style=""
     id="g1">
    <path
       style="fill:currentColor;stroke-width:1.2"
       class="ColorScheme-Text"
       d="m 11.99998,1029.6 c -2.55312,0 -4.9014,0.8812 -6.75,2.3624 l -2.175,-2.175 -1.68744,1.6876 2.175,2.175 c -1.48116,1.8486 -2.36244,4.1969 -2.36244,6.75 0,5.9647 4.83528,10.8 10.8,10.8 5.96472,0 10.8,-4.8353 10.8,-10.8 0,-2.5531 -0.881292,-4.9014 -2.36256,-6.75 l 2.175,-2.175 -1.68744,-1.6876 -2.175,2.175 c -1.8486,-1.4812 -4.19688,-2.3624 -6.75,-2.3624 z m 0,2.4 c 4.6392,0 8.4,3.7608 8.4,8.4 0,4.6392 -3.7608,8.4 -8.4,8.4 -4.6392,0 -8.4,-3.7608 -8.4,-8.4 0,-4.6392 3.7608,-8.4 8.4,-8.4 z m 0,1.2 v 7.2 l 0.75234,7.1602 a 7.2,7.2 0 0 0 6.43824,-7.5376 7.2,7.2 0 0 0 -7.1904,-6.84 z"
       id="path1" />
  </g>
</svg>
