<?xml version="1.0" encoding="UTF-8" standalone="no"?>
<svg
   width="24"
   height="24"
   version="1.1"
   id="svg1"
   sodipodi:docname="pomodoro-stop-light.svg"
   xmlns:inkscape="http://www.inkscape.org/namespaces/inkscape"
   xmlns:sodipodi="http://sodipodi.sourceforge.net/DTD/sodipodi-0.dtd"
   xmlns="http://www.w3.org/2000/svg"
   xmlns:svg="http://www.w3.org/2000/svg">
  <sodipodi:namedview
     id="namedview1"
     pagecolor="#ffffff"
     bordercolor="#000000"
     borderopacity="0.25"
     inkscape:showpageshadow="2"
     inkscape:pageopacity="0.0"
     inkscape:pagecheckerboard="0"
     inkscape:deskcolor="#d1d1d1" />
  <defs
     id="defs1">
    <style
       id="current-color-scheme"
       type="text/css">.ColorScheme-Text {color:#d8dee9} .ColorScheme-Highlight {color:#3b4252}</style>
  </defs>
  <g
     transform="translate(1 -1029.4)"
     style=""
     id="g1">
    <path
       style="fill:currentColor;stroke-width:1.2"
       class="ColorScheme-Text"
       d="m 11,1030.6 c -2.55312,0 -4.9014,0.8813 -6.75,2.3626 l -2.175,-2.1752 -1.68756,1.6876 2.17512,2.175 C 1.08128,1036.4986 0.2,1038.8469 0.2,1041.4 c 0,5.9647 4.83528,10.8 10.8,10.8 5.96472,0 10.8,-4.8353 10.8,-10.8 0,-2.5531 -0.8808,-4.9014 -2.3628,-6.75 l 2.1756,-2.175 -1.6872,-1.6876 -2.1756,2.1752 C 15.9008,1031.4813 13.5536,1030.6 11,1030.6 Z m 0,2.4 c 4.6392,0 8.4,3.7608 8.4,8.4 0,4.6392 -3.7608,8.4 -8.4,8.4 -4.6392,0 -8.4,-3.7608 -8.4,-8.4 0,-4.6392 3.7608,-8.4 8.4,-8.4 z m -3.6,4.8 v 7.2 h 7.2 v -3.6 -3.6 z"
       id="path1" />
  </g>
</svg>
