<?xml version="1.0" encoding="UTF-8" standalone="no"?>
<svg
   width="24"
   height="24"
   version="1.1"
   id="svg1"
   sodipodi:docname="pomodoro-indicator-light-41.svg"
   xmlns:inkscape="http://www.inkscape.org/namespaces/inkscape"
   xmlns:sodipodi="http://sodipodi.sourceforge.net/DTD/sodipodi-0.dtd"
   xmlns="http://www.w3.org/2000/svg"
   xmlns:svg="http://www.w3.org/2000/svg">
  <sodipodi:namedview
     id="namedview1"
     pagecolor="#ffffff"
     bordercolor="#000000"
     borderopacity="0.25"
     inkscape:showpageshadow="2"
     inkscape:pageopacity="0.0"
     inkscape:pagecheckerboard="0"
     inkscape:deskcolor="#d1d1d1" />
  <defs
     id="defs1">
    <style
       id="current-color-scheme"
       type="text/css">.ColorScheme-Text {color:#d8dee9} .ColorScheme-Highlight {color:#3b4252}</style>
  </defs>
  <g
     transform="translate(0 -1028.4)"
     style=""
     id="g1">
    <path
       style="fill:currentColor;stroke-width:1.2"
       class="ColorScheme-Text"
       d="m 12,1029.6 c -2.55312,0 -4.9014,0.8813 -6.75,2.3624 l -2.175,-2.1748 -1.68744,1.6874 2.175,2.175 C 2.0814,1035.4986 1.2,1037.8469 1.2,1040.4 c 0,5.9647 4.83528,10.8 10.8,10.8 5.96472,0 10.8,-4.8353 10.8,-10.8 0,-2.5531 -0.881292,-4.9014 -2.36256,-6.75 l 2.175,-2.175 -1.68744,-1.6874 -2.175,2.1748 C 16.9014,1030.4813 14.55312,1029.6 12,1029.6 Z m 0,2.4 c 4.6392,0 8.4,3.7608 8.4,8.4 0,4.6392 -3.7608,8.4 -8.4,8.4 -4.6392,0 -8.4,-3.7608 -8.4,-8.4 0,-4.6392 3.7608,-8.4 8.4,-8.4 z m 0,1.2 v 7.2 l -6.5766,2.9274 a 7.2,7.2 0 0 0 8.56176,3.9937 7.2,7.2 0 0 0 5.14452,-7.9242 7.2,7.2 0 0 0 -7.1304,-6.12 z"
       id="path1" />
  </g>
</svg>
