<?xml version="1.0" encoding="UTF-8" standalone="no"?>
<svg
   width="24"
   height="24"
   version="1.1"
   id="svg1"
   sodipodi:docname="pragha-panel.svg"
   xmlns:inkscape="http://www.inkscape.org/namespaces/inkscape"
   xmlns:sodipodi="http://sodipodi.sourceforge.net/DTD/sodipodi-0.dtd"
   xmlns="http://www.w3.org/2000/svg"
   xmlns:svg="http://www.w3.org/2000/svg">
  <sodipodi:namedview
     id="namedview1"
     pagecolor="#ffffff"
     bordercolor="#000000"
     borderopacity="0.25"
     inkscape:showpageshadow="2"
     inkscape:pageopacity="0.0"
     inkscape:pagecheckerboard="0"
     inkscape:deskcolor="#d1d1d1" />
  <defs
     id="defs1">
    <style
       id="current-color-scheme"
       type="text/css">.ColorScheme-Text {color:#d8dee9} .ColorScheme-Highlight {color:#3b4252}</style>
  </defs>
  <path
     style="fill:currentColor;stroke-width:1.2"
     class="ColorScheme-Text"
     d="M 15.667316,2.4005026 C 15.563288,2.3940106 15.397371,2.463613 15.093098,2.5997213 14.731917,2.7612928 13.912203,2.8926901 13.269659,2.89269 10.995732,2.940312 9.1751933,3.7380333 7.7009094,5.2434712 5.6998134,7.3007037 5.0701482,9.890352 5.9829402,12.293471 c 0.2107056,0.554712 0.3383112,1.118993 0.2835936,1.253906 -0.054696,0.134908 -0.439446,0.50707 -0.8531244,0.829689 -0.898824,0.700872 -1.520268,1.832134 -1.6757808,3.046874 -0.09342,0.729665 -0.028656,1.077271 0.367968,1.945312 0.851808,1.864054 2.7832284,2.662027 4.8421872,2.001562 1.1921902,-0.382411 2.3848602,-1.740786 3.3398442,-3.801561 0.824792,-1.779946 0.860885,-1.823973 1.746094,-2.144531 1.492363,-0.540454 2.433265,-1.136834 3.367969,-2.137501 1.657097,-1.774113 2.272021,-4.0709807 1.678125,-6.2671873 C 18.812949,6.0332509 18.586781,5.6934627 17.378254,4.4372213 16.612746,3.6414738 15.934119,2.8346779 15.868878,2.6465963 15.813882,2.488141 15.771354,2.4069714 15.667316,2.4005026 Z m -3.764062,2.4 c 0.700736,0.00288 1.241982,0.2146385 1.389844,0.6351561 0.04848,0.1378991 -0.15679,0.7879072 -0.457032,1.44375 -0.772102,1.6866488 -1.017034,2.6144672 -1.483594,5.5898433 -0.578638,3.690081 -1.210638,5.283292 -2.4773434,6.241406 -0.7985448,0.603972 -1.7801004,0.654472 -2.3039064,0.121874 -0.4531728,-0.46078 -0.5834556,-1.037877 -0.3726564,-1.642966 0.1669788,-0.479318 0.8078256,-0.55674 2.0248872,-0.735938 0.846738,-0.124651 1.4437499,-0.711336 1.4437499,-1.478906 0,-0.483002 -0.1954464,-0.759976 -0.8531243,-1.455469 C 7.7965662,12.44321 6.8712198,11.410603 6.8665338,10.106753 6.8590938,8.0674176 7.8587082,6.3330471 9.5641901,5.4215962 10.34393,5.0048937 11.202512,4.7976275 11.903254,4.8005026 Z m 2.805468,1.2023436 c 0.244888,-0.032002 0.55617,0.2194929 0.996094,0.7429688 1.738159,2.0681637 1.560102,5.197897 -0.398438,6.996094 -0.83487,0.766503 -1.031288,0.813726 -1.610156,0.400781 -0.334828,-0.238855 -0.398851,-0.455329 -0.396094,-1.328908 0.004,-1.338321 0.458906,-4.6164495 0.813281,-5.861717 0.171725,-0.6034173 0.350422,-0.9171933 0.595313,-0.9492188 z"
     id="path1" />
</svg>
