<?xml version="1.0" encoding="UTF-8" standalone="no"?>
<svg
   width="24"
   height="24"
   version="1.1"
   id="svg1"
   sodipodi:docname="premid-tray.svg"
   xmlns:inkscape="http://www.inkscape.org/namespaces/inkscape"
   xmlns:sodipodi="http://sodipodi.sourceforge.net/DTD/sodipodi-0.dtd"
   xmlns="http://www.w3.org/2000/svg"
   xmlns:svg="http://www.w3.org/2000/svg">
  <sodipodi:namedview
     id="namedview1"
     pagecolor="#ffffff"
     bordercolor="#000000"
     borderopacity="0.25"
     inkscape:showpageshadow="2"
     inkscape:pageopacity="0.0"
     inkscape:pagecheckerboard="0"
     inkscape:deskcolor="#d1d1d1" />
  <defs
     id="defs1">
    <style
       id="current-color-scheme"
       type="text/css">.ColorScheme-Text {color:#d8dee9} .ColorScheme-Highlight {color:#3b4252}</style>
  </defs>
  <path
     style="fill:currentColor;stroke-width:1.2"
     class="ColorScheme-Text"
     d="M 2.58125,3.6999999 A 1.4819999,1.5678533 0 0 0 1.1,5.2679691 V 17.732031 A 1.4819999,1.5678533 0 0 0 2.58125,19.3 h 19.8375 A 1.4819999,1.5678533 0 0 0 23.9,17.732031 V 5.2679691 A 1.4819999,1.5678533 0 0 0 22.41875,3.6999999 Z m 1.2984384,3.6 a 0.40750108,0.41809422 0 0 1 0.0024,0 0.40750108,0.41809422 0 0 1 0.03984,0 0.40750108,0.41809422 0 0 1 0.1875,0.056244 L 10.49849,11.139057 a 0.40750108,0.41809422 0 0 1 0,0.721874 L 4.109432,15.64375 A 0.40750108,0.41809422 0 0 1 3.5000564,15.282813 V 7.7171871 A 0.40750108,0.41809422 0 0 1 3.8797448,7.2999999 Z M 13.810156,8.5 h 4.579688 A 0.71317049,0.60232316 0 0 1 19.1,9.1 0.71317049,0.60232316 0 0 1 18.389844,9.7 H 13.810156 A 0.71317049,0.60232316 0 0 1 13.1,9.1 0.69940272,0.59069531 0 0 1 13.308594,8.6781256 0.69940272,0.59069531 0 0 1 13.810156,8.5 Z m -0.03984,2.4 h 7.061718 A 0.66911731,0.59999959 0 0 1 21.305469,11.921874 0.67171078,0.60232518 0 0 1 20.832031,12.1 H 13.770313 A 0.67171078,0.60232518 0 0 1 13.1,11.5 0.67171078,0.60232518 0 0 1 13.770313,10.9 Z m 0,2.4 h 7.061718 A 0.66911741,0.59999995 0 0 1 21.305469,14.321874 0.67171088,0.60232554 0 0 1 20.832031,14.5 H 13.770313 A 0.67171088,0.60232554 0 0 1 13.1,13.9 0.67171088,0.60232554 0 0 1 13.770313,13.3 Z"
     id="path1" />
</svg>
