<?xml version="1.0" encoding="UTF-8" standalone="no"?>
<svg
   width="24"
   height="24"
   version="1.1"
   id="svg1"
   sodipodi:docname="process-syncing-error.svg"
   xmlns:inkscape="http://www.inkscape.org/namespaces/inkscape"
   xmlns:sodipodi="http://sodipodi.sourceforge.net/DTD/sodipodi-0.dtd"
   xmlns="http://www.w3.org/2000/svg"
   xmlns:svg="http://www.w3.org/2000/svg">
  <sodipodi:namedview
     id="namedview1"
     pagecolor="#ffffff"
     bordercolor="#000000"
     borderopacity="0.25"
     inkscape:showpageshadow="2"
     inkscape:pageopacity="0.0"
     inkscape:pagecheckerboard="0"
     inkscape:deskcolor="#d1d1d1" />
  <defs
     id="defs1">
    <style
       id="current-color-scheme"
       type="text/css">.ColorScheme-Text {color:#d8dee9} .ColorScheme-Highlight {color:#3b4252}</style>
  </defs>
  <path
     style="fill:currentColor;stroke-width:1.2"
     class="ColorScheme-Text"
     d="M 3.6,3.5 C 2.9352,3.5 2.4,4.0352 2.4,4.7 V 7.43984 C 2.7558,7.22924 3.1632,7.1 3.6,7.1 H 4.8 6 7.90308 L 9.9516,5.0516 A 1.20012,1.20012 0 0 1 10.8,4.7 H 12 C 12,4.0352 11.4648,3.5 10.8,3.5 Z M 10.8,5.9 8.4,8.3 H 6 4.8 3.6 C 2.9352,8.3 2.4,8.8352 2.4,9.5 v 1.2 1.2 2.4 1.2 3.6 c 0,1.3296 1.0704,2.4 2.4,2.4 h 14.4 c 1.3296,0 2.4,-1.0704 2.4,-2.4 V 15.5 14.3 7.1 c 0,-0.6648 -0.5352,-1.2 -1.2,-1.2 z m 1.176,2.78436 a 0.53334,0.53334 0 0 1 0.054,0 0.53334,0.53334 0 0 1 0.4812,0.36564 l 0.9564,2.8692 3.0228,0.03 a 0.53334,0.53334 0 0 1 0.312,0.9612 l -2.43,1.7976 0.9036,2.8848 a 0.53334,0.53334 0 0 1 -0.8196,0.5928 l -2.4588,-1.758 -2.46324,1.7532 A 0.53334,0.53334 0 0 1 8.71644,17.5832 L 9.6276,14.7008 7.2,12.9008 A 0.53334,0.53334 0 0 1 7.51404,11.9372 L 10.5372,11.9144 11.4984,9.05 A 0.53334,0.53334 0 0 1 11.976,8.68436 Z"
     id="path1" />
</svg>
