<?xml version="1.0" encoding="UTF-8" standalone="no"?>
<svg
   width="24"
   height="24"
   version="1.1"
   id="svg1"
   sodipodi:docname="process-syncing-idle.svg"
   xmlns:inkscape="http://www.inkscape.org/namespaces/inkscape"
   xmlns:sodipodi="http://sodipodi.sourceforge.net/DTD/sodipodi-0.dtd"
   xmlns="http://www.w3.org/2000/svg"
   xmlns:svg="http://www.w3.org/2000/svg">
  <sodipodi:namedview
     id="namedview1"
     pagecolor="#ffffff"
     bordercolor="#000000"
     borderopacity="0.25"
     inkscape:showpageshadow="2"
     inkscape:pageopacity="0.0"
     inkscape:pagecheckerboard="0"
     inkscape:deskcolor="#d1d1d1" />
  <defs
     id="defs1">
    <style
       id="current-color-scheme"
       type="text/css">.ColorScheme-Text {color:#d8dee9} .ColorScheme-Highlight {color:#3b4252}</style>
  </defs>
  <g
     transform="translate(0 -1028.4)"
     style=""
     id="g1">
    <path
       style="fill:currentColor;stroke-width:1.2"
       class="ColorScheme-Text"
       d="m 3.6,1031.9 c -0.6648,0 -1.2,0.5352 -1.2,1.2 v 2.7398 c 0.3558,-0.2106 0.7632,-0.3398 1.2,-0.3398 h 4.30308 l 2.04852,-2.0484 A 1.20012,1.20012 0 0 1 10.8,1033.1 H 12 c 0,-0.6648 -0.5352,-1.2 -1.2,-1.2 z m 7.2,2.4 -2.4,2.4 H 3.6 c -0.6648,0 -1.2,0.5352 -1.2,1.2 v 9.6 c 0,1.3296 1.0704,2.4 2.4,2.4 h 14.4 c 1.3296,0 2.4,-1.0704 2.4,-2.4 v -12 c 0,-0.6648 -0.5352,-1.2 -1.2,-1.2 z m 1.176,2.7844 a 0.53334,0.53334 0 0 1 0.054,0 0.53334,0.53334 0 0 1 0.4812,0.3656 l 0.9564,2.8692 3.0228,0.03 a 0.53334,0.53334 0 0 1 0.312,0.9612 l -2.43,1.7976 0.9036,2.8848 a 0.53334,0.53334 0 0 1 -0.8196,0.5928 l -2.4588,-1.758 -2.46324,1.7532 a 0.53334,0.53334 0 0 1 -0.81792,-0.5976 l 0.91116,-2.8824 -2.4276,-1.8 a 0.53334,0.53334 0 0 1 0.31404,-0.9636 l 3.02316,-0.023 0.9612,-2.8644 a 0.53334,0.53334 0 0 1 0.4776,-0.3656 z"
       id="path1" />
  </g>
</svg>
