<?xml version="1.0" encoding="UTF-8" standalone="no"?>
<svg
   width="24"
   height="24"
   version="1.1"
   id="svg1"
   sodipodi:docname="protonmail-notification.svg"
   xmlns:inkscape="http://www.inkscape.org/namespaces/inkscape"
   xmlns:sodipodi="http://sodipodi.sourceforge.net/DTD/sodipodi-0.dtd"
   xmlns="http://www.w3.org/2000/svg"
   xmlns:svg="http://www.w3.org/2000/svg">
  <sodipodi:namedview
     id="namedview1"
     pagecolor="#ffffff"
     bordercolor="#000000"
     borderopacity="0.25"
     inkscape:showpageshadow="2"
     inkscape:pageopacity="0.0"
     inkscape:pagecheckerboard="0"
     inkscape:deskcolor="#d1d1d1" />
  <defs
     id="defs1">
    <style
       id="current-color-scheme"
       type="text/css">.ColorScheme-Text {color:#d8dee9} .ColorScheme-Highlight {color:#3b4252}</style>
  </defs>
  <circle
     style="fill:currentColor;stroke-width:1.2"
     class="ColorScheme-Text"
     cx="21.200001"
     cy="2.5999999"
     r="2.4000001"
     id="circle1" />
  <path
     style="fill:currentColor;stroke-width:1.2"
     class="ColorScheme-Text"
     d="m 11.600092,2.5999256 c -0.451686,0 -0.905326,0.020365 -1.192969,0.063281 C 6.9352059,3.1810427 4.8835671,4.9357975 4.4727495,7.7350822 4.4273655,8.0443654 4.4144175,8.5934698 4.4071215,10.697582 l -0.00708,2.498437 0.100776,0.166407 c 0.2486652,0.411711 0.5919168,0.700531 2.2265628,1.875 2.7328661,1.963526 3.8550817,2.680998 4.5468747,2.899219 0.109176,0.03444 0.260076,0.06228 0.335155,0.06328 0.459128,0.0064 1.801817,-0.772175 3.834376,-2.226563 2.534746,-1.813732 3.003762,-2.190412 3.250781,-2.601563 l 0.105468,-0.175776 v -2.0625 c 0,-2.6885792 -0.01684,-3.1644332 -0.138281,-3.740624 -0.216571,-1.0275396 -0.611701,-1.8382044 -1.239839,-2.5453129 -1.008221,-1.1349804 -2.585051,-1.879185 -4.631249,-2.184375 -0.287652,-0.0429 -0.738939,-0.063281 -1.190625,-0.063281 z m 0,3.6 c 2.399997,1.08e-5 3.054054,1.4146488 3.51797,3.1476564 0.08168,0.305112 0.08203,0.3175416 0.08203,1.558594 0,0.688106 -0.0094,1.263469 -0.0211,1.277343 -0.01176,0.01385 -1.615274,0.01927 -3.578907,0.01406 -1.9636318,0.0053 -3.5671467,-1.91e-4 -3.5789055,-0.01406 -0.01176,-0.01387 -0.021096,-0.589237 -0.021096,-1.277343 0,-1.2410524 3.828e-4,-1.253482 0.082032,-1.558594 0.46392,-1.7330076 1.1179721,-3.1476672 3.5179675,-3.1476564 z M 4.4024367,14.599926 c 0,0 -0.00684,0.705169 0.0024,3.330469 l 0.01176,3.225 0.107808,0.201561 c 0.083172,0.154674 0.1506168,0.225105 0.2859372,0.304689 l 0.1781244,0.105468 2.86875,0.0164 c 1.5777809,0.0095 4.5302947,0.01736 6.5624997,0.0164 l 3.696094,-0.0024 0.178125,-0.075 c 0.229596,-0.09863 0.296693,-0.158968 0.403124,-0.358594 l 0.08672,-0.161719 0.0047,-2.941406 0.01164,-3.660876 h -0.04687 l -0.0586,0.0961 c -0.24702,0.400604 -0.716036,0.766368 -3.250782,2.533591 -2.032568,1.417093 -3.375259,2.176553 -3.834386,2.170313 -0.07508,-9.6e-4 -0.225978,-0.02971 -0.335155,-0.06328 C 10.582519,19.124022 9.4603028,18.427951 6.7274367,16.514774 5.0927883,15.370423 4.7495379,15.087804 4.5008739,14.68665 l -0.053904,-0.08672 h -0.044532 z"
     id="path1" />
</svg>
