<?xml version="1.0" encoding="UTF-8" standalone="no"?>
<svg
   width="24"
   height="24"
   version="1.1"
   id="svg2"
   sodipodi:docname="protonvpngui-disconnected.svg"
   xmlns:inkscape="http://www.inkscape.org/namespaces/inkscape"
   xmlns:sodipodi="http://sodipodi.sourceforge.net/DTD/sodipodi-0.dtd"
   xmlns="http://www.w3.org/2000/svg"
   xmlns:svg="http://www.w3.org/2000/svg">
  <sodipodi:namedview
     id="namedview2"
     pagecolor="#ffffff"
     bordercolor="#000000"
     borderopacity="0.25"
     inkscape:showpageshadow="2"
     inkscape:pageopacity="0.0"
     inkscape:pagecheckerboard="0"
     inkscape:deskcolor="#d1d1d1" />
  <defs
     id="defs1">
    <style
       id="current-color-scheme"
       type="text/css">.ColorScheme-Text {color:#d8dee9} .ColorScheme-Highlight {color:#3b4252}</style>
  </defs>
  <path
     style="opacity:0.35;fill:currentColor;stroke-width:1.2"
     class="ColorScheme-Text"
     d="m 4.4786105,3.7008417 c -0.050131,-0.00118 -0.098674,2.829e-4 -0.1476563,0.00234 -1.4694975,0.062362 -2.4443056,1.5826729 -1.6429687,2.8429689 l 0.077344,0.077344 8.0484375,0.8859375 a 6,6 0 0 1 -0.01406,-0.20859 6,6 0 0 1 0.733594,-2.8429687 L 4.6309542,3.7102167 c -0.050994,-0.00467 -0.1022124,-0.0082 -0.1523437,-0.00937 z m -1.0125,4.2070308 5.5921874,9.7593765 c 0.7009535,-0.113268 0.8318279,-0.294351 1.2656251,-0.897657 l 3.023438,-4.577343 A 6,6 0 0 1 10.987204,8.7352177 Z m 10.9242185,4.8820325 -3.077344,4.661718 -0.698437,0.970313 c -0.310822,0.373422 -0.9340706,0.37311 -1.1671875,-0.075 l 0.7007805,1.195313 c 0.155411,0.224052 0.310996,0.373287 0.466407,0.522656 0.85476,0.672157 2.253776,0.597923 2.953125,-0.447656 l 4.396875,-6.445313 a 6,6 0 0 1 -1.164844,0.128906 6,6 0 0 1 -2.409375,-0.510937 z"
     id="path1" />
  <path
     style="fill:currentColor;stroke-width:1.2"
     class="ColorScheme-Text"
     d="m 16.727048,2.498498 c -0.06932,0.00112 -0.138949,0.0052 -0.208594,0.00937 -0.318374,0.019116 -0.640853,0.071267 -0.960937,0.1570313 -2.56068,0.68616 -4.079789,3.3174449 -3.39375,5.8781256 0.686088,2.5605591 3.317444,4.0799091 5.878124,3.3937491 2.56068,-0.68616 4.07979,-3.3174447 3.39375,-5.8781247 C 20.854076,3.8881795 18.876251,2.4636855 16.727048,2.498498 Z m -1.727344,2.4023437 a 0.6,0.6 0 0 1 0.424219,0.1757813 l 1.375781,1.3757813 1.375781,-1.3757813 a 0.6,0.6 0 0 1 0.848438,0 0.6,0.6 0 0 1 0,0.8484374 l -1.375782,1.3757813 1.375782,1.3757812 a 0.6,0.6 0 0 1 0,0.8484384 0.6,0.6 0 0 1 -0.848438,0 L 16.799704,8.1492789 15.423923,9.5250613 a 0.6,0.6 0 0 1 -0.848438,0 0.6,0.6 0 0 1 0,-0.8484384 L 15.951267,7.3008417 14.575485,5.9250604 a 0.6,0.6 0 0 1 0,-0.8484374 0.6,0.6 0 0 1 0.424219,-0.1757813 z"
     id="path2" />
</svg>
