<?xml version="1.0" encoding="UTF-8" standalone="no"?>
<svg
   width="24"
   height="24"
   version="1.1"
   id="svg1"
   sodipodi:docname="protonmail-indicator.svg"
   xmlns:inkscape="http://www.inkscape.org/namespaces/inkscape"
   xmlns:sodipodi="http://sodipodi.sourceforge.net/DTD/sodipodi-0.dtd"
   xmlns="http://www.w3.org/2000/svg"
   xmlns:svg="http://www.w3.org/2000/svg">
  <sodipodi:namedview
     id="namedview1"
     pagecolor="#ffffff"
     bordercolor="#000000"
     borderopacity="0.25"
     inkscape:showpageshadow="2"
     inkscape:pageopacity="0.0"
     inkscape:pagecheckerboard="0"
     inkscape:deskcolor="#d1d1d1" />
  <defs
     id="defs1">
    <style
       id="current-color-scheme"
       type="text/css">.ColorScheme-Text {color:#d8dee9} .ColorScheme-Highlight {color:#3b4252}</style>
  </defs>
  <path
     style="fill:currentColor;stroke-width:1.2"
     class="ColorScheme-Text"
     d="m 12.000084,2.3999318 c -0.451686,0 -0.905327,0.020365 -1.192969,0.063281 C 7.3351973,2.9810487 5.2835585,4.7358035 4.8727409,7.5350882 4.8273569,7.8443714 4.8144089,8.3934758 4.8071129,10.497588 l -0.00708,2.498437 0.100776,0.166407 c 0.2486652,0.411711 0.5919168,0.700531 2.2265628,1.875 2.7328661,1.963526 3.8550823,2.680998 4.5468753,2.899219 0.109176,0.03444 0.260076,0.06228 0.335155,0.06328 0.459127,0.0064 1.801817,-0.772175 3.834375,-2.226563 2.534746,-1.813731 3.003762,-2.190411 3.250781,-2.601563 l 0.105468,-0.175776 v -2.0625 c 0,-2.6885792 -0.01684,-3.1644332 -0.138281,-3.740624 -0.216571,-1.0275396 -0.611701,-1.8382044 -1.239838,-2.5453129 -1.008221,-1.1349804 -2.585051,-1.879185 -4.631249,-2.184375 -0.287652,-0.0429 -0.73894,-0.063281 -1.190626,-0.063281 z m 0,3.6 c 2.399996,1.08e-5 3.054054,1.4146488 3.517969,3.1476564 0.08168,0.305112 0.08203,0.3175416 0.08203,1.5585938 0,0.688106 -0.0094,1.263469 -0.0211,1.277343 -0.01176,0.01385 -1.615273,0.01927 -3.578906,0.01406 -1.963632,0.0053 -3.5671473,-1.9e-4 -3.5789061,-0.01406 -0.01176,-0.01387 -0.021096,-0.589237 -0.021096,-1.277343 0,-1.2410522 3.828e-4,-1.2534818 0.082032,-1.5585938 C 8.9460329,7.4145806 9.600085,5.999921 12.00008,5.9999318 Z M 4.8024281,14.399932 c 0,0 -0.00684,0.705169 0.0024,3.330469 l 0.01176,3.225 0.107808,0.201562 c 0.083172,0.154674 0.1506168,0.225104 0.2859372,0.304688 l 0.1781244,0.105468 2.86875,0.0164 c 1.5777809,0.0095 4.5302943,0.01736 6.5624993,0.0164 l 3.696095,-0.0024 0.178124,-0.075 c 0.229596,-0.09863 0.296693,-0.158968 0.403125,-0.358594 l 0.08672,-0.161719 0.0047,-2.941406 0.01164,-3.660876 h -0.04687 l -0.0586,0.0961 c -0.24702,0.400604 -0.716037,0.766368 -3.250782,2.533591 -2.032569,1.417093 -3.37526,2.176553 -3.834387,2.170313 -0.07508,-9.6e-4 -0.225978,-0.02971 -0.335155,-0.06328 C 10.98251,18.924028 9.8602942,18.227957 7.1274281,16.31478 5.4927797,15.170429 5.1495293,14.88781 4.9008653,14.486656 l -0.053904,-0.08672 h -0.044532 z"
     id="path1" />
</svg>
