<?xml version="1.0" encoding="UTF-8" standalone="no"?>
<svg
   width="24"
   height="24"
   version="1.1"
   id="svg2"
   sodipodi:docname="protonvpngui-connected.svg"
   xmlns:inkscape="http://www.inkscape.org/namespaces/inkscape"
   xmlns:sodipodi="http://sodipodi.sourceforge.net/DTD/sodipodi-0.dtd"
   xmlns="http://www.w3.org/2000/svg"
   xmlns:svg="http://www.w3.org/2000/svg">
  <sodipodi:namedview
     id="namedview2"
     pagecolor="#ffffff"
     bordercolor="#000000"
     borderopacity="0.25"
     inkscape:showpageshadow="2"
     inkscape:pageopacity="0.0"
     inkscape:pagecheckerboard="0"
     inkscape:deskcolor="#d1d1d1" />
  <defs
     id="defs1">
    <style
       id="current-color-scheme"
       type="text/css">.ColorScheme-Text {color:#d8dee9} .ColorScheme-Highlight {color:#3b4252}</style>
  </defs>
  <path
     style="fill:currentColor;stroke-width:1.2"
     class="ColorScheme-Text"
     d="m 16.519858,2.5064991 c -0.318375,0.019116 -0.640853,0.071268 -0.960937,0.1570322 -2.56068,0.68616 -4.079789,3.3174448 -3.39375,5.8781248 0.686088,2.5605609 3.317444,4.0799109 5.878124,3.3937509 2.56068,-0.68616 4.07979,-3.3174453 3.39375,-5.8781253 -0.600326,-2.24049 -2.688564,-3.6845718 -4.917187,-3.5507826 z m 2.053124,2.385939 a 0.60006,0.60006 0 0 1 0.564845,0.874218 l -1.8,3.6 a 0.60006,0.60006 0 0 1 -0.869532,0.232032 l -1.8,-1.2000003 a 0.60006,0.60006 0 1 1 0.665626,-0.9984384 l 1.235156,0.8226564 1.495312,-2.9906241 a 0.60006,0.60006 0 0 1 0.508593,-0.3398436 z"
     id="path1" />
  <path
     style="fill:currentColor;stroke-width:1.2"
     class="ColorScheme-Text"
     d="m 4.4785429,3.7008362 c -0.050137,-0.00118 -0.098668,2.829e-4 -0.1476563,0.00234 -1.4696605,0.062362 -2.4443945,1.5826729 -1.6429687,2.8429689 l 0.077344,0.077344 8.0484371,0.8835943 A 6,6 0 0 1 10.799635,7.3008366 6,6 0 0 1 11.53323,4.4578675 L 4.6308866,3.7102112 c -0.051,-0.00467 -0.1022064,-0.0082 -0.1523437,-0.00937 z m -1.0125,4.2070312 5.5921874,9.7593766 c 0.7010315,-0.113268 0.8317799,-0.294351 1.2656257,-0.897657 l 3.023437,-4.577343 A 6,6 0 0 1 10.987137,8.7352113 Z M 14.392606,12.7899 11.312919,17.451618 10.61448,18.421931 c -0.310856,0.373422 -0.934045,0.37311 -1.1671871,-0.075 l 0.7007811,1.195313 c 0.155429,0.224052 0.310979,0.373287 0.466406,0.522656 0.854855,0.672157 2.2537,0.597923 2.953126,-0.447656 l 4.399218,-6.445313 A 6,6 0 0 1 16.799637,13.300837 6,6 0 0 1 14.392606,12.7899 Z"
     id="path2" />
</svg>
