<?xml version="1.0" encoding="UTF-8" standalone="no"?>
<svg
   width="24"
   height="24"
   version="1.1"
   id="svg1"
   sodipodi:docname="protonvpn-tray.svg"
   xmlns:inkscape="http://www.inkscape.org/namespaces/inkscape"
   xmlns:sodipodi="http://sodipodi.sourceforge.net/DTD/sodipodi-0.dtd"
   xmlns="http://www.w3.org/2000/svg"
   xmlns:svg="http://www.w3.org/2000/svg">
  <sodipodi:namedview
     id="namedview1"
     pagecolor="#ffffff"
     bordercolor="#000000"
     borderopacity="0.25"
     inkscape:showpageshadow="2"
     inkscape:pageopacity="0.0"
     inkscape:pagecheckerboard="0"
     inkscape:deskcolor="#d1d1d1" />
  <defs
     id="defs1">
    <style
       id="current-color-scheme"
       type="text/css">.ColorScheme-Text {color:#d8dee9} .ColorScheme-Highlight {color:#3b4252}</style>
  </defs>
  <path
     style="fill:currentColor;stroke-width:1.2"
     class="ColorScheme-Text"
     d="m 4.4788235,3.6005859 c -0.050131,-0.00118 -0.098674,2.791e-4 -0.1476563,0.00234 -1.4694975,0.062362 -2.4443056,1.5826729 -1.6429687,2.8429688 l 0.077344,0.077344 12.9000005,1.4179685 c 0.390152,0.03408 0.680171,0.2409636 0.839061,0.5179691 0.0014,0.0024 0.0034,0.00456 0.0047,0.00708 0.185376,0.32895 0.183718,0.755118 -0.06797,1.117968 l -5.128118,7.7671907 -0.698437,0.970313 c -0.310822,0.373422 -0.9340714,0.37311 -1.1671873,-0.075 l 0.7007803,1.195313 c 0.155411,0.224052 0.310996,0.373287 0.466407,0.522656 0.85476,0.672157 2.253776,0.597923 2.953125,-0.447656 l 7.69217,-11.2758306 c 0.434697,-0.6077028 0.423679,-1.3307548 0.117192,-1.9148432 l 0.0024,-0.00234 c -0.0072,-0.013655 -0.01595,-0.026344 -0.02344,-0.039844 -0.0073,-0.013205 -0.01345,-0.026794 -0.0211,-0.039844 -0.0062,-0.010656 -0.0141,-0.020335 -0.0211,-0.030469 C 21.003281,5.7046818 20.460269,5.3213981 19.783511,5.2529296 L 4.6311672,3.6099609 c -0.050994,-0.00467 -0.1022124,-0.0082 -0.1523437,-0.00937 z m -1.0125,4.2070309 5.5921874,9.7593762 c 0.7009535,-0.113268 0.8318279,-0.294351 1.2656251,-0.897657 l 4.992188,-7.5585937 z"
     id="path1" />
</svg>
