<?xml version="1.0" encoding="UTF-8" standalone="no"?>
<svg
   width="24"
   height="24"
   version="1.1"
   id="svg2"
   sodipodi:docname="protonvpngui-no-network.svg"
   xmlns:inkscape="http://www.inkscape.org/namespaces/inkscape"
   xmlns:sodipodi="http://sodipodi.sourceforge.net/DTD/sodipodi-0.dtd"
   xmlns="http://www.w3.org/2000/svg"
   xmlns:svg="http://www.w3.org/2000/svg">
  <sodipodi:namedview
     id="namedview2"
     pagecolor="#ffffff"
     bordercolor="#000000"
     borderopacity="0.25"
     inkscape:showpageshadow="2"
     inkscape:pageopacity="0.0"
     inkscape:pagecheckerboard="0"
     inkscape:deskcolor="#d1d1d1" />
  <defs
     id="defs1">
    <style
       id="current-color-scheme"
       type="text/css">.ColorScheme-Text {color:#d8dee9} .ColorScheme-Highlight {color:#3b4252}</style>
  </defs>
  <path
     style="fill:currentColor;stroke-width:1.2"
     class="ColorScheme-Text"
     d="m 16.236581,3.60064 c -0.06065,9.825e-4 -0.121883,0.00338 -0.182813,0.00703 -0.278538,0.016724 -0.561373,0.063248 -0.841406,0.1382813 -2.240275,0.6003042 -3.56973,2.9019122 -2.969531,5.1421882 0.600241,2.2401695 2.901912,3.5698345 5.142187,2.9695315 2.240276,-0.600305 3.56973,-2.9019127 2.969531,-5.1421885 C 19.845753,4.8165953 18.116866,3.5701834 16.236581,3.60064 Z m 0.06328,1.2 a 0.6,0.6 0 0 1 0.6,0.6 v 3.0000003 a 0.6,0.6 0 0 1 -0.6,0.6 0.6,0.6 0 0 1 -0.6,-0.6 V 5.40064 a 0.6,0.6 0 0 1 0.6,-0.6 z m 0,4.8000006 a 0.6,0.6 0 0 1 0.6,0.6000004 0.6,0.6 0 0 1 -0.6,0.6 0.6,0.6 0 0 1 -0.6,-0.6 0.6,0.6 0 0 1 0.6,-0.6000004 z"
     id="path1" />
  <path
     style="opacity:0.35;fill:currentColor;stroke-width:1.2"
     class="ColorScheme-Text"
     d="M 4.5787683,3.60064 C 4.5286371,3.5994609 4.4800947,3.6009229 4.431112,3.60298 2.9616146,3.6653416 1.9868065,5.1856529 2.7881433,6.4459489 l 0.077344,0.077344 8.0625007,0.8859374 c 0.07906,-1.0969583 0.491185,-2.1436237 1.18125,-3 L 4.731112,3.610015 C 4.680118,3.605347 4.6288996,3.601819 4.5787683,3.600643 Z m -1.0125,4.2070313 5.5921874,9.7593757 c 0.7009535,-0.113268 0.8318279,-0.29435 1.2656253,-0.897656 l 2.889844,-4.375782 C 12.049794,11.453797 11.19742,10.120791 10.965488,8.6209531 Z M 18.228768,12.830328 c -0.614924,0.240315 -1.268706,0.365829 -1.928906,0.370313 -0.652666,-0.0048 -1.299055,-0.127887 -1.907813,-0.363282 l -2.978906,4.514062 -0.698437,0.970313 c -0.310822,0.373422 -0.9340708,0.37311 -1.1671877,-0.075 l 0.7007807,1.195313 c 0.155411,0.224052 0.310996,0.373288 0.466407,0.522656 0.85476,0.672158 2.253776,0.597923 2.953125,-0.447656 z"
     id="path2" />
</svg>
