<?xml version="1.0" encoding="UTF-8" standalone="no"?>
<svg
   width="24"
   height="24"
   version="1.1"
   id="svg1"
   sodipodi:docname="pushbullet-indicator-sync1-light.svg"
   xmlns:inkscape="http://www.inkscape.org/namespaces/inkscape"
   xmlns:sodipodi="http://sodipodi.sourceforge.net/DTD/sodipodi-0.dtd"
   xmlns="http://www.w3.org/2000/svg"
   xmlns:svg="http://www.w3.org/2000/svg">
  <sodipodi:namedview
     id="namedview1"
     pagecolor="#ffffff"
     bordercolor="#000000"
     borderopacity="0.25"
     inkscape:showpageshadow="2"
     inkscape:pageopacity="0.0"
     inkscape:pagecheckerboard="0"
     inkscape:deskcolor="#d1d1d1" />
  <defs
     id="defs1">
    <style
       id="current-color-scheme"
       type="text/css">.ColorScheme-Text {color:#d8dee9} .ColorScheme-Highlight {color:#3b4252}</style>
  </defs>
  <path
     style="fill:currentColor;stroke-width:1.2"
     class="ColorScheme-Text"
     d="m 2.3997429,4.800018 v 14.4 h 2.4 v -14.4 z m 4.8,0 v 14.4 l 5.1024001,-0.03984 c 3.51756,-0.03916 3.8496,-0.08634 5.33676,-0.810936 3.2424,-1.5798 4.77564,-5.40564 3.52968,-8.81256 -0.8232,-2.25012 -2.6976,-3.91536 -5.0844,-4.52124 -0.75,-0.19032 -1.2252,-0.21564 -4.1388,-0.21564 H 7.1991429 Z m 7.5164401,2.3016 c 0.957084,0.045576 2.01672,0.444024 3.0774,1.50468 1.25808,1.25808 1.57464,2.5218 1.48596,3.60708 l 1.0584,-1.062 0.8484,0.8484 -1.6968,1.6968 -0.8484,0.8484 -0.8484,-0.8484 -1.6968,-1.6968 0.848436,-0.848436 1.113276,1.113276 c 0.103524,-0.84174 -0.120504,-1.8174 -1.113276,-2.81016 -2.54556,-2.54556 -5.09064,0 -5.09064,0 l -0.8484,-0.84876 c 0,0 1.60464,-1.605 3.71016,-1.50468 z m -4.5588,2.35308 0.8484,0.84852 1.6968,1.6968 -0.8484,0.8484 -1.1136,-1.1136 c -0.102984,0.841812 0.120492,1.8174 1.113288,2.81016 2.54556,2.54556 5.09064,0 5.09064,0 l 0.848436,0.848436 c 0,0 -3.39336,3.39408 -6.78744,0 -1.2580801,-1.25808 -1.5746401,-2.5218 -1.4859601,-3.60708 l -1.0596,1.062 -0.8484,-0.8484 1.69692,-1.6968 0.8488801,-0.84852 z"
     id="path1" />
</svg>
