<?xml version="1.0" encoding="UTF-8" standalone="no"?>
<svg
   width="24"
   height="24"
   version="1.1"
   id="svg1"
   sodipodi:docname="pushbullet-indicator-sync0-light.svg"
   xmlns:inkscape="http://www.inkscape.org/namespaces/inkscape"
   xmlns:sodipodi="http://sodipodi.sourceforge.net/DTD/sodipodi-0.dtd"
   xmlns="http://www.w3.org/2000/svg"
   xmlns:svg="http://www.w3.org/2000/svg">
  <sodipodi:namedview
     id="namedview1"
     pagecolor="#ffffff"
     bordercolor="#000000"
     borderopacity="0.25"
     inkscape:showpageshadow="2"
     inkscape:pageopacity="0.0"
     inkscape:pagecheckerboard="0"
     inkscape:deskcolor="#d1d1d1" />
  <defs
     id="defs1">
    <style
       id="current-color-scheme"
       type="text/css">.ColorScheme-Text {color:#d8dee9} .ColorScheme-Highlight {color:#3b4252}</style>
  </defs>
  <path
     style="fill:currentColor;stroke-width:1.2"
     class="ColorScheme-Text"
     d="m 2.3997429,4.800018 v 14.4 h 2.4 v -14.4 z m 4.8,0 v 14.4 l 5.1024001,-0.03984 c 3.51756,-0.03916 3.8496,-0.08634 5.33676,-0.810936 3.2424,-1.5798 4.77564,-5.40564 3.52968,-8.81256 -0.8232,-2.25012 -2.6976,-3.91536 -5.0844,-4.52124 -0.75,-0.19032 -1.2252,-0.21564 -4.1388,-0.21564 H 7.1991429 Z m 7.2000001,2.4 c 1.77912,0 2.89536,0.669948 3.6,1.5 v -1.5 h 1.2 v 2.4 1.2 h -1.2 -2.4 v -1.2 h 1.575 c -0.522,-0.6684 -1.371,-1.2 -2.775,-1.2 -3.6,0 -3.6,3.6 -3.6,3.6 H 9.5997429 c 0,0 0,-4.8 4.8000001,-4.8 z m 3.6,4.8 h 1.2 c 0,0 0,4.8 -4.8,4.8 -1.77912,-1.2e-5 -2.89536,-0.66996 -3.6,-1.5 v 1.5 H 9.5997429 v -2.4 -1.2 h 1.2000001 2.4 v 1.2 h -1.575 c 0.522432,0.668064 1.371,1.2 2.775,1.2 3.6,1.2e-5 3.6,-3.6 3.6,-3.6 z"
     id="path1" />
</svg>
