<?xml version="1.0" encoding="UTF-8" standalone="no"?>
<svg
   width="24"
   height="24"
   version="1.1"
   id="svg1"
   sodipodi:docname="qalculate-tray.svg"
   xmlns:inkscape="http://www.inkscape.org/namespaces/inkscape"
   xmlns:sodipodi="http://sodipodi.sourceforge.net/DTD/sodipodi-0.dtd"
   xmlns="http://www.w3.org/2000/svg"
   xmlns:svg="http://www.w3.org/2000/svg">
  <sodipodi:namedview
     id="namedview1"
     pagecolor="#ffffff"
     bordercolor="#000000"
     borderopacity="0.25"
     inkscape:showpageshadow="2"
     inkscape:pageopacity="0.0"
     inkscape:pagecheckerboard="0"
     inkscape:deskcolor="#d1d1d1" />
  <defs
     id="defs1">
    <style
       id="current-color-scheme"
       type="text/css">.ColorScheme-Text {color:#d8dee9} .ColorScheme-Highlight {color:#3b4252}</style>
  </defs>
  <path
     style="fill:currentColor;stroke-width:1.2"
     class="ColorScheme-Text"
     d="M 3.8390628,2.4 C 3.0413016,2.4 2.4,3.0413024 2.4,3.8390626 V 20.160937 C 2.4,20.958697 3.0413016,21.6 3.8390628,21.6 H 12 20.160937 C 20.958697,21.6 21.6,20.958697 21.6,20.160937 V 3.8390626 C 21.6,3.0413024 20.958697,2.4 20.160937,2.4 H 12 Z M 4.8,4.8 H 12 19.2 V 19.2 H 12 4.8 Z m 3.5390628,1.1671874 c -0.2329152,0 -0.555732,0.086366 -1.1835948,0.3093752 -0.060756,0.021226 -0.06186,0.020933 -0.1125,0.042187 l 0.03984,0.159375 c 0.3949488,-0.106194 0.4659132,-0.1171872 0.5671884,-0.1171872 0.2531664,0 0.3152484,0.096424 0.4570308,0.7335938 L 8.3999964,8.4 7.5703092,9.6421872 C 7.35765,9.9607692 7.1660796,10.153126 7.0546836,10.153126 c -0.060756,0 -0.163578,-0.03239 -0.2648436,-0.0961 C 6.6581976,9.982686 6.5575284,9.9515576 6.4664028,9.9515576 c -0.2025324,0 -0.344532,0.1579264 -0.344532,0.3703124 0,0.276108 0.192312,0.445313 0.50625,0.445313 0.313938,0 0.4358436,-0.09408 0.9421884,-0.73125 0.2734176,-0.3504514 0.4965276,-0.6698518 0.911718,-1.2539061 l 0.3023436,1.2750001 c 0.131646,0.552215 0.2642292,0.710156 0.588282,0.710156 0.3848268,0 0.6478092,-0.253611 1.2351562,-1.2093741 l -0.140625,-0.084372 c -0.08101,0.09558 -0.13386,0.1585055 -0.225,0.2859371 -0.232914,0.318586 -0.3519208,0.42422 -0.4734376,0.42422 C 9.6269724,10.183594 9.534948,10.047343 9.4640592,9.75 9.4336752,9.63318 9.4319952,9.6107628 9.4218672,9.5789053 9.1687008,8.4957061 9.0585852,8.0061803 9.0585852,7.8468745 9.5142924,7.0185718 9.8677152,6.5624996 10.049992,6.5624996 c 0.06076,0 0.152611,0.031265 0.24375,0.084374 0.12152,0.074336 0.192456,0.096094 0.283593,0.096094 0.202535,3e-7 0.344532,-0.1590302 0.344532,-0.3820312 0,-0.2336284 -0.171805,-0.3937499 -0.414843,-0.39375 -0.445587,0 -0.8216056,0.3824493 -1.5304696,1.51875 L 8.8663944,6.9023437 C 8.7246216,6.1802108 8.6124708,5.9671876 8.3390508,5.9671876 Z M 12,9.6 v 1.2 h 6 V 9.6 Z M 8.4,13.2 C 7.6861284,13.2 7.1076096,13.400855 6.6632808,13.8 6.22137,14.199145 6,14.678479 6,15.24375 c 0,0.509888 0.1600368,0.93342 0.4781244,1.267969 0.3180648,0.334551 0.668622,0.537889 1.0546884,0.611718 l 0.00708,0.234376 H 6.6984852 c -0.2015268,0 -0.3483576,-0.03384 -0.4406244,-0.09844 C 6.1655928,17.194793 6.11523,17.081 6.105516,16.91719 H 5.9719224 V 18 H 7.856298 L 7.78833,16.954687 C 7.424124,16.827774 7.1763936,16.609902 7.0477056,16.298437 6.9190164,15.984673 6.8555172,15.636167 6.8555172,15.255469 c 0,-0.526038 0.1423908,-0.956901 0.4289064,-1.29375 0.288936,-0.339167 0.6526968,-0.508595 1.0921884,-0.508595 0.4127784,0 0.7721952,0.157382 1.0781244,0.475782 0.3083688,0.318401 0.4640628,0.778212 0.4640628,1.375781 0,0.913638 -0.3134088,1.463117 -0.9398436,1.65 L 8.8851996,18 H 10.771918 V 16.917187 H 10.63598 c -0.0048,0.126894 -0.04426,0.231003 -0.119532,0.314063 -0.07284,0.08306 -0.224014,0.126563 -0.454687,0.126563 H 9.2016048 l 0.03516,-0.234376 c 0.4662024,-0.12921 0.8366532,-0.359175 1.1085932,-0.691406 0.27438,-0.334549 0.4125,-0.74116 0.4125,-1.21875 0,-0.588335 -0.221445,-1.070013 -0.660937,-1.446094 C 9.6574284,13.388808 9.0920412,13.2 8.4000456,13.2 Z m 3.6,0 v 1.2 h 6 v -1.2 z"
     id="path1" />
</svg>
