<?xml version="1.0" encoding="UTF-8" standalone="no"?>
<svg
   width="24"
   height="24"
   version="1"
   id="svg2"
   sodipodi:docname="qbittorrent-tray-light.svg"
   xmlns:inkscape="http://www.inkscape.org/namespaces/inkscape"
   xmlns:sodipodi="http://sodipodi.sourceforge.net/DTD/sodipodi-0.dtd"
   xmlns="http://www.w3.org/2000/svg"
   xmlns:svg="http://www.w3.org/2000/svg">
  <sodipodi:namedview
     id="namedview2"
     pagecolor="#ffffff"
     bordercolor="#000000"
     borderopacity="0.25"
     inkscape:showpageshadow="2"
     inkscape:pageopacity="0.0"
     inkscape:pagecheckerboard="0"
     inkscape:deskcolor="#d1d1d1" />
  <defs
     id="defs1">
    <style
       id="current-color-scheme"
       type="text/css">.ColorScheme-Text {color:#d8dee9} .ColorScheme-Highlight {color:#3b4252}</style>
  </defs>
  <path
     style="fill:currentColor;stroke-width:1.2"
     class="ColorScheme-Text"
     d="m 14.4,2.4 a 1.2,1.2 0 0 0 -1.2,1.2 v 13.2 h 2.4 v -0.6492 c 0.7284,0.4236 1.5564,0.6468 2.4,0.6492 2.6508,0 4.8,-2.1492 4.8,-4.8 C 22.8,9.34908 20.6508,7.2 18,7.2 17.1564,7.20156 16.3296,7.42392 15.6,7.84692 V 3.6 A 1.2,1.2 0 0 0 14.4,2.4 Z M 18,9.6 c 1.326,0 2.4,1.074 2.4,2.4 0,1.326 -1.074,2.4 -2.4,2.4 -1.326,0 -2.4,-1.074 -2.4,-2.4 0,-1.326 1.074,-2.4 2.4,-2.4 z"
     id="path1" />
  <path
     style="opacity:0.35;fill:currentColor;stroke-width:1.2"
     class="ColorScheme-Text"
     d="m 6,7.2 c -2.65092,0 -4.8,2.14908 -4.8,4.8 0,2.6508 2.14908,4.8 4.8,4.8 0.843,-0.0012 1.67076,-0.2256 2.4,-0.6492 V 20.4 a 1.2,1.2 0 0 0 1.2,1.2 1.2,1.2 0 0 0 1.2,-1.2 V 7.2 H 8.4 V 7.8492 C 7.671,7.42536 6.84324,7.20228 6,7.2 Z m 0,2.4 c 1.32552,0 2.4,1.074 2.4,2.4 0,1.326 -1.07448,2.4 -2.4,2.4 C 4.67448,14.4 3.6,13.326 3.6,12 3.6,10.674 4.67448,9.6 6,9.6 Z"
     id="path2" />
</svg>
