<?xml version="1.0" encoding="UTF-8" standalone="no"?>
<svg
   width="24"
   height="24"
   version="1.1"
   id="svg1"
   sodipodi:docname="qelectrotech-indicator.svg"
   xmlns:inkscape="http://www.inkscape.org/namespaces/inkscape"
   xmlns:sodipodi="http://sodipodi.sourceforge.net/DTD/sodipodi-0.dtd"
   xmlns="http://www.w3.org/2000/svg"
   xmlns:svg="http://www.w3.org/2000/svg">
  <sodipodi:namedview
     id="namedview1"
     pagecolor="#ffffff"
     bordercolor="#000000"
     borderopacity="0.25"
     inkscape:showpageshadow="2"
     inkscape:pageopacity="0.0"
     inkscape:pagecheckerboard="0"
     inkscape:deskcolor="#d1d1d1" />
  <defs
     id="defs1">
    <style
       id="current-color-scheme"
       type="text/css">.ColorScheme-Text {color:#d8dee9} .ColorScheme-Highlight {color:#3b4252}</style>
  </defs>
  <g
     transform="translate(0 -1028.4)"
     style=""
     id="g1">
    <path
       style="fill:currentColor;stroke-width:1.2"
       class="ColorScheme-Text"
       d="m 10.9,1030.7 a 8.4,9.6 0 0 0 -8.4,9.6 8.4,9.6 0 0 0 8.4,9.6 8.4,9.6 0 0 0 4.55388,-1.5422 l -1.53744,-1.8446 a 6,7.2 0 0 1 -3.0168,0.96 6,7.2 0 0 1 -6,-7.2 6,7.2 0 0 1 6,-7.2 6,7.2 0 0 1 5.08596,3.3891 l 3.29064,3.2906 a 8.4,9.6 0 0 0 -8.376,-9 z m 3.6,6 2.4,5.4 -3.6,1.8 6,7.2 -2.4,-6 3.6,-2.4 z"
       id="path1" />
  </g>
</svg>
