<?xml version="1.0" encoding="UTF-8" standalone="no"?>
<svg
   width="24"
   height="24"
   version="1.1"
   id="svg1"
   sodipodi:docname="qnapi-panel.svg"
   xmlns:inkscape="http://www.inkscape.org/namespaces/inkscape"
   xmlns:sodipodi="http://sodipodi.sourceforge.net/DTD/sodipodi-0.dtd"
   xmlns="http://www.w3.org/2000/svg"
   xmlns:svg="http://www.w3.org/2000/svg">
  <sodipodi:namedview
     id="namedview1"
     pagecolor="#ffffff"
     bordercolor="#000000"
     borderopacity="0.25"
     inkscape:showpageshadow="2"
     inkscape:pageopacity="0.0"
     inkscape:pagecheckerboard="0"
     inkscape:deskcolor="#d1d1d1" />
  <defs
     id="defs1">
    <style
       id="current-color-scheme"
       type="text/css">.ColorScheme-Text {color:#d8dee9} .ColorScheme-Highlight {color:#3b4252}</style>
  </defs>
  <path
     style="fill:currentColor;stroke-width:1.2"
     class="ColorScheme-Text"
     d="m 12,2.3214767 a 9.6,9.6 0 0 0 -9.6,9.6000003 9.6,9.6 0 0 0 9.6,9.6 9.6,9.6 0 0 0 4.938281,-1.378126 c 0.682067,0.761776 1.294724,1.55482 1.764845,2.317969 l 2.336718,-1.436718 C 20.490803,20.133338 19.813429,19.249428 19.066406,18.404289 A 9.6,9.6 0 0 0 21.6,11.921477 9.6,9.6 0 0 0 12,2.3214767 Z m 0,3.4289063 a 5.4857143,6.1714285 0 0 1 5.486719,6.171094 5.4857143,6.1714285 0 0 1 -1.207032,3.85078 c -0.07868,-0.06151 -0.152711,-0.132123 -0.232031,-0.192187 -1.983634,-1.502063 -4.15398,-2.617677 -6.3796868,-2.444531 L 9.88125,15.870696 c 1.000936,-0.07787 2.645435,0.567104 4.25625,1.727343 A 5.4857143,6.1714285 0 0 1 12,18.09257 5.4857143,6.1714285 0 0 1 6.5132813,11.921477 5.4857143,6.1714285 0 0 1 12,5.750383 Z"
     id="path1" />
</svg>
