<?xml version="1.0" encoding="UTF-8" standalone="no"?>
<svg
   width="24"
   height="24"
   version="1.1"
   id="svg1"
   sodipodi:docname="qomp-play-panel.svg"
   xmlns:inkscape="http://www.inkscape.org/namespaces/inkscape"
   xmlns:sodipodi="http://sodipodi.sourceforge.net/DTD/sodipodi-0.dtd"
   xmlns="http://www.w3.org/2000/svg"
   xmlns:svg="http://www.w3.org/2000/svg">
  <sodipodi:namedview
     id="namedview1"
     pagecolor="#ffffff"
     bordercolor="#000000"
     borderopacity="0.25"
     inkscape:showpageshadow="2"
     inkscape:pageopacity="0.0"
     inkscape:pagecheckerboard="0"
     inkscape:deskcolor="#d1d1d1" />
  <defs
     id="defs1">
    <style
       id="current-color-scheme"
       type="text/css">.ColorScheme-Text {color:#d8dee9} .ColorScheme-Highlight {color:#3b4252}</style>
  </defs>
  <path
     style="fill:currentColor;stroke-width:1.2"
     class="ColorScheme-Text"
     d="m 11.800079,2.2998872 c -5.3184002,0 -9.6000002,4.2816 -9.6000002,9.6000008 0,5.3184 4.2816,9.6 9.6000002,9.6 1.752759,0 3.388609,-0.472791 4.8,-1.286719 v -1.108594 -1.849218 a 7.2,7.2 0 0 1 -4.8,1.844531 7.2,7.2 0 0 1 -7.2000002,-7.2 7.2,7.2 0 0 1 7.2000002,-7.2000008 7.2,7.2 0 0 1 7.2,7.2000008 7.2,7.2 0 0 1 -0.424219,2.407031 c 0.316302,0.01478 0.625279,0.105792 0.890625,0.269532 l 1.279687,0.79453 c 0.416025,-1.076875 0.653907,-2.243966 0.653907,-3.471093 0,-5.3184008 -4.2816,-9.6000008 -9.6,-9.6000008 z m 3,4.7976563 -5.4000002,0.00469 v 4.9124955 c -0.192,-0.072 -0.384,-0.11484 -0.6,-0.11484 -0.99408,0 -1.8,0.80592 -1.8,1.8 0,0.99408 0.80592,1.8 1.8,1.8 0.99408,0 1.8000002,-0.80592 1.8000002,-1.8 V 9.4998872 h 3.6 v 2.5125008 c -0.192,-0.072 -0.384,-0.11484 -0.6,-0.11484 -0.99408,0 -1.8,0.80592 -1.8,1.8 0,0.99408 0.80592,1.8 1.8,1.8 0.99408,0 1.8,-0.80592 1.8,-1.8 V 7.0975435 Z m 3.707813,8.4023445 a 0.69145318,0.74138962 0 0 0 -0.707813,0.740625 v 2.859375 2.859374 a 0.69145318,0.74138962 0 0 0 1.035937,0.642189 l 2.308594,-1.429689 2.308594,-1.429687 a 0.69145318,0.74138962 0 0 0 0,-1.284374 L 21.14461,17.028013 18.836016,15.598325 a 0.69145318,0.74138962 0 0 0 -0.328124,-0.09844 z"
     id="path1" />
</svg>
