<?xml version="1.0" encoding="UTF-8" standalone="no"?>
<svg
   width="24"
   height="24"
   version="1.1"
   id="svg1"
   sodipodi:docname="qomp-pause-panel.svg"
   xmlns:inkscape="http://www.inkscape.org/namespaces/inkscape"
   xmlns:sodipodi="http://sodipodi.sourceforge.net/DTD/sodipodi-0.dtd"
   xmlns="http://www.w3.org/2000/svg"
   xmlns:svg="http://www.w3.org/2000/svg">
  <sodipodi:namedview
     id="namedview1"
     pagecolor="#ffffff"
     bordercolor="#000000"
     borderopacity="0.25"
     inkscape:showpageshadow="2"
     inkscape:pageopacity="0.0"
     inkscape:pagecheckerboard="0"
     inkscape:deskcolor="#d1d1d1" />
  <defs
     id="defs1">
    <style
       id="current-color-scheme"
       type="text/css">.ColorScheme-Text {color:#d8dee9} .ColorScheme-Highlight {color:#3b4252}</style>
  </defs>
  <path
     style="fill:currentColor;stroke-width:1.2"
     class="ColorScheme-Text"
     d="m 11.799989,2.3002649 c -5.3183995,0 -9.5999995,4.2816 -9.5999995,9.6000001 0,5.3184 4.2816,9.6 9.5999995,9.6 1.75276,0 3.38861,-0.47279 4.8,-1.286719 v -2.957812 a 7.2,7.2 0 0 1 -4.8,1.844531 7.2,7.2 0 0 1 -7.1999995,-7.2 7.2,7.2 0 0 1 7.1999995,-7.2000001 7.2,7.2 0 0 1 7.2,7.2000001 7.2,7.2 0 0 1 -0.43828,2.446874 c 0.130854,-0.02478 0.263827,-0.04475 0.40078,-0.04687 0.763479,-0.01188 1.377958,0.39436 1.828126,0.953907 0.387788,-1.044477 0.609374,-2.171207 0.609374,-3.353909 0,-5.3184001 -4.2816,-9.6000001 -9.6,-9.6000001 z m 3,4.7976562 -5.3999995,0.00469 v 4.9124959 c -0.192,-0.072 -0.384,-0.11484 -0.6,-0.11484 -0.99408,0 -1.8,0.80592 -1.8,1.8 0,0.99408 0.80592,1.8 1.8,1.8 0.99408,0 1.7999995,-0.80592 1.7999995,-1.8 V 9.5002687 h 3.6 v 2.5125003 c -0.192,-0.072 -0.384,-0.11484 -0.6,-0.11484 -0.99408,0 -1.8,0.80592 -1.8,1.8 0,0.99408 0.80592,1.8 1.8,1.8 0.99408,0 1.8,-0.80592 1.8,-1.8 V 7.0979211 Z m 4.18125,8.4023439 a 1.20012,1.1945382 0 0 0 -1.18125,1.211719 v 4.776562 a 1.20012,1.1945382 0 1 0 2.4,0 v -4.776562 a 1.20012,1.1945382 0 0 0 -1.21875,-1.211719 z m 3.6,0 a 1.20012,1.1945382 0 0 0 -1.18125,1.211719 v 4.776562 a 1.20012,1.1945382 0 1 0 2.4,0 v -4.776562 a 1.20012,1.1945382 0 0 0 -1.21875,-1.211719 z"
     id="path1" />
</svg>
