<?xml version="1.0" encoding="UTF-8" standalone="no"?>
<svg
   width="24"
   height="24"
   version="1.1"
   id="svg1"
   sodipodi:docname="qomp-stop-panel.svg"
   xmlns:inkscape="http://www.inkscape.org/namespaces/inkscape"
   xmlns:sodipodi="http://sodipodi.sourceforge.net/DTD/sodipodi-0.dtd"
   xmlns="http://www.w3.org/2000/svg"
   xmlns:svg="http://www.w3.org/2000/svg">
  <sodipodi:namedview
     id="namedview1"
     pagecolor="#ffffff"
     bordercolor="#000000"
     borderopacity="0.25"
     inkscape:showpageshadow="2"
     inkscape:pageopacity="0.0"
     inkscape:pagecheckerboard="0"
     inkscape:deskcolor="#d1d1d1" />
  <defs
     id="defs1">
    <style
       id="current-color-scheme"
       type="text/css">.ColorScheme-Text {color:#d8dee9} .ColorScheme-Highlight {color:#3b4252}</style>
  </defs>
  <path
     style="fill:currentColor;stroke-width:1.2"
     class="ColorScheme-Text"
     d="m 12,2.4 c -5.3184,0 -9.6,4.2816 -9.6,9.6 0,5.3184 4.2816,9.6 9.6,9.6 5.3184,0 9.6,-4.2816 9.6,-9.6 0,-5.3184 -4.2816,-9.6 -9.6,-9.6 z m 0,2.4 A 7.2,7.2 0 0 1 19.2,12 7.2,7.2 0 0 1 12,19.2 7.2,7.2 0 0 1 4.8,12 7.2,7.2 0 0 1 12,4.8 Z m 3,2.3976563 -5.4,0.00469 V 12.114848 C 9.408,12.042844 9.216,12 9,12 c -0.99408,0 -1.8,0.80592 -1.8,1.8 0,0.99408 0.80592,1.8 1.8,1.8 0.99408,0 1.8,-0.80592 1.8,-1.8 V 9.6 h 3.6 v 2.5125 c -0.192,-0.072 -0.384,-0.11484 -0.6,-0.11484 -0.99408,0 -1.8,0.80592 -1.8,1.8 0,0.99408 0.80592,1.8 1.8,1.8 0.99408,0 1.8,-0.80592 1.8,-1.8 V 7.1976599 H 15 Z"
     id="path1" />
</svg>
