<?xml version="1.0" encoding="UTF-8" standalone="no"?>
<svg
   width="24"
   height="24"
   version="1.1"
   id="svg1"
   sodipodi:docname="qtox-online.svg"
   xmlns:inkscape="http://www.inkscape.org/namespaces/inkscape"
   xmlns:sodipodi="http://sodipodi.sourceforge.net/DTD/sodipodi-0.dtd"
   xmlns="http://www.w3.org/2000/svg"
   xmlns:svg="http://www.w3.org/2000/svg">
  <sodipodi:namedview
     id="namedview1"
     pagecolor="#ffffff"
     bordercolor="#000000"
     borderopacity="0.25"
     inkscape:showpageshadow="2"
     inkscape:pageopacity="0.0"
     inkscape:pagecheckerboard="0"
     inkscape:deskcolor="#d1d1d1" />
  <defs
     id="defs1">
    <style
       id="current-color-scheme"
       type="text/css">.ColorScheme-Text {color:#d8dee9} .ColorScheme-Highlight {color:#3b4252}</style>
  </defs>
  <g
     style=""
     id="g1">
    <path
       style="fill:currentColor;stroke-width:1.2"
       class="ColorScheme-Text"
       d="M 12,2.4 C 9.34932,2.4 7.2,4.54932 7.2,7.2 V 9.6 H 4.8 C 4.1371979,9.5998541 3.5998541,10.137198 3.6,10.8 v 9.6 c -1.459e-4,0.662802 0.5371979,1.200146 1.2,1.2 h 14.4 c 0.662802,1.46e-4 1.200146,-0.537198 1.2,-1.2 V 10.8 C 20.400146,10.137198 19.862802,9.5998541 19.2,9.6 H 16.8 V 7.2 C 16.8,4.54932 14.6508,2.4 12,2.4 Z m 0,2.4 c 1.32624,0 2.4,1.0746 2.4,2.4 0,0.5658 -0.1224,1.01076 -0.2832,1.32888 C 13.9572,8.847 13.6056,9.27252 13.2,9.6 12.804,9.92052 12,10.32 12,10.32 c 0,0 0.3636,-0.43716 0.5136,-0.78 C 12.3444,9.57756 12.174,9.6 12,9.6 10.67472,9.6012 9.6,8.5254 9.6,7.2 9.6,5.8746 10.67376,4.8 12,4.8 Z m 0,6 c 2.650939,6.6e-5 4.799934,2.149061 4.8,4.8 -6.6e-5,2.650939 -2.149061,4.799934 -4.8,4.8 -2.6509393,-6.6e-5 -4.7999338,-2.149061 -4.8,-4.8 6.62e-5,-2.650939 2.1490607,-4.799934 4.8,-4.8 z m 0,1.2 c -1.988225,0 -3.6,1.611775 -3.6,3.6 0,1.988225 1.611775,3.6 3.6,3.6 1.988225,0 3.6,-1.611775 3.6,-3.6 C 15.6,13.611775 13.988225,12 12,12 Z"
       id="path1" />
  </g>
</svg>
