<?xml version="1.0" encoding="UTF-8" standalone="no"?>
<svg
   width="24"
   height="24"
   version="1.1"
   id="svg2"
   sodipodi:docname="qtpass-tray.svg"
   xmlns:inkscape="http://www.inkscape.org/namespaces/inkscape"
   xmlns:sodipodi="http://sodipodi.sourceforge.net/DTD/sodipodi-0.dtd"
   xmlns="http://www.w3.org/2000/svg"
   xmlns:svg="http://www.w3.org/2000/svg">
  <sodipodi:namedview
     id="namedview2"
     pagecolor="#ffffff"
     bordercolor="#000000"
     borderopacity="0.25"
     inkscape:showpageshadow="2"
     inkscape:pageopacity="0.0"
     inkscape:pagecheckerboard="0"
     inkscape:deskcolor="#d1d1d1" />
  <defs
     id="defs1">
    <style
       id="current-color-scheme"
       type="text/css">.ColorScheme-Text {color:#d8dee9} .ColorScheme-Highlight {color:#3b4252}</style>
  </defs>
  <path
     style="opacity:0.35;fill:currentColor;stroke-width:1.2"
     class="ColorScheme-Text"
     d="M 12.000001,2.4 C 10.480009,2.4 9.1726336,3.0684 8.3629696,4.08048 7.5533056,5.092536 7.2000016,6.377784 7.2000016,7.68 V 15.6 H 9.6000012 V 7.68 c 0,-0.857784 0.246696,-1.612536 0.6370318,-2.10048 C 10.627369,5.0916 11.119993,4.8 12.000001,4.8 c 0.880008,0 1.372632,0.2916 1.762968,0.77952 0.390336,0.487944 0.637032,1.242696 0.637032,2.10048 v 7.92 h 2.4 V 7.68 c 0,-1.302216 -0.353304,-2.587464 -1.162968,-3.59952 C 14.827369,3.0684 13.519993,2.4 12.000001,2.4 Z"
     id="path1" />
  <path
     style="fill:currentColor;stroke-width:1.2"
     class="ColorScheme-Text"
     d="M 8.8304781,8.4046874 C 6.5195164,8.2997402 4.9207334,10.183003 4.8065418,12.222656 c -0.059284,1.058912 0.2817429,2.159886 1.1306346,3.046875 L 12,21.6 18.062825,15.269531 c 0.848887,-0.886978 1.189913,-1.987947 1.130634,-3.046875 C 19.079267,10.183016 17.480484,8.2997354 15.169523,8.4046874 13.854172,8.4641834 12.658946,9.2207534 12,10.410937 11.34105,9.2207432 10.145818,8.4641825 8.8304781,8.4046874 Z M 10.801481,12 H 12 13.19852 v 2.4 h -0.573511 l 1.172771,2.4 H 12 10.202221 l 1.172771,-2.4 h -0.573511 z"
     id="path2" />
</svg>
