<?xml version="1.0" encoding="UTF-8" standalone="no"?>
<svg
   width="24"
   height="24"
   version="1.1"
   id="svg1"
   sodipodi:docname="quota.svg"
   xmlns:inkscape="http://www.inkscape.org/namespaces/inkscape"
   xmlns:sodipodi="http://sodipodi.sourceforge.net/DTD/sodipodi-0.dtd"
   xmlns="http://www.w3.org/2000/svg"
   xmlns:svg="http://www.w3.org/2000/svg">
  <sodipodi:namedview
     id="namedview1"
     pagecolor="#ffffff"
     bordercolor="#000000"
     borderopacity="0.25"
     inkscape:showpageshadow="2"
     inkscape:pageopacity="0.0"
     inkscape:pagecheckerboard="0"
     inkscape:deskcolor="#d1d1d1" />
  <defs
     id="defs1">
    <style
       id="current-color-scheme"
       type="text/css">.ColorScheme-Text {color:#d8dee9} .ColorScheme-Highlight {color:#3b4252}</style>
  </defs>
  <g
     transform="translate(1,1)"
     style=""
     id="g1">
    <path
       style="fill:currentColor;stroke-width:1.2"
       class="ColorScheme-Text"
       d="m 18,14.4 a 3.6,1.2 0 0 0 -3.6,1.2 v 6 a 3.6,1.2 0 0 0 3.6,1.2 3.6,1.2 0 0 0 3.6,-1.2 v -6 A 3.6,1.2 0 0 0 18,14.4 Z m 0,1.2 a 3.6,1.2 0 0 1 2.4,0.3096 v 0.5832 A 3.6,1.2 0 0 1 18,16.8 3.6,1.2 0 0 1 15.6,16.4904 V 15.9072 A 3.6,1.2 0 0 1 18,15.6 Z m -2.4,2.0928 A 3.6,1.2 0 0 0 18,18 3.6,1.2 0 0 0 20.4,17.6928 v 1.2 A 3.6,1.2 0 0 1 18,19.2 3.6,1.2 0 0 1 15.6,18.8904 Z m 0,2.4 A 3.6,1.2 0 0 0 18,20.4 3.6,1.2 0 0 0 20.4,20.0928 v 1.2 A 3.6,1.2 0 0 1 18,21.6 3.6,1.2 0 0 1 15.6,21.2904 Z M 3.6,1.2 C 2.4,1.2 2.4,2.4 2.4,2.4 v 16.8 c 0,0 0,1.2 1.2,1.2 h 9.6 V 15.0768 A 6,6 0 0 1 10.8,15.6 h -6 v -6 a 6,6 0 0 1 6,-6 6,6 0 0 1 6,6 6,6 0 0 1 -1.224,3.6 H 19.2 V 2.4 c 0,0 0,-1.2 -1.2,-1.2 z M 10.8,6 A 3.6,3.6 0 0 0 7.2,9.6 3.6,3.6 0 0 0 10.8,13.2 3.6,3.6 0 0 0 14.4,9.6 3.6,3.6 0 0 0 10.8,6 Z"
       id="path1" />
  </g>
</svg>
