<?xml version="1.0" encoding="UTF-8" standalone="no"?>
<svg
   width="24"
   height="24"
   version="1.1"
   id="svg1"
   sodipodi:docname="radiotray_on.svg"
   xmlns:inkscape="http://www.inkscape.org/namespaces/inkscape"
   xmlns:sodipodi="http://sodipodi.sourceforge.net/DTD/sodipodi-0.dtd"
   xmlns="http://www.w3.org/2000/svg"
   xmlns:svg="http://www.w3.org/2000/svg">
  <sodipodi:namedview
     id="namedview1"
     pagecolor="#ffffff"
     bordercolor="#000000"
     borderopacity="0.25"
     inkscape:showpageshadow="2"
     inkscape:pageopacity="0.0"
     inkscape:pagecheckerboard="0"
     inkscape:deskcolor="#d1d1d1" />
  <defs
     id="defs1">
    <style
       id="current-color-scheme"
       type="text/css">.ColorScheme-Text {color:#d8dee9} .ColorScheme-Highlight {color:#3b4252}</style>
  </defs>
  <path
     style="fill:currentColor;stroke-width:1.2"
     class="ColorScheme-Text"
     d="M 2.7421874,3.6 C 1.8874445,3.6 1.2,4.3474051 1.2,5.278125 V 18.721874 C 1.2,19.652596 1.8874445,20.4 2.7421874,20.4 H 21.257813 C 22.112556,20.4 22.8,19.652596 22.8,18.721874 V 5.278125 C 22.8,4.347405 22.112556,3.6 21.257813,3.6 Z M 8.4,7.2 c 2.65088,0 4.8,2.1491196 4.8,4.8 0,2.650879 -2.14912,4.8 -4.8,4.8 C 5.7491196,16.8 3.6,14.650879 3.6,12 3.6,9.3491196 5.7491196,7.2000001 8.4,7.2 Z m 6,0 h 6 v 1.2 h -6 z m 0,2.4 h 6 v 1.2 h -6 z m 0,2.4 h 6 v 1.2 h -6 z m 1.2,2.4 c 0.662742,0 1.2,0.537258 1.2,1.2 0,0.662742 -0.537258,1.2 -1.2,1.2 -0.662742,0 -1.2,-0.537258 -1.2,-1.2 0,-0.662742 0.537258,-1.2 1.2,-1.2 z m 3.6,0 c 0.662742,0 1.2,0.537258 1.2,1.2 0,0.662742 -0.537258,1.2 -1.2,1.2 -0.662742,0 -1.2,-0.537258 -1.2,-1.2 0,-0.662742 0.537258,-1.2 1.2,-1.2 z"
     id="path1" />
  <circle
     style="fill:currentColor;stroke-width:1.2"
     class="ColorScheme-Text"
     cx="8.3999996"
     cy="12"
     r="2.4000001"
     id="circle1" />
</svg>
