<?xml version="1.0" encoding="UTF-8" standalone="no"?>
<svg
   width="24"
   height="24"
   version="1.1"
   id="svg1"
   sodipodi:docname="rambox-inactive.svg"
   xmlns:inkscape="http://www.inkscape.org/namespaces/inkscape"
   xmlns:sodipodi="http://sodipodi.sourceforge.net/DTD/sodipodi-0.dtd"
   xmlns="http://www.w3.org/2000/svg"
   xmlns:svg="http://www.w3.org/2000/svg">
  <sodipodi:namedview
     id="namedview1"
     pagecolor="#ffffff"
     bordercolor="#000000"
     borderopacity="0.25"
     inkscape:showpageshadow="2"
     inkscape:pageopacity="0.0"
     inkscape:pagecheckerboard="0"
     inkscape:deskcolor="#d1d1d1" />
  <defs
     id="defs1">
    <style
       id="current-color-scheme"
       type="text/css">.ColorScheme-Text {color:#d8dee9} .ColorScheme-Highlight {color:#3b4252}</style>
  </defs>
  <path
     style="opacity:0.35;fill:currentColor;stroke-width:1.2"
     class="ColorScheme-Text"
     d="M 9.8671872,3.5 C 7.0050662,3.5 4.8,5.6861743 4.8,8.5484372 v 0.588282 c 0,2.1862118 1.3547225,4.0599218 3.271875,4.8234368 V 12.335937 12.047656 C 7.183611,11.43639 6.6,10.294324 6.6,9.1367192 V 8.5484372 C 6.6,6.680616 7.9993658,5.3 9.8671872,5.3 H 14.132813 C 16.000633,5.3 17.4,6.680616 17.4,8.5484372 v 0.588282 C 17.4,11.00454 16.000625,12.505483 14.132813,12.5 H 12 11.313281 10.753126 C 10.614452,12.107775 10.376954,11.900042 9.9609372,11.9 9.4187258,11.9 9,12.121851 9,12.664063 v 6.032811 C 9,19.14526 8.4122585,19.554896 7.9757813,19.657813 7.3482137,19.80581 6.6,19.329036 6.6,18.725 v -2.500781 -0.99375 C 6.6,14.701422 6.2899841,14.3 5.7609374,14.3 5.2320332,14.3 4.8,14.701422 4.8,15.230469 v 3.384375 C 4.8,20.20184 6.1590984,21.5 7.7460937,21.5 c 1.5869964,0 3.0632823,-1.29816 3.0632823,-2.885156 V 16.68125 16.254687 15.371094 14.986719 14.3 h 2.378905 v 4.314844 c 0,1.586996 1.47863,2.885156 3.065625,2.885156 1.586996,0 2.986019,-1.298663 2.946094,-2.885156 v -2.390625 -0.99375 C 19.2,14.701422 18.866545,14.3 18.3375,14.3 17.808596,14.3 17.4,14.701422 17.4,15.230469 v 3.375 c 0,0.604036 -0.566447,0.975 -1.2,0.975 -0.803147,0 -1.218409,-0.555119 -1.2,-1.003125 v -2.920313 -1.396875 -0.06563 c 2.305574,-0.528334 4.2,-2.594174 4.2,-5.0578088 v -0.58828 C 19.2,5.6861743 16.994934,3.5 14.132813,3.5 Z M 3.3,10.702344 c -0.4951537,0 -0.9,0.431409 -0.9,0.958593 v 3.372657 c 0,1.245634 0.7538341,2.312433 1.8,2.709375 v -2.85 -2.240625 -0.991407 c 0,-0.527184 -0.4049782,-0.958593 -0.9,-0.958593 z m 17.4,0 c -0.495152,0 -0.9,0.431409 -0.9,0.958593 v 6.082032 c 1.046167,-0.396942 1.8,-1.463741 1.8,-2.709375 v -2.38125 -0.991407 c 0,-0.527184 -0.404977,-0.958593 -0.9,-0.958593 z"
     id="path1" />
</svg>
