<?xml version="1.0" encoding="UTF-8" standalone="no"?>
<svg
   width="24"
   height="24"
   version="1.1"
   id="svg1"
   sodipodi:docname="rare-tray.svg"
   xmlns:inkscape="http://www.inkscape.org/namespaces/inkscape"
   xmlns:sodipodi="http://sodipodi.sourceforge.net/DTD/sodipodi-0.dtd"
   xmlns="http://www.w3.org/2000/svg"
   xmlns:svg="http://www.w3.org/2000/svg">
  <sodipodi:namedview
     id="namedview1"
     pagecolor="#ffffff"
     bordercolor="#000000"
     borderopacity="0.25"
     inkscape:showpageshadow="2"
     inkscape:pageopacity="0.0"
     inkscape:pagecheckerboard="0"
     inkscape:deskcolor="#d1d1d1" />
  <defs
     id="defs1">
    <style
       id="current-color-scheme"
       type="text/css">.ColorScheme-Text {color:#d8dee9} .ColorScheme-Highlight {color:#3b4252}</style>
  </defs>
  <path
     style="fill:currentColor;stroke-width:1.2"
     class="ColorScheme-Text"
     d="M 6.5,6.1 C 3.9428569,6.1 2.3685208,7.7503846 1.7257813,9.2195308 1.161818,10.508614 1.1076151,11.694756 1.1023437,11.980469 H 1.1 c 0,0 0.0023,0.03954 0.00234,0.04687 C 1.102252,12.042461 1.1,12.1 1.1,12.1 h 0.00469 c 0.00908,0.275981 0.079846,1.275419 0.675,2.329687 C 2.473045,15.657915 4.0457194,16.9 6.5,16.9 c 1.4499986,0 2.7003206,-0.699974 3.801563,-1.572656 0.774655,-0.613878 1.497114,-1.337466 2.198437,-2.076563 0.701323,0.739097 1.423782,1.462685 2.198437,2.076563 C 15.79968,16.200026 17.050002,16.9 18.5,16.9 c 2.442852,0 4.010497,-1.194564 4.710937,-2.395313 0.598986,-1.026825 0.674219,-2.008561 0.684376,-2.285156 H 23.9 c 0,0 -0.0023,-0.05785 -0.0024,-0.07266 C 23.897715,12.139322 23.9,12.1 23.9,12.1 H 23.8976 C 23.8928,11.814041 23.840528,10.605646 23.278906,9.2898436 22.640527,7.7941828 21.068571,6.1 18.5,6.1 17.050002,6.1 15.79968,6.7999739 14.698437,7.6726563 13.923782,8.2865344 13.201323,9.0101212 12.5,9.7492192 11.798677,9.0101212 11.076218,8.2865344 10.301563,7.6726563 9.2003203,6.7999739 7.9499985,6.1 6.5,6.1 Z m 0,2.4 C 7.1499993,8.5 7.9246814,8.850028 8.8109374,9.5523436 9.4637958,10.069703 10.150794,10.75544 10.857031,11.5 10.150795,12.244559 9.4637959,12.930297 8.8109374,13.447656 7.9246813,14.149972 7.1499994,14.5 6.5,14.5 4.7542848,14.5 4.2269509,13.882538 3.8703126,13.250781 3.5592589,12.699776 3.5124284,12.169896 3.5046874,12.036719 3.5105534,11.87692 3.5551912,11.023976 3.9242187,10.180469 4.3314649,9.2496028 4.8571473,8.5 6.5,8.5 Z m 12,0 c 1.631424,0 2.159488,0.7676796 2.571094,1.732031 0.371784,0.871053 0.418008,1.749859 0.424219,1.919532 -0.007,0.122435 -0.05047,0.619533 -0.35625,1.14375 C 20.789508,13.894547 20.257144,14.5 18.5,14.5 17.850001,14.5 17.075319,14.149972 16.189063,13.447656 15.536204,12.930297 14.849206,12.244559 14.142969,11.5 14.849206,10.75544 15.536204,10.069703 16.189063,9.5523436 17.075319,8.850028 17.850001,8.5 18.5,8.5 Z m -12,1.2 a 0.6,0.6 0 0 0 -0.6,0.6 v 0.6 H 5.3 a 0.6,0.6 0 0 0 -0.6,0.6 0.6,0.6 0 0 0 0.6,0.6 h 0.6 v 0.6 a 0.6,0.6 0 0 0 0.6,0.6 0.6,0.6 0 0 0 0.6,-0.6 V 12.1 H 7.7 A 0.6,0.6 0 0 0 8.3,11.5 0.6,0.6 0 0 0 7.7,10.9 H 7.1 V 10.3 A 0.6,0.6 0 0 0 6.5,9.7 Z m 12,0 a 0.6,0.6 0 0 0 -0.6,0.6 0.6,0.6 0 0 0 0.6,0.6 0.6,0.6 0 0 0 0.6,-0.6 0.6,0.6 0 0 0 -0.6,-0.6 z m -1.2,1.2 a 0.6,0.6 0 0 0 -0.6,0.6 0.6,0.6 0 0 0 0.6,0.6 0.6,0.6 0 0 0 0.6,-0.6 0.6,0.6 0 0 0 -0.6,-0.6 z m 2.4,0 a 0.6,0.6 0 0 0 -0.6,0.6 0.6,0.6 0 0 0 0.6,0.6 0.6,0.6 0 0 0 0.6,-0.6 0.6,0.6 0 0 0 -0.6,-0.6 z m -1.2,1.2 a 0.6,0.6 0 0 0 -0.6,0.6 0.6,0.6 0 0 0 0.6,0.6 0.6,0.6 0 0 0 0.6,-0.6 0.6,0.6 0 0 0 -0.6,-0.6 z"
     id="path1" />
</svg>
