<?xml version="1.0" encoding="UTF-8" standalone="no"?>
<svg
   width="24"
   height="24"
   version="1.1"
   id="svg2"
   sodipodi:docname="rclonetray-connected-tray.svg"
   xmlns:inkscape="http://www.inkscape.org/namespaces/inkscape"
   xmlns:sodipodi="http://sodipodi.sourceforge.net/DTD/sodipodi-0.dtd"
   xmlns="http://www.w3.org/2000/svg"
   xmlns:svg="http://www.w3.org/2000/svg">
  <sodipodi:namedview
     id="namedview2"
     pagecolor="#ffffff"
     bordercolor="#000000"
     borderopacity="0.25"
     inkscape:showpageshadow="2"
     inkscape:pageopacity="0.0"
     inkscape:pagecheckerboard="0"
     inkscape:deskcolor="#d1d1d1" />
  <defs
     id="defs1">
    <style
       id="current-color-scheme"
       type="text/css">.ColorScheme-Text {color:#d8dee9} .ColorScheme-Highlight {color:#3b4252}</style>
  </defs>
  <path
     style="fill:currentColor;stroke-width:1.2"
     class="ColorScheme-Text"
     d="M 13.354684,2.4055358 C 12.906148,2.4313682 12.4606,2.5524499 12.032809,2.7688171 11.895637,2.8381963 11.709339,2.9447392 11.617966,3.0055358 10.707763,3.6111997 9.9230426,4.4747837 9.3796846,5.733661 9.2463287,6.0426223 9.0644485,6.5271161 9.0445285,6.6266297 9.0266245,6.7161209 8.9887996,6.7122234 8.8828097,6.6102234 8.4684076,6.211401 7.9573863,6.0027174 7.4554659,6.0289734 6.9522435,6.0553158 6.5186072,6.2680525 6.0937472,6.6969421 5.7620936,7.0317421 5.5207262,7.397732 5.3156222,7.871161 5.0484338,8.4879036 4.9195886,9.0424932 4.8468722,9.8914738 l -0.011724,0.1242182 -0.1804689,0.121875 c -1.0148518,0.682113 -1.8041551,2.342625 -2.1117187,4.040625 -0.412578,2.277782 0.08556,4.644296 1.2609376,6.138282 0.1362744,0.17321 0.4679185,0.514239 0.6210937,0.6375 0.4510812,0.362965 0.9126486,0.565022 1.453125,0.635155 h 0.00234 c 0.030948,0.004 2.8499806,0.0079 6.2648441,0.0094 6.807707,0.0031 6.34528,0.01152 6.710156,-0.103128 0.636694,-0.200155 1.271702,-0.740345 1.732031,-1.471874 0.78601,-1.249085 1.143537,-2.976453 0.970313,-4.701563 -0.2319,-2.309487 -1.322333,-4.184677 -2.189063,-4.511719 l -0.15,-0.04219 -0.0047,-0.157031 C 19.178407,9.2815716 19.107899,8.6151696 18.90234,7.6953797 18.340864,5.183045 16.339403,3.228915 14.699997,2.6164734 14.255321,2.4503502 13.803221,2.379704 13.354684,2.4055358 Z M 10.457809,8.403192 c 0.940595,-0.011172 1.859673,0.047484 2.594531,0.1804692 0.518383,0.093804 0.969423,0.2157924 1.420313,0.386718 1.038788,0.3937884 1.880683,1.0487698 2.205469,1.9054688 0.217093,0.572669 0.114216,2.243469 -0.06094,2.953126 -0.152747,0.618829 -0.552594,1.361101 -1.057031,1.809374 l 1.853904,3.5625 H 16.33359 15.466403 14.36484 l -1.047656,-2.533593 c -0.442902,0.05966 -0.887451,0.10188 -1.413281,0.15703 -0.412628,0.03221 -1.205034,0.02834 -1.750781,-0.0071 -0.2409178,-0.01561 -0.4106674,-0.0333 -0.4312498,-0.0375 -0.02058,-0.0042 -0.045576,0.0022 -0.056244,0.01406 -0.013692,0.01512 -0.00624,-0.693514 -0.00936,0.08203 l -0.00468,2.301563 -1.6148439,0.0024 -0.8367171,0.0047 0.00469,-5.8125 0.00469,-4.6124996 0.065624,-0.021096 c 0.037068,-0.01116 0.2435453,-0.052128 0.4570313,-0.091404 0.8231676,-0.1514844 1.7851863,-0.232578 2.7257815,-0.24375 z"
     id="path1" />
  <path
     style="fill:currentColor;stroke-width:1.2"
     class="ColorScheme-Text"
     d="m 11.460639,10.801539 c -0.535902,-0.0014 -1.163086,0.04708 -1.6312504,0.13125 -0.091848,0.01652 -0.1729164,0.03047 -0.1781244,0.03047 -0.00516,0 -0.018432,0.008 -0.030468,0.01876 -0.019548,0.01754 -0.021288,0.183005 -0.021096,1.647656 1.068e-4,0.916923 0.0048,1.637936 0.01176,1.647656 0.020916,0.02948 0.4166168,0.08688 0.7804678,0.1125 0.350856,0.02471 1.313508,0.009 1.657032,-0.02578 0.48538,-0.04913 0.948743,-0.157337 1.289057,-0.302344 0.408286,-0.173966 0.698282,-0.421449 0.876563,-0.745312 0.118188,-0.214706 0.167315,-0.391851 0.182813,-0.677344 0.02594,-0.477743 -0.135174,-0.874836 -0.48047,-1.18125 -0.411273,-0.36497 -1.01785,-0.561812 -1.959374,-0.6375 -0.148912,-0.012 -0.318241,-0.01826 -0.496876,-0.01876 z"
     id="path2" />
</svg>
