<?xml version="1.0" encoding="UTF-8" standalone="no"?>
<svg
   width="24"
   height="24"
   version="1.1"
   id="svg1"
   sodipodi:docname="rclonetray-tray.svg"
   xmlns:inkscape="http://www.inkscape.org/namespaces/inkscape"
   xmlns:sodipodi="http://sodipodi.sourceforge.net/DTD/sodipodi-0.dtd"
   xmlns="http://www.w3.org/2000/svg"
   xmlns:svg="http://www.w3.org/2000/svg">
  <sodipodi:namedview
     id="namedview1"
     pagecolor="#ffffff"
     bordercolor="#000000"
     borderopacity="0.25"
     inkscape:showpageshadow="2"
     inkscape:pageopacity="0.0"
     inkscape:pagecheckerboard="0"
     inkscape:deskcolor="#d1d1d1" />
  <defs
     id="defs1">
    <style
       id="current-color-scheme"
       type="text/css">.ColorScheme-Text {color:#d8dee9} .ColorScheme-Highlight {color:#3b4252}</style>
  </defs>
  <path
     style="fill:currentColor;stroke-width:1.2"
     class="ColorScheme-Text"
     d="M 13.354392,2.4053784 C 12.905856,2.4312108 12.460308,2.5522925 12.032518,2.7686597 11.895346,2.8380389 11.709047,2.9445816 11.617674,3.0053784 10.707472,3.6110423 9.9227496,4.4746262 9.3793915,5.7335034 9.2460355,6.0424649 9.0641551,6.5269585 9.0442351,6.6264721 9.0263311,6.7159633 8.9885071,6.7120657 8.8825171,6.6100657 8.4681151,6.2112433 7.9570939,6.0025597 7.4551735,6.0288157 6.9519511,6.0551581 6.5183143,6.2678948 6.0934543,6.6967844 5.7618007,7.0315844 5.5204327,7.3975744 5.3153287,7.8710033 5.0481403,8.4877452 4.9192951,9.0423348 4.8465787,9.8913156 l -0.01176,0.1242194 -0.1804692,0.121874 c -1.014852,0.682114 -1.8041544,2.342626 -2.111718,4.040626 -0.412578,2.277782 0.08556,4.644296 1.2609372,6.138282 0.1362744,0.173211 0.4679184,0.514239 0.6210936,0.6375 0.4510812,0.362965 0.912648,0.565022 1.4531244,0.635155 h 0.0024 c 0.030948,0.004 2.849982,0.0079 6.2648453,0.0094 6.807707,0.0031 6.34528,0.01152 6.710156,-0.103128 0.636694,-0.200155 1.271702,-0.740345 1.732031,-1.471874 0.78601,-1.249085 1.143537,-2.97662 0.970313,-4.70173 -0.2319,-2.309486 -1.322333,-4.18451 -2.189063,-4.511552 l -0.15,-0.04219 -0.0047,-0.157031 C 19.178137,9.2813964 19.107625,8.6150124 18.902066,7.695222 18.34059,5.1828874 16.339129,3.2287574 14.699723,2.6163158 14.255047,2.4501926 13.802947,2.3795465 13.35441,2.4053783 Z m -2.896874,5.9976564 c 0.940594,-0.011172 1.859672,0.047484 2.59453,0.180468 0.518384,0.093804 0.969423,0.2157936 1.420313,0.3867192 1.038789,0.3937884 1.880683,1.048769 2.205469,1.905469 0.217094,0.572669 0.114216,2.243469 -0.06094,2.953125 -0.152746,0.618829 -0.552594,1.361102 -1.05703,1.809375 l 1.853904,3.5625 h -1.08047 -0.867187 -1.101563 l -1.047656,-2.533593 c -0.442902,0.05966 -0.88745,0.10188 -1.413281,0.15703 -0.412628,0.03221 -1.205035,0.0283 -1.750782,-0.0071 -0.2409178,-0.01561 -0.4106674,-0.0333 -0.4312498,-0.0375 -0.02058,-0.0042 -0.045564,0.0022 -0.056244,0.01406 -0.013692,0.01512 -0.00624,-0.693513 -0.00936,0.08203 l -0.00468,2.301563 -1.6148441,0.0024 -0.8367168,0.0047 0.00468,-5.8125 0.00468,-4.6124998 0.065628,-0.021096 c 0.037068,-0.01116 0.2435448,-0.052128 0.4570308,-0.091404 0.8231676,-0.1514844 1.7851872,-0.232578 2.7257829,-0.24375 z m 1.003124,2.3976562 c -0.535902,-0.0014 -1.163086,0.04708 -1.63125,0.13125 -0.091848,0.01652 -0.1729164,0.03047 -0.1781244,0.03047 -0.00516,0 -0.018432,0.008 -0.030468,0.01876 -0.019548,0.01754 -0.021288,0.183005 -0.021096,1.647655 1.068e-4,0.916924 0.0048,1.637937 0.01176,1.647657 0.020916,0.02948 0.4166174,0.08688 0.7804684,0.1125 0.350856,0.02471 1.313508,0.009 1.657032,-0.02578 0.485379,-0.04913 0.948742,-0.157337 1.289056,-0.302344 0.408286,-0.173966 0.698283,-0.421449 0.876563,-0.745313 0.118188,-0.214705 0.167315,-0.39185 0.182813,-0.677343 0.02594,-0.477743 -0.135174,-0.874836 -0.480469,-1.18125 -0.411274,-0.364971 -1.017851,-0.561813 -1.959375,-0.6375 -0.148911,-0.012 -0.318241,-0.01826 -0.496875,-0.01876 z"
     id="path1" />
</svg>
