<?xml version="1.0" encoding="UTF-8" standalone="no"?>
<svg
   width="24"
   height="24"
   version="1.1"
   id="svg1"
   sodipodi:docname="redshift-status-on-symbolic.svg"
   xmlns:inkscape="http://www.inkscape.org/namespaces/inkscape"
   xmlns:sodipodi="http://sodipodi.sourceforge.net/DTD/sodipodi-0.dtd"
   xmlns="http://www.w3.org/2000/svg"
   xmlns:svg="http://www.w3.org/2000/svg">
  <sodipodi:namedview
     id="namedview1"
     pagecolor="#ffffff"
     bordercolor="#000000"
     borderopacity="0.25"
     inkscape:showpageshadow="2"
     inkscape:pageopacity="0.0"
     inkscape:pagecheckerboard="0"
     inkscape:deskcolor="#d1d1d1" />
  <defs
     id="defs1">
    <style
       id="current-color-scheme"
       type="text/css">.ColorScheme-Text {color:#d8dee9} .ColorScheme-Highlight {color:#3b4252}</style>
  </defs>
  <g
     transform="translate(-540 -940.36)"
     style=""
     id="g1">
    <path
       style="fill:currentColor;stroke-width:1.2"
       class="ColorScheme-Text"
       d="m 552.00001,942.75996 c -3.40848,0 -6.17148,2.77092 -6.17148,6.18684 0,2.02548 0.95332,3.79356 2.44932,4.92168 0.68813,0.52087 1.25748,1.19185 1.25748,2.11752 l 0.0647,1.17386 h 4.8 l 0.0685,-1.17386 c 0.054,-0.92416 0.56664,-1.59672 1.25352,-2.11752 1.49724,-1.12814 2.44932,-2.8962 2.44932,-4.92168 0,-3.41592 -2.76288,-6.18684 -6.17148,-6.18684 z m 0,2.47248 c 2.04396,0 3.70284,1.6674 3.70284,3.71448 0,1.16948 -0.53256,2.2458 -1.46568,2.94684 -1.39224,1.05347 -1.91988,2.23032 -2.11368,3.20916 h -0.24684 c -0.19256,-0.97879 -0.72083,-2.15568 -2.11368,-3.20916 -0.93065,-0.70169 -1.46568,-1.77792 -1.46568,-2.94684 0,-2.04708 1.65948,-3.71448 3.70284,-3.71448 z m -2.4,13.128 v 1.2 h 4.8 v -1.2 z m 1.2,2.4 v 1.2 h 2.4 v -1.2 z"
       id="path1" />
  </g>
</svg>
