<?xml version="1.0" encoding="UTF-8" standalone="no"?>
<svg
   width="24"
   height="24"
   version="1.1"
   id="svg1"
   sodipodi:docname="rememberthemilk-unseen-notification.svg"
   xmlns:inkscape="http://www.inkscape.org/namespaces/inkscape"
   xmlns:sodipodi="http://sodipodi.sourceforge.net/DTD/sodipodi-0.dtd"
   xmlns="http://www.w3.org/2000/svg"
   xmlns:svg="http://www.w3.org/2000/svg">
  <sodipodi:namedview
     id="namedview1"
     pagecolor="#ffffff"
     bordercolor="#000000"
     borderopacity="0.25"
     inkscape:showpageshadow="2"
     inkscape:pageopacity="0.0"
     inkscape:pagecheckerboard="0"
     inkscape:deskcolor="#d1d1d1" />
  <defs
     id="defs1">
    <style
       id="current-color-scheme"
       type="text/css">.ColorScheme-Text {color:#d8dee9} .ColorScheme-Highlight {color:#3b4252}</style>
  </defs>
  <circle
     style="fill:currentColor;stroke-width:1.2"
     class="ColorScheme-Text"
     cx="21.4"
     cy="20.300007"
     r="2.4000001"
     id="circle1" />
  <path
     style="fill:currentColor;stroke-width:1.2"
     class="ColorScheme-Text"
     d="m 9.9327232,2.3037321 c -0.131394,0.01092 -0.2675208,0.045916 -0.397266,0.1078128 -1.3928498,0.5898468 -1.3064018,1.5163348 -1.2246122,2.7850608 0.07746,0.2984484 0.013464,0.7300782 0.057852,0.7300782 0,0 0.9999384,-0.090304 1.2862862,-0.094435 0.291912,-0.1046388 0.2962728,-0.1102176 0.2519532,-0.3257814 -0.02118,-0.103026 -0.03924,-0.3649194 -0.039852,-0.5824218 -0.00132,-0.4941186 0.1104,-0.8521122 0.4242196,-1.3546878 0.30539,-0.4890752 0.386718,-0.6604458 0.386718,-0.814453 0,-0.3028686 -0.351128,-0.4839373 -0.745312,-0.4511718 z m 4.8423048,0.1546874 c -0.06625,0.00307 -0.11178,0.0213 -0.12539,0.05625 -0.0134,0.034421 0.02516,0.3187798 0.08555,0.6316407 0.221727,1.1489147 0.0853,1.8880361 -0.51211,2.7656249 -0.12259,0.1800864 -0.173678,0.2872464 -0.147655,0.312891 0.0644,0.063464 1.217619,0.6464059 1.289061,0.6515623 0.03605,0.00258 0.126796,-0.062578 0.201563,-0.1441404 C 15.887,6.3821197 16.242465,5.8175821 16.417997,5.3787319 16.875502,4.2349201 16.620687,3.3108233 15.698466,2.7689665 15.366016,2.5736333 14.973777,2.4492226 14.775028,2.4584195 Z M 4.361747,4.7735584 C 3.259313,4.7853784 2.4727814,5.2150703 2.258231,5.9477771 2.182667,6.2058415 2.180159,6.7826923 2.253551,7.0622305 c 0.16821,0.6407184 0.6314232,1.0901322 1.29375,1.2527343 0.315924,0.077556 1.0867104,0.078756 1.51875,0.00228 C 5.5516886,8.2313572 6.3210554,7.968739 6.7957382,7.7289635 7.0144418,7.6184903 7.2161234,7.5134819 7.244567,7.4934167 7.289387,7.4617967 7.5336194,6.8626121 7.5340202,6.7832603 7.5341006,6.7673963 7.4455442,6.7983623 7.3371446,6.8535731 7.0896338,6.9796523 5.9949482,7.3011011 5.5113638,7.3891199 5.0002766,7.4821451 4.3548134,7.4807543 4.1121446,7.3867799 3.8660534,7.2914651 3.7529774,7.1317105 3.753551,6.8805299 3.754211,6.6029887 3.862811,6.3694261 4.087535,6.1645139 4.3790498,5.8987036 4.5589562,5.8454297 5.2664414,5.8246703 5.9055026,5.8059203 6.3681122,5.8574483 7.0523798,6.0203734 7.4507342,6.1152214 7.659533,6.2331455 7.694567,6.3836549 l 0.023436,0.099608 0.064452,-0.092578 C 7.842875,6.3032453 8.2008062,6.2811641 8.1073742,6.0462148 8.0524262,5.908054 7.608833,5.7516423 7.5621386,5.7005115 7.4587586,5.5873107 6.6891542,5.2038033 6.3304982,5.0864487 5.9099786,4.948852 5.3713862,4.8426495 4.852763,4.794652 4.6831694,4.778956 4.5192386,4.771864 4.3617482,4.773556 Z m 13.839844,1.7325177 c -0.385663,0.015198 -0.779112,0.061414 -1.096875,0.1359373 -0.504866,0.1184028 -0.988756,0.2926661 -1.221093,0.4394532 l -0.13711,0.086719 0.217968,0.2015628 c 0.119808,0.1106676 0.247743,0.211746 0.284766,0.225 0.03775,0.013518 0.218141,-0.04929 0.410157,-0.144141 0.528934,-0.2612898 1.017031,-0.376935 1.714453,-0.403125 0.521892,-0.019602 0.619098,-0.012366 0.868359,0.065624 0.427913,0.1338912 0.656865,0.4272474 0.595312,0.7652346 -0.06144,0.3373782 -0.310552,0.537395 -0.759374,0.6093758 C 18.806486,8.5312888 18.041924,8.4674488 17.34495,8.342404 17.168595,8.31076 17.010446,8.292946 16.993388,8.30374 c -0.01706,0.0108 0.0108,0.095268 0.06094,0.1875 0.419772,0.7717728 2.103222,1.2283944 3.336328,0.903516 0.939334,-0.2474808 1.230206,-0.7964052 0.842578,-1.5914066 -0.319728,-0.6557448 -0.975084,-1.0674918 -1.98164,-1.2457032 -0.286456,-0.050718 -0.664337,-0.066756 -1.05,-0.051564 z M 5.1070598,6.3520741 C 4.320353,6.3744901 4.0428926,6.4806889 4.1648726,6.7118399 4.3061174,6.9794993 4.9038242,7.0057531 5.9730746,6.7903559 6.6336398,6.657286 6.8029514,6.6038447 6.746513,6.5466053 6.725597,6.5253953 6.4836518,6.4697609 6.2086226,6.4223867 5.8045658,6.3527879 5.5935602,6.3382139 5.1070598,6.3520741 Z M 18.501591,7.5795134 c -0.591007,-0.019332 -1.303057,0.084106 -1.214063,0.1757814 0.01068,0.01104 0.216912,0.048216 0.459376,0.083203 0.242462,0.034986 0.486229,0.070726 0.541406,0.079687 0.05518,0.00896 0.323329,0.01917 0.595313,0.022266 0.444599,0.0051 0.493395,-0.00276 0.48164,-0.065624 C 19.358063,7.8363608 19.261691,7.7583752 19.151981,7.7002172 18.980264,7.609184 18.890237,7.592222 18.501591,7.5795134 Z m -1.941797,0.5671877 c -0.07565,0 -0.103932,0.025824 -0.121874,0.108984 -0.059,0.2734809 -0.161049,0.4758393 -0.314063,0.6234381 C 15.74561,9.2439796 15.173582,9.221566 14.377763,8.8099792 L 13.989873,8.6095912 13.73206,8.8849816 C 13.189401,9.4663192 12.446804,9.661984 11.876981,9.3736528 11.685161,9.2765968 11.532496,9.0352636 11.4762,8.7408412 11.45412,8.6253292 11.43636,8.5249192 11.43636,8.5170124 c 0,-0.05028 -0.114816,0.00348 -0.217968,0.101952 -0.343232,0.3278952 -0.94543,0.569958 -1.4167964,0.569532 C 9.3373298,9.1880764 9.1034678,9.039328 8.937923,8.640058 8.897543,8.542678 8.851319,8.4631864 8.835971,8.4631048 8.820623,8.4630256 8.726315,8.5179688 8.6262062,8.5849804 8.1323006,8.9155912 7.4527982,8.9537308 7.1941742,8.6658364 7.042391,8.4968752 6.970475,8.5743124 6.9691742,8.9107576 c -0.00132,0.3422268 -0.0699,0.7157448 -0.3175776,1.7273444 -0.1304676,0.532881 -0.3276264,1.40423 -0.4394532,1.93711 -0.111828,0.53288 -0.327594,1.48565 -0.4781256,2.116405 -0.4535532,1.90047 -0.5387508,2.434633 -0.5343744,3.341016 0.00504,1.050316 0.1751868,1.514333 0.76875,2.097657 0.2992044,0.294043 0.403998,0.367452 0.802734,0.5625 0.519912,0.254324 0.94689,0.386808 1.6945308,0.522656 1.511573,0.274656 4.6572528,0.379103 5.5535158,0.185155 0.495665,-0.107256 0.842768,-0.222807 1.219923,-0.407811 0.973274,-0.477417 1.515109,-1.103157 1.798827,-2.07422 0.10548,-0.361012 0.182525,-1.045807 0.15586,-1.380468 -0.0086,-0.108756 -0.03503,-0.446668 -0.0586,-0.751172 -0.02357,-0.304502 -0.10422,-1.166803 -0.179297,-1.917186 C 16.742999,12.742067 16.65345,11.498495 16.578548,9.6291184 16.559372,9.1506124 16.53248,8.6908048 16.517612,8.6072428 16.496108,8.4864904 16.507892,8.43253 16.575032,8.342398 16.68524,8.1945502 16.680884,8.146696 16.559792,8.146696 Z m -3.367969,2.1960949 c 0.430109,-0.0024 0.744505,0.234886 0.936329,0.705468 0.06462,0.15854 0.08405,0.293726 0.08555,0.61875 0.0018,0.392156 -0.006,0.431304 -0.130078,0.679688 -0.151793,0.303858 -0.443425,0.586838 -0.751172,0.728905 -0.225308,0.104004 -0.384244,0.114048 -0.5625,0.0375 -0.177789,-0.07634 -0.367359,-0.310035 -0.444141,-0.547265 -0.10188,-0.314782 -0.121773,-0.985642 -0.0375,-1.298438 0.03769,-0.139894 0.08668,-0.325498 0.107808,-0.4125 0.07614,-0.313428 0.381574,-0.509768 0.795702,-0.512108 z m -2.821875,0.09023 c 0.222695,0.04117 0.615256,0.445447 0.732423,0.753516 0.196134,0.5157 0.04332,1.15167 -0.385548,1.605468 -0.284273,0.300795 -0.509159,0.375195 -0.7546874,0.249609 C 9.7640716,12.940313 9.6351808,12.793578 9.5179972,12.53654 9.3434354,12.153642 9.361193,11.622084 9.5707372,10.954508 9.6881452,10.580459 10.013751,10.36717 10.369956,10.433024 Z m 2.646094,0.405469 c -0.09904,-0.0053 -0.188768,0.01008 -0.241406,0.04805 -0.134562,0.09696 -0.243844,0.824432 -0.146484,0.976171 0.03167,0.04934 0.05551,0.04235 0.15,-0.04453 0.161272,-0.1483 0.278522,-0.198742 0.467577,-0.201562 0.21933,-0.0032 0.394002,0.09023 0.4875,0.261328 0.0807,0.147676 0.140626,0.153943 0.140626,0.01524 0,-0.340025 -0.286858,-0.839941 -0.560157,-0.977344 -0.09061,-0.04555 -0.198625,-0.07206 -0.297656,-0.07734 z m -2.997656,0.09023 c -0.1345768,0 -0.188674,0.130382 -0.223828,0.540234 -0.034512,0.402369 -0.020388,0.421854 0.21211,0.305859 0.104604,-0.05219 0.246393,-0.09492 0.315234,-0.09492 0.06884,0 0.195322,0.03534 0.28125,0.07852 0.08592,0.04318 0.163765,0.07164 0.173437,0.06211 0.04325,-0.04262 -0.04451,-0.303152 -0.160547,-0.47578 -0.143197,-0.213052 -0.434316,-0.416016 -0.597656,-0.416016 z M 8.932355,17.65165 c 0.043692,-0.0072 0.07782,0.0018 0.1300776,0.02344 0.06378,0.02642 0.1589796,0.113064 0.2121096,0.192187 0.2114222,0.314843 0.1497926,0.777354 -0.1453128,1.085157 -0.1525092,0.159074 -0.1772796,0.16964 -0.3949212,0.185156 -0.228954,0.01632 -0.2338212,0.0148 -0.3832032,-0.132421 -0.142404,-0.140337 -0.1515192,-0.162227 -0.1511724,-0.367968 2.652e-4,-0.154097 0.0276,-0.277151 0.093756,-0.417187 0.1337892,-0.283217 0.2216268,-0.378084 0.4511724,-0.492188 0.09114,-0.0453 0.143802,-0.06896 0.1875,-0.07618 z m 3.389184,-0.351433 0.291797,0.01758 c 0.627406,0.03764 0.86784,0.350339 0.677344,0.882422 -0.181594,0.50722 -0.741057,0.954124 -1.120313,0.895313 -0.259199,-0.0402 -0.432667,-0.474937 -0.376171,-0.939845 0.03475,-0.28605 0.08701,-0.388195 0.333984,-0.65039 z m -3.6012936,0.810821 c -0.026268,0.0083 -0.081192,0.07534 -0.1218756,0.148827 -0.062388,0.112704 -0.066612,0.148806 -0.028116,0.232032 0.025092,0.05428 0.101136,0.122209 0.16875,0.151171 0.1529664,0.06552 0.190104,0.06688 0.247266,0.01056 0.0933,-0.09194 0.054144,-0.290067 -0.085548,-0.427734 -0.072564,-0.07152 -0.1542,-0.123147 -0.180468,-0.11484 z m 3.4981686,-0.230742 -0.01406,0.148827 c -0.0078,0.08136 0.0071,0.219802 0.03398,0.308203 0.08084,0.266066 0.311818,0.282134 0.569532,0.03984 0.262648,-0.246926 0.08789,-0.494443 -0.350391,-0.495703 z"
     id="path1" />
</svg>
