<?xml version="1.0" encoding="UTF-8" standalone="no"?>
<svg
   width="24"
   height="24"
   version="1.1"
   id="svg1"
   sodipodi:docname="rememberthemilk-notification.svg"
   xmlns:inkscape="http://www.inkscape.org/namespaces/inkscape"
   xmlns:sodipodi="http://sodipodi.sourceforge.net/DTD/sodipodi-0.dtd"
   xmlns="http://www.w3.org/2000/svg"
   xmlns:svg="http://www.w3.org/2000/svg">
  <sodipodi:namedview
     id="namedview1"
     pagecolor="#ffffff"
     bordercolor="#000000"
     borderopacity="0.25"
     inkscape:showpageshadow="2"
     inkscape:pageopacity="0.0"
     inkscape:pagecheckerboard="0"
     inkscape:deskcolor="#d1d1d1" />
  <defs
     id="defs1">
    <style
       id="current-color-scheme"
       type="text/css">.ColorScheme-Text {color:#d8dee9} .ColorScheme-Highlight {color:#3b4252}</style>
  </defs>
  <path
     style="fill:currentColor;stroke-width:1.2"
     class="ColorScheme-Text"
     d="m 10.077015,2.302265 c -0.04733,-0.00241 -0.096036,-0.00175 -0.1453119,0.00234 -0.131394,0.01092 -0.2663484,0.045916 -0.3960936,0.1078128 -1.39285,0.5898468 -1.3075712,1.515649 -1.2257816,2.784375 0.07746,0.2984484 0.014206,0.7289063 0.058594,0.7289063 0,0 1.0003711,-0.089618 1.2867188,-0.09375 0.291912,-0.1046352 0.2951004,-0.110214 0.2507808,-0.3257778 -0.02118,-0.103026 -0.039228,-0.3637476 -0.03984,-0.58125 -0.00132,-0.4941186 0.1104,-0.8521118 0.4242185,-1.3546874 0.305391,-0.4890754 0.386718,-0.661618 0.386718,-0.8156252 0,-0.2650099 -0.268718,-0.4354956 -0.6,-0.4523437 z m 4.696875,0.1570313 c -0.06625,0.00307 -0.110604,0.0213 -0.124219,0.05625 -0.0134,0.034421 0.02399,0.3176078 0.08437,0.6304687 0.221728,1.1489147 0.08647,1.8880362 -0.510937,2.765625 -0.12259,0.1800864 -0.17368,0.288418 -0.147657,0.3140626 0.0644,0.063464 1.217621,0.646406 1.289063,0.6515624 0.03605,0.00258 0.126796,-0.06375 0.201563,-0.1453124 C 15.887032,6.3818243 16.241326,5.8184591 16.416858,5.3796087 16.874363,4.2357969 16.619548,3.3105282 15.697327,2.7686713 15.364877,2.5733382 14.972639,2.4500994 14.77389,2.4592963 Z M 4.360609,4.7725776 c -1.102434,0.01182 -1.8877933,0.4415119 -2.1023437,1.1742187 -0.075564,0.2580643 -0.078079,0.8360868 -0.00469,1.115625 0.16821,0.6407184 0.6314232,1.0889602 1.29375,1.2515628 0.315924,0.077556 1.0867104,0.078756 1.51875,0.0024 C 5.5517155,8.2305001 6.3210825,7.9678818 6.7957653,7.7281063 7.0144689,7.6175731 7.214978,7.5137365 7.2434216,7.4936713 7.2882416,7.4620513 7.5336458,6.8628668 7.5340466,6.783515 7.534127,6.767651 7.4455718,6.798617 7.3371716,6.8538278 7.0896608,6.9799068 5.9949747,7.3001838 5.5113903,7.3882026 5.0003031,7.4812278 4.3548404,7.4798331 4.1121716,7.3858587 3.8660804,7.2905439 3.7530043,7.1307894 3.7535779,6.8796087 3.7542379,6.6020676 3.8616663,6.3696771 4.0863903,6.164765 4.3779051,5.8989547 4.5578114,5.8456807 5.2652966,5.8249213 c 0.6390612,-0.01875 1.1016699,0.031606 1.7859375,0.1945313 0.3983543,0.094848 0.6071535,0.2127717 0.6421875,0.3632813 l 0.023437,0.1007808 0.065626,-0.09375 c 0.06042,-0.0875 0.416869,-0.1095816 0.323437,-0.3445308 C 8.0509736,5.9070731 7.608866,5.7518334 7.5621716,5.7007026 7.4587916,5.5875018 6.6880151,5.2039946 6.329359,5.08664 5.9088395,4.9490433 5.3714198,4.8416688 4.8527966,4.7936713 4.683203,4.7779753 4.5180995,4.7708856 4.360609,4.7725776 Z m 1.0664063,1.575 c -0.09451,-5.047e-4 -0.1994687,0.00122 -0.3210937,0.00469 C 4.3192148,6.3746856 4.041754,6.4797122 4.1637341,6.7108633 4.3049788,6.9785228 4.9038586,7.005948 5.973109,6.7905505 6.6336742,6.6574764 6.802985,6.6040357 6.7465466,6.5467963 6.7256306,6.5255863 6.4825133,6.4699518 6.2074841,6.4225776 5.9044415,6.3703784 5.7105431,6.3490917 5.4270153,6.3475776 Z M 18.200452,6.5069526 C 17.814789,6.5221506 17.42134,6.5683662 17.103577,6.64289 16.598711,6.7612928 16.114821,6.9343842 15.882484,7.0811713 l -0.135939,0.086719 0.21797,0.2015626 c 0.119808,0.1106676 0.24657,0.211746 0.283593,0.225 0.03775,0.013518 0.218141,-0.048118 0.410157,-0.1429688 0.528934,-0.2612898 1.018203,-0.3769351 1.715625,-0.4031251 0.521892,-0.019602 0.617926,-0.012365 0.867187,0.065626 0.427913,0.1338912 0.656866,0.4260753 0.595313,0.7640625 -0.06144,0.3373776 -0.310553,0.5373944 -0.759375,0.6093752 -0.271668,0.043572 -1.035058,-0.020256 -1.732031,-0.1453128 -0.176356,-0.031644 -0.334505,-0.048288 -0.351563,-0.0375 -0.01706,0.0108 0.0108,0.095268 0.06094,0.1875 0.419772,0.7717728 2.10205,1.227222 3.335156,0.9023436 0.939334,-0.2474808 1.231378,-0.796404 0.84375,-1.591406 -0.319728,-0.6557448 -0.976256,-1.0663199 -1.982812,-1.2445313 -0.286456,-0.050718 -0.664337,-0.066755 -1.05,-0.051563 z m 0.3,1.0734374 c -0.591007,-0.019332 -1.303056,0.084106 -1.214062,0.1757813 0.01068,0.01104 0.216911,0.047044 0.459375,0.082031 0.242462,0.034986 0.486229,0.070726 0.541406,0.079687 0.05518,0.00896 0.323329,0.020341 0.595313,0.023437 0.444599,0.0051 0.494567,-0.00276 0.482813,-0.065624 -0.0072,-0.038466 -0.103572,-0.117623 -0.213282,-0.175781 C 18.980297,7.6088881 18.889098,7.5930986 18.500452,7.58039 Z m -1.940625,0.5671876 c -0.07565,0 -0.103932,0.024653 -0.121875,0.1078128 -0.059,0.2734801 -0.161047,0.4758397 -0.314062,0.6234373 -0.378247,0.3648564 -0.950276,0.3436188 -1.746093,-0.067968 L 13.988734,8.6092981 13.730921,8.8858597 c -0.542659,0.5813376 -1.284084,0.7758312 -1.853906,0.4875 -0.19182,-0.097056 -0.344486,-0.3383892 -0.400781,-0.6328116 -0.02208,-0.115512 -0.03984,-0.2147508 -0.03984,-0.2226564 0,-0.05028 -0.114816,0.00228 -0.217969,0.100776 -0.343233,0.327894 -0.946602,0.5699568 -1.4179683,0.5695308 -0.4642658,-4.2e-4 -0.6969554,-0.1491684 -0.8625002,-0.5484372 -0.04038,-0.09738 -0.087778,-0.1757004 -0.1031244,-0.175782 -0.015348,-7.92e-5 -0.1084848,0.054864 -0.2085938,0.1218756 -0.4939057,0.3306108 -1.1734072,0.367578 -1.4320312,0.079692 -0.1517832,-0.1689612 -0.2236992,-0.09036 -0.225,0.2460936 -0.00132,0.3422268 -0.071072,0.7157436 -0.31875,1.7273435 -0.1304718,0.53288 -0.3264587,1.403057 -0.4382855,1.935937 -0.111828,0.532881 -0.3275934,1.485652 -0.478125,2.116407 -0.4535532,1.90047 -0.5387514,2.435804 -0.534375,3.342187 0.00504,1.050315 0.1751868,1.514333 0.76875,2.097656 0.2992044,0.294043 0.4028265,0.367452 0.8015625,0.5625 0.5199119,0.254325 0.9468904,0.386808 1.6945312,0.522657 1.5115722,0.274656 4.6584237,0.379104 5.5546867,0.185156 0.495665,-0.107256 0.841595,-0.222809 1.21875,-0.407813 0.973274,-0.477416 1.516281,-1.103156 1.8,-2.074219 0.10548,-0.361013 0.181353,-1.045807 0.154688,-1.380468 -0.0086,-0.108756 -0.03503,-0.44784 -0.0586,-0.752344 C 17.110476,16.482138 17.031,15.619835 16.95592,14.869452 16.743028,12.741775 16.653479,11.498204 16.578576,9.6288277 16.5594,9.1503217 16.532508,8.6905141 16.51764,8.6069521 16.496136,8.4862009 16.50672,8.4322405 16.573884,8.3421085 16.684092,8.1942605 16.680912,8.1475776 16.55982,8.1475776 Z m -3.367969,2.1960934 c 0.430109,-0.0024 0.743333,0.234887 0.935157,0.705469 0.06462,0.158541 0.08522,0.293727 0.08672,0.61875 0.0018,0.392157 -0.0072,0.431303 -0.13125,0.679688 -0.151793,0.303858 -0.442253,0.586839 -0.75,0.728906 -0.225308,0.104004 -0.384244,0.114048 -0.5625,0.0375 -0.177789,-0.07634 -0.368531,-0.311208 -0.445313,-0.548437 -0.10188,-0.314783 -0.121774,-0.985643 -0.0375,-1.298439 0.03769,-0.139893 0.08668,-0.325497 0.107808,-0.4125 0.07614,-0.313428 0.382746,-0.508597 0.796874,-0.510937 z m -2.953124,0.07734 c 0.04322,-2.6e-4 0.08672,0.0035 0.13125,0.01176 0.222695,0.04117 0.614083,0.446619 0.73125,0.754687 0.196134,0.5157 0.0445,1.151672 -0.384376,1.60547 -0.284271,0.300758 -0.509159,0.373986 -0.7546869,0.2484 -0.198066,-0.101304 -0.328128,-0.246868 -0.4453116,-0.503907 -0.174562,-0.382897 -0.1556382,-0.914454 0.053904,-1.582031 0.102732,-0.327292 0.3654108,-0.532552 0.6679695,-0.534375 z m 2.777343,0.417187 c -0.09904,-0.0053 -0.188768,0.01128 -0.241406,0.04922 -0.134562,0.09696 -0.245016,0.823262 -0.147656,0.975 0.03167,0.04934 0.05551,0.04235 0.15,-0.04453 0.161272,-0.148299 0.279694,-0.198742 0.46875,-0.201562 0.21933,-0.0032 0.394002,0.0914 0.4875,0.2625 0.0807,0.147675 0.140625,0.152766 0.140625,0.01406 0,-0.340025 -0.286857,-0.839943 -0.560156,-0.977344 -0.09061,-0.04555 -0.198625,-0.07206 -0.297657,-0.07734 z m -2.997656,0.0914 c -0.1345763,0 -0.1898459,0.129212 -0.2249999,0.539063 -0.034512,0.40237 -0.019212,0.423025 0.2132819,0.307031 0.104604,-0.05219 0.245221,-0.0961 0.314062,-0.0961 0.06884,0 0.195324,0.03652 0.28125,0.07969 0.08592,0.04318 0.163765,0.07046 0.173437,0.06094 0.04325,-0.04262 -0.04333,-0.303154 -0.159375,-0.475782 -0.143197,-0.21304 -0.434316,-0.414832 -0.597656,-0.414832 z m 2.303906,6.370319 0.290625,0.01876 c 0.627405,0.03764 0.86784,0.349167 0.677345,0.88125 -0.181594,0.50722 -0.741057,0.954124 -1.120313,0.895313 -0.259199,-0.0402 -0.431496,-0.474936 -0.375,-0.939844 0.03475,-0.28605 0.08584,-0.387024 0.332813,-0.649219 z M 8.9309216,17.65148 c 0.043692,-0.0072 0.078992,0.0018 0.13125,0.02344 0.06378,0.02642 0.1578075,0.113064 0.2109374,0.192187 0.2114225,0.314843 0.1497929,0.777354 -0.1453124,1.085157 -0.1525092,0.159074 -0.1761084,0.16964 -0.39375,0.185156 -0.228954,0.01632 -0.234993,0.01597 -0.384375,-0.131249 -0.142404,-0.140336 -0.1503468,-0.162228 -0.15,-0.367969 2.652e-4,-0.154097 0.027594,-0.277151 0.09375,-0.417187 0.1337892,-0.283217 0.2204544,-0.378084 0.45,-0.492187 0.09114,-0.0453 0.143802,-0.07013 0.1875,-0.07734 z m 3.2882804,0.229687 -0.01406,0.147657 c -0.0078,0.08136 0.0059,0.220972 0.03281,0.309374 0.08084,0.266065 0.311819,0.282137 0.569532,0.03984 0.262649,-0.246926 0.08906,-0.495616 -0.349219,-0.496876 z m 9.180469,0.01875 a 2.4,2.4 0 0 0 -2.4,2.4 2.4,2.4 0 0 0 2.4,2.4 2.4,2.4 0 0 0 2.4,-2.4 2.4,2.4 0 0 0 -2.4,-2.4 z M 8.7199841,18.110858 c -0.026268,0.0083 -0.081192,0.07651 -0.1218751,0.15 -0.062388,0.112704 -0.06662,0.148806 -0.028124,0.232032 0.025092,0.05428 0.101136,0.121038 0.16875,0.15 0.1529663,0.06552 0.1889317,0.06804 0.2460937,0.01176 0.0933,-0.09194 0.055318,-0.29124 -0.084374,-0.428906 -0.072564,-0.07152 -0.1542007,-0.123151 -0.1804687,-0.11484 z"
     id="path1" />
</svg>
