<?xml version="1.0" encoding="UTF-8" standalone="no"?>
<svg
   width="24"
   height="24"
   version="1.1"
   id="svg1"
   sodipodi:docname="rememberthemilk-tray.svg"
   xmlns:inkscape="http://www.inkscape.org/namespaces/inkscape"
   xmlns:sodipodi="http://sodipodi.sourceforge.net/DTD/sodipodi-0.dtd"
   xmlns="http://www.w3.org/2000/svg"
   xmlns:svg="http://www.w3.org/2000/svg">
  <sodipodi:namedview
     id="namedview1"
     pagecolor="#ffffff"
     bordercolor="#000000"
     borderopacity="0.25"
     inkscape:showpageshadow="2"
     inkscape:pageopacity="0.0"
     inkscape:pagecheckerboard="0"
     inkscape:deskcolor="#d1d1d1" />
  <defs
     id="defs1">
    <style
       id="current-color-scheme"
       type="text/css">.ColorScheme-Text {color:#d8dee9} .ColorScheme-Highlight {color:#3b4252}</style>
  </defs>
  <path
     style="fill:currentColor;stroke-width:1.2"
     class="ColorScheme-Text"
     d="m 10.132721,2.4036613 c -0.131394,0.01092 -0.2675208,0.045916 -0.397266,0.1078128 -1.3928498,0.5898468 -1.3064018,1.5163348 -1.2246122,2.7850608 0.07746,0.2984484 0.013464,0.7300782 0.057852,0.7300782 0,0 0.9999384,-0.090304 1.2862862,-0.094435 0.291912,-0.1046388 0.296273,-0.1102176 0.251953,-0.3257814 -0.02118,-0.103026 -0.03924,-0.3649194 -0.03985,-0.5824218 -0.0013,-0.4941186 0.1104,-0.8521122 0.424219,-1.3546878 0.305391,-0.4890752 0.386718,-0.6604458 0.386718,-0.8144529 0,-0.3028686 -0.351127,-0.4839373 -0.745311,-0.4511718 z m 4.842305,0.1546875 c -0.06625,0.00307 -0.11178,0.0213 -0.125391,0.05625 -0.0134,0.034421 0.02516,0.3187797 0.08555,0.6316406 0.221728,1.1489147 0.0853,1.8880361 -0.512109,2.7656249 -0.12259,0.1800864 -0.173679,0.2872464 -0.147655,0.312891 0.0644,0.063464 1.217619,0.6464059 1.289061,0.6515623 0.03605,0.00258 0.126796,-0.062578 0.201563,-0.1441404 0.320954,-0.3501283 0.67642,-0.9146659 0.851952,-1.3535161 C 17.0755,4.3348493 16.820685,3.4107526 15.898464,2.8688957 15.566014,2.6735626 15.173775,2.5491519 14.975026,2.5583488 Z M 4.5617448,4.8734877 c -1.102434,0.01182 -1.8889656,0.4415119 -2.103516,1.1742187 -0.075564,0.2580643 -0.078072,0.8349151 -0.00468,1.1144533 0.16821,0.6407184 0.6314232,1.0901322 1.29375,1.2527344 0.315924,0.077556 1.0867104,0.078756 1.51875,0.00228 C 5.7516864,8.3312865 6.5210532,8.0686683 6.995736,7.8288928 7.2144396,7.7184196 7.4161212,7.6134112 7.4445648,7.593346 7.4893848,7.561726 7.7336172,6.9625414 7.734018,6.8831896 7.7340984,6.8673256 7.645542,6.8982916 7.5371424,6.9535024 7.2896316,7.0795816 6.194946,7.4010304 5.7113616,7.4890492 5.2002744,7.5820744 4.5548112,7.5806836 4.3121424,7.4867092 4.0660512,7.3913944 3.9529752,7.2316397 3.9535488,6.9804592 3.9542088,6.7029179 4.0628088,6.4693553 4.2875328,6.2644432 4.5790476,5.9986329 4.758954,5.945359 5.4664392,5.9245996 6.1055004,5.9058496 6.56811,5.9573776 7.2523776,6.1203027 7.650732,6.2151507 7.8595308,6.3330748 7.8945648,6.4835842 l 0.023436,0.099608 0.064452,-0.092578 C 8.0428728,6.4031746 8.400804,6.3810934 8.307372,6.1461441 8.252424,6.0079833 7.8088308,5.8515715 7.7621364,5.8004407 7.6587564,5.6872399 6.889152,5.3037325 6.530496,5.1863779 6.1099764,5.0487813 5.571384,4.9425787 5.0527608,4.8945813 4.8831672,4.8788853 4.7192364,4.8717933 4.561746,4.8734853 Z M 18.401589,6.6060053 c -0.385664,0.015198 -0.779112,0.061414 -1.096875,0.1359373 -0.504866,0.1184028 -0.988757,0.2926661 -1.221093,0.4394532 l -0.13711,0.086719 0.217968,0.2015628 c 0.119808,0.1106676 0.247742,0.211746 0.284766,0.225 0.03775,0.013518 0.218141,-0.04929 0.410156,-0.144141 0.528935,-0.2612898 1.017032,-0.376935 1.714454,-0.403125 0.521892,-0.019602 0.619098,-0.012366 0.868359,0.065624 0.427913,0.1338912 0.656865,0.4272474 0.595312,0.7652346 -0.06144,0.3373776 -0.310552,0.5373945 -0.759375,0.6093753 -0.271668,0.043572 -1.03623,-0.020268 -1.733203,-0.1453128 -0.176355,-0.031644 -0.334505,-0.049458 -0.351563,-0.038664 -0.01706,0.0108 0.0108,0.095268 0.06094,0.1875 0.419772,0.7717728 2.103222,1.2283947 3.336329,0.903516 0.93933,-0.2474802 1.230201,-0.7964046 0.842574,-1.5914061 C 21.1135,7.2475338 20.458144,6.8357868 19.451587,6.6575754 c -0.286455,-0.050718 -0.664336,-0.066756 -1.05,-0.051564 z M 5.3070576,6.4520033 C 4.5203508,6.4744193 4.2428904,6.5806181 4.3648704,6.8117692 4.5061152,7.0794286 5.103822,7.1056823 6.1730724,6.8902852 6.8336376,6.7572153 7.0029492,6.703774 6.9465108,6.6465346 6.9255948,6.6253246 6.6836496,6.5696902 6.4086204,6.522316 6.0045636,6.4527172 5.793558,6.4381432 5.3070576,6.4520033 Z M 18.701589,7.6794426 c -0.591008,-0.019332 -1.303058,0.084106 -1.214063,0.1757814 0.01068,0.01104 0.216912,0.048216 0.459375,0.083203 0.242463,0.034986 0.48623,0.070726 0.541407,0.079687 0.05518,0.00896 0.323329,0.01917 0.595313,0.022266 0.444598,0.0051 0.493395,-0.00276 0.48164,-0.065624 C 19.558061,7.93629 19.461689,7.8583044 19.351979,7.8001464 19.180261,7.7091132 19.090235,7.6921512 18.701589,7.6794426 Z m -1.941797,0.5671877 c -0.07565,0 -0.103932,0.025824 -0.121875,0.108984 -0.059,0.273481 -0.161048,0.4758394 -0.314062,0.6234382 -0.378248,0.3648564 -0.950276,0.3424428 -1.746094,-0.069144 l -0.38789,-0.200388 -0.257813,0.2753904 c -0.542659,0.5813376 -1.285257,0.7770027 -1.855079,0.4886712 -0.19182,-0.097056 -0.344485,-0.3383892 -0.400781,-0.6328116 -0.02208,-0.115512 -0.03984,-0.215922 -0.03984,-0.2238288 0,-0.05028 -0.114816,0.00348 -0.217968,0.101952 -0.343232,0.3278952 -0.945431,0.569958 -1.416797,0.569532 C 9.5373276,9.2880057 9.3034656,9.1392573 9.1379208,8.7399873 9.0975408,8.6426073 9.0513168,8.5631157 9.0359688,8.5630341 9.0206208,8.5629549 8.9263128,8.6178981 8.826204,8.6849097 8.3322984,9.0155205 7.652796,9.0536601 7.394172,8.7657657 7.2423888,8.5968045 7.1704728,8.6742417 7.169172,9.0106869 7.167852,9.3529137 7.099272,9.726432 6.8515944,10.738032 c -0.1304676,0.53288 -0.3276264,1.404229 -0.4394532,1.93711 -0.111828,0.53288 -0.327594,1.48565 -0.4781256,2.116405 -0.4535532,1.90047 -0.5387508,2.434633 -0.5343744,3.341016 0.00504,1.050315 0.1751868,1.514333 0.76875,2.097656 0.2992044,0.294043 0.403998,0.367452 0.802734,0.5625 0.519912,0.254325 0.94689,0.386808 1.6945308,0.522657 1.511573,0.274656 4.657253,0.379102 5.553516,0.185155 0.495665,-0.107256 0.842767,-0.222808 1.219923,-0.407812 0.973274,-0.477416 1.515109,-1.103156 1.798827,-2.074219 0.10548,-0.361013 0.182525,-1.045807 0.15586,-1.380468 -0.0086,-0.108756 -0.03503,-0.446669 -0.0586,-0.751172 -0.02357,-0.304503 -0.10422,-1.166804 -0.179297,-1.917186 -0.212892,-2.127677 -0.302441,-3.371249 -0.377344,-5.240626 -0.01918,-0.4785063 -0.04607,-0.9383139 -0.06094,-1.0218759 -0.0215,-0.1207524 -0.0097,-0.1747128 0.05742,-0.2648448 0.110208,-0.1478478 0.105852,-0.195702 -0.01524,-0.195702 z m -3.367969,2.1960947 c 0.430108,-0.0024 0.744505,0.234887 0.936328,0.705468 0.06462,0.158541 0.08405,0.293727 0.08555,0.61875 0.0018,0.392157 -0.006,0.431304 -0.130077,0.679689 -0.151793,0.303858 -0.443425,0.586838 -0.751173,0.728905 -0.225307,0.104004 -0.384243,0.114048 -0.5625,0.0375 -0.177788,-0.07634 -0.367358,-0.310036 -0.44414,-0.547265 -0.10188,-0.314783 -0.121774,-0.985643 -0.0375,-1.298438 0.03769,-0.139894 0.08668,-0.325498 0.107808,-0.4125 0.07614,-0.313428 0.381574,-0.509769 0.795702,-0.512109 z m -2.821875,0.09023 c 0.222695,0.04117 0.615256,0.445447 0.732423,0.753516 0.196134,0.5157 0.04332,1.15167 -0.385548,1.605468 -0.284273,0.300796 -0.509159,0.375196 -0.754688,0.24961 -0.1980656,-0.101306 -0.3269564,-0.248041 -0.44414,-0.50508 -0.1745618,-0.382897 -0.1568042,-0.914455 0.05274,-1.582032 0.117408,-0.374048 0.443014,-0.587337 0.799219,-0.521484 z m 2.646094,0.405469 c -0.09904,-0.0053 -0.188769,0.01008 -0.241407,0.04805 -0.134562,0.09696 -0.243843,0.824433 -0.146484,0.976172 0.03167,0.04934 0.05551,0.04235 0.15,-0.04453 0.161273,-0.1483 0.278523,-0.198742 0.467578,-0.201562 0.21933,-0.0032 0.394002,0.09023 0.4875,0.261328 0.0807,0.147675 0.140626,0.153943 0.140626,0.01524 0,-0.340025 -0.286858,-0.839942 -0.560157,-0.977344 -0.09061,-0.04555 -0.198625,-0.07206 -0.297656,-0.07734 z m -2.997657,0.09023 c -0.134576,0 -0.188673,0.130383 -0.2238272,0.540234 -0.034512,0.40237 -0.020388,0.421854 0.2121092,0.30586 0.104604,-0.05219 0.246394,-0.09492 0.315234,-0.09492 0.06884,0 0.195323,0.03534 0.28125,0.07852 0.08592,0.04318 0.163766,0.07164 0.173438,0.06211 0.04325,-0.04262 -0.04451,-0.303152 -0.160547,-0.475781 -0.143197,-0.213051 -0.434316,-0.416016 -0.597657,-0.416016 z m -1.0860322,6.72293 c 0.043692,-0.0072 0.07782,0.0018 0.1300776,0.02344 0.06378,0.02642 0.1589796,0.113064 0.2121096,0.192187 0.2114222,0.314843 0.1497926,0.777354 -0.1453128,1.085156 C 9.176718,19.211434 9.1519476,19.222 8.934306,19.237516 c -0.228954,0.01632 -0.2338212,0.0148 -0.3832032,-0.132422 -0.142404,-0.140336 -0.1515192,-0.162226 -0.1511724,-0.367968 2.652e-4,-0.154096 0.0276,-0.27715 0.093756,-0.417187 0.1337892,-0.283217 0.2216268,-0.378084 0.4511724,-0.492187 0.09114,-0.0453 0.143802,-0.06896 0.1875,-0.07618 z m 3.3891842,-0.351434 0.291797,0.01758 c 0.627405,0.03764 0.86784,0.350339 0.677343,0.882423 -0.181593,0.507219 -0.741056,0.954123 -1.120312,0.895313 -0.259199,-0.0402 -0.432668,-0.474938 -0.376172,-0.939845 0.03475,-0.28605 0.08701,-0.388195 0.333984,-0.650391 z m -3.6012938,0.810821 c -0.026268,0.0083 -0.081192,0.07534 -0.1218756,0.148828 -0.062388,0.112704 -0.066612,0.148806 -0.028116,0.232032 0.025092,0.05428 0.101136,0.122209 0.16875,0.151171 0.1529664,0.06552 0.190104,0.06688 0.247266,0.01056 0.0933,-0.09194 0.054144,-0.290068 -0.085548,-0.427734 -0.072564,-0.07152 -0.1542,-0.123148 -0.180468,-0.11484 z m 3.4981678,-0.230742 -0.01406,0.148828 c -0.0078,0.08136 0.0071,0.219801 0.03398,0.308203 0.08084,0.266065 0.311819,0.282133 0.569532,0.03984 0.262649,-0.246926 0.08789,-0.494443 -0.35039,-0.495703 z"
     id="path1" />
</svg>
