<?xml version="1.0" encoding="UTF-8" standalone="no"?>
<svg
   width="24"
   height="24"
   version="1.1"
   id="svg1"
   sodipodi:docname="remmina-status.svg"
   xmlns:inkscape="http://www.inkscape.org/namespaces/inkscape"
   xmlns:sodipodi="http://sodipodi.sourceforge.net/DTD/sodipodi-0.dtd"
   xmlns="http://www.w3.org/2000/svg"
   xmlns:svg="http://www.w3.org/2000/svg">
  <sodipodi:namedview
     id="namedview1"
     pagecolor="#ffffff"
     bordercolor="#000000"
     borderopacity="0.25"
     inkscape:showpageshadow="2"
     inkscape:pageopacity="0.0"
     inkscape:pagecheckerboard="0"
     inkscape:deskcolor="#d1d1d1" />
  <defs
     id="defs1">
    <style
       id="current-color-scheme"
       type="text/css">.ColorScheme-Text {color:#d8dee9} .ColorScheme-Highlight {color:#3b4252}</style>
  </defs>
  <path
     style="fill:currentColor;stroke-width:1.2"
     class="ColorScheme-Text"
     d="M 12,2.4 A 9.6,9.6 0 0 0 2.4,12 9.6,9.6 0 0 0 3.590625,16.628906 L 5.5992187,15.292969 A 7.2,7.2 0 0 1 4.8,12 7.2,7.2 0 0 1 12,4.8 7.2,7.2 0 0 1 17.5125,7.3804687 L 19.51875,6.0445313 A 9.6,9.6 0 0 0 12,2.4 Z M 8.4,6.7195313 V 9.0492192 L 9.9468756,10.080469 8.4,11.111719 v 2.327344 l 5.039063,-3.358594 z M 20.414063,7.3804687 18.405469,8.7164064 A 7.2,7.2 0 0 1 19.2,12 7.2,7.2 0 0 1 12,19.2 7.2,7.2 0 0 1 6.4945313,16.628906 L 4.4882813,17.9625 A 9.6,9.6 0 0 0 12,21.6 9.6,9.6 0 0 0 21.6,12 9.6,9.6 0 0 0 20.414063,7.3804687 Z M 15.6,10.560937 10.560937,13.919531 15.6,17.280469 V 14.950781 L 14.053126,13.919531 15.6,12.888281 Z"
     id="path1" />
</svg>
