<?xml version="1.0" encoding="UTF-8" standalone="no"?>
<svg
   width="24"
   height="24"
   version="1"
   id="svg1"
   sodipodi:docname="rescuetime-indicator.svg"
   xmlns:inkscape="http://www.inkscape.org/namespaces/inkscape"
   xmlns:sodipodi="http://sodipodi.sourceforge.net/DTD/sodipodi-0.dtd"
   xmlns="http://www.w3.org/2000/svg"
   xmlns:svg="http://www.w3.org/2000/svg">
  <sodipodi:namedview
     id="namedview1"
     pagecolor="#ffffff"
     bordercolor="#000000"
     borderopacity="0.25"
     inkscape:showpageshadow="2"
     inkscape:pageopacity="0.0"
     inkscape:pagecheckerboard="0"
     inkscape:deskcolor="#d1d1d1" />
  <defs
     id="defs1">
    <style
       id="current-color-scheme"
       type="text/css">.ColorScheme-Text {color:#d8dee9} .ColorScheme-Highlight {color:#3b4252}</style>
  </defs>
  <path
     fill-rule="evenodd"
     style="fill:currentColor;stroke-width:1.2"
     class="ColorScheme-Text"
     d="m 8.4,2.4 v 6 h -6 v 7.2 h 6 v 6 h 7.2 v -6 h 6 V 8.4 h -6 v -6 z M 12,4.8 c 0.6648,0 1.2,0.5352 1.2,1.2 v 3.9234 a 2.4,2.4 0 0 1 0.8748,0.876 H 18 c 0.6648,0 1.2,0.5352 1.2,1.2 0,0.6648 -0.5352,1.2 -1.2,1.2 h -3.9234 a 2.4,2.4 0 0 1 -2.076,1.2 2.4,2.4 0 0 1 -2.4,-2.4 2.4,2.4 0 0 1 1.2,-2.0748 V 5.9994 c 0,-0.6648 0.5352,-1.2 1.2,-1.2 z"
     id="path1" />
</svg>
