<?xml version="1.0" encoding="UTF-8" standalone="no"?>
<svg
   width="24"
   height="24"
   version="1"
   id="svg1"
   sodipodi:docname="rhythmbox-playing.svg"
   xmlns:inkscape="http://www.inkscape.org/namespaces/inkscape"
   xmlns:sodipodi="http://sodipodi.sourceforge.net/DTD/sodipodi-0.dtd"
   xmlns="http://www.w3.org/2000/svg"
   xmlns:svg="http://www.w3.org/2000/svg">
  <sodipodi:namedview
     id="namedview1"
     pagecolor="#ffffff"
     bordercolor="#000000"
     borderopacity="0.25"
     inkscape:showpageshadow="2"
     inkscape:pageopacity="0.0"
     inkscape:pagecheckerboard="0"
     inkscape:deskcolor="#d1d1d1" />
  <defs
     id="defs1">
    <style
       id="current-color-scheme"
       type="text/css">.ColorScheme-Text {color:#d8dee9} .ColorScheme-Highlight {color:#3b4252}</style>
  </defs>
  <path
     style="fill:currentColor;fill-rule:evenodd;stroke-width:1.2"
     class="ColorScheme-Text"
     d="m 6.2000665,2.4 c -0.9972,0 -1.8,0.8028 -1.8,1.8 v 15.6 c 0,0.9972 0.8028,1.8 1.8,1.8 h 9.5999995 c 0.9972,0 1.8,-0.8028 1.8,-1.8 V 4.2 c 0,-0.9972 -0.8028,-1.8 -1.8,-1.8 z m 1.8,2.4 c 0.66288,0 1.2,0.53736 1.2,1.2 0,0.66264 -0.53712,1.2 -1.2,1.2 -0.66288,0 -1.20024,-0.53736 -1.2,-1.2 -2.4e-4,-0.66264 0.53712,-1.2 1.2,-1.2 z m 5.9999995,0 c 0.662916,0 1.200243,0.537336 1.2,1.2 2.4e-4,0.662664 -0.537084,1.2 -1.2,1.2 -0.662916,0 -1.200242,-0.537336 -1.2,-1.2 -2.4e-4,-0.662664 0.537084,-1.2 1.2,-1.2 z m -3,6 c 2.3196,0 4.2,1.8804 4.2,4.2 0,2.3196 -1.8804,4.2 -4.2,4.2 -2.3200795,0 -4.2005995,-1.8804 -4.1999995,-4.2 -6e-4,-2.3196 1.87992,-4.2 4.1999995,-4.2 z m 0,2.4 c -0.9936,0 -1.7999995,0.8064 -1.7999995,1.8 0,0.9936 0.8063995,1.8 1.7999995,1.8 0.9936,0 1.8,-0.8064 1.8,-1.8 0,-0.9936 -0.8064,-1.8 -1.8,-1.8 z m 8.547657,2.4 a 0.73052525,0.82440473 0 0 0 -0.747657,0.825 v 2.175 2.175 a 0.73052525,0.82440473 0 0 0 1.094531,0.714844 l 1.671095,-1.0875 1.668749,-1.0875 a 0.73052525,0.82440473 0 0 0 0,-1.427344 l -1.668749,-1.089844 -1.671095,-1.0875 A 0.73052525,0.82440473 0 0 0 19.547723,15.6 Z"
     id="path1" />
</svg>
