<?xml version="1.0" encoding="UTF-8" standalone="no"?>
<svg
   width="24"
   height="24"
   version="1.1"
   id="svg2"
   sodipodi:docname="riot-tray.svg"
   xmlns:inkscape="http://www.inkscape.org/namespaces/inkscape"
   xmlns:sodipodi="http://sodipodi.sourceforge.net/DTD/sodipodi-0.dtd"
   xmlns="http://www.w3.org/2000/svg"
   xmlns:svg="http://www.w3.org/2000/svg">
  <sodipodi:namedview
     id="namedview2"
     pagecolor="#ffffff"
     bordercolor="#000000"
     borderopacity="0.25"
     inkscape:showpageshadow="2"
     inkscape:pageopacity="0.0"
     inkscape:pagecheckerboard="0"
     inkscape:deskcolor="#d1d1d1" />
  <defs
     id="defs1">
    <style
       id="current-color-scheme"
       type="text/css">.ColorScheme-Text {color:#d8dee9} .ColorScheme-Highlight {color:#3b4252}</style>
  </defs>
  <path
     style="opacity:0.35;fill:currentColor;stroke-width:1.2"
     class="ColorScheme-Text"
     d="M 6.655837,2.3991847 C 7.615707,2.3864562 8.5656791,2.8343869 9.1566183,3.6788722 9.3975304,4.0231174 9.5564716,4.4066659 9.637087,4.806216 h 3.278906 c 2.511392,0 4.549218,1.6745431 4.549218,4.1859379 0,1.4962271 -0.733365,2.6844801 -1.849218,3.4101561 l 1.211718,1.732031 c 1.505698,-1.20394 2.472657,-3.04855 2.472657,-5.1210935 0,-3.629006 -2.954921,-6.5718752 -6.6,-6.5718753 H 7.1855245 C 7.0105572,2.4118027 6.8332997,2.397561 6.655837,2.3991847 Z m -2.9507813,3.0234375 -0.00469,0.00469 v 0.042187 c -3.307e-4,-0.015563 0.00478,-0.03129 0.00469,-0.046876 z m -0.00469,0.046876 V 18.568715 c -0.057376,4.039079 6.0573749,4.039079 5.9999993,0 v -2.985937 h 0.815626 l -0.0586,-0.08437 A 3.0003,3.0003 0 0 1 9.9464614,13.180434 H 7.0519308 v 5.625 c 0.00916,0.647304 -0.9677498,0.647304 -0.9585938,0 V 8.3288722 C 5.3706571,8.1787667 4.6999153,7.7708569 4.2441183,7.1194973 3.8995071,6.6270738 3.7128469,6.0568007 3.7003683,5.4694973 Z m 5.9648437,0.2929687 c -0.00647,0.052454 -0.00247,0.1045872 -0.011724,0.1570313 C 9.5142833,6.7090793 9.0768292,7.397988 8.4206808,7.8577784 8.0000608,8.1525107 7.5293427,8.3109586 7.0519308,8.3663722 v 3.8554688 h 0.95625 2.2968752 a 3.0003,3.0003 0 0 1 1.994531,-1.417969 H 9.7003678 V 7.2202784 h 3.0000002 c 1.050967,0 1.8,0.7466366 1.8,1.7929691 0,0.8941533 -0.549084,1.5620445 -1.364063,1.7390625 a 3.0003,3.0003 0 0 1 1.900782,0.897655 c 0.889513,-0.547434 1.469531,-1.4622 1.469531,-2.6578111 0,-1.9940195 -1.596607,-3.2296879 -3.590625,-3.2296879 H 10.40115 Z"
     id="path1" />
  <path
     style="fill:currentColor;stroke-width:1.2"
     class="ColorScheme-Text"
     d="M 6.646462,2.3991847 C 6.0686297,2.408652 5.4880614,2.5846266 4.9800557,2.940591 4.3237293,3.4002036 3.8862761,4.0894682 3.7472433,4.8788722 3.6080334,5.6682761 3.7846366,6.4629328 4.2441183,7.1194973 5.1926973,8.4750703 7.0659987,8.8070167 8.4206808,7.8577784 9.0768292,7.397988 9.5142833,6.7090793 9.6534933,5.9194973 9.7925254,5.1304489 9.6160998,4.3354364 9.1566183,3.6788722 8.5637565,2.8316393 7.6095159,2.3834059 6.646462,2.3991847 Z m 6.168749,8.3437493 a 3.0003,3.0003 0 0 0 -2.357811,4.75547 l 3.351561,4.785937 a 3.0003,3.0003 0 1 0 4.914844,-3.440626 l -3.349218,-4.785937 a 3.0003,3.0003 0 0 0 -2.559376,-1.314844 z"
     id="path2" />
</svg>
