<?xml version="1.0" encoding="UTF-8" standalone="no"?>
<svg
   width="24"
   height="24"
   version="1.1"
   id="svg1"
   sodipodi:docname="rocketchat-tray-6.svg"
   xmlns:inkscape="http://www.inkscape.org/namespaces/inkscape"
   xmlns:sodipodi="http://sodipodi.sourceforge.net/DTD/sodipodi-0.dtd"
   xmlns="http://www.w3.org/2000/svg"
   xmlns:svg="http://www.w3.org/2000/svg">
  <sodipodi:namedview
     id="namedview1"
     pagecolor="#ffffff"
     bordercolor="#000000"
     borderopacity="0.25"
     inkscape:showpageshadow="2"
     inkscape:pageopacity="0.0"
     inkscape:pagecheckerboard="0"
     inkscape:deskcolor="#d1d1d1" />
  <defs
     id="defs1">
    <style
       id="current-color-scheme"
       type="text/css">.ColorScheme-Text {color:#d8dee9} .ColorScheme-Highlight {color:#3b4252}</style>
  </defs>
  <path
     style="fill:currentColor;stroke-width:1.2"
     class="ColorScheme-Text"
     d="M 2.2,2.3 C 2.9503468,3.4030098 3.4977527,5.4945896 3.8054687,7.9179692 2.7595469,9.0979184 2.2010751,10.483092 2.2,11.9 2.20318,13.357009 2.7956858,14.77901 3.8992187,15.978126 3.6356459,18.360284 3.0884368,20.411666 2.2,21.5 4.7212384,21.5 7.0030449,20.427555 8.6570313,18.694531 9.6672184,18.960166 10.729529,19.097214 11.8,19.1 c 5.301934,0 9.6,-3.22355 9.6,-7.2 C 21.4,7.9235492 17.101934,4.7 11.8,4.7 10.729529,4.7027862 9.6672184,4.839833 8.6570313,5.1054687 7.0030449,3.3724449 4.7212384,2.3 2.2,2.3 Z m 9.6,4.8 a 7.2,4.8 0 0 1 0.782813,0.030468 c 0.0054,4.092e-4 0.01104,-4.176e-4 0.0164,0 a 7.2,4.8 0 0 1 0.06797,0.00708 7.2,4.8 0 0 1 6.210938,3.897656 c 0.0037,0.0134 0.01044,0.02641 0.01406,0.03984 A 7.2,4.8 0 0 1 19,11.9 7.2,4.8 0 0 1 18.899224,12.671094 c -0.0082,0.03288 -0.01421,0.06566 -0.02344,0.09844 A 7.2,4.8 0 0 1 18.55,13.55 7.2,4.8 0 0 1 13.389063,16.575781 c -0.0048,7.63e-4 -0.0092,0.0016 -0.01406,0.0024 a 7.2,4.8 0 0 1 -0.0375,0.0047 7.2,4.8 0 0 1 -0.578907,0.06797 c -0.0934,0.0088 -0.186643,0.0172 -0.28125,0.02344 A 7.2,4.8 0 0 1 11.81875,16.7 H 11.80699 A 7.2,4.8 0 0 1 11.8,16.7 7.2,4.8 0 0 1 8.6992187,16.224219 L 7.8976563,16.013281 6.9203126,17.0375 c -0.2571951,0.269485 -0.5972981,0.411053 -0.8882813,0.632813 0.073188,-0.483264 0.197229,-0.922157 0.253125,-1.427344 l 0.1195308,-1.0875 -0.2953125,-0.321095 a 7.2,4.8 0 0 1 -1.4367183,-2.29453 c -0.00593,-0.02809 -0.00894,-0.05632 -0.014063,-0.08437 A 7.2,4.8 0 0 1 4.6,11.9 7.2,4.8 0 0 1 4.65625,11.328126 c 0.00421,-0.02269 0.011664,-0.04525 0.016406,-0.06797 A 7.2,4.8 0 0 1 11.8,7.1 Z m -3.6,3.6 c -0.6627416,0 -1.2,0.537258 -1.2,1.2 0,0.662742 0.5372584,1.2 1.2,1.2 0.6627416,0 1.2,-0.537258 1.2,-1.2 0,-0.662742 -0.5372584,-1.2 -1.2,-1.2 z m 3.6,0 c -0.662742,0 -1.2,0.537258 -1.2,1.2 0,0.662742 0.537258,1.2 1.2,1.2 0.662742,0 1.2,-0.537258 1.2,-1.2 0,-0.662742 -0.537258,-1.2 -1.2,-1.2 z m 3.6,0 c -0.662742,0 -1.2,0.537258 -1.2,1.2 0,0.662742 0.537258,1.2 1.2,1.2 0.662742,0 1.2,-0.537258 1.2,-1.2 0,-0.662742 -0.537258,-1.2 -1.2,-1.2 z"
     id="path1" />
  <circle
     style="fill:currentColor;stroke-width:1.2"
     class="ColorScheme-Text"
     cx="21.4"
     cy="20.299999"
     r="2.4000001"
     id="circle1" />
</svg>
