<?xml version="1.0" encoding="UTF-8" standalone="no"?>
<svg
   width="24"
   height="24"
   version="1.1"
   id="svg1"
   sodipodi:docname="rocketchat-tray.svg"
   xmlns:inkscape="http://www.inkscape.org/namespaces/inkscape"
   xmlns:sodipodi="http://sodipodi.sourceforge.net/DTD/sodipodi-0.dtd"
   xmlns="http://www.w3.org/2000/svg"
   xmlns:svg="http://www.w3.org/2000/svg">
  <sodipodi:namedview
     id="namedview1"
     pagecolor="#ffffff"
     bordercolor="#000000"
     borderopacity="0.25"
     inkscape:showpageshadow="2"
     inkscape:pageopacity="0.0"
     inkscape:pagecheckerboard="0"
     inkscape:deskcolor="#d1d1d1" />
  <defs
     id="defs1">
    <style
       id="current-color-scheme"
       type="text/css">.ColorScheme-Text {color:#d8dee9} .ColorScheme-Highlight {color:#3b4252}</style>
  </defs>
  <path
     style="fill:currentColor;stroke-width:1.2"
     class="ColorScheme-Text"
     d="M 2.4,2.4 C 3.1503468,3.5030098 3.6977527,5.5945896 4.0054687,8.0179692 2.9595469,9.1979184 2.4010751,10.583092 2.4,12 2.40318,13.457009 2.9956858,14.87901 4.0992187,16.078126 3.8356459,18.460284 3.2884368,20.511666 2.4,21.6 4.9212384,21.6 7.2030449,20.527555 8.8570313,18.794531 9.8672184,19.060166 10.929529,19.197214 12,19.2 17.301934,19.2 21.6,15.97645 21.6,12 21.6,8.0235492 17.301934,4.8 12,4.8 10.929529,4.8027862 9.8672184,4.939833 8.8570313,5.2054687 7.2030449,3.4724449 4.9212384,2.4 2.4,2.4 Z M 12,7.2 a 7.2,4.8 0 0 1 0.782813,0.030468 c 0.0054,4.092e-4 0.01104,-4.176e-4 0.0164,0 a 7.2,4.8 0 0 1 0.06797,0.00708 7.2,4.8 0 0 1 6.210938,3.897656 c 0.0037,0.0134 0.01044,0.02641 0.01406,0.03984 A 7.2,4.8 0 0 1 19.2,12 7.2,4.8 0 0 1 19.099224,12.771094 c -0.0082,0.03288 -0.01421,0.06566 -0.02344,0.09844 A 7.2,4.8 0 0 1 18.75,13.65 7.2,4.8 0 0 1 13.589063,16.675781 c -0.0048,7.63e-4 -0.0092,0.0016 -0.01406,0.0024 a 7.2,4.8 0 0 1 -0.0375,0.0047 7.2,4.8 0 0 1 -0.578907,0.06797 c -0.0934,0.0088 -0.186643,0.0172 -0.28125,0.02344 A 7.2,4.8 0 0 1 12.01875,16.8 H 12.00699 A 7.2,4.8 0 0 1 12,16.8 7.2,4.8 0 0 1 8.8992187,16.324219 L 8.0976563,16.113281 7.1203126,17.1375 c -0.2571951,0.269485 -0.5972981,0.411053 -0.8882813,0.632813 0.073188,-0.483264 0.197229,-0.922157 0.253125,-1.427344 l 0.1195308,-1.0875 -0.2953125,-0.321095 a 7.2,4.8 0 0 1 -1.4367183,-2.29453 c -0.00593,-0.02809 -0.00894,-0.05632 -0.014063,-0.08437 A 7.2,4.8 0 0 1 4.8,12 7.2,4.8 0 0 1 4.85625,11.428126 c 0.00421,-0.02269 0.011664,-0.04525 0.016406,-0.06797 A 7.2,4.8 0 0 1 12,7.2 Z m -3.6,3.6 c -0.6627416,0 -1.2,0.537258 -1.2,1.2 0,0.662742 0.5372584,1.2 1.2,1.2 0.6627416,0 1.2,-0.537258 1.2,-1.2 0,-0.662742 -0.5372584,-1.2 -1.2,-1.2 z m 3.6,0 c -0.662742,0 -1.2,0.537258 -1.2,1.2 0,0.662742 0.537258,1.2 1.2,1.2 0.662742,0 1.2,-0.537258 1.2,-1.2 0,-0.662742 -0.537258,-1.2 -1.2,-1.2 z m 3.6,0 c -0.662742,0 -1.2,0.537258 -1.2,1.2 0,0.662742 0.537258,1.2 1.2,1.2 0.662742,0 1.2,-0.537258 1.2,-1.2 0,-0.662742 -0.537258,-1.2 -1.2,-1.2 z"
     id="path1" />
</svg>
