<?xml version="1.0" encoding="UTF-8" standalone="no"?>
<svg
   width="24"
   height="24"
   version="1.1"
   id="svg2"
   sodipodi:docname="scc-unknown.svg"
   xmlns:inkscape="http://www.inkscape.org/namespaces/inkscape"
   xmlns:sodipodi="http://sodipodi.sourceforge.net/DTD/sodipodi-0.dtd"
   xmlns="http://www.w3.org/2000/svg"
   xmlns:svg="http://www.w3.org/2000/svg">
  <sodipodi:namedview
     id="namedview2"
     pagecolor="#ffffff"
     bordercolor="#000000"
     borderopacity="0.25"
     inkscape:showpageshadow="2"
     inkscape:pageopacity="0.0"
     inkscape:pagecheckerboard="0"
     inkscape:deskcolor="#d1d1d1" />
  <defs
     id="defs1">
    <style
       id="current-color-scheme"
       type="text/css">.ColorScheme-Text {color:#d8dee9} .ColorScheme-Highlight {color:#3b4252}</style>
  </defs>
  <path
     style="opacity:0.35;fill:currentColor;stroke-width:1.2"
     class="ColorScheme-Text"
     d="m 6.0296587,3.5001644 v 0.00234 c -2.98645,0 -5.2313081,2.4012825 -5.3882813,5.3765628 L 0.04372124,19.032195 c -0.3780318,2.22 1.77901796,3.620569 3.59296876,1.192969 1.1310945,-1.5348 3.5625,-4.725 3.5625,-4.725 l 9.599999,0.04922 3.585938,4.825781 c 1.79883,2.4144 3.823932,0.429448 3.595312,-1.204688 L 23.385127,9.0009452 c 9.4e-4,-0.041544 0.01176,-0.080088 0.01176,-0.1218744 C 23.39681,5.9001907 20.994535,3.5001644 18.008564,3.5001644 H 11.98747 c 0.980052,0 1.935617,0.287349 2.617969,0.9492187 0.667499,0.647461 0.99375,1.5848416 0.99375,2.5265626 0,0.5096307 -0.0794,1.0067116 -0.278906,1.4695315 -0.171752,0.407064 -0.418802,0.781002 -0.721874,1.1062495 -0.23941,0.256926 -0.513659,0.5201973 -0.822657,0.7968743 -0.0023,0.002 -0.0024,0.0026 -0.0047,0.0047 l -0.0024,0.0024 c -0.223982,0.204638 -0.380763,0.370446 -0.466405,0.475782 -0.0509,0.07093 -0.06887,0.116352 -0.07031,0.121876 a 1.20012,1.20012 0 0 1 -0.0047,0.01406 c -0.0079,0.02855 -0.02809,0.139641 -0.02809,0.314011 v 0.222656 a 1.20012,1.20012 0 0 1 -0.157031,0.590625 c 0.327629,0.419931 0.520312,0.899738 0.520312,1.321875 0,0.498558 -0.119928,1.095514 -0.590625,1.544531 -0.346224,0.330275 -0.870903,0.539063 -1.347654,0.539063 -0.472562,0 -1.01115,-0.193463 -1.373437,-0.539063 a 1.20012,1.20012 0 0 1 -0.02578,-0.02578 C 9.7710139,14.476799 9.6718507,13.904775 9.6718507,13.41657 c 0,-0.400581 0.1852572,-0.849591 0.4734383,-1.260937 A 1.20012,1.20012 0 0 1 9.9507571,11.50407 v -0.351563 c 0,-0.398202 0.032784,-0.768284 0.1195319,-1.127343 a 1.20012,1.20012 0 0 1 0.0047,-0.028128 c 0.09934,-0.3732265 0.262998,-0.727034 0.478101,-1.0476524 a 1.20012,1.20012 0 0 1 0.01876,-0.025776 C 10.79126,8.6137748 11.056442,8.330246 11.364033,8.0517269 11.659442,7.7834032 11.876871,7.5658093 11.999189,7.4282894 a 1.20012,1.20012 0 0 1 0.01876,-0.021094 c 0.103596,-0.1111728 0.139307,-0.1817603 0.140625,-0.1851563 -2.63e-4,6.642e-4 0.02344,-0.071969 0.02344,-0.2203124 0,-0.059162 0.0017,-0.060235 0.0024,-0.072656 0.02047,0.016054 -6.79e-4,-0.028124 -0.269531,-0.028124 -0.282074,0 -0.491767,0.040868 -0.642188,0.096094 a 1.20012,1.20012 0 0 1 -0.02813,0.00937 c -0.250055,0.084725 -0.487296,0.1860504 -0.7149,0.3046899 A 1.20012,1.20012 0 0 1 8.8655962,6.7064144 l -0.375,-0.9117187 A 1.20012,1.20012 0 0 1 9.0109087,4.2923518 C 9.4136274,4.0654543 9.8465743,3.8810048 10.307002,3.7368831 a 1.20012,1.20012 0 0 1 0.0071,-0.00234 C 10.841237,3.5728879 11.402459,3.5001644 11.98747,3.5001644 Z"
     id="path1" />
  <path
     style="fill:currentColor;stroke-width:1.2"
     class="ColorScheme-Text"
     d="m 11.150704,11.503416 v -0.351219 q 0,-0.494309 0.08485,-0.845529 0.09697,-0.3642273 0.31515,-0.6894309 0.230303,-0.3252019 0.618183,-0.6764215 0.472726,-0.4292688 0.727272,-0.7154477 0.266667,-0.2861789 0.375758,-0.5593496 0.109092,-0.2731707 0.109092,-0.6634146 0,-0.6243903 -0.375758,-0.9626018 -0.375758,-0.3382113 -1.090908,-0.3382113 -0.59394,0 -1.054546,0.1691057 Q 10.39919,6.0269938 9.9749479,6.2481321 L 9.59919,5.337563 q 0.484849,-0.2731708 1.066666,-0.4552847 0.593939,-0.1821138 1.321212,-0.1821138 1.151515,0 1.781818,0.6113821 0.630303,0.6113823 0.630303,1.6650408 0,0.5853659 -0.181819,1.0016261 -0.169695,0.4032521 -0.496969,0.7544717 -0.315151,0.3382116 -0.751516,0.7284552 -0.399999,0.3642271 -0.618181,0.6373976 -0.20606,0.273171 -0.278787,0.546342 -0.07273,0.260162 -0.07273,0.637398 v 0.221138 z m -0.278787,1.912195 q 0,-0.4813 0.20606,-0.676423 0.218182,-0.195121 0.545454,-0.195121 0.303031,0 0.521213,0.195121 0.218181,0.195123 0.218181,0.676423 0,0.468293 -0.218181,0.676424 -0.218182,0.208129 -0.521213,0.208129 -0.327272,0 -0.545454,-0.208129 -0.20606,-0.208131 -0.20606,-0.676424 z"
     id="path2" />
</svg>
