<?xml version="1.0" encoding="UTF-8" standalone="no"?>
<svg
   width="24"
   height="24"
   version="1.1"
   id="svg2"
   sodipodi:docname="scc-error.svg"
   xmlns:inkscape="http://www.inkscape.org/namespaces/inkscape"
   xmlns:sodipodi="http://sodipodi.sourceforge.net/DTD/sodipodi-0.dtd"
   xmlns="http://www.w3.org/2000/svg"
   xmlns:svg="http://www.w3.org/2000/svg">
  <sodipodi:namedview
     id="namedview2"
     pagecolor="#ffffff"
     bordercolor="#000000"
     borderopacity="0.25"
     inkscape:showpageshadow="2"
     inkscape:pageopacity="0.0"
     inkscape:pagecheckerboard="0"
     inkscape:deskcolor="#d1d1d1" />
  <defs
     id="defs1">
    <style
       id="current-color-scheme"
       type="text/css">.ColorScheme-Text {color:#d8dee9} .ColorScheme-Highlight {color:#3b4252}</style>
  </defs>
  <path
     style="opacity:0.35;fill:currentColor;stroke-width:1.2"
     class="ColorScheme-Text"
     d="m 6.0296587,3.5001644 v 0.00234 c -2.98645,0 -5.2313081,2.4012825 -5.3882813,5.3765628 L 0.04372124,19.032195 c -0.3780318,2.22 1.77901796,3.620569 3.59296876,1.192969 1.1310945,-1.5348 3.5625,-4.725 3.5625,-4.725 l 9.599999,0.04922 3.585938,4.825781 c 1.79883,2.4144 3.823932,0.429448 3.595312,-1.204688 L 23.385127,9.0009452 c 9.4e-4,-0.041544 0.01176,-0.080088 0.01176,-0.1218744 -7.7e-5,-2.9788801 -2.402352,-5.3789064 -5.388323,-5.3789064 z m 2.3695313,1.2 h 1.696875 c 0.318239,6.12e-5 0.623423,0.126519 0.848437,0.3515625 l 1.054687,1.0546875 1.054688,-1.0546875 C 13.278891,4.826683 13.584075,4.7002255 13.902315,4.7001644 h 1.696874 c 0.662715,6.62e-5 1.199934,0.5372857 1.2,1.2 v 1.696875 c -6.1e-5,0.3182388 -0.126519,0.6234234 -0.351562,0.8484378 l -1.054688,1.0546867 1.054688,1.0546871 c 0.225043,0.225014 0.351501,0.530198 0.351562,0.848438 v 1.696875 c -6.6e-5,0.662714 -0.537285,1.199934 -1.2,1.2 h -1.696874 c -0.31824,-6.1e-5 -0.623424,-0.126519 -0.848438,-0.351563 l -1.054688,-1.054687 -1.054687,1.054687 c -0.225013,0.225043 -0.530198,0.351502 -0.848437,0.351563 H 8.39919 c -0.6627143,-6.6e-5 -1.1999338,-0.537286 -1.2,-1.2 v -1.696875 c 6.1e-5,-0.31824 0.1265188,-0.623424 0.3515625,-0.848438 L 8.60544,9.5001639 7.5507525,8.4454772 C 7.325709,8.2204629 7.1992512,7.9152782 7.19919,7.5970394 v -1.696875 c -0.286241,-0.6627143 0.086026,-1.1999338 1.2,-1.2 z"
     id="path1" />
  <path
     style="fill:currentColor;stroke-width:1.2"
     class="ColorScheme-Text"
     d="m 8.39919,5.9001644 v 1.696875 L 10.302315,9.5001639 8.39919,11.403289 v 1.696875 h 1.696875 l 1.903124,-1.903126 1.903126,1.903126 h 1.696874 V 11.403289 L 13.696064,9.5001639 15.599189,7.5970394 v -1.696875 h -1.696874 l -1.903126,1.903125 -1.903124,-1.903125 z"
     id="path2" />
</svg>
