<?xml version="1.0" encoding="UTF-8" standalone="no"?>
<svg
   width="24"
   height="24"
   version="1.1"
   id="svg1"
   sodipodi:docname="screencloud-uploading.svg"
   xmlns:inkscape="http://www.inkscape.org/namespaces/inkscape"
   xmlns:sodipodi="http://sodipodi.sourceforge.net/DTD/sodipodi-0.dtd"
   xmlns="http://www.w3.org/2000/svg"
   xmlns:svg="http://www.w3.org/2000/svg">
  <sodipodi:namedview
     id="namedview1"
     pagecolor="#ffffff"
     bordercolor="#000000"
     borderopacity="0.25"
     inkscape:showpageshadow="2"
     inkscape:pageopacity="0.0"
     inkscape:pagecheckerboard="0"
     inkscape:deskcolor="#d1d1d1" />
  <defs
     id="defs1">
    <style
       id="current-color-scheme"
       type="text/css">.ColorScheme-Text {color:#d8dee9} .ColorScheme-Highlight {color:#3b4252}</style>
  </defs>
  <path
     style="fill:currentColor;stroke-width:1.2"
     class="ColorScheme-Text"
     d="m 9,4.8 c -3.6450793,0 -6.6,2.9549207 -6.6,6.6 0.00293,0.264169 0.021709,0.527926 0.05625,0.789844 C 0.99010452,12.681102 0.00142716,14.053741 0,15.6 c 0,1.988225 1.611775,3.6 3.6,3.6 h 16.8 c 1.988225,0 3.6,-1.611775 3.6,-3.6 -0.0016,-1.527922 -0.967434,-2.888422 -2.409374,-3.39375 0.0046,-0.06868 0.0077,-0.137441 0.0094,-0.20625 0,-2.6509668 -2.149033,-4.8 -4.8,-4.8 C 16.00242,7.20184 15.217845,7.4024182 14.517213,7.7835937 13.298388,5.9229028 11.22433,4.8012902 9,4.8 Z M 5.98125,7.2 C 6.64485,7.2 7.2,7.7376 7.2,8.4 7.2,9.0624 6.64485,9.6 5.98125,9.6 5.31765,9.6 4.8,9.0624 4.8,8.4 4.8,7.7376 5.31873,7.2 5.98125,7.2 Z M 12,8.4 v 0 l 3.6,6 H 13.2 V 18 H 10.8 V 14.4 H 8.4 Z"
     id="path1" />
</svg>
