<?xml version="1.0" encoding="UTF-8" standalone="no"?>
<svg
   width="24"
   height="24"
   version="1.1"
   id="svg1"
   sodipodi:docname="screencloud-idle.svg"
   xmlns:inkscape="http://www.inkscape.org/namespaces/inkscape"
   xmlns:sodipodi="http://sodipodi.sourceforge.net/DTD/sodipodi-0.dtd"
   xmlns="http://www.w3.org/2000/svg"
   xmlns:svg="http://www.w3.org/2000/svg">
  <sodipodi:namedview
     id="namedview1"
     pagecolor="#ffffff"
     bordercolor="#000000"
     borderopacity="0.25"
     inkscape:showpageshadow="2"
     inkscape:pageopacity="0.0"
     inkscape:pagecheckerboard="0"
     inkscape:deskcolor="#d1d1d1" />
  <defs
     id="defs1">
    <style
       id="current-color-scheme"
       type="text/css">.ColorScheme-Text {color:#d8dee9} .ColorScheme-Highlight {color:#3b4252}</style>
  </defs>
  <path
     style="fill:currentColor;stroke-width:1.2"
     class="ColorScheme-Text"
     d="M 9,4.8 A 6.6,6.6 0 0 0 2.4,11.4 6.6,6.6 0 0 0 2.45625,12.189844 3.6,3.6 0 0 0 0,15.6 3.6,3.6 0 0 0 3.6,19.2 H 20.4 A 3.6,3.6 0 0 0 24,15.6 3.6,3.6 0 0 0 21.590626,12.20625 4.8,4.8 0 0 0 21.6,12 4.8,4.8 0 0 0 16.8,7.2 4.8,4.8 0 0 0 14.517187,7.7835937 6.6,6.6 0 0 0 9,4.8 Z M 5.98125,7.2 C 6.64485,7.2 7.2,7.7376 7.2,8.4 7.2,9.0624 6.64485,9.6 5.98125,9.6 5.31765,9.6 4.8,9.0624 4.8,8.4 4.8,7.7376 5.31873,7.2 5.98125,7.2 Z M 12,8.4 c 2.650967,0 4.8,2.149033 4.8,4.8 C 16.8,15.850967 14.650967,18 12,18 9.3490332,18 7.2,15.850967 7.2,13.2 7.2,10.549033 9.3490332,8.4 12,8.4 Z m 0,2.4 c -1.325483,0 -2.4,1.074517 -2.4,2.4 0,1.325483 1.074517,2.4 2.4,2.4 1.325483,0 2.4,-1.074517 2.4,-2.4 0,-1.325483 -1.074517,-2.4 -2.4,-2.4 z"
     id="path1" />
</svg>
