<?xml version="1.0" encoding="UTF-8" standalone="no"?>
<svg
   width="24"
   height="24"
   version="1.1"
   id="svg1"
   sodipodi:docname="scroll-lock-on.svg"
   xmlns:inkscape="http://www.inkscape.org/namespaces/inkscape"
   xmlns:sodipodi="http://sodipodi.sourceforge.net/DTD/sodipodi-0.dtd"
   xmlns="http://www.w3.org/2000/svg"
   xmlns:svg="http://www.w3.org/2000/svg">
  <sodipodi:namedview
     id="namedview1"
     pagecolor="#ffffff"
     bordercolor="#000000"
     borderopacity="0.25"
     inkscape:showpageshadow="2"
     inkscape:pageopacity="0.0"
     inkscape:pagecheckerboard="0"
     inkscape:deskcolor="#d1d1d1" />
  <defs
     id="defs1">
    <style
       id="current-color-scheme"
       type="text/css">.ColorScheme-Text {color:#d8dee9} .ColorScheme-Highlight {color:#3b4252}</style>
  </defs>
  <path
     fill-rule="evenodd"
     style="fill:currentColor;stroke-width:1.2"
     class="ColorScheme-Text"
     d="M 6.00003,2.4 A 2.40024,2.40024 0 0 0 3.61407,4.53516 l -1.2,10.79964 A 2.40024,2.40024 0 0 0 4.80003,18 h 14.4 a 2.40024,2.40024 0 0 0 2.3856,-2.6652 l -1.2,-10.79964 A 2.40024,2.40024 0 0 0 18.00003,2.4 Z m 4.8,2.4 h 2.4 v 4.8 h 3.6 l -4.8,6.1452 -4.8,-6.1452 h 3.6 z m -8.4,13.4436 V 18.9 c 0,1.4544 1.24572,2.7 2.7,2.7 h 13.8 c 1.4544,0 2.7,-1.2456 2.7,-2.7 v -0.6564 c -0.6384,0.582 -1.47,0.9564 -2.4,0.9564 h -14.4 c -0.92952,0 -1.76208,-0.3744 -2.4,-0.9564 z"
     id="path1" />
</svg>
