<?xml version="1.0" encoding="UTF-8" standalone="no"?>
<svg
   width="24"
   height="24"
   version="1.1"
   id="svg2"
   sodipodi:docname="seafile-status-syncing-2.svg"
   xmlns:inkscape="http://www.inkscape.org/namespaces/inkscape"
   xmlns:sodipodi="http://sodipodi.sourceforge.net/DTD/sodipodi-0.dtd"
   xmlns="http://www.w3.org/2000/svg"
   xmlns:svg="http://www.w3.org/2000/svg">
  <sodipodi:namedview
     id="namedview2"
     pagecolor="#ffffff"
     bordercolor="#000000"
     borderopacity="0.25"
     inkscape:showpageshadow="2"
     inkscape:pageopacity="0.0"
     inkscape:pagecheckerboard="0"
     inkscape:deskcolor="#d1d1d1" />
  <defs
     id="defs1">
    <style
       id="current-color-scheme"
       type="text/css">.ColorScheme-Text {color:#d8dee9} .ColorScheme-Highlight {color:#3b4252}</style>
  </defs>
  <g
     transform="translate(1 2)"
     style=""
     id="g2">
    <path
       opacity="0.3"
       style="fill:currentColor;stroke-width:1.2"
       class="ColorScheme-Text"
       d="m 15.199996,5.117857 c -2.66496,0 -4.92828,1.94988 -5.32968,4.58148 -0.667272,-0.631548 -1.55112,-0.98418 -2.47032,-0.98562 -1.98828,0 -3.6,1.60992 -3.6,3.5958 0.00131,0.41184 0.073447,0.820452 0.213276,1.20792 -0.07092,-0.012 -0.14208,-0.012 -0.213276,-0.012 -1.32552,0 -2.4,1.073244 -2.4,2.39724 0,1.323996 1.074516,2.39724 2.4,2.39724 h 1.25388 c 0.445416,-0.122976 0.778752,-0.243924 1.16016,-0.57354 0.407712,-0.352512 4.19724,-6.59952 7.6524,-6.59952 1.83216,7.19e-4 3.60888,0.897768 4.23048,3.35712 0.05492,0.230496 0.12936,0.67782 0.103128,0.819372 0,0.992928 -0.805884,1.79796 -1.8,1.79796 -0.994116,0 -1.8,-0.804996 -1.8,-1.79796 -1.01e-4,-0.982992 0.790188,-1.78392 1.7742,-1.79796 -0.562116,-0.356832 -1.24752,-0.566832 -1.76952,-0.57126 -1.4172,-0.012 -2.3004,1.22676 -2.4258,2.33412 -0.12408,1.0959 0.23472,2.36904 2.41176,3.03168 h 5.40936 c 1.65684,0 3,-1.3416 3,-2.99652 -5.52e-4,-1.54656 -1.179408,-2.83872 -2.72112,-2.98248 0.2112,-0.582 0.3192,-1.1952 0.3216,-1.8132 0,-2.97828 -2.418,-5.39316 -5.4,-5.39316 z"
       id="path1" />
    <path
       style="fill:currentColor;stroke-width:1.2"
       class="ColorScheme-Text"
       d="m 7.399996,2.720617 a 3.6,3.5958 0 0 0 -3.6,3.5958 v 0.325428 a 2.4,2.39724 0 0 0 -1.2,-0.325428 2.4,2.39724 0 0 0 -2.4,2.39724 h -0.6 a 0.6,0.599304 0 0 0 -0.6,0.599304 0.6,0.599304 0 0 0 0.6,0.599304 h 0.925776 2.74692 c 0.83556,-1.42308 2.36736,-2.39688 4.1274,-2.39688 h 0.00234 c 0.639756,9.588e-4 1.25988,0.141312 1.83984,0.383916 0.394392,-0.894048 0.969912,-1.6848 1.67808,-2.32236 a 3.6,3.5958 0 0 0 -3.5208,-2.87664 z"
       id="path2" />
  </g>
</svg>
