<?xml version="1.0" encoding="UTF-8" standalone="no"?>
<svg
   width="24"
   height="24"
   version="1.1"
   id="svg1"
   sodipodi:docname="seafile-status-ok.svg"
   xmlns:inkscape="http://www.inkscape.org/namespaces/inkscape"
   xmlns:sodipodi="http://sodipodi.sourceforge.net/DTD/sodipodi-0.dtd"
   xmlns="http://www.w3.org/2000/svg"
   xmlns:svg="http://www.w3.org/2000/svg">
  <sodipodi:namedview
     id="namedview1"
     pagecolor="#ffffff"
     bordercolor="#000000"
     borderopacity="0.25"
     inkscape:showpageshadow="2"
     inkscape:pageopacity="0.0"
     inkscape:pagecheckerboard="0"
     inkscape:deskcolor="#d1d1d1" />
  <defs
     id="defs1">
    <style
       id="current-color-scheme"
       type="text/css">.ColorScheme-Text {color:#d8dee9} .ColorScheme-Highlight {color:#3b4252}</style>
  </defs>
  <path
     style="fill:currentColor;stroke-width:1.2"
     class="ColorScheme-Text"
     d="m 8.399976,4.7000162 v 0.021094 a 3.6,3.5958 0 0 0 -3.6,3.59532 v 0.325776 a 2.4,2.39724 0 0 0 -1.2,-0.325776 2.4,2.39724 0 0 0 -2.4,2.3975998 H 0.59997603 a 0.6,0.599304 0 0 0 -0.599999996282,0.6 A 0.6,0.599304 0 0 0 0.59997603,11.91169 H 1.525752 4.272672 c 0.835572,-1.42332 2.36736,-2.3976002 4.1274,-2.3976002 h 0.00234 c 0.639756,9.588e-4 1.25988,0.14178 1.83984,0.384372 0.394392,-0.894048 0.96996,-1.68516 1.67808,-2.3226 a 3.6,3.5958 0 0 0 -3.5208,-2.87616 z m 7.8,2.41404 v 0.00469 c -2.66496,0 -4.92828,1.94808 -5.32968,4.5796798 -0.667272,-0.63156 -1.55112,-0.982944 -2.47032,-0.984384 -1.98828,0 -3.6,1.60932 -3.6,3.59532 0.00131,0.41184 0.073452,0.819516 0.213276,1.20708 -0.07092,-0.012 -0.14208,-0.01176 -0.213276,-0.01176 -1.32552,0 -2.4,1.073664 -2.4,2.3976 0,1.32408 1.074516,2.39772 2.4,2.39772 h 1.25388 c 0.445416,-0.122976 0.778752,-0.244596 1.16016,-0.574224 0.407712,-0.352512 4.19724,-6.5976 7.6524,-6.5976 1.83216,7.18e-4 3.60888,0.896928 4.23048,3.35628 0.05492,0.230496 0.12936,0.676416 0.103128,0.817968 0,0.992928 -0.805884,1.8 -1.8,1.8 -0.994116,0 -1.8,-0.807072 -1.8,-1.8 -1.01e-4,-0.982992 0.790212,-1.78368 1.7742,-1.7976 -0.562116,-0.356832 -1.24752,-0.565092 -1.76952,-0.569532 -1.4172,-0.012 -2.3004,1.22472 -2.4258,2.33208 -0.12408,1.0959 0.234672,2.37024 2.41176,3.03276 h 5.4096 c 1.6572,0 3,-1.3428 3,-2.9976 0,-1.5468 -1.1796,-2.838 -2.7216,-2.9808 0.2112,-0.582 0.3192,-1.194 0.3216,-1.812 0,-2.9795998 -2.418,-5.3955598 -5.4,-5.3955598 z"
     id="path1" />
</svg>
