<?xml version="1.0" encoding="UTF-8" standalone="no"?>
<svg
   width="24"
   height="24"
   version="1.1"
   id="svg1"
   sodipodi:docname="seafile-status-notification.svg"
   xmlns:inkscape="http://www.inkscape.org/namespaces/inkscape"
   xmlns:sodipodi="http://sodipodi.sourceforge.net/DTD/sodipodi-0.dtd"
   xmlns="http://www.w3.org/2000/svg"
   xmlns:svg="http://www.w3.org/2000/svg">
  <sodipodi:namedview
     id="namedview1"
     pagecolor="#ffffff"
     bordercolor="#000000"
     borderopacity="0.25"
     inkscape:showpageshadow="2"
     inkscape:pageopacity="0.0"
     inkscape:pagecheckerboard="0"
     inkscape:deskcolor="#d1d1d1" />
  <defs
     id="defs1">
    <style
       id="current-color-scheme"
       type="text/css">.ColorScheme-Text {color:#d8dee9} .ColorScheme-Highlight {color:#3b4252}</style>
  </defs>
  <g
     transform="translate(1 2)"
     style=""
     id="g1">
    <path
       style="fill:currentColor;stroke-width:1.2"
       class="ColorScheme-Text"
       d="m 7.400037,2.7000322 v 0.021094 c -1.98804,0 -3.59976,1.60956 -3.6,3.59532 v 0.3258 c -0.36444,-0.21204 -0.77832,-0.32448 -1.2,-0.3258 -1.32564,0 -2.40023997,1.073532 -2.39999997,2.3976 h -0.6 c -0.331644,-4e-7 -0.60038403,0.26874 -0.6,0.6 9.1152e-4,0.330348 0.269268,0.59766 0.6,0.59766 h 0.925776 2.74691997 c 0.83556,-1.42368 2.36724,-2.39796 4.12728,-2.39796 h 0.00234 c 0.63972,9.6e-4 1.25988,0.14184 1.83984,0.38436 0.39432,-0.894 0.96936,-1.68504 1.67856,-2.3226 -0.342,-1.67136 -1.81296,-2.87256 -3.5208,-2.8758 z m 7.8,2.41404 v 0.00469 c -2.66496,0 -4.92828,1.94808 -5.32968,4.57968 -0.6678,-0.63156 -1.5516,-0.98292 -2.4708,-0.98436 -1.98828,0 -3.6,1.6093198 -3.6,3.5953198 0.00131,0.41184 0.073452,0.819516 0.213276,1.20708 -0.07092,-0.012 -0.14208,-0.01176 -0.213276,-0.01176 -1.32552,0 -2.4,1.073664 -2.4,2.3976 0,1.3236 1.07448,2.3976 2.4,2.3976 h 1.25388 c 0.445416,-0.122976 0.778752,-0.244596 1.16016,-0.574224 0.407712,-0.352512 4.19724,-6.5976 7.6524,-6.5976 0,0 0.510336,-0.01957 0.733596,-0.02813 1.98828,0 3.6,1.61172 3.6,3.6 0,1.98828 -1.61172,3.6 -3.6,3.6 h 5.4 c 1.6572,0 3,-1.3428 3,-2.9976 0,-1.5468 -1.1796,-2.838 -2.7216,-2.9808 0.2112,-0.582 0.3192,-1.194 0.3216,-1.812 0,-2.9791198 -2.418,-5.3955598 -5.4,-5.3955598 z"
       id="path1" />
    <circle
       style="fill:currentColor;stroke-width:1.2"
       class="ColorScheme-Text"
       cx="14.600037"
       cy="14.700032"
       r="2.4000001"
       id="circle1" />
  </g>
</svg>
