<?xml version="1.0" encoding="UTF-8" standalone="no"?>
<svg
   width="24"
   height="24"
   version="1.1"
   id="svg1"
   sodipodi:docname="sendanywhere-tray.svg"
   xmlns:inkscape="http://www.inkscape.org/namespaces/inkscape"
   xmlns:sodipodi="http://sodipodi.sourceforge.net/DTD/sodipodi-0.dtd"
   xmlns="http://www.w3.org/2000/svg"
   xmlns:svg="http://www.w3.org/2000/svg">
  <sodipodi:namedview
     id="namedview1"
     pagecolor="#ffffff"
     bordercolor="#000000"
     borderopacity="0.25"
     inkscape:showpageshadow="2"
     inkscape:pageopacity="0.0"
     inkscape:pagecheckerboard="0"
     inkscape:deskcolor="#d1d1d1" />
  <defs
     id="defs1">
    <style
       id="current-color-scheme"
       type="text/css">.ColorScheme-Text {color:#d8dee9} .ColorScheme-Highlight {color:#3b4252}</style>
  </defs>
  <path
     style="fill:currentColor;stroke-width:1.2"
     class="ColorScheme-Text"
     d="M 18.314063,1.2 A 0.317687,0.317687 0 0 0 18,1.51875 V 2.4 H 8.4 C 7.2,2.4 5.8449035,2.3357514 4.5632813,2.9765626 3.281659,3.6173735 2.4,5.1333334 2.4,7.2 V 18 H 4.8 V 7.2 C 4.8,5.6666666 5.118341,5.3826265 5.6367187,5.1234374 6.1550965,4.8642487 7.2,4.8 8.4,4.8 h 10.8 2.083594 A 0.317687,0.317687 0 0 0 21.50625,4.2585937 L 18.541406,1.29375 A 0.317687,0.317687 0 0 0 18.314063,1.2 Z M 19.2,6 v 10.8 c 0,1.533334 -0.318341,1.817374 -0.836719,2.076563 C 17.844904,19.135751 16.8,19.2 15.6,19.2 H 5.7046874 5.68125 4.8 2.7164063 A 0.317687,0.317687 0 0 0 2.49375,19.741406 L 5.4585937,22.70625 A 0.317687,0.317687 0 0 0 5.6859374,22.8 0.317687,0.317687 0 0 0 6,22.48125 V 21.6 h 9.6 c 1.2,0 2.555096,0.06425 3.836719,-0.576563 C 20.718341,20.382626 21.6,18.866666 21.6,16.8 V 6 Z M 9.6,9.6 c -0.6648,0 -1.2,0.5352 -1.2,1.2 V 12 c 0,0.6648 0.5352,1.2 1.2,1.2 0.6648,0 1.2,-0.5352 1.2,-1.2 v -1.2 c 0,-0.6648 -0.5352,-1.2 -1.2,-1.2 z m 4.8,0 c -0.6648,0 -1.2,0.5352 -1.2,1.2 V 12 c 0,0.6648 0.5352,1.2 1.2,1.2 0.6648,0 1.2,-0.5352 1.2,-1.2 v -1.2 c 0,-0.6648 -0.5352,-1.2 -1.2,-1.2 z"
     id="path1" />
</svg>
