<?xml version="1.0" encoding="UTF-8" standalone="no"?>
<svg
   width="24"
   height="24"
   version="1.1"
   id="svg1"
   sodipodi:docname="session-desktop-tray.svg"
   xmlns:inkscape="http://www.inkscape.org/namespaces/inkscape"
   xmlns:sodipodi="http://sodipodi.sourceforge.net/DTD/sodipodi-0.dtd"
   xmlns="http://www.w3.org/2000/svg"
   xmlns:svg="http://www.w3.org/2000/svg">
  <sodipodi:namedview
     id="namedview1"
     pagecolor="#ffffff"
     bordercolor="#000000"
     borderopacity="0.25"
     inkscape:showpageshadow="2"
     inkscape:pageopacity="0.0"
     inkscape:pagecheckerboard="0"
     inkscape:deskcolor="#d1d1d1" />
  <defs
     id="defs1">
    <style
       id="current-color-scheme"
       type="text/css">.ColorScheme-Text {color:#d8dee9} .ColorScheme-Highlight {color:#3b4252}</style>
  </defs>
  <path
     style="fill:currentColor;stroke-width:1.2"
     class="ColorScheme-Text"
     d="M 10.164518,14.484558 C 10.140388,14.261369 9.96234,14.237238 9.8386284,14.164846 9.4282345,13.926571 8.6483272,13.700358 8.231895,13.471133 L 7.5529479,13.100146 C 7.2964594,12.958396 7.0369455,12.82267 6.780457,12.674873 6.4636071,12.493909 6.146769,12.315958 5.8419961,12.113874 5.2716709,11.736851 4.8220567,11.236174 4.4448571,10.663104 4.1944073,10.28307 3.9982563,9.875892 3.8654921,9.4445832 3.6633145,8.7900732 3.5395902,8.1144563 3.6301206,7.4297903 3.6843829,7.00753 3.7689232,5.9852689 3.9228283,5.5750795 4.1581879,4.9477241 4.5052067,4.4048087 4.9548329,3.9222266 5.2505539,3.6025132 5.5945475,3.3461448 5.9626953,3.1139074 6.4062708,2.8333961 6.8890791,2.6494205 7.3930162,2.5408374 7.8094363,2.4503615 8.2409467,2.4111353 8.6664309,2.4081234 c 2.7127871,-0.012 4.9425521,-0.0096 7.6553391,0 0.380213,0 0.769477,0.030119 1.137625,0.1236665 0.733259,0.1869995 1.379023,0.548939 1.901052,1.1159732 0.337968,0.3679633 0.615586,0.7781646 0.778542,1.2426516 0.368233,0.9364738 0.226128,1.3123375 0.0181,2.1775344 -0.141828,0.3287608 -0.325901,0.6394276 -0.519027,0.9410452 -0.262527,0.4071781 -0.618598,0.7329145 -1.038032,0.9711997 -0.304784,0.1719168 -0.633687,0.3076428 -0.965628,0.4313088 -0.546171,0.2020824 -1.122523,0.1508088 -1.692848,0.1568328 -0.519016,0.006 -0.680582,0 -1.19961,0.0036 -0.05125,0 -0.223079,0.03624 -0.274325,0.05724 2.087749,1.5755254 4.523129,2.5953734 5.613993,4.8258434 0.184072,0.500677 0.277617,1.01945 0.313824,1.547282 0.01812,0.274463 -0.02112,1.088946 -0.05738,1.363409 -0.03625,0.274476 -0.08152,0.554975 -0.168984,0.817379 -0.09965,0.307643 -0.223294,0.60926 -0.374175,0.892784 -0.253473,0.473535 -0.591441,0.886735 -0.989757,1.248675 -0.383238,0.346856 -0.808712,0.621332 -1.279454,0.832462 -0.691012,0.310666 -1.41523,0.43432 -2.160566,0.437344 -2.706749,0.0096 -4.933512,0.006 -7.640261,-0.0036 -0.3802127,0 -0.7694775,-0.03012 -1.1376131,-0.117588 C 5.84794,21.301241 5.2052001,20.930254 4.6771327,20.375279 4.3270887,20.004292 4.0675869,19.576008 3.8744613,19.11152 3.7929462,18.918485 3.7507368,18.704344 3.7115163,18.496224 c -0.045259,-0.244308 -0.084516,-0.491629 -0.09352,-0.73895 0.096467,-1.351652 1.2613849,-3.19018 4.0103323,-3.257656 0.6608435,-0.01512 1.6851861,-0.0036 2.3490434,-0.0036 0.057384,-0.0036 0.117648,-0.0096 0.187088,-0.01212 z M 12.709957,3.5572752 c 0,0.0036 0,0.0036 0,0 C 11.25248,3.5608752 9.7949928,3.5391564 8.3375157,3.572394 7.9301473,3.581994 7.5107019,3.6899892 7.1274759,3.8347981 6.6778497,4.0037029 6.2795332,4.2751546 5.9234626,4.6129633 5.3139167,5.1860333 4.9518076,6.4857817 4.8009277,7.2910895 4.6922821,7.8641591 4.7586709,8.4402408 4.9246522,8.9952156 c 0.1237242,0.413202 0.3168499,0.79626 0.558248,1.1581994 0.4466009,0.669582 1.0772757,1.106927 1.7622615,1.483937 0.3319284,0.183987 0.6698953,0.358928 1.0018237,0.542916 0.9655602,0.366601 1.9304766,0.876499 2.7624496,1.33615 0.292709,0.159857 0.585404,0.272326 0.878112,0.435195 0.08752,0.04824 0.123723,0.006 0.135789,-0.07236 0.0096,-0.06036 0.0096,-0.120654 0.0096,-0.183988 V 11.44121 c 0,-0.600212 0.0036,-1.8034496 0,-2.403662 0,-0.1990584 0.05126,-0.386058 0.229334,-0.4855932 0.105648,-0.06036 0.247448,-0.08448 0.374185,-0.08448 1.517826,-0.006 2.198208,-0.006 3.716045,-0.0036 0.597469,0 1.155716,-0.1327141 1.662667,-0.4554397 0.336531,-0.2155116 0.603432,-0.4781268 0.804096,-0.782412 0.61154,-0.9158388 0.341852,-1.6693979 0.04686,-2.3482391 -0.537131,-0.8294383 -1.31566,-1.2969371 -2.308433,-1.3150322 -1.442398,-0.024119 -2.404787,-0.006 -3.847184,-0.006 z M 11.786586,20.438648 c 1.36092,0 2.241842,-0.006 3.602762,0.0036 0.570314,0.0036 1.104419,-0.1176 1.62646,-0.334785 0.555235,-0.232249 1.013902,-0.597201 1.397128,-1.05264 0.274603,-0.325749 0.488845,-0.690701 0.627661,-1.10089 0.126738,-0.374011 0.223293,-1.275945 0.22028,-1.674087 -0.0036,-0.310654 0.006,-0.618308 -0.102648,-0.919914 -0.253127,-1.297102 -1.207639,-2.099313 -2.208863,-2.714612 -1.277806,-0.659134 -2.513388,-1.72586 -3.565164,-2.545552 -0.147854,-0.08148 -0.184072,-0.05736 -0.193125,0.1176 -0.0036,0.06036 -0.0036,0.123667 -0.0036,0.183988 v 4.534038 c 0,0.446391 -0.168983,0.615296 -0.615585,0.615296 -1.436359,0.0036 -3.2362053,0.0468 -4.6725649,0.0564 -0.316838,0.0036 -0.6367014,0.04224 -0.9535514,0.08448 -0.4978985,0.06636 -0.9203572,0.298594 -1.2915182,0.633391 -0.2705679,0.246581 -0.4823751,0.643975 -0.6327618,0.952208 -0.5369661,2.093741 0.9292306,2.747893 2.5549672,3.16203 1.4061788,0.0036 2.8063311,0 4.2094971,0 z"
     id="path1" />
</svg>
