<?xml version="1.0" encoding="UTF-8" standalone="no"?>
<svg
   width="24"
   height="24"
   version="1.1"
   id="svg1"
   sodipodi:docname="si-syncthing-4.svg"
   xmlns:inkscape="http://www.inkscape.org/namespaces/inkscape"
   xmlns:sodipodi="http://sodipodi.sourceforge.net/DTD/sodipodi-0.dtd"
   xmlns="http://www.w3.org/2000/svg"
   xmlns:svg="http://www.w3.org/2000/svg">
  <sodipodi:namedview
     id="namedview1"
     pagecolor="#ffffff"
     bordercolor="#000000"
     borderopacity="0.25"
     inkscape:showpageshadow="2"
     inkscape:pageopacity="0.0"
     inkscape:pagecheckerboard="0"
     inkscape:deskcolor="#d1d1d1" />
  <defs
     id="defs1">
    <style
       id="current-color-scheme"
       type="text/css">.ColorScheme-Text {color:#d8dee9} .ColorScheme-Highlight {color:#3b4252}</style>
  </defs>
  <g
     style=""
     id="g1">
    <path
       style="fill:currentColor;stroke-width:1.2"
       class="ColorScheme-Text"
       d="M 20.3136,16.8 A 9.6,9.6 0 0 0 16.8,3.6864 9.6,9.6 0 0 0 3.6864,7.2 9.6,9.6 0 0 0 7.2,20.3136 9.6,9.6 0 0 0 20.3136,16.8 Z m -2.0784,-1.2 a 7.2,7.2 0 0 1 -4.794,3.4488 1.8,1.8 0 0 1 -0.1344,0.288 A 1.8,1.8 0 0 1 10.848,19.9956 1.8,1.8 0 0 1 10.014,18.9132 7.2,7.2 0 0 1 8.4,18.2352 7.2,7.2 0 0 1 5.41224,14.8836 1.8,1.8 0 0 1 4.58328,14.646 a 1.8,1.8 0 0 1 -0.6588,-2.4588 1.8,1.8 0 0 1 0.908724,-0.777096 7.2,7.2 0 0 1 0.931464,-3.0102 7.2,7.2 0 0 1 6.2346,-3.59388 1.8,1.8 0 0 1 0.03308,-0.062099 1.8,1.8 0 0 1 2.4588,-0.658848 1.8,1.8 0 0 1 0.895932,1.57008 7.2,7.2 0 0 1 0.212904,0.1093428 7.2,7.2 0 0 1 2.63544,9.8354402 z M 17.196,15 A 6,6 0 0 0 15,6.80388 6,6 0 0 0 14.9772,6.79092 1.8,1.8 0 0 1 13.548,7.44012 l -1.50216,3.92832 a 1.8,1.8 0 0 1 0.393972,2.27076 1.8,1.8 0 0 1 -0.710064,0.686112 l 0.357024,2.34408 a 1.8,1.8 0 0 1 0.561888,0.208032 1.8,1.8 0 0 1 0.79176,0.944256 6,6 0 0 0 3.7548,-2.8212 z m -6.29688,1.85028 -0.357012,-2.34408 a 1.8,1.8 0 0 1 -0.5616,-0.2088 1.8,1.8 0 0 1 -0.75324,-0.852 l -2.01348,0.132 a 1.8,1.8 0 0 1 -0.1716,0.4092 1.8,1.8 0 0 1 -0.47976,0.54 6,6 0 0 0 2.43768,2.6688 6,6 0 0 0 1.1118,0.493056 1.8,1.8 0 0 1 0.07744,-0.152844 1.8,1.8 0 0 1 0.710064,-0.686112 z m 0.02485,-5.90712 1.50012,-3.92952 a 1.8,1.8 0 0 1 -0.594,-1.0056 6,6 0 0 0 -5.02692,2.99232 6,6 0 0 0 -0.763224,2.3766 1.8,1.8 0 0 1 0.342648,0.151824 1.8,1.8 0 0 1 0.753216,0.85164 l 2.01348,-0.13116 a 1.8,1.8 0 0 1 0.1716,-0.409716 1.8,1.8 0 0 1 1.6026,-0.8961 z"
       id="path1" />
  </g>
</svg>
