<?xml version="1.0" encoding="UTF-8" standalone="no"?>
<svg
   width="24"
   height="24"
   version="1.1"
   id="svg1"
   sodipodi:docname="si-syncthing-8.svg"
   xmlns:inkscape="http://www.inkscape.org/namespaces/inkscape"
   xmlns:sodipodi="http://sodipodi.sourceforge.net/DTD/sodipodi-0.dtd"
   xmlns="http://www.w3.org/2000/svg"
   xmlns:svg="http://www.w3.org/2000/svg">
  <sodipodi:namedview
     id="namedview1"
     pagecolor="#ffffff"
     bordercolor="#000000"
     borderopacity="0.25"
     inkscape:showpageshadow="2"
     inkscape:pageopacity="0.0"
     inkscape:pagecheckerboard="0"
     inkscape:deskcolor="#d1d1d1" />
  <defs
     id="defs1">
    <style
       id="current-color-scheme"
       type="text/css">.ColorScheme-Text {color:#d8dee9} .ColorScheme-Highlight {color:#3b4252}</style>
  </defs>
  <g
     style=""
     id="g1">
    <path
       style="fill:currentColor;stroke-width:1.2"
       class="ColorScheme-Text"
       d="m 3.686215,16.800015 a 9.6,9.6 0 0 0 13.1136,3.5136 9.6,9.6 0 0 0 3.5136,-13.1136 9.6,9.6 0 0 0 -13.1136,-3.51384 9.6,9.6 0 0 0 -3.51384,13.1136 z m 2.0784,-1.2 a 7.2,7.2 0 0 1 -0.58896,-5.8764 1.8,1.8 0 0 1 -0.18252,-0.25992 1.8,1.8 0 0 1 0.6588,-2.45892 1.8,1.8 0 0 1 1.3542,-0.18096 7.2,7.2 0 0 1 1.39392,-1.05924 7.2,7.2 0 0 1 4.39644,-0.91176 1.8,1.8 0 0 1 0.620328,-0.599004 1.8,1.8 0 0 1 2.4588,0.658848 1.8,1.8 0 0 1 0.218616,1.175532 7.2,7.2 0 0 1 2.14116,2.3118 7.2,7.2 0 0 1 -0.0049,7.19628 1.8,1.8 0 0 1 0.03724,0.0597 1.8,1.8 0 0 1 -0.658848,2.4588 1.8,1.8 0 0 1 -1.80768,-0.0091 7.2,7.2 0 0 1 -0.201144,0.129708 7.2,7.2 0 0 1 -9.83544,-2.63544 z m 1.03932,-0.6 a 6,6 0 0 0 8.19612,2.196 6,6 0 0 0 0.02232,-0.01289 1.8,1.8 0 0 1 0.152928,-1.56324 l -2.65104,-3.26508 a 1.8,1.8 0 0 1 -2.16348,-0.794184 1.8,1.8 0 0 1 -0.23916,-0.957984 l -2.20896,-0.8628 a 1.8,1.8 0 0 1 -0.46116,0.3816 1.8,1.8 0 0 1 -1.21356,0.2136 6,6 0 0 0 0.56556,4.6644 z m 1.54608,-6.37836 2.20884,0.86292 a 1.8,1.8 0 0 1 0.4608,-0.38268 1.8,1.8 0 0 1 1.1136,-0.22644 l 0.894,-1.80924 a 1.8,1.8 0 0 1 -0.2688,-0.35352 1.8,1.8 0 0 1 -0.228,-0.68568 6,6 0 0 0 -3.5304,0.77688 6,6 0 0 0 -0.98292,0.71628 1.8,1.8 0 0 1 0.093649,0.143484 1.8,1.8 0 0 1 0.23916,0.957984 z m 5.10324,2.97504 2.65296,3.26388 a 1.8,1.8 0 0 1 1.16802,-0.01128 6,6 0 0 0 -0.07808,-5.84928 6,6 0 0 0 -1.67664,-1.84932 1.8,1.8 0 0 1 -0.302808,0.220836 1.8,1.8 0 0 1 -1.114152,0.226476 l -0.893136,1.80924 a 1.8,1.8 0 0 1 0.269016,0.353472 1.8,1.8 0 0 1 -0.02526,1.836 z"
       id="path1" />
  </g>
</svg>
