<?xml version="1.0" encoding="UTF-8" standalone="no"?>
<svg
   width="24"
   height="24"
   version="1.1"
   id="svg1"
   sodipodi:docname="si-syncthing-2.svg"
   xmlns:inkscape="http://www.inkscape.org/namespaces/inkscape"
   xmlns:sodipodi="http://sodipodi.sourceforge.net/DTD/sodipodi-0.dtd"
   xmlns="http://www.w3.org/2000/svg"
   xmlns:svg="http://www.w3.org/2000/svg">
  <sodipodi:namedview
     id="namedview1"
     pagecolor="#ffffff"
     bordercolor="#000000"
     borderopacity="0.25"
     inkscape:showpageshadow="2"
     inkscape:pageopacity="0.0"
     inkscape:pagecheckerboard="0"
     inkscape:deskcolor="#d1d1d1" />
  <defs
     id="defs1">
    <style
       id="current-color-scheme"
       type="text/css">.ColorScheme-Text {color:#d8dee9} .ColorScheme-Highlight {color:#3b4252}</style>
  </defs>
  <g
     style=""
     id="g1">
    <path
       style="fill:currentColor;stroke-width:1.2"
       class="ColorScheme-Text"
       d="m 20.313635,7.200035 a 9.6,9.6 0 0 0 -13.1136,-3.51384 9.6,9.6 0 0 0 -3.51384,13.1136 9.6,9.6 0 0 0 13.1136,3.5136 9.6,9.6 0 0 0 3.5136,-13.1136 z m -2.07852,1.2 a 7.2,7.2 0 0 1 0.588984,5.8764 1.8,1.8 0 0 1 0.182556,0.259956 1.8,1.8 0 0 1 -0.658848,2.4588 1.8,1.8 0 0 1 -1.3542,0.181032 7.2,7.2 0 0 1 -1.3932,1.0584 7.2,7.2 0 0 1 -4.3968,0.912 1.8,1.8 0 0 1 -0.6204,0.5988 1.8,1.8 0 0 1 -2.45832,-0.6588 1.8,1.8 0 0 1 -0.21864,-1.176 7.2,7.2 0 0 1 -2.14128,-2.3112 7.2,7.2 0 0 1 0.00492,-7.19628 1.8,1.8 0 0 1 -0.0372,-0.05964 1.8,1.8 0 0 1 0.65892,-2.45892 1.8,1.8 0 0 1 1.80768,0.00912 7.2,7.2 0 0 1 0.201144,-0.129708 7.2,7.2 0 0 1 9.83544,2.63532 z m -1.0392,0.6 a 6,6 0 0 0 -8.196,-2.19612 6,6 0 0 0 -0.02232,0.01284 1.8,1.8 0 0 1 -0.15288,1.56324 l 2.65092,3.26508 a 1.8,1.8 0 0 1 2.16348,0.794184 1.8,1.8 0 0 1 0.23916,0.957984 l 2.2086,0.862872 a 1.8,1.8 0 0 1 0.4608,-0.3816 1.8,1.8 0 0 1 1.2132,-0.2136 6,6 0 0 0 -0.5652,-4.6644 z m -1.5456,6.378 -2.2092,-0.8628 a 1.8,1.8 0 0 1 -0.4611,0.382596 1.8,1.8 0 0 1 -1.114152,0.226476 l -0.893148,1.80924 a 1.8,1.8 0 0 1 0.269028,0.35346 1.8,1.8 0 0 1 0.22806,0.685632 6,6 0 0 0 3.5304,-0.7776 6,6 0 0 0 0.9828,-0.7164 1.8,1.8 0 0 1 -0.0936,-0.1428 1.8,1.8 0 0 1 -0.2388,-0.9588 z m -5.1036,-2.9748 -2.65296,-3.26376 a 1.8,1.8 0 0 1 -1.16802,0.011304 6,6 0 0 0 0.078084,5.84928 6,6 0 0 0 1.67664,1.84932 1.8,1.8 0 0 1 0.302808,-0.220836 1.8,1.8 0 0 1 1.114152,-0.226476 l 0.8928,-1.8084 a 1.8,1.8 0 0 1 -0.269016,-0.353472 1.8,1.8 0 0 1 0.02526,-1.836 z"
       id="path1" />
  </g>
</svg>
