<?xml version="1.0" encoding="UTF-8" standalone="no"?>
<svg
   width="24"
   height="24"
   version="1.1"
   id="svg1"
   sodipodi:docname="si-syncthing-11.svg"
   xmlns:inkscape="http://www.inkscape.org/namespaces/inkscape"
   xmlns:sodipodi="http://sodipodi.sourceforge.net/DTD/sodipodi-0.dtd"
   xmlns="http://www.w3.org/2000/svg"
   xmlns:svg="http://www.w3.org/2000/svg">
  <sodipodi:namedview
     id="namedview1"
     pagecolor="#ffffff"
     bordercolor="#000000"
     borderopacity="0.25"
     inkscape:showpageshadow="2"
     inkscape:pageopacity="0.0"
     inkscape:pagecheckerboard="0"
     inkscape:deskcolor="#d1d1d1" />
  <defs
     id="defs1">
    <style
       id="current-color-scheme"
       type="text/css">.ColorScheme-Text {color:#d8dee9} .ColorScheme-Highlight {color:#3b4252}</style>
  </defs>
  <g
     style=""
     id="g1">
    <path
       style="fill:currentColor;stroke-width:1.2"
       class="ColorScheme-Text"
       d="m 7.200035,3.686215 a 9.6,9.6 0 0 0 -3.51384,13.1136 9.6,9.6 0 0 0 13.1136,3.5136 9.6,9.6 0 0 0 3.5136,-13.1136 9.6,9.6 0 0 0 -13.1136,-3.51384 z m 1.2,2.07852 a 7.2,7.2 0 0 1 5.8764,-0.588984 1.8,1.8 0 0 1 0.259956,-0.182556 1.8,1.8 0 0 1 2.4588,0.658848 1.8,1.8 0 0 1 0.181032,1.3542 7.2,7.2 0 0 1 1.059156,1.39392 7.2,7.2 0 0 1 0.91176,4.39644 1.8,1.8 0 0 1 0.599004,0.620328 1.8,1.8 0 0 1 -0.658848,2.4588 1.8,1.8 0 0 1 -1.175532,0.218616 7.2,7.2 0 0 1 -2.3112,2.1408 7.2,7.2 0 0 1 -7.19628,-0.0049 1.8,1.8 0 0 1 -0.059699,0.03724 1.8,1.8 0 0 1 -2.4588,-0.658848 1.8,1.8 0 0 1 0.00912,-1.80768 7.2,7.2 0 0 1 -0.12972,-0.2016 7.2,7.2 0 0 1 2.63532,-9.83544 z m 0.6,1.0392 a 6,6 0 0 0 -2.19612,8.19612 6,6 0 0 0 0.012889,0.02232 1.8,1.8 0 0 1 1.56324,0.152928 l 3.26508,-2.65104 a 1.8,1.8 0 0 1 0.794184,-2.16348 1.8,1.8 0 0 1 0.957984,-0.23916 l 0.8628,-2.20896 a 1.8,1.8 0 0 1 -0.3816,-0.46116 1.8,1.8 0 0 1 -0.2136,-1.21356 6,6 0 0 0 -4.6644,0.56556 z m 6.378,1.54608 -0.8628,2.20884 a 1.8,1.8 0 0 1 0.382596,0.4611 1.8,1.8 0 0 1 0.226476,1.114152 l 1.80924,0.893148 a 1.8,1.8 0 0 1 0.3528,-0.2688 1.8,1.8 0 0 1 0.6852,-0.228 6,6 0 0 0 -0.7764,-3.5304 6,6 0 0 0 -0.7164,-0.98292 1.8,1.8 0 0 1 -0.1428,0.09372 1.8,1.8 0 0 1 -0.9588,0.23916 z m -2.97504,5.10324 -3.26388,2.65296 a 1.8,1.8 0 0 1 0.01128,1.16802 6,6 0 0 0 5.84928,-0.07808 6,6 0 0 0 1.84932,-1.67664 1.8,1.8 0 0 1 -0.220824,-0.302808 1.8,1.8 0 0 1 -0.226488,-1.114152 l -1.8084,-0.8928 a 1.8,1.8 0 0 1 -0.353472,0.269016 1.8,1.8 0 0 1 -1.836,-0.02526 z"
       id="path1" />
  </g>
</svg>
