<?xml version="1.0" encoding="UTF-8" standalone="no"?>
<svg
   width="24"
   height="24"
   version="1.1"
   id="svg1"
   sodipodi:docname="si-syncthing-7.svg"
   xmlns:inkscape="http://www.inkscape.org/namespaces/inkscape"
   xmlns:sodipodi="http://sodipodi.sourceforge.net/DTD/sodipodi-0.dtd"
   xmlns="http://www.w3.org/2000/svg"
   xmlns:svg="http://www.w3.org/2000/svg">
  <sodipodi:namedview
     id="namedview1"
     pagecolor="#ffffff"
     bordercolor="#000000"
     borderopacity="0.25"
     inkscape:showpageshadow="2"
     inkscape:pageopacity="0.0"
     inkscape:pagecheckerboard="0"
     inkscape:deskcolor="#d1d1d1" />
  <defs
     id="defs1">
    <style
       id="current-color-scheme"
       type="text/css">.ColorScheme-Text {color:#d8dee9} .ColorScheme-Highlight {color:#3b4252}</style>
  </defs>
  <g
     style=""
     id="g1">
    <path
       style="fill:currentColor;stroke-width:1.2"
       class="ColorScheme-Text"
       d="M 7.2,20.3136 A 9.6,9.6 0 0 0 20.3136,16.8 9.6,9.6 0 0 0 16.8,3.6864 9.6,9.6 0 0 0 3.6864,7.2 9.6,9.6 0 0 0 7.2,20.3136 Z M 8.4,18.2352 A 7.2,7.2 0 0 1 4.95168,13.4412 1.8,1.8 0 0 1 4.66368,13.3068 1.8,1.8 0 0 1 4.00476,10.848 1.8,1.8 0 0 1 5.08704,10.014 7.2,7.2 0 0 1 5.76456,8.4 7.2,7.2 0 0 1 9.11616,5.41224 1.8,1.8 0 0 1 9.35388,4.58328 1.8,1.8 0 0 1 11.8128,3.92448 1.8,1.8 0 0 1 12.5892,4.83312 7.2,7.2 0 0 1 15.6,5.76456 a 7.2,7.2 0 0 1 3.59388,6.2346 1.8,1.8 0 0 1 0.0621,0.03308 1.8,1.8 0 0 1 0.658848,2.4588 1.8,1.8 0 0 1 -1.57008,0.895932 7.2,7.2 0 0 1 -0.109344,0.212904 7.2,7.2 0 0 1 -9.83544,2.63544 z M 9,17.196 A 6,6 0 0 0 17.196,15 6,6 0 0 0 17.2092,14.9772 1.8,1.8 0 0 1 16.56,13.548 L 12.6312,12.0456 A 1.8,1.8 0 0 1 10.3608,12.4392 1.8,1.8 0 0 1 9.6744,11.7288 L 7.33056,12.0864 A 1.8,1.8 0 0 1 7.12248,12.648 1.8,1.8 0 0 1 6.1782,13.44 6,6 0 0 0 9,17.196 Z M 7.14972,10.8996 9.49392,10.542 A 1.8,1.8 0 0 1 9.702,9.9804 1.8,1.8 0 0 1 10.554,9.22716 L 10.422,7.21368 A 1.8,1.8 0 0 1 10.0128,7.04208 1.8,1.8 0 0 1 9.47232,6.56232 6,6 0 0 0 6.80388,9 6,6 0 0 0 6.310824,10.1118 1.8,1.8 0 0 1 6.463668,10.189236 1.8,1.8 0 0 1 7.14978,10.8993 Z m 5.90712,0.02485 3.92952,1.50012 a 1.8,1.8 0 0 1 1.0056,-0.594 6,6 0 0 0 -2.9928,-5.02692 6,6 0 0 0 -2.3772,-0.7632 1.8,1.8 0 0 1 -0.1512,0.3426 1.8,1.8 0 0 1 -0.852,0.75324 l 0.13116,2.01348 a 1.8,1.8 0 0 1 0.409716,0.1716 1.8,1.8 0 0 1 0.8961,1.6026 z"
       id="path1" />
  </g>
</svg>
