<?xml version="1.0" encoding="UTF-8" standalone="no"?>
<svg
   width="24"
   height="24"
   version="1.1"
   id="svg1"
   sodipodi:docname="si-syncthing-10.svg"
   xmlns:inkscape="http://www.inkscape.org/namespaces/inkscape"
   xmlns:sodipodi="http://sodipodi.sourceforge.net/DTD/sodipodi-0.dtd"
   xmlns="http://www.w3.org/2000/svg"
   xmlns:svg="http://www.w3.org/2000/svg">
  <sodipodi:namedview
     id="namedview1"
     pagecolor="#ffffff"
     bordercolor="#000000"
     borderopacity="0.25"
     inkscape:showpageshadow="2"
     inkscape:pageopacity="0.0"
     inkscape:pagecheckerboard="0"
     inkscape:deskcolor="#d1d1d1" />
  <defs
     id="defs1">
    <style
       id="current-color-scheme"
       type="text/css">.ColorScheme-Text {color:#d8dee9} .ColorScheme-Highlight {color:#3b4252}</style>
  </defs>
  <g
     style=""
     id="g1">
    <path
       style="fill:currentColor;stroke-width:1.2"
       class="ColorScheme-Text"
       d="M 3.686175,7.2 A 9.6,9.6 0 0 0 7.200015,20.3136 9.6,9.6 0 0 0 20.313615,16.8 9.6,9.6 0 0 0 16.800015,3.6864 9.6,9.6 0 0 0 3.686415,7.2 Z m 2.0784,1.2 a 7.2,7.2 0 0 1 4.79424,-3.44832 1.8,1.8 0 0 1 0.1344,-0.288 1.8,1.8 0 0 1 2.4588,-0.65892 1.8,1.8 0 0 1 0.834,1.08228 7.2,7.2 0 0 1 1.614,0.67752 7.2,7.2 0 0 1 2.988,3.3516 1.8,1.8 0 0 1 0.8292,0.23772 1.8,1.8 0 0 1 0.6588,2.45892 1.8,1.8 0 0 1 -0.9096,0.7764 7.2,7.2 0 0 1 -0.9312,3.0108 7.2,7.2 0 0 1 -6.234,3.594 1.8,1.8 0 0 1 -0.0336,0.0624 1.8,1.8 0 0 1 -2.45868,0.6588 A 1.8,1.8 0 0 1 8.612895,18.3444 7.2,7.2 0 0 1 8.400015,18.2352 7.2,7.2 0 0 1 5.764695,8.4 Z M 6.803895,9 a 6,6 0 0 0 2.19612,8.196 6,6 0 0 0 0.022324,0.01289 1.8,1.8 0 0 1 1.43028,-0.649176 l 1.50216,-3.92832 a 1.8,1.8 0 0 1 -0.393972,-2.27076 1.8,1.8 0 0 1 0.710052,-0.686112 l -0.3564,-2.34384 a 1.8,1.8 0 0 1 -0.5616,-0.20808 1.8,1.8 0 0 1 -0.792,-0.94428 6,6 0 0 0 -3.75612,2.8218 z m 6.29688,-1.85028 0.357012,2.34408 a 1.8,1.8 0 0 1 0.561888,0.208032 1.8,1.8 0 0 1 0.753216,0.85164 l 2.01348,-0.13116 a 1.8,1.8 0 0 1 0.1716,-0.4104 1.8,1.8 0 0 1 0.4788,-0.54048 6,6 0 0 0 -2.4372,-2.66844 6,6 0 0 0 -1.1124,-0.49308 1.8,1.8 0 0 1 -0.07744,0.152844 1.8,1.8 0 0 1 -0.710064,0.686112 z m -0.02485,5.90712 -1.50012,3.92952 a 1.8,1.8 0 0 1 0.593784,1.0059 6,6 0 0 0 5.02656,-2.99232 6,6 0 0 0 0.763224,-2.3766 1.8,1.8 0 0 1 -0.342648,-0.151824 1.8,1.8 0 0 1 -0.753216,-0.85164 l -2.01348,0.13116 a 1.8,1.8 0 0 1 -0.1716,0.409716 1.8,1.8 0 0 1 -1.6026,0.896088 z"
       id="path1" />
  </g>
</svg>
