<?xml version="1.0" encoding="UTF-8" standalone="no"?>
<svg
   width="24"
   height="24"
   version="1.1"
   id="svg1"
   sodipodi:docname="si-syncthing-1.svg"
   xmlns:inkscape="http://www.inkscape.org/namespaces/inkscape"
   xmlns:sodipodi="http://sodipodi.sourceforge.net/DTD/sodipodi-0.dtd"
   xmlns="http://www.w3.org/2000/svg"
   xmlns:svg="http://www.w3.org/2000/svg">
  <sodipodi:namedview
     id="namedview1"
     pagecolor="#ffffff"
     bordercolor="#000000"
     borderopacity="0.25"
     inkscape:showpageshadow="2"
     inkscape:pageopacity="0.0"
     inkscape:pagecheckerboard="0"
     inkscape:deskcolor="#d1d1d1" />
  <defs
     id="defs1">
    <style
       id="current-color-scheme"
       type="text/css">.ColorScheme-Text {color:#d8dee9} .ColorScheme-Highlight {color:#3b4252}</style>
  </defs>
  <g
     style=""
     id="g1">
    <path
       style="fill:currentColor;stroke-width:1.2"
       class="ColorScheme-Text"
       d="M 16.8,3.686175 A 9.6,9.6 0 0 0 3.6864,7.200015 9.6,9.6 0 0 0 7.2,20.313615 9.6,9.6 0 0 0 20.3136,16.800015 9.6,9.6 0 0 0 16.8,3.686415 Z m -1.2,2.07852 a 7.2,7.2 0 0 1 3.44832,4.7946 1.8,1.8 0 0 1 0.288084,0.133848 1.8,1.8 0 0 1 0.658848,2.4588 1.8,1.8 0 0 1 -1.082244,0.83388 7.2,7.2 0 0 1 -0.678,1.614 7.2,7.2 0 0 1 -3.3516,2.988 1.8,1.8 0 0 1 -0.2376,0.8292 1.8,1.8 0 0 1 -2.4588,0.6588 1.8,1.8 0 0 1 -0.7764,-0.9096 7.2,7.2 0 0 1 -3.0108,-0.9312 7.2,7.2 0 0 1 -3.59388,-6.234 1.8,1.8 0 0 1 -0.06204,-0.0336 1.8,1.8 0 0 1 -0.65892,-2.45868 1.8,1.8 0 0 1 1.57008,-0.89604 7.2,7.2 0 0 1 0.10932,-0.21288 7.2,7.2 0 0 1 9.83544,-2.63532 z m -0.6,1.0392 a 6,6 0 0 0 -8.19612,2.19612 6,6 0 0 0 -0.01296,0.02232 1.8,1.8 0 0 1 0.6492,1.42968 l 3.92832,1.50216 a 1.8,1.8 0 0 1 2.27076,-0.393972 1.8,1.8 0 0 1 0.686112,0.710064 l 2.34408,-0.357024 a 1.8,1.8 0 0 1 0.2088,-0.5604 1.8,1.8 0 0 1 0.9432,-0.792 6,6 0 0 0 -2.8212,-3.75612 z m 1.85028,6.29688 -2.34408,0.357012 a 1.8,1.8 0 0 1 -0.208032,0.561888 1.8,1.8 0 0 1 -0.85164,0.753216 l 0.13116,2.01348 a 1.8,1.8 0 0 1 0.409716,0.1716 1.8,1.8 0 0 1 0.540324,0.479748 6,6 0 0 0 2.66856,-2.43768 6,6 0 0 0 0.493056,-1.1118 1.8,1.8 0 0 1 -0.152844,-0.07744 1.8,1.8 0 0 1 -0.686112,-0.710064 z m -5.90712,-0.02485 -3.92952,-1.50012 a 1.8,1.8 0 0 1 -1.005888,0.593796 6,6 0 0 0 2.99232,5.02656 6,6 0 0 0 2.3766,0.763224 1.8,1.8 0 0 1 0.151824,-0.342648 1.8,1.8 0 0 1 0.85164,-0.753216 l -0.13116,-2.01348 a 1.8,1.8 0 0 1 -0.409716,-0.1716 1.8,1.8 0 0 1 -0.8961,-1.6026 z"
       id="path1" />
  </g>
</svg>
