<?xml version="1.0" encoding="UTF-8" standalone="no"?>
<svg
   width="24"
   height="24"
   version="1.1"
   id="svg1"
   sodipodi:docname="si-syncthing-5.svg"
   xmlns:inkscape="http://www.inkscape.org/namespaces/inkscape"
   xmlns:sodipodi="http://sodipodi.sourceforge.net/DTD/sodipodi-0.dtd"
   xmlns="http://www.w3.org/2000/svg"
   xmlns:svg="http://www.w3.org/2000/svg">
  <sodipodi:namedview
     id="namedview1"
     pagecolor="#ffffff"
     bordercolor="#000000"
     borderopacity="0.25"
     inkscape:showpageshadow="2"
     inkscape:pageopacity="0.0"
     inkscape:pagecheckerboard="0"
     inkscape:deskcolor="#d1d1d1" />
  <defs
     id="defs1">
    <style
       id="current-color-scheme"
       type="text/css">.ColorScheme-Text {color:#d8dee9} .ColorScheme-Highlight {color:#3b4252}</style>
  </defs>
  <g
     style=""
     id="g1">
    <path
       style="fill:currentColor;stroke-width:1.2"
       class="ColorScheme-Text"
       d="m 16.800015,20.313635 a 9.6,9.6 0 0 0 3.5136,-13.1136 9.6,9.6 0 0 0 -13.1136,-3.51384 9.6,9.6 0 0 0 -3.51384,13.1136 9.6,9.6 0 0 0 13.1136,3.5136 z m -1.2,-2.0784 a 7.2,7.2 0 0 1 -5.8764,0.5892 1.8,1.8 0 0 1 -0.25992,0.1824 1.8,1.8 0 0 1 -2.45892,-0.6588 1.8,1.8 0 0 1 -0.18096,-1.3536 7.2,7.2 0 0 1 -1.05924,-1.3944 7.2,7.2 0 0 1 -0.91176,-4.3968 1.8,1.8 0 0 1 -0.59892,-0.6204 1.8,1.8 0 0 1 0.6588,-2.45832 1.8,1.8 0 0 1 1.17552,-0.21864 7.2,7.2 0 0 1 2.3118,-2.14128 7.2,7.2 0 0 1 7.19628,0.00492 1.8,1.8 0 0 1 0.0597,-0.037237 1.8,1.8 0 0 1 2.4588,0.658848 1.8,1.8 0 0 1 -0.0091,1.80768 7.2,7.2 0 0 1 0.129708,0.201144 7.2,7.2 0 0 1 -2.63544,9.83544 z m -0.6,-1.0392 a 6,6 0 0 0 2.196,-8.196 6,6 0 0 0 -0.0132,-0.02232 1.8,1.8 0 0 1 -1.5624,-0.15288 l -3.26508,2.65092 a 1.8,1.8 0 0 1 -0.794184,2.16348 1.8,1.8 0 0 1 -0.957984,0.23916 l -0.862872,2.2086 a 1.8,1.8 0 0 1 0.382596,0.4611 1.8,1.8 0 0 1 0.213552,1.21368 6,6 0 0 0 4.6632,-0.5664 z m -6.37836,-1.5456 0.86292,-2.2092 a 1.8,1.8 0 0 1 -0.38268,-0.4608 1.8,1.8 0 0 1 -0.22644,-1.1136 l -1.80924,-0.894 a 1.8,1.8 0 0 1 -0.35352,0.2688 1.8,1.8 0 0 1 -0.68568,0.228 6,6 0 0 0 0.77688,3.5304 6,6 0 0 0 0.716328,0.982896 1.8,1.8 0 0 1 0.143484,-0.09365 1.8,1.8 0 0 1 0.957984,-0.23916 z m 2.97504,-5.10324 3.26388,-2.65296 a 1.8,1.8 0 0 1 -0.01128,-1.16802 6,6 0 0 0 -5.84928,0.078084 6,6 0 0 0 -1.84932,1.67664 1.8,1.8 0 0 1 0.220836,0.302808 1.8,1.8 0 0 1 0.226476,1.114152 l 1.80924,0.893136 a 1.8,1.8 0 0 1 0.353472,-0.269016 1.8,1.8 0 0 1 1.836,0.02526 z"
       id="path1" />
  </g>
</svg>
