<?xml version="1.0" encoding="UTF-8" standalone="no"?>
<svg
   width="24"
   height="24"
   version="1.1"
   id="svg1"
   sodipodi:docname="si-syncthing-6.svg"
   xmlns:inkscape="http://www.inkscape.org/namespaces/inkscape"
   xmlns:sodipodi="http://sodipodi.sourceforge.net/DTD/sodipodi-0.dtd"
   xmlns="http://www.w3.org/2000/svg"
   xmlns:svg="http://www.w3.org/2000/svg">
  <sodipodi:namedview
     id="namedview1"
     pagecolor="#ffffff"
     bordercolor="#000000"
     borderopacity="0.25"
     inkscape:showpageshadow="2"
     inkscape:pageopacity="0.0"
     inkscape:pagecheckerboard="0"
     inkscape:deskcolor="#d1d1d1" />
  <defs
     id="defs1">
    <style
       id="current-color-scheme"
       type="text/css">.ColorScheme-Text {color:#d8dee9} .ColorScheme-Highlight {color:#3b4252}</style>
  </defs>
  <g
     style=""
     id="g1">
    <path
       style="fill:currentColor;stroke-width:1.2"
       class="ColorScheme-Text"
       d="M 12,21.6 A 9.6,9.6 0 0 0 21.6,12 9.6,9.6 0 0 0 12,2.4 9.6,9.6 0 0 0 2.4,12 9.6,9.6 0 0 0 12,21.6 Z m 0,-2.4 A 7.2,7.2 0 0 1 6.61644,16.7724 1.8,1.8 0 0 1 6.3,16.8 1.8,1.8 0 0 1 4.5,15 1.8,1.8 0 0 1 5.02032,13.7364 7.2,7.2 0 0 1 4.8,12 7.2,7.2 0 0 1 6.20856,7.73676 1.8,1.8 0 0 1 6,6.9 1.8,1.8 0 0 1 7.8,5.1 1.8,1.8 0 0 1 8.9274,5.4984 7.2,7.2 0 0 1 12,4.8 7.2,7.2 0 0 1 18.22968,8.4024 1.8,1.8 0 0 1 18.3,8.4 a 1.8,1.8 0 0 1 1.8,1.8 1.8,1.8 0 0 1 -0.911736,1.56096 7.2,7.2 0 0 1 0.01176,0.239052 7.2,7.2 0 0 1 -7.2,7.2 z M 12,18 a 6,6 0 0 0 6,-6 6,6 0 0 0 -4e-6,-0.02578 1.8,1.8 0 0 1 -1.2774,-0.914064 l -4.15308,0.663276 a 1.8,1.8 0 0 1 -1.76952,1.4766 1.8,1.8 0 0 1 -0.9492236,-0.271872 l -1.8516,1.4808 a 1.8,1.8 0 0 1 0.1008,0.5904 1.8,1.8 0 0 1 -0.42192,1.158 6,6 0 0 0 4.3219196,1.842 z M 7.2492,13.4724 9.1008,11.9904 A 1.8,1.8 0 0 1 9,11.4 1.8,1.8 0 0 1 9.36096,10.3224 L 8.24064,8.64372 A 1.8,1.8 0 0 1 7.8,8.7 1.8,1.8 0 0 1 7.09224,8.55468 6,6 0 0 0 6,12 6,6 0 0 0 6.128904,13.20936 1.8,1.8 0 0 1 6.299988,13.2 1.8,1.8 0 0 1 7.249212,13.471872 Z m 5.12808,-2.93208 4.15308,-0.665628 a 1.8,1.8 0 0 1 0.5748,-1.01772 6,6 0 0 0 -5.1048,-2.85708 6,6 0 0 0 -2.43984,0.5274 1.8,1.8 0 0 1 0.03984,0.3726 1.8,1.8 0 0 1 -0.36096,1.0782 l 1.120308,1.67808 a 1.8,1.8 0 0 1 0.440628,-0.056244 1.8,1.8 0 0 1 1.5774,0.93984 z"
       id="path1" />
  </g>
</svg>
