<?xml version="1.0" encoding="UTF-8" standalone="no"?>
<svg
   width="24"
   height="24"
   version="1.1"
   id="svg1"
   sodipodi:docname="si-syncthing-unknown.svg"
   xmlns:inkscape="http://www.inkscape.org/namespaces/inkscape"
   xmlns:sodipodi="http://sodipodi.sourceforge.net/DTD/sodipodi-0.dtd"
   xmlns="http://www.w3.org/2000/svg"
   xmlns:svg="http://www.w3.org/2000/svg">
  <sodipodi:namedview
     id="namedview1"
     pagecolor="#ffffff"
     bordercolor="#000000"
     borderopacity="0.25"
     inkscape:showpageshadow="2"
     inkscape:pageopacity="0.0"
     inkscape:pagecheckerboard="0"
     inkscape:deskcolor="#d1d1d1" />
  <defs
     id="defs1">
    <style
       id="current-color-scheme"
       type="text/css">.ColorScheme-Text {color:#d8dee9} .ColorScheme-Highlight {color:#3b4252}</style>
  </defs>
  <path
     opacity="0.35"
     style="fill:currentColor;stroke-width:1.2"
     class="ColorScheme-Text"
     d="M 12,2.4 A 9.6,9.6 0 0 0 2.4,12 9.6,9.6 0 0 0 12,21.6 9.6,9.6 0 0 0 21.6,12 9.6,9.6 0 0 0 12,2.4 Z m 0,2.4 A 7.2,7.2 0 0 1 17.3832,7.22808 1.8,1.8 0 0 1 17.7,7.2 1.8,1.8 0 0 1 19.5,9 1.8,1.8 0 0 1 18.9792,10.2636 7.2,7.2 0 0 1 19.2,12 7.2,7.2 0 0 1 17.7912,16.2636 1.8,1.8 0 0 1 18,17.1 1.8,1.8 0 0 1 16.2,18.9 1.8,1.8 0 0 1 15.0732,18.5016 7.2,7.2 0 0 1 12,19.2 7.2,7.2 0 0 1 5.77032,15.5976 1.8,1.8 0 0 1 5.7,15.6 1.8,1.8 0 0 1 3.9,13.8 a 1.8,1.8 0 0 1 0.911736,-1.56096 7.2,7.2 0 0 1 -0.01176,-0.239052 7.2,7.2 0 0 1 7.2,-7.2 z M 12,6 a 6,6 0 0 0 -6,6 6,6 0 0 0 3.5e-6,0.02578 1.8,1.8 0 0 1 1.2774,0.914064 l 4.1530795,-0.663276 a 1.8,1.8 0 0 1 1.76952,-1.4766 1.8,1.8 0 0 1 0.949224,0.271872 l 1.8516,-1.48056 a 1.8,1.8 0 0 1 -0.1008,-0.59064 1.8,1.8 0 0 1 0.4224,-1.15776 6,6 0 0 0 -4.3224,-1.84224 z m 4.7508,4.52808 -1.8516,1.48128 a 1.8,1.8 0 0 1 0.100788,0.590628 1.8,1.8 0 0 1 -0.360936,1.078128 l 1.120308,1.67808 a 1.8,1.8 0 0 1 0.4404,-0.0552 1.8,1.8 0 0 1 0.708,0.1452 6,6 0 0 0 1.092,-3.4452 6,6 0 0 0 -0.128904,-1.20936 1.8,1.8 0 0 1 -0.171096,0.0094 1.8,1.8 0 0 1 -0.949224,-0.271872 z m -5.12808,2.93208 -4.15308,0.665628 a 1.8,1.8 0 0 1 -0.574224,1.017192 6,6 0 0 0 5.10468,2.85708 6,6 0 0 0 2.43984,-0.52734 1.8,1.8 0 0 1 -0.03984,-0.37266 1.8,1.8 0 0 1 0.360936,-1.078128 l -1.120308,-1.67808 a 1.8,1.8 0 0 1 -0.440628,0.05624 1.8,1.8 0 0 1 -1.5774,-0.93984 z"
     id="path1" />
</svg>
