<?xml version="1.0" encoding="UTF-8" standalone="no"?>
<svg
   width="24"
   height="24"
   version="1.1"
   id="svg1"
   sodipodi:docname="signal-unread-3.svg"
   xmlns:inkscape="http://www.inkscape.org/namespaces/inkscape"
   xmlns:sodipodi="http://sodipodi.sourceforge.net/DTD/sodipodi-0.dtd"
   xmlns="http://www.w3.org/2000/svg"
   xmlns:svg="http://www.w3.org/2000/svg">
  <sodipodi:namedview
     id="namedview1"
     pagecolor="#ffffff"
     bordercolor="#000000"
     borderopacity="0.25"
     inkscape:showpageshadow="2"
     inkscape:pageopacity="0.0"
     inkscape:pagecheckerboard="0"
     inkscape:deskcolor="#d1d1d1" />
  <defs
     id="defs1">
    <style
       id="current-color-scheme"
       type="text/css">.ColorScheme-Text {color:#d8dee9} .ColorScheme-Highlight {color:#3b4252}</style>
  </defs>
  <circle
     style="fill:currentColor;stroke-width:1.2"
     class="ColorScheme-Text"
     cx="4.8000002"
     cy="19.200001"
     r="2.4000001"
     id="circle1" />
  <path
     style="fill:currentColor;stroke-width:1.2"
     class="ColorScheme-Text"
     d="M 12,2.4 C 10.854,2.4 9.7536,2.60364 8.73276,2.9766 L 9.1476,4.1016 C 10.0392,3.77724 10.9992,3.6 12,3.6 c 0.9432,0 1.8492,0.1602 2.6976,0.45 l 0.42,-1.1226 C 14.1384,2.58804 13.0896,2.4 12,2.4 Z m 4.2684,1.01256 -0.516,1.08036 c 1.0104,0.50856 1.9044,1.2144 2.6316,2.06724 L 19.2708,5.75628 C 18.438,4.78896 17.418,3.98892 16.2684,3.41256 Z M 7.58676,3.48744 C 6.44748,4.08276 5.44068,4.8972 4.6242,5.87808 l 0.88596,0.804 C 6.22344,5.81376 7.1058,5.09088 8.10708,4.56324 Z M 12,4.8 c -3.97644,0 -7.2,3.22356 -7.2,7.2 9.6e-4,1.2636 0.3348,2.5056 0.96792,3.6 L 5.73516,15.7248 A 3.6,3.6 0 0 1 8.2758,18.2652 L 8.4,18.2316 c 1.09416,0.6336 2.3352,0.9672 3.6,0.9684 3.9768,0 7.2,-3.2232 7.2,-7.2 0,-3.97644 -3.2232,-7.2 -7.2,-7.2 z m 8.0556,2.0016 -1.02,0.62808 c 0.6048,0.92628 1.0332,1.9782 1.2336,3.10512 l 1.1856,-0.18 C 21.2292,9.06528 20.7444,7.86228 20.0556,6.8016 Z M 3.85548,6.94224 C 3.1872,8.0112 2.72112,9.21816 2.51724,10.5096 L 3.7008,10.692 C 3.87972,9.55932 4.29048,8.5002 4.8774,7.56324 Z m 17.73492,4.65216 -1.2,0.0708 C 20.3952,11.7756 20.4,11.8872 20.4,12 c 0,1.0404 -0.192,2.0364 -0.5412,2.958 l 1.122,0.4188 C 21.3804,14.3256 21.6,13.1868 21.6,12 c 0,-0.1356 -0.0036,-0.2712 -0.0096,-0.4056 z M 2.40468,11.7636 C 2.40276,11.8416 2.4,12.0024 2.4,12.0024 c 0.00108,1.2372 0.34068,2.4024 0.7992,3.5064 L 4.25856,15.0744 C 3.84984,14.0832 3.60084,13.05 3.6,12.0024 c 0,0 0.00348,-0.1176 0.00468,-0.1764 z M 19.3824,15.996 c -0.5316,0.9756 -1.2516,1.8336 -2.1084,2.5296 l 0.7164,0.9576 c 1.0104,-0.8112 1.8528,-1.8192 2.4708,-2.9664 z m -3.0444,3.1872 c -0.9432,0.5736 -2.0076,0.966 -3.1428,1.1304 l 0.174,1.188 c 1.2984,-0.1884 2.5176,-0.6408 3.5976,-1.2984 z m -7.52076,0.5112 -0.43128,1.0644 c 1.13412,0.48 2.33604,0.84 3.61164,0.8412 v -1.2 c -1.086,-0.0012 -2.154,-0.27 -3.18036,-0.7056 z"
     id="path1" />
</svg>
