<?xml version="1.0" encoding="UTF-8" standalone="no"?>
<svg
   width="24"
   height="24"
   version="1"
   id="svg1"
   sodipodi:docname="simplescreenrecorder-error.svg"
   xmlns:inkscape="http://www.inkscape.org/namespaces/inkscape"
   xmlns:sodipodi="http://sodipodi.sourceforge.net/DTD/sodipodi-0.dtd"
   xmlns="http://www.w3.org/2000/svg"
   xmlns:svg="http://www.w3.org/2000/svg">
  <sodipodi:namedview
     id="namedview1"
     pagecolor="#ffffff"
     bordercolor="#000000"
     borderopacity="0.25"
     inkscape:showpageshadow="2"
     inkscape:pageopacity="0.0"
     inkscape:pagecheckerboard="0"
     inkscape:deskcolor="#d1d1d1" />
  <defs
     id="defs1">
    <style
       id="current-color-scheme"
       type="text/css">.ColorScheme-Text {color:#d8dee9} .ColorScheme-Highlight {color:#3b4252}</style>
  </defs>
  <path
     style="fill:currentColor;stroke-width:1.2"
     class="ColorScheme-Text"
     d="M 2.5179687,4.8 C 1.7323287,4.8 1.1,5.4413026 1.1,6.2390626 V 17.760937 C 1.1,18.558937 1.7323287,19.2 2.5179687,19.2 H 16.482031 C 17.268031,19.2 17.9,18.558937 17.9,17.760937 V 14.4 l 6,2.4 V 7.2 l -6,2.4 V 6.2390626 C 17.9,5.4413024 17.268031,4.8 16.482031,4.8 Z M 6.8328126,7.2 9.5,9.8671872 12.167187,7.2 14.3,9.3328128 11.632813,12 14.3,14.667187 12.167187,16.8 9.5,14.132813 6.8328126,16.8 4.7,14.667187 7.3671874,12 4.7,9.3328128 Z"
     id="path1" />
</svg>
