<?xml version="1.0" encoding="UTF-8" standalone="no"?>
<svg
   width="24"
   height="24"
   version="1.1"
   id="svg1"
   sodipodi:docname="sirikali-panel.svg"
   xmlns:inkscape="http://www.inkscape.org/namespaces/inkscape"
   xmlns:sodipodi="http://sodipodi.sourceforge.net/DTD/sodipodi-0.dtd"
   xmlns="http://www.w3.org/2000/svg"
   xmlns:svg="http://www.w3.org/2000/svg">
  <sodipodi:namedview
     id="namedview1"
     pagecolor="#ffffff"
     bordercolor="#000000"
     borderopacity="0.25"
     inkscape:showpageshadow="2"
     inkscape:pageopacity="0.0"
     inkscape:pagecheckerboard="0"
     inkscape:deskcolor="#d1d1d1" />
  <defs
     id="defs1">
    <style
       id="current-color-scheme"
       type="text/css">.ColorScheme-Text {color:#d8dee9} .ColorScheme-Highlight {color:#3b4252}</style>
  </defs>
  <path
     style="fill:currentColor;stroke-width:1.2"
     class="ColorScheme-Text"
     d="M 12,2.4 C 8.8089606,2.4 7.3597084,4.9915747 7.2,8.3085937 V 10.8 H 5.8078126 C 5.2498126,10.8 4.8,11.345663 4.8,11.917969 v 8.648437 C 4.8,21.138714 5.2498127,21.6 5.8078126,21.6 H 18.192187 C 18.750187,21.6 19.2,21.138714 19.2,20.566406 V 11.917969 C 19.2,11.345663 18.750187,10.8 18.192187,10.8 H 16.8 V 8.3085937 C 16.8,5.0357321 15.19104,2.4 12,2.4 Z m 0,2.4 c 1.662,0 2.4,1.5967729 2.4,3.58125 V 10.8 H 9.6 V 8.38125 C 9.6,6.3967729 10.338,4.8 12,4.8 Z m 0,8.4 c 1.325482,0 2.4,1.101468 2.4,2.460937 -0.0011,0.888763 -0.470018,1.690194 -1.2,2.123437 V 19.2 A 1.2,1.2 0 0 1 12,20.4 1.2,1.2 0 0 1 10.8,19.2 V 17.784374 C 10.070029,17.35113 9.601158,16.5497 9.6,15.660937 9.6000012,14.301468 10.674518,13.200001 12,13.2 Z"
     id="path1" />
</svg>
