<?xml version="1.0" encoding="UTF-8" standalone="no"?>
<svg
   width="24"
   height="24"
   version="1"
   id="svg2"
   sodipodi:docname="skype-status-connecting-0.svg"
   xmlns:inkscape="http://www.inkscape.org/namespaces/inkscape"
   xmlns:sodipodi="http://sodipodi.sourceforge.net/DTD/sodipodi-0.dtd"
   xmlns="http://www.w3.org/2000/svg"
   xmlns:svg="http://www.w3.org/2000/svg">
  <sodipodi:namedview
     id="namedview2"
     pagecolor="#ffffff"
     bordercolor="#000000"
     borderopacity="0.25"
     inkscape:showpageshadow="2"
     inkscape:pageopacity="0.0"
     inkscape:pagecheckerboard="0"
     inkscape:deskcolor="#d1d1d1" />
  <defs
     id="defs1">
    <style
       id="current-color-scheme"
       type="text/css">.ColorScheme-Text {color:#d8dee9} .ColorScheme-Highlight {color:#3b4252}</style>
  </defs>
  <path
     style="fill:currentColor;stroke-width:1.2"
     class="ColorScheme-Text"
     d="m 9.8069,3.20812 a 4.8,4.8 0 0 0 -4.8,4.8 4.8,4.8 0 0 0 1.33824,3.324 8.4,8.4 0 0 0 -0.13824,1.476 8.4,8.4 0 0 0 8.4,8.4 8.4,8.4 0 0 0 1.4856,-0.1356 4.8,4.8 0 0 0 3.3144,1.3356 4.8,4.8 0 0 0 4.8,-4.8 4.8,4.8 0 0 0 -1.338,-3.324 8.4,8.4 0 0 0 0.138,-1.476 8.4,8.4 0 0 0 -8.4,-8.4 8.4,8.4 0 0 0 -1.4856,0.13596 4.8,4.8 0 0 0 -3.3144,-1.33596 z m 4.8,3.70776 a 1.2,1.2 0 0 1 1.2,1.2 1.2,1.2 0 0 1 -1.2,1.2 3.6,3.6 0 0 0 -3.6,3.6 h 1.2 l -2.4,3.6 -2.4,-3.6 h 1.2 a 6,6 0 0 1 5.8872,-5.99544 1.2,1.2 0 0 1 0.1128,-0.0048 z m 4.8,2.4 2.4,3.6 h -1.2 a 6,6 0 0 1 -5.88744,5.99532 1.2,1.2 0 0 1 -0.1125,0.0047 1.2,1.2 0 0 1 -1.2,-1.2 1.2,1.2 0 0 1 1.2,-1.2 3.6,3.6 0 0 0 3.6,-3.6 h -1.2 l 2.4,-3.6 z"
     id="path1" />
  <path
     style="fill:currentColor;stroke-width:1.2"
     class="ColorScheme-Text"
     d="M -26.2759,-6.48932"
     id="path2" />
</svg>
