<?xml version="1.0" encoding="UTF-8" standalone="no"?>
<svg
   width="24"
   height="24"
   version="1"
   id="svg2"
   sodipodi:docname="skype-status-connected.svg"
   xmlns:inkscape="http://www.inkscape.org/namespaces/inkscape"
   xmlns:sodipodi="http://sodipodi.sourceforge.net/DTD/sodipodi-0.dtd"
   xmlns="http://www.w3.org/2000/svg"
   xmlns:svg="http://www.w3.org/2000/svg">
  <sodipodi:namedview
     id="namedview2"
     pagecolor="#ffffff"
     bordercolor="#000000"
     borderopacity="0.25"
     inkscape:showpageshadow="2"
     inkscape:pageopacity="0.0"
     inkscape:pagecheckerboard="0"
     inkscape:deskcolor="#d1d1d1" />
  <defs
     id="defs1">
    <style
       id="current-color-scheme"
       type="text/css">.ColorScheme-Text {color:#d8dee9} .ColorScheme-Highlight {color:#3b4252}</style>
  </defs>
  <path
     style="fill:currentColor;stroke-width:1.2"
     class="ColorScheme-Text"
     d="m 9.8069,3.20812 a 4.8,4.8 0 0 0 -4.8,4.8 4.8,4.8 0 0 0 1.33824,3.324 8.4,8.4 0 0 0 -0.13824,1.476 8.4,8.4 0 0 0 8.4,8.4 8.4,8.4 0 0 0 1.4856,-0.1356 4.8,4.8 0 0 0 3.3144,1.3356 4.8,4.8 0 0 0 4.8,-4.8 4.8,4.8 0 0 0 -1.338,-3.324 8.4,8.4 0 0 0 0.138,-1.476 8.4,8.4 0 0 0 -8.4,-8.4 8.4,8.4 0 0 0 -1.4856,0.13596 4.8,4.8 0 0 0 -3.3144,-1.33596 z m 4.9524,4.8 c 2.36832,0 3.59064,1.25088 3.59064,1.98516 0,0.73674 -0.353892,0.846096 -0.93516,0.846096 -1.129572,0 -0.66624,-1.35936 -2.78208,-1.35936 -0.70014,0 -1.575,0.318552 -1.575,1.136712 0,0.65772 0.77484,0.90006 2.14224,1.23744 2.0616,0.552 3.6072,1.1028 3.6072,2.9952 0,1.8372 -1.4964,2.7588 -3.8652,2.7588 -2.3676,0 -3.88092,-1.4172 -3.88092,-2.1516 0,-0.73428 0.278892,-0.918744 0.86016,-0.918744 1.131372,0 0.980364,1.54692 3.09612,1.54692 0.7026,0 1.73904,-0.320784 1.73904,-1.141404 0,-0.65526 -0.05528,-0.881952 -1.55628,-1.28676 -1.6032,-0.2172 -4.1928,-0.7392 -4.1928,-2.7396 0,-1.83732 1.386,-2.9064 3.7548,-2.9064 l -0.0024,-0.0024 z"
     id="path1" />
  <path
     style="fill:currentColor;stroke-width:1.2"
     class="ColorScheme-Text"
     d="M -26.2759,-6.48932"
     id="path2" />
</svg>
