<?xml version="1.0" encoding="UTF-8" standalone="no"?>
<svg
   width="24"
   height="24"
   version="1"
   id="svg1"
   sodipodi:docname="skype-status-disturb-notification.svg"
   xmlns:inkscape="http://www.inkscape.org/namespaces/inkscape"
   xmlns:sodipodi="http://sodipodi.sourceforge.net/DTD/sodipodi-0.dtd"
   xmlns="http://www.w3.org/2000/svg"
   xmlns:svg="http://www.w3.org/2000/svg">
  <sodipodi:namedview
     id="namedview1"
     pagecolor="#ffffff"
     bordercolor="#000000"
     borderopacity="0.25"
     inkscape:showpageshadow="2"
     inkscape:pageopacity="0.0"
     inkscape:pagecheckerboard="0"
     inkscape:deskcolor="#d1d1d1" />
  <defs
     id="defs1">
    <style
       id="current-color-scheme"
       type="text/css">.ColorScheme-Text {color:#d8dee9} .ColorScheme-Highlight {color:#3b4252}</style>
  </defs>
  <path
     style="fill:currentColor;stroke-width:1.2"
     class="ColorScheme-Text"
     d="M 7,2.5 A 4.8,4.8 0 0 0 2.2,7.3 4.8,4.8 0 0 0 3.53824,10.6234 8.4,8.4 0 0 0 3.4,12.1 8.4,8.4 0 0 0 11.8,20.5 8.4,8.4 0 0 0 13.2856,20.3644 4.8,4.8 0 0 0 16.6,21.7 4.8,4.8 0 0 0 21.4,16.9 4.8,4.8 0 0 0 20.062,13.576 8.4,8.4 0 0 0 20.2,12.1 8.4,8.4 0 0 0 11.8,3.7 8.4,8.4 0 0 0 10.31404,3.83596 4.8,4.8 0 0 0 7,2.5 Z m 0,8.508 h 9.6 v 2.4 H 7 Z"
     id="path1" />
  <circle
     style="fill:currentColor;stroke-width:1.2"
     class="ColorScheme-Text"
     cx="21.4"
     cy="3.7"
     r="2.4000001"
     id="circle1" />
</svg>
