<?xml version="1.0" encoding="UTF-8" standalone="no"?>
<svg
   width="24"
   height="24"
   version="1.1"
   id="svg1"
   sodipodi:docname="slack-indicator-highlight.svg"
   xmlns:inkscape="http://www.inkscape.org/namespaces/inkscape"
   xmlns:sodipodi="http://sodipodi.sourceforge.net/DTD/sodipodi-0.dtd"
   xmlns="http://www.w3.org/2000/svg"
   xmlns:svg="http://www.w3.org/2000/svg">
  <sodipodi:namedview
     id="namedview1"
     pagecolor="#ffffff"
     bordercolor="#000000"
     borderopacity="0.25"
     inkscape:showpageshadow="2"
     inkscape:pageopacity="0.0"
     inkscape:pagecheckerboard="0"
     inkscape:deskcolor="#d1d1d1" />
  <defs
     id="defs1">
    <style
       id="current-color-scheme"
       type="text/css">.ColorScheme-Text {color:#d8dee9} .ColorScheme-Highlight {color:#3b4252}</style>
  </defs>
  <g
     transform="translate(4,5)"
     style=""
     id="g1">
    <path
       style="fill:currentColor;stroke-width:1.2"
       class="ColorScheme-Text"
       d="M 5.1,-1.5 A 1.8,1.8 0 0 0 3.3,0.3 1.8,1.8 0 0 0 5.1,2.1 H 6.9 V 0.3 A 1.8,1.8 0 0 0 5.1,-1.5 Z m 4.8,0 A 1.8,1.8 0 0 0 8.1,0.3 V 5.1 A 1.8,1.8 0 0 0 9.9,6.9 1.8,1.8 0 0 0 11.7,5.1 V 3.57888 A 3.6,3.6 0 0 1 10.5,0.9 3.6,3.6 0 0 1 11.0808,-1.054692 1.8,1.8 0 0 0 9.9,-1.5 Z M 0.3,3.3 A 1.8,1.8 0 0 0 -1.5,5.1 1.8,1.8 0 0 0 0.3,6.9 H 5.1 A 1.8,1.8 0 0 0 6.9,5.1 1.8,1.8 0 0 0 5.1,3.3 Z M 16.0572,3.91872 A 3.6,3.6 0 0 1 14.1,4.5 3.6,3.6 0 0 1 13.0692,4.3476 1.8,1.8 0 0 0 12.9,5.1 v 1.8 h 1.8 A 1.8,1.8 0 0 0 16.5,5.1 1.8,1.8 0 0 0 16.0572,3.91872 Z M 0.3,8.1 A 1.8,1.8 0 0 0 -1.5,9.9 1.8,1.8 0 0 0 0.3,11.7 1.8,1.8 0 0 0 2.1,9.9 V 8.1 Z m 4.8,0 A 1.8,1.8 0 0 0 3.3,9.9 v 4.8 a 1.8,1.8 0 0 0 1.8,1.8 1.8,1.8 0 0 0 1.8,-1.8 V 9.9 A 1.8,1.8 0 0 0 5.1,8.1 Z m 4.8,0 a 1.8,1.8 0 0 0 -1.8,1.8 1.8,1.8 0 0 0 1.8,1.8 h 4.8 A 1.8,1.8 0 0 0 16.5,9.9 1.8,1.8 0 0 0 14.7,8.1 Z m -1.8,4.8 v 1.8 a 1.8,1.8 0 0 0 1.8,1.8 1.8,1.8 0 0 0 1.8,-1.8 1.8,1.8 0 0 0 -1.8,-1.8 z"
       id="path1" />
    <circle
       style="fill:currentColor;stroke-width:1.2"
       class="ColorScheme-Text"
       cx="14.1"
       cy="0.89999998"
       r="2.4000001"
       id="circle1" />
  </g>
</svg>
