<?xml version="1.0" encoding="UTF-8" standalone="no"?>
<svg
   width="24"
   height="24"
   version="1.1"
   id="svg2"
   sodipodi:docname="smartcode-stremio-tray.svg"
   xmlns:inkscape="http://www.inkscape.org/namespaces/inkscape"
   xmlns:sodipodi="http://sodipodi.sourceforge.net/DTD/sodipodi-0.dtd"
   xmlns="http://www.w3.org/2000/svg"
   xmlns:svg="http://www.w3.org/2000/svg">
  <sodipodi:namedview
     id="namedview2"
     pagecolor="#ffffff"
     bordercolor="#000000"
     borderopacity="0.25"
     inkscape:showpageshadow="2"
     inkscape:pageopacity="0.0"
     inkscape:pagecheckerboard="0"
     inkscape:deskcolor="#d1d1d1" />
  <defs
     id="defs1">
    <style
       id="current-color-scheme"
       type="text/css">.ColorScheme-Text {color:#d8dee9} .ColorScheme-Highlight {color:#3b4252}</style>
  </defs>
  <path
     style="opacity:0.35;fill:currentColor;stroke-width:1.2"
     class="ColorScheme-Text"
     d="m 12,2.3999119 c -0.502879,0 -1.006897,0.186594 -1.382812,0.5625 L 2.9625007,10.619443 c -0.376137,0.376127 -0.5629924,0.877679 -0.5625,1.380469 H 10.8 V 8.3999119 l 4.8,3.6000001 h 6 c 0,-0.502762 -0.188929,-1.004563 -0.564844,-1.380469 L 13.382813,2.9624119 C 13.006898,2.586506 12.50288,2.3999119 12,2.3999119 Z"
     id="path1" />
  <path
     style="fill:currentColor;stroke-width:1.2"
     class="ColorScheme-Text"
     d="m 2.4000007,11.999912 c 4.937e-4,0.502198 0.189135,1.004784 0.5648438,1.380468 l 7.6546875,7.654689 c 0.75183,0.751812 2.01145,0.754103 2.763281,0.0024 L 21.035156,13.38038 C 21.411071,13.004476 21.6,12.502675 21.6,11.999912 h -6 l -4.8,3.6 v -3.6 z"
     id="path2" />
</svg>
