<?xml version="1.0" encoding="UTF-8" standalone="no"?>
<svg
   width="24"
   height="24"
   version="1.1"
   id="svg2"
   sodipodi:docname="smartphonedisconnected.svg"
   xmlns:inkscape="http://www.inkscape.org/namespaces/inkscape"
   xmlns:sodipodi="http://sodipodi.sourceforge.net/DTD/sodipodi-0.dtd"
   xmlns="http://www.w3.org/2000/svg"
   xmlns:svg="http://www.w3.org/2000/svg">
  <sodipodi:namedview
     id="namedview2"
     pagecolor="#ffffff"
     bordercolor="#000000"
     borderopacity="0.25"
     inkscape:showpageshadow="2"
     inkscape:pageopacity="0.0"
     inkscape:pagecheckerboard="0"
     inkscape:deskcolor="#d1d1d1" />
  <defs
     id="defs1">
    <style
       id="current-color-scheme"
       type="text/css">.ColorScheme-Text {color:#d8dee9} .ColorScheme-Highlight {color:#3b4252}</style>
  </defs>
  <path
     style="opacity:0.35;fill:currentColor;stroke-width:1.2"
     class="ColorScheme-Text"
     d="M 6.9,2.3 C 5.7,2.3 5.7,3.5 5.7,3.5 v 16.8 c 0,0 0,1.2 1.2,1.2 h 7.2 c 0,-0.620297 0.226334,-1.226156 0.665626,-1.689844 a 1.20012,1.20012 0 0 1 0.0211,-0.02344 L 14.875781,19.7 14.786719,19.613281 C 14.319304,19.145865 14.1,18.521714 14.1,17.9 v -1.2 h -6 V 5.9023437 L 15.3,5.9 v 9.6 h 1.2 c 0.416315,0 0.829292,0.108744 1.2,0.314063 V 3.5 c 0,0 0,-1.2 -1.2,-1.2 z m 4.2,15.6 h 1.2 c 0,0 0.6,0 0.6,0.6 v 1.2 c 0,0 0,0.6 -0.6,0.6 h -1.2 c 0,0 -0.6,0 -0.6,-0.6 v -1.2 c 0,0 0,-0.6 0.6,-0.6 z"
     id="path1" />
  <path
     style="fill:currentColor;stroke-width:1.2"
     class="ColorScheme-Text"
     d="m 15.3,16.7 v 1.2 c 0,0.336 0.12,0.648 0.336,0.864 l 0.936,0.936 -0.936,0.936 C 15.42,20.864 15.3,21.176 15.3,21.5 v 1.2 h 1.2 c 0.336,0 0.648,-0.12 0.864,-0.336 l 0.936,-0.936 0.936,0.936 c 0.216,0.216 0.54,0.336 0.864,0.336 h 1.2 v -1.2 c 0,-0.324 -0.12,-0.636 -0.336,-0.864 L 20.028,19.7 20.964,18.764 C 21.18,18.548 21.3,18.236 21.3,17.9 v -1.2 h -1.2 c -0.324,0 -0.648,0.12 -0.864,0.336 L 18.3,17.984 17.364,17.036 C 17.148,16.82 16.836,16.7 16.5,16.7 Z"
     id="path2" />
</svg>
