<?xml version="1.0" encoding="UTF-8" standalone="no"?>
<svg
   width="24"
   height="24"
   version="1.1"
   id="svg2"
   sodipodi:docname="smartphoneattention.svg"
   xmlns:inkscape="http://www.inkscape.org/namespaces/inkscape"
   xmlns:sodipodi="http://sodipodi.sourceforge.net/DTD/sodipodi-0.dtd"
   xmlns="http://www.w3.org/2000/svg"
   xmlns:svg="http://www.w3.org/2000/svg">
  <sodipodi:namedview
     id="namedview2"
     pagecolor="#ffffff"
     bordercolor="#000000"
     borderopacity="0.25"
     inkscape:showpageshadow="2"
     inkscape:pageopacity="0.0"
     inkscape:pagecheckerboard="0"
     inkscape:deskcolor="#d1d1d1" />
  <defs
     id="defs1">
    <style
       id="current-color-scheme"
       type="text/css">.ColorScheme-Text {color:#d8dee9} .ColorScheme-Highlight {color:#3b4252}</style>
  </defs>
  <g
     transform="translate(1,1)"
     style=""
     id="g2">
    <path
       style="fill:currentColor;stroke-width:1.2"
       class="ColorScheme-Text"
       d="M 6.1,1.3 C 4.9,1.3 4.9,2.5 4.9,2.5 v 16.8 c 0,0 0,1.2 1.2,1.2 h 8.4 V 15.7 H 7.3 V 4.9 h 7.2 v 4.8 h 2.4 V 2.5 c 0,0 0,-1.2 -1.2,-1.2 z m 4.2,15.6 h 1.2 c 0,0 0.6,0 0.6,0.6 v 1.2 c 0,0 0,0.6 -0.6,0.6 h -1.2 c 0,0 -0.6,0 -0.6,-0.6 v -1.2 c 0,0 0,-0.6 0.6,-0.6 z"
       id="path1" />
    <path
       style="fill:currentColor;stroke-width:1.2"
       class="ColorScheme-Text"
       d="m 15.7,10.9 v 4.8 l 0.3,2.4 h 1.8 l 0.3,-2.4 v -4.8 z m 0,8.4 v 2.4 h 2.4 v -2.4 z"
       id="path2" />
  </g>
</svg>
