<?xml version="1.0" encoding="UTF-8" standalone="no"?>
<svg
   width="24"
   height="24"
   version="1"
   id="svg1"
   sodipodi:docname="smplayer-panel.svg"
   xmlns:inkscape="http://www.inkscape.org/namespaces/inkscape"
   xmlns:sodipodi="http://sodipodi.sourceforge.net/DTD/sodipodi-0.dtd"
   xmlns="http://www.w3.org/2000/svg"
   xmlns:svg="http://www.w3.org/2000/svg">
  <sodipodi:namedview
     id="namedview1"
     pagecolor="#ffffff"
     bordercolor="#000000"
     borderopacity="0.25"
     inkscape:showpageshadow="2"
     inkscape:pageopacity="0.0"
     inkscape:pagecheckerboard="0"
     inkscape:deskcolor="#d1d1d1" />
  <defs
     id="defs1">
    <style
       id="current-color-scheme"
       type="text/css">.ColorScheme-Text {color:#d8dee9} .ColorScheme-Highlight {color:#3b4252}</style>
  </defs>
  <path
     style="fill:currentColor;stroke-width:1.2"
     class="ColorScheme-Text"
     d="m 12,2.4 c -5.3184,0 -9.6,4.2816 -9.6,9.6 0,5.3184 4.2816,9.6 9.6,9.6 5.3184,0 9.6,-4.2816 9.6,-9.6 0,-5.3184 -4.2816,-9.6 -9.6,-9.6 z m 0,1.2 A 2.4,2.4 0 0 1 14.4,6 2.4,2.4 0 0 1 12,8.4 2.4,2.4 0 0 1 9.6,6 2.4,2.4 0 0 1 12,3.6 Z m -6,6 A 2.4,2.4 0 0 1 8.4,12 2.4,2.4 0 0 1 6,14.4 2.4,2.4 0 0 1 3.6,12 2.4,2.4 0 0 1 6,9.6 Z m 12,0 A 2.4,2.4 0 0 1 20.4,12 2.4,2.4 0 0 1 18,14.4 2.4,2.4 0 0 1 15.6,12 2.4,2.4 0 0 1 18,9.6 Z m -6.61404,0.761724 a 0.6,0.6 0 0 1 0.534372,0.3 0.6,0.6 0 0 1 -0.2196,0.8172 0.6,0.6 0 0 1 -0.8208,-0.2172 0.6,0.6 0 0 1 0.2208,-0.8208 0.6,0.6 0 0 1 0.2856,-0.0792 z m 1.6392,0.438 a 0.6,0.6 0 0 1 0.534372,0.3 0.6,0.6 0 0 1 -0.220308,0.820308 0.6,0.6 0 0 1 -0.8184,-0.2208 0.6,0.6 0 0 1 0.2172,-0.8208 0.6,0.6 0 0 1 0.2868,-0.0792 z m -2.0766,1.2 a 0.6,0.6 0 0 1 0.532032,0.3 0.6,0.6 0 0 1 -0.217968,0.820308 0.6,0.6 0 0 1 -0.822,-0.2208 0.6,0.6 0 0 1 0.2208,-0.8208 0.6,0.6 0 0 1 0.2856,-0.0792 z M 12.5868,12.438 a 0.6,0.6 0 0 1 0.534372,0.3 0.6,0.6 0 0 1 -0.2208,0.8208 0.6,0.6 0 0 1 -0.8208,-0.2208 0.6,0.6 0 0 1 0.2208,-0.8172 0.6,0.6 0 0 1 0.2856,-0.0828 z M 12,15.6 A 2.4,2.4 0 0 1 14.4,18 2.4,2.4 0 0 1 12,20.4 2.4,2.4 0 0 1 9.6,18 2.4,2.4 0 0 1 12,15.6 Z"
     id="path1" />
</svg>
