<?xml version="1.0" encoding="UTF-8" standalone="no"?>
<svg
   width="24"
   height="24"
   version="1.1"
   id="svg1"
   sodipodi:docname="solaar-indicator.svg"
   xmlns:inkscape="http://www.inkscape.org/namespaces/inkscape"
   xmlns:sodipodi="http://sodipodi.sourceforge.net/DTD/sodipodi-0.dtd"
   xmlns="http://www.w3.org/2000/svg"
   xmlns:svg="http://www.w3.org/2000/svg">
  <sodipodi:namedview
     id="namedview1"
     pagecolor="#ffffff"
     bordercolor="#000000"
     borderopacity="0.25"
     inkscape:showpageshadow="2"
     inkscape:pageopacity="0.0"
     inkscape:pagecheckerboard="0"
     inkscape:deskcolor="#d1d1d1" />
  <defs
     id="defs1">
    <style
       id="current-color-scheme"
       type="text/css">.ColorScheme-Text {color:#d8dee9} .ColorScheme-Highlight {color:#3b4252}</style>
  </defs>
  <g
     transform="translate(0 -1028.4)"
     style=""
     id="g1">
    <path
       style="fill:currentColor;stroke-width:1.2"
       class="ColorScheme-Text"
       d="m 4.8,1030.8 c -1.3296,0 -2.4,1.0704 -2.4,2.4 v 14.4 c 0,1.3296 1.0704,2.4 2.4,2.4 h 14.4 c 1.3296,0 2.4,-1.0704 2.4,-2.4 v -14.4 c 0,-1.3296 -1.0704,-2.4 -2.4,-2.4 z m 4.63824,2.7656 1.90296,3.2976 A 3.6,3.6 0 0 1 12,1036.8 a 3.6,3.6 0 0 1 0.6564,0.063 l 1.9056,-3.2976 2.076,1.2 -1.9032,3.3004 a 3.6,3.6 0 0 1 0.6564,1.134 H 19.2 v 2.4 h -3.8112 a 3.6,3.6 0 0 1 -0.6516,1.1388 l 1.9008,3.2952 -2.076,1.2 -1.9032,-3.2976 A 3.6,3.6 0 0 1 12,1044 a 3.6,3.6 0 0 1 -0.6564,-0.064 l -1.90536,3.2976 -2.07648,-1.2 1.90308,-3.3 A 3.6,3.6 0 0 1 8.60856,1041.6 H 4.8 v -2.4 h 3.81096 a 3.6,3.6 0 0 1 0.6516,-1.1388 l -1.9008,-3.2956 z M 12,1038 a 2.4,2.4 0 0 0 -2.4,2.4 2.4,2.4 0 0 0 2.4,2.4 2.4,2.4 0 0 0 2.4,-2.4 2.4,2.4 0 0 0 -2.4,-2.4 z"
       id="path1" />
  </g>
</svg>
