<?xml version="1.0" encoding="UTF-8" standalone="no"?>
<svg
   width="24"
   height="24"
   version="1.1"
   id="svg1"
   sodipodi:docname="spotify-linux-32.svg"
   xmlns:inkscape="http://www.inkscape.org/namespaces/inkscape"
   xmlns:sodipodi="http://sodipodi.sourceforge.net/DTD/sodipodi-0.dtd"
   xmlns="http://www.w3.org/2000/svg"
   xmlns:svg="http://www.w3.org/2000/svg">
  <sodipodi:namedview
     id="namedview1"
     pagecolor="#ffffff"
     bordercolor="#000000"
     borderopacity="0.25"
     inkscape:showpageshadow="2"
     inkscape:pageopacity="0.0"
     inkscape:pagecheckerboard="0"
     inkscape:deskcolor="#d1d1d1" />
  <defs
     id="defs1">
    <style
       id="current-color-scheme"
       type="text/css">.ColorScheme-Text {color:#d8dee9} .ColorScheme-Highlight {color:#3b4252}</style>
  </defs>
  <path
     style="fill:currentColor;stroke-width:1.2"
     class="ColorScheme-Text"
     d="m 12,2.4 c -5.3019599,0 -9.5999999,4.2980395 -9.5999999,9.6 0,5.30196 4.29804,9.6 9.5999999,9.6 5.30196,0 9.6,-4.29804 9.6,-9.6 0,-5.3019605 -4.29804,-9.6 -9.6,-9.6 z m -1.78125,4.8023436 c 0.162692,-0.003 0.327652,-0.0015 0.4875,0 3.836321,0.052552 6.822656,1.6453127 6.822656,1.6453127 0.388644,0.2064517 0.574509,0.8242789 0.4125,1.3195307 -0.162019,0.495252 -0.661354,0.771295 -1.05,0.564844 0,0 -4.866034,-2.5688082 -9.8203123,-0.9890618 C 6.6539113,9.9174084 6.1279957,9.5801688 6.0210937,9.0375 5.9142097,8.4948312 6.2262133,7.864504 6.6585937,7.7671873 7.8799501,7.3777279 9.0799213,7.2261647 10.21875,7.2023436 Z m 0.522656,3.6000004 c 0.135278,-0.0012 0.254792,-0.005 0.38672,0 3.166215,0.110256 5.360155,1.860937 5.360155,1.860937 0.280862,0.222482 0.393805,0.793647 0.248438,1.223438 -0.145367,0.429738 -0.530102,0.646704 -0.810938,0.424218 0,0 -3.489453,-2.813361 -7.9710937,-1.169531 -0.3149964,0.148862 -0.6640308,-0.14683 -0.7406244,-0.6375 -0.076632,-0.490716 0.1695804,-1.030545 0.4945308,-1.115625 1.076838,-0.394966 2.0858579,-0.577417 3.0328123,-0.585937 z M 11.11875,14.4 c 1.549942,0.02994 2.930644,0.604812 4.251563,1.385156 0.197345,0.128913 0.292325,0.493613 0.182813,0.754688 -0.109512,0.261054 -0.404735,0.34168 -0.583595,0.16875 0,0 -2.443261,-1.990232 -6.0679681,-0.88125 C 8.6935069,15.91732 8.4551413,15.744004 8.4070309,15.45 8.3589349,15.155932 8.5310629,14.819932 8.7468757,14.777344 9.5992045,14.516568 10.392902,14.3952 11.11875,14.4 Z"
     id="path1" />
</svg>
