<?xml version="1.0" encoding="UTF-8" standalone="no"?>
<svg
   width="24"
   height="24"
   version="1.1"
   id="svg1"
   sodipodi:docname="start-here-tuxedo-os-symbolic.svg"
   xmlns:inkscape="http://www.inkscape.org/namespaces/inkscape"
   xmlns:sodipodi="http://sodipodi.sourceforge.net/DTD/sodipodi-0.dtd"
   xmlns="http://www.w3.org/2000/svg"
   xmlns:svg="http://www.w3.org/2000/svg">
  <sodipodi:namedview
     id="namedview1"
     pagecolor="#ffffff"
     bordercolor="#000000"
     borderopacity="0.25"
     inkscape:showpageshadow="2"
     inkscape:pageopacity="0.0"
     inkscape:pagecheckerboard="0"
     inkscape:deskcolor="#d1d1d1" />
  <defs
     id="defs1">
    <style
       id="current-color-scheme"
       type="text/css">.ColorScheme-Text {color:#d8dee9} .ColorScheme-Highlight {color:#3b4252}</style>
  </defs>
  <path
     class="ColorScheme-Text"
     d="M 12.000011,2.4000026 C 9.6643788,2.4018506 7.4095428,3.2551303 5.6578188,4.8000091 H 17.280479 l -3.857808,6.4195329 3.016368,4.380456 h -2.75856 l -1.441404,-2.039052 -2.078916,3.239052 h 10.12968 c 0.85104,-1.45704 1.30284,-3.112644 1.31016,-4.799988 0,-2.5460769 -1.01136,-4.9878849 -2.81172,-6.7882329 -1.80036,-1.800348 -4.24224,-2.8117746 -6.788268,-2.8117745 z M 3.7101588,7.2000091 c -0.850968,1.457052 -1.3028659,3.1126689 -1.3101576,4.8000009 0,5.301948 4.2980736,9.599988 9.6000098,9.599988 2.363496,-0.0036 4.642548,-0.879 6.400788,-2.45856 -0.02268,0.01884 -0.04536,0.04032 -0.06792,0.05856 H 6.6000108 l 4.4390642,-7.0242 -2.6390642,-3.7757889 h 2.7609362 l 1.258596,1.6195329 1.619532,-2.8195329 z"
     style="fill:currentColor;stroke-width:1.2"
     id="path1" />
</svg>
