<?xml version="1.0" encoding="UTF-8" standalone="no"?>
<svg
   width="24"
   height="24"
   version="1"
   id="svg1"
   sodipodi:docname="start-here-kde-plasma-symbolic.svg"
   xmlns:inkscape="http://www.inkscape.org/namespaces/inkscape"
   xmlns:sodipodi="http://sodipodi.sourceforge.net/DTD/sodipodi-0.dtd"
   xmlns="http://www.w3.org/2000/svg"
   xmlns:svg="http://www.w3.org/2000/svg">
  <sodipodi:namedview
     id="namedview1"
     pagecolor="#ffffff"
     bordercolor="#000000"
     borderopacity="0.25"
     inkscape:showpageshadow="2"
     inkscape:pageopacity="0.0"
     inkscape:pagecheckerboard="0"
     inkscape:deskcolor="#d1d1d1" />
  <defs
     id="defs1">
    <style
       id="current-color-scheme"
       type="text/css">.ColorScheme-Text {color:#d8dee9} .ColorScheme-Highlight {color:#3b4252}</style>
  </defs>
  <path
     class="ColorScheme-Text"
     d="M 7.2,3.6 C 6.5352,3.6 6,4.1352 6,4.8 6,5.4648 6.5352,6 7.2,6 7.8648,6 8.4,5.4648 8.4,4.8 8.4,4.1352 7.8648,3.6 7.2,3.6 Z m 7.2,0 -2.4,2.4 3.6,3.6 -3.6,3.6 2.4,2.4 6,-6 z m -9,6 c -0.9971928,0 -1.8,0.802793 -1.8,1.8 0,0.997193 0.8028072,1.8 1.8,1.8 0.9972072,0 1.8,-0.802807 1.8,-1.8 0,-0.997207 -0.8027928,-1.8 -1.8,-1.8 z m 4.2,6 c -1.3296,0 -2.4,1.0704 -2.4,2.4 0,1.3296 1.0704,2.4 2.4,2.4 1.3296,0 2.4,-1.0704 2.4,-2.4 0,-1.3296 -1.0704,-2.4 -2.4,-2.4 z"
     style="fill:currentColor;stroke-width:1.2"
     id="path1" />
</svg>
