<?xml version="1.0" encoding="UTF-8" standalone="no"?>
<svg
   width="24"
   height="24"
   version="1.1"
   id="svg1"
   sodipodi:docname="start-here-lxqt.svg"
   xmlns:inkscape="http://www.inkscape.org/namespaces/inkscape"
   xmlns:sodipodi="http://sodipodi.sourceforge.net/DTD/sodipodi-0.dtd"
   xmlns="http://www.w3.org/2000/svg"
   xmlns:svg="http://www.w3.org/2000/svg">
  <sodipodi:namedview
     id="namedview1"
     pagecolor="#ffffff"
     bordercolor="#000000"
     borderopacity="0.25"
     inkscape:showpageshadow="2"
     inkscape:pageopacity="0.0"
     inkscape:pagecheckerboard="0"
     inkscape:deskcolor="#d1d1d1" />
  <defs
     id="defs1">
    <style
       id="current-color-scheme"
       type="text/css">.ColorScheme-Text {color:#d8dee9} .ColorScheme-Highlight {color:#3b4252}</style>
  </defs>
  <path
     style="fill:currentColor;stroke-width:1.2"
     class="ColorScheme-Text"
     d="M 13.036852,2.4202003 C 12.364977,2.4061363 11.689197,2.6006699 11.126697,2.9709815 10.56576,3.3397319 10.118102,3.8795755 9.8634152,4.5014503 9.6087229,5.1248875 9.5477914,5.8241054 9.689978,6.481919 c 0.142188,0.65625 0.485938,1.2687495 0.975,1.7296875 -0.248437,-0.4093752 -0.376561,-0.8937507 -0.360937,-1.3734375 0.01406,-0.479688 0.171875,-0.9546876 0.445313,-1.35 0.273438,-0.39375 0.662499,-0.7046871 1.10625,-0.8859375 1.467615,-0.5010456 2.586434,0.1242004 3.084374,1.4179688 h 6.496874 l -5.4,-1.6007813 c -0.25625,-0.58125 -0.682812,-1.0851559 -1.209374,-1.4367187 -0.528126,-0.3515628 -1.15625,-0.549996 -1.790626,-0.5625 z m -9.4218738,1.2 c -0.7687501,0.8038676 -1.2093744,1.9187307 -1.2,3.0375 0.00936,1.1345936 0.4828121,2.2587708 1.284375,3.0515628 0.1243272,0.1229664 0.2693386,0.2196636 0.4078125,0.3257809 L 3.0149782,9.6975439 c -0.2078124,0.8038681 -0.1437498,1.6755351 0.178125,2.4398431 0.3234384,0.762725 0.9031254,1.409787 1.621875,1.81172 0.5484372,0.306988 1.1734378,0.471093 1.8,0.471093 0.626562,0 1.2515628,-0.164105 1.8,-0.471093 -0.5046876,0.04589 -1.0195309,-0.03804 -1.4835937,-0.24375 C 6.4673229,13.501226 6.0548214,13.175299 5.745447,12.7702 5.389197,12.301804 5.1696652,11.727609 5.1243532,11.13895 L 10.814978,12.128013 5.632947,10.513169 C 5.4450606,10.391089 5.2680634,10.253641 5.1149782,10.08895 4.6884154,9.6316315 4.42279,9.0234007 4.3743532,8.3967628 4.3290412,7.7891145 4.4868538,7.167239 4.8149782,6.6577003 l 6.5999998,3.6468757 z m 10.8046868,3.80625 c -0.333283,0.3940209 -0.55101,0.883706 -0.621093,1.3945308 -0.06541,0.4827936 -0.0035,0.9757608 0.124219,1.4460949 0.127706,0.468776 0.319363,0.921006 0.50625,1.371093 0.186888,0.450087 0.373055,0.901547 0.494531,1.373438 0.119916,0.47189 0.174717,0.968758 0.09376,1.448437 -0.135494,0.803616 -0.649065,1.519495 -1.317188,1.985156 -0.668122,0.465661 -1.48157,0.694704 -2.29453,0.747657 -1.026329,0.06697 -2.0686542,-0.14134 -2.9906318,-0.597657 l 0.023437,4.785937 1.1953126,-2.38125 c 1.5807582,0.462546 3.3499422,0.236291 4.7625002,-0.609374 0.713286,-0.426727 1.338149,-1.008568 1.774219,-1.715626 0.437628,-0.707056 0.678778,-1.540995 0.639844,-2.36953 -0.05606,-1.182063 -0.65892,-2.258073 -1.235157,-3.290626 -0.577794,-1.0325531 -1.157056,-2.1280991 -1.164843,-3.3117182 0,-0.091883 0.0031,-0.184676 0.0094,-0.2765625 z"
     id="path1" />
</svg>
