<?xml version="1.0" encoding="UTF-8" standalone="no"?>
<svg
   width="24"
   height="24"
   version="1.1"
   id="svg1"
   sodipodi:docname="state-warning.svg"
   xmlns:inkscape="http://www.inkscape.org/namespaces/inkscape"
   xmlns:sodipodi="http://sodipodi.sourceforge.net/DTD/sodipodi-0.dtd"
   xmlns="http://www.w3.org/2000/svg"
   xmlns:svg="http://www.w3.org/2000/svg">
  <sodipodi:namedview
     id="namedview1"
     pagecolor="#ffffff"
     bordercolor="#000000"
     borderopacity="0.25"
     inkscape:showpageshadow="2"
     inkscape:pageopacity="0.0"
     inkscape:pagecheckerboard="0"
     inkscape:deskcolor="#d1d1d1" />
  <defs
     id="defs1">
    <style
       id="current-color-scheme"
       type="text/css">.ColorScheme-Text {color:#d8dee9} .ColorScheme-Highlight {color:#3b4252}</style>
  </defs>
  <g
     transform="translate(-385 127)"
     style=""
     id="g1">
    <path
       style="fill:currentColor;stroke-width:1.2"
       class="ColorScheme-Text"
       d="m 396.89254,-124.59957 a 1.94916,2.1822 0 0 0 -1.58208,1.0875 l -3.825,7.41792 -3.82728,7.41792 a 1.94916,2.1822 0 0 0 -0.26016,1.04063 1.94916,2.1822 0 0 0 1.9476,2.23356 h 7.6524 7.65 a 1.94916,2.1822 0 0 0 1.68744,-3.2742 l -3.825,-7.41792 -3.825,-7.41792 a 1.94916,2.1822 0 0 0 -1.5984,-1.0875 1.94916,2.1822 0 0 0 -0.19453,0 z m -1.09453,4.7976 h 2.4 v 8.4 h -2.4 z m 0,9.6 h 2.4 v 2.4 h -2.4 z"
       id="path1" />
  </g>
</svg>
