<?xml version="1.0" encoding="UTF-8" standalone="no"?>
<svg
   width="24"
   height="24"
   version="1.1"
   id="svg1"
   sodipodi:docname="state-sync.svg"
   xmlns:inkscape="http://www.inkscape.org/namespaces/inkscape"
   xmlns:sodipodi="http://sodipodi.sourceforge.net/DTD/sodipodi-0.dtd"
   xmlns="http://www.w3.org/2000/svg"
   xmlns:svg="http://www.w3.org/2000/svg">
  <sodipodi:namedview
     id="namedview1"
     pagecolor="#ffffff"
     bordercolor="#000000"
     borderopacity="0.25"
     inkscape:showpageshadow="2"
     inkscape:pageopacity="0.0"
     inkscape:pagecheckerboard="0"
     inkscape:deskcolor="#d1d1d1" />
  <defs
     id="defs1">
    <style
       id="current-color-scheme"
       type="text/css">.ColorScheme-Text {color:#d8dee9} .ColorScheme-Highlight {color:#3b4252}</style>
  </defs>
  <g
     transform="translate(-624 -500)"
     style=""
     id="g1">
    <path
       style="fill:currentColor;stroke-width:1.2"
       class="ColorScheme-Text"
       d="m 636,502.4 c -5.30196,0 -9.6,4.29804 -9.6,9.6 0,5.30196 4.29804,9.6 9.6,9.6 5.30196,0 9.6,-4.29804 9.6,-9.6 0,-5.30196 -4.29804,-9.6 -9.6,-9.6 z m 0.17344,4.7976 v 0.002 h 0.002 c 1.5708,0.0576 3.00012,0.88483 3.84372,2.18208 l 1.66632,-0.55547 -1.88436,3.7758 -3.7758,-1.88904 1.53288,-0.51093 c -0.4056,-0.3528 -0.91503,-0.58428 -1.4742,-0.60468 -0.8904,-0.0324 -1.72152,0.42604 -2.16792,1.19764 l -2.07888,-1.2 c 0.888,-1.5384 2.56116,-2.4636 4.33596,-2.3976 z m -3.975,4.2 3.7758,1.88904 -1.53288,0.51094 c 0.4056,0.3528 0.91502,0.58194 1.4742,0.60234 0.89038,0.0324 1.72152,-0.42606 2.16792,-1.19766 l 2.07888,1.2 c -0.888,1.5384 -2.56116,2.4636 -4.33596,2.3976 -1.5708,-0.0576 -3.00012,-0.88484 -3.84372,-2.18208 l -1.66644,0.55546 1.88208,-3.7758 z"
       id="path1" />
  </g>
</svg>
