<?xml version="1.0" encoding="UTF-8" standalone="no"?>
<svg
   width="64"
   height="64"
   version="1.1"
   viewBox="0 0 16.933 16.933"
   id="svg7"
   sodipodi:docname="steam_tray_mono-old.svg"
   inkscape:version="1.4 (e7c3feb100, 2024-10-09)"
   xmlns:inkscape="http://www.inkscape.org/namespaces/inkscape"
   xmlns:sodipodi="http://sodipodi.sourceforge.net/DTD/sodipodi-0.dtd"
   xmlns="http://www.w3.org/2000/svg"
   xmlns:svg="http://www.w3.org/2000/svg"
   xmlns:rdf="http://www.w3.org/1999/02/22-rdf-syntax-ns#"
   xmlns:cc="http://creativecommons.org/ns#"
   xmlns:dc="http://purl.org/dc/elements/1.1/">
  <sodipodi:namedview
     id="namedview7"
     pagecolor="#9c4444"
     bordercolor="#000000"
     borderopacity="0.25"
     inkscape:showpageshadow="2"
     inkscape:pageopacity="0.0"
     inkscape:pagecheckerboard="0"
     inkscape:deskcolor="#d1d1d1"
     inkscape:zoom="4.3531261"
     inkscape:cx="36.525475"
     inkscape:cy="25.958357"
     inkscape:window-width="1280"
     inkscape:window-height="669"
     inkscape:window-x="180"
     inkscape:window-y="166"
     inkscape:window-maximized="0"
     inkscape:current-layer="svg7"
     showgrid="false" />
  <defs
     id="defs2">
    <style
       id="current-color-scheme"
       type="text/css">.ColorScheme-Text {color:#d8dee9} .ColorScheme-Highlight {color:#3b4252}</style>
  </defs>
  <metadata
     id="metadata2">
    <rdf:RDF>
      <cc:Work
         rdf:about="">
        <dc:format>image/svg+xml</dc:format>
        <dc:type
           rdf:resource="http://purl.org/dc/dcmitype/StillImage" />
      </cc:Work>
    </rdf:RDF>
  </metadata>
  <path
     id="path1-3"
     style="opacity:1;fill:currentColor;fill-opacity:1;stroke:none;stroke-width:0.180842;stroke-dasharray:none;stroke-dashoffset:2.2;stroke-opacity:0.6"
     d="m 12.572405,2.2939811 c -0.24565,-1.034e-4 -0.508598,0.098818 -0.83769,0.2916369 -0.783112,0.4588417 -1.80728,0.6752383 -3.2137361,0.6752383 -1.4063193,0 -2.464653,-0.221001 -3.2431049,-0.6771957 C 4.6536582,2.2178622 4.280994,2.2130142 3.7571239,2.5662338 2.4121728,3.472593 1.398539,6.3785446 1.101181,10.175884 c -0.17831575,2.277094 -0.011747,3.477593 0.5773766,4.153201 0.2841399,0.325731 0.9816668,0.270513 1.6107862,-0.129179 0.5332949,-0.338811 1.1687118,-1.086431 1.9278575,-2.268427 0.685996,-1.068104 1.5157522,-1.419888 3.3507513,-1.422897 1.8313474,-0.0028 2.5510474,0.343641 3.3957644,1.642102 1.417235,2.178495 2.727203,2.936921 3.495584,2.023752 0.425679,-0.505879 0.503589,-0.994651 0.483428,-3.029758 C 15.905994,7.4478087 14.939641,4.0846883 13.5471,2.8010892 13.176226,2.4592274 12.888271,2.2943019 12.572405,2.294169 Z M 4.6163382,4.4723585 H 5.4657684 6.3151987 V 5.2004427 5.9285282 H 7.0432836 7.771367 v 0.910105 0.9101033 H 7.0432836 6.3151987 V 8.5374922 9.32625 H 5.5460163 C 5.1234447,9.32625 4.7430226,9.28837 4.6985391,9.244057 4.6540791,9.199598 4.6163461,8.8464744 4.6163461,8.4572626 V 7.7487365 H 3.8882539 3.160168 V 6.8386332 5.9285282 H 3.8882539 4.6163382 V 5.2004427 Z m 6.9246208,0 c 0.7663,0 1.094469,0.8490417 0.542148,1.4013682 -0.351261,0.3512155 -0.671827,0.3788227 -1.01775,0.086127 C 10.465348,5.452145 10.778532,4.4723711 11.540959,4.4723711 Z m -1.47378,1.5559857 c 0.191344,1.327e-4 0.384006,0.076404 0.536274,0.2446344 0.237365,0.2622865 0.263002,0.8627926 0.04895,1.1430153 -0.418926,0.5484301 -1.4248497,0.1956654 -1.4248497,-0.4990885 0,-0.5272892 0.4186806,-0.8888639 0.8396437,-0.8885764 z m 3.008238,0.029552 c 0.220569,0.00416 0.43467,0.077071 0.559761,0.2152812 0.237355,0.2622871 0.262997,0.8627892 0.0489,1.1430157 -0.445584,0.5833262 -1.42485,0.1928966 -1.42485,-0.5675939 0,-0.2305102 0.09236,-0.4803619 0.221156,-0.5969497 0.147244,-0.1332483 0.374471,-0.1977847 0.594994,-0.1937659 z m -1.481613,1.5696813 c 0.679362,0 1.00992,0.720609 0.598907,1.3074204 -0.140519,0.2005872 -0.311865,0.2700894 -0.665457,0.2700894 -0.407088,0 -0.501554,-0.052982 -0.665445,-0.3699282 -0.323152,-0.624918 0.02953,-1.2076011 0.731995,-1.2076011 z"
     class="ColorScheme-Text" />
</svg>
