<?xml version="1.0" encoding="UTF-8" standalone="no"?>
<svg
   width="24"
   height="24"
   version="1.1"
   id="svg1"
   sodipodi:docname="strawberry-panel.svg"
   xmlns:inkscape="http://www.inkscape.org/namespaces/inkscape"
   xmlns:sodipodi="http://sodipodi.sourceforge.net/DTD/sodipodi-0.dtd"
   xmlns="http://www.w3.org/2000/svg"
   xmlns:svg="http://www.w3.org/2000/svg">
  <sodipodi:namedview
     id="namedview1"
     pagecolor="#ffffff"
     bordercolor="#000000"
     borderopacity="0.25"
     inkscape:showpageshadow="2"
     inkscape:pageopacity="0.0"
     inkscape:pagecheckerboard="0"
     inkscape:deskcolor="#d1d1d1" />
  <defs
     id="defs1">
    <style
       id="current-color-scheme"
       type="text/css">.ColorScheme-Text {color:#d8dee9} .ColorScheme-Highlight {color:#3b4252}</style>
  </defs>
  <path
     style="fill:currentColor;stroke-width:1.2"
     class="ColorScheme-Text"
     d="m 14.405646,2.4001161 c -0.1068,0 -0.138,0.21708 -0.072,0.50376 0,0 0.1884,0.91476 1.4556,1.58484 0.8808,0.4356 0.8796,0.68724 -0.006,0.94848 -0.3852,0.11376 -0.8544,0.32964 -1.0416,0.47952 -0.3084,0.2472 -0.1956,0.3492 1.212,1.09932 0,0 1.71,0.95952 1.9032,1.12188 0.3348,0.2814 0.3192,0.321 -0.3348,0.8682 -0.7296,0.60948 -1.5936,2.0362799 -1.5936,2.6314799 0,0.3216 0.1428,0.348 1.3452,0.246 l 2.2716,-0.2352 -0.066,1.6188 c -0.036,0.8916 -0.1428,1.8408 -0.2364,2.112 -0.0948,0.2712 -0.1332,0.534 -0.0876,0.5844 0.1944,0.2136 0.9876,-0.2568 1.5324,-0.9084 0.5556,-0.6648 0.5916,-0.678 0.7092,-0.27 0.3984,0.732 0.5748,1.3728 1.1928,2.0136 0.138,0.0144 0.2436,-0.162 0.3312,-0.5268 0.2724,-1.1196 0.1272,-2.2032 -0.4476,-3.324 -0.3084,-0.6024 -0.612,-1.554 -0.6732,-2.1132 0,0 -0.162,-1.2083999 -0.2232,-1.4446799 -0.0948,-0.3576 0.0876,-0.5676 1.1076,-1.27332 1.1616,-0.80376 1.4616,-1.26108 1.0224,-1.55856 -0.1092,-0.07392 -0.684,0.1494 -1.278,0.4962 -0.594,0.3468 -1.1964,0.63048 -1.3392,0.63048 -0.1428,0 -0.5904,-0.43416 -0.9948,-0.96468 -0.702,-0.92208 -0.7344,-1.02744 -0.7344,-2.38836 0,-1.293 -0.036,-1.4292 -0.3912,-1.48476 -0.2868,-0.04488 -0.4536,0.1038 -0.6252,0.55896 -0.1284,0.34116 -0.3,0.62016 -0.3792,0.62016 -0.0792,0 -1.758,-0.813 -1.758,-0.813 0,0 -1.698,-0.81312 -1.8012,-0.81312 z m -1.0488,1.2492 -0.2064,0.01416 c -2.9304,0.31308 -5.3749198,2.12892 -8.1721198,6.06492 -0.84456,1.1891999 -1.9296,2.7143999 -2.41176,3.3923999 -2.03076005,2.8536 -1.94424005,5.7828 0.20868,7.014 1.3914,0.7968 2.7348,1.1112 4.86324,1.1412 1.0698,0.0156 2.6379598,0.0936 3.4827598,0.1716 2.3568,0.2172 2.652,0.2112 4.3104,-0.0768 1.8564,-0.324 3.2868,-0.9972 4.4364,-2.0868 0.4632,-0.438 1.0236,-1.2744 1.4904,-2.1252 l -0.3936,-0.7788 c 0,0 -0.36,0.366 -0.5628,0.486 -0.2172,0.1284 -0.4332,0.2412 -0.7428,0.3096 -0.3096,0.0672 -0.9192,0.1116 -1.3896,-0.4032 -0.4176,-0.4572 -0.3264,-0.6852 -0.3324,-0.8376 -0.006,-0.1512 0.0228,-0.3588 0.0228,-0.3588 0.0312,-0.204 0.078,-0.39 0.1476,-0.5904 0,0 0.0432,-0.2148 0.0828,-0.564 l 0.1008,-1.4304 c 0,0 -0.5484,0.0576 -0.9168,0.0888 -0.6144,0.0528 -0.9264,0.114 -1.4412,0.0192 -0.258,-0.0468 -0.6888,-0.2112 -0.9492,-0.5856 -0.2616,-0.3744 -0.2556,-0.708 -0.2556,-0.8772 0,-0.8772 0.3348,-1.3344 0.696,-1.9307999 0.246,-0.40668 0.9048,-1.10388 0.9048,-1.10388 l -0.9396,-0.5274 c 0,0 -1.0668,-0.52224 -1.4904,-0.90696 -0.1068,-0.09624 -0.2316,-0.2202 -0.3456,-0.43836 -0.1128,-0.21804 -0.1872,-0.56712 -0.1284,-0.86952 0.1164,-0.60468 0.4308,-0.76968 0.5676,-0.87888 0.1344,-0.108 0.2568,-0.10824 0.3816,-0.18276 -0.2556,-0.23976 -0.642,-0.46968 -0.7896,-0.69384 -0.108,-0.16308 -0.1644,-0.3096 -0.228,-0.45468 z m -1.2276,3.56256 0.3696,0.00228 c 0,0 0.2928,0.08604 0.3972,0.18984 0.4152,0.41544 0.1428,1.36212 -0.3192,1.82412 -0.462,0.46068 -1.1736,0.49908 -1.5888,0.084 -0.4164,-0.4152 -0.378,-1.12776 0.084,-1.58928 0.2592,-0.25968 0.672,-0.45996 1.0572,-0.51096 z m -4.8001198,2.40012 0.37032,0.0024 c 0,0 0.2922,0.0852 0.39612,0.1896 0.41532,0.4151999 0.1428,1.3619999 -0.31884,1.8227999 -0.46152,0.462 -1.1736,0.5004 -1.58904,0.0852 -0.41544,-0.4152 -0.37716,-1.128 0.08436,-1.5888 0.25968,-0.2603999 0.67164,-0.4607999 1.05708,-0.5111999 z m 3.6001198,2.3999999 0.3696,0.0024 c 0,0 0.2928,0.0852 0.3972,0.1896 0.4152,0.4152 0.1428,1.362 -0.3192,1.824 -0.462,0.4608 -1.1736,0.4992 -1.5887998,0.084 -0.4158,-0.4152 -0.37752,-1.128 0.084,-1.5888 0.2591998,-0.2604 0.6719998,-0.4608 1.0571998,-0.5112 z m 4.8,1.2 0.3696,0.0024 c 0.1548,0.0252 0.2928,0.0852 0.3972,0.1896 0.4152,0.4152 0.1428,1.362 -0.3192,1.824 -0.462,0.4608 -1.1736,0.4992 -1.5888,0.084 -0.4152,-0.4152 -0.378,-1.128 0.084,-1.5888 0.2592,-0.2604 0.672,-0.4608 1.0572,-0.5112 z m -10.8001198,1.2 0.37032,0.0024 c 0,0 0.2922,0.0852 0.39612,0.1896 0.41532,0.4152 0.1428,1.362 -0.31884,1.824 -0.46152,0.4608 -1.1736,0.4992 -1.58904,0.084 -0.41544,-0.4152 -0.37716,-1.128 0.08436,-1.5888 0.25968,-0.2604 0.67164,-0.4608 1.05708,-0.5112 z m 4.80012,2.4 0.3695998,0.0024 c 0,0 0.2928,0.0852 0.3972,0.1896 0.4152,0.4152 0.1428,1.362 -0.3192,1.824 -0.4619998,0.4608 -1.1737198,0.4992 -1.5891598,0.084 -0.41544,-0.4152 -0.37716,-1.128 0.08436,-1.5888 0.25968,-0.2604 0.67164,-0.4608 1.0572,-0.5112 z m 3.5999998,1.2 0.3696,0.0024 c 0,0 0.2928,0.0852 0.3972,0.1896 0.4152,0.4152 0.1428,1.362 -0.3192,1.824 -0.462,0.4608 -1.1736,0.4992 -1.5888,0.084 -0.4152,-0.4152 -0.378,-1.128 0.084,-1.5888 0.2592,-0.2604 0.672,-0.4608 1.0572,-0.5112 z"
     id="path1" />
</svg>
