<?xml version="1.0" encoding="UTF-8" standalone="no"?>
<svg
   width="24"
   height="24"
   version="1.1"
   id="svg3"
   sodipodi:docname="superproductivity-tray-7.svg"
   xmlns:inkscape="http://www.inkscape.org/namespaces/inkscape"
   xmlns:sodipodi="http://sodipodi.sourceforge.net/DTD/sodipodi-0.dtd"
   xmlns="http://www.w3.org/2000/svg"
   xmlns:svg="http://www.w3.org/2000/svg">
  <sodipodi:namedview
     id="namedview3"
     pagecolor="#ffffff"
     bordercolor="#000000"
     borderopacity="0.25"
     inkscape:showpageshadow="2"
     inkscape:pageopacity="0.0"
     inkscape:pagecheckerboard="0"
     inkscape:deskcolor="#d1d1d1" />
  <defs
     id="defs1">
    <style
       id="current-color-scheme"
       type="text/css">.ColorScheme-Text {color:#d8dee9} .ColorScheme-Highlight {color:#3b4252}</style>
  </defs>
  <path
     style="fill:currentColor;stroke-width:1.2"
     class="ColorScheme-Text"
     d="M 10.497584,8.4 A 0.87702704,0.94832957 0 0 0 9.5999275,9.3515628 v 5.2992182 a 0.87702704,0.94832957 0 0 0 1.3148435,0.822656 l 4.246876,-2.650781 a 0.87702704,0.94832957 0 0 0 0,-1.642969 L 10.914771,8.5265628 A 0.87702704,0.94832957 0 0 0 10.497584,8.4 Z"
     id="path1" />
  <path
     style="opacity:0.35;fill:currentColor;stroke-width:1.2"
     class="ColorScheme-Text"
     d="m 11.999927,2.4 c -5.2877196,0 -9.5999995,4.3122799 -9.5999995,9.6 0,5.28772 4.3122799,9.6 9.5999995,9.6 5.28772,0 9.6,-4.31228 9.6,-9.6 0,-5.2877201 -4.31228,-9.6 -9.6,-9.6 z m 0,2.4 c 3.990664,0 7.2,3.2093363 7.2,7.2 0,3.990664 -3.209336,7.2 -7.2,7.2 -3.9906633,0 -7.1999995,-3.209336 -7.1999995,-7.2 0,-3.9906637 3.2093362,-7.2 7.1999995,-7.2 z"
     id="path2" />
  <path
     style="fill:currentColor;stroke-width:1.2"
     class="ColorScheme-Text"
     d="m 11.999927,2.4 v 2.4 a 7.2,7.2 0 0 1 7.2,7.2 7.2,7.2 0 0 1 -5.704687,7.033594 l 0.501562,2.355469 A 9.6,9.6 0 0 0 21.548365,10.996874 9.6,9.6 0 0 0 11.999927,2.4 Z"
     id="path3" />
</svg>
