<?xml version="1.0" encoding="UTF-8" standalone="no"?>
<svg
   width="24"
   height="24"
   version="1.1"
   id="svg3"
   sodipodi:docname="superproductivity-tray-13.svg"
   xmlns:inkscape="http://www.inkscape.org/namespaces/inkscape"
   xmlns:sodipodi="http://sodipodi.sourceforge.net/DTD/sodipodi-0.dtd"
   xmlns="http://www.w3.org/2000/svg"
   xmlns:svg="http://www.w3.org/2000/svg">
  <sodipodi:namedview
     id="namedview3"
     pagecolor="#ffffff"
     bordercolor="#000000"
     borderopacity="0.25"
     inkscape:showpageshadow="2"
     inkscape:pageopacity="0.0"
     inkscape:pagecheckerboard="0"
     inkscape:deskcolor="#d1d1d1" />
  <defs
     id="defs1">
    <style
       id="current-color-scheme"
       type="text/css">.ColorScheme-Text {color:#d8dee9} .ColorScheme-Highlight {color:#3b4252}</style>
  </defs>
  <path
     style="fill:currentColor;stroke-width:1.2"
     class="ColorScheme-Text"
     d="M 10.49863,8.3993845 A 0.87702704,0.94832957 0 0 0 9.6009735,9.3509473 v 5.2992187 a 0.87702704,0.94832957 0 0 0 1.3148435,0.822656 l 4.246876,-2.65078 a 0.87702704,0.94832957 0 0 0 0,-1.64297 L 10.915817,8.5259473 A 0.87702704,0.94832957 0 0 0 10.49863,8.3993845 Z"
     id="path1" />
  <path
     style="opacity:0.35;fill:currentColor;stroke-width:1.2"
     class="ColorScheme-Text"
     d="m 12.000974,2.3993845 c -5.2877207,0 -9.6000006,4.3122799 -9.6000006,9.6000005 0,5.28772 4.3122799,9.6 9.6000006,9.6 5.287719,0 9.6,-4.31228 9.6,-9.6 0,-5.2877206 -4.312281,-9.6000005 -9.6,-9.6000005 z m 0,2.4 c 3.990663,0 7.2,3.2093363 7.2,7.2000005 0,3.990664 -3.209337,7.2 -7.2,7.2 -3.9906643,0 -7.2000006,-3.209336 -7.2000006,-7.2 0,-3.9906642 3.2093363,-7.2000005 7.2000006,-7.2000005 z"
     id="path2" />
  <path
     style="fill:currentColor;stroke-width:1.2"
     class="ColorScheme-Text"
     d="m 12.000974,2.3993845 v 2.4 a 7.2,7.2 0 0 1 7.2,7.2000005 7.2,7.2 0 0 1 -7.2,7.2 7.2,7.2 0 0 1 -7.2000006,-7.2 7.2,7.2 0 0 1 1.85625,-4.8117192 l -1.790625,-1.6125 A 9.6,9.6 0 0 0 4.233786,17.643135 9.6,9.6 0 0 0 15.905661,20.769698 9.6,9.6 0 0 0 21.390036,10.002511 9.6,9.6 0 0 0 12.000974,2.3993845 Z"
     id="path3" />
</svg>
