<?xml version="1.0" encoding="UTF-8" standalone="no"?>
<svg
   width="24"
   height="24"
   version="1.1"
   id="svg3"
   sodipodi:docname="superproductivity-tray-11.svg"
   xmlns:inkscape="http://www.inkscape.org/namespaces/inkscape"
   xmlns:sodipodi="http://sodipodi.sourceforge.net/DTD/sodipodi-0.dtd"
   xmlns="http://www.w3.org/2000/svg"
   xmlns:svg="http://www.w3.org/2000/svg">
  <sodipodi:namedview
     id="namedview3"
     pagecolor="#ffffff"
     bordercolor="#000000"
     borderopacity="0.25"
     inkscape:showpageshadow="2"
     inkscape:pageopacity="0.0"
     inkscape:pagecheckerboard="0"
     inkscape:deskcolor="#d1d1d1" />
  <defs
     id="defs1">
    <style
       id="current-color-scheme"
       type="text/css">.ColorScheme-Text {color:#d8dee9} .ColorScheme-Highlight {color:#3b4252}</style>
  </defs>
  <path
     style="fill:currentColor;stroke-width:1.2"
     class="ColorScheme-Text"
     d="M 10.49756,8.3999428 A 0.87702704,0.94832957 0 0 0 9.5999032,9.3515056 v 5.2992184 a 0.87702704,0.94832957 0 0 0 1.3148438,0.822656 l 4.246875,-2.650781 a 0.87702704,0.94832957 0 0 0 0,-1.642969 L 10.914747,8.5265056 A 0.87702704,0.94832957 0 0 0 10.49756,8.3999428 Z"
     id="path1" />
  <path
     style="opacity:0.35;fill:currentColor;stroke-width:1.2"
     class="ColorScheme-Text"
     d="m 11.999903,2.3999428 c -5.2877199,0 -9.5999998,4.3122799 -9.5999998,9.6000002 0,5.287719 4.3122799,9.6 9.5999998,9.6 5.28772,0 9.6,-4.312281 9.6,-9.6 0,-5.2877203 -4.31228,-9.6000002 -9.6,-9.6000002 z m 0,2.4 c 3.990664,0 7.2,3.2093363 7.2,7.2000002 0,3.990663 -3.209336,7.2 -7.2,7.2 -3.9906636,0 -7.1999998,-3.209337 -7.1999998,-7.2 0,-3.9906639 3.2093362,-7.2000002 7.1999998,-7.2000002 z"
     id="path2" />
  <path
     style="fill:currentColor;stroke-width:1.2"
     class="ColorScheme-Text"
     d="m 11.999903,2.3999428 v 2.4 a 7.2,7.2 0 0 1 7.2,7.2000002 7.2,7.2 0 0 1 -7.2,7.2 7.2,7.2 0 0 1 -7.1507811,-6.447657 l -2.3976562,0.250782 a 9.6,9.6 0 0 0 10.2187503,8.573438 9.6,9.6 0 0 0 8.925,-9.91172 9.6,9.6 0 0 0 -9.595313,-9.2648432 z"
     id="path3" />
</svg>
