<?xml version="1.0" encoding="UTF-8" standalone="no"?>
<svg
   width="24"
   height="24"
   version="1.1"
   id="svg3"
   sodipodi:docname="superproductivity-tray-10.svg"
   xmlns:inkscape="http://www.inkscape.org/namespaces/inkscape"
   xmlns:sodipodi="http://sodipodi.sourceforge.net/DTD/sodipodi-0.dtd"
   xmlns="http://www.w3.org/2000/svg"
   xmlns:svg="http://www.w3.org/2000/svg">
  <sodipodi:namedview
     id="namedview3"
     pagecolor="#ffffff"
     bordercolor="#000000"
     borderopacity="0.25"
     inkscape:showpageshadow="2"
     inkscape:pageopacity="0.0"
     inkscape:pagecheckerboard="0"
     inkscape:deskcolor="#d1d1d1" />
  <defs
     id="defs1">
    <style
       id="current-color-scheme"
       type="text/css">.ColorScheme-Text {color:#d8dee9} .ColorScheme-Highlight {color:#3b4252}</style>
  </defs>
  <path
     style="fill:currentColor;stroke-width:1.2"
     class="ColorScheme-Text"
     d="M 10.497622,8.4 A 0.87702704,0.94832957 0 0 0 9.5999652,9.3515628 v 5.2992182 a 0.87702704,0.94832957 0 0 0 1.3148438,0.822656 l 4.246875,-2.650781 a 0.87702704,0.94832957 0 0 0 0,-1.642969 L 10.914809,8.5265628 A 0.87702704,0.94832957 0 0 0 10.497622,8.4 Z"
     id="path1" />
  <path
     style="opacity:0.35;fill:currentColor;stroke-width:1.2"
     class="ColorScheme-Text"
     d="m 11.999965,2.4 c -5.2877199,0 -9.5999998,4.3122799 -9.5999998,9.6 0,5.28772 4.3122799,9.6 9.5999998,9.6 5.28772,0 9.6,-4.31228 9.6,-9.6 0,-5.2877201 -4.31228,-9.6 -9.6,-9.6 z m 0,2.4 c 3.990664,0 7.2,3.2093363 7.2,7.2 0,3.990664 -3.209336,7.2 -7.2,7.2 -3.9906636,0 -7.1999998,-3.209336 -7.1999998,-7.2 0,-3.9906637 3.2093362,-7.2 7.1999998,-7.2 z"
     id="path2" />
  <path
     style="fill:currentColor;stroke-width:1.2"
     class="ColorScheme-Text"
     d="m 11.999965,2.4 v 2.4 a 7.2,7.2 0 0 1 7.2,7.2 7.2,7.2 0 0 1 -7.2,7.2 7.2,7.2 0 0 1 -6.2273436,-3.604687 L 3.6866839,16.8 A 9.6,9.6 0 0 0 15.283559,21.021094 9.6,9.6 0 0 0 21.454652,10.333594 9.6,9.6 0 0 0 11.999965,2.4 Z"
     id="path3" />
</svg>
