<?xml version="1.0" encoding="UTF-8" standalone="no"?>
<svg
   width="24"
   height="24"
   version="1.1"
   id="svg1"
   sodipodi:docname="synapse-panel.svg"
   xmlns:inkscape="http://www.inkscape.org/namespaces/inkscape"
   xmlns:sodipodi="http://sodipodi.sourceforge.net/DTD/sodipodi-0.dtd"
   xmlns="http://www.w3.org/2000/svg"
   xmlns:svg="http://www.w3.org/2000/svg">
  <sodipodi:namedview
     id="namedview1"
     pagecolor="#ffffff"
     bordercolor="#000000"
     borderopacity="0.25"
     inkscape:showpageshadow="2"
     inkscape:pageopacity="0.0"
     inkscape:pagecheckerboard="0"
     inkscape:deskcolor="#d1d1d1" />
  <defs
     id="defs1">
    <style
       id="current-color-scheme"
       type="text/css">.ColorScheme-Text {color:#d8dee9} .ColorScheme-Highlight {color:#3b4252}</style>
  </defs>
  <path
     style="fill:currentColor;stroke-width:1.2"
     class="ColorScheme-Text"
     d="M 9.7003907,1.3 V 3.7 3.9273437 A 7.8,7.8 0 0 0 3.9160157,9.7 h 2.503125 a 5.4,5.4 0 0 1 5.0812503,-3.6 5.4,5.4 0 0 1 5.078906,3.6 h 2.491406 A 7.8,7.8 0 0 0 13.300391,3.9273437 V 2.5 1.3 Z m 1.8000003,6 a 4.2,4.2 0 0 0 -4.2000003,4.2 4.2,4.2 0 0 0 0.049219,0.6 h 0.43125 0.7851563 5.873437 A 3,3 0 0 1 11.500391,14.5 3,3 0 0 1 9.1027344,13.3 H 7.7105469 a 4.2,4.2 0 0 0 3.7898441,2.4 4.2,4.2 0 0 0 4.2,-4.2 4.2,4.2 0 0 0 -0.04922,-0.6 H 14.98086 14.434765 8.5613281 a 3,3 0 0 1 2.9390629,-2.4 3,3 0 0 1 2.397656,1.2 h 1.392187 A 4.2,4.2 0 0 0 11.500391,7.3 Z m -7.5796878,6 a 7.8,7.8 0 0 0 5.7796875,5.777344 V 20.5 21.7 H 13.300391 V 20.5 19.070313 A 7.8,7.8 0 0 0 19.080078,13.3 h -2.496094 a 5.4,5.4 0 0 1 -5.083593,3.6 5.4,5.4 0 0 1 -5.0835941,-3.6 z"
     id="path1" />
</svg>
