<?xml version="1.0" encoding="UTF-8" standalone="no"?>
<svg
   width="24"
   height="24"
   version="1.1"
   id="svg2"
   sodipodi:docname="synergy-panel.svg"
   xmlns:inkscape="http://www.inkscape.org/namespaces/inkscape"
   xmlns:sodipodi="http://sodipodi.sourceforge.net/DTD/sodipodi-0.dtd"
   xmlns="http://www.w3.org/2000/svg"
   xmlns:svg="http://www.w3.org/2000/svg">
  <sodipodi:namedview
     id="namedview2"
     pagecolor="#ffffff"
     bordercolor="#000000"
     borderopacity="0.25"
     inkscape:showpageshadow="2"
     inkscape:pageopacity="0.0"
     inkscape:pagecheckerboard="0"
     inkscape:deskcolor="#d1d1d1" />
  <defs
     id="defs1">
    <style
       id="current-color-scheme"
       type="text/css">.ColorScheme-Text {color:#d8dee9} .ColorScheme-Highlight {color:#3b4252}</style>
  </defs>
  <path
     style="opacity:0.35;fill:currentColor;stroke-width:1.2"
     class="ColorScheme-Text"
     d="M 12,2.4 A 9.6,9.6 0 0 0 2.4,12 L 4.2,14.4 6,12 A 6,6 0 0 1 12,6 L 9.6,4.2 Z M 19.8,9.6 18,12 a 6,6 0 0 1 -6,6 l 2.4,1.8 -2.4,1.8 A 9.6,9.6 0 0 0 21.6,12 Z"
     id="path1" />
  <path
     style="fill:currentColor;stroke-width:1.2"
     class="ColorScheme-Text"
     d="M 12,2.4 9.6,4.2 12,6 a 6,6 0 0 1 6,6 L 19.8,9.6 21.6,12 A 9.6,9.6 0 0 0 12,2.4 Z M 2.4,12 A 9.6,9.6 0 0 0 12,21.6 L 14.4,19.8 12,18 A 6,6 0 0 1 6,12 l -1.8,2.4 z"
     id="path2" />
</svg>
