<?xml version="1.0" encoding="UTF-8" standalone="no"?>
<svg
   width="24"
   height="24"
   version="1.1"
   id="svg3"
   sodipodi:docname="synergy-panel-ok.svg"
   xmlns:inkscape="http://www.inkscape.org/namespaces/inkscape"
   xmlns:sodipodi="http://sodipodi.sourceforge.net/DTD/sodipodi-0.dtd"
   xmlns="http://www.w3.org/2000/svg"
   xmlns:svg="http://www.w3.org/2000/svg">
  <sodipodi:namedview
     id="namedview3"
     pagecolor="#ffffff"
     bordercolor="#000000"
     borderopacity="0.25"
     inkscape:showpageshadow="2"
     inkscape:pageopacity="0.0"
     inkscape:pagecheckerboard="0"
     inkscape:deskcolor="#d1d1d1" />
  <defs
     id="defs1">
    <style
       id="current-color-scheme"
       type="text/css">.ColorScheme-Text {color:#d8dee9} .ColorScheme-Highlight {color:#3b4252}</style>
  </defs>
  <path
     style="opacity:0.35;fill:currentColor;stroke-width:1.2"
     class="ColorScheme-Text"
     d="M 11.799886,2.4 C 6.4979522,2.4 2.1998858,6.6980664 2.1998858,12 l 1.8,2.4 1.8,-2.4 c 0,-3.3137084 2.6862915,-6 6.0000002,-6 L 9.3998858,4.2 Z"
     id="path1" />
  <path
     style="fill:currentColor;stroke-width:1.2"
     class="ColorScheme-Text"
     d="M 11.799886,2.4 9.3998858,4.2 11.799886,6 a 6,6 0 0 1 6,6 l 1.8,-2.4 1.8,2.4 a 9.6,9.6 0 0 0 -9.6,-9.6 z M 2.1998858,12 a 9.6,9.6 0 0 0 9.6000002,9.6 l 2.4,-1.8 -2.4,-1.8 A 6,6 0 0 1 5.7998858,12 l -1.8,2.4 z"
     id="path2" />
  <path
     style="fill:currentColor;stroke-width:1.2"
     class="ColorScheme-Text"
     d="m 18.719321,12.006312 c -0.318374,0.01912 -0.640853,0.07127 -0.960937,0.157032 -2.56068,0.68616 -4.07979,3.317444 -3.39375,5.878124 0.686088,2.56056 3.317444,4.07991 5.878124,3.39375 2.56068,-0.68616 4.07979,-3.317444 3.39375,-5.878124 -0.600326,-2.24049 -2.688564,-3.684571 -4.917187,-3.550782 z m 2.053124,2.385938 a 0.60006,0.60006 0 0 1 0.564845,0.874218 l -1.8,3.6 A 0.60006,0.60006 0 0 1 18.667758,19.0985 l -1.8,-1.2 a 0.60006,0.60006 0 1 1 0.665626,-0.998438 l 1.235156,0.822656 1.495312,-2.990624 a 0.60006,0.60006 0 0 1 0.508593,-0.339844 z"
     id="path3" />
</svg>
