<?xml version="1.0" encoding="UTF-8" standalone="no"?>
<svg
   width="24"
   height="24"
   version="1.1"
   id="svg1"
   sodipodi:docname="system-restart-panel.svg"
   xmlns:inkscape="http://www.inkscape.org/namespaces/inkscape"
   xmlns:sodipodi="http://sodipodi.sourceforge.net/DTD/sodipodi-0.dtd"
   xmlns="http://www.w3.org/2000/svg"
   xmlns:svg="http://www.w3.org/2000/svg">
  <sodipodi:namedview
     id="namedview1"
     pagecolor="#ffffff"
     bordercolor="#000000"
     borderopacity="0.25"
     inkscape:showpageshadow="2"
     inkscape:pageopacity="0.0"
     inkscape:pagecheckerboard="0"
     inkscape:deskcolor="#d1d1d1" />
  <defs
     id="defs1">
    <style
       id="current-color-scheme"
       type="text/css">.ColorScheme-Text {color:#d8dee9} .ColorScheme-Highlight {color:#3b4252}</style>
  </defs>
  <path
     style="fill:currentColor;stroke-width:1.2"
     class="ColorScheme-Text"
     d="m 12,4.8000001 a 1.2,1.2 0 0 0 -1.2,1.2 1.2,1.2 0 0 0 1.2,1.2 A 4.8,4.8 0 0 1 16.8,12 H 14.4 L 18,16.8 21.6,12 H 19.2 A 7.2,7.2 0 0 0 12,4.8000001 Z m -6.0000002,2.4 L 2.3999999,12 H 4.7999998 A 7.2,7.2 0 0 0 12,19.2 1.2,1.2 0 0 0 13.2,18 1.2,1.2 0 0 0 12,16.8 4.8,4.8 0 0 1 7.2000005,12 H 9.6 Z"
     id="path1" />
</svg>
