<?xml version="1.0" encoding="UTF-8" standalone="no"?>
<svg
   width="24"
   height="24"
   version="1.1"
   id="svg1"
   sodipodi:docname="system-software-update-panel.svg"
   xmlns:inkscape="http://www.inkscape.org/namespaces/inkscape"
   xmlns:sodipodi="http://sodipodi.sourceforge.net/DTD/sodipodi-0.dtd"
   xmlns="http://www.w3.org/2000/svg"
   xmlns:svg="http://www.w3.org/2000/svg">
  <sodipodi:namedview
     id="namedview1"
     pagecolor="#ffffff"
     bordercolor="#000000"
     borderopacity="0.25"
     inkscape:showpageshadow="2"
     inkscape:pageopacity="0.0"
     inkscape:pagecheckerboard="0"
     inkscape:deskcolor="#d1d1d1" />
  <defs
     id="defs1">
    <style
       id="current-color-scheme"
       type="text/css">.ColorScheme-Text {color:#d8dee9} .ColorScheme-Highlight {color:#3b4252}</style>
  </defs>
  <path
     style="opacity:0.35;fill:currentColor;stroke-width:1.2"
     class="ColorScheme-Text"
     d="m 12,2.4 c -5.30196,0 -9.6,4.29804 -9.6,9.6 0,5.3016 4.29804,9.6 9.6,9.6 5.3016,0 9.6,-4.2984 9.6,-9.6 0,-5.30196 -4.2984,-9.6 -9.6,-9.6 z m 0,2.4 c 1.794925,0 3.586909,0.6721928 4.978126,2.00625 -0.444844,0.172589 -0.856323,0.4535603 -1.171876,0.9 L 15.253126,8.4914064 C 13.370516,6.7462549 10.436969,6.7755314 8.60625,8.60625 7.6691584,9.543342 7.2048112,10.771702 7.2046874,12 h 0.35625 A 0.83908459,0.68963652 1.1588047e-6 0 1 8.2875,13.033594 l -0.7804687,1.110937 -0.7828126,1.110938 a 0.83908459,0.68963652 1.1588047e-6 0 1 -1.4507813,0 L 4.4929687,14.144531 3.7125,13.033594 A 0.83908459,0.68963652 1.1588047e-6 0 1 4.190625,12.030469 0.83908459,0.68963652 1.1588047e-6 0 1 4.4367187,12 h 0.365625 C 4.8024284,10.157418 5.5036364,8.3151136 6.909375,6.909375 8.3152694,5.5034807 10.157363,4.8 12,4.8 Z m 5.955469,3.6023436 a 0.83908459,0.68963652 1.1588047e-6 0 1 0.771094,0.3421872 L 19.507031,9.8554692 20.2875,10.966406 A 0.83908459,0.68963652 1.1588047e-6 0 1 19.809374,11.969531 0.83908459,0.68963652 1.1588047e-6 0 1 19.563281,12 h -0.365625 c -8.5e-5,1.842582 -0.701294,3.684882 -2.10703,5.090626 C 15.684731,18.496517 13.842637,19.2 12,19.2 c -1.793891,0 -3.5849075,-0.671389 -4.9757813,-2.003906 0.4364784,-0.169134 0.8499061,-0.448172 1.1695313,-0.9 v -0.0024 l 0.553125,-0.785157 c 1.882607,1.745152 4.816156,1.715875 6.646875,-0.11484 C 16.330842,14.456658 16.795189,13.2283 16.795313,12 h -0.35625 A 0.83908459,0.68963652 1.1588047e-6 0 1 15.7125,10.966406 l 0.780469,-1.1109368 0.782812,-1.1109384 a 0.83908459,0.68963652 1.1588047e-6 0 1 0.679688,-0.3421872 z"
     id="path1" />
</svg>
