<?xml version="1.0" encoding="UTF-8" standalone="no"?>
<svg
   width="24"
   height="24"
   version="1"
   id="svg1"
   sodipodi:docname="system-file-manager-panel.svg"
   xmlns:inkscape="http://www.inkscape.org/namespaces/inkscape"
   xmlns:sodipodi="http://sodipodi.sourceforge.net/DTD/sodipodi-0.dtd"
   xmlns="http://www.w3.org/2000/svg"
   xmlns:svg="http://www.w3.org/2000/svg">
  <sodipodi:namedview
     id="namedview1"
     pagecolor="#ffffff"
     bordercolor="#000000"
     borderopacity="0.25"
     inkscape:showpageshadow="2"
     inkscape:pageopacity="0.0"
     inkscape:pagecheckerboard="0"
     inkscape:deskcolor="#d1d1d1" />
  <defs
     id="defs1">
    <style
       id="current-color-scheme"
       type="text/css">.ColorScheme-Text {color:#d8dee9} .ColorScheme-Highlight {color:#3b4252}</style>
  </defs>
  <path
     style="fill:currentColor;stroke-width:1.2"
     class="ColorScheme-Text"
     d="M 8.4,2.4 C 7.7352,2.4 7.2,2.9352 7.2,3.6 v 1.2 h 9.6 V 3.6 C 16.8,2.9352 16.2648,2.4 15.6,2.4 Z M 6,6 C 5.3352,6 4.8,6.5352 4.8,7.2 V 8.4 H 19.2 V 7.2 C 19.2,6.5352 18.6648,6 18,6 Z M 3.6,9.6 c -0.6648,0 -1.2,0.5352 -1.2,1.2 v 9.6 c 0,0.6648 0.5352,1.2 1.2,1.2 h 16.8 c 0.6648,0 1.2,-0.5352 1.2,-1.2 v -9.6 c 0,-0.6648 -0.5352,-1.2 -1.2,-1.2 z m 6.3,4.8 h 4.2 c 0.1668,0 0.3,0.1332 0.3,0.3 v 0.6 c 0,0.1668 -0.1344,0.3 -0.3,0.3 H 9.9 c -0.1668,0 -0.3,-0.1332 -0.3,-0.3 v -0.6 c 0,-0.1668 0.1344,-0.3 0.3,-0.3 z"
     id="path1" />
</svg>
