<?xml version="1.0" encoding="UTF-8" standalone="no"?>
<svg
   width="24"
   height="24"
   version="1.1"
   id="svg2"
   sodipodi:docname="tabletdisconnected.svg"
   xmlns:inkscape="http://www.inkscape.org/namespaces/inkscape"
   xmlns:sodipodi="http://sodipodi.sourceforge.net/DTD/sodipodi-0.dtd"
   xmlns="http://www.w3.org/2000/svg"
   xmlns:svg="http://www.w3.org/2000/svg">
  <sodipodi:namedview
     id="namedview2"
     pagecolor="#ffffff"
     bordercolor="#000000"
     borderopacity="0.25"
     inkscape:showpageshadow="2"
     inkscape:pageopacity="0.0"
     inkscape:pagecheckerboard="0"
     inkscape:deskcolor="#d1d1d1" />
  <defs
     id="defs1">
    <style
       id="current-color-scheme"
       type="text/css">.ColorScheme-Text {color:#d8dee9} .ColorScheme-Highlight {color:#3b4252}</style>
  </defs>
  <path
     style="opacity:0.35;fill:currentColor;stroke-width:1.2"
     class="ColorScheme-Text"
     d="M 3.5,4.7 C 2.1704,4.7 1.1,5.7704 1.1,7.1 v 9.6 c 0,1.3296 1.0704,2.4 2.4,2.4 h 13.2 c 0,-0.620297 0.226334,-1.226156 0.665626,-1.689844 a 1.20012,1.20012 0 0 1 0.0211,-0.02344 L 17.473437,17.3 17.386719,17.213281 C 17.232296,17.058859 17.115362,16.882898 17.014063,16.7 H 4.7 V 7.1 h 14.4 v 6 c 0.621714,0 1.245851,0.219304 1.713281,0.686719 a 1.20012,1.20012 0 0 1 0.0047,0.0071 l 0.08203,0.08203 0.08203,-0.08203 a 1.20012,1.20012 0 0 1 0.0047,-0.0071 C 21.469848,13.30359 22.079703,13.1 22.7,13.1 v -6 c 0,-1.3296 -1.0704,-2.4 -2.4,-2.4 z m 7.2,0.6 h 2.4 v 0.6 h -2.4 z"
     id="path1" />
  <path
     style="fill:currentColor;stroke-width:1.2"
     class="ColorScheme-Text"
     d="m 17.9,14.3 v 1.2 c 0,0.336 0.12,0.648 0.336,0.864 l 0.936,0.936 -0.936,0.936 C 18.02,18.464 17.9,18.776 17.9,19.1 v 1.2 h 1.2 c 0.336,0 0.648,-0.12 0.864,-0.336 l 0.936,-0.936 0.936,0.936 c 0.216,0.216 0.54,0.336 0.864,0.336 h 1.2 v -1.2 c 0,-0.324 -0.12,-0.636 -0.336,-0.864 L 22.628,17.3 23.564,16.364 C 23.78,16.148 23.9,15.836 23.9,15.5 v -1.2 h -1.2 c -0.324,0 -0.648,0.12 -0.864,0.336 L 20.9,15.584 19.964,14.636 C 19.748,14.42 19.436,14.3 19.1,14.3 Z"
     id="path2" />
</svg>
