<?xml version="1.0" encoding="UTF-8" standalone="no"?>
<svg
   width="24"
   height="24"
   version="1.1"
   id="svg1"
   sodipodi:docname="tartube-refresh-tray.svg"
   xmlns:inkscape="http://www.inkscape.org/namespaces/inkscape"
   xmlns:sodipodi="http://sodipodi.sourceforge.net/DTD/sodipodi-0.dtd"
   xmlns="http://www.w3.org/2000/svg"
   xmlns:svg="http://www.w3.org/2000/svg">
  <sodipodi:namedview
     id="namedview1"
     pagecolor="#ffffff"
     bordercolor="#000000"
     borderopacity="0.25"
     inkscape:showpageshadow="2"
     inkscape:pageopacity="0.0"
     inkscape:pagecheckerboard="0"
     inkscape:deskcolor="#d1d1d1" />
  <defs
     id="defs1">
    <style
       id="current-color-scheme"
       type="text/css">.ColorScheme-Text {color:#d8dee9} .ColorScheme-Highlight {color:#3b4252}</style>
  </defs>
  <path
     style="fill:currentColor;stroke-width:1.2"
     class="ColorScheme-Text"
     d="M 5.034375,2.2000398 A 1.6945097,1.7237383 0 0 0 3.3,3.922696 v 15.754687 a 1.6945097,1.7237383 0 0 0 2.540625,1.49297 l 13.410938,-7.877344 a 1.6945097,1.7237383 0 0 0 0,-2.985938 L 5.840625,2.432071 A 1.6945097,1.7237383 0 0 0 5.034375,2.2000398 Z M 6.9,7.2297272 14.683594,11.802383 6.9,16.37504 Z m 13.242187,6.9703128 -3.642187,2.4 3.642187,2.4 v -1.078126 c 0.696064,0.265828 1.156397,0.933031 1.157813,1.678126 0,0.994112 -0.805888,1.8 -1.8,1.8 -0.761882,-0.0011 -1.44057,-0.48169 -1.694531,-1.2 h -2.45625 c 0.297925,2.064098 2.065295,3.596951 4.150781,3.6 2.319596,0 4.2,-1.880404 4.2,-4.2 -0.0023,-2.069926 -1.512226,-3.8296 -3.557813,-4.146094 z"
     id="path1" />
</svg>
