<?xml version="1.0" encoding="UTF-8" standalone="no"?>
<svg
   width="24"
   height="24"
   version="1.1"
   id="svg1"
   sodipodi:docname="tartube-check-tray.svg"
   xmlns:inkscape="http://www.inkscape.org/namespaces/inkscape"
   xmlns:sodipodi="http://sodipodi.sourceforge.net/DTD/sodipodi-0.dtd"
   xmlns="http://www.w3.org/2000/svg"
   xmlns:svg="http://www.w3.org/2000/svg">
  <sodipodi:namedview
     id="namedview1"
     pagecolor="#ffffff"
     bordercolor="#000000"
     borderopacity="0.25"
     inkscape:showpageshadow="2"
     inkscape:pageopacity="0.0"
     inkscape:pagecheckerboard="0"
     inkscape:deskcolor="#d1d1d1" />
  <defs
     id="defs1">
    <style
       id="current-color-scheme"
       type="text/css">.ColorScheme-Text {color:#d8dee9} .ColorScheme-Highlight {color:#3b4252}</style>
  </defs>
  <path
     style="fill:currentColor;stroke-width:1.2"
     class="ColorScheme-Text"
     d="M 5.0335837,2.1998415 A 1.6945097,1.7237383 0 0 0 3.2992087,3.9224978 V 19.677185 a 1.6945097,1.7237383 0 0 0 2.540625,1.49297 L 19.250772,13.292811 a 1.6945097,1.7237383 0 0 0 0,-2.985938 L 5.8398337,2.4318728 a 1.6945097,1.7237383 0 0 0 -0.80625,-0.2320313 z m 1.865625,5.0296875 7.7835933,4.572656 -7.7835933,4.572657 z m 15.6046873,8.15625 a 1.20012,1.20012 0 0 0 -0.986718,0.525 l -3.466406,4.952344 -2.001563,-1.600781 a 1.2005858,1.2005858 0 1 0 -1.5,1.875 l 3,2.4 a 1.20012,1.20012 0 0 0 1.732031,-0.248437 l 4.2,-6 a 1.20012,1.20012 0 0 0 -0.977344,-1.903126 z"
     id="path1" />
</svg>
