<?xml version="1.0" encoding="UTF-8" standalone="no"?>
<svg
   width="24"
   height="24"
   version="1.1"
   id="svg1"
   sodipodi:docname="tartube-update-tray.svg"
   xmlns:inkscape="http://www.inkscape.org/namespaces/inkscape"
   xmlns:sodipodi="http://sodipodi.sourceforge.net/DTD/sodipodi-0.dtd"
   xmlns="http://www.w3.org/2000/svg"
   xmlns:svg="http://www.w3.org/2000/svg">
  <sodipodi:namedview
     id="namedview1"
     pagecolor="#ffffff"
     bordercolor="#000000"
     borderopacity="0.25"
     inkscape:showpageshadow="2"
     inkscape:pageopacity="0.0"
     inkscape:pagecheckerboard="0"
     inkscape:deskcolor="#d1d1d1" />
  <defs
     id="defs1">
    <style
       id="current-color-scheme"
       type="text/css">.ColorScheme-Text {color:#d8dee9} .ColorScheme-Highlight {color:#3b4252}</style>
  </defs>
  <path
     style="fill:currentColor;stroke-width:1.2"
     class="ColorScheme-Text"
     d="M 5.0345987,2.2006358 A 1.6945097,1.7237383 0 0 0 3.3002237,3.923292 v 15.754687 a 1.6945097,1.7237383 0 0 0 2.540625,1.49297 L 19.251786,13.293605 a 1.6945097,1.7237383 0 0 0 0,-2.985938 l -13.4109373,-7.875 a 1.6945097,1.7237383 0 0 0 -0.80625,-0.2320312 z m 1.865625,5.0296874 7.7835933,4.5726558 -7.7835933,4.572657 z M 19.511943,15.402979 a 4.2,4.2 0 0 0 -2.111719,0.560157 4.2,4.2 0 0 0 -1.797657,5.19375 l 2.130469,-1.228125 a 1.8,1.8 0 0 1 0.867188,-1.886719 1.8,1.8 0 0 1 0.571874,-0.208593 l 0.548438,0.946874 0.946875,-0.546094 2.128125,-1.228124 a 4.2,4.2 0 0 0 -3.283593,-1.603126 z m 3.885937,2.641407 -2.130469,1.228124 a 1.8,1.8 0 0 1 -0.867187,1.886719 1.8,1.8 0 0 1 -0.571875,0.208594 l -0.548438,-0.946874 -0.946875,0.546093 -1.132032,0.653907 -0.996093,0.574218 a 4.2,4.2 0 0 0 5.395313,1.042969 4.2,4.2 0 0 0 1.797656,-5.19375 z"
     id="path1" />
</svg>
