<?xml version="1.0" encoding="UTF-8" standalone="no"?>
<svg
   width="24"
   height="24"
   version="1.1"
   id="svg1"
   sodipodi:docname="teamviewer-indicator-away.svg"
   xmlns:inkscape="http://www.inkscape.org/namespaces/inkscape"
   xmlns:sodipodi="http://sodipodi.sourceforge.net/DTD/sodipodi-0.dtd"
   xmlns="http://www.w3.org/2000/svg"
   xmlns:svg="http://www.w3.org/2000/svg">
  <sodipodi:namedview
     id="namedview1"
     pagecolor="#ffffff"
     bordercolor="#000000"
     borderopacity="0.25"
     inkscape:showpageshadow="2"
     inkscape:pageopacity="0.0"
     inkscape:pagecheckerboard="0"
     inkscape:deskcolor="#d1d1d1" />
  <defs
     id="defs1">
    <style
       id="current-color-scheme"
       type="text/css">.ColorScheme-Text {color:#d8dee9} .ColorScheme-Highlight {color:#3b4252}</style>
  </defs>
  <g
     style=""
     id="g1">
    <path
       style="fill:currentColor;stroke-width:1.2"
       class="ColorScheme-Text"
       d="m 21.3,11.7793 c -0.0017,0.583331 -0.06088,1.165613 -0.168272,1.738975 L 19.847653,12.234561 16.5,15.627407 17.451389,16.578795 12.9,16.5793 v 4.714446 c -0.397763,0.05304 -0.798726,0.08267 -1.2,0.08555 -5.3007551,0 -9.6000001,-4.298683 -9.6000001,-9.599438 0,-5.3007502 4.2992332,-9.600437 9.6000001,-9.6005568 5.300767,-1.189e-4 9.6,4.2992459 9.6,9.6000008 z M 14.1,8.1793002 V 10.5793 H 9.2999998 L 9.2984231,8.1804226 5.7,11.7793 l 3.5999998,3.6 v -2.4 H 14.1 v 2.4 l 3.6,-3.6 z M 19.8516,13.9297 24.9,18.9793 19.8516,24.0277 18.15468,22.3309 20.30628,20.1793 14.1,20.1781 v -2.4 l 6.20628,0.0012 -2.1516,-2.1528 z"
       id="path1" />
  </g>
</svg>
