<?xml version="1.0" encoding="UTF-8" standalone="no"?>
<svg
   width="24"
   height="24"
   version="1.1"
   id="svg1"
   sodipodi:docname="teams-tray-onshift.svg"
   xmlns:inkscape="http://www.inkscape.org/namespaces/inkscape"
   xmlns:sodipodi="http://sodipodi.sourceforge.net/DTD/sodipodi-0.dtd"
   xmlns="http://www.w3.org/2000/svg"
   xmlns:svg="http://www.w3.org/2000/svg">
  <sodipodi:namedview
     id="namedview1"
     pagecolor="#ffffff"
     bordercolor="#000000"
     borderopacity="0.25"
     inkscape:showpageshadow="2"
     inkscape:pageopacity="0.0"
     inkscape:pagecheckerboard="0"
     inkscape:deskcolor="#d1d1d1" />
  <defs
     id="defs1">
    <style
       id="current-color-scheme"
       type="text/css">.ColorScheme-Text {color:#d8dee9} .ColorScheme-Highlight {color:#3b4252}</style>
  </defs>
  <path
     style="fill:currentColor;stroke-width:1.2"
     class="ColorScheme-Text"
     d="M 4.728125,2.4 C 4.0480346,2.4 3.5,2.9480346 3.5,3.628125 V 19.171874 C 3.5,19.851967 4.0480346,20.4 4.728125,20.4 h 8.085938 C 12.219304,19.512444 11.901199,18.468406 11.9,17.4 c 0.0013,-0.200542 0.01387,-0.400852 0.0375,-0.6 H 10.7 V 9.6 H 7.1 V 6 h 10.8 v 3.6 h -3.6 v 3.314063 c 0.887556,-0.594759 1.931594,-0.912864 3,-0.914063 1.631548,6.6e-4 3.175326,0.738952 4.2,2.008594 V 3.628125 C 21.5,2.9480346 20.951971,2.4 20.271874,2.4 Z M 17.3,13.2 c -2.319596,0 -4.2,1.880404 -4.2,4.2 0,2.319596 1.880404,4.2 4.2,4.2 2.319596,0 4.2,-1.880404 4.2,-4.2 0,-2.319596 -1.880404,-4.2 -4.2,-4.2 z m 2.153906,2.4 H 20.3 v 0.850781 l -3.6,3.597656 -2.4,-2.4 V 16.8 h 0.848437 L 16.7,18.351563 Z"
     id="path1" />
</svg>
