<?xml version="1.0" encoding="UTF-8" standalone="no"?>
<svg
   width="24"
   height="24"
   version="1.1"
   id="svg1"
   sodipodi:docname="teams-tray-dnd.svg"
   xmlns:inkscape="http://www.inkscape.org/namespaces/inkscape"
   xmlns:sodipodi="http://sodipodi.sourceforge.net/DTD/sodipodi-0.dtd"
   xmlns="http://www.w3.org/2000/svg"
   xmlns:svg="http://www.w3.org/2000/svg">
  <sodipodi:namedview
     id="namedview1"
     pagecolor="#ffffff"
     bordercolor="#000000"
     borderopacity="0.25"
     inkscape:showpageshadow="2"
     inkscape:pageopacity="0.0"
     inkscape:pagecheckerboard="0"
     inkscape:deskcolor="#d1d1d1" />
  <defs
     id="defs1">
    <style
       id="current-color-scheme"
       type="text/css">.ColorScheme-Text {color:#d8dee9} .ColorScheme-Highlight {color:#3b4252}</style>
  </defs>
  <path
     style="fill:currentColor;stroke-width:1.2"
     class="ColorScheme-Text"
     d="M 4.728125,2.4 C 4.0480346,2.4 3.5,2.9480346 3.5,3.628125 V 19.171874 C 3.5,19.851967 4.0480346,20.4 4.728125,20.4 h 8.085938 A 5.4,5.4 0 0 1 11.9,17.4 5.4,5.4 0 0 1 11.9375,16.8 H 10.7 V 9.6 H 7.1 V 6 h 10.8 v 3.6 h -3.6 v 3.314063 A 5.4,5.4 0 0 1 17.3,12 5.4,5.4 0 0 1 21.5,14.008594 V 3.628125 C 21.5,2.9480346 20.951968,2.4 20.271874,2.4 Z M 17.3,13.2 a 4.2,4.2 0 0 0 -4.2,4.2 4.2,4.2 0 0 0 4.2,4.2 4.2,4.2 0 0 0 4.2,-4.2 4.2,4.2 0 0 0 -4.2,-4.2 z m -3,3.6 h 6 V 18 h -6 z"
     id="path1" />
</svg>
