<?xml version="1.0" encoding="UTF-8" standalone="no"?>
<svg
   viewBox="0 0 24 24"
   version="1.1"
   id="svg2"
   sodipodi:docname="temperature-normal-symbolic.svg"
   width="24"
   height="24"
   inkscape:version="1.4.2 (ebf0e940d0, 2025-05-08)"
   xmlns:inkscape="http://www.inkscape.org/namespaces/inkscape"
   xmlns:sodipodi="http://sodipodi.sourceforge.net/DTD/sodipodi-0.dtd"
   xmlns="http://www.w3.org/2000/svg"
   xmlns:svg="http://www.w3.org/2000/svg">
  <defs
     id="defs2" />
  <sodipodi:namedview
     id="namedview2"
     pagecolor="#505050"
     bordercolor="#eeeeee"
     borderopacity="1"
     inkscape:showpageshadow="0"
     inkscape:pageopacity="0"
     inkscape:pagecheckerboard="0"
     inkscape:deskcolor="#505050"
     inkscape:zoom="53.818182"
     inkscape:cx="11"
     inkscape:cy="11"
     inkscape:window-width="2560"
     inkscape:window-height="1392"
     inkscape:window-x="0"
     inkscape:window-y="0"
     inkscape:window-maximized="1"
     inkscape:current-layer="svg2" />
  <style
     id="current-color-scheme"
     type="text/css">.ColorScheme-Text { color: #fcfcfc; } </style>
  <path
     class="ColorScheme-Text"
     fill="currentColor"
     d="M 10.933333,9.8666666 V 20.533333 L 13.066666,21.6 15.2,20.533333 V 9.8666666 Z"
     opacity="0.35"
     id="path1"
     style="stroke-width:1.06667" />
  <path
     class="ColorScheme-Text"
     fill="currentColor"
     d="m 13.066666,2.4 c -1.181865,0 -2.133333,0.9514667 -2.133333,2.1333334 V 16.016666 C 10.255081,16.623313 9.8671804,17.49003 9.8666668,18.4 c 0,1.76731 1.4326892,3.2 3.1999992,3.2 1.767312,0 3.200001,-1.43269 3.200001,-3.2 C 16.2656,17.490756 15.877712,16.624912 15.2,16.01875 V 4.5333334 C 15.2,3.3514667 14.248533,2.4 13.066666,2.4 Z m 0,1.0666667 c 0.590934,0 1.066667,0.4757333 1.066667,1.0666667 v 10.8520826 0.881251 0.28125 c 0.659851,0.373018 1.06643,1.062297 1.066667,1.808333 -7.51e-4,1.15311 -0.955656,2.087501 -2.133334,2.087501 -1.177676,0 -2.132582,-0.934391 -2.133333,-2.087501 -5.23e-4,-0.74678 0.406159,-1.437026 1.066668,-1.810416 V 16.266667 15.383333 4.5333334 c 0,-0.5909334 0.475732,-1.0666667 1.066665,-1.0666667 z M 7.7333334,5.6 V 6.6666667 H 9.8666668 V 5.6 Z m 0,3.2 V 9.8666666 H 9.8666668 V 8.8 Z m 0,3.2 v 1.066667 H 9.8666668 V 12 Z m 5.3333326,5.333333 c -0.589104,0 -1.066665,0.477563 -1.066665,1.066667 0,0.589104 0.477561,1.066666 1.066665,1.066666 0.589104,0 1.066667,-0.477562 1.066667,-1.066666 0,-0.589104 -0.477563,-1.066667 -1.066667,-1.066667 z"
     id="path2"
     style="stroke-width:1.06667" />
</svg>
