<?xml version="1.0" encoding="UTF-8" standalone="no"?>
<svg
   width="24"
   height="24"
   version="1.1"
   id="svg2"
   sodipodi:docname="thunderbird-panel.svg"
   xmlns:inkscape="http://www.inkscape.org/namespaces/inkscape"
   xmlns:sodipodi="http://sodipodi.sourceforge.net/DTD/sodipodi-0.dtd"
   xmlns="http://www.w3.org/2000/svg"
   xmlns:svg="http://www.w3.org/2000/svg">
  <sodipodi:namedview
     id="namedview2"
     pagecolor="#ffffff"
     bordercolor="#000000"
     borderopacity="0.25"
     inkscape:showpageshadow="2"
     inkscape:pageopacity="0.0"
     inkscape:pagecheckerboard="0"
     inkscape:deskcolor="#d1d1d1" />
  <defs
     id="defs1">
    <style
       id="current-color-scheme"
       type="text/css">.ColorScheme-Text {color:#d8dee9} .ColorScheme-Highlight {color:#3b4252}</style>
  </defs>
  <path
     style="fill:currentColor;stroke-width:1.2"
     class="ColorScheme-Text"
     d="M 15.84,2.4 C 13.272,2.4 11.928,2.844 11.4,4.8 9.96,5.52 9.6,5.724 9.6,6.6 9.6,6.6 10.8,6 12,6 c 3.6,0 6,2.4 6,6 0,2.736 -2.4,6 -6,6 C 8.4,18 6,15.6 6,12 6,9.6 7.2,8.4 7.2,8.4 7.2,6.348 7.68,4.8 6.516,4.452 6.324,4.452 6.3,4.608 6.3,4.608 6.12,6.216 5.316,6.708 4.884,7.308 4.236,8.22 3.84,9.42 3.84,10.56 3.6,10.044 3.432,9.432 3.288,8.88 3.276,8.82 3.192,8.64 3.084,8.64 2.928,8.64 2.808,8.988 2.796,9.048 2.544,9.912 2.4,11.136 2.4,12 c 0,5.484 4.116,9.6 9.6,9.6 5.532,0 9.6,-4.008 9.6,-9.6 0,-1.524 -0.324,-3.312 -0.96,-4.8 C 20.4,6.72 20.016,6.168 19.68,5.76 20.088,5.652 20.676,5.676 21.12,5.76 20.532,5.076 19.752,4.92 18.72,4.8 18.984,4.212 19.716,3.636 20.4,3.6 19.26,2.628 17.7,2.4 15.84,2.4 Z M 13.8,3.6 c 0.336,0 0.6,0.264 0.6,0.6 0,0.336 -0.264,0.6 -0.6,0.6 -0.336,0 -0.6,-0.264 -0.6,-0.6 0,-0.336 0.264,-0.6 0.6,-0.6 z"
     id="path1" />
  <path
     style="opacity:0.35;fill:currentColor;stroke-width:1.2"
     class="ColorScheme-Text"
     d="M 8.4,8.844 C 9.276,7.824 10.548,7.2 12,7.2 c 1.44,0 2.724,0.624 3.6,1.644 L 12,12 Z M 16.164,9.6 c 0.408,0.708 0.636,1.524 0.636,2.4 0,2.652 -2.148,4.8 -4.8,4.8 -2.652,0 -4.8,-2.148 -4.8,-4.8 0,-0.876 0.24,-1.692 0.648,-2.4 L 12,13.2 Z"
     id="path2" />
</svg>
