<?xml version="1.0" encoding="UTF-8" standalone="no"?>
<svg
   width="24"
   height="24"
   version="1.1"
   id="svg2"
   sodipodi:docname="thunderbird-attention-panel.svg"
   xmlns:inkscape="http://www.inkscape.org/namespaces/inkscape"
   xmlns:sodipodi="http://sodipodi.sourceforge.net/DTD/sodipodi-0.dtd"
   xmlns="http://www.w3.org/2000/svg"
   xmlns:svg="http://www.w3.org/2000/svg">
  <sodipodi:namedview
     id="namedview2"
     pagecolor="#ffffff"
     bordercolor="#000000"
     borderopacity="0.25"
     inkscape:showpageshadow="2"
     inkscape:pageopacity="0.0"
     inkscape:pagecheckerboard="0"
     inkscape:deskcolor="#d1d1d1" />
  <defs
     id="defs1">
    <style
       id="current-color-scheme"
       type="text/css">.ColorScheme-Text {color:#d8dee9} .ColorScheme-Highlight {color:#3b4252}</style>
  </defs>
  <circle
     style="fill:currentColor;stroke-width:1.2"
     class="ColorScheme-Text"
     cx="20.299999"
     cy="20.299999"
     r="2.4000001"
     id="circle1" />
  <path
     style="fill:currentColor;stroke-width:1.2"
     class="ColorScheme-Text"
     d="m 15.74,2.3 c -2.568,0 -3.912,0.444 -4.44,2.4 -1.44,0.72 -1.8,0.924 -1.8,1.8 0,0 1.2,-0.6 2.4,-0.6 3.6,0 6,2.4 6,6 0,2.736 -2.4,6 -6,6 -3.6,0 -6,-2.4 -6,-6 C 5.9,9.5 7.1,8.3 7.1,8.3 7.1,6.248 7.58,4.7 6.416,4.352 6.224,4.352 6.2,4.508 6.2,4.508 6.02,6.116 5.216,6.608 4.784,7.208 4.136,8.12 3.74,9.32 3.74,10.46 3.5,9.944 3.332,9.332 3.188,8.78 3.176,8.72 3.092,8.54 2.984,8.54 2.828,8.54 2.708,8.888 2.696,8.948 2.444,9.812 2.3,11.036 2.3,11.9 c 0,5.484 4.116,9.6 9.6,9.6 1.776,0 3.408,-0.42 4.8,-1.164 a 3.6,3.6 0 0 1 0,-0.036 3.6,3.6 0 0 1 3.6,-3.6 3.6,3.6 0 0 1 0.036,0 C 21.08,15.32 21.5,13.688 21.5,11.9 21.5,10.376 21.176,8.588 20.54,7.1 20.3,6.62 19.916,6.068 19.58,5.66 19.988,5.552 20.576,5.576 21.02,5.66 20.432,4.976 19.652,4.82 18.62,4.7 18.884,4.112 19.616,3.536 20.3,3.5 19.16,2.528 17.6,2.3 15.74,2.3 Z M 13.7,3.5 c 0.336,0 0.6,0.264 0.6,0.6 0,0.336 -0.264,0.6 -0.6,0.6 -0.336,0 -0.6,-0.264 -0.6,-0.6 0,-0.336 0.264,-0.6 0.6,-0.6 z"
     id="path1" />
  <path
     style="opacity:0.35;fill:currentColor;stroke-width:1.2"
     class="ColorScheme-Text"
     d="M 8.3,8.744 C 9.176,7.724 10.448,7.1 11.9,7.1 c 1.44,0 2.724,0.624 3.6,1.644 L 11.9,11.9 Z M 16.064,9.5 c 0.408,0.708 0.636,1.524 0.636,2.4 0,2.652 -2.148,4.8 -4.8,4.8 -2.652,0 -4.8,-2.148 -4.8,-4.8 0,-0.876 0.24,-1.692 0.648,-2.4 l 4.152,3.6 z"
     id="path2" />
</svg>
