<?xml version="1.0" encoding="UTF-8" standalone="no"?>
<svg
   width="24"
   height="24"
   version="1.1"
   id="svg4"
   sodipodi:docname="timekpr-panel.svg"
   xmlns:inkscape="http://www.inkscape.org/namespaces/inkscape"
   xmlns:sodipodi="http://sodipodi.sourceforge.net/DTD/sodipodi-0.dtd"
   xmlns="http://www.w3.org/2000/svg"
   xmlns:svg="http://www.w3.org/2000/svg">
  <sodipodi:namedview
     id="namedview4"
     pagecolor="#ffffff"
     bordercolor="#000000"
     borderopacity="0.25"
     inkscape:showpageshadow="2"
     inkscape:pageopacity="0.0"
     inkscape:pagecheckerboard="0"
     inkscape:deskcolor="#d1d1d1" />
  <defs
     id="defs1">
    <style
       id="current-color-scheme"
       type="text/css">.ColorScheme-Text {color:#d8dee9} .ColorScheme-Highlight {color:#3b4252}</style>
  </defs>
  <path
     style="fill:currentColor;fill-rule:evenodd;stroke-width:1.2"
     class="ColorScheme-Text"
     d="M 12.5,2.4 C 9.5084,2.4 7.1,4.8482436 7.1,7.8398437 V 10.8 H 6.8421874 C 6.3196548,10.8 5.9,11.238224 5.9,11.782031 v 8.835938 C 5.9,21.161776 6.3196546,21.6 6.8421874,21.6 H 18.157813 C 18.680346,21.6 19.1,21.161776 19.1,20.617969 V 11.782031 C 19.1,11.238224 18.680346,10.8 18.157813,10.8 H 17.9 V 7.8398437 C 17.9,4.8482436 15.4916,2.4 12.5,2.4 Z m 0,2.4 c 2.206756,0 2.736331,1.3758613 3,3.5203126 V 10.8 h -6 V 8.3203126 C 9.5,6.1597127 10.293246,4.8 12.5,4.8 Z m 0,7.2 c 2.319596,0 4.2,1.880405 4.2,4.2 0,2.319596 -1.880404,4.2 -4.2,4.2 -2.319596,0 -4.2,-1.880404 -4.2,-4.2 0,-2.319595 1.880404,-4.2 4.2,-4.2 z m 0.464063,0.349219 a 0.11667834,0.11667834 0 0 0 -0.103128,0.117192 v 0.932812 a 0.11667834,0.11667834 0 1 0 0.232031,0 V 12.466411 A 0.11667834,0.11667834 0 0 0 12.96406,12.349219 Z M 15.258594,14.7 a 0.35003502,0.35003502 0 0 0 -0.154688,0.04922 l -2.653125,1.530468 -1.980468,-1.14375 A 0.35074364,0.35074364 0 0 0 10.11875,15.74297 l 2.158594,1.244531 a 0.35003502,0.35003502 0 0 0 0.349219,0 L 15.453126,15.35625 A 0.35003502,0.35003502 0 0 0 15.258594,14.7 Z M 8.7429687,16.565626 A 0.11777168,0.11777168 0 0 0 8.7664063,16.8 h 0.9328129 a 0.1171872,0.1171872 0 1 0 0,-0.234374 H 8.7664063 a 0.1171872,0.1171872 0 0 0 -0.011724,0 0.1173336,0.1173336 0 0 0 -0.011724,0 z m 6.5343753,0 A 0.11777167,0.11777167 0 0 0 15.300781,16.8 h 0.932813 a 0.1171872,0.1171872 0 1 0 0,-0.234374 h -0.932813 a 0.1171872,0.1171872 0 0 0 -0.01176,0 0.11733358,0.11733358 0 0 0 -0.01176,0 z m -2.313281,2.315624 a 0.11667834,0.11667834 0 0 0 -0.103128,0.119532 v 0.932813 a 0.11667834,0.11667834 0 1 0 0.232031,0 v -0.932813 a 0.11667834,0.11667834 0 0 0 -0.117192,-0.119532 0.11667834,0.11667834 0 0 0 -0.01176,0 z"
     id="path1" />
  <path
     style="opacity:0.35;fill:currentColor;stroke-width:1.2"
     class="ColorScheme-Text"
     d="m 10.803126,13.502344 a 0.35003502,0.35003502 0 0 0 -0.285939,0.529687 l 1.63125,2.828906 a 0.35074364,0.35074364 0 1 0 0.607032,-0.351563 l -1.633593,-2.826561 a 0.35003502,0.35003502 0 0 0 -0.31875,-0.180469 z"
     id="path2" />
  <path
     style="opacity:0.5;fill:currentColor;stroke-width:1.2"
     class="ColorScheme-Text"
     d="m 12.446094,13.064063 a 0.35003502,0.35003502 0 0 0 -0.344531,0.35625 v 0.138281 3.126562 a 0.35039058,0.35039058 0 1 0 0.700781,0 v -3.126562 -0.138281 a 0.35003502,0.35003502 0 0 0 -0.35625,-0.35625 z"
     id="path3" />
  <path
     style="opacity:0.7;fill:currentColor;stroke-width:1.2"
     class="ColorScheme-Text"
     d="m 14.089063,13.502344 a 0.35003502,0.35003502 0 0 0 -0.309376,0.180469 l -1.63125,2.826561 a 0.35074364,0.35074364 0 1 0 0.607032,0.351563 l 1.63125,-2.828906 a 0.35003502,0.35003502 0 0 0 -0.297656,-0.529687 z"
     id="path4" />
</svg>
