<?xml version="1.0" encoding="UTF-8" standalone="no"?>
<svg
   width="24"
   height="24"
   version="1.1"
   id="svg1"
   sodipodi:docname="todoist-tray.svg"
   xmlns:inkscape="http://www.inkscape.org/namespaces/inkscape"
   xmlns:sodipodi="http://sodipodi.sourceforge.net/DTD/sodipodi-0.dtd"
   xmlns="http://www.w3.org/2000/svg"
   xmlns:svg="http://www.w3.org/2000/svg">
  <sodipodi:namedview
     id="namedview1"
     pagecolor="#ffffff"
     bordercolor="#000000"
     borderopacity="0.25"
     inkscape:showpageshadow="2"
     inkscape:pageopacity="0.0"
     inkscape:pagecheckerboard="0"
     inkscape:deskcolor="#d1d1d1" />
  <defs
     id="defs1">
    <style
       id="current-color-scheme"
       type="text/css">.ColorScheme-Text {color:#d8dee9} .ColorScheme-Highlight {color:#3b4252}</style>
  </defs>
  <path
     style="fill:currentColor;stroke-width:1.2"
     class="ColorScheme-Text"
     d="m 18.861161,2.4994637 a 0.84918954,0.90880615 0 0 0 -0.431279,0.1242187 c -0.130254,0.081467 -8.822988,5.4874278 -9.1130995,5.6648439 -0.3484722,0.2136237 -0.7782942,0.2172441 -1.1250741,0 L 3.5999999,5.40337 v 2.4515624 c 1.117311,0.7042344 3.8950069,2.4522006 4.5682694,2.8640606 0.4017568,0.244399 0.7860701,0.23922 1.174296,-0.0024 L 20.222969,3.9455574 c 0.232601,-0.1448304 0.244941,-0.5897817 -0.0164,-0.75 C 19.94606,3.0344345 19.453392,2.7310763 19.269006,2.6143074 A 0.84918954,0.90880615 0 0 0 18.861163,2.4994638 Z m 0,4.8 a 0.84918954,0.90880608 0 0 0 -0.431279,0.1242187 c -0.130254,0.081467 -8.822988,5.4874286 -9.1130995,5.6648426 -0.3484722,0.213625 -0.7782942,0.217246 -1.1250741,0 L 3.5999999,10.203369 v 2.451563 c 1.117311,0.704234 3.8950069,2.4522 4.5682694,2.864061 0.4017568,0.244398 0.7860701,0.239224 1.174296,-0.0024 L 20.222969,8.745558 C 20.45557,8.6007276 20.46791,8.1557757 20.206565,7.9955574 19.946056,7.8344348 19.453388,7.531076 19.269002,7.4143074 A 0.84918954,0.90880608 0 0 0 18.861163,7.2994638 Z m 0,4.7999983 a 0.84918954,0.90880776 0 0 0 -0.431279,0.12422 c -0.130254,0.08146 -8.822988,5.487427 -9.1130995,5.664843 -0.3484722,0.213625 -0.7782942,0.217247 -1.1250741,0 L 3.5999999,15.003369 v 2.451563 c 1.117311,0.704235 3.8950069,2.452202 4.5682694,2.864061 0.4017568,0.244402 0.7860701,0.239184 1.174296,-0.0024 L 20.222969,13.5455 c 0.232599,-0.144832 0.244944,-0.589782 -0.0164,-0.75 -0.260514,-0.161123 -0.753177,-0.464483 -0.937563,-0.58125 a 0.84918954,0.90880776 0 0 0 -0.407839,-0.11484 z"
     id="path1" />
</svg>
