<?xml version="1.0" encoding="UTF-8" standalone="no"?>
<svg
   width="24"
   height="24"
   version="1.1"
   id="svg1"
   sodipodi:docname="toolbox-tray-color.svg"
   xmlns:inkscape="http://www.inkscape.org/namespaces/inkscape"
   xmlns:sodipodi="http://sodipodi.sourceforge.net/DTD/sodipodi-0.dtd"
   xmlns="http://www.w3.org/2000/svg"
   xmlns:svg="http://www.w3.org/2000/svg">
  <sodipodi:namedview
     id="namedview1"
     pagecolor="#ffffff"
     bordercolor="#000000"
     borderopacity="0.25"
     inkscape:showpageshadow="2"
     inkscape:pageopacity="0.0"
     inkscape:pagecheckerboard="0"
     inkscape:deskcolor="#d1d1d1" />
  <defs
     id="defs1">
    <style
       id="current-color-scheme"
       type="text/css">.ColorScheme-Text {color:#d8dee9} .ColorScheme-Highlight {color:#3b4252}</style>
  </defs>
  <path
     style="fill:currentColor;stroke-width:1.2"
     class="ColorScheme-Text"
     d="m 12.553908,2.4006075 c -0.418894,-0.00973 -0.832318,0.093234 -1.195313,0.2942883 L 4.6414071,6.4194085 C 4.4416979,6.5301532 4.2656212,6.6684897 4.1140634,6.8267035 l 8.3859376,4.5320405 8.38828,-4.5320405 C 20.735484,6.668721 20.558719,6.5303839 20.358594,6.4194085 l -6.717186,-3.726867 c -0.331271,-0.1834609 -0.705219,-0.283456 -1.0875,-0.291934 z M 3.5492195,7.8932049 c -0.029083,0.1385256 -0.049228,0.2793288 -0.049219,0.4237752 a 2.2827809,2.1928061 0 0 0 0,0.0024 v 7.4490249 c -1e-7,0.133306 0.0178,0.264652 0.042187,0.39317 a 2.2827809,2.1928061 0 0 0 0.023437,0.113004 c 0.030786,0.124494 0.071854,0.246049 0.1242188,0.362563 a 2.2827809,2.1928061 0 0 0 0.032813,0.06592 c 0.055088,0.112116 0.1182108,0.218589 0.1921874,0.320186 a 2.2827809,2.1928061 0 0 0 0.032813,0.04944 c 0.080809,0.10488 0.1743932,0.201809 0.2742187,0.291934 a 2.2827809,2.1928061 0 0 0 0.079687,0.06592 c 0.1058304,0.0871 0.2166382,0.169455 0.3398437,0.237785 l 6.7171879,3.724512 c 0.107232,0.05947 0.21917,0.10926 0.332812,0.150675 a 2.2827809,2.1928061 0 0 0 0.103128,0.0306 c 0.03482,0.01092 0.0705,0.01662 0.105468,0.0259 v -9.195899 z m 17.8921865,0.00468 -8.341405,4.5061421 v 9.191211 a 2.2827809,2.1928061 0 0 0 0.541407,-0.20247 l 6.717186,-3.724512 A 2.2827809,2.1928061 0 0 0 21.5,15.76836 V 8.3193333 A 2.2827809,2.1928061 0 0 0 21.4414,7.8979125 Z M 17.9,16.745393 v 0.948784 l -3.599999,1.998806 v -0.89934 z"
     id="path1" />
</svg>
