<?xml version="1.0" encoding="UTF-8" standalone="no"?>
<svg
   width="24"
   height="24"
   version="1.1"
   id="svg1"
   sodipodi:docname="transmission-panel.svg"
   xmlns:inkscape="http://www.inkscape.org/namespaces/inkscape"
   xmlns:sodipodi="http://sodipodi.sourceforge.net/DTD/sodipodi-0.dtd"
   xmlns="http://www.w3.org/2000/svg"
   xmlns:svg="http://www.w3.org/2000/svg">
  <sodipodi:namedview
     id="namedview1"
     pagecolor="#ffffff"
     bordercolor="#000000"
     borderopacity="0.25"
     inkscape:showpageshadow="2"
     inkscape:pageopacity="0.0"
     inkscape:pagecheckerboard="0"
     inkscape:deskcolor="#d1d1d1" />
  <defs
     id="defs1">
    <style
       id="current-color-scheme"
       type="text/css">.ColorScheme-Text {color:#d8dee9} .ColorScheme-Highlight {color:#3b4252}</style>
  </defs>
  <path
     style="fill:currentColor;stroke-width:1.2"
     class="ColorScheme-Text"
     d="M 7.2,2.4000082 C 6.0453576,2.5155762 4.8749395,2.6792396 3.6867187,2.9039146 2.9864035,3.0363334 2.4,3.5362828 2.4,4.3218832 V 6.5132891 C 2.4,7.2988894 2.9832979,7.8147539 3.6867187,7.9312582 4.8729427,8.1281999 6.0434916,8.2837955 7.2,8.4000083 Z m 5.582813,0 c -0.132784,-1.887e-4 -0.266031,0.00128 -0.398437,0.00234 C 11.447202,2.409816 9.3189258,2.4470398 8.4,2.5101646 v 2.2898436 2.4 2.4000002 2.3999996 H 6.2390626 l 5.7609374,6 5.760937,-6 H 15.6 V 9.6000084 7.2000083 4.8000082 2.496102 C 14.650415,2.434151 13.712291,2.40133 12.782813,2.4000082 Z m 4.017187,0 v 6.0000001 c 1.156508,-0.116208 2.327057,-0.2718084 3.513281,-0.46875 C 21.016702,7.8147539 21.6,7.2988894 21.6,6.5132891 V 4.3218832 C 21.6,3.5362828 21.013596,3.0363334 20.313281,2.9039146 19.12506,2.6792396 17.954642,2.5155762 16.8,2.4000082 Z m 3.6,6.5390629 C 19.593847,9.0623675 18.794443,9.1681307 18,9.2578211 V 19.200008 H 6 V 9.3093839 C 5.1913872,9.2125283 4.3909344,9.0915671 3.6,8.9437583 V 20.732821 c 0,0.479986 0.3872018,0.867187 0.8671874,0.867187 H 19.532813 c 0.479985,0 0.867187,-0.387201 0.867187,-0.867187 z"
     id="path1" />
</svg>
