<?xml version="1.0" encoding="UTF-8" standalone="no"?>
<svg
   width="24"
   height="24"
   version="1.1"
   id="svg1"
   sodipodi:docname="tusk-indicator.svg"
   xmlns:inkscape="http://www.inkscape.org/namespaces/inkscape"
   xmlns:sodipodi="http://sodipodi.sourceforge.net/DTD/sodipodi-0.dtd"
   xmlns="http://www.w3.org/2000/svg"
   xmlns:svg="http://www.w3.org/2000/svg">
  <sodipodi:namedview
     id="namedview1"
     pagecolor="#ffffff"
     bordercolor="#000000"
     borderopacity="0.25"
     inkscape:showpageshadow="2"
     inkscape:pageopacity="0.0"
     inkscape:pagecheckerboard="0"
     inkscape:deskcolor="#d1d1d1" />
  <defs
     id="defs1">
    <style
       id="current-color-scheme"
       type="text/css">.ColorScheme-Text {color:#d8dee9} .ColorScheme-Highlight {color:#3b4252}</style>
  </defs>
  <path
     style="fill:currentColor;stroke-width:1.2"
     class="ColorScheme-Text"
     d="M 3.3609372,2.4000001 C 2.8290972,2.4000001 2.4,2.8290977 2.4,3.3609377 V 20.639063 C 2.4,21.170903 2.8290972,21.6 3.3609372,21.6 H 20.639063 C 21.170903,21.6 21.6,21.170903 21.6,20.639063 V 3.3609377 c 0,-0.53184 -0.429097,-0.9609376 -0.960937,-0.9609376 z m 4.8,4.8000001 h 7.6781258 c 0.53184,0 0.960937,0.4290975 0.960937,0.9609375 V 15.839063 C 16.8,16.370903 16.370903,16.8 15.839063,16.8 H 8.1609372 C 7.6290972,16.8 7.2,16.370903 7.2,15.839063 V 8.1609377 c 0,-0.53184 0.4290972,-0.9609375 0.9609372,-0.9609375 z"
     id="path1" />
</svg>
