<?xml version="1.0" encoding="UTF-8" standalone="no"?>
<svg
   width="24"
   height="24"
   version="1.1"
   id="svg1"
   sodipodi:docname="tutanota-desktop-tray.svg"
   xmlns:inkscape="http://www.inkscape.org/namespaces/inkscape"
   xmlns:sodipodi="http://sodipodi.sourceforge.net/DTD/sodipodi-0.dtd"
   xmlns="http://www.w3.org/2000/svg"
   xmlns:svg="http://www.w3.org/2000/svg">
  <sodipodi:namedview
     id="namedview1"
     pagecolor="#ffffff"
     bordercolor="#000000"
     borderopacity="0.25"
     inkscape:showpageshadow="2"
     inkscape:pageopacity="0.0"
     inkscape:pagecheckerboard="0"
     inkscape:deskcolor="#d1d1d1" />
  <defs
     id="defs1">
    <style
       id="current-color-scheme"
       type="text/css">.ColorScheme-Text {color:#d8dee9} .ColorScheme-Highlight {color:#3b4252}</style>
  </defs>
  <path
     style="fill:currentColor;stroke-width:1.2"
     class="ColorScheme-Text"
     d="M 3.8390626,2.4754427 C 3.0413024,2.4754427 2.4,3.1167451 2.4,3.9145053 V 20.23638 c 0,0.03524 0.013942,0.06618 0.016406,0.100776 0.1659428,-0.06844 0.3676877,-0.154615 0.4359374,-0.178126 0.860496,-0.296502 1.5958336,-0.578376 2.9273438,-1.122656 4.1341532,-1.689919 5.7282188,-2.658647 6.7406258,-3.691407 0.561197,-0.572477 0.775559,-1.129618 0.639843,-1.659374 -0.08426,-0.32892 -0.210494,-0.528672 -0.515625,-0.822656 -0.454935,-0.438318 -1.122294,-0.799578 -2.620312,-1.415626 -1.1800518,-0.485283 -1.5750006,-0.730099 -1.5750006,-0.979687 0,-0.151912 0.1724,-0.382421 0.4054688,-0.5390617 0.4803313,-0.3228168 1.3749508,-0.4657548 2.7984388,-0.5601564 2.495707,-0.16551 3.29804,-0.2236092 3.60703,-0.494532 0.09342,-0.081912 0.09944,-0.3129312 0.01176,-0.4289059 -0.07249,-0.095839 -0.08297,-0.146208 -0.04921,-0.15 0.03376,-0.00379 0.110628,0.039065 0.215625,0.13125 0.183372,0.1609999 0.224161,0.3025543 0.142969,0.4968751 -0.18431,0.44112 -1.04642,0.6325308 -2.7,0.7523436 -1.594075,0.1155 -2.572602,0.2765244 -2.489063,0.6093753 0.05544,0.220907 0.505327,0.369399 2.320313,0.76875 2.92156,0.642828 4.523894,1.055769 5.742187,1.664062 1.492474,0.74519 2.435791,1.874789 2.985939,3.576563 L 21.6,16.683255 V 3.9145053 C 21.6,3.1167451 20.958697,2.4754427 20.160937,2.4754427 Z M 2.4234374,20.395755 c 0.010284,0.09133 0.015746,0.184281 0.042187,0.269531 0.011892,0.03835 0.03822,0.06912 0.058594,0.103128 -0.047134,-0.118032 -0.085948,-0.241431 -0.1007808,-0.372656 z"
     id="path1" />
</svg>
