<?xml version="1.0" encoding="UTF-8" standalone="no"?>
<svg
   width="24"
   height="24"
   version="1.1"
   id="svg2"
   sodipodi:docname="tvdisconnected.svg"
   xmlns:inkscape="http://www.inkscape.org/namespaces/inkscape"
   xmlns:sodipodi="http://sodipodi.sourceforge.net/DTD/sodipodi-0.dtd"
   xmlns="http://www.w3.org/2000/svg"
   xmlns:svg="http://www.w3.org/2000/svg">
  <sodipodi:namedview
     id="namedview2"
     pagecolor="#ffffff"
     bordercolor="#000000"
     borderopacity="0.25"
     inkscape:showpageshadow="2"
     inkscape:pageopacity="0.0"
     inkscape:pagecheckerboard="0"
     inkscape:deskcolor="#d1d1d1" />
  <defs
     id="defs1">
    <style
       id="current-color-scheme"
       type="text/css">.ColorScheme-Text {color:#d8dee9} .ColorScheme-Highlight {color:#3b4252}</style>
  </defs>
  <path
     style="opacity:0.35;fill:currentColor;stroke-width:1.2"
     class="ColorScheme-Text"
     d="M 3.2609374,4.6 C 2.7290974,4.6 2.3,5.0290974 2.3,5.5609374 V 18.039063 C 2.3,18.570903 2.7290976,19 3.2609374,19 H 7.1 v 0.239063 C 7.1,19.770903 7.5290974,20.2 8.0609374,20.2 H 15.5 c 0,-0.620296 0.22631,-1.226192 0.665626,-1.689844 l 0.0094,-0.01176 0.100776,-0.09844 -0.08906,-0.08672 C 15.719304,17.845866 15.5,17.221714 15.5,16.6 H 4.7 V 7 h 14.4 v 7.502344 c 0.18474,0.101736 0.357511,0.22857 0.513281,0.384375 l 0.0024,0.0024 0.08437,0.08671 0.08437,-0.08671 0.0024,-0.0024 C 20.269848,14.40359 20.879704,14.2 21.5,14.2 V 5.5609374 C 21.5,5.0290976 21.070903,4.6 20.539063,4.6 Z"
     id="path1" />
  <path
     style="fill:currentColor;stroke-width:1.2"
     class="ColorScheme-Text"
     d="m 16.7,15.4 v 1.2 c 0,0.336 0.12,0.648 0.336,0.864 l 0.936,0.936 -0.936,0.936 C 16.82,19.564 16.7,19.876 16.7,20.2 v 1.2 h 1.2 c 0.336,0 0.648,-0.12 0.864,-0.336 l 0.936,-0.936 0.936,0.936 c 0.216,0.216 0.54,0.336 0.864,0.336 h 1.2 v -1.2 c 0,-0.324 -0.12,-0.636 -0.336,-0.864 L 21.428,18.4 22.364,17.464 C 22.58,17.248 22.7,16.936 22.7,16.6 v -1.2 h -1.2 c -0.324,0 -0.648,0.12 -0.864,0.336 L 19.7,16.684 18.764,15.736 C 18.548,15.52 18.236,15.4 17.9,15.4 Z"
     id="path2" />
</svg>
