<?xml version="1.0" encoding="UTF-8" standalone="no"?>
<svg
   width="24"
   height="24"
   version="1.1"
   id="svg1"
   sodipodi:docname="ulauncher-indicator.svg"
   xmlns:inkscape="http://www.inkscape.org/namespaces/inkscape"
   xmlns:sodipodi="http://sodipodi.sourceforge.net/DTD/sodipodi-0.dtd"
   xmlns="http://www.w3.org/2000/svg"
   xmlns:svg="http://www.w3.org/2000/svg">
  <sodipodi:namedview
     id="namedview1"
     pagecolor="#ffffff"
     bordercolor="#000000"
     borderopacity="0.25"
     inkscape:showpageshadow="2"
     inkscape:pageopacity="0.0"
     inkscape:pagecheckerboard="0"
     inkscape:deskcolor="#d1d1d1" />
  <defs
     id="defs1">
    <style
       id="current-color-scheme"
       type="text/css">.ColorScheme-Text {color:#d8dee9} .ColorScheme-Highlight {color:#3b4252}</style>
  </defs>
  <g
     id="MPATH5"
     transform="matrix(0.35332121,0,0,0.3686551,3.6987178,3.3117217)"
     style="">
    <path
       style="fill:currentColor;stroke-width:3.32496"
       class="ColorScheme-Text"
       d="M 47.269402,-2.4731021 33.68403,3.0897703 v 2.2887246 1.2142953 c 8.5e-5,0.017154 0,0.033687 0,0.050861 v 18.9519108 3.827256 c 0,2.931182 -0.860504,5.557429 -2.81923,7.444715 -1.902316,1.831663 -4.488228,2.97534 -7.369799,2.97534 -5.853786,0 -10.189029,-4.649458 -10.189029,-10.420055 V 26.212246 12.740559 l -13.5853717,5.791745 v 7.934245 c 0,3.408001 0.4611979,6.528382 1.3863977,9.351984 0.9180003,2.823598 2.342363,5.252128 4.2719627,7.292129 1.6344003,1.731599 3.6508689,3.138185 6.0364693,4.227783 l 0.45771,0.13987 c 0.266314,0.143256 0.530215,0.286219 0.842452,0.406885 2.9652,1.145998 6.491937,1.722898 10.567138,1.722898 l -0.0066,-0.0127 c 4.1436,0 7.719208,-0.555199 10.739606,-1.678398 3.021601,-1.114801 5.500666,-2.688832 7.462669,-4.730031 1.953601,-2.034002 3.415631,-4.482678 4.364831,-7.330276 0.9492,-2.847601 1.419566,-5.982486 1.419566,-9.396487 v -0.591254 c 1.73e-4,-0.0089 0.0066,-0.01654 0.0066,-0.02545 z"
       id="path1" />
  </g>
</svg>
