<?xml version="1.0" encoding="UTF-8" standalone="no"?>
<svg
   width="24"
   height="24"
   version="1.1"
   id="svg1"
   sodipodi:docname="update-low.svg"
   xmlns:inkscape="http://www.inkscape.org/namespaces/inkscape"
   xmlns:sodipodi="http://sodipodi.sourceforge.net/DTD/sodipodi-0.dtd"
   xmlns="http://www.w3.org/2000/svg"
   xmlns:svg="http://www.w3.org/2000/svg">
  <sodipodi:namedview
     id="namedview1"
     pagecolor="#ffffff"
     bordercolor="#000000"
     borderopacity="0.25"
     inkscape:showpageshadow="2"
     inkscape:pageopacity="0.0"
     inkscape:pagecheckerboard="0"
     inkscape:deskcolor="#d1d1d1" />
  <defs
     id="defs1">
    <style
       id="current-color-scheme"
       type="text/css">.ColorScheme-Text {color:#d8dee9} .ColorScheme-Highlight {color:#3b4252}</style>
  </defs>
  <circle
     style="fill:currentColor;stroke-width:1.2"
     class="ColorScheme-Text"
     cx="22.5"
     cy="20.299999"
     r="2.4000001"
     id="circle1" />
  <path
     style="fill:currentColor;stroke-width:1.2"
     class="ColorScheme-Text"
     d="m 11.7,2.3 c -5.30196,0 -9.6,4.29804 -9.6,9.6 0,5.3016 4.29804,9.6 9.6,9.6 5.3016,0 9.6,-4.2984 9.6,-9.6 0,-5.30196 -4.2984,-9.6 -9.6,-9.6 z m 0,2.4 c 1.794925,0 3.586909,0.6721932 4.978126,2.00625 -0.444844,0.1725888 -0.856323,0.4535604 -1.171876,0.9 L 14.953126,8.3914064 C 13.070516,6.6462548 10.136969,6.6755312 8.30625,8.5062464 7.3691584,9.4433384 6.9048112,10.671698 6.9046874,11.899996 h 0.35625 A 0.83908459,0.68963652 1.1588047e-6 0 1 7.9875,12.93359 l -0.7804687,1.110937 -0.7828126,1.110939 a 0.83908459,0.68963652 1.1588047e-6 0 1 -1.4507813,0 L 4.1929687,14.044531 3.4125,12.933594 a 0.83908459,0.68963652 1.1588047e-6 0 1 0.478125,-1.003125 0.83908459,0.68963652 1.1588047e-6 0 1 0.2460937,-0.03047 h 0.365625 C 4.5024284,10.057419 5.2036364,8.2151156 6.609375,6.8093768 8.0152694,5.403482 9.8573628,4.7000012 11.7,4.7 Z m 5.955469,3.6023436 a 0.83908459,0.68963652 1.1588047e-6 0 1 0.771094,0.3421872 l 0.780468,1.1109384 0.780469,1.1109368 a 0.83908459,0.68963652 1.1588047e-6 0 1 -0.478126,1.003125 0.83908459,0.68963652 1.1588047e-6 0 1 -0.246093,0.03047 h -0.365625 c -8.5e-5,1.842582 -0.701294,3.684882 -2.10703,5.090625 -1.405895,1.405892 -3.247989,2.109375 -5.090626,2.109375 -1.7938908,0 -3.5849075,-0.671389 -4.9757813,-2.003907 0.4364784,-0.169134 0.8499061,-0.448171 1.1695313,-0.9 v -0.0024 l 0.553125,-0.785156 c 1.882607,1.745152 4.816156,1.715875 6.646875,-0.11484 0.937092,-0.937039 1.401439,-2.165398 1.401563,-3.393697 h -0.35625 A 0.83908459,0.68963652 1.1588047e-6 0 1 15.4125,10.866406 l 0.780469,-1.1109368 0.782812,-1.1109384 a 0.83908459,0.68963652 1.1588047e-6 0 1 0.679688,-0.3421872 z"
     id="path1" />
</svg>
