<?xml version="1.0" encoding="UTF-8" standalone="no"?>
<svg
   width="24"
   height="24"
   version="1.1"
   id="svg2"
   sodipodi:docname="user-status-pending.svg"
   xmlns:inkscape="http://www.inkscape.org/namespaces/inkscape"
   xmlns:sodipodi="http://sodipodi.sourceforge.net/DTD/sodipodi-0.dtd"
   xmlns="http://www.w3.org/2000/svg"
   xmlns:svg="http://www.w3.org/2000/svg">
  <sodipodi:namedview
     id="namedview2"
     pagecolor="#ffffff"
     bordercolor="#000000"
     borderopacity="0.25"
     inkscape:showpageshadow="2"
     inkscape:pageopacity="0.0"
     inkscape:pagecheckerboard="0"
     inkscape:deskcolor="#d1d1d1" />
  <defs
     id="defs1">
    <style
       id="current-color-scheme"
       type="text/css">.ColorScheme-Text {color:#d8dee9} .ColorScheme-Highlight {color:#3b4252}</style>
  </defs>
  <g
     transform="translate(-200 -816.36)"
     style=""
     id="g2">
    <path
       opacity="0.35"
       style="fill:currentColor;stroke-width:1.2"
       class="ColorScheme-Text"
       d="m 218,821.06 c 0,0 2.4,0 2.4,2.4 h -16.8 c 0,-2.4 2.36256,-2.4 2.36256,-2.4 z m 2.4,9.6 c 0,2.4 -2.4,2.4 -2.4,2.4 h -1.2 l -2.4,3.6 -2.4,-3.6 h -6 c -1.3296,0 -2.4,-1.0704 -2.4,-2.4 z"
       id="path1" />
    <path
       style="fill:currentColor;stroke-width:1.2"
       class="ColorScheme-Text"
       d="m 206,824.66 c -1.3296,0 -2.4,1.0704 -2.4,2.4 0,1.3296 1.0704,2.4 2.4,2.4 1.3296,0 2.4,-1.0704 2.4,-2.4 0,-1.3296 -1.0704,-2.4 -2.4,-2.4 z m 6,0 c -1.3296,0 -2.4,1.0704 -2.4,2.4 0,1.3296 1.0704,2.4 2.4,2.4 1.3296,0 2.4,-1.0704 2.4,-2.4 0,-1.3296 -1.0704,-2.4 -2.4,-2.4 z m 6,0 c -1.3296,0 -2.4,1.0704 -2.4,2.4 0,1.3296 1.0704,2.4 2.4,2.4 1.3296,0 2.4,-1.0704 2.4,-2.4 0,-1.3296 -1.0704,-2.4 -2.4,-2.4 z"
       id="path2" />
  </g>
</svg>
