<?xml version="1.0" encoding="UTF-8" standalone="no"?>
<svg
   width="24"
   height="24"
   version="1.1"
   id="svg1"
   sodipodi:docname="utools-tray.svg"
   xmlns:inkscape="http://www.inkscape.org/namespaces/inkscape"
   xmlns:sodipodi="http://sodipodi.sourceforge.net/DTD/sodipodi-0.dtd"
   xmlns="http://www.w3.org/2000/svg"
   xmlns:svg="http://www.w3.org/2000/svg">
  <sodipodi:namedview
     id="namedview1"
     pagecolor="#ffffff"
     bordercolor="#000000"
     borderopacity="0.25"
     inkscape:showpageshadow="2"
     inkscape:pageopacity="0.0"
     inkscape:pagecheckerboard="0"
     inkscape:deskcolor="#d1d1d1" />
  <defs
     id="defs1">
    <style
       id="current-color-scheme"
       type="text/css">.ColorScheme-Text {color:#d8dee9} .ColorScheme-Highlight {color:#3b4252}</style>
  </defs>
  <path
     style="fill:currentColor;stroke-width:1.2"
     class="ColorScheme-Text"
     d="M 12,2.4 A 9.6,9.6 0 0 0 2.4,12 9.6,9.6 0 0 0 12,21.6 9.6,9.6 0 0 0 21.6,12 9.6,9.6 0 0 0 12,2.4 Z M 7.7718744,6.0234374 C 8.170248,6.0044678 8.54124,6.1195646 8.8921872,6.31875 9.5751132,6.698154 10.248104,7.1047406 10.95,7.4367187 c 0.569105,0.2750674 0.551377,0.5303019 0.0961,0.88125 C 10.334714,8.8681033 9.5765472,8.9743753 8.7703152,8.5570309 8.0020236,8.1586582 7.2604812,7.703732 6.4921896,7.3148437 6.036906,7.0872017 6.0946968,6.8775209 6.4171896,6.5929687 6.8060772,6.2420206 7.2501984,6.0329225 7.7718768,6.0234374 Z m 8.5874996,0.3820313 c 0.411417,0.030826 0.799998,0.1935742 1.13672,0.478125 0.34146,0.294037 0.462866,0.5124327 -0.03984,0.7875 C 16.118854,8.4204145 14.80213,9.2161933 13.474218,9.975 12.829232,10.354406 12.146207,10.375277 11.463281,10.01484 11.21667,9.8251392 10.82802,9.6816336 10.8375,9.3117157 10.84698,9.0081925 11.23564,8.9616937 11.463281,8.8289029 12.6584,8.1175224 13.863254,7.4047975 15.077344,6.7218713 15.513658,6.4752588 15.947962,6.3746394 16.359374,6.4054651 Z m 3.072657,2.8007814 c 0.150623,0.01482 0.22422,0.1738572 0.269532,0.4406255 0.09062,0.5121934 0.04547,0.9977304 -0.199219,1.4624984 -0.181251,0.341464 -0.452188,0.597689 -0.7875,0.796876 -0.6525,0.388889 -1.305938,0.756655 -1.93125,1.192968 -0.5075,0.350948 -0.705318,0.201137 -0.76875,-0.367968 -0.09968,-0.891598 0.180001,-1.604762 0.914062,-2.069531 0.706876,-0.455285 1.442032,-0.8524186 2.139844,-1.3171881 0.156329,-0.103152 0.272897,-0.1471728 0.363281,-0.1382808 z m -14.320313,0.16875 c 0.099312,-0.01878 0.235704,0.018636 0.4242192,0.1289064 1.3279116,0.7682915 2.6821356,1.4794735 4.0195308,2.2382805 0.65447,0.369918 1.014406,0.940193 1.052345,1.717969 -0.03794,0.313008 0.03878,0.719783 -0.274219,0.9 C 10.068012,14.511917 9.8300952,14.199978 9.592968,14.067187 8.3693928,13.403232 7.13898,12.739286 5.9343744,12.046874 5.0617476,11.544166 4.6810512,10.746846 4.8328128,9.8742192 4.8802368,9.5955949 4.9461888,9.4063057 5.111718,9.3750001 Z M 15.117187,12 c 0.0913,-0.0016 0.183444,0.0155 0.274219,0.06094 0.297099,0.153043 0.12021,0.526705 0.13125,0.794531 0.04402,1.406085 0.07734,2.812667 0.07734,4.218751 -0.01104,1.004347 -0.594243,1.721066 -1.551562,2.036718 -0.484161,0.153043 -0.78047,0.161604 -0.78047,-0.421874 0.01104,-1.549564 -0.05696,-3.098285 -0.06797,-4.638282 -0.01104,-0.755654 0.365747,-1.358037 1.125,-1.778907 0.247583,-0.09326 0.5183,-0.267362 0.792188,-0.271874 z m -6.2812498,2.404687 c 0.109188,0.01044 0.2383152,0.04198 0.3890628,0.09376 0.936786,0.324151 1.47473,0.900442 1.507031,1.764844 0.0323,0.819381 0.01176,1.648587 0.06563,2.467969 0.0323,0.486229 -0.204958,0.540532 -0.667968,0.405469 C 9.5697732,18.974644 9.1177344,18.713452 8.8054716,18.28125 8.5578156,17.957099 8.4585972,17.604367 8.4585972,17.217187 c 0,-0.738345 0.013044,-1.485873 -0.051564,-2.224218 -0.04038,-0.452461 0.101328,-0.619515 0.4289064,-0.588282 z"
     id="path1" />
</svg>
