<?xml version="1.0" encoding="UTF-8" standalone="no"?>
<svg
   width="24"
   height="24"
   version="1.1"
   id="svg1"
   sodipodi:docname="variety-indicator.svg"
   xmlns:inkscape="http://www.inkscape.org/namespaces/inkscape"
   xmlns:sodipodi="http://sodipodi.sourceforge.net/DTD/sodipodi-0.dtd"
   xmlns="http://www.w3.org/2000/svg"
   xmlns:svg="http://www.w3.org/2000/svg">
  <sodipodi:namedview
     id="namedview1"
     pagecolor="#ffffff"
     bordercolor="#000000"
     borderopacity="0.25"
     inkscape:showpageshadow="2"
     inkscape:pageopacity="0.0"
     inkscape:pagecheckerboard="0"
     inkscape:deskcolor="#d1d1d1" />
  <defs
     id="defs1">
    <style
       id="current-color-scheme"
       type="text/css">.ColorScheme-Text {color:#d8dee9} .ColorScheme-Highlight {color:#3b4252}</style>
  </defs>
  <path
     style="fill:currentColor;stroke-width:1.2"
     class="ColorScheme-Text"
     d="M 3.6,4.7 C 2.4,4.7 2.4,5.9 2.4,5.9 v 10.728 3.264 c 0.258,0.276 0.6564,0.42 1.05,0.372 0.054,0 0.0948,0.036 0.15,0.036 h 16.8 c 0.6648,0 1.2,-0.54 1.2,-1.2 V 5.9 c 0,-0.66 -0.5352,-1.2 -1.2,-1.2 h -3.4872 -1.2756 z m 0,1.2 H 16.0872 17.3628 20.4 v 8.4 1.308 2.292 H 14.9244 3.6 v -0.192 z m 9.6,1.2 c -0.6624,0 -1.2,0.54 -1.2,1.2 0,0.66 0.5376,1.2 1.2,1.2 0.6624,0 1.2,-0.54 1.2,-1.2 0,-0.66 -0.5376,-1.2 -1.2,-1.2 z m -4.8,3.6 c -1.8,0 -3.6,2.4 -3.6,5.436 V 16.7 h 14.4 c 0,0 -1.2,-4.8 -3,-4.8 -1.8,0 -1.8,2.4 -3,2.4 -1.2,0 -3,-3.6 -4.8,-3.6 z"
     id="path1" />
</svg>
