<?xml version="1.0" encoding="UTF-8" standalone="no"?>
<svg
   width="24"
   height="24"
   version="1.1"
   id="svg1"
   sodipodi:docname="viber-normal.svg"
   xmlns:inkscape="http://www.inkscape.org/namespaces/inkscape"
   xmlns:sodipodi="http://sodipodi.sourceforge.net/DTD/sodipodi-0.dtd"
   xmlns="http://www.w3.org/2000/svg"
   xmlns:svg="http://www.w3.org/2000/svg">
  <sodipodi:namedview
     id="namedview1"
     pagecolor="#ffffff"
     bordercolor="#000000"
     borderopacity="0.25"
     inkscape:showpageshadow="2"
     inkscape:pageopacity="0.0"
     inkscape:pagecheckerboard="0"
     inkscape:deskcolor="#d1d1d1" />
  <defs
     id="defs1">
    <style
       id="current-color-scheme"
       type="text/css">.ColorScheme-Text {color:#d8dee9} .ColorScheme-Highlight {color:#3b4252}</style>
  </defs>
  <path
     style="fill:currentColor;stroke-width:1.2"
     class="ColorScheme-Text"
     d="m 12.638381,2.4045266 c -0.5172,-0.01536 -0.6216,0.00252 -0.7704,0.13596 -0.2448,0.21336 -0.2328,0.67236 0.0204,0.86712 0.1368,0.10188 0.2412,0.12552 0.8436,0.15948 1.7832,0.10176 3.1464,0.57288 4.4628,1.53984 1.5792,1.15596 2.5692,2.76648 2.9436,4.78344 0.096,0.5148004 0.144,0.9444004 0.1764,1.6104004 0.0192,0.4344 0.0336,0.5304 0.0912,0.642 0.1812,0.3384 0.7104,0.3876 0.9516,0.0864 0.1272,-0.1548 0.1416,-0.2748 0.1188,-0.8172 -0.06,-1.5900004 -0.4128,-3.0346804 -1.0308,-4.2495604 -0.444,-0.87072 -0.8604,-1.4322 -1.6152,-2.17272 -0.8052,-0.7842 -1.4148,-1.21356 -2.3664,-1.66872 -0.9684,-0.46164 -1.8504,-0.71976 -2.9412,-0.8532 -0.216,-0.02496 -0.6144,-0.05436 -0.8844,-0.06324 z m -6.7704,0.31872 c -0.14388,-0.01308 -0.38904,0.00936 -0.38904,0.00936 -0.30156,0.06228 -0.67956,0.28164 -1.4976,0.8766 -0.4914,0.35976 -1.16568,1.00536 -1.3242,1.26564 -0.3678,0.6168 -0.34704,1.14072 0.1008,2.34612 0.768,2.067 1.89012,4.0590004 3.36552,5.9814004 2.82372,3.678 6.38052,6.3528 10.83492,8.1468 0.5676,0.2292 0.7524,0.2676 1.1976,0.246 0.5388,-0.0252 0.948,-0.1884 1.5252,-0.6168 0.6384,-0.4728 1.5516,-1.5828 1.7868,-2.1744 0.222,-0.5616 0.1632,-1.0704 -0.1668,-1.4676 -0.1872,-0.2196 -1.5708,-1.3236 -2.2176,-1.7664 -0.4908,-0.3348 -1.2516,-0.7956 -1.6008,-0.9732 -0.4596,-0.2292 -0.918,-0.2688 -1.3656,-0.12 -0.3528,0.1188 -0.468,0.2196 -0.9828,0.8508 -0.2664,0.3228 -0.7944,0.7788 -0.7944,0.7788 -0.4152,0.1896 -0.984,0.0756 -1.9128,-0.378 -0.7236,-0.3492 -1.3644,-0.792 -2.0904,-1.4436 -0.618,-0.5508 -1.24152,-1.272 -1.59072,-1.8324 -0.45036,-0.7224 -0.79368,-1.6596 -0.79692,-2.178 0,-0.2232 0.20628,-0.7004404 0.20628,-0.7004404 l 0.62808,-0.5484 c 0.75168,-0.59184 0.91968,-0.7764 1.02168,-1.12968 0.0984,-0.32808 -0.0072,-0.7728 -0.321,-1.371 -0.54876,-1.04772 -2.22576,-3.14388 -2.82876,-3.53436 -0.09852,-0.06228 -0.2712,-0.14796 -0.38196,-0.18516 -0.11436,-0.04044 -0.2616,-0.06888 -0.40548,-0.08208 z m 7.0656,1.94772 c -0.1788,0.02748 -0.2832,0.09972 -0.3648,0.225 h -0.0024 c -0.1524,0.22632 -0.1344,0.49944 0.0468,0.7008 0.1164,0.13332 0.288,0.19524 0.6,0.22032 0.8604,0.0678 1.8024,0.34296 2.442,0.71484 0.7416,0.4308 1.3512,1.04976 1.7688,1.79988 0.3684,0.65724 0.582,1.50336 0.582,2.3061604 0,0.5208 0.072,0.7116 0.3168,0.8328 0.1452,0.0744 0.4104,0.0804 0.534,0.018 0.114,-0.0588 0.2472,-0.1992 0.288,-0.3048 0.0444,-0.1116 0.0432,-0.7848 0.0024,-1.1532 -0.1176,-1.0070404 -0.4584,-1.9471204 -1.008,-2.7465604 -0.9768,-1.4196 -2.4684,-2.29224 -4.3944,-2.56872 -0.3792,-0.0558 -0.6324,-0.072 -0.8112,-0.04452 z m 0.6732,2.31792 c -0.0612,0.00696 -0.1032,0.02244 -0.1644,0.0516 -0.3204,0.16092 -0.4092,0.59796 -0.1776,0.86712 0.126,0.14544 0.2448,0.18828 0.6348,0.23436 0.8316,0.09936 1.3212,0.40296 1.6008,0.98904 0.1296,0.27564 0.2076,0.57456 0.2484,0.9981604 0.0348,0.3192 0.0828,0.4368 0.234,0.5484 0.21,0.1584 0.5544,0.1512 0.7416,-0.0156 0.1992,-0.18 0.2352,-0.396 0.1488,-0.9468004 -0.126,-0.84624 -0.414,-1.43664 -0.942,-1.9224 -0.4092,-0.375 -0.8892,-0.60804 -1.5132,-0.73824 -0.1296,-0.02736 -0.372,-0.05424 -0.5376,-0.06324 0,0 -0.2136,-0.00924 -0.2736,-0.0024 z"
     id="path1" />
</svg>
