<?xml version="1.0" encoding="UTF-8" standalone="no"?>
<svg
   width="24"
   height="24"
   version="1.1"
   id="svg2"
   sodipodi:docname="virt-manager-panel.svg"
   xmlns:inkscape="http://www.inkscape.org/namespaces/inkscape"
   xmlns:sodipodi="http://sodipodi.sourceforge.net/DTD/sodipodi-0.dtd"
   xmlns="http://www.w3.org/2000/svg"
   xmlns:svg="http://www.w3.org/2000/svg">
  <sodipodi:namedview
     id="namedview2"
     pagecolor="#ffffff"
     bordercolor="#000000"
     borderopacity="0.25"
     inkscape:showpageshadow="2"
     inkscape:pageopacity="0.0"
     inkscape:pagecheckerboard="0"
     inkscape:deskcolor="#d1d1d1" />
  <defs
     id="defs1">
    <style
       id="current-color-scheme"
       type="text/css">.ColorScheme-Text {color:#d8dee9} .ColorScheme-Highlight {color:#3b4252}</style>
  </defs>
  <path
     style="fill:currentColor;stroke-width:1.2"
     class="ColorScheme-Text"
     d="m -1.2,7.2 3.6421874,9.6 H 5.1726563 L 8.8148437,7.2 H 6.0820313 L 3.80625,12.960937 1.5304687,7.2 Z m 12.745313,0 2.275781,6 L 15.1875,9.6 14.275781,7.2 Z m 7.282031,0 3.642187,9.6 H 25.2 L 21.557813,7.2 Z M 10.178906,11.039063 7.903125,16.8 h 2.730469 l 0.911719,-2.303906 z m 7.282031,0 L 15.185156,16.8 h 0.0024 2.73047 L 18.8274,14.496094 Z"
     id="path1" />
  <path
     style="opacity:0.35;fill:currentColor;stroke-width:1.2"
     class="ColorScheme-Text"
     d="M 8.8148437,7.2 5.1726563,16.8 H 7.903125 L 10.178906,11.039063 12.454687,16.8 h 2.730469 L 17.460937,11.039063 19.739063,16.8 h 2.730468 L 18.827344,7.2 h -2.73047 l -2.27578,6 -2.275781,-6 z"
     id="path2" />
</svg>
