<?xml version="1.0" encoding="UTF-8" standalone="no"?>
<svg
   width="24"
   height="24"
   version="1.1"
   id="svg1"
   sodipodi:docname="vk-tray.svg"
   xmlns:inkscape="http://www.inkscape.org/namespaces/inkscape"
   xmlns:sodipodi="http://sodipodi.sourceforge.net/DTD/sodipodi-0.dtd"
   xmlns="http://www.w3.org/2000/svg"
   xmlns:svg="http://www.w3.org/2000/svg">
  <sodipodi:namedview
     id="namedview1"
     pagecolor="#ffffff"
     bordercolor="#000000"
     borderopacity="0.25"
     inkscape:showpageshadow="2"
     inkscape:pageopacity="0.0"
     inkscape:pagecheckerboard="0"
     inkscape:deskcolor="#d1d1d1" />
  <defs
     id="defs1">
    <style
       id="current-color-scheme"
       type="text/css">.ColorScheme-Text {color:#d8dee9} .ColorScheme-Highlight {color:#3b4252}</style>
  </defs>
  <path
     style="fill:currentColor;stroke-width:1.2"
     class="ColorScheme-Text"
     d="m 11.836355,20.2347 h 1.577995 c 0,0 0.476531,-0.05431 0.720179,-0.325313 0.223943,-0.249094 0.216791,-0.716536 0.216791,-0.716536 0,0 -0.03088,-2.188877 0.95167,-2.511173 0.968973,-0.317718 2.093326,2.11534 3.411762,3.051087 0.997005,0.707803 1.754636,0.552871 1.754636,0.552871 l 3.52559,-0.05093 c 0,0 1.844156,-0.117636 0.969695,-1.616746 -0.07158,-0.122433 -0.509436,-1.10884 -2.621394,-3.135516 -2.211594,-2.11989 -1.915195,-2.974995 0.747599,-6.643959 1.622395,-2.2345081 2.270392,-3.1191006 2.067594,-3.7033282 -0.1932,-0.556681 -1.385997,-0.409606 -1.385997,-0.409606 l -3.96959,0.025378 c 0,0 -0.294503,-0.041425 -0.512591,0.093515 -0.213347,0.1319424 -0.350279,0.4402489 -0.350279,0.4402489 0,0 -0.628511,1.2495249 -1.466156,2.7202738 C 15.706264,11.10779 15.118934,12.469633 14.829974,12.276686 14.157761,11.827604 14.4,10.472985 14.4,9.5102912 14.4,6.5031609 14.76694,5.2494316 13.466586,4.9248607 13.035151,4.8172308 12.717308,4.7460163 11.613791,4.734387 10.197316,4.7194765 9.2384985,4.7388181 8.5596602,5.0826597 8.1080534,5.3112843 7.7596224,5.8206451 7.9719498,5.8499527 c 0.2624393,0.03612 0.8564617,0.1657824 1.171425,0.6088153 0.4068949,0.5722867 0.4566249,1.8570004 0.4566249,1.8570004 0,0 0.1698579,3.5397356 -0.6098286,3.9794026 C 8.4551766,12.596746 7.3618455,10.783461 5.7858897,7.9683585 4.9786039,6.5264742 4.3688136,5.4117681 4.3688136,5.4117681 c 0,0 -0.1174188,-0.2978267 -0.3271431,-0.4572618 C 3.7882311,4.7613212 3.432792,4.7 3.432792,4.7 l -3.77231007,0.025462 c 0,0 -0.56613444,0.016348 -0.77420193,0.270915 -0.1850875,0.2266127 -0.014796,0.694725 -0.014796,0.694725 0,0 2.9530722,7.860828 6.2971033,11.46045 3.066592,3.30056 6.6677317,3.083901 6.6677317,3.083901"
     id="path1" />
</svg>
