<?xml version="1.0" encoding="UTF-8" standalone="no"?>
<svg
   width="24"
   height="24"
   version="1.1"
   id="svg2"
   sodipodi:docname="vorta-tray-active.svg"
   xmlns:inkscape="http://www.inkscape.org/namespaces/inkscape"
   xmlns:sodipodi="http://sodipodi.sourceforge.net/DTD/sodipodi-0.dtd"
   xmlns="http://www.w3.org/2000/svg"
   xmlns:svg="http://www.w3.org/2000/svg">
  <sodipodi:namedview
     id="namedview2"
     pagecolor="#ffffff"
     bordercolor="#000000"
     borderopacity="0.25"
     inkscape:showpageshadow="2"
     inkscape:pageopacity="0.0"
     inkscape:pagecheckerboard="0"
     inkscape:deskcolor="#d1d1d1" />
  <defs
     id="defs1">
    <style
       id="current-color-scheme"
       type="text/css">.ColorScheme-Text {color:#d8dee9} .ColorScheme-Highlight {color:#3b4252}</style>
  </defs>
  <path
     style="fill:currentColor;stroke-width:1.2"
     class="ColorScheme-Text"
     d="M 7.9382813,3.7 C 6.8970197,3.7 6.4560736,3.71607 6.1171874,4.3 L 1.2140626,11.830469 C 1.8523472,11.258693 2.6849004,10.9 3.6,10.9 h 8.4 8.4 c 0.9151,0 1.747652,0.358693 2.385937,0.930469 L 17.882813,4.3 C 17.543927,3.7160698 17.102981,3.7 16.061719,3.7 H 12 Z M 3.6,12.1 c -1.3296,0 -2.4,1.0704 -2.4,2.4 v 2.4 c 0,1.3296 1.0704,2.4 2.4,2.4 h 16.8 c 1.3296,0 2.4,-1.0704 2.4,-2.4 v -2.4 c 0,-1.3296 -1.0704,-2.4 -2.4,-2.4 z m 12,1.2 A 2.4,2.4 0 0 1 17.4,14.115626 2.4,2.4 0 0 1 19.2,13.3 2.4,2.4 0 0 1 21.6,15.7 2.4,2.4 0 0 1 19.2,18.1 2.4,2.4 0 0 1 17.4,17.284374 2.4,2.4 0 0 1 15.6,18.1 2.4,2.4 0 0 1 13.2,15.7 2.4,2.4 0 0 1 15.6,13.3 Z"
     id="path1" />
  <path
     style="fill:currentColor;stroke-width:1.2"
     class="ColorScheme-Text"
     d="m 15.6,14.5 a 1.2,1.2 0 0 0 -1.2,1.2 1.2,1.2 0 0 0 1.2,1.2 1.2,1.2 0 0 0 1.2,-1.2 1.2,1.2 0 0 0 -1.2,-1.2 z m 3.6,0 a 1.2,1.2 0 0 0 -1.2,1.2 1.2,1.2 0 0 0 1.2,1.2 1.2,1.2 0 0 0 1.2,-1.2 1.2,1.2 0 0 0 -1.2,-1.2 z"
     id="path2" />
</svg>
