<?xml version="1.0" encoding="UTF-8" standalone="no"?>
<svg
   width="24"
   height="24"
   version="1.1"
   id="svg2"
   sodipodi:docname="wallet-closed.svg"
   xmlns:inkscape="http://www.inkscape.org/namespaces/inkscape"
   xmlns:sodipodi="http://sodipodi.sourceforge.net/DTD/sodipodi-0.dtd"
   xmlns="http://www.w3.org/2000/svg"
   xmlns:svg="http://www.w3.org/2000/svg">
  <sodipodi:namedview
     id="namedview2"
     pagecolor="#ffffff"
     bordercolor="#000000"
     borderopacity="0.25"
     inkscape:showpageshadow="2"
     inkscape:pageopacity="0.0"
     inkscape:pagecheckerboard="0"
     inkscape:deskcolor="#d1d1d1" />
  <defs
     id="defs1">
    <style
       id="current-color-scheme"
       type="text/css">.ColorScheme-Text {color:#d8dee9} .ColorScheme-Highlight {color:#3b4252}</style>
  </defs>
  <path
     d="m 15.2,10.5 c 1.048183,0 1.8,0.740179 1.8,1.8 0,1.059821 -0.761192,1.8 -1.8,1.8 -1.038808,0 -1.8,-0.756505 -1.8,-1.8 0,-1.043495 0.751817,-1.8 1.8,-1.8 z m 0,-1.2 c -1.6602,0 -3,1.348446 -3,3 0,1.651554 1.3398,3 3,3 h 5.4 v -6 z M 20,18.9 H 8.6 V 15.3 H 7.4 C 7.4,13.31596 5.7745694,11.7 3.8,11.7 H 2.6 V 7.5 C 2.6,6.4546874 3.359375,5.7 4.4,5.7 H 20 c 1.040626,0.051563 1.8,0.7546874 1.8,1.8 v 9.6 c 0,1.040773 -0.752598,1.8 -1.8,1.8 z"
     style="fill:currentColor;stroke-width:1.2"
     class="ColorScheme-Text"
     id="path1" />
  <path
     d="m 3.8,12.9 c -1.3296,0 -2.4,1.0935 -2.4,2.4375 V 16.5 H 0.2 v 4.8 H 7.4 V 16.5 H 6.2 V 15.3375 C 6.2,13.9935 5.1296,12.9 3.8,12.9 Z m 0,1.2 c 0.6648,0 1.2,0.5304 1.2,1.2 v 1.2 H 2.6 v -1.2 c 0,-0.6696 0.5352,-1.2 1.2,-1.2 z"
     style="fill:currentColor;stroke-width:1.2"
     class="ColorScheme-Text"
     id="path2" />
</svg>
