<?xml version="1.0" encoding="UTF-8" standalone="no"?>
<svg
   width="24"
   height="24"
   version="1.1"
   id="svg2"
   sodipodi:docname="wallet-open.svg"
   xmlns:inkscape="http://www.inkscape.org/namespaces/inkscape"
   xmlns:sodipodi="http://sodipodi.sourceforge.net/DTD/sodipodi-0.dtd"
   xmlns="http://www.w3.org/2000/svg"
   xmlns:svg="http://www.w3.org/2000/svg">
  <sodipodi:namedview
     id="namedview2"
     pagecolor="#ffffff"
     bordercolor="#000000"
     borderopacity="0.25"
     inkscape:showpageshadow="2"
     inkscape:pageopacity="0.0"
     inkscape:pagecheckerboard="0"
     inkscape:deskcolor="#d1d1d1" />
  <defs
     id="defs1">
    <style
       id="current-color-scheme"
       type="text/css">.ColorScheme-Text {color:#d8dee9} .ColorScheme-Highlight {color:#3b4252}</style>
  </defs>
  <path
     d="m 15,12.3 c 1.048183,0 1.8,0.740179 1.8,1.8 0,1.059821 -0.761192,1.8 -1.8,1.8 -1.038808,0 -1.8,-0.756505 -1.8,-1.8 0,-1.043495 0.751817,-1.8 1.8,-1.8 z m 0,-1.2 c -1.6602,0 -3,1.348446 -3,3 0,1.651554 1.3398,3 3,3 h 5.4 v -6 z m 4.8,9.6 H 4.2 C 3.1525981,20.7 2.4,19.947402 2.4,18.9 V 9.3 C 2.4,8.2546874 3.159375,7.5 4.2,7.5 h 15.6 c 1.040626,0.051563 1.8,0.7546874 1.8,1.8 v 9.6 c 0,1.040773 -0.752598,1.8 -1.8,1.8 z"
     style="fill:currentColor;stroke-width:1.2"
     class="ColorScheme-Text"
     id="path1" />
  <path
     d="m 16.8,3.9 v 2.4 h -6 V 3.9 Z M 13.2,2.7 H 9.6 V 6.3 H 4.8000001 L 4.8,0.3 h 8.4 z"
     style="opacity:0.35;fill:currentColor;stroke-width:1.2"
     class="ColorScheme-Text"
     id="path2" />
</svg>
