<?xml version="1.0" encoding="UTF-8" standalone="no"?>
<svg
   width="24"
   height="24"
   version="1.1"
   id="svg1"
   sodipodi:docname="weather-clouds.svg"
   xmlns:inkscape="http://www.inkscape.org/namespaces/inkscape"
   xmlns:sodipodi="http://sodipodi.sourceforge.net/DTD/sodipodi-0.dtd"
   xmlns="http://www.w3.org/2000/svg"
   xmlns:svg="http://www.w3.org/2000/svg">
  <sodipodi:namedview
     id="namedview1"
     pagecolor="#ffffff"
     bordercolor="#000000"
     borderopacity="0.25"
     inkscape:showpageshadow="2"
     inkscape:pageopacity="0.0"
     inkscape:pagecheckerboard="0"
     inkscape:deskcolor="#d1d1d1" />
  <defs
     id="defs1">
    <style
       id="current-color-scheme"
       type="text/css">.ColorScheme-Text {color:#d8dee9} .ColorScheme-Highlight {color:#3b4252}</style>
  </defs>
  <path
     style="fill:currentColor;stroke-width:1.2"
     class="ColorScheme-Text"
     d="M 10.8,2.4 V 4.903125 A 7.2,7.2 0 0 1 12,4.8 7.2,7.2 0 0 1 13.2,4.9078126 V 2.4 Z M 6.0609374,4.3640626 4.3640626,6.0609374 6.1359374,7.8328126 A 7.2,7.2 0 0 1 7.8351563,6.1382813 Z m 11.8781256,0 -1.771876,1.7718748 a 7.2,7.2 0 0 1 1.694532,1.6992189 L 19.635937,6.0609374 Z M 12,6 a 6,6 0 0 0 -6,6 6,6 0 0 0 0.1757813,1.410937 c 0.00876,-0.002 0.017006,-0.005 0.025781,-0.0071 C 6.6956582,10.592826 9.0531329,8.4 12,8.4 c 2.486802,0.00216 4.626581,1.5843564 5.514844,3.855469 0.160808,0.04163 0.31633,0.09506 0.471093,0.15 A 6,6 0 0 0 18,12 6,6 0 0 0 12,6 Z m 0,3.6 A 4.8,4.8 0 0 0 7.2,14.4 3.6,3.6 0 0 0 3.6,18 3.6,3.6 0 0 0 7.2,21.6 h 9 0.6 V 21.55313 A 4.2,4.2 0 0 0 20.4,17.4 4.2,4.2 0 0 0 16.65,13.225781 4.8,4.8 0 0 0 12,9.6 Z m -9.6,1.2 v 2.4 H 4.903125 A 7.2,7.2 0 0 1 4.8,12 7.2,7.2 0 0 1 4.9078126,10.8 Z m 16.696874,0 A 7.2,7.2 0 0 1 19.2,12 7.2,7.2 0 0 1 19.092187,13.2 H 21.6 v -2.4 z"
     id="path1" />
</svg>
