<?xml version="1.0" encoding="UTF-8" standalone="no"?>
<svg
   width="24"
   height="24"
   version="1.1"
   id="svg1"
   sodipodi:docname="weather-overcast.svg"
   xmlns:inkscape="http://www.inkscape.org/namespaces/inkscape"
   xmlns:sodipodi="http://sodipodi.sourceforge.net/DTD/sodipodi-0.dtd"
   xmlns="http://www.w3.org/2000/svg"
   xmlns:svg="http://www.w3.org/2000/svg">
  <sodipodi:namedview
     id="namedview1"
     pagecolor="#ffffff"
     bordercolor="#000000"
     borderopacity="0.25"
     inkscape:showpageshadow="2"
     inkscape:pageopacity="0.0"
     inkscape:pagecheckerboard="0"
     inkscape:deskcolor="#d1d1d1" />
  <defs
     id="defs1">
    <style
       id="current-color-scheme"
       type="text/css">.ColorScheme-Text {color:#d8dee9} .ColorScheme-Highlight {color:#3b4252}</style>
  </defs>
  <g
     transform="translate(-80.000004,-704.29)"
     style=""
     id="g1">
    <path
       style="fill:currentColor;stroke-width:1.2"
       class="ColorScheme-Text"
       d="m 92.000004,707.79 c -2.485284,0 -4.601652,1.5215 -5.5125,3.675 -2.313396,0.34392 -4.0875,2.3159 -4.0875,4.725 0,2.65097 2.149032,4.8 4.8,4.8 h 0.4875 c 0.544644,-0.9615 1.489116,-1.71282 2.55,-2.025 0.743676,-1.58644 2.369688,-2.80596 4.1625,-2.775 2.289192,-0.0368 4.297992,1.78166 4.65,4.0125 0.171504,0.0542 0.3231,0.10896 0.4875,0.1875 1.236346,-0.73098 2.062496,-2.05968 2.062496,-3.6 0,-2.15585 -1.620944,-3.92244 -3.712496,-4.1625 -0.545484,-2.75207 -2.975256,-4.8375 -5.8875,-4.8375 z m 2.4,9.6 c -1.574016,0 -2.885784,1.03012 -3.375,2.4375 -1.476996,0.18716 -2.625,1.43468 -2.625,2.9625 0,1.65685 1.343148,3 3,3 h 6.6 c 1.325484,0 2.399996,-1.07452 2.399996,-2.4 0,-1.32548 -1.074512,-2.4 -2.399996,-2.4 0,-1.98822 -1.61178,-3.6 -3.6,-3.6 z"
       id="path1" />
  </g>
</svg>
