<?xml version="1.0" encoding="UTF-8" standalone="no"?>
<svg
   width="24"
   height="24"
   version="1.1"
   id="svg1"
   sodipodi:docname="weather-showers-scattered.svg"
   xmlns:inkscape="http://www.inkscape.org/namespaces/inkscape"
   xmlns:sodipodi="http://sodipodi.sourceforge.net/DTD/sodipodi-0.dtd"
   xmlns="http://www.w3.org/2000/svg"
   xmlns:svg="http://www.w3.org/2000/svg">
  <sodipodi:namedview
     id="namedview1"
     pagecolor="#ffffff"
     bordercolor="#000000"
     borderopacity="0.25"
     inkscape:showpageshadow="2"
     inkscape:pageopacity="0.0"
     inkscape:pagecheckerboard="0"
     inkscape:deskcolor="#d1d1d1" />
  <defs
     id="defs1">
    <style
       id="current-color-scheme"
       type="text/css">.ColorScheme-Text {color:#d8dee9} .ColorScheme-Highlight {color:#3b4252}</style>
  </defs>
  <path
     style="fill:currentColor;stroke-width:1.2"
     class="ColorScheme-Text"
     d="m 12,2.4042968 c -2.485284,0 -4.601652,1.5215041 -5.5125,3.675 C 4.174104,6.4232169 2.4,8.3952009 2.4,10.804297 c 0,2.3196 1.637724,4.239924 3.825,4.6875 0.916944,-0.934248 1.825464,-1.87374 2.775,-2.775 0.687648,0.645612 1.359672,1.319076 2.025,1.9875 0.291504,-0.0828 0.459024,-1.015404 0.8625,-1.3125 1.025124,-1.041696 2.051088,-2.069796 3.1125,-3.075 0.799548,0.749388 1.549776,1.513272 2.325,2.2875 0.717528,0.685716 1.473096,1.44438 1.725,2.4375 0.0192,0.06132 0.02166,0.12558 0.0375,0.1875 1.4823,-0.648588 2.5125,-2.10354 2.5125,-3.825 0,-2.1558484 -1.620948,-3.9224401 -3.7125,-4.1625002 -0.545484,-2.752068 -2.975256,-4.8375 -5.8875,-4.8375 z m 3,9.5953122 -0.4125,0.4125 -1.6875,1.6875 c -0.54378,0.54378 -0.9,1.27512 -0.9,2.1 0,1.649748 1.350252,3 3,3 1.649748,0 3,-1.350252 3,-3 0,-0.82488 -0.35622,-1.55622 -0.9,-2.1 l -1.6875,-1.6875 z m -6,2.4 -0.4125,0.4125 -1.6875,1.6875 c -0.54378,0.54378 -0.9,1.27512 -0.9,2.1 0,1.649748 1.350252,3 3,3 1.649748,0 3,-1.350252 3,-3 0,-0.82488 -0.35622,-1.55622 -0.9,-2.1 l -1.6875,-1.6875 z"
     id="path1" />
</svg>
