<?xml version="1.0" encoding="UTF-8" standalone="no"?>
<svg
   width="24"
   height="24"
   version="1.1"
   id="svg2"
   sodipodi:docname="weather-storm-night.svg"
   xmlns:inkscape="http://www.inkscape.org/namespaces/inkscape"
   xmlns:sodipodi="http://sodipodi.sourceforge.net/DTD/sodipodi-0.dtd"
   xmlns="http://www.w3.org/2000/svg"
   xmlns:svg="http://www.w3.org/2000/svg">
  <sodipodi:namedview
     id="namedview2"
     pagecolor="#ffffff"
     bordercolor="#000000"
     borderopacity="0.25"
     inkscape:showpageshadow="2"
     inkscape:pageopacity="0.0"
     inkscape:pagecheckerboard="0"
     inkscape:deskcolor="#d1d1d1" />
  <defs
     id="defs1">
    <style
       id="current-color-scheme"
       type="text/css">.ColorScheme-Text {color:#d8dee9} .ColorScheme-Highlight {color:#3b4252}</style>
  </defs>
  <path
     style="fill:currentColor;stroke-width:1.2"
     class="ColorScheme-Text"
     d="m 12,2.3964097 c -2.485284,0 -4.601652,1.521504 -5.5125,3.675 C 4.174104,6.4153297 2.4,8.3873137 2.4,10.79641 c 0,2.650968 2.149032,4.8 4.8,4.8 h 2.4 v -3 c 0,-0.9972 0.8028,-1.8 1.8,-1.8 0.9972,0 1.8,0.8028 1.8,1.8 v 3 h 4.2 c 2.3196,0 4.2,-1.8804 4.2,-4.2 0,-2.1558483 -1.620948,-3.9224403 -3.7125,-4.1625003 -0.545484,-2.752068 -2.975256,-4.8375 -5.8875,-4.8375 z"
     id="path1" />
  <path
     style="fill:currentColor;stroke-width:1.2"
     class="ColorScheme-Text"
     d="m 11.212764,11.99281 c -0.247824,0.08124 -0.425436,0.339528 -0.4125,0.6 v 4.537068 c -0.01608,0.03612 -0.02868,0.0738 -0.03744,0.11244 l -0.75,0.75 h -0.03744 -2.175 -0.2625 l -0.15,0.1875 -1.2,1.2 c -0.308376,0.188616 -0.366816,0.680592 -0.11124,0.936204 0.255612,0.255612 0.747588,0.197172 0.936204,-0.11124 l 1.01238,-1.01244 h 1.575 v 1.8 c -0.0048,0.316992 0.282984,0.608544 0.6,0.608544 0.317016,0 0.604488,-0.291552 0.6,-0.608544 v -2.175 l 0.825,-0.825 h 2.55 l 0.9,0.9 -1.6875,1.6875 c -0.308376,0.188616 -0.366816,0.680592 -0.11124,0.936204 0.255612,0.255612 0.747588,0.197172 0.936204,-0.11124 l 1.6875,-1.6875 1.6875,1.6875 c 0.188616,0.308376 0.680592,0.366816 0.936204,0.11124 0.255612,-0.255612 0.197172,-0.747588 -0.11124,-0.936204 l -3.6,-3.6 -0.15,-0.1875 h -0.2625 -2.4 v -4.199568 c 0.006,-0.355404 -0.363348,-0.66666 -0.7125,-0.6 -0.02496,-0.0012 -0.05004,-0.0012 -0.075,0 z"
     id="path2" />
</svg>
