<?xml version="1.0" encoding="UTF-8" standalone="no"?>
<svg
   width="24"
   height="24"
   version="1.1"
   id="svg1"
   sodipodi:docname="weather-snow-day.svg"
   xmlns:inkscape="http://www.inkscape.org/namespaces/inkscape"
   xmlns:sodipodi="http://sodipodi.sourceforge.net/DTD/sodipodi-0.dtd"
   xmlns="http://www.w3.org/2000/svg"
   xmlns:svg="http://www.w3.org/2000/svg">
  <sodipodi:namedview
     id="namedview1"
     pagecolor="#ffffff"
     bordercolor="#000000"
     borderopacity="0.25"
     inkscape:showpageshadow="2"
     inkscape:pageopacity="0.0"
     inkscape:pagecheckerboard="0"
     inkscape:deskcolor="#d1d1d1" />
  <defs
     id="defs1">
    <style
       id="current-color-scheme"
       type="text/css">.ColorScheme-Text {color:#d8dee9} .ColorScheme-Highlight {color:#3b4252}</style>
  </defs>
  <path
     style="fill:currentColor;stroke-width:1.2"
     class="ColorScheme-Text"
     d="m 12,2.4042968 c -2.485284,0 -4.601652,1.5215041 -5.5125,3.675 C 4.174104,6.4232169 2.4,8.3952009 2.4,10.804297 c 0,2.650968 2.149032,4.8 4.8,4.8 h 10.2 c 2.3196,0 4.2,-1.8804 4.2,-4.2 0,-2.1558484 -1.620948,-3.9224401 -3.7125,-4.1625002 -0.545484,-2.752068 -2.975256,-4.8375 -5.8875,-4.8375 z M 7.2,16.799609 a 1.2,1.2 0 0 0 -1.2,1.2 1.2,1.2 0 0 0 1.2,1.2 1.2,1.2 0 0 0 1.2,-1.2 1.2,1.2 0 0 0 -1.2,-1.2 z m 4.8,0 a 1.2,1.2 0 0 0 -1.2,1.2 1.2,1.2 0 0 0 1.2,1.2 1.2,1.2 0 0 0 1.2,-1.2 1.2,1.2 0 0 0 -1.2,-1.2 z m 4.8,0 a 1.2,1.2 0 0 0 -1.2,1.2 1.2,1.2 0 0 0 1.2,1.2 1.2,1.2 0 0 0 1.2,-1.2 1.2,1.2 0 0 0 -1.2,-1.2 z m -12,2.4 a 1.2,1.2 0 0 0 -1.2,1.2 1.2,1.2 0 0 0 1.2,1.2 1.2,1.2 0 0 0 1.2,-1.2 1.2,1.2 0 0 0 -1.2,-1.2 z m 4.8,0 a 1.2,1.2 0 0 0 -1.2,1.2 1.2,1.2 0 0 0 1.2,1.2 1.2,1.2 0 0 0 1.2,-1.2 1.2,1.2 0 0 0 -1.2,-1.2 z m 4.8,0 a 1.2,1.2 0 0 0 -1.2,1.2 1.2,1.2 0 0 0 1.2,1.2 1.2,1.2 0 0 0 1.2,-1.2 1.2,1.2 0 0 0 -1.2,-1.2 z m 4.8,0 a 1.2,1.2 0 0 0 -1.2,1.2 1.2,1.2 0 0 0 1.2,1.2 1.2,1.2 0 0 0 1.2,-1.2 1.2,1.2 0 0 0 -1.2,-1.2 z"
     id="path1" />
</svg>
