<?xml version="1.0" encoding="UTF-8" standalone="no"?>
<svg
   width="24"
   height="24"
   version="1.1"
   id="svg2"
   sodipodi:docname="weather-none-available.svg"
   xmlns:inkscape="http://www.inkscape.org/namespaces/inkscape"
   xmlns:sodipodi="http://sodipodi.sourceforge.net/DTD/sodipodi-0.dtd"
   xmlns="http://www.w3.org/2000/svg"
   xmlns:svg="http://www.w3.org/2000/svg">
  <sodipodi:namedview
     id="namedview2"
     pagecolor="#ffffff"
     bordercolor="#000000"
     borderopacity="0.25"
     inkscape:showpageshadow="2"
     inkscape:pageopacity="0.0"
     inkscape:pagecheckerboard="0"
     inkscape:deskcolor="#d1d1d1" />
  <defs
     id="defs1">
    <style
       id="current-color-scheme"
       type="text/css">.ColorScheme-Text {color:#d8dee9} .ColorScheme-Highlight {color:#3b4252}</style>
  </defs>
  <path
     style="opacity:0.35;fill:currentColor;stroke-width:1.2"
     class="ColorScheme-Text"
     d="M 12,3.5 C 9.514716,3.5 7.398348,5.021504 6.4875,7.175 4.174104,7.51892 2.4,9.490904 2.4,11.9 c 0,2.650968 2.149032,4.8 4.8,4.8 h 1.2 v -1.2 c 6.13e-5,-0.318239 0.1265191,-0.623423 0.3515626,-0.848437 L 10.8,12.603126 V 11.9 H 8.4 C 7.7372857,11.899934 7.2000662,11.362714 7.2,10.7 V 8.3 C 7.2000662,7.6372857 7.7372857,7.1000662 8.4,7.1 h 6 c 0.662714,6.62e-5 1.199934,0.5372857 1.2,1.2 v 2.4 2.4 c 5.6e-4,0.319051 -0.125945,0.625193 -0.351563,0.850781 L 13.2,15.999219 V 16.7 h 1.2 3 c 2.3196,0 4.2,-1.8804 4.2,-4.2 0,-2.155848 -1.620948,-3.92244 -3.7125,-4.1625 C 17.342016,5.585432 14.912244,3.5 12,3.5 Z"
     id="path1" />
  <path
     style="fill:currentColor;stroke-width:1.2"
     class="ColorScheme-Text"
     d="m 8.4,8.3 v 2.4 H 12 v 2.4 l -2.4,2.4 v 2.4 H 12 v -2.4 l 2.4,-2.4 V 10.7 8.3 Z m 1.2,10.8 v 2.4 H 12 v -2.4 z"
     id="path2" />
</svg>
