<?xml version="1.0" encoding="UTF-8" standalone="no"?>
<svg
   width="24"
   height="24"
   version="1.1"
   id="svg2"
   sodipodi:docname="weather-freezing-rain.svg"
   xmlns:inkscape="http://www.inkscape.org/namespaces/inkscape"
   xmlns:sodipodi="http://sodipodi.sourceforge.net/DTD/sodipodi-0.dtd"
   xmlns="http://www.w3.org/2000/svg"
   xmlns:svg="http://www.w3.org/2000/svg">
  <sodipodi:namedview
     id="namedview2"
     pagecolor="#ffffff"
     bordercolor="#000000"
     borderopacity="0.25"
     inkscape:showpageshadow="2"
     inkscape:pageopacity="0.0"
     inkscape:pagecheckerboard="0"
     inkscape:deskcolor="#d1d1d1" />
  <defs
     id="defs1">
    <style
       id="current-color-scheme"
       type="text/css">.ColorScheme-Text {color:#d8dee9} .ColorScheme-Highlight {color:#3b4252}</style>
  </defs>
  <path
     style="fill:currentColor;stroke-width:1.2"
     class="ColorScheme-Text"
     d="m 12,2.403696 c -2.485284,0 -4.601652,1.521504 -5.5125,3.675 C 4.174104,6.422616 2.4,8.3946 2.4,10.803696 c 0,2.3196 1.637724,4.239924 3.825,4.6875 0.916944,-0.934248 1.825464,-1.87374 2.775,-2.775 0.687648,0.645612 1.359672,1.319076 2.025,1.9875 0.291504,-0.0828 0.459024,-1.015404 0.8625,-1.3125 1.025124,-1.041696 2.051088,-2.069796 3.1125,-3.075 0.799548,0.749388 1.549776,1.513272 2.325,2.2875 0.717528,0.685716 1.473096,1.44438 1.725,2.4375 0.0192,0.06132 0.0216,0.12558 0.03744,0.1875 1.4823,-0.648588 2.51256,-2.10354 2.51256,-3.825 0,-2.155848 -1.620948,-3.92244 -3.7125,-4.1625 C 17.342016,4.489128 14.912244,2.403696 12,2.403696 Z m 3,11.325 c -0.10224,0.09936 -0.19764,0.20076 -0.3,0.3 -0.476388,0.499008 -1.079112,0.940308 -1.35,1.575 h 3.3375 c -0.03144,-0.07368 -0.0678,-0.155016 -0.11244,-0.225 -0.44772,-0.615708 -1.054764,-1.09602 -1.575,-1.65 z"
     id="path1" />
  <path
     style="fill:currentColor;stroke-width:1.2"
     class="ColorScheme-Text"
     d="m 15.00024,11.999664 -0.4125,0.4125 -1.6875,1.6875 c -0.54378,0.54378 -0.9,1.27512 -0.9,2.1 0,1.649748 1.350252,3 3,3 1.649748,0 3,-1.350252 3,-3 0,-0.82488 -0.35622,-1.55622 -0.9,-2.1 l -1.6875,-1.6875 z m -6,2.4 -0.4125,0.4125 -1.6875,1.6875 c -0.54378,0.54378 -0.9,1.27512 -0.9,2.1 0,1.649748 1.350252,3 3,3 1.649748,0 3,-1.350252 3,-3 0,-0.82488 -0.35622,-1.55622 -0.9,-2.1 l -1.6875,-1.6875 z"
     id="path2" />
</svg>
