<?xml version="1.0" encoding="UTF-8" standalone="no"?>
<svg
   width="24"
   height="24"
   version="1.1"
   id="svg1"
   sodipodi:docname="weather-clear-wind.svg"
   xmlns:inkscape="http://www.inkscape.org/namespaces/inkscape"
   xmlns:sodipodi="http://sodipodi.sourceforge.net/DTD/sodipodi-0.dtd"
   xmlns="http://www.w3.org/2000/svg"
   xmlns:svg="http://www.w3.org/2000/svg">
  <sodipodi:namedview
     id="namedview1"
     pagecolor="#ffffff"
     bordercolor="#000000"
     borderopacity="0.25"
     inkscape:showpageshadow="2"
     inkscape:pageopacity="0.0"
     inkscape:pagecheckerboard="0"
     inkscape:deskcolor="#d1d1d1" />
  <defs
     id="defs1">
    <style
       id="current-color-scheme"
       type="text/css">.ColorScheme-Text {color:#d8dee9} .ColorScheme-Highlight {color:#3b4252}</style>
  </defs>
  <path
     style="fill:currentColor;stroke-width:1.2"
     class="ColorScheme-Text"
     d="m 10.800281,2.4 v 2.503125 c 0.396418,-0.06783 0.797822,-0.1023252 1.2,-0.1031244 0.40231,0.00235 0.803714,0.038412 1.2,0.1078128 V 2.4 Z M 6.0612187,4.3640626 4.3643438,6.0609374 6.1362187,7.8328126 C 6.6038434,7.1768903 7.178226,6.6040922 7.8354375,6.1382813 Z m 11.8781253,0 -1.771876,1.7718748 C 16.823391,6.6035622 17.396189,7.1779446 17.862,7.8351563 L 19.636218,6.0609374 Z M 12.000281,6 a 6,6 0 0 0 -5.9999998,6 h 4.8351558 l 0.140625,-0.400781 C 11.397435,10.407382 12.533765,9.603384 13.797937,9.6 h 0.0024 c 1.50344,0 2.646491,1.189267 2.85,2.641406 0.255582,-0.07165 0.473962,-0.240673 0.7476,-0.241406 h 0.0024 c 0.203736,0 0.402399,0.02122 0.595313,0.06094 A 6,6 0 0 0 18.000281,12 a 6,6 0 0 0 -6,-6 z m 1.8,4.8 c -0.761022,0.002 -1.438516,0.482498 -1.692187,1.2 h 2.292187 v 1.2 h -0.6 -1.692187 -7.3078128 v 1.2 h 8.9999998 c 0.994112,0 1.8,-0.805888 1.8,-1.8 0,-0.994112 -0.805888,-1.8 -1.8,-1.8 z m 3.6,2.4 c -0.761022,0.002 -1.438516,0.482498 -1.692187,1.2 h 2.292187 v 1.2 h -0.6 -1.692187 -7.3078128 v 1.2 h 8.9999998 c 0.994112,0 1.8,-0.805888 1.8,-1.8 0,-0.994112 -0.805888,-1.8 -1.8,-1.8 z M 4.8002812,18 v 1.2 h 7.3078128 1.692187 0.6 v 1.2 h -2.292187 c 0.253671,0.717502 0.931165,1.197941 1.692187,1.2 0.994112,0 1.8,-0.805888 1.8,-1.8 0,-0.994112 -0.805888,-1.8 -1.8,-1.8 z"
     id="path1" />
</svg>
