<?xml version="1.0" encoding="UTF-8" standalone="no"?>
<svg
   width="24"
   height="24"
   version="1.1"
   id="svg2"
   sodipodi:docname="weather-severe-alert.svg"
   xmlns:inkscape="http://www.inkscape.org/namespaces/inkscape"
   xmlns:sodipodi="http://sodipodi.sourceforge.net/DTD/sodipodi-0.dtd"
   xmlns="http://www.w3.org/2000/svg"
   xmlns:svg="http://www.w3.org/2000/svg">
  <sodipodi:namedview
     id="namedview2"
     pagecolor="#ffffff"
     bordercolor="#000000"
     borderopacity="0.25"
     inkscape:showpageshadow="2"
     inkscape:pageopacity="0.0"
     inkscape:pagecheckerboard="0"
     inkscape:deskcolor="#d1d1d1" />
  <defs
     id="defs1">
    <style
       id="current-color-scheme"
       type="text/css">.ColorScheme-Text {color:#d8dee9} .ColorScheme-Highlight {color:#3b4252}</style>
  </defs>
  <path
     style="fill:currentColor;stroke-width:1.2"
     class="ColorScheme-Text"
     d="m 10.80024,10.699987 v 4.8 l 3.6e-5,2.4 h 2.4 l -3.6e-5,-2.4 v -4.8 z m 0,8.4 v 2.4 h 2.4 v -2.4 z"
     id="path1" />
  <path
     style="fill:currentColor;stroke-width:1.2"
     class="ColorScheme-Text"
     d="m 12,3.500143 c -2.485284,0 -4.601652,1.521504 -5.5125,3.675 -2.313396,0.34392 -4.0875,2.315904 -4.0875,4.725 0,2.650968 2.149032,4.8 4.8,4.8 h 2.4 v -7.2 h 4.8 v 7.2 h 3 c 2.3196,0 4.2,-1.8804 4.2,-4.2 0,-2.155848 -1.620948,-3.92244 -3.7125,-4.1625 C 17.342016,5.585575 14.912244,3.500143 12,3.500143 Z"
     id="path2" />
</svg>
