<?xml version="1.0" encoding="UTF-8" standalone="no"?>
<svg
   width="24"
   height="24"
   version="1.1"
   id="svg1"
   sodipodi:docname="weather-clouds-wind-night.svg"
   xmlns:inkscape="http://www.inkscape.org/namespaces/inkscape"
   xmlns:sodipodi="http://sodipodi.sourceforge.net/DTD/sodipodi-0.dtd"
   xmlns="http://www.w3.org/2000/svg"
   xmlns:svg="http://www.w3.org/2000/svg">
  <sodipodi:namedview
     id="namedview1"
     pagecolor="#ffffff"
     bordercolor="#000000"
     borderopacity="0.25"
     inkscape:showpageshadow="2"
     inkscape:pageopacity="0.0"
     inkscape:pagecheckerboard="0"
     inkscape:deskcolor="#d1d1d1" />
  <defs
     id="defs1">
    <style
       id="current-color-scheme"
       type="text/css">.ColorScheme-Text {color:#d8dee9} .ColorScheme-Highlight {color:#3b4252}</style>
  </defs>
  <path
     style="fill:currentColor;stroke-width:1.2"
     class="ColorScheme-Text"
     d="M 12,3.5 C 9.514716,3.5 7.398348,5.0215041 6.4875,7.175 4.174104,7.5189201 2.4,9.490904 2.4,11.9 c 0,1.299793 0.5166332,2.478919 1.3557539,3.343232 0,0 0,0 -0.1557539,-0.943232 v -1.2 c 6.62e-5,-0.662714 0.5372857,-1.199934 1.2,-1.2 h 6.232031 c -0.0413,-0.129446 -0.06032,-0.264966 -0.05625,-0.400781 C 11.397154,10.307382 12.533484,9.503384 13.797656,9.5 H 13.8 c 1.503439,0 2.646491,1.189267 2.85,2.641406 0.255638,-0.07165 0.474018,-0.240673 0.747656,-0.241406 H 17.4 c 1.642639,0 3,1.357361 3,3 0,0.204533 -0.02092,0.404039 -0.06094,0.597656 C 21.116406,14.735416 21.6,13.674711 21.6,12.5 21.6,10.344152 19.979052,8.57756 17.8875,8.3375 17.342016,5.585432 14.912244,3.5 12,3.5 Z m 1.8,7.2 c -0.761022,0.002 -1.438516,0.482498 -1.692187,1.2 H 14.4 v 1.2 H 13.8 12.107813 4.8 v 1.2 h 9 c 0.994112,0 1.8,-0.805888 1.8,-1.8 0,-0.994112 -0.805888,-1.8 -1.8,-1.8 z m 3.6,2.4 c -0.761022,0.002 -1.438516,0.482498 -1.692187,1.2 H 18 v 1.2 H 17.4 15.707813 8.4 v 1.2 h 9 c 0.994112,0 1.8,-0.805888 1.8,-1.8 0,-0.994112 -0.805888,-1.8 -1.8,-1.8 z M 4.8,17.9 v 1.2 H 12.107813 13.8 14.4 v 1.2 h -2.292187 c 0.253671,0.717502 0.931165,1.197941 1.692187,1.2 0.994112,0 1.8,-0.805888 1.8,-1.8 0,-0.994112 -0.805888,-1.8 -1.8,-1.8 z"
     id="path1" />
</svg>
