<?xml version="1.0" encoding="UTF-8" standalone="no"?>
<svg
   width="24"
   height="24"
   version="1.1"
   id="svg1"
   sodipodi:docname="weather-few-clouds-night-130.svg"
   xmlns:inkscape="http://www.inkscape.org/namespaces/inkscape"
   xmlns:sodipodi="http://sodipodi.sourceforge.net/DTD/sodipodi-0.dtd"
   xmlns="http://www.w3.org/2000/svg"
   xmlns:svg="http://www.w3.org/2000/svg">
  <sodipodi:namedview
     id="namedview1"
     pagecolor="#ffffff"
     bordercolor="#000000"
     borderopacity="0.25"
     inkscape:showpageshadow="2"
     inkscape:pageopacity="0.0"
     inkscape:pagecheckerboard="0"
     inkscape:deskcolor="#d1d1d1" />
  <defs
     id="defs1">
    <style
       id="current-color-scheme"
       type="text/css">.ColorScheme-Text {color:#d8dee9} .ColorScheme-Highlight {color:#3b4252}</style>
  </defs>
  <g
     transform="translate(-176.00033,-680.28985)"
     style=""
     id="g1">
    <path
       style="fill:currentColor;stroke-width:1.2"
       class="ColorScheme-Text"
       d="m 187.60092,683.83022 c -3.31534,0.12173 -6.37044,2.1655 -7.575,5.475 -1.5166,4.16681 0.4424,8.78949 4.425,10.575 -0.11184,-0.40495 -0.17626,-0.8483 -0.15,-1.275 0.0332,-1.2015 0.70076,-2.26484 1.65,-2.9625 -1.88026,-2.07982 -2.56271,-5.09575 -1.5375,-7.9125 0.61699,-1.69518 1.76932,-3.01003 3.1875,-3.9 z m 3.9,9.5625 c -1.57402,0 -2.88579,1.03012 -3.375,2.4375 -1.477,0.18717 -2.625,1.43469 -2.625,2.9625 0,1.65686 1.34314,3 3,3 h 6.6 c 1.32548,0 2.4,-1.07451 2.4,-2.4 0,-1.32548 -1.07452,-2.4 -2.4,-2.4 0,-1.98822 -1.61178,-3.6 -3.6,-3.6 z"
       id="path1" />
  </g>
</svg>
