<?xml version="1.0" encoding="UTF-8" standalone="no"?>
<svg
   width="24"
   height="24"
   version="1.1"
   id="svg1"
   sodipodi:docname="weather-clear-wind-night.svg"
   xmlns:inkscape="http://www.inkscape.org/namespaces/inkscape"
   xmlns:sodipodi="http://sodipodi.sourceforge.net/DTD/sodipodi-0.dtd"
   xmlns="http://www.w3.org/2000/svg"
   xmlns:svg="http://www.w3.org/2000/svg">
  <sodipodi:namedview
     id="namedview1"
     pagecolor="#ffffff"
     bordercolor="#000000"
     borderopacity="0.25"
     inkscape:showpageshadow="2"
     inkscape:pageopacity="0.0"
     inkscape:pagecheckerboard="0"
     inkscape:deskcolor="#d1d1d1" />
  <defs
     id="defs1">
    <style
       id="current-color-scheme"
       type="text/css">.ColorScheme-Text {color:#d8dee9} .ColorScheme-Highlight {color:#3b4252}</style>
  </defs>
  <path
     style="fill:currentColor;stroke-width:1.2"
     class="ColorScheme-Text"
     d="M 12.771107,3.5 C 9.5040722,3.621884 6.4932744,5.6683633 5.3062632,8.9820308 4.9617178,9.9438656 4.7982306,10.930384 4.8000132,11.9 h 4.575 C 9.0358573,10.457014 9.0920929,8.901116 9.6281388,7.4046874 10.236142,5.7073714 11.373596,4.391084 12.771107,3.5 Z m 1.028906,7.2 c -0.761022,0.002 -1.438515,0.482498 -1.692187,1.2 h 2.292187 v 1.2 h -0.6 -1.692187 -7.3078128 v 1.2 h 8.9999998 c 0.994113,0 1.8,-0.805888 1.8,-1.8 0,-0.994112 -0.805887,-1.8 -1.8,-1.8 z m 3.6,2.4 c -0.761022,0.002 -1.438515,0.482498 -1.692187,1.2 h 2.292187 v 1.2 h -0.6 -1.692187 -7.3078128 v 1.2 h 8.9999998 c 0.994113,0 1.8,-0.805888 1.8,-1.8 0,-0.994112 -0.805887,-1.8 -1.8,-1.8 z M 4.8000132,17.9 v 1.2 h 7.3078128 1.692187 0.6 v 1.2 h -2.292187 c 0.253672,0.717502 0.931165,1.197941 1.692187,1.2 0.994113,0 1.8,-0.805888 1.8,-1.8 0,-0.994112 -0.805887,-1.8 -1.8,-1.8 z"
     id="path1" />
</svg>
