<?xml version="1.0" encoding="UTF-8" standalone="no"?>
<svg
   width="24"
   height="24"
   version="1.1"
   id="svg1"
   sodipodi:docname="weather-snow-scattered-night.svg"
   xmlns:inkscape="http://www.inkscape.org/namespaces/inkscape"
   xmlns:sodipodi="http://sodipodi.sourceforge.net/DTD/sodipodi-0.dtd"
   xmlns="http://www.w3.org/2000/svg"
   xmlns:svg="http://www.w3.org/2000/svg">
  <sodipodi:namedview
     id="namedview1"
     pagecolor="#ffffff"
     bordercolor="#000000"
     borderopacity="0.25"
     inkscape:showpageshadow="2"
     inkscape:pageopacity="0.0"
     inkscape:pagecheckerboard="0"
     inkscape:deskcolor="#d1d1d1" />
  <defs
     id="defs1">
    <style
       id="current-color-scheme"
       type="text/css">.ColorScheme-Text {color:#d8dee9} .ColorScheme-Highlight {color:#3b4252}</style>
  </defs>
  <path
     style="fill:currentColor;stroke-width:1.2"
     class="ColorScheme-Text"
     d="M 12,2.4 C 9.514716,2.4 7.398348,3.921504 6.4875,6.075 4.174104,6.41892 2.4,8.390904 2.4,10.8 c 0,2.650968 2.149032,4.8 4.8,4.8 H 8.6226563 C 9.122882,14.210092 10.447409,13.2 12,13.2 c 1.552591,0 2.877118,1.010092 3.377344,2.4 H 17.4 c 2.3196,0 4.2,-1.8804 4.2,-4.2 C 21.6,9.244152 19.979052,7.47756 17.8875,7.2375 17.342016,4.485432 14.912244,2.4 12,2.4 Z m 0,12 A 2.4,2.4 0 0 0 9.6,16.8 2.4,2.4 0 0 0 12,19.2 2.4,2.4 0 0 0 14.4,16.8 2.4,2.4 0 0 0 12,14.4 Z M 6,16.8 A 2.4,2.4 0 0 0 3.6,19.2 2.4,2.4 0 0 0 6,21.6 2.4,2.4 0 0 0 8.4,19.2 2.4,2.4 0 0 0 6,16.8 Z m 12,0 a 2.4,2.4 0 0 0 -2.4,2.4 2.4,2.4 0 0 0 2.4,2.4 2.4,2.4 0 0 0 2.4,-2.4 2.4,2.4 0 0 0 -2.4,-2.4 z"
     id="path1" />
</svg>
