<?xml version="1.0" encoding="UTF-8" standalone="no"?>
<svg
   width="24"
   height="24"
   version="1.1"
   id="svg1"
   sodipodi:docname="weather-showers-night.svg"
   xmlns:inkscape="http://www.inkscape.org/namespaces/inkscape"
   xmlns:sodipodi="http://sodipodi.sourceforge.net/DTD/sodipodi-0.dtd"
   xmlns="http://www.w3.org/2000/svg"
   xmlns:svg="http://www.w3.org/2000/svg">
  <sodipodi:namedview
     id="namedview1"
     pagecolor="#ffffff"
     bordercolor="#000000"
     borderopacity="0.25"
     inkscape:showpageshadow="2"
     inkscape:pageopacity="0.0"
     inkscape:pagecheckerboard="0"
     inkscape:deskcolor="#d1d1d1" />
  <defs
     id="defs1">
    <style
       id="current-color-scheme"
       type="text/css">.ColorScheme-Text {color:#d8dee9} .ColorScheme-Highlight {color:#3b4252}</style>
  </defs>
  <g
     transform="translate(-128.00001,-680.28999)"
     style=""
     id="g1">
    <path
       style="fill:currentColor;stroke-width:1.2"
       class="ColorScheme-Text"
       d="m 140.00001,682.79393 c -2.48528,0 -4.60165,1.52151 -5.5125,3.675 -2.3134,0.34392 -4.0875,2.31591 -4.0875,4.725 0,2.65097 2.14903,4.8 4.8,4.8 h 10.2 c 2.3196,0 4.2,-1.8804 4.2,-4.2 0,-2.15585 -1.62095,-3.92244 -3.7125,-4.1625 -0.54548,-2.75207 -2.97526,-4.8375 -5.8875,-4.8375 z m -6.02578,14.38828 a 0.60006,0.60006 0 0 0 -0.51094,0.33985 l -1.2,2.4 a 0.60007567,0.60007567 0 1 0 1.07344,0.53672 l 1.2,-2.4 a 0.60006,0.60006 0 0 0 -0.5625,-0.87657 z m 3,0 a 0.60006,0.60006 0 0 0 -0.51094,0.33985 l -1.2,2.4 a 0.60007567,0.60007567 0 1 0 1.07344,0.53672 l 1.2,-2.4 a 0.60006,0.60006 0 0 0 -0.5625,-0.87657 z m 3,0 a 0.60006,0.60006 0 0 0 -0.51094,0.33985 l -1.2,2.4 a 0.60007567,0.60007567 0 1 0 1.07344,0.53672 l 1.2,-2.4 a 0.60006,0.60006 0 0 0 -0.5625,-0.87657 z m 3,0 a 0.60006,0.60006 0 0 0 -0.51094,0.33985 l -1.2,2.4 a 0.60007567,0.60007567 0 1 0 1.07344,0.53672 l 1.2,-2.4 a 0.60006,0.60006 0 0 0 -0.5625,-0.87657 z m 3,0 a 0.60006,0.60006 0 0 0 -0.51094,0.33985 l -1.2,2.4 a 0.60007567,0.60007567 0 1 0 1.07344,0.53672 l 1.2,-2.4 a 0.60006,0.60006 0 0 0 -0.5625,-0.87657 z"
       id="path1" />
  </g>
</svg>
