<?xml version="1.0" encoding="UTF-8" standalone="no"?>
<svg
   width="24"
   height="24"
   version="1.1"
   id="svg1"
   sodipodi:docname="wechat-tray.svg"
   xmlns:inkscape="http://www.inkscape.org/namespaces/inkscape"
   xmlns:sodipodi="http://sodipodi.sourceforge.net/DTD/sodipodi-0.dtd"
   xmlns="http://www.w3.org/2000/svg"
   xmlns:svg="http://www.w3.org/2000/svg">
  <sodipodi:namedview
     id="namedview1"
     pagecolor="#ffffff"
     bordercolor="#000000"
     borderopacity="0.25"
     inkscape:showpageshadow="2"
     inkscape:pageopacity="0.0"
     inkscape:pagecheckerboard="0"
     inkscape:deskcolor="#d1d1d1" />
  <defs
     id="defs1">
    <style
       id="current-color-scheme"
       type="text/css">.ColorScheme-Text {color:#d8dee9} .ColorScheme-Highlight {color:#3b4252}</style>
  </defs>
  <path
     style="fill:currentColor;stroke-width:1.2"
     class="ColorScheme-Text"
     d="m 10.8,2.4 a 8.4,7.8 0 0 0 -8.4,7.8 8.4,7.8 0 0 0 2.4,5.45625 V 19.2 l 1.584375,-2.376563 a 8.4,7.8 0 0 0 2.7140624,1.000782 C 8.6557253,16.971673 8.4,16.017698 8.4,15 8.4,12.07214 10.46765,9.6544596 13.258595,8.7679692 A 1.2,1.2 0 0 1 13.199999,8.4 a 1.2,1.2 0 0 1 1.2,-1.2 1.2,1.2 0 0 1 1.2,1.2 c 1.273659,0 2.479917,0.3143424 3.532031,0.8601564 A 8.4,7.8 0 0 0 10.8,2.4 Z M 7.2,7.2 A 1.2,1.2 0 0 1 8.4,8.4 1.2,1.2 0 0 1 7.2,9.6 1.2,1.2 0 0 1 6,8.4 1.2,1.2 0 0 1 7.2,7.2 Z m 8.4,2.4 A 6,5.4 0 0 0 9.5999995,15 6,5.4 0 0 0 15.6,20.4 6,5.4 0 0 0 18.972656,19.460156 L 20.4,21.6 V 18.229687 A 6,5.4 0 0 0 21.6,15 6,5.4 0 0 0 15.6,9.6 Z M 13.2,12 a 1.2,1.2 0 0 1 1.2,1.2 1.2,1.2 0 0 1 -1.2,1.2 A 1.2,1.2 0 0 1 12,13.2 1.2,1.2 0 0 1 13.2,12 Z M 18,12 A 1.2,1.2 0 0 1 19.2,13.2 1.2,1.2 0 0 1 18,14.4 1.2,1.2 0 0 1 16.8,13.2 1.2,1.2 0 0 1 18,12 Z"
     id="path1" />
</svg>
