<?xml version="1.0" encoding="UTF-8" standalone="no"?>
<svg
   width="24"
   height="24"
   version="1.1"
   id="svg1"
   sodipodi:docname="whatsapp-warning-msg.svg"
   xmlns:inkscape="http://www.inkscape.org/namespaces/inkscape"
   xmlns:sodipodi="http://sodipodi.sourceforge.net/DTD/sodipodi-0.dtd"
   xmlns="http://www.w3.org/2000/svg"
   xmlns:svg="http://www.w3.org/2000/svg">
  <sodipodi:namedview
     id="namedview1"
     pagecolor="#ffffff"
     bordercolor="#000000"
     borderopacity="0.25"
     inkscape:showpageshadow="2"
     inkscape:pageopacity="0.0"
     inkscape:pagecheckerboard="0"
     inkscape:deskcolor="#d1d1d1" />
  <defs
     id="defs1">
    <style
       id="current-color-scheme"
       type="text/css">.ColorScheme-Text {color:#d8dee9} .ColorScheme-Highlight {color:#3b4252}</style>
  </defs>
  <path
     style="fill:currentColor;stroke-width:1.2"
     class="ColorScheme-Text"
     d="m 12,2.3999886 c -0.23112,0 -0.459679,0.012214 -0.686719,0.028124 -0.02844,0.0021 -0.05581,0.00233 -0.08437,0.00469 -3.4293601,0.2706239 -6.3349839,2.33136 -7.802344,5.25 C 3.3316258,7.8717448 3.2349422,8.0611238 3.1523461,8.2570238 2.7029341,9.2718642 2.4583928,10.347474 2.414065,11.474993 c -0.00194,0.03642 -0.00314,0.07362 -0.00469,0.11016 -0.00296,0.107712 -0.00775,0.214813 -0.00703,0.323437 -2.758e-4,0.03046 -0.00234,0.06087 -0.00234,0.0914 0,1.116264 0.1988617,2.183203 0.5460937,3.178126 0.13974,0.446014 0.3002753,0.896019 0.4945313,1.352343 0.016573,0.03893 0.024251,0.06138 0.039844,0.09844 C 4.1533255,15.969458 5.0578777,15.600063 6,15.599989 c 1.988225,0 3.6,1.611775 3.6,3.6 -0.00109,0.695798 -0.2037985,1.376371 -0.5835937,1.959374 0.11112,0.03329 0.1900826,0.05264 0.3210937,0.09376 0.629436,0.19752 1.34589,0.303448 2.15625,0.332812 0.0339,0.0017 0.06913,0.0034 0.103128,0.0047 0.11088,0.0036 0.218213,0.0094 0.332813,0.0094 0.0094,0 0.01648,6.8e-5 0.02579,0 0.01477,6.6e-5 0.02974,0 0.04453,0 0.268068,0 0.532139,-0.01382 0.794531,-0.03516 2.37336,-0.16878 4.279672,-1.045762 5.995312,-2.758594 1.4136,-1.4112 2.29052,-3.152739 2.63672,-4.97578 0.0319,-0.166596 0.05647,-0.336654 0.07969,-0.50625 0.01404,-0.104112 0.02926,-0.207272 0.03984,-0.31172 0.02327,-0.224004 0.0368,-0.451267 0.04453,-0.679687 0.0017,-0.05756 0.0041,-0.113508 0.0047,-0.171093 8.28e-4,-0.05361 0.0047,-0.107879 0.0047,-0.161698 0,-5.229601 -4.140476,-9.4534091 -9.335156,-9.5929691 -0.04032,-0.0018 -0.08143,-0.0017 -0.121875,-0.00234 -0.048,-7.032e-4 -0.09485,-0.00469 -0.142969,-0.00469 z m -3,4.8 c 0.9941124,0 1.8,0.8058875 1.8,1.8 0,0.6 0,1.8000004 -1.2,1.8000004 0,1.2 2.437876,3.534869 3.6,3.6 0,-1.2 1.2,-1.2 1.8,-1.2 0.994112,0 1.8,0.805888 1.8,1.8 0,0.994112 -0.805888,1.8 -1.8,1.8 H 14.327344 C 13.971767,16.792199 13.557293,16.66085 12.975,16.448426 11.027464,15.737954 9.6754116,14.597429 8.2898437,12.496863 7.4827298,11.273244 7.20432,10.536859 7.2,9.6210826 v -0.621094 c 0,-0.9941125 0.8058875,-1.8 1.8,-1.8 z"
     id="path1" />
  <circle
     style="fill:currentColor;stroke-width:1.2"
     class="ColorScheme-Text"
     cx="6"
     cy="19.200001"
     r="2.4000001"
     id="circle1" />
</svg>
