<?xml version="1.0" encoding="UTF-8" standalone="no"?>
<svg
   width="24"
   height="24"
   version="1.1"
   id="svg1"
   sodipodi:docname="whatsapp-warning.svg"
   xmlns:inkscape="http://www.inkscape.org/namespaces/inkscape"
   xmlns:sodipodi="http://sodipodi.sourceforge.net/DTD/sodipodi-0.dtd"
   xmlns="http://www.w3.org/2000/svg"
   xmlns:svg="http://www.w3.org/2000/svg">
  <sodipodi:namedview
     id="namedview1"
     pagecolor="#ffffff"
     bordercolor="#000000"
     borderopacity="0.25"
     inkscape:showpageshadow="2"
     inkscape:pageopacity="0.0"
     inkscape:pagecheckerboard="0"
     inkscape:deskcolor="#d1d1d1" />
  <defs
     id="defs1">
    <style
       id="current-color-scheme"
       type="text/css">.ColorScheme-Text {color:#d8dee9} .ColorScheme-Highlight {color:#3b4252}</style>
  </defs>
  <path
     style="fill:currentColor;stroke-width:1.2"
     class="ColorScheme-Text"
     d="m 12,2.399937 c -0.23112,0 -0.459678,0.012214 -0.686718,0.028124 -0.02844,0.0021 -0.05581,0.00233 -0.08437,0.00469 -3.4293599,0.270624 -6.334984,2.33136 -7.8023441,5.25 -0.094939,0.1889399 -0.1916233,0.3783188 -0.2742194,0.5742188 -0.449412,1.0148403 -0.6939533,2.0904492 -0.7382813,3.2179692 -0.00194,0.03642 -0.00314,0.07362 -0.00469,0.11016 -0.00296,0.107712 -0.00775,0.214814 -0.00703,0.323438 -2.785e-4,0.03047 -0.00234,0.06088 -0.00234,0.0914 0,1.116264 0.1988617,2.183205 0.5460937,3.178126 0.13974,0.446015 0.3002753,0.896019 0.4945313,1.352343 0.483876,1.136772 0.54489,1.445752 0.46875,2.395312 -0.053051,0.66162 -0.2328473,1.337689 -0.4570313,1.717969 -0.203256,0.344856 -0.365625,0.701599 -0.365625,0.792187 0,0.280104 1.6167789,0.181576 3.0492181,-0.185156 1.67808,-0.429624 1.8256428,-0.42938 3.2015628,0.0024 0.6294364,0.19752 1.3458902,0.303448 2.1562502,0.332812 0.0339,0.0017 0.06913,0.0034 0.103128,0.0047 0.11088,0.0036 0.218213,0.0094 0.332813,0.0094 0.0094,0 0.01648,6.8e-5 0.02578,0 0.01477,6.6e-5 0.02974,0 0.04453,0 0.268068,0 0.532139,-0.01382 0.794531,-0.03516 2.37336,-0.16878 4.279673,-1.045762 5.995313,-2.758594 1.4136,-1.4112 2.290519,-3.152741 2.636719,-4.975782 0.0319,-0.166596 0.05647,-0.336654 0.07969,-0.50625 0.01404,-0.104112 0.02926,-0.20727 0.03984,-0.311718 0.02327,-0.224004 0.0368,-0.451268 0.04453,-0.679688 0.0017,-0.05756 0.0041,-0.113508 0.0047,-0.171094 8.33e-4,-0.05363 0.0047,-0.107928 0.0047,-0.161747 0,-5.2296011 -4.140477,-9.4534098 -9.335157,-9.5929698 -0.04032,-0.0018 -0.08143,-0.0017 -0.121874,-0.00234 -0.048,-6.994e-4 -0.09485,-0.00469 -0.142969,-0.00469 z m -2.9999999,4.8 C 9.9941124,7.199937 10.8,8.0058245 10.8,8.9999369 c 0,0.6 0,1.8000001 -1.1999999,1.8000001 0,1.2 2.4378759,3.534869 3.5999999,3.6 0,-1.2 1.2,-1.2 1.8,-1.2 0.994112,0 1.8,0.805888 1.8,1.8 0,0.994113 -0.805888,1.8 -1.8,1.8 H 14.327344 C 13.971767,16.792147 13.557293,16.660798 12.975,16.448374 11.027464,15.737902 9.6754116,14.597378 8.2898436,12.496813 7.4827297,11.273193 7.20432,10.536807 7.2,9.6210309 V 8.9999369 C 7.2,8.0058245 8.0058876,7.199937 9.0000001,7.199937 Z"
     id="path1" />
</svg>
