<?xml version="1.0" encoding="UTF-8" standalone="no"?>
<svg
   width="24"
   height="24"
   version="1.1"
   id="svg1"
   sodipodi:docname="whatsapp-tray.svg"
   xmlns:inkscape="http://www.inkscape.org/namespaces/inkscape"
   xmlns:sodipodi="http://sodipodi.sourceforge.net/DTD/sodipodi-0.dtd"
   xmlns="http://www.w3.org/2000/svg"
   xmlns:svg="http://www.w3.org/2000/svg">
  <sodipodi:namedview
     id="namedview1"
     pagecolor="#ffffff"
     bordercolor="#000000"
     borderopacity="0.25"
     inkscape:showpageshadow="2"
     inkscape:pageopacity="0.0"
     inkscape:pagecheckerboard="0"
     inkscape:deskcolor="#d1d1d1" />
  <defs
     id="defs1">
    <style
       id="current-color-scheme"
       type="text/css">.ColorScheme-Text {color:#d8dee9} .ColorScheme-Highlight {color:#3b4252}</style>
  </defs>
  <path
     style="fill:currentColor;stroke-width:1.2"
     class="ColorScheme-Text"
     d="m 12.000006,2.3999657 c -0.23112,0 -0.459678,0.012214 -0.686718,0.028124 -0.02844,0.0021 -0.05581,0.00233 -0.08437,0.00469 -3.4293599,0.270624 -6.334984,2.33136 -7.8023441,5.25 C 3.3316327,7.871722 3.2349486,8.0611008 3.1523525,8.2570008 2.7029405,9.2718412 2.4583992,10.347449 2.4140712,11.474969 c -0.00194,0.03642 -0.00314,0.07362 -0.00469,0.11016 -0.00296,0.107712 -0.00775,0.214814 -0.00703,0.323438 -2.785e-4,0.03047 -0.00234,0.06088 -0.00234,0.0914 0,1.116264 0.1988617,2.183205 0.5460937,3.178126 0.13974,0.446015 0.3002753,0.896019 0.4945313,1.352343 0.483876,1.136772 0.54489,1.445752 0.46875,2.395312 -0.053051,0.66162 -0.2328473,1.337689 -0.4570313,1.717969 -0.203256,0.344856 -0.365625,0.701599 -0.365625,0.792187 0,0.280104 1.6167789,0.181576 3.0492181,-0.185156 1.67808,-0.429624 1.8256428,-0.42938 3.2015628,0.0024 0.6294364,0.19752 1.3458902,0.303448 2.1562502,0.332812 0.0339,0.0017 0.06913,0.0034 0.103128,0.0047 0.11088,0.0036 0.218213,0.0094 0.332813,0.0094 0.0094,0 0.01648,6.8e-5 0.02578,0 0.01477,6.6e-5 0.02974,0 0.04453,0 0.268068,0 0.532139,-0.01382 0.794531,-0.03516 2.37336,-0.16878 4.279673,-1.045762 5.995313,-2.758594 1.4136,-1.4112 2.290519,-3.152741 2.636719,-4.975782 0.0319,-0.166596 0.05647,-0.336654 0.07969,-0.50625 0.01404,-0.104112 0.02926,-0.20727 0.03984,-0.311718 0.02327,-0.224004 0.0368,-0.451268 0.04453,-0.679688 0.0017,-0.05756 0.0041,-0.113508 0.0047,-0.171094 8.33e-4,-0.05363 0.0047,-0.107928 0.0047,-0.161747 0,-5.2296 -4.140477,-9.4534087 -9.335157,-9.5929687 -0.04032,-0.0018 -0.08143,-0.0017 -0.121874,-0.00234 -0.048,-6.994e-4 -0.09485,-0.00469 -0.142969,-0.00469 z m -2.9999999,4.8 c 0.9941123,0 1.7999999,0.8058875 1.7999999,1.7999999 0,0.6 0,1.7999994 -1.2,1.7999994 0,1.2 2.437876,3.534869 3.6,3.6 0,-1.2 1.2,-1.2 1.8,-1.2 0.994112,0 1.8,0.805888 1.8,1.8 0,0.994113 -0.805888,1.8 -1.8,1.8 H 14.32735 C 13.971773,16.792175 13.557299,16.660826 12.975006,16.448402 11.02747,15.73793 9.6754176,14.597406 8.2898496,12.496841 7.4827357,11.273221 7.204326,10.536835 7.200006,9.6210588 V 8.9999656 c 0,-0.9941124 0.8058876,-1.7999999 1.8000001,-1.7999999 z"
     id="path1" />
</svg>
