<?xml version="1.0" encoding="UTF-8" standalone="no"?>
<svg
   width="24"
   height="24"
   version="1"
   id="svg1"
   sodipodi:docname="whatsie-tray-attention.svg"
   xmlns:inkscape="http://www.inkscape.org/namespaces/inkscape"
   xmlns:sodipodi="http://sodipodi.sourceforge.net/DTD/sodipodi-0.dtd"
   xmlns="http://www.w3.org/2000/svg"
   xmlns:svg="http://www.w3.org/2000/svg">
  <sodipodi:namedview
     id="namedview1"
     pagecolor="#ffffff"
     bordercolor="#000000"
     borderopacity="0.25"
     inkscape:showpageshadow="2"
     inkscape:pageopacity="0.0"
     inkscape:pagecheckerboard="0"
     inkscape:deskcolor="#d1d1d1" />
  <defs
     id="defs1">
    <style
       id="current-color-scheme"
       type="text/css">.ColorScheme-Text {color:#d8dee9} .ColorScheme-Highlight {color:#3b4252}</style>
  </defs>
  <g
     transform="translate(1 1)"
     style=""
     id="g1">
    <path
       style="fill:currentColor;stroke-width:1.2"
       class="ColorScheme-Text"
       d="m 10.999848,1.4000203 c -0.231156,0 -0.459744,0.012214 -0.686724,0.028124 -0.02849,0.0021 -0.05591,0.00232 -0.08437,0.00469 -3.42888,0.27072 -6.33456,2.33148 -7.8018,5.25 -0.09492,0.189 -0.19164,0.37836 -0.2742,0.57432 -0.44952,1.01484 -0.69396,2.0904 -0.73836,3.2173207 -0.00194,0.03642 -0.00314,0.07362 -0.00469,0.11016 -0.00296,0.107712 -0.00775,0.214812 -0.00703,0.323436 -2.4e-4,0.0312 -0.00228,0.0624 -0.00228,0.0924 0,1.116264 0.198864,2.18316 0.546096,3.17808 0.08088,0.258144 0.188616,0.521544 0.285936,0.782808 a 3.6,3.6 0 0 1 1.56792,-0.3612 3.6,3.6 0 0 1 3.6,3.6 3.6,3.6 0 0 1 -0.45,1.7412 c 0.38244,0.01582 0.753264,0.112692 1.38744,0.311724 0.629436,0.19752 1.3458,0.303444 2.15628,0.332808 0.0339,0.0017 0.06913,0.0034 0.103128,0.0047 0.110916,0.0031 0.218244,0.0094 0.332808,0.0094 0.0094,0 0.01648,6.8e-5 0.02579,0 0.01477,6.6e-5 0.02974,0 0.04453,0 0.268068,0 0.53214,-0.01382 0.794532,-0.03516 2.37336,-0.16878 4.27968,-1.045764 5.99532,-2.75856 1.4136,-1.4112 2.29056,-3.15516 2.63676,-4.97808 0.0319,-0.166608 0.05647,-0.334308 0.07969,-0.503904 0.01404,-0.104112 0.02926,-0.207264 0.03984,-0.311724 0.02327,-0.224004 0.0368,-0.451272 0.04453,-0.679692 0.0017,-0.05756 0.0041,-0.115848 0.0047,-0.173436 0.0024,-0.054 0.006,-0.1056 0.006,-0.1596 0,-5.2296007 -4.14,-9.4533607 -9.3348,-9.5929207 -0.0408,-0.0012 -0.0816,-0.0018 -0.1224,-0.0024 -0.048,-7.2e-4 -0.0948,-0.00468 -0.1428,-0.00468 z m -6,7.2 a 2.4,2.4 0 0 1 2.4,2.3999997 2.4,2.4 0 0 1 -2.4,2.4 2.4,2.4 0 0 1 -2.4,-2.4 2.4,2.4 0 0 1 2.4,-2.3999997 z m 6,0 a 2.4,2.4 0 0 1 2.4,2.3999997 2.4,2.4 0 0 1 -2.4,2.4 2.4,2.4 0 0 1 -2.4,-2.4 2.4,2.4 0 0 1 2.4,-2.3999997 z m 6,0 a 2.4,2.4 0 0 1 2.4,2.3999997 2.4,2.4 0 0 1 -2.4,2.4 2.4,2.4 0 0 1 -2.4,-2.4 2.4,2.4 0 0 1 2.4,-2.3999997 z"
       id="path1" />
    <circle
       style="fill:currentColor;stroke-width:1.2"
       class="ColorScheme-Text"
       cx="3.7998481"
       cy="18.20002"
       r="2.4000001"
       id="circle1" />
  </g>
</svg>
