<?xml version="1.0" encoding="UTF-8" standalone="no"?>
<svg
   width="24"
   height="24"
   version="1"
   id="svg1"
   sodipodi:docname="whatsie-tray.svg"
   xmlns:inkscape="http://www.inkscape.org/namespaces/inkscape"
   xmlns:sodipodi="http://sodipodi.sourceforge.net/DTD/sodipodi-0.dtd"
   xmlns="http://www.w3.org/2000/svg"
   xmlns:svg="http://www.w3.org/2000/svg">
  <sodipodi:namedview
     id="namedview1"
     pagecolor="#ffffff"
     bordercolor="#000000"
     borderopacity="0.25"
     inkscape:showpageshadow="2"
     inkscape:pageopacity="0.0"
     inkscape:pagecheckerboard="0"
     inkscape:deskcolor="#d1d1d1" />
  <defs
     id="defs1">
    <style
       id="current-color-scheme"
       type="text/css">.ColorScheme-Text {color:#d8dee9} .ColorScheme-Highlight {color:#3b4252}</style>
  </defs>
  <path
     style="fill:currentColor;stroke-width:1.2"
     class="ColorScheme-Text"
     d="m 11.999884,2.4000511 c -0.231156,0 -0.459744,0.012214 -0.686724,0.028124 -0.02849,0.0021 -0.05591,0.00232 -0.08437,0.00469 -3.42936,0.270624 -6.33504,2.33148 -7.8024,5.25 -0.094938,0.18894 -0.191628,0.378312 -0.274224,0.574224 -0.449412,1.01484 -0.693948,2.0903999 -0.738276,3.2179199 -0.00194,0.03642 -0.00314,0.07362 -0.00469,0.11016 -0.00296,0.107712 -0.00775,0.214812 -0.00703,0.323436 -2.4e-4,0.03 -0.00228,0.0612 -0.00228,0.0912 0,1.116264 0.198864,2.18316 0.546096,3.17808 0.13974,0.446016 0.300276,0.895968 0.494532,1.3524 0.483876,1.136772 0.544884,1.44576 0.468744,2.39532 -0.053051,0.66162 -0.232848,1.33764 -0.457032,1.71792 -0.203256,0.344856 -0.365628,0.701604 -0.365628,0.792192 0,0.280104 1.61688,0.181572 3.0492,-0.18516 1.67808,-0.429624 1.82556,-0.429372 3.2016,0.0024 0.629436,0.19752 1.3458,0.303444 2.15628,0.332808 0.0339,0.0017 0.06913,0.0034 0.103128,0.0047 0.110916,0.0031 0.218244,0.0094 0.332808,0.0094 0.0094,0 0.01648,6.9e-5 0.02578,0 0.01477,6.6e-5 0.02974,0 0.04453,0 0.268068,0 0.53214,-0.01382 0.794532,-0.03516 2.37336,-0.16878 4.27968,-1.045764 5.99532,-2.75856 1.4136,-1.4112 2.29056,-3.15516 2.63676,-4.97808 0.0319,-0.166608 0.05647,-0.334308 0.07969,-0.503904 0.01404,-0.104112 0.02926,-0.207264 0.03984,-0.311724 0.02327,-0.224004 0.0368,-0.451272 0.04453,-0.679692 0.0017,-0.05756 0.0041,-0.115848 0.0047,-0.173436 0.0024,-0.054 0.006,-0.1056 0.006,-0.1596 0,-5.2297199 -4.14,-9.4533599 -9.3348,-9.5930399 -0.0408,-0.00108 -0.0816,-0.00168 -0.1224,-0.00228 -0.048,-7.2e-4 -0.0948,-0.00468 -0.1428,-0.00468 z m -6,7.2 a 2.4,2.4 0 0 1 2.4,2.3999999 2.4,2.4 0 0 1 -2.4,2.4 2.4,2.4 0 0 1 -2.4,-2.4 2.4,2.4 0 0 1 2.4,-2.3999999 z m 6,0 a 2.4,2.4 0 0 1 2.4,2.3999999 2.4,2.4 0 0 1 -2.4,2.4 2.4,2.4 0 0 1 -2.4,-2.4 2.4,2.4 0 0 1 2.4,-2.3999999 z m 6,0 a 2.4,2.4 0 0 1 2.4,2.3999999 2.4,2.4 0 0 1 -2.4,2.4 2.4,2.4 0 0 1 -2.4,-2.4 2.4,2.4 0 0 1 2.4,-2.3999999 z"
     id="path1" />
</svg>
