<?xml version="1.0" encoding="UTF-8" standalone="no"?>
<svg
   width="24"
   height="24"
   version="1"
   id="svg1"
   sodipodi:docname="wire-tray.svg"
   xmlns:inkscape="http://www.inkscape.org/namespaces/inkscape"
   xmlns:sodipodi="http://sodipodi.sourceforge.net/DTD/sodipodi-0.dtd"
   xmlns="http://www.w3.org/2000/svg"
   xmlns:svg="http://www.w3.org/2000/svg">
  <sodipodi:namedview
     id="namedview1"
     pagecolor="#ffffff"
     bordercolor="#000000"
     borderopacity="0.25"
     inkscape:showpageshadow="2"
     inkscape:pageopacity="0.0"
     inkscape:pagecheckerboard="0"
     inkscape:deskcolor="#d1d1d1" />
  <defs
     id="defs1">
    <style
       id="current-color-scheme"
       type="text/css">.ColorScheme-Text {color:#d8dee9} .ColorScheme-Highlight {color:#3b4252}</style>
  </defs>
  <path
     style="fill:currentColor;stroke-width:1.2"
     class="ColorScheme-Text"
     d="m 12,2.4 c -5.3184,0 -9.6,4.2816 -9.6,9.6 0,5.3184 4.2816,9.6 9.6,9.6 5.3184,0 9.6,-4.2816 9.6,-9.6 C 21.6,6.6816 17.3184,2.4 12,2.4 Z M 6,7.2 h 1.2 v 6.49452 c 0,0 -0.00191,0.429804 0.3375,0.90234 0.33948,0.4728 1.00176,1.0032 2.66256,1.0032 0.12684,0 0.163416,-0.0433 0.278904,-0.04922 -0.08556,-0.09193 -0.24828,-0.158292 -0.316404,-0.253128 -0.5604,-0.78 -0.5628,-1.6032 -0.5628,-1.6032 v -5.20776 l 0.00468,-0.03516 c 0,0 0.028596,-0.173544 0.100776,-0.316404 0.072,-0.1428 0.1956,-0.3102 0.384,-0.45696 0.378,-0.2934 0.978,-0.49164 1.92,-0.47808 0.93612,0.013428 1.51896,0.20964 1.89144,0.48984 0.186252,0.1401 0.31218,0.301176 0.386724,0.440628 0.07454,0.139452 0.107808,0.314064 0.107808,0.314064 l 0.0047,0.03984 v 5.21016 c 0,0 -0.0019,0.822696 -0.5625,1.60308 -0.06811,0.09484 -0.230844,0.161196 -0.316404,0.253128 0.1152,0.006 0.1512,0.0492 0.2784,0.0492 1.6608,0 2.3232,-0.5304 2.6628,-1.0032 0.3396,-0.4728 0.3372,-0.9024 0.3372,-0.9024 v -6.4944 h 1.2 v 6.49452 c 0,0 -0.0019,0.822696 -0.5625,1.60308 -0.5604,0.78 -1.698,1.5024 -3.6372,1.5024 -0.7464,0 -1.278,-0.1776 -1.8,-0.354 -0.522,0.1764 -1.0536,0.354 -1.8,0.354 -1.93932,0 -3.07692,-0.7224 -3.63744,-1.5024 -0.56064,-0.78 -0.56256,-1.6032 -0.56256,-1.6032 v -6.4944 z m 5.99064,1.2 c -0.76686,-0.01104 -1.066932,0.150648 -1.1625,0.225 -0.02606,0.02028 -0.02165,0.019704 -0.02813,0.028128 v 5.04144 c 0,0 -0.0019,0.429792 0.3375,0.90234 0.172116,0.239616 0.436212,0.491688 0.8625,0.684372 0.426276,-0.192684 0.690396,-0.444768 0.8625,-0.684372 0.3396,-0.4728 0.3372,-0.9024 0.3372,-0.9024 v -5.0274 c -0.0078,-0.00792 5.5e-5,-0.00228 -0.01876,-0.016404 -0.0996,-0.07512 -0.4176,-0.23952 -1.1904,-0.25056 z"
     id="path1" />
</svg>
