<?xml version="1.0" encoding="UTF-8" standalone="no"?>
<svg
   width="24"
   height="24"
   version="1"
   id="svg2"
   sodipodi:docname="workrave-indicator-suspended.svg"
   xmlns:inkscape="http://www.inkscape.org/namespaces/inkscape"
   xmlns:sodipodi="http://sodipodi.sourceforge.net/DTD/sodipodi-0.dtd"
   xmlns="http://www.w3.org/2000/svg"
   xmlns:svg="http://www.w3.org/2000/svg">
  <sodipodi:namedview
     id="namedview2"
     pagecolor="#ffffff"
     bordercolor="#000000"
     borderopacity="0.25"
     inkscape:showpageshadow="2"
     inkscape:pageopacity="0.0"
     inkscape:pagecheckerboard="0"
     inkscape:deskcolor="#d1d1d1" />
  <defs
     id="defs1">
    <style
       id="current-color-scheme"
       type="text/css">.ColorScheme-Text {color:#d8dee9} .ColorScheme-Highlight {color:#3b4252}</style>
  </defs>
  <path
     style="fill:currentColor;stroke-width:1.2"
     class="ColorScheme-Text"
     d="m 4.2673,0.94303 -1.6992,1.6992 20.3652,20.3652 1.6992,-1.6992 z m 9.3324,1.43196 A 4.8,4.8 0 0 0 9.57826,4.55947 l 1.62192,1.62192 V 5.975134 h 1.2 v -1.2 h 2.4 v 1.2 h 1.2 v 2.4 h -1.2 v 1.2 h -0.206256 l 1.61952,1.61952 a 4.8,4.8 0 0 0 2.18676,-4.01952 4.8,4.8 0 0 0 -4.8,-4.8 z m -0.953904,12.0396 c -8.61972,0.409704 -8.64612,6.13356 -8.64612,6.13356 v 1.026564 h 15.8064 l -7.16016,-7.16016 z"
     id="path1" />
  <g
     transform="translate(-39.549 -8.213)"
     style=""
     id="g2">
    <path
       style="fill:currentColor;stroke-width:1.2"
       class="ColorScheme-Text"
       d="m 27.9679,21.41847 1.6968,1.6968 -2.1516,2.1516 h 6.2064 v 2.4 h -6.2064 l 2.1516,2.1516 -1.6968,1.6968 -5.0484,-5.0484 z"
       id="path2" />
  </g>
</svg>
