<?xml version="1.0" encoding="UTF-8" standalone="no"?>
<svg
   width="24"
   height="24"
   version="1"
   id="svg1"
   sodipodi:docname="workrave-indicator.svg"
   xmlns:inkscape="http://www.inkscape.org/namespaces/inkscape"
   xmlns:sodipodi="http://sodipodi.sourceforge.net/DTD/sodipodi-0.dtd"
   xmlns="http://www.w3.org/2000/svg"
   xmlns:svg="http://www.w3.org/2000/svg">
  <sodipodi:namedview
     id="namedview1"
     pagecolor="#ffffff"
     bordercolor="#000000"
     borderopacity="0.25"
     inkscape:showpageshadow="2"
     inkscape:pageopacity="0.0"
     inkscape:pagecheckerboard="0"
     inkscape:deskcolor="#d1d1d1" />
  <defs
     id="defs1">
    <style
       id="current-color-scheme"
       type="text/css">.ColorScheme-Text {color:#d8dee9} .ColorScheme-Highlight {color:#3b4252}</style>
  </defs>
  <path
     style="fill:currentColor;stroke-width:1.2"
     class="ColorScheme-Text"
     d="M 12,2.4 A 4.8,4.8 0 0 0 7.2,7.2 4.8,4.8 0 0 0 12,12 4.8,4.8 0 0 0 16.8,7.2 4.8,4.8 0 0 0 12,2.4 Z m -1.2,2.4 h 2.4 V 6 h 1.2 V 8.4 H 13.2 V 9.6 H 10.8 V 8.4 H 9.6 V 6 h 1.2 z M 12,14.4 C 2.39952,14.4048 2.4,20.574 2.4,20.574 V 21.6 h 19.2 v -1.026564 c 0,0 -3.68e-4,-6.17808 -9.6,-6.1734 z"
     id="path1" />
</svg>
