<?xml version="1.0" encoding="UTF-8" standalone="no"?>
<svg
   width="24"
   height="24"
   version="1.1"
   id="svg2"
   sodipodi:docname="x-tile-panel.svg"
   xmlns:inkscape="http://www.inkscape.org/namespaces/inkscape"
   xmlns:sodipodi="http://sodipodi.sourceforge.net/DTD/sodipodi-0.dtd"
   xmlns="http://www.w3.org/2000/svg"
   xmlns:svg="http://www.w3.org/2000/svg">
  <sodipodi:namedview
     id="namedview2"
     pagecolor="#ffffff"
     bordercolor="#000000"
     borderopacity="0.25"
     inkscape:showpageshadow="2"
     inkscape:pageopacity="0.0"
     inkscape:pagecheckerboard="0"
     inkscape:deskcolor="#d1d1d1" />
  <defs
     id="defs1">
    <style
       id="current-color-scheme"
       type="text/css">.ColorScheme-Text {color:#d8dee9} .ColorScheme-Highlight {color:#3b4252}</style>
  </defs>
  <path
     style="fill:currentColor;stroke-width:1.2"
     class="ColorScheme-Text"
     d="M 2.4,4.8 V 9 c 0,0.9972 0.8028,1.8 1.8,1.8 H 9 c 0.9972,0 1.8,-0.8028 1.8,-1.8 V 4.8 Z m 10.8,0 V 9 c 0,0.9972 0.8028,1.8 1.8,1.8 h 4.8 c 0.9972,0 1.8,-0.8028 1.8,-1.8 V 4.8 Z M 2.4,15.6 v 4.2 c 0,0.9972 0.8028,1.8 1.8,1.8 H 9 c 0.9972,0 1.8,-0.8028 1.8,-1.8 v -4.2 z m 10.8,0 v 4.2 c 0,0.9972 0.8028,1.8 1.8,1.8 h 4.8 c 0.9972,0 1.8,-0.8028 1.8,-1.8 v -4.2 z"
     id="path1" />
  <path
     style="opacity:0.35;fill:currentColor;stroke-width:1.2"
     class="ColorScheme-Text"
     d="M 4.2,2.4 C 3.2028,2.4 2.4,3.2028 2.4,4.2 v 0.6 h 8.4 V 4.2 C 10.8,3.2028 9.9972,2.4 9,2.4 Z m 10.8,0 c -0.9972,0 -1.8,0.8028 -1.8,1.8 v 0.6 h 8.4 V 4.2 C 21.6,3.2028 20.7972,2.4 19.8,2.4 Z M 4.2,13.2 c -0.9972,0 -1.8,0.8028 -1.8,1.8 v 0.6 h 8.4 V 15 C 10.8,14.0028 9.9972,13.2 9,13.2 Z m 10.8,0 c -0.9972,0 -1.8,0.8028 -1.8,1.8 v 0.6 h 8.4 V 15 c 0,-0.9972 -0.8028,-1.8 -1.8,-1.8 z"
     id="path2" />
</svg>
