<?xml version="1.0" encoding="UTF-8" standalone="no"?>
<svg
   width="24"
   height="24"
   version="1.1"
   id="svg2"
   sodipodi:docname="xfce4-fsguard-plugin-urgent.svg"
   xmlns:inkscape="http://www.inkscape.org/namespaces/inkscape"
   xmlns:sodipodi="http://sodipodi.sourceforge.net/DTD/sodipodi-0.dtd"
   xmlns="http://www.w3.org/2000/svg"
   xmlns:svg="http://www.w3.org/2000/svg">
  <sodipodi:namedview
     id="namedview2"
     pagecolor="#ffffff"
     bordercolor="#000000"
     borderopacity="0.25"
     inkscape:showpageshadow="2"
     inkscape:pageopacity="0.0"
     inkscape:pagecheckerboard="0"
     inkscape:deskcolor="#d1d1d1" />
  <defs
     id="defs1">
    <style
       id="current-color-scheme"
       type="text/css">.ColorScheme-Text {color:#d8dee9} .ColorScheme-Highlight {color:#3b4252}</style>
  </defs>
  <g
     transform="translate(1,1)"
     style=""
     id="g1">
    <path
       style="fill:currentColor;stroke-width:1.2"
       class="ColorScheme-Text"
       d="m 3.4000242,1.3 c -0.6648,0 -1.2,0.5352 -1.2,1.2 v 16.8 c 0,0.6648 0.5352,1.2 1.2,1.2 h 8.4070308 c -3.5e-4,-0.02762 -0.0076,-0.05434 -0.007,-0.08203 0.0084,-0.38528 0.102334,-0.764797 0.28125,-1.110938 l 2.151563,-4.171875 2.151562,-4.174219 c 0.359809,-0.697302 1.062819,-1.2092254 1.884375,-1.2585934 h 0.0023 0.0023 c 0.08006,-0.00456 0.161331,-0.00432 0.241407,0 0.168588,0.00888 0.328185,0.05058 0.485156,0.096094 V 2.5 c 0,-0.6648 -0.5352,-1.2 -1.2,-1.2 z m 7.1999998,3.6 c 2.650967,0 4.8,2.1490332 4.8,4.8 0,2.650967 -2.149033,4.8 -4.8,4.8 H 5.8000242 V 9.7 c 0,-2.6509668 2.1490332,-4.8 4.7999998,-4.8 z m 0,2.4 c -1.3254838,0 -2.3999998,1.0745166 -2.3999998,2.4 0,1.325483 1.0745172,2.4 2.3999998,2.4 1.325483,0 2.4,-1.074517 2.4,-2.4 0,-1.3254834 -1.074517,-2.4 -2.4,-2.4 z"
       id="path1" />
  </g>
  <path
     style="fill:currentColor;stroke-width:1.2"
     class="ColorScheme-Text"
     d="m 19.341431,11.9 a 1.0964263,1.2275142 0 0 0 -0.890626,0.611719 l -2.151562,4.174218 -2.151562,4.171876 A 1.0964263,1.2275142 0 0 0 14.000024,21.44375 1.0964263,1.2275142 0 0 0 15.096899,22.7 h 4.303125 4.303126 a 1.0964263,1.2275142 0 0 0 0.949218,-1.842187 L 22.500805,16.685937 20.349243,12.511719 A 1.0964263,1.2275142 0 0 0 19.451587,11.9 a 1.0964263,1.2275142 0 0 0 -0.110156,0 z m -0.541407,2.4 h 1.2 v 4.8 h -1.2 z m 0,6 h 1.2 v 1.2 h -1.2 z"
     id="path2" />
</svg>
