<?xml version="1.0" encoding="UTF-8" standalone="no"?>
<svg
   width="24"
   height="24"
   version="1.1"
   id="svg1"
   sodipodi:docname="xfce4-whiskermenu.svg"
   xmlns:inkscape="http://www.inkscape.org/namespaces/inkscape"
   xmlns:sodipodi="http://sodipodi.sourceforge.net/DTD/sodipodi-0.dtd"
   xmlns="http://www.w3.org/2000/svg"
   xmlns:svg="http://www.w3.org/2000/svg">
  <sodipodi:namedview
     id="namedview1"
     pagecolor="#ffffff"
     bordercolor="#000000"
     borderopacity="0.25"
     inkscape:showpageshadow="2"
     inkscape:pageopacity="0.0"
     inkscape:pagecheckerboard="0"
     inkscape:deskcolor="#d1d1d1" />
  <defs
     id="defs1">
    <style
       id="current-color-scheme"
       type="text/css">.ColorScheme-Text {color:#d8dee9} .ColorScheme-Highlight {color:#3b4252}</style>
  </defs>
  <path
     style="fill:currentColor;stroke-width:1.2"
     class="ColorScheme-Text"
     d="M 9.865408,3.600413 C 9.5885128,3.606341 9.3702402,3.6899495 9.2935326,3.6894755 7.5210281,3.9357571 8.6525738,5.7941138 9.4036889,8.0980693 9.4678168,8.6878322 7.6488555,8.441501 7.2450952,7.8238504 5.8833532,4.5281944 5.5200864,4.8962485 5.1404076,4.800413 4.776726,4.7262458 3.513907,5.3609629 3.5419701,6.694163 c 0.0048,0.3829859 0.2471765,2.5476096 0.2507813,3.1078131 -1.5964476,2.7115649 -2.2470782,5.3955579 -0.2460938,8.1703119 1.4338446,1.878843 4.8806804,2.466198 7.1414064,2.425782 4.81118,0.0019 7.150518,-2.612503 9.907031,-4.746094 2.105409,-1.721845 -0.05393,-3.890451 -0.5625,-4.192969 C 15.670485,8.6377106 12.003137,9.225191 11.944313,8.7777566 11.913461,8.260594 11.932673,6.8228864 11.857601,6.3121317 11.561526,3.9353265 10.474571,3.5861848 9.865408,3.600413 Z m 9.114844,0 C 18.086691,3.7392122 17.648126,8.8001978 18.047439,9.5652566 19.418171,8.703689 19.155522,4.8820819 18.980252,3.600413 Z m 3.525,1.1742187 c -2.829538,3.7196321 -2.158869,3.0244492 -2.866407,6.0093753 0.269946,0.36936 3.930943,-5.5684539 2.866407,-6.0093753 z m -10.60547,6.0257813 a 1.2,1.2 0 0 1 1.2,1.2 1.2,1.2 0 0 1 -1.2,1.2 1.2,1.2 0 0 1 -1.2,-1.2 1.2,1.2 0 0 1 1.2,-1.2 z"
     id="path1" />
</svg>
