<?xml version="1.0" encoding="UTF-8" standalone="no"?>
<svg
   width="24"
   height="24"
   version="1.1"
   id="svg3"
   sodipodi:docname="xfpm-mouse-040.svg"
   xmlns:inkscape="http://www.inkscape.org/namespaces/inkscape"
   xmlns:sodipodi="http://sodipodi.sourceforge.net/DTD/sodipodi-0.dtd"
   xmlns="http://www.w3.org/2000/svg"
   xmlns:svg="http://www.w3.org/2000/svg">
  <sodipodi:namedview
     id="namedview3"
     pagecolor="#ffffff"
     bordercolor="#000000"
     borderopacity="0.25"
     inkscape:showpageshadow="2"
     inkscape:pageopacity="0.0"
     inkscape:pagecheckerboard="0"
     inkscape:deskcolor="#d1d1d1" />
  <defs
     id="defs1">
    <style
       id="current-color-scheme"
       type="text/css">.ColorScheme-Text {color:#d8dee9} .ColorScheme-Highlight {color:#3b4252}</style>
  </defs>
  <g
     transform="translate(-104 -768.36)"
     style=""
     id="g3">
    <path
       opacity="0.35"
       style="fill:currentColor;stroke-width:1.2"
       class="ColorScheme-Text"
       d="m 108,770.75983 c -0.33241,0 -0.6,0.26761 -0.6,0.60001 v 0.6 l -2.4,-0.002 v -3.1e-4 l -1e-5,17.4024 c 0,0.3324 0.26759,0.6 0.6,0.6 h 7.2 c 0.33239,0 0.6,-0.2676 0.6,-0.6 l 1e-5,-17.4012 -0.60001,0.002 h -1.8 v -0.6 c 0,-0.3324 -0.26761,-0.60001 -0.6,-0.60001 z"
       id="path1" />
    <path
       style="fill:currentColor;stroke-width:1.2"
       class="ColorScheme-Text"
       d="m 105,782.75983 -1e-5,6.60204 c -1e-5,0.3324 0.26759,0.6 0.6,0.6 h 7.2 c 0.33239,0 0.6,-0.2676 0.6,-0.6 l 1e-5,-6.60204 z"
       id="path2" />
    <path
       style="fill:currentColor;stroke-width:1.2"
       class="ColorScheme-Text"
       d="m 121.8,770.75983 c -3.324,0 -6,3.2112 -6,7.2 h 6 z m 1.2,0 v 7.2 h 6 c 0,-3.9888 -2.676,-7.2 -6,-7.2 z m -7.2,8.4 v 3.6 c 0,3.9888 2.676,7.2 6,7.2 h 1.2 c 3.324,0 6,-3.2112 6,-7.2 v -3.6 h -6 z"
       id="path3" />
  </g>
</svg>
