<?xml version="1.0" encoding="UTF-8" standalone="no"?>
<svg
   width="24"
   height="24"
   version="1.1"
   id="svg1"
   sodipodi:docname="yaradio-yamusic-tray.svg"
   xmlns:inkscape="http://www.inkscape.org/namespaces/inkscape"
   xmlns:sodipodi="http://sodipodi.sourceforge.net/DTD/sodipodi-0.dtd"
   xmlns="http://www.w3.org/2000/svg"
   xmlns:svg="http://www.w3.org/2000/svg">
  <sodipodi:namedview
     id="namedview1"
     pagecolor="#ffffff"
     bordercolor="#000000"
     borderopacity="0.25"
     inkscape:showpageshadow="2"
     inkscape:pageopacity="0.0"
     inkscape:pagecheckerboard="0"
     inkscape:deskcolor="#d1d1d1" />
  <defs
     id="defs1">
    <style
       id="current-color-scheme"
       type="text/css">.ColorScheme-Text {color:#d8dee9} .ColorScheme-Highlight {color:#3b4252}</style>
  </defs>
  <path
     style="fill:currentColor;stroke-width:1.2"
     class="ColorScheme-Text"
     d="M 12,2.4 A 9.6,9.6 0 0 0 2.4,12 9.6,9.6 0 0 0 11.142187,21.539063 6,6 0 0 1 6,15.6 a 6,6 0 0 1 6,-6 6,6 0 0 1 6,6 6,6 0 0 1 -5.142187,5.939063 A 9.6,9.6 0 0 0 21.6,12 9.6,9.6 0 0 0 12,2.4 Z m 0,12 A 3.6,3.6 0 0 0 8.4,18 3.6,3.6 0 0 0 12,21.6 3.6,3.6 0 0 0 15.6,18 3.6,3.6 0 0 0 12,14.4 Z"
     id="path1" />
</svg>
