<?xml version="1.0" encoding="UTF-8" standalone="no"?>
<svg
   width="24"
   height="24"
   version="1.1"
   id="svg2"
   sodipodi:docname="yate-tray-notification.svg"
   xmlns:inkscape="http://www.inkscape.org/namespaces/inkscape"
   xmlns:sodipodi="http://sodipodi.sourceforge.net/DTD/sodipodi-0.dtd"
   xmlns="http://www.w3.org/2000/svg"
   xmlns:svg="http://www.w3.org/2000/svg">
  <sodipodi:namedview
     id="namedview2"
     pagecolor="#ffffff"
     bordercolor="#000000"
     borderopacity="0.25"
     inkscape:showpageshadow="2"
     inkscape:pageopacity="0.0"
     inkscape:pagecheckerboard="0"
     inkscape:deskcolor="#d1d1d1" />
  <defs
     id="defs1">
    <style
       id="current-color-scheme"
       type="text/css">.ColorScheme-Text {color:#d8dee9} .ColorScheme-Highlight {color:#3b4252}</style>
  </defs>
  <path
     style="opacity:0.35;fill:currentColor;stroke-width:1.2"
     class="ColorScheme-Text"
     d="M 11.722252,2.2022724 C 9.1803848,2.244486 7.1993933,3.1885076 5.3238148,5.0499286 3.2965973,7.0618446 2.5666173,8.9095258 2.5745961,12.003835 c 0.00295,1.156408 0.1116492,2.079725 0.3164063,2.880468 0.3500906,-0.384468 0.839555,-0.646693 1.3898437,-0.679687 0.8323509,-0.04986 1.5896689,0.439859 1.95,1.136719 a 1.20012,1.20012 0 0 0 0,0.0024 l 1.6570313,3.213281 1.2117187,2.341406 c 0.2768933,0.07895 0.5669573,0.17295 0.8062502,0.225 1.1343827,0.246753 1.5001657,0.313857 2.7914057,0.260157 2.714973,-0.112896 4.553418,-0.873461 6.288282,-2.601563 1.7485,-1.741686 2.621869,-3.836159 2.791406,-6.691405 C 22.080456,6.978912 19.348288,3.37937 14.466784,2.4600849 13.478353,2.2739436 12.569542,2.1882014 11.722252,2.2022724 Z M 9.2425648,5.7999286 c 0.3188353,0 0.8897212,0.6806147 1.3171882,1.5679688 0.465872,0.9670972 0.46113,1.2599572 -0.0211,1.577344 -0.6374643,0.4195656 -1.1625006,0.9875748 -1.1625006,1.2562496 0,0.13873 0.402992,0.674757 0.8953116,1.190625 0.804737,0.843225 0.935852,1.067467 1.303126,2.23125 0.229354,0.72675 0.518159,1.362834 0.658594,1.450782 0.197922,0.12395 0.445016,0.05105 1.178906,-0.353907 l 0.295312,-0.164062 c 0.581676,-0.320962 0.645745,-0.437963 1.045312,0.164062 0.227529,0.281494 0.581172,0.864696 0.785157,1.296094 0.442331,0.935459 0.365505,1.14967 -0.539063,1.511719 -2.017205,0.807371 -3.161861,-0.0593 -5.5523432,-4.197656 C 7.4431887,9.8623558 7.0550331,8.545609 7.6652211,7.3046161 7.9841967,6.6558828 8.8818304,5.7999286 9.2425648,5.7999286 Z"
     id="path1" />
  <path
     style="fill:currentColor;stroke-width:1.2"
     class="ColorScheme-Text"
     d="m 4.4402211,15.399929 a 0.88237511,0.98680225 0 0 0 -0.086719,0.0024 0.88237511,0.98680225 0 0 0 -0.7171876,0.489843 L 1.9745963,19.105398 0.317565,22.321022 a 0.88237511,0.98680225 0 0 0 0.7640626,1.478907 h 3.31875 3.31875 A 0.88237511,0.98680225 0 0 0 8.4831899,22.321022 L 6.8214711,19.105398 5.1644399,15.892116 A 0.88237511,0.98680225 0 0 0 4.4402211,15.399929 Z m -0.6398437,1.2 h 1.2 v 3.6 h -1.2 z m 0,4.8 h 1.2 v 1.2 h -1.2 z"
     id="path2" />
</svg>
