<?xml version="1.0" encoding="UTF-8" standalone="no"?>
<svg
   width="24"
   height="24"
   version="1.1"
   id="svg2"
   sodipodi:docname="yate-tray-info.svg"
   xmlns:inkscape="http://www.inkscape.org/namespaces/inkscape"
   xmlns:sodipodi="http://sodipodi.sourceforge.net/DTD/sodipodi-0.dtd"
   xmlns="http://www.w3.org/2000/svg"
   xmlns:svg="http://www.w3.org/2000/svg">
  <sodipodi:namedview
     id="namedview2"
     pagecolor="#ffffff"
     bordercolor="#000000"
     borderopacity="0.25"
     inkscape:showpageshadow="2"
     inkscape:pageopacity="0.0"
     inkscape:pagecheckerboard="0"
     inkscape:deskcolor="#d1d1d1" />
  <defs
     id="defs1">
    <style
       id="current-color-scheme"
       type="text/css">.ColorScheme-Text {color:#d8dee9} .ColorScheme-Highlight {color:#3b4252}</style>
  </defs>
  <path
     style="opacity:0.35;fill:currentColor;stroke-width:1.2"
     class="ColorScheme-Text"
     d="M 11.721922,2.2022724 C 9.1800545,2.244486 7.1990631,3.1885076 5.3234846,5.0499286 3.2962671,7.0618446 2.566287,8.9095258 2.5742658,12.003835 c 0.00244,0.9522 0.076036,1.74751 0.2132813,2.449219 a 5.4,5.4 0 0 1 1.6125,-0.253125 5.4,5.4 0 0 1 5.4,5.4 5.4,5.4 0 0 1 -0.2015625,1.439062 c 0.098401,0.02432 0.2160057,0.06457 0.3070317,0.08437 1.1343827,0.246753 1.5001657,0.313857 2.7914057,0.260157 2.714973,-0.112896 4.553418,-0.873461 6.288282,-2.601563 1.7485,-1.741686 2.621869,-3.836159 2.791406,-6.691405 C 22.080126,6.978912 19.347958,3.37937 14.466454,2.4600849 13.478023,2.2739436 12.569212,2.1882014 11.721922,2.2022724 Z M 9.2422346,5.7999286 c 0.3188353,0 0.8897204,0.6806147 1.3171884,1.5679688 0.465872,0.9670972 0.46113,1.2599572 -0.0211,1.577344 -0.6374643,0.4195656 -1.1625009,0.9875748 -1.1625009,1.2562496 0,0.13873 0.4029921,0.674757 0.8953119,1.190625 0.804737,0.843225 0.935852,1.067467 1.303126,2.23125 0.229354,0.72675 0.518159,1.362834 0.658594,1.450782 0.197922,0.12395 0.445016,0.05105 1.178906,-0.353907 l 0.295312,-0.164062 c 0.581676,-0.320962 0.645745,-0.437963 1.045312,0.164062 0.227529,0.281494 0.581172,0.864696 0.785157,1.296094 0.442331,0.935459 0.365505,1.14967 -0.539063,1.511719 -2.017205,0.807371 -3.161861,-0.0593 -5.5523434,-4.197656 C 7.4428584,9.8623558 7.0547028,8.545609 7.6648908,7.3046161 7.9838664,6.6558828 8.8815002,5.7999286 9.2422346,5.7999286 Z"
     id="path1" />
  <path
     style="fill:currentColor;stroke-width:1.2"
     class="ColorScheme-Text"
     d="m 4.4000471,15.399929 a 4.2,4.2 0 0 0 -4.19999998,4.2 4.2,4.2 0 0 0 4.19999998,4.2 4.2,4.2 0 0 0 4.2,-4.2 4.2,4.2 0 0 0 -4.2,-4.2 z m -0.6,1.2 h 1.2 v 1.2 h -1.2 z m 0,2.4 h 1.2 v 3.6 h -1.2 z"
     id="path2" />
</svg>
