<?xml version="1.0" encoding="UTF-8" standalone="no"?>
<svg
   width="24"
   height="24"
   version="1.1"
   id="svg1"
   sodipodi:docname="yate-tray-incomingchat.svg"
   xmlns:inkscape="http://www.inkscape.org/namespaces/inkscape"
   xmlns:sodipodi="http://sodipodi.sourceforge.net/DTD/sodipodi-0.dtd"
   xmlns="http://www.w3.org/2000/svg"
   xmlns:svg="http://www.w3.org/2000/svg">
  <sodipodi:namedview
     id="namedview1"
     pagecolor="#ffffff"
     bordercolor="#000000"
     borderopacity="0.25"
     inkscape:showpageshadow="2"
     inkscape:pageopacity="0.0"
     inkscape:pagecheckerboard="0"
     inkscape:deskcolor="#d1d1d1" />
  <defs
     id="defs1">
    <style
       id="current-color-scheme"
       type="text/css">.ColorScheme-Text {color:#d8dee9} .ColorScheme-Highlight {color:#3b4252}</style>
  </defs>
  <path
     style="fill:currentColor;stroke-width:1.2"
     class="ColorScheme-Text"
     d="M 11.621922,2.4024469 C 9.0800545,2.4446605 7.0990631,3.3886821 5.2234846,5.2501032 3.1962671,7.2620191 2.466287,9.1097004 2.4742658,12.20401 c 0.00371,1.451882 0.158924,2.553085 0.4875,3.475781 a 3.6,3.6 0 0 1 0.7382813,-0.07969 3.6,3.6 0 0 1 3.6,3.6 3.6,3.6 0 0 1 -0.2226563,1.230469 l 0.044531,0.0211 c 0.6349596,0.295974 1.8421958,0.688855 2.6835935,0.871874 1.1343837,0.246753 1.5001667,0.313857 2.7914067,0.260157 2.714973,-0.112896 4.553418,-0.873461 6.288282,-2.601563 1.7485,-1.741686 2.621869,-3.836159 2.791406,-6.691405 C 21.980126,7.1790865 19.247958,3.5795445 14.366454,2.6602595 13.378023,2.4741181 12.469212,2.3883759 11.621922,2.4024469 Z M 9.1422346,6.0001032 c 0.3188353,0 0.8897204,0.6806147 1.3171884,1.5679687 0.465872,0.9670973 0.46113,1.2599573 -0.0211,1.5773441 -0.6374643,0.4195656 -1.1625009,0.987575 -1.1625009,1.25625 0,0.13873 0.4029921,0.674757 0.8953119,1.190625 0.804737,0.843225 0.935852,1.067467 1.303126,2.23125 0.229354,0.72675 0.518159,1.362834 0.658594,1.450782 0.197922,0.12395 0.445016,0.05105 1.178906,-0.353907 l 0.295312,-0.164062 c 0.581676,-0.320962 0.645745,-0.437963 1.045312,0.164062 0.227529,0.281494 0.581172,0.864696 0.785157,1.296094 0.442331,0.935459 0.365505,1.14967 -0.539063,1.511719 C 12.881277,18.5356 11.736621,17.668925 9.3461386,13.530573 7.3428584,10.062531 6.9547028,8.7457836 7.5648908,7.5047906 7.8838664,6.8560573 8.7815002,6.0001032 9.1422346,6.0001032 Z"
     id="path1" />
  <circle
     style="fill:currentColor;stroke-width:1.2"
     class="ColorScheme-Text"
     cx="3.700047"
     cy="19.199804"
     r="2.4000001"
     id="circle1" />
</svg>
