<?xml version="1.0" encoding="UTF-8" standalone="no"?>
<svg
   width="24"
   height="24"
   version="1.1"
   id="svg1"
   sodipodi:docname="yate-tray.svg"
   xmlns:inkscape="http://www.inkscape.org/namespaces/inkscape"
   xmlns:sodipodi="http://sodipodi.sourceforge.net/DTD/sodipodi-0.dtd"
   xmlns="http://www.w3.org/2000/svg"
   xmlns:svg="http://www.w3.org/2000/svg">
  <sodipodi:namedview
     id="namedview1"
     pagecolor="#ffffff"
     bordercolor="#000000"
     borderopacity="0.25"
     inkscape:showpageshadow="2"
     inkscape:pageopacity="0.0"
     inkscape:pagecheckerboard="0"
     inkscape:deskcolor="#d1d1d1" />
  <defs
     id="defs1">
    <style
       id="current-color-scheme"
       type="text/css">.ColorScheme-Text {color:#d8dee9} .ColorScheme-Highlight {color:#3b4252}</style>
  </defs>
  <path
     style="fill:currentColor;stroke-width:1.2"
     class="ColorScheme-Text"
     d="M 11.622352,2.3963249 C 9.080484,2.4385385 7.0994928,3.3825602 5.2239144,5.2439812 3.1966968,7.2558971 2.4667164,9.1035781 2.4746952,12.197887 c 0.00516,2.019798 0.292524,3.377988 0.9515628,4.490624 l 0.3539064,0.597657 -0.88125,1.746093 c -0.4836912,0.960112 -1.5989064,2.453265 -1.5989064,2.562597 0,0.304137 1.9747524,-0.572071 3.4176564,-1.170408 l 1.2515628,-0.517969 1.1531244,0.539062 c 0.6349596,0.295974 1.8421956,0.688856 2.6835936,0.871875 1.1343828,0.246752 1.5001668,0.313856 2.7914068,0.260156 2.714973,-0.112896 4.553418,-0.873461 6.288282,-2.601563 1.7485,-1.741686 2.621869,-3.836158 2.791406,-6.691405 C 21.980556,7.1729648 19.248388,3.5734226 14.366884,2.6541375 13.378453,2.4679961 12.469642,2.382254 11.622352,2.3963249 Z M 9.1426644,5.9939812 c 0.3188352,0 0.8897206,0.6806146 1.3171876,1.5679686 0.465873,0.9670971 0.461128,1.2599571 -0.0211,1.5773439 -0.6374644,0.4195656 -1.1625004,0.9875743 -1.1625004,1.2562493 0,0.13873 0.4029924,0.674757 0.8953124,1.190625 0.804737,0.843225 0.935852,1.067467 1.303126,2.23125 0.229354,0.72675 0.518159,1.362834 0.658594,1.450782 0.197922,0.12395 0.445016,0.05105 1.178906,-0.353907 l 0.295312,-0.164062 c 0.581676,-0.320962 0.645745,-0.437963 1.045312,0.164062 0.227529,0.281494 0.581172,0.864696 0.785157,1.296094 0.442331,0.935459 0.365505,1.14967 -0.539063,1.511719 -2.017205,0.807372 -3.161861,-0.0593 -5.5523436,-4.197656 C 7.343286,10.056409 6.9551304,8.7396625 7.5653184,7.498669 7.884294,6.8499357 8.7819276,5.9939812 9.142662,5.9939812 Z"
     id="path1" />
</svg>
