<?xml version="1.0" encoding="UTF-8" standalone="no"?>
<svg
   width="24"
   height="24"
   version="1"
   id="svg1"
   sodipodi:docname="yd-ind-idle.svg"
   xmlns:inkscape="http://www.inkscape.org/namespaces/inkscape"
   xmlns:sodipodi="http://sodipodi.sourceforge.net/DTD/sodipodi-0.dtd"
   xmlns="http://www.w3.org/2000/svg"
   xmlns:svg="http://www.w3.org/2000/svg">
  <sodipodi:namedview
     id="namedview1"
     pagecolor="#ffffff"
     bordercolor="#000000"
     borderopacity="0.25"
     inkscape:showpageshadow="2"
     inkscape:pageopacity="0.0"
     inkscape:pagecheckerboard="0"
     inkscape:deskcolor="#d1d1d1" />
  <defs
     id="defs1">
    <style
       id="current-color-scheme"
       type="text/css">.ColorScheme-Text {color:#d8dee9} .ColorScheme-Highlight {color:#3b4252}</style>
  </defs>
  <path
     style="fill:currentColor;stroke-width:1.2"
     class="ColorScheme-Text"
     d="m 10.910196,4.8515321 c -4.2666674,0 -3.2740572,3.8978033 -5.4585935,5.0718756 -0.075293,0.04272 -0.1176288,0.082068 -0.1851563,0.1242183 C 6.7071036,9.1901189 8.4828156,8.4731456 10.36879,7.9874696 11.96588,7.576616 13.585798,7.3461191 15.079727,7.3171571 c 0.03839,-1.368e-4 0.07668,-1.368e-4 0.114844,0 -1.440696,-0.4093988 -1.598233,-2.465625 -4.284375,-2.465625 z m 4.65,3.5460937 c -1.493929,0.028968 -3.113847,0.2594578 -4.710937,0.6703126 -5.2637687,1.3545136 -9.0151704,4.3000186 -8.3789065,6.5789066 0.3666255,1.302244 2.1330831,2.161578 4.7648437,2.317968 -0.0012,-0.0098 -0.00361,-0.01827 -0.00469,-0.02812 -0.1420644,-1.232108 0.6396948,-2.303928 1.55625,-3.03047 0.9165557,-0.726543 2.0955238,-1.254102 3.4195318,-1.535156 1.324008,-0.281053 2.563698,-0.267469 3.6,0.04453 0.974272,0.293326 1.890895,0.933365 2.116406,2.032031 2.63769,-1.478801 4.005796,-3.261802 3.609375,-4.703907 -0.41995,-1.5098358 -2.71027,-2.4096032 -5.971875,-2.3460932 z m -1.565625,5.9976562 a 2.2302929,4.2923502 76.001371 0 0 -1.652344,0.171094 2.2302929,4.2923502 76.001371 0 0 -3.9351558,3.119532 2.2302929,4.2923502 76.001371 0 0 4.4507818,1.338281 2.2302929,4.2923502 76.001371 0 0 3.932813,-3.119532 2.2302929,4.2923502 76.001371 0 0 -2.796095,-1.509375 z"
     id="path1" />
</svg>
