<?xml version="1.0" encoding="UTF-8" standalone="no"?>
<svg
   width="24"
   height="24"
   version="1.1"
   id="svg2"
   sodipodi:docname="youtube-music-desktop-app-tray-pause.svg"
   xmlns:inkscape="http://www.inkscape.org/namespaces/inkscape"
   xmlns:sodipodi="http://sodipodi.sourceforge.net/DTD/sodipodi-0.dtd"
   xmlns="http://www.w3.org/2000/svg"
   xmlns:svg="http://www.w3.org/2000/svg">
  <sodipodi:namedview
     id="namedview2"
     pagecolor="#ffffff"
     bordercolor="#000000"
     borderopacity="0.25"
     inkscape:showpageshadow="2"
     inkscape:pageopacity="0.0"
     inkscape:pagecheckerboard="0"
     inkscape:deskcolor="#d1d1d1" />
  <defs
     id="defs1">
    <style
       id="current-color-scheme"
       type="text/css">.ColorScheme-Text {color:#d8dee9} .ColorScheme-Highlight {color:#3b4252}</style>
  </defs>
  <path
     style="opacity:0.35;fill:currentColor;stroke-width:1.2"
     class="ColorScheme-Text"
     d="m 12,2.3 a 9.6,9.6 0 0 0 -9.6,9.6 9.6,9.6 0 0 0 9.6,9.6 9.6,9.6 0 0 0 2.4,-0.31875 V 15.699219 C 14.4,14.923616 15.018077,14.3 15.785156,14.3 h 5.503125 A 9.6,9.6 0 0 0 21.6,11.9 9.6,9.6 0 0 0 12,2.3 Z M 9.6,7.6648437 13.2,9.78125 16.8,11.9 13.2,14.01875 9.6,16.135156 V 11.9 Z"
     id="path1" />
  <path
     style="fill:currentColor;fill-rule:evenodd;stroke-width:1.2"
     class="ColorScheme-Text"
     d="m 15.6,15.5 v 7.2 H 18 v -7.2 z m 3.6,0 v 7.2 h 2.4 v -7.2 z"
     id="path2" />
</svg>
