<?xml version="1.0" encoding="UTF-8" standalone="no"?>
<svg
   width="24"
   height="24"
   version="1.1"
   id="svg1"
   sodipodi:docname="youtube-music-tray.svg"
   xmlns:inkscape="http://www.inkscape.org/namespaces/inkscape"
   xmlns:sodipodi="http://sodipodi.sourceforge.net/DTD/sodipodi-0.dtd"
   xmlns="http://www.w3.org/2000/svg"
   xmlns:svg="http://www.w3.org/2000/svg">
  <sodipodi:namedview
     id="namedview1"
     pagecolor="#ffffff"
     bordercolor="#000000"
     borderopacity="0.25"
     inkscape:showpageshadow="2"
     inkscape:pageopacity="0.0"
     inkscape:pagecheckerboard="0"
     inkscape:deskcolor="#d1d1d1" />
  <defs
     id="defs1">
    <style
       id="current-color-scheme"
       type="text/css">.ColorScheme-Text {color:#d8dee9} .ColorScheme-Highlight {color:#3b4252}</style>
  </defs>
  <path
     style="fill:currentColor;stroke-width:1.2"
     class="ColorScheme-Text"
     d="M 12,2.4 A 9.6,9.6 0 0 0 2.4,12 9.6,9.6 0 0 0 12,21.6 9.6,9.6 0 0 0 21.6,12 9.6,9.6 0 0 0 12,2.4 Z M 12,6 a 6,6 0 0 1 6,6 6,6 0 0 1 -6,6 6,6 0 0 1 -6,-6 6,6 0 0 1 6,-6 z M 11.92734,7.2 A 4.8,4.7999988 0 0 0 7.2,12 4.8,4.7999988 0 0 0 12,16.8 4.8,4.7999988 0 0 0 16.8,12 4.8,4.7999988 0 0 0 12,7.2 a 4.8,4.7999988 0 0 0 -0.0094,0 4.8,4.7999988 0 0 0 -0.06329,0 z M 10.8,9.6 l 1.8,1.2 1.8,1.2 -1.8,1.2 -1.8,1.2 V 12 Z"
     id="path1" />
</svg>
