<?xml version="1.0" encoding="UTF-8" standalone="no"?>
<svg
   width="24"
   height="24"
   version="1.1"
   id="svg2"
   sodipodi:docname="zeal-tray.svg"
   xmlns:inkscape="http://www.inkscape.org/namespaces/inkscape"
   xmlns:sodipodi="http://sodipodi.sourceforge.net/DTD/sodipodi-0.dtd"
   xmlns="http://www.w3.org/2000/svg"
   xmlns:svg="http://www.w3.org/2000/svg">
  <sodipodi:namedview
     id="namedview2"
     pagecolor="#ffffff"
     bordercolor="#000000"
     borderopacity="0.25"
     inkscape:showpageshadow="2"
     inkscape:pageopacity="0.0"
     inkscape:pagecheckerboard="0"
     inkscape:deskcolor="#d1d1d1" />
  <defs
     id="defs1">
    <style
       id="current-color-scheme"
       type="text/css">.ColorScheme-Text {color:#d8dee9} .ColorScheme-Highlight {color:#3b4252}</style>
  </defs>
  <path
     style="opacity:0.35;fill:currentColor;stroke-width:1.2"
     class="ColorScheme-Text"
     d="m 4.6625,2.4000003 c -0.588625,0 -1.0625,0.42816 -1.0625,0.96 V 20.640001 C 3.6,21.17184 4.073875,21.6 4.6625,21.6 H 7.1999998 V 2.4000003 Z"
     id="path1" />
  <path
     style="fill:currentColor;stroke-width:1.2"
     class="ColorScheme-Text"
     d="M 7.1999998,2.4000002 V 21.6 H 19.35 c 0.5817,0 1.05,-0.429098 1.05,-0.960937 V 3.3609378 c 0,-0.53184 -0.4683,-0.9609376 -1.05,-0.9609376 h -7.361718 z m 3.0000002,3.6 h 7.2 a 0.60006,0.60006 0 0 1 0.499219,0.9328126 L 11.320313,16.8 H 17.4 a 0.60006,0.60006 0 1 1 0,1.2 H 10.2 A 0.60006,0.60006 0 0 1 9.700782,17.067187 L 16.279687,7.2000002 H 10.2 a 0.60006,0.60006 0 1 1 0,-1.2 z"
     id="path2" />
</svg>
