<?xml version="1.0" encoding="UTF-8" standalone="no"?>
<svg
   width="24"
   height="24"
   version="1.1"
   id="svg2"
   sodipodi:docname="zim-panel.svg"
   xmlns:inkscape="http://www.inkscape.org/namespaces/inkscape"
   xmlns:sodipodi="http://sodipodi.sourceforge.net/DTD/sodipodi-0.dtd"
   xmlns="http://www.w3.org/2000/svg"
   xmlns:svg="http://www.w3.org/2000/svg">
  <sodipodi:namedview
     id="namedview2"
     pagecolor="#ffffff"
     bordercolor="#000000"
     borderopacity="0.25"
     inkscape:showpageshadow="2"
     inkscape:pageopacity="0.0"
     inkscape:pagecheckerboard="0"
     inkscape:deskcolor="#d1d1d1" />
  <defs
     id="defs1">
    <style
       id="current-color-scheme"
       type="text/css">.ColorScheme-Text {color:#d8dee9} .ColorScheme-Highlight {color:#3b4252}</style>
  </defs>
  <path
     style="opacity:0.35;fill:currentColor;stroke-width:1.2"
     class="ColorScheme-Text"
     d="m 12.001084,2.4 c -5.3184001,0 -9.6000001,4.2816 -9.6000001,9.6 0,1.0044 0.15468,1.9716 0.43824,2.88 l 0.01176,-0.0624 c 0.17388,-0.678 0.50916,-1.3812 1.10856,-1.9368 0.70488,-0.6528 1.52496,-0.8292 2.3742,-0.8436 0.14052,-0.2964 0.25332,-0.6132 0.53436,-0.8196 0.1176,-0.0876 0.2466,-0.0516 0.37272,-0.108 l 0.0258,-0.066 c 0.34008,-0.6444 0.78432,-1.1316 1.40616,-1.83264 0.8484,-0.9564 2.1654001,-1.84332 3.3870001,-2.63676 1.2216,-0.79392 4.8588,-2.81484 4.8588,-2.81484 C 15.479884,2.9022 13.803484,2.4 12.001084,2.4 Z m 8.838,5.83824 c 0,0 -2.5512,3.25656 -3.5292,4.32456 -0.9768,1.0656 -2.0664,2.2152 -3.1524,2.8968 -0.7152,0.4488 -1.2564,0.5916 -1.8312,0.8112 -0.09,0.5076 -0.3156,0.9876 -0.7608,1.3164 -0.276,0.204 -0.6108,0.1848 -0.9312,0.2352 -0.15,0.5436 -0.4116,1.0884 -0.8832001,1.5696 l -0.024,0.024 -0.0228,0.0228 c -0.65088,0.5964 -1.44648,0.864 -2.18688,0.9492 l -0.18276,0.0072 c 1.38012,0.7656 2.9696401,1.2048 4.6664401,1.2048 5.3184,0 9.6,-4.2816 9.6,-9.6 0,-1.3368 -0.2724,-2.60724 -0.762,-3.76176 z"
     id="path1" />
  <path
     style="fill:currentColor;stroke-width:1.2"
     class="ColorScheme-Text"
     d="m 20.609884,3.60936 c -0.3708,-0.0414 -0.7236,0.09924 -1.062,0.21804 0,0 -1.1616,0.51696 -1.7808,0.83664 -0.6204,0.31968 -1.2276,0.65244 -1.7016,0.91872 -0.4752,0.26628 -2.16,1.22232 -3.3516,1.99692 -1.1916,0.77448 -2.49,1.69212 -3.1432801,2.42832 -0.32328,0.3636 -0.576,0.6516 -0.78288,0.9144 0.40548,0.132 0.7758,0.3804 1.04256,0.7428 l 2.1828001,2.9604 c 0.12,0.1632 0.2052,0.3432 0.2712,0.5268 0.348,-0.1752 0.7248,-0.39 1.236,-0.7104 0.8388,-0.5268 1.9524,-1.65 2.9052,-2.6904 0.954,-1.0404 2.154,-2.53104 2.4804,-2.94852 0.3264,-0.4176 0.738,-0.95436 1.1412,-1.50468 0.4032,-0.55044 0.7956,-1.1148 1.0848,-1.596 0.1452,-0.24072 0.2652,-0.45984 0.3468,-0.6516 0.0828,-0.19164 0.1404,-0.34812 0.1176,-0.52032 -0.0384,-0.28632 -0.1824,-0.45456 -0.2676,-0.54144 L 21.317884,3.975 c -0.1008,-0.12144 -0.2136,-0.198 -0.3312,-0.25548 -0.1272,-0.06156 -0.2532,-0.09636 -0.3768,-0.11016 z M 8.2627239,12.012 c -0.23232,-0.036 -0.477,0.0192 -0.68196,0.1704 -0.40992,0.3024 -0.49668,0.8748 -0.19452,1.2852 l 2.17968,2.9592 c 0.30156,0.4104 0.8763601,0.4968 1.2867601,0.1956 0.4104,-0.3024 0.4968,-0.8748 0.1944,-1.2852 L 8.8651239,12.3768 c -0.15108,-0.204 -0.37008,-0.33 -0.6024,-0.3648 z m -2.21712,1.2276 c -0.4992,0.0744 -0.9876,0.2604 -1.27032,0.5232 -0.38796,0.3588 -0.63168,0.8448 -0.76176,1.3524 -0.2136,0.8316 -0.22788,2.028 -0.39144,2.9124 -0.08112,0.4392 -0.45216,1.1232 -1.14372,2.0088 -0.17664,0.2976 0,0.336 0,0.336 0.09912,0.0696 0.27984,-0.0012 0.37032,-0.0408 1.6002,-1.3152 2.65728,-1.128 4.53048,-1.1364 0.55104,-0.0636 1.09596,-0.2592 1.51404,-0.642 0.27168,-0.2772 0.42168,-0.5208 0.52968,-0.762 -0.31692,-0.1428 -0.60516,-0.3564 -0.8226,-0.6516 l -2.18208,-2.9604 c -0.20904,-0.2832 -0.32484,-0.6084 -0.3726,-0.9396 z"
     id="path2" />
</svg>
