<?xml version="1.0" encoding="UTF-8" standalone="no"?>
<svg
   width="64"
   height="64"
   version="1.1"
   viewBox="0 0 16.933 16.933"
   id="svg7"
   sodipodi:docname="applications-multimedia.svg"
   inkscape:version="1.4.2 (ebf0e940d0, 2025-05-08)"
   xmlns:inkscape="http://www.inkscape.org/namespaces/inkscape"
   xmlns:sodipodi="http://sodipodi.sourceforge.net/DTD/sodipodi-0.dtd"
   xmlns="http://www.w3.org/2000/svg"
   xmlns:svg="http://www.w3.org/2000/svg"
   xmlns:rdf="http://www.w3.org/1999/02/22-rdf-syntax-ns#"
   xmlns:cc="http://creativecommons.org/ns#"
   xmlns:dc="http://purl.org/dc/elements/1.1/">
  <sodipodi:namedview
     id="namedview7"
     pagecolor="#9c4444"
     bordercolor="#000000"
     borderopacity="0.25"
     inkscape:showpageshadow="2"
     inkscape:pageopacity="0.0"
     inkscape:pagecheckerboard="0"
     inkscape:deskcolor="#d1d1d1"
     inkscape:zoom="6.15625"
     inkscape:cx="15.837563"
     inkscape:cy="29.64467"
     inkscape:window-width="1183"
     inkscape:window-height="941"
     inkscape:window-x="0"
     inkscape:window-y="0"
     inkscape:window-maximized="0"
     inkscape:current-layer="svg7"
     showgrid="false" />
  <defs
     id="defs2">
    <style
       id="current-color-scheme"
       type="text/css">.ColorScheme-Text {color:#d8dee9} .ColorScheme-Highlight {color:#3b4252}</style>
  </defs>
  <metadata
     id="metadata2">
    <rdf:RDF>
      <cc:Work
         rdf:about="">
        <dc:format>image/svg+xml</dc:format>
        <dc:type
           rdf:resource="http://purl.org/dc/dcmitype/StillImage" />
      </cc:Work>
    </rdf:RDF>
  </metadata>
  <path
     style="fill:currentColor;stroke:none;stroke-width:0.400984;stroke-dasharray:none;stroke-opacity:0.3"
     d="M 3.0543503,2.1166252 V 14.816374 H 13.878676 V 2.1166252 h -0.67652 V 2.9103593 H 12.525634 V 2.1166252 H 4.4073912 V 2.9103593 H 3.7308702 L 3.7307354,2.1166252 H 3.054323 Z M 5.7604316,3.7040933 H 11.172595 V 7.6727659 H 5.7604316 Z M 3.7307354,4.4978281 H 4.4072561 V 6.085297 H 3.7307354 Z m 8.7947646,0 h 0.676522 V 6.085297 H 12.5255 Z M 3.7307354,7.6727659 H 4.4072561 V 9.2602343 H 3.7307354 Z m 8.7947646,0 h 0.676522 V 9.2602343 H 12.5255 Z M 5.7602963,9.2602343 H 11.172458 V 13.228906 H 5.7602963 Z M 3.7305994,10.847703 h 0.6765211 v 1.587469 H 3.7305994 Z m 8.7947666,0 h 0.676519 v 1.587469 h -0.676519 z m -8.7947666,3.17494 h 0.6765211 v 0.793731 H 3.7305994 Z m 8.7947666,0 h 0.676519 v 0.793731 h -0.676519 z"
     id="path4"
     class="ColorScheme-Text" />
</svg>
