<?xml version="1.0" encoding="UTF-8" standalone="no"?>
<svg
   width="64"
   height="64"
   version="1.1"
   viewBox="0 0 16.933 16.933"
   id="svg7"
   sodipodi:docname="applications-games.svg"
   inkscape:version="1.4.2 (ebf0e940d0, 2025-05-08)"
   xmlns:inkscape="http://www.inkscape.org/namespaces/inkscape"
   xmlns:sodipodi="http://sodipodi.sourceforge.net/DTD/sodipodi-0.dtd"
   xmlns="http://www.w3.org/2000/svg"
   xmlns:svg="http://www.w3.org/2000/svg"
   xmlns:rdf="http://www.w3.org/1999/02/22-rdf-syntax-ns#"
   xmlns:cc="http://creativecommons.org/ns#"
   xmlns:dc="http://purl.org/dc/elements/1.1/">
  <sodipodi:namedview
     id="namedview7"
     pagecolor="#9c4444"
     bordercolor="#000000"
     borderopacity="0.25"
     inkscape:showpageshadow="2"
     inkscape:pageopacity="0.0"
     inkscape:pagecheckerboard="0"
     inkscape:deskcolor="#d1d1d1"
     inkscape:zoom="4.3531261"
     inkscape:cx="16.769558"
     inkscape:cy="20.330217"
     inkscape:window-width="1183"
     inkscape:window-height="941"
     inkscape:window-x="0"
     inkscape:window-y="0"
     inkscape:window-maximized="0"
     inkscape:current-layer="svg7"
     showgrid="false" />
  <defs
     id="defs2">
    <style
       id="current-color-scheme"
       type="text/css">.ColorScheme-Text {color:#d8dee9} .ColorScheme-Highlight {color:#3b4252}</style>
  </defs>
  <metadata
     id="metadata2">
    <rdf:RDF>
      <cc:Work
         rdf:about="">
        <dc:format>image/svg+xml</dc:format>
        <dc:type
           rdf:resource="http://purl.org/dc/dcmitype/StillImage" />
      </cc:Work>
    </rdf:RDF>
  </metadata>
  <path
     id="path99"
     style="fill:currentColor;fill-opacity:1;stroke:none;stroke-width:0.398038;stroke-dasharray:none;stroke-dashoffset:2.2;stroke-opacity:0.3"
     d="m 11.943654,3.2460504 c -0.209205,-8.77e-5 -0.433139,0.084154 -0.7134,0.2483668 -0.666924,0.390763 -1.5391365,0.5750531 -2.7369165,0.5750531 -1.1976637,0 -2.0989718,-0.188211 -2.7619245,-0.5767198 C 5.1998121,3.1812255 4.8824399,3.1770966 4.4362967,3.4779088 3.2908964,4.2497914 2.4276555,6.7245863 2.1744168,9.958514 c -0.1518599,1.939244 -0.010008,2.961625 0.4917108,3.536993 0.2419821,0.2774 0.8360168,0.230371 1.371794,-0.110004 0.4541695,-0.28854 0.9953093,-0.925237 1.6418208,-1.931857 0.5842146,-0.909628 1.2908592,-1.20922 2.8535995,-1.211781 1.5596301,-0.0024 2.1725501,0.292655 2.8919341,1.398463 1.206959,1.855274 2.322568,2.50117 2.976945,1.72349 0.362519,-0.430826 0.428871,-0.847079 0.411702,-2.580234 C 14.782639,7.6352036 13.959662,4.7710701 12.773734,3.6779187 12.457887,3.3867792 12.212654,3.2463238 11.943654,3.2462106 Z m -6.7756249,1.855171 h 0.7234002 0.7234002 v 0.6200582 0.6200596 h 0.6200588 0.620057 V 7.1164118 7.8914825 H 7.2348883 6.6148295 V 8.5632107 9.2349404 H 5.9597709 c -0.3598747,0 -0.6838531,-0.032258 -0.7217368,-0.069996 C 5.2001683,9.1270791 5.1680366,8.8263491 5.1680366,8.4948845 V 7.8914825 H 4.5479708 3.9279114 V 7.1164118 6.3413392 H 4.5479708 5.1680291 V 5.7212796 Z m 5.8972149,0 c 0.652603,0 0.932083,0.7230694 0.46171,1.1934473 -0.299141,0.2991054 -0.572151,0.3226169 -0.866746,0.073348 -0.510987,-0.432379 -0.244272,-1.2667836 0.405036,-1.2667836 z M 9.8101279,6.4263453 c 0.1629542,1.13e-4 0.3270291,0.065065 0.4567071,0.2083382 0.202146,0.2233705 0.223981,0.7347798 0.04168,0.9734259 -0.3567717,0.4670592 -1.2134463,0.1666345 -1.2134463,-0.4250387 0,-0.4490555 0.3565608,-0.7569832 0.7150657,-0.7567381 z m 2.5619051,0.025166 c 0.187842,0.00354 0.370177,0.065638 0.47671,0.1833401 0.202137,0.2233713 0.223971,0.7347769 0.04166,0.973426 -0.379477,0.4967783 -1.213445,0.1642772 -1.213445,-0.4833799 0,-0.1963093 0.07867,-0.4090902 0.188344,-0.5083801 0.12538,-0.113478 0.318907,-0.1684394 0.506713,-0.1650168 z M 11.110248,7.788299 c 0.578566,0 0.860079,0.613692 0.510045,1.1134382 -0.119676,0.1708258 -0.265591,0.230016 -0.566719,0.230016 -0.346691,0 -0.42714,-0.045124 -0.566716,-0.3150418 -0.275206,-0.5321987 0.02516,-1.028429 0.62339,-1.028429 z"
     class="ColorScheme-Text" />
</svg>
