<?xml version="1.0" encoding="UTF-8" standalone="no"?>
<svg
   width="64"
   height="64"
   version="1.1"
   viewBox="0 0 16.933 16.933"
   id="svg7"
   sodipodi:docname="applications-other.svg"
   inkscape:version="1.4.2 (ebf0e940d0, 2025-05-08)"
   xmlns:inkscape="http://www.inkscape.org/namespaces/inkscape"
   xmlns:sodipodi="http://sodipodi.sourceforge.net/DTD/sodipodi-0.dtd"
   xmlns="http://www.w3.org/2000/svg"
   xmlns:svg="http://www.w3.org/2000/svg"
   xmlns:rdf="http://www.w3.org/1999/02/22-rdf-syntax-ns#"
   xmlns:cc="http://creativecommons.org/ns#"
   xmlns:dc="http://purl.org/dc/elements/1.1/">
  <sodipodi:namedview
     id="namedview7"
     pagecolor="#9c4444"
     bordercolor="#000000"
     borderopacity="0.25"
     inkscape:showpageshadow="2"
     inkscape:pageopacity="0.0"
     inkscape:pagecheckerboard="0"
     inkscape:deskcolor="#d1d1d1"
     inkscape:zoom="6.15625"
     inkscape:cx="17.624365"
     inkscape:cy="29.64467"
     inkscape:window-width="1183"
     inkscape:window-height="941"
     inkscape:window-x="0"
     inkscape:window-y="0"
     inkscape:window-maximized="0"
     inkscape:current-layer="svg7"
     showgrid="false" />
  <defs
     id="defs2">
    <style
       id="current-color-scheme"
       type="text/css">.ColorScheme-Text {color:#d8dee9} .ColorScheme-Highlight {color:#3b4252}</style>
  </defs>
  <metadata
     id="metadata2">
    <rdf:RDF>
      <cc:Work
         rdf:about="">
        <dc:format>image/svg+xml</dc:format>
        <dc:type
           rdf:resource="http://purl.org/dc/dcmitype/StillImage" />
      </cc:Work>
    </rdf:RDF>
  </metadata>
  <path
     id="path5"
     style="fill:currentColor;fill-opacity:1;stroke:none;stroke-width:0.503959;stroke-dasharray:none;stroke-opacity:0.3"
     d="m 14.816374,8.4664998 c 0,1.0027992 -0.813222,1.8142502 -1.814248,1.8142502 -1.002797,0 -1.814249,-0.811451 -1.814249,-1.8142502 0,-1.0027985 0.811452,-1.8142499 1.814249,-1.8142499 1.001026,0 1.814248,0.8114514 1.814248,1.8142499 z m 0,0 m -4.535623,0 c 0,1.0027992 -0.8132228,1.8142502 -1.8142496,1.8142502 -1.0027986,0 -1.8142503,-0.811451 -1.8142503,-1.8142502 0,-1.0027985 0.8114517,-1.8142499 1.8142503,-1.8142499 1.0010268,0 1.8142496,0.8114514 1.8142496,1.8142499 z m 0,0 m -4.5356252,0 c 0,1.0027992 -0.8132238,1.8142502 -1.8142499,1.8142502 -1.0027992,0 -1.8142508,-0.811451 -1.8142508,-1.8142502 0,-1.0027985 0.8114516,-1.8142499 1.8142508,-1.8142499 1.0010261,0 1.8142499,0.8114514 1.8142499,1.8142499 z m 0,0"
     class="ColorScheme-Text" />
  <g
     id="g9"
     transform="matrix(0.33080665,0,0,0.33080665,3.6604197,4.5749428)"
     style="fill:#999999;fill-opacity:1;stroke:none;stroke-width:0.58349;stroke-dasharray:none;stroke-opacity:0.3" />
</svg>
