<?xml version="1.0" encoding="UTF-8" standalone="no"?>
<svg
   width="64"
   height="64"
   version="1.1"
   viewBox="0 0 16.933 16.933"
   id="svg7"
   sodipodi:docname="applications-utilities.svg"
   inkscape:version="1.4.2 (ebf0e940d0, 2025-05-08)"
   xmlns:inkscape="http://www.inkscape.org/namespaces/inkscape"
   xmlns:sodipodi="http://sodipodi.sourceforge.net/DTD/sodipodi-0.dtd"
   xmlns="http://www.w3.org/2000/svg"
   xmlns:svg="http://www.w3.org/2000/svg"
   xmlns:rdf="http://www.w3.org/1999/02/22-rdf-syntax-ns#"
   xmlns:cc="http://creativecommons.org/ns#"
   xmlns:dc="http://purl.org/dc/elements/1.1/">
  <sodipodi:namedview
     id="namedview7"
     pagecolor="#9c4444"
     bordercolor="#000000"
     borderopacity="0.25"
     inkscape:showpageshadow="2"
     inkscape:pageopacity="0.0"
     inkscape:pagecheckerboard="0"
     inkscape:deskcolor="#d1d1d1"
     inkscape:zoom="6.15625"
     inkscape:cx="15.837563"
     inkscape:cy="29.64467"
     inkscape:window-width="1183"
     inkscape:window-height="941"
     inkscape:window-x="0"
     inkscape:window-y="0"
     inkscape:window-maximized="0"
     inkscape:current-layer="svg7"
     showgrid="false" />
  <defs
     id="defs2">
    <style
       id="current-color-scheme"
       type="text/css">.ColorScheme-Text {color:#d8dee9} .ColorScheme-Highlight {color:#3b4252}</style>
  </defs>
  <metadata
     id="metadata2">
    <rdf:RDF>
      <cc:Work
         rdf:about="">
        <dc:format>image/svg+xml</dc:format>
        <dc:type
           rdf:resource="http://purl.org/dc/dcmitype/StillImage" />
      </cc:Work>
    </rdf:RDF>
  </metadata>
  <path
     style="fill:currentColor;fill-opacity:1;stroke:none;stroke-width:0.352297;stroke-dasharray:none;stroke-dashoffset:2.2;stroke-opacity:0.3"
     d="M 2.7515924,14.73494 C 2.5243592,14.615156 2.3797915,14.467141 2.2810643,14.253229 2.1985925,14.074538 2.1905795,13.904006 2.1895987,12.306967 l -0.00107,-1.750413 0.2080912,0.0011 c 0.140605,7.65e-4 0.2874878,0.04784 0.4529032,0.14513 0.7457834,0.438638 1.0255312,0.492458 1.3765879,0.264829 C 4.6745963,10.676866 4.9044268,10.097517 4.8725999,9.3380262 4.843046,8.6328207 4.5901031,8.1412941 4.1367447,7.9080976 3.8172122,7.7437378 3.5472925,7.8009387 3.0011517,8.148748 2.7000261,8.3405203 2.4627712,8.4202091 2.3083384,8.3814487 L 2.1885322,8.3513786 V 6.9789283 c 0,-1.4898288 0.00485,-1.5208323 0.287124,-1.8248628 C 2.7558879,4.852205 2.7452237,4.8538284 4.5566437,4.8371877 L 6.2147981,4.8219622 6.1943929,4.5398748 C 6.1779301,4.3122744 6.1296079,4.1832123 5.9442226,3.8717002 5.5704291,3.2435976 5.5722747,2.9573782 5.9525681,2.5770822 c 0.335223,-0.335223 0.683112,-0.4604578 1.2791038,-0.4604578 0.5959915,0 0.9438812,0.1252348 1.2791036,0.4604578 0.380296,0.380296 0.3821417,0.6665154 0.00835,1.294618 -0.1862395,0.312943 -0.2336754,0.4400955 -0.25039,0.6711669 L 8.2481109,4.827946 H 9.665023 c 1.596191,0 1.793716,0.029293 2.05442,0.3046749 0.289529,0.3058305 0.2841,0.2692157 0.310553,2.0944916 l 0.02449,1.6892085 0.116592,0.016494 c 0.214255,0.0303 0.418865,-0.038971 0.830163,-0.2810488 0.224485,-0.1321245 0.483424,-0.2543482 0.575426,-0.2716073 0.347286,-0.06515 0.801734,0.2708713 1.003766,0.7421977 0.40375,0.9419134 0.02536,2.1903114 -0.73277,2.4174464 -0.184198,0.05519 -0.217327,0.04804 -0.553878,-0.119388 -0.196908,-0.09796 -0.456967,-0.234217 -0.577938,-0.302827 -0.16446,-0.09328 -0.275638,-0.121116 -0.440665,-0.110316 l -0.220714,0.01451 -0.02448,1.566801 c -0.02638,1.686708 -0.03136,1.719434 -0.301363,1.965017 -0.270016,0.245605 -0.363754,0.262779 -1.434374,0.262779 H 9.2880985 v -0.18755 c 0,-0.10908 0.054005,-0.288351 0.1290523,-0.428422 0.070979,-0.132462 0.1921617,-0.359651 0.2692943,-0.504826 0.4214379,-0.793216 -0.1851112,-1.527036 -1.3286358,-1.607426 -0.8757327,-0.06155 -1.6658942,0.392869 -1.7480416,1.005319 -0.032137,0.239582 0.035176,0.450387 0.2626465,0.822573 0.2042153,0.334136 0.3146215,0.652869 0.2765602,0.798414 -0.026492,0.101304 -0.03949,0.101916 -2.1385707,0.09994 -1.8285426,-0.0018 -2.1316297,-0.01242 -2.258808,-0.07939 z"
     id="path99"
     class="ColorScheme-Text" />
  <g
     id="g9"
     transform="matrix(0.34199929,0,0,0.34199929,3.8121192,3.0768583)"
     style="fill:#999999;fill-opacity:1;stroke:none;stroke-width:0.58349;stroke-dasharray:none;stroke-opacity:0.3" />
</svg>
