<?xml version="1.0" encoding="UTF-8" standalone="no"?>
<svg
   width="64"
   height="64"
   version="1"
   id="svg1"
   sodipodi:docname="applications-all-symbolic.svg"
   inkscape:version="1.4.2 (ebf0e940d0, 2025-05-08)"
   xmlns:inkscape="http://www.inkscape.org/namespaces/inkscape"
   xmlns:sodipodi="http://sodipodi.sourceforge.net/DTD/sodipodi-0.dtd"
   xmlns="http://www.w3.org/2000/svg"
   xmlns:svg="http://www.w3.org/2000/svg">
  <sodipodi:namedview
     id="namedview1"
     pagecolor="#9c4444"
     bordercolor="#eeeeee"
     borderopacity="1"
     inkscape:showpageshadow="0"
     inkscape:pageopacity="0"
     inkscape:pagecheckerboard="0"
     inkscape:deskcolor="#ffffff"
     inkscape:zoom="12.125"
     inkscape:cx="43.381443"
     inkscape:cy="18.474227"
     inkscape:window-width="2560"
     inkscape:window-height="1376"
     inkscape:window-x="0"
     inkscape:window-y="0"
     inkscape:window-maximized="1"
     inkscape:current-layer="svg1" />
  <defs
     id="defs1">
    <style
       id="current-color-scheme"
       type="text/css">.ColorScheme-Text {color:#d8dee9} .ColorScheme-Highlight {color:#3b4252}</style>
  </defs>
  <path
     d="M 12.500007,7.9999952 C 10.007,7.9999952 8,10.006994 8,12.499995 v 12.000001 c 0,2.493 2.007,4.5 4.500007,4.5 h 11.999999 c 2.493006,0 4.5,-2.007 4.5,-4.5 V 12.499995 c 0,-2.493001 -2.006994,-4.4999998 -4.5,-4.4999998 z m 27.000001,0 c -2.493006,0 -4.499994,2.0069988 -4.499994,4.4999998 v 12.000001 c 0,2.493 2.006988,4.5 4.499994,4.5 h 11.999998 c 2.493006,0 4.499994,-2.007 4.499994,-4.5 V 12.499995 C 56,10.006994 53.993012,7.9999952 51.500006,7.9999952 Z m 1.500004,5.9999998 h 8.99999 v 9 h -8.99999 z M 12.500007,34.999996 C 10.007,34.999996 8,37.006996 8,39.499996 v 12.000006 c 0,2.493 2.007,4.500003 4.500007,4.500003 h 11.999999 c 2.493006,0 4.5,-2.007003 4.5,-4.500003 V 39.499996 c 0,-2.493 -2.006994,-4.5 -4.5,-4.5 z m 27.000001,0 c -2.493006,0 -4.499994,2.007 -4.499994,4.5 v 12.000006 c 0,2.493 2.006988,4.500003 4.499994,4.500003 H 51.500006 C 53.993012,56.000005 56,53.993002 56,51.500002 V 39.499996 c 0,-2.493 -2.006988,-4.5 -4.499994,-4.5 z M 14.00001,40.999999 h 8.999994 v 9 H 14.00001 Z"
     style="fill:currentColor;fill-opacity:1;stroke-width:2.99999"
     class="ColorScheme-Text"
     id="path1-6-5" />
</svg>
