<?xml version="1.0" encoding="UTF-8" standalone="no"?>
<svg
   width="64"
   height="64"
   version="1.1"
   viewBox="0 0 16.933 16.933"
   id="svg7"
   sodipodi:docname="applications-internet.svg"
   inkscape:version="1.4.2 (ebf0e940d0, 2025-05-08)"
   xmlns:inkscape="http://www.inkscape.org/namespaces/inkscape"
   xmlns:sodipodi="http://sodipodi.sourceforge.net/DTD/sodipodi-0.dtd"
   xmlns="http://www.w3.org/2000/svg"
   xmlns:svg="http://www.w3.org/2000/svg"
   xmlns:rdf="http://www.w3.org/1999/02/22-rdf-syntax-ns#"
   xmlns:cc="http://creativecommons.org/ns#"
   xmlns:dc="http://purl.org/dc/elements/1.1/">
  <sodipodi:namedview
     id="namedview7"
     pagecolor="#9c4444"
     bordercolor="#000000"
     borderopacity="0.25"
     inkscape:showpageshadow="2"
     inkscape:pageopacity="0.0"
     inkscape:pagecheckerboard="0"
     inkscape:deskcolor="#d1d1d1"
     inkscape:zoom="6.15625"
     inkscape:cx="15.837563"
     inkscape:cy="29.64467"
     inkscape:window-width="1183"
     inkscape:window-height="941"
     inkscape:window-x="0"
     inkscape:window-y="0"
     inkscape:window-maximized="0"
     inkscape:current-layer="svg7"
     showgrid="false" />
  <defs
     id="defs2">
    <style
       id="current-color-scheme"
       type="text/css">.ColorScheme-Text {color:#d8dee9} .ColorScheme-Highlight {color:#3b4252}</style>
  </defs>
  <metadata
     id="metadata2">
    <rdf:RDF>
      <cc:Work
         rdf:about="">
        <dc:format>image/svg+xml</dc:format>
        <dc:type
           rdf:resource="http://purl.org/dc/dcmitype/StillImage" />
      </cc:Work>
    </rdf:RDF>
  </metadata>
  <path
     style="fill:currentColor;fill-opacity:1;stroke:none;stroke-width:0.383206;stroke-dasharray:none;stroke-dashoffset:2.2;stroke-opacity:0.3"
     d="M 3.9689599,13.081268 C 3.4025493,12.948265 2.7157959,12.355731 2.4233612,11.747733 2.1844792,11.25108 2.1163584,10.937374 2.1166248,10.335187 c 1.884e-4,-0.4275362 0.019669,-0.5910831 0.10224,-0.8582925 0.3228956,-1.044949 1.055862,-1.7511599 1.9692861,-1.897401 0.2561621,-0.041012 0.3717804,-0.037872 0.6382175,0.017336 0.1789596,0.037082 0.3600444,0.08125 0.4024088,0.098153 0.069246,0.027629 0.077023,-0.00265 0.077023,-0.3002177 0,-0.9945988 0.4010987,-1.967801 1.1003992,-2.6699405 C 6.995886,4.1327473 7.5618253,3.8593482 8.2962431,3.8117676 10.020982,3.700026 11.489156,5.231413 11.628168,7.2871517 c 0.01594,0.2360298 0.03346,0.4291457 0.03887,0.4291457 0.0054,0 0.09654,-0.0325 0.202454,-0.072227 0.289207,-0.1084536 0.91442,-0.097182 1.245406,0.022456 0.764254,0.2762419 1.386086,1.003105 1.612767,1.8851743 0.111144,0.4325094 0.118908,1.1239473 0.01733,1.5436233 -0.224811,0.928758 -0.893405,1.703547 -1.679601,1.946376 -0.278964,0.08617 -0.39742,0.08832 -4.6061623,0.08402 -2.4207485,-0.0025 -4.3947655,-0.02203 -4.4902795,-0.04445 z"
     id="path99"
     class="ColorScheme-Text" />
</svg>
