<?xml version="1.0" encoding="UTF-8" standalone="no"?>
<svg
   width="64"
   height="64"
   version="1.1"
   viewBox="0 0 16.933 16.933"
   id="svg7"
   sodipodi:docname="applications-office.svg"
   inkscape:version="1.4.2 (ebf0e940d0, 2025-05-08)"
   xmlns:inkscape="http://www.inkscape.org/namespaces/inkscape"
   xmlns:sodipodi="http://sodipodi.sourceforge.net/DTD/sodipodi-0.dtd"
   xmlns="http://www.w3.org/2000/svg"
   xmlns:svg="http://www.w3.org/2000/svg"
   xmlns:rdf="http://www.w3.org/1999/02/22-rdf-syntax-ns#"
   xmlns:cc="http://creativecommons.org/ns#"
   xmlns:dc="http://purl.org/dc/elements/1.1/">
  <sodipodi:namedview
     id="namedview7"
     pagecolor="#9c4444"
     bordercolor="#000000"
     borderopacity="0.25"
     inkscape:showpageshadow="2"
     inkscape:pageopacity="0.0"
     inkscape:pagecheckerboard="0"
     inkscape:deskcolor="#d1d1d1"
     inkscape:zoom="6.15625"
     inkscape:cx="15.918782"
     inkscape:cy="29.64467"
     inkscape:window-width="1183"
     inkscape:window-height="941"
     inkscape:window-x="0"
     inkscape:window-y="0"
     inkscape:window-maximized="0"
     inkscape:current-layer="svg7"
     showgrid="false" />
  <defs
     id="defs2">
    <style
       id="current-color-scheme"
       type="text/css">.ColorScheme-Text {color:#d8dee9} .ColorScheme-Highlight {color:#3b4252}</style>
  </defs>
  <metadata
     id="metadata2">
    <rdf:RDF>
      <cc:Work
         rdf:about="">
        <dc:format>image/svg+xml</dc:format>
        <dc:type
           rdf:resource="http://purl.org/dc/dcmitype/StillImage" />
      </cc:Work>
    </rdf:RDF>
  </metadata>
  <path
     id="path102"
     style="fill:currentColor;fill-opacity:1;stroke:none;stroke-width:0.412548;stroke-dasharray:none;stroke-dashoffset:2.2;stroke-opacity:0.3"
     d="m 6.637975,2.116662 c -2.9974658,0 -2.8943919,-0.00978 -3.0691345,0.2860443 -0.070619,0.1195632 -0.077356,0.6549866 -0.077356,6.037545 0,6.5221247 -0.02094,6.0887497 0.2981303,6.2832997 0.1476474,0.09002 0.2725133,0.09248 4.6677596,0.09266 4.9203886,1.97e-4 4.6659226,0.014 4.8861186,-0.265897 0.09863,-0.12539 0.0983,-0.139932 0.0983,-4.242317 V 6.1921925 H 11.653005 C 9.6474073,6.1921088 9.6130754,6.186531 9.4500633,5.8602186 9.375577,5.7111246 9.3671414,5.513535 9.3670636,3.9054496 V 2.116662 Z m 3.2979705,0.07252 v 1.5301349 c 0,1.6701885 0.00857,1.7343345 0.2723465,1.8774161 0.106795,0.057941 0.396559,0.07095 1.639717,0.072518 l 1.509992,0.00161 -0.807369,-0.8412116 C 12.10629,4.3670513 11.336133,3.5833247 10.8392,3.0884063 Z M 5.718604,8.2299488 H 8.4662414 11.214684 V 8.5852877 8.9406272 H 8.4662413 5.7186039 V 8.5852877 Z m 0,1.3262778 H 8.4662414 11.214684 V 9.9357387 10.314445 H 8.4662413 5.7186039 V 9.9357387 Z m 0,1.3746234 h 2.7476374 2.7484426 v 0.378707 0.379513 H 8.4662413 5.7186039 v -0.379513 z m 0,1.373819 h 1.7291587 1.7299636 v 0.379512 0.378704 H 7.4477625 5.7186039 v -0.378704 z"
     class="ColorScheme-Text" />
  <g
     id="g9"
     transform="matrix(0.36043937,0,0,0.36043937,4.3678852,3.2367165)"
     style="fill:#999999;fill-opacity:1;stroke:none;stroke-width:0.58349;stroke-dasharray:none;stroke-opacity:0.3" />
</svg>
