<?xml version="1.0" encoding="UTF-8" standalone="no"?>
<svg
   width="64"
   height="64"
   version="1.1"
   viewBox="0 0 16.933 16.933"
   id="svg7"
   sodipodi:docname="applications-science.svg"
   inkscape:version="1.4.2 (ebf0e940d0, 2025-05-08)"
   xmlns:inkscape="http://www.inkscape.org/namespaces/inkscape"
   xmlns:sodipodi="http://sodipodi.sourceforge.net/DTD/sodipodi-0.dtd"
   xmlns="http://www.w3.org/2000/svg"
   xmlns:svg="http://www.w3.org/2000/svg"
   xmlns:rdf="http://www.w3.org/1999/02/22-rdf-syntax-ns#"
   xmlns:cc="http://creativecommons.org/ns#"
   xmlns:dc="http://purl.org/dc/elements/1.1/">
  <sodipodi:namedview
     id="namedview7"
     pagecolor="#9c4444"
     bordercolor="#000000"
     borderopacity="0.25"
     inkscape:showpageshadow="2"
     inkscape:pageopacity="0.0"
     inkscape:pagecheckerboard="0"
     inkscape:deskcolor="#d1d1d1"
     inkscape:zoom="6.15625"
     inkscape:cx="15.837563"
     inkscape:cy="29.64467"
     inkscape:window-width="1183"
     inkscape:window-height="941"
     inkscape:window-x="0"
     inkscape:window-y="0"
     inkscape:window-maximized="0"
     inkscape:current-layer="svg7"
     showgrid="false" />
  <defs
     id="defs2">
    <style
       id="current-color-scheme"
       type="text/css">.ColorScheme-Text {color:#d8dee9} .ColorScheme-Highlight {color:#3b4252}</style>
  </defs>
  <metadata
     id="metadata2">
    <rdf:RDF>
      <cc:Work
         rdf:about="">
        <dc:format>image/svg+xml</dc:format>
        <dc:type
           rdf:resource="http://purl.org/dc/dcmitype/StillImage" />
      </cc:Work>
    </rdf:RDF>
  </metadata>
  <path
     id="path3-1"
     style="opacity:1;fill:currentColor;fill-opacity:1;stroke:none;stroke-width:0.893142;stroke-dasharray:none;stroke-dashoffset:2.2;stroke-opacity:0.3"
     d="M 7.6713041,2.1168062 C 6.7176438,2.1150198 5.9934362,2.1264164 5.9066504,2.1482001 5.2921975,2.302418 5.127729,3.0243062 5.6146351,3.4340109 c 0.1562372,0.131465 0.3220571,0.2402069 0.3689443,0.2402069 0.047666,0 0.086545,0.5176462 0.086348,1.1759122 -2.939e-4,1.0001742 -0.027535,1.2211277 -0.1789776,1.469497 -0.3787189,0.6211016 -2.537232,4.532539 -2.7427483,4.970544 -0.1583264,0.337436 -0.2158903,0.624205 -0.2150864,1.062873 0.00233,1.233239 0.7535991,2.149312 1.9671796,2.398924 0.2110557,0.04342 1.9220466,0.07158 3.8009124,0.06281 l 3.4162679,-0.0157 0.536931,-0.263756 c 0.913252,-0.448442 1.422248,-1.36578 1.33605,-2.405212 C 13.942046,11.5464 13.706682,11.037092 12.574338,9.0749372 12.134767,8.3132366 11.57177,7.32613 11.323068,6.881683 L 10.870915,6.0731458 V 4.9223531 3.7699912 L 11.123682,3.6129929 C 11.263326,3.5265101 11.430717,3.3930004 11.494195,3.3162671 11.665636,3.1090144 11.63369,2.6160563 11.432971,2.3680023 L 11.257132,2.1497756 8.6870822,2.1230885 c -0.3533831,-0.00376 -0.6978876,-0.00571 -1.0157737,-0.00625 z m -0.032975,1.557416 H 8.4704157 9.300933 v 1.2716803 c 0,1.2538819 0.00402,1.2809065 0.3092853,1.9153713 0.170356,0.354028 0.7368777,1.3705423 1.2575517,2.2591951 1.11955,1.9107731 1.664174,2.9707791 1.664174,3.2341511 0,0.308012 -0.266855,0.736567 -0.518092,0.832087 -0.132786,0.0505 -1.696192,0.08948 -3.6486243,0.08948 H 4.9473938 L 4.6773577,13.00616 C 4.2100382,12.53884 4.2726225,12.307464 5.4592061,10.153513 6.0380058,9.1028446 6.7664281,7.8071182 7.0762805,7.2741778 L 7.6383319,6.305502 V 4.989863 Z M 7.0385978,9.3057262 6.5189367,10.252422 C 6.2325445,10.7731 5.8434339,11.478062 5.655449,11.820828 l -0.3422538,0.62328 H 8.4657063 11.618218 L 11.296372,11.867926 C 11.11921,11.550552 10.731122,10.854693 10.434457,10.3215 L 9.8959542,9.351255 8.4672765,9.3277029 Z"
     class="ColorScheme-Text" />
</svg>
