<?xml version="1.0" encoding="UTF-8" standalone="no"?>
<svg
   width="64"
   height="64"
   version="1.1"
   viewBox="0 0 16.933 16.933"
   id="svg7"
   sodipodi:docname="applications-education.svg"
   inkscape:version="1.4.2 (ebf0e940d0, 2025-05-08)"
   xmlns:inkscape="http://www.inkscape.org/namespaces/inkscape"
   xmlns:sodipodi="http://sodipodi.sourceforge.net/DTD/sodipodi-0.dtd"
   xmlns="http://www.w3.org/2000/svg"
   xmlns:svg="http://www.w3.org/2000/svg"
   xmlns:rdf="http://www.w3.org/1999/02/22-rdf-syntax-ns#"
   xmlns:cc="http://creativecommons.org/ns#"
   xmlns:dc="http://purl.org/dc/elements/1.1/">
  <sodipodi:namedview
     id="namedview7"
     pagecolor="#9c4444"
     bordercolor="#000000"
     borderopacity="0.25"
     inkscape:showpageshadow="2"
     inkscape:pageopacity="0.0"
     inkscape:pagecheckerboard="0"
     inkscape:deskcolor="#d1d1d1"
     inkscape:zoom="6.15625"
     inkscape:cx="32.812183"
     inkscape:cy="29.563452"
     inkscape:window-width="2560"
     inkscape:window-height="1376"
     inkscape:window-x="0"
     inkscape:window-y="0"
     inkscape:window-maximized="1"
     inkscape:current-layer="svg7"
     showgrid="false" />
  <defs
     id="defs2">
    <style
       id="current-color-scheme"
       type="text/css">.ColorScheme-Text {color:#d8dee9} .ColorScheme-Highlight {color:#3b4252}</style>
  </defs>
  <metadata
     id="metadata2">
    <rdf:RDF>
      <cc:Work
         rdf:about="">
        <dc:format>image/svg+xml</dc:format>
        <dc:type
           rdf:resource="http://purl.org/dc/dcmitype/StillImage" />
      </cc:Work>
    </rdf:RDF>
  </metadata>
  <path
     style="fill:currentColor;stroke-width:0.013671"
     d="M 7.9378917,12.170404 C 6.734295,12.083792 5.6186162,11.741925 4.9701156,11.261022 4.8095899,11.141983 4.693286,11.017076 4.639487,10.905943 4.602981,10.830533 4.60218,10.801387 4.60218,9.5476087 c 0,-1.0173803 0.00472,-1.2795194 0.022783,-1.2727889 0.012526,0.00466 0.7651176,0.2554269 1.6724131,0.5572544 1.0773684,0.3584061 1.7057862,0.5584885 1.8115112,0.5767684 0.2068414,0.035762 0.508386,0.035762 0.7152284,0 0.1057236,-0.018276 0.7341422,-0.2183623 1.8115113,-0.5767684 0.907294,-0.3018275 1.65988,-0.5525926 1.672412,-0.5572544 0.01808,-0.00673 0.02276,0.2554088 0.02276,1.2727889 0,1.4758913 0.01558,1.3481473 -0.1899,1.5574803 -0.475189,0.484118 -1.646101,0.906875 -2.8751145,1.038062 -0.325192,0.03469 -1.0247818,0.04906 -1.3279108,0.02726 z m 5.7694103,-0.795427 c -0.353167,-0.236922 -0.543025,-0.556772 -0.511802,-0.86222 0.01739,-0.170131 0.123031,-0.472192 0.26304,-0.7521515 l 0.120902,-0.2417469 0.0091,-0.836886 0.0091,-0.8368848 0.236426,-0.079068 c 0.130023,-0.043488 0.242822,-0.079068 0.250636,-0.079068 0.0079,0 0.01429,0.4090132 0.01429,0.9089186 v 0.9089184 l 0.126511,0.262227 c 0.06959,0.1442238 0.15334,0.3401512 0.186112,0.4353912 0.05288,0.153698 0.05966,0.195743 0.0603,0.373993 6.31e-4,0.190208 -0.0024,0.207156 -0.05819,0.320544 -0.07042,0.143113 -0.240615,0.334231 -0.394464,0.442955 -0.185415,0.131034 -0.17128,0.129435 -0.311937,0.03508 z M 8.3115644,8.9146846 C 8.0559439,8.8880038 7.7559157,8.7942862 5.158131,7.9296774 3.6342751,7.4224996 2.3505725,6.9889145 2.3054583,6.9661553 2.0505109,6.8375408 2.0540665,6.6559075 2.3140194,6.5290712 2.3644514,6.5044674 3.6645299,6.1069896 5.203083,5.6457962 8.0300325,4.7983951 8.1985578,4.7522508 8.4665037,4.7522508 c 0.2688242,0 0.4360562,0.045786 3.2641873,0.8936886 1.538132,0.4611481 2.837865,0.8585704 2.888299,0.8831615 0.259946,0.1267484 0.263503,0.3084409 0.0085,0.4370544 -0.135152,0.068197 -5.6109266,1.8832638 -5.7691136,1.9123112 -0.1623441,0.029812 -0.4351323,0.047876 -0.5468385,0.036218 z"
     id="path99"
     class="ColorScheme-Text" />
  <g
     id="g9"
     transform="matrix(0.33046068,0,0,0.33046068,3.6284329,3.8888168)"
     style="fill:#999999;fill-opacity:1;stroke:none;stroke-width:0.58349;stroke-dasharray:none;stroke-opacity:0.3" />
</svg>
