<?xml version="1.0" encoding="UTF-8" standalone="no"?>
<svg
   width="64"
   height="64"
   version="1.1"
   viewBox="0 0 16.933 16.933"
   id="svg7"
   sodipodi:docname="applications-development.backup2.svg"
   inkscape:version="1.4.2 (ebf0e940d0, 2025-05-08)"
   xmlns:inkscape="http://www.inkscape.org/namespaces/inkscape"
   xmlns:sodipodi="http://sodipodi.sourceforge.net/DTD/sodipodi-0.dtd"
   xmlns="http://www.w3.org/2000/svg"
   xmlns:svg="http://www.w3.org/2000/svg"
   xmlns:rdf="http://www.w3.org/1999/02/22-rdf-syntax-ns#"
   xmlns:cc="http://creativecommons.org/ns#"
   xmlns:dc="http://purl.org/dc/elements/1.1/">
  <sodipodi:namedview
     id="namedview7"
     pagecolor="#9c4444"
     bordercolor="#000000"
     borderopacity="0.25"
     inkscape:showpageshadow="2"
     inkscape:pageopacity="0.0"
     inkscape:pagecheckerboard="0"
     inkscape:deskcolor="#d1d1d1"
     inkscape:zoom="6.15625"
     inkscape:cx="15.918782"
     inkscape:cy="29.725888"
     inkscape:window-width="2560"
     inkscape:window-height="1376"
     inkscape:window-x="0"
     inkscape:window-y="0"
     inkscape:window-maximized="1"
     inkscape:current-layer="svg7"
     showgrid="false" />
  <defs
     id="defs2">
    <style
       id="current-color-scheme"
       type="text/css">.ColorScheme-Text {color:#d8dee9} .ColorScheme-Highlight {color:#3b4252}</style>
  </defs>
  <metadata
     id="metadata2">
    <rdf:RDF>
      <cc:Work
         rdf:about="">
        <dc:format>image/svg+xml</dc:format>
        <dc:type
           rdf:resource="http://purl.org/dc/dcmitype/StillImage" />
      </cc:Work>
    </rdf:RDF>
  </metadata>
  <path
     style="clip-rule:nonzero;display:inline;overflow:visible;visibility:visible;isolation:auto;mix-blend-mode:normal;color-interpolation:sRGB;color-interpolation-filters:linearRGB;solid-opacity:1;fill:currentColor;fill-opacity:1;fill-rule:nonzero;stroke:none;stroke-width:0.419898;stroke-linecap:butt;stroke-linejoin:miter;stroke-miterlimit:4;stroke-dasharray:none;stroke-dashoffset:0;stroke-opacity:0.3;marker:none;color-rendering:auto;image-rendering:auto;shape-rendering:auto;text-rendering:auto;enable-background:accumulate"
     d="m 7.559375,2.1166253 c -0.1632528,0 -0.2992948,0.6305352 -0.3791512,1.5316589 A 4.9891878,4.9891864 0 0 0 5.9745635,4.1549988 C 5.2780961,3.5712882 4.7340555,3.2189384 4.6183052,3.3346882 L 3.3346876,4.6183054 C 3.218938,4.734055 3.5712885,5.2780966 4.1549982,5.9745628 A 4.9891878,4.9891864 0 0 0 3.6527128,7.1802243 c -0.9036475,0.079779 -1.5360881,0.2156253 -1.5360881,0.37915 v 1.81425 c 0,0.1632508 0.6305353,0.299294 1.5316595,0.3791501 a 4.9891878,4.9891864 0 0 0 0.5049425,1.2083166 c -0.5823833,0.695221 -0.9341491,1.237992 -0.8185391,1.353604 l 1.2836176,1.283616 c 0.1155012,0.115512 0.6575888,-0.235422 1.351829,-0.816766 a 4.9891878,4.9891864 0 0 0 1.2100896,0.498739 c 0.07978,0.90365 0.2156262,1.53609 0.3791512,1.53609 h 1.8142495 c 0.1632528,0 0.2992943,-0.630535 0.3791511,-1.531659 a 4.9891878,4.9891864 0 0 0 1.2056604,-0.506716 c 0.696465,0.58371 1.240509,0.936061 1.356258,0.820312 l 1.283619,-1.283616 c 0.115752,-0.11574 -0.2366,-0.659791 -0.820315,-1.356259 a 4.9891878,4.9891864 0 0 0 0.50229,-1.2056616 c 0.903646,-0.07978 1.536088,-0.2156251 1.536088,-0.3791502 V 7.5593743 c 0,-0.1632506 -0.630537,-0.2992939 -1.53166,-0.37915 A 4.9891878,4.9891864 0 0 0 12.77977,5.9719056 c 0.582387,-0.6952189 0.934152,-1.23799 0.818543,-1.3536002 L 12.314694,3.3346882 c -0.1155,-0.1155012 -0.65759,0.2354236 -1.35183,0.8167668 A 4.9891878,4.9891864 0 0 0 9.7527756,3.6527136 C 9.6729953,2.749066 9.5371496,2.1166253 9.3736245,2.1166253 Z M 8.4664996,6.1986866 A 2.2678126,2.2678122 0 0 1 10.734312,8.4664996 2.2678126,2.2678122 0 0 1 8.4664996,10.734312 2.2678126,2.2678122 0 0 1 6.198687,8.4664996 2.2678126,2.2678122 0 0 1 8.4664996,6.1986866 Z"
     id="path4690"
     inkscape:connector-curvature="0"
     class="ColorScheme-Text" />
  <g
     id="g9"
     transform="matrix(0.34191239,0,0,0.33191717,3.7916727,2.956772)"
     style="fill:#999999;fill-opacity:1;stroke:none;stroke-width:0.58349;stroke-dasharray:none;stroke-opacity:0.3" />
</svg>
