<?xml version="1.0" encoding="UTF-8" standalone="no"?>
<svg
   width="64"
   height="64"
   version="1.1"
   viewBox="0 0 16.933 16.933"
   id="svg7"
   sodipodi:docname="applications-graphics.svg"
   inkscape:version="1.4.2 (ebf0e940d0, 2025-05-08)"
   xmlns:inkscape="http://www.inkscape.org/namespaces/inkscape"
   xmlns:sodipodi="http://sodipodi.sourceforge.net/DTD/sodipodi-0.dtd"
   xmlns="http://www.w3.org/2000/svg"
   xmlns:svg="http://www.w3.org/2000/svg"
   xmlns:rdf="http://www.w3.org/1999/02/22-rdf-syntax-ns#"
   xmlns:cc="http://creativecommons.org/ns#"
   xmlns:dc="http://purl.org/dc/elements/1.1/">
  <sodipodi:namedview
     id="namedview7"
     pagecolor="#9c4444"
     bordercolor="#000000"
     borderopacity="0.25"
     inkscape:showpageshadow="2"
     inkscape:pageopacity="0.0"
     inkscape:pagecheckerboard="0"
     inkscape:deskcolor="#d1d1d1"
     inkscape:zoom="6.15625"
     inkscape:cx="15.837563"
     inkscape:cy="27.208122"
     inkscape:window-width="1183"
     inkscape:window-height="941"
     inkscape:window-x="0"
     inkscape:window-y="0"
     inkscape:window-maximized="0"
     inkscape:current-layer="svg7"
     showgrid="false" />
  <defs
     id="defs2">
    <style
       id="current-color-scheme"
       type="text/css">.ColorScheme-Text {color:#d8dee9} .ColorScheme-Highlight {color:#3b4252}</style>
  </defs>
  <metadata
     id="metadata2">
    <rdf:RDF>
      <cc:Work
         rdf:about="">
        <dc:format>image/svg+xml</dc:format>
        <dc:type
           rdf:resource="http://purl.org/dc/dcmitype/StillImage" />
      </cc:Work>
    </rdf:RDF>
  </metadata>
  <path
     id="path4-3"
     style="fill:currentColor;fill-opacity:1;stroke:none;stroke-width:0.473921;stroke-dasharray:none;stroke-opacity:0.3"
     class="ColorScheme-Text"
     d="M 14.358606,2.1168995 C 13.733229,2.1469605 10.70038,4.5876849 9.9909181,5.2714991 9.0769098,6.1519094 7.0092772,8.7135717 7.0092772,8.7135717 l 1.5442761,1.8944713 c 0,0 1.9483187,-1.6280335 3.3095027,-3.38743 1.219905,-1.5756214 2.889469,-4.7470684 2.587256,-5.0761541 -0.01889,-0.020657 -0.05002,-0.029563 -0.0917,-0.027559 z M 6.8852601,9.0210015 5.7306169,10.667912 6.6186944,11.944197 8.2884129,10.79193 Z M 5.2255196,11.107437 c -0.3143725,0.0062 -0.5882333,0.16327 -0.7540818,0.344017 -0.2665859,0.287772 -0.4437917,0.947376 -0.7460041,1.565658 -0.3022122,0.616858 -1.2786605,1.769504 -1.2786605,1.769504 0,0 0.992295,0.06696 1.526695,0 0.9766621,-0.123942 1.7052427,-0.618464 1.9890274,-1.071491 0.2837848,-0.453027 0.319309,-1.071015 0.319309,-1.071015 0,0 0.1597666,-0.953422 -0.4618573,-1.358012 C 5.6172438,11.154144 5.4141432,11.103664 5.2255196,11.107437 Z" />
</svg>
