<?xml version="1.0" encoding="UTF-8" standalone="no"?>
<svg
   width="64"
   height="64"
   version="1.1"
   viewBox="0 0 16.933 16.933"
   id="svg7"
   sodipodi:docname="gnome-settings.svg"
   inkscape:version="1.4.2 (ebf0e940d0, 2025-05-08)"
   xmlns:inkscape="http://www.inkscape.org/namespaces/inkscape"
   xmlns:sodipodi="http://sodipodi.sourceforge.net/DTD/sodipodi-0.dtd"
   xmlns="http://www.w3.org/2000/svg"
   xmlns:svg="http://www.w3.org/2000/svg"
   xmlns:rdf="http://www.w3.org/1999/02/22-rdf-syntax-ns#"
   xmlns:cc="http://creativecommons.org/ns#"
   xmlns:dc="http://purl.org/dc/elements/1.1/">
  <sodipodi:namedview
     id="namedview7"
     pagecolor="#a9abb3"
     bordercolor="#000000"
     borderopacity="0.25"
     inkscape:showpageshadow="2"
     inkscape:pageopacity="0.0"
     inkscape:pagecheckerboard="0"
     inkscape:deskcolor="#d1d1d1"
     inkscape:zoom="4.3531261"
     inkscape:cx="36.066035"
     inkscape:cy="26.647517"
     inkscape:window-width="2560"
     inkscape:window-height="1376"
     inkscape:window-x="0"
     inkscape:window-y="0"
     inkscape:window-maximized="1"
     inkscape:current-layer="svg7"
     showgrid="false" />
  <defs
     id="defs2">
    <style
       id="current-color-scheme"
       type="text/css">.ColorScheme-Text {color:#d8dee9} .ColorScheme-Highlight {color:#3b4252}</style>
  </defs>
  <metadata
     id="metadata2">
    <rdf:RDF>
      <cc:Work
         rdf:about="">
        <dc:format>image/svg+xml</dc:format>
        <dc:type
           rdf:resource="http://purl.org/dc/dcmitype/StillImage" />
      </cc:Work>
    </rdf:RDF>
  </metadata>
  <path
     id="path24-7"
     style="fill:currentColor;stroke-width:0.794708"
     class="ColorScheme-Text"
     inkscape:label="path24"
     d="M 9.5034306,2.1166252 7.4136533,2.430598 V 3.0739775 A 5.5482373,5.5618014 0 0 0 5.7444355,3.6797381 L 5.2293464,3.0643315 3.637296,4.4210227 4.1427396,5.0258189 A 5.5482373,5.5618014 0 0 0 3.638743,5.7579397 C 3.4865292,6.0223744 3.3666253,6.2953482 3.2620717,6.5720514 L 2.4653233,6.4307395 2.116625,8.4944725 2.9056566,8.6343379 c 0.011244,0.5952011 0.1150632,1.1826522 0.3101147,1.7420441 l -0.7084885,0.411878 1.0557398,1.807153 0.7007726,-0.405608 c 0.3782358,0.43716 0.828886,0.823099 1.3504211,1.134835 L 5.3335216,14.101615 7.3022432,14.803834 7.5795623,14.0394 c 0.5885179,0.09464 1.182873,0.0978 1.7613351,0.0048 l 0.2806948,0.772174 1.9595578,-0.727298 -0.275871,-0.760094 c 0.501764,-0.298689 0.959574,-0.678951 1.353314,-1.135802 l 0.70849,0.408502 1.034036,-1.819692 -0.697878,-0.404162 C 13.900468,9.8080507 13.999647,9.2203656 14.007086,8.6357845 L 14.816374,8.493026 14.439703,6.432186 13.6444,6.5720514 C 13.43605,6.0223441 13.136446,5.5072943 12.760839,5.0426993 l 0.53004,-0.632287 -1.610858,-1.3364348 -0.514608,0.6154058 A 5.5402999,5.5538446 0 0 0 9.5034306,3.0783179 Z M 8.4539605,3.7718555 A 4.7624354,4.7740784 0 0 1 13.216608,8.5455958 4.7624354,4.7740784 0 0 1 8.4539605,13.319817 4.7624354,4.7740784 0 0 1 3.691795,8.5455958 4.7624354,4.7740784 0 0 1 8.4539605,3.7718555 Z M 8.6454311,4.572945 A 3.9496464,3.9593024 0 0 0 8.1747127,4.5782507 3.9599651,3.9696462 0 0 0 5.0142439,6.5532415 3.9790148,3.9887425 0 0 0 6.471734,11.9911 3.9702836,3.9799901 0 0 0 11.892712,10.53795 3.9766336,3.9863555 0 0 0 10.435704,5.1020212 3.9496464,3.9593024 0 0 0 8.6454311,4.572945 Z M 8.4544423,5.3629421 A 3.174957,3.182719 0 0 1 11.62938,8.5455958 3.174957,3.182719 0 0 1 8.4544423,11.72825 3.174957,3.182719 0 0 1 5.2795052,8.5455958 3.174957,3.182719 0 0 1 8.4544423,5.3629421 Z" />
</svg>
