<?xml version="1.0" encoding="UTF-8" standalone="no"?>
<svg
   width="64"
   height="64"
   version="1.1"
   viewBox="0 0 16.933 16.933"
   id="svg7"
   sodipodi:docname="preferences-desktop-accessibility.svg"
   inkscape:version="1.4.2 (ebf0e940d0, 2025-05-08)"
   xmlns:inkscape="http://www.inkscape.org/namespaces/inkscape"
   xmlns:sodipodi="http://sodipodi.sourceforge.net/DTD/sodipodi-0.dtd"
   xmlns="http://www.w3.org/2000/svg"
   xmlns:svg="http://www.w3.org/2000/svg"
   xmlns:rdf="http://www.w3.org/1999/02/22-rdf-syntax-ns#"
   xmlns:cc="http://creativecommons.org/ns#"
   xmlns:dc="http://purl.org/dc/elements/1.1/">
  <sodipodi:namedview
     id="namedview7"
     pagecolor="#9c4444"
     bordercolor="#000000"
     borderopacity="0.25"
     inkscape:showpageshadow="2"
     inkscape:pageopacity="0.0"
     inkscape:pagecheckerboard="0"
     inkscape:deskcolor="#d1d1d1"
     inkscape:zoom="6.15625"
     inkscape:cx="15.837563"
     inkscape:cy="29.64467"
     inkscape:window-width="1183"
     inkscape:window-height="941"
     inkscape:window-x="0"
     inkscape:window-y="0"
     inkscape:window-maximized="0"
     inkscape:current-layer="svg7"
     showgrid="false" />
  <defs
     id="defs2">
    <style
       id="current-color-scheme"
       type="text/css">.ColorScheme-Text {color:#d8dee9} .ColorScheme-Highlight {color:#3b4252}</style>
  </defs>
  <metadata
     id="metadata2">
    <rdf:RDF>
      <cc:Work
         rdf:about="">
        <dc:format>image/svg+xml</dc:format>
        <dc:type
           rdf:resource="http://purl.org/dc/dcmitype/StillImage" />
      </cc:Work>
    </rdf:RDF>
  </metadata>
  <path
     style="clip-rule:nonzero;display:inline;overflow:visible;visibility:visible;isolation:auto;mix-blend-mode:normal;color-interpolation:sRGB;color-interpolation-filters:linearRGB;solid-opacity:1;fill:currentColor;fill-opacity:1;fill-rule:evenodd;stroke:none;stroke-width:0.391019;stroke-linecap:butt;stroke-linejoin:miter;stroke-miterlimit:4;stroke-dasharray:none;stroke-dashoffset:0;stroke-opacity:0.3;color-rendering:auto;image-rendering:auto;shape-rendering:auto;text-rendering:auto;enable-background:accumulate"
     d="M 8.4663589,2.1166244 A 1.5159134,1.627781 0 0 0 6.9504452,3.7444056 1.5159134,1.627781 0 0 0 8.4663589,5.372186 1.5159134,1.627781 0 0 0 9.9822723,3.7444056 1.5159134,1.627781 0 0 0 8.4663589,2.1166244 Z M 3.6225412,5.6977424 C 3.2738318,5.688151 3.1883494,6.214629 3.5195067,6.3323227 L 6.950445,7.560153 v 2.646416 l -1.1991114,4.185177 c -0.107178,0.37181 0.373562,0.595652 0.5530716,0.25752 l 2.1619534,-4.062458 2.1619534,4.062458 c 0.179304,0.339899 0.662216,0.114504 0.553073,-0.258156 L 9.9822723,10.254258 V 7.560153 L 13.413211,6.3323227 C 13.761756,6.2084004 13.643564,5.650203 13.27938,5.7002861 L 8.4663589,6.346312 3.6533336,5.7002861 c -0.010212,-0.00137 -0.020495,-0.00226 -0.030792,-0.00254 z"
     id="path4184"
     class="ColorScheme-Text" />
  <g
     id="g9"
     transform="matrix(0.34162949,0,0,0.34162949,4.1636411,3.0781861)"
     style="fill:#999999;fill-opacity:1;stroke:none;stroke-width:0.58349;stroke-dasharray:none;stroke-opacity:0.3" />
</svg>
