<?xml version="1.0" encoding="UTF-8" standalone="no"?>
<svg
   width="64"
   height="64"
   version="1.1"
   viewBox="0 0 16.933 16.933"
   id="svg7"
   sodipodi:docname="document-open-recent.svg"
   inkscape:version="1.4.2 (ebf0e940d0, 2025-05-08)"
   xmlns:inkscape="http://www.inkscape.org/namespaces/inkscape"
   xmlns:sodipodi="http://sodipodi.sourceforge.net/DTD/sodipodi-0.dtd"
   xmlns="http://www.w3.org/2000/svg"
   xmlns:svg="http://www.w3.org/2000/svg"
   xmlns:rdf="http://www.w3.org/1999/02/22-rdf-syntax-ns#"
   xmlns:cc="http://creativecommons.org/ns#"
   xmlns:dc="http://purl.org/dc/elements/1.1/">
  <sodipodi:namedview
     id="namedview7"
     pagecolor="#9c4444"
     bordercolor="#000000"
     borderopacity="0.25"
     inkscape:showpageshadow="2"
     inkscape:pageopacity="0.0"
     inkscape:pagecheckerboard="0"
     inkscape:deskcolor="#d1d1d1"
     inkscape:zoom="6.15625"
     inkscape:cx="15.593909"
     inkscape:cy="29.725888"
     inkscape:window-width="2560"
     inkscape:window-height="1392"
     inkscape:window-x="0"
     inkscape:window-y="0"
     inkscape:window-maximized="1"
     inkscape:current-layer="svg7"
     showgrid="false" />
  <defs
     id="defs2">
    <style
       id="current-color-scheme"
       type="text/css">.ColorScheme-Text {color:#d8dee9} .ColorScheme-Highlight {color:#3b4252}</style>
  </defs>
  <metadata
     id="metadata2">
    <rdf:RDF>
      <cc:Work
         rdf:about="">
        <dc:format>image/svg+xml</dc:format>
        <dc:type
           rdf:resource="http://purl.org/dc/dcmitype/StillImage" />
      </cc:Work>
    </rdf:RDF>
  </metadata>
  <path
     id="path102"
     style="fill:currentColor;fill-opacity:1;stroke:none;stroke-width:0.412547;stroke-dasharray:none;stroke-dashoffset:2.2;stroke-opacity:0.3"
     class="ColorScheme-Text"
     d="m 6.6378334,2.1166153 c -2.9974595,0 -2.8941563,-0.00998 -3.0688996,0.2858684 -0.070619,0.119562 -0.077513,0.6554147 -0.077513,6.0379621 0,6.5221112 -0.020795,6.0883522 0.2982704,6.2829032 0.1476473,0.08998 0.2722936,0.09282 4.6675302,0.09302 4.9203756,1.9e-4 4.6662326,0.0139 4.8864266,-0.266025 0.09862,-0.125384 0.09798,-0.139764 0.09798,-4.242138 V 6.1919452 H 11.653243 C 9.6476464,6.1918628 9.6130222,6.1865019 9.4500095,5.860189 9.3755247,5.7110955 9.366993,5.5137002 9.3669154,3.9056181 V 2.1166153 Z m 3.2983383,0.072552 v 1.5304192 c 0,1.6701849 0.00842,1.7339768 0.2722263,1.8770577 0.106799,0.057943 0.3964,0.07098 1.639557,0.072552 l 1.509956,0.00186 -0.807376,-0.8414824 C 12.106195,4.3669666 11.335976,3.583237 10.839044,3.0883198 Z m -1.1186694,5.404215 c 1.5587347,0 2.8239577,1.2445753 2.8239577,2.7780707 0,1.533494 -1.265223,2.77807 -2.8239577,2.77807 -0.8392632,0 -1.5928527,-0.359576 -2.1102171,-0.932018 l 0.5153072,-0.47004 c 0.3889176,0.435963 0.9595495,0.711881 1.5949099,0.711881 1.1710692,0 2.1213797,-0.93539 2.1213797,-2.087893 0,-1.1525024 -0.9503105,-2.0878939 -2.1213797,-2.0878939 -1.0816776,0 -1.9763961,0.6609552 -2.1064965,1.6910263 H 7.3987023 L 6.3451439,11.29727 5.2915854,9.9745856 H 6.0047062 C 6.1369731,8.5617198 7.3470679,7.5933825 8.8175023,7.5933823 Z M 8.7313078,8.6519017 H 8.9954725 V 10.23937 l 0.7937344,1.0579 v 0.264785 L 8.466523,10.503535 Z" />
</svg>
