<?xml version="1.0" encoding="UTF-8" standalone="no"?>
<svg
   width="64"
   height="64"
   version="1.1"
   id="svg7"
   sodipodi:docname="folder-downloads.svg"
   inkscape:version="1.4.2 (ebf0e940d0, 2025-05-08)"
   xmlns:inkscape="http://www.inkscape.org/namespaces/inkscape"
   xmlns:sodipodi="http://sodipodi.sourceforge.net/DTD/sodipodi-0.dtd"
   xmlns="http://www.w3.org/2000/svg"
   xmlns:svg="http://www.w3.org/2000/svg"
   xmlns:rdf="http://www.w3.org/1999/02/22-rdf-syntax-ns#"
   xmlns:cc="http://creativecommons.org/ns#"
   xmlns:dc="http://purl.org/dc/elements/1.1/">
  <metadata
     id="metadata11">
    <rdf:RDF>
      <cc:Work
         rdf:about="">
        <dc:format>image/svg+xml</dc:format>
        <dc:type
           rdf:resource="http://purl.org/dc/dcmitype/StillImage" />
      </cc:Work>
    </rdf:RDF>
  </metadata>
  <sodipodi:namedview
     pagecolor="#9c4444"
     bordercolor="#666666"
     borderopacity="1"
     objecttolerance="10"
     gridtolerance="10"
     guidetolerance="10"
     inkscape:pageopacity="0"
     inkscape:pageshadow="2"
     inkscape:window-width="2560"
     inkscape:window-height="1376"
     id="namedview9"
     showgrid="false"
     inkscape:zoom="25.78125"
     inkscape:cx="7.4472727"
     inkscape:cy="7.990303"
     inkscape:window-x="0"
     inkscape:window-y="0"
     inkscape:window-maximized="1"
     inkscape:current-layer="g1"
     inkscape:document-rotation="0"
     inkscape:showpageshadow="2"
     inkscape:pagecheckerboard="0"
     inkscape:deskcolor="#ffffff" />
  <defs
     id="defs3">
    <style
       id="current-color-scheme"
       type="text/css">.ColorScheme-Text {color:#d8dee9} .ColorScheme-Highlight {color:#3b4252}</style>
  </defs>
  <g
     id="g1"
     transform="matrix(3.0614776,0,0,3.0614776,-17.800142,-26.044441)">
    <path
       id="path883"
       style="fill:currentColor;stroke:none;stroke-width:1.11751;stroke-linejoin:round;stroke-dasharray:none;stroke-opacity:0.3"
       d="m 16.266702,11.120263 c -4.31891,0 -7.8393521,3.520443 -7.8393521,7.839354 0,4.318911 3.5204421,7.839353 7.8393521,7.839353 4.318912,0 7.839351,-3.520442 7.839351,-7.839353 0,-4.318911 -3.520439,-7.839354 -7.839351,-7.839354 z m 0,1.79652 c 3.348,0 6.042829,2.694833 6.042829,6.042834 0,3.347999 -2.694829,6.042831 -6.042829,6.042831 -3.348001,0 -6.042834,-2.694832 -6.042834,-6.042831 0,-3.348001 2.694833,-6.042834 6.042834,-6.042834 z m -0.65328,2.123158 c -0.361917,0 -0.653279,0.291362 -0.653279,0.653277 v 3.266399 h -1.746757 c -0.472256,4.97e-4 -0.715691,0.557217 -0.391712,0.895707 l 3.053316,3.18474 c 0.212625,0.221422 0.5708,0.221422 0.783425,0 l 3.053316,-3.184741 c 0.323983,-0.33853 0.08054,-0.895202 -0.391713,-0.895706 h -1.746757 v -3.266399 c 0,-0.361917 -0.291366,-0.653277 -0.653279,-0.653277 z"
       class="ColorScheme-Text" />
  </g>
</svg>
