<?xml version="1.0" encoding="UTF-8" standalone="no"?>
<svg
   width="64"
   height="64"
   version="1.1"
   viewBox="0 0 16.933 16.933"
   id="svg7"
   sodipodi:docname="folder-documents.svg"
   inkscape:version="1.4.2 (ebf0e940d0, 2025-05-08)"
   xmlns:inkscape="http://www.inkscape.org/namespaces/inkscape"
   xmlns:sodipodi="http://sodipodi.sourceforge.net/DTD/sodipodi-0.dtd"
   xmlns="http://www.w3.org/2000/svg"
   xmlns:svg="http://www.w3.org/2000/svg"
   xmlns:rdf="http://www.w3.org/1999/02/22-rdf-syntax-ns#"
   xmlns:cc="http://creativecommons.org/ns#"
   xmlns:dc="http://purl.org/dc/elements/1.1/">
  <sodipodi:namedview
     id="namedview7"
     pagecolor="#9c4444"
     bordercolor="#000000"
     borderopacity="0.25"
     inkscape:showpageshadow="2"
     inkscape:pageopacity="0.0"
     inkscape:pagecheckerboard="0"
     inkscape:deskcolor="#d1d1d1"
     inkscape:zoom="6.15625"
     inkscape:cx="15.593909"
     inkscape:cy="29.725888"
     inkscape:window-width="2560"
     inkscape:window-height="1392"
     inkscape:window-x="0"
     inkscape:window-y="0"
     inkscape:window-maximized="1"
     inkscape:current-layer="svg7"
     showgrid="false" />
  <defs
     id="defs2">
    <style
       id="current-color-scheme"
       type="text/css">.ColorScheme-Text {color:#d8dee9} .ColorScheme-Highlight {color:#3b4252}</style>
  </defs>
  <metadata
     id="metadata2">
    <rdf:RDF>
      <cc:Work
         rdf:about="">
        <dc:format>image/svg+xml</dc:format>
        <dc:type
           rdf:resource="http://purl.org/dc/dcmitype/StillImage" />
      </cc:Work>
    </rdf:RDF>
  </metadata>
  <path
     id="path102"
     style="fill:currentColor;fill-opacity:1;stroke:none;stroke-width:0.412547;stroke-dasharray:none;stroke-dashoffset:2.2;stroke-opacity:0.3"
     d="m 6.6379916,2.116662 c -2.9974595,0 -2.8943855,-0.0098 -3.0691288,0.2860439 -0.070619,0.119562 -0.077356,0.6549853 -0.077356,6.0375328 0,6.5221113 -0.020936,6.0887383 0.2981295,6.2832893 0.1476473,0.08998 0.2725135,0.0925 4.6677501,0.09269 4.9203766,1.91e-4 4.6659136,0.01403 4.8861076,-0.2659 0.09862,-0.125384 0.09828,-0.139934 0.09828,-4.242308 V 6.1921833 h -1.78876 C 9.647418,6.1921008 9.6130857,6.186524 9.450073,5.8602111 9.3755882,5.7111176 9.3671522,5.513528 9.3670746,3.9054459 V 2.116662 Z m 3.2979634,0.07252 v 1.5301316 c 0,1.6701849 0.00854,1.7343318 0.272346,1.8774127 0.1068,0.057943 0.396555,0.070948 1.639711,0.07252 l 1.509989,0.00158 -0.807367,-0.8412021 C 12.106294,4.3670195 11.336139,3.5832948 10.839207,3.0883776 Z M 5.7186225,8.2299375 H 8.4662538 11.214691 V 8.5852743 8.9406135 H 8.4662538 5.7186222 V 8.5852743 Z m 0,1.3262736 h 2.7476313 2.7484372 v 0.379512 0.3787089 H 8.4662538 5.7186222 V 9.9357219 Z m 0,1.3746219 h 2.7476313 2.7484372 v 0.378705 0.379514 H 8.4662538 5.7186222 v -0.379514 z m 0,1.373815 h 1.7291547 1.7299605 v 0.379511 0.378703 H 7.4477772 5.7186222 v -0.378703 z"
     class="ColorScheme-Text" />
</svg>
