<?xml version="1.0" encoding="UTF-8" standalone="no"?>
<svg
   width="64"
   height="64"
   version="1.1"
   id="svg7"
   sodipodi:docname="folder-publicshare.svg"
   inkscape:version="1.4.2 (ebf0e940d0, 2025-05-08)"
   xmlns:inkscape="http://www.inkscape.org/namespaces/inkscape"
   xmlns:sodipodi="http://sodipodi.sourceforge.net/DTD/sodipodi-0.dtd"
   xmlns="http://www.w3.org/2000/svg"
   xmlns:svg="http://www.w3.org/2000/svg"
   xmlns:rdf="http://www.w3.org/1999/02/22-rdf-syntax-ns#"
   xmlns:cc="http://creativecommons.org/ns#"
   xmlns:dc="http://purl.org/dc/elements/1.1/">
  <metadata
     id="metadata11">
    <rdf:RDF>
      <cc:Work
         rdf:about="">
        <dc:format>image/svg+xml</dc:format>
        <dc:type
           rdf:resource="http://purl.org/dc/dcmitype/StillImage" />
      </cc:Work>
    </rdf:RDF>
  </metadata>
  <sodipodi:namedview
     pagecolor="#9c4444"
     bordercolor="#666666"
     borderopacity="1"
     objecttolerance="10"
     gridtolerance="10"
     guidetolerance="10"
     inkscape:pageopacity="0"
     inkscape:pageshadow="2"
     inkscape:window-width="2560"
     inkscape:window-height="1376"
     id="namedview9"
     showgrid="false"
     inkscape:zoom="12.890625"
     inkscape:cx="7.4472727"
     inkscape:cy="7.990303"
     inkscape:window-x="0"
     inkscape:window-y="0"
     inkscape:window-maximized="1"
     inkscape:current-layer="g1"
     inkscape:document-rotation="0"
     inkscape:showpageshadow="2"
     inkscape:pagecheckerboard="0"
     inkscape:deskcolor="#ffffff" />
  <defs
     id="defs3">
    <style
       id="current-color-scheme"
       type="text/css">.ColorScheme-Text {color:#d8dee9} .ColorScheme-Highlight {color:#3b4252}</style>
  </defs>
  <g
     id="g1"
     transform="matrix(3.0614776,0,0,3.0614776,-18.011568,-26.661558)">
    <path
       style="display:inline;overflow:visible;visibility:visible;fill:currentColor;fill-opacity:0.971119;fill-rule:nonzero;stroke:none;stroke-width:1.20691;stroke-linecap:butt;stroke-linejoin:miter;stroke-miterlimit:4;stroke-dasharray:none;stroke-dashoffset:0;stroke-opacity:0.3;marker:none;enable-background:accumulate"
       id="path18808-8"
       d="m 20.611772,11.321839 c -1.574386,0 -2.850674,1.276292 -2.850674,2.850675 0,0.214121 0.04434,0.422958 0.08909,0.623585 l -3.875137,2.249358 c -0.505561,-0.456952 -1.180156,-0.73494 -1.915295,-0.73494 -1.574383,0 -2.8506743,1.276291 -2.8506743,2.850674 0,1.574383 1.2762913,2.850674 2.8506743,2.850674 0.735139,0 1.409734,-0.277969 1.915295,-0.734943 l 3.875134,2.249361 c -0.04475,0.200634 -0.08909,0.409468 -0.08909,0.623586 0,1.574384 1.276291,2.850674 2.850674,2.850674 1.574376,0 2.850669,-1.27629 2.850669,-2.850674 0,-1.574383 -1.276293,-2.850674 -2.850669,-2.850674 -0.712301,0 -1.371081,0.25846 -1.870753,0.690397 l -3.897403,-2.249361 c 0.03798,-0.18556 0.0668,-0.382245 0.0668,-0.57904 0,-0.196754 -0.02882,-0.393473 -0.0668,-0.579043 l 3.897403,-2.249358 c 0.499676,0.431907 1.158452,0.690397 1.870756,0.690397 1.574376,0 2.850671,-1.27629 2.850671,-2.850673 0,-1.574383 -1.276295,-2.850675 -2.850671,-2.850675 z"
       class="ColorScheme-Text" />
  </g>
</svg>
