<?xml version="1.0" encoding="UTF-8" standalone="no"?>
<svg
   width="64"
   height="64"
   version="1.1"
   id="svg7"
   sodipodi:docname="folder-network.svg"
   inkscape:version="1.4.2 (ebf0e940d0, 2025-05-08)"
   xmlns:inkscape="http://www.inkscape.org/namespaces/inkscape"
   xmlns:sodipodi="http://sodipodi.sourceforge.net/DTD/sodipodi-0.dtd"
   xmlns="http://www.w3.org/2000/svg"
   xmlns:svg="http://www.w3.org/2000/svg"
   xmlns:rdf="http://www.w3.org/1999/02/22-rdf-syntax-ns#"
   xmlns:cc="http://creativecommons.org/ns#"
   xmlns:dc="http://purl.org/dc/elements/1.1/">
  <metadata
     id="metadata11">
    <rdf:RDF>
      <cc:Work
         rdf:about="">
        <dc:format>image/svg+xml</dc:format>
        <dc:type
           rdf:resource="http://purl.org/dc/dcmitype/StillImage" />
      </cc:Work>
    </rdf:RDF>
  </metadata>
  <sodipodi:namedview
     pagecolor="#9c4444"
     bordercolor="#666666"
     borderopacity="1"
     objecttolerance="10"
     gridtolerance="10"
     guidetolerance="10"
     inkscape:pageopacity="0"
     inkscape:pageshadow="2"
     inkscape:window-width="2560"
     inkscape:window-height="1376"
     id="namedview9"
     showgrid="false"
     inkscape:zoom="12.890625"
     inkscape:cx="7.4472727"
     inkscape:cy="7.990303"
     inkscape:window-x="0"
     inkscape:window-y="0"
     inkscape:window-maximized="1"
     inkscape:current-layer="g1"
     inkscape:document-rotation="0"
     inkscape:showpageshadow="2"
     inkscape:pagecheckerboard="0"
     inkscape:deskcolor="#ffffff" />
  <defs
     id="defs3">
    <style
       id="current-color-scheme"
       type="text/css">.ColorScheme-Text {color:#d8dee9} .ColorScheme-Highlight {color:#3b4252}</style>
  </defs>
  <g
     id="g1"
     transform="matrix(3.0614776,0,0,3.0614776,-18.011568,-26.661558)">
    <path
       style="display:inline;overflow:visible;visibility:visible;fill:currentColor;fill-opacity:0.971119;fill-rule:nonzero;stroke:none;stroke-width:1.20691;stroke-linecap:butt;stroke-linejoin:miter;stroke-miterlimit:4;stroke-dasharray:none;stroke-dashoffset:0;stroke-opacity:0.3;marker:none;enable-background:accumulate"
       id="path18808-8"
       d="m 20.611772,11.321839 c -1.574385,0 -2.850674,1.276292 -2.850674,2.850675 0,0.214117 0.04434,0.422958 0.08909,0.623584 l -3.875136,2.249358 c -0.505565,-0.456951 -1.180158,-0.73494 -1.915296,-0.73494 -1.574383,0 -2.8506731,1.276292 -2.8506731,2.850675 0,1.574383 1.2762901,2.850674 2.8506731,2.850674 0.735138,0 1.409731,-0.277969 1.915296,-0.734943 l 3.875134,2.249361 c -0.04475,0.200635 -0.08909,0.409469 -0.08909,0.623586 0,1.574383 1.27629,2.850675 2.850674,2.850675 1.574374,0 2.850669,-1.276292 2.850669,-2.850675 0,-1.574383 -1.276295,-2.850674 -2.850669,-2.850674 -0.712302,0 -1.371082,0.258459 -1.870754,0.690397 L 14.843611,19.74023 c 0.03797,-0.185559 0.06682,-0.382244 0.06682,-0.579039 0,-0.196755 -0.02886,-0.393473 -0.06682,-0.579043 l 3.897406,-2.249358 c 0.499674,0.431907 1.158452,0.690397 1.870755,0.690397 1.574375,0 2.85067,-1.276291 2.85067,-2.850673 0,-1.574384 -1.276295,-2.850675 -2.85067,-2.850675 z"
       class="ColorScheme-Text" />
  </g>
</svg>
