<?xml version="1.0" encoding="UTF-8" standalone="no"?>
<svg
   width="64"
   height="64"
   version="1.1"
   id="svg7"
   sodipodi:docname="folder-mega.svg"
   inkscape:version="1.4.2 (ebf0e940d0, 2025-05-08)"
   xmlns:inkscape="http://www.inkscape.org/namespaces/inkscape"
   xmlns:sodipodi="http://sodipodi.sourceforge.net/DTD/sodipodi-0.dtd"
   xmlns="http://www.w3.org/2000/svg"
   xmlns:svg="http://www.w3.org/2000/svg"
   xmlns:rdf="http://www.w3.org/1999/02/22-rdf-syntax-ns#"
   xmlns:cc="http://creativecommons.org/ns#"
   xmlns:dc="http://purl.org/dc/elements/1.1/">
  <metadata
     id="metadata11">
    <rdf:RDF>
      <cc:Work
         rdf:about="">
        <dc:format>image/svg+xml</dc:format>
        <dc:type
           rdf:resource="http://purl.org/dc/dcmitype/StillImage" />
      </cc:Work>
    </rdf:RDF>
  </metadata>
  <sodipodi:namedview
     pagecolor="#9c4444"
     bordercolor="#666666"
     borderopacity="1"
     objecttolerance="10"
     gridtolerance="10"
     guidetolerance="10"
     inkscape:pageopacity="0"
     inkscape:pageshadow="2"
     inkscape:window-width="2560"
     inkscape:window-height="1376"
     id="namedview9"
     showgrid="false"
     inkscape:zoom="12.890625"
     inkscape:cx="7.0593939"
     inkscape:cy="7.990303"
     inkscape:window-x="0"
     inkscape:window-y="0"
     inkscape:window-maximized="1"
     inkscape:current-layer="svg7"
     inkscape:document-rotation="0"
     inkscape:showpageshadow="2"
     inkscape:pagecheckerboard="0"
     inkscape:deskcolor="#ffffff" />
  <defs
     id="defs3">
    <style
       id="current-color-scheme"
       type="text/css">.ColorScheme-Text {color:#d8dee9} .ColorScheme-Highlight {color:#3b4252}</style>
  </defs>
  <path
     style="fill:currentColor;fill-opacity:1;stroke:none;stroke-width:2.8413;stroke-dasharray:none;stroke-dashoffset:2.2;stroke-opacity:0.3"
     d="M 26.196057,55.12793 C 19.432752,53.29069 13.605436,48.597208 10.653762,42.609685 7.1154069,35.432044 7.1154069,28.640562 10.653793,21.434313 13.765126,15.097768 20.138454,10.21294 27.249604,8.714456 c 10.270002,-2.1641316 21.234573,2.964128 25.98245,12.152314 2.273859,4.400446 2.773801,6.445921 2.767894,11.324895 -0.0046,3.647739 -0.148203,4.599409 -1.115491,7.378507 -2.50043,7.184234 -7.845961,12.481965 -15.161712,15.026123 -3.860304,1.342493 -9.697155,1.571895 -13.526634,0.531579 z m 2.273359,-16.283062 0.10416,-5.669428 1.824884,1.560568 1.824907,1.560567 1.864118,-1.836088 1.864128,-1.836107 v 5.944972 5.944943 h 4.356311 4.356324 l -0.0988,-12.391307 -0.0988,-12.391297 -4.136398,-0.108048 -4.136402,-0.108144 -2.011966,1.986971 -2.012532,1.986976 -1.998284,-1.973457 -1.998292,-1.973469 h -4.24468 -4.244648 v 12.485884 12.48591 h 4.341297 4.341294 z"
     id="path99"
     class="ColorScheme-Text" />
</svg>
