<?xml version="1.0" encoding="UTF-8" standalone="no"?>
<svg
   width="64"
   height="64"
   viewBox="0 0 64 64"
   version="1.1"
   id="svg7"
   sodipodi:docname="folder-open-recent.svg"
   inkscape:version="1.4.2 (ebf0e940d0, 2025-05-08)"
   xmlns:inkscape="http://www.inkscape.org/namespaces/inkscape"
   xmlns:sodipodi="http://sodipodi.sourceforge.net/DTD/sodipodi-0.dtd"
   xmlns="http://www.w3.org/2000/svg"
   xmlns:svg="http://www.w3.org/2000/svg"
   xmlns:rdf="http://www.w3.org/1999/02/22-rdf-syntax-ns#"
   xmlns:cc="http://creativecommons.org/ns#"
   xmlns:dc="http://purl.org/dc/elements/1.1/">
  <metadata
     id="metadata11">
    <rdf:RDF>
      <cc:Work
         rdf:about="">
        <dc:format>image/svg+xml</dc:format>
        <dc:type
           rdf:resource="http://purl.org/dc/dcmitype/StillImage" />
      </cc:Work>
    </rdf:RDF>
  </metadata>
  <sodipodi:namedview
     pagecolor="#9c4444"
     bordercolor="#666666"
     borderopacity="1"
     objecttolerance="10"
     gridtolerance="10"
     guidetolerance="10"
     inkscape:pageopacity="0"
     inkscape:pageshadow="2"
     inkscape:window-width="2560"
     inkscape:window-height="1384"
     id="namedview9"
     showgrid="false"
     inkscape:zoom="7.2407735"
     inkscape:cx="26.792718"
     inkscape:cy="7.8720871"
     inkscape:window-x="0"
     inkscape:window-y="0"
     inkscape:window-maximized="1"
     inkscape:current-layer="svg7"
     inkscape:document-rotation="0"
     inkscape:showpageshadow="2"
     inkscape:pagecheckerboard="0"
     inkscape:deskcolor="#ffffff" />
  <defs
     id="defs3">
    <style
       id="current-color-scheme"
       type="text/css">.ColorScheme-Text {color:#d8dee9} .ColorScheme-Highlight {color:#3b4252}</style>
  </defs>
  <path
     id="path5"
     style="fill:currentColor;fill-opacity:1;stroke:none;stroke-width:3.42857;stroke-opacity:0.3"
     class="ColorScheme-Text"
     d="m 11.428905,9.7132825 c 0,0 -3.4289049,3.343e-4 -3.4289049,3.4289055 v 37.715623 c 0,0 3.361e-4,3.428909 3.4289049,3.428909 h 41.142189 c 0,0 3.428905,-3.38e-4 3.428905,-3.428909 v -30.85781 c 0,-3.42857 -3.428905,-3.428908 -3.428905,-3.428908 H 35.428905 L 28.571094,9.7132825 Z M 33.659377,21.8 C 41.023613,21.8 47,27.679998 47,34.924999 c 0,7.245 -5.976387,13.125002 -13.340623,13.125002 -3.9651,0 -7.526026,-1.697059 -9.970316,-4.401562 l 2.435157,-2.221876 c 1.837445,2.059701 4.533392,3.363281 7.535159,3.363281 5.532717,0 10.021873,-4.419843 10.021873,-9.864845 0,-5.444999 -4.489156,-9.864842 -10.021873,-9.864842 -5.110391,0 -9.33925,3.123266 -9.953909,7.989843 h 3.248439 L 21.978126,39.300782 16.999998,33.05 H 20.36797 C 20.992868,26.374909 26.712297,21.8 33.659377,21.8 Z m -0.410159,4.999219 h 1.251563 v 7.5 l 3.75,5.001563 v 1.249219 l -6.250782,-4.999219 z" />
</svg>
