<?xml version="1.0" encoding="UTF-8" standalone="no"?>
<svg
   width="64"
   height="64"
   version="1.1"
   id="svg9"
   sodipodi:docname="gnome-fs-directory-accept.svg"
   inkscape:version="1.4.2 (ebf0e940d0, 2025-05-08)"
   xmlns:inkscape="http://www.inkscape.org/namespaces/inkscape"
   xmlns:sodipodi="http://sodipodi.sourceforge.net/DTD/sodipodi-0.dtd"
   xmlns="http://www.w3.org/2000/svg"
   xmlns:svg="http://www.w3.org/2000/svg"
   xmlns:rdf="http://www.w3.org/1999/02/22-rdf-syntax-ns#"
   xmlns:cc="http://creativecommons.org/ns#"
   xmlns:dc="http://purl.org/dc/elements/1.1/">
  <metadata
     id="metadata13">
    <rdf:RDF>
      <cc:Work
         rdf:about="">
        <dc:format>image/svg+xml</dc:format>
        <dc:type
           rdf:resource="http://purl.org/dc/dcmitype/StillImage" />
      </cc:Work>
    </rdf:RDF>
  </metadata>
  <sodipodi:namedview
     pagecolor="#9c4444"
     bordercolor="#666666"
     borderopacity="1"
     objecttolerance="10"
     gridtolerance="10"
     guidetolerance="10"
     inkscape:pageopacity="0"
     inkscape:pageshadow="2"
     inkscape:window-width="2560"
     inkscape:window-height="1376"
     id="namedview11"
     showgrid="false"
     inkscape:zoom="18.58365"
     inkscape:cx="7.8025576"
     inkscape:cy="20.986189"
     inkscape:window-x="0"
     inkscape:window-y="0"
     inkscape:window-maximized="1"
     inkscape:current-layer="svg9"
     inkscape:document-rotation="0"
     inkscape:showpageshadow="0"
     inkscape:pagecheckerboard="false"
     inkscape:deskcolor="#d1d1d1" />
  <defs
     id="defs3">
    <style
       id="current-color-scheme"
       type="text/css">.ColorScheme-Text {color:#d8dee9} .ColorScheme-Highlight {color:#3b4252}</style>
  </defs>
  <path
     style="opacity:0.3;fill:currentColor;stroke-width:3.42857"
     class="ColorScheme-Text"
     d="m 11.428572,9.7142855 c 0,0 -3.428572,0 -3.428572,3.4285715 V 23.428572 C 8,20 11.428572,20 11.428572,20 h 17.142856 l 6.857144,6.857142 h 17.142856 c 0,0 3.428572,0 3.428572,3.428572 V 20 c 0,-3.428572 -3.428572,-3.428572 -3.428572,-3.428572 H 35.428572 L 28.571428,9.7142855 Z"
     id="path5" />
  <path
     style="fill:currentColor;stroke:none;stroke-width:3.42857;stroke-dasharray:none;stroke-opacity:0.3"
     class="ColorScheme-Text"
     d="m 11.428572,23.428572 c 0,0 -3.428572,0 -3.428572,3.42857 v 24 c 0,0 0,3.428572 3.428572,3.428572 h 41.142856 c 0,0 3.428572,0 3.428572,-3.428572 V 33.714285 c 0,-3.428571 -3.428572,-3.428571 -3.428572,-3.428571 H 35.428572 l -6.857144,-6.857142 z"
     id="path7" />
</svg>
