<?xml version="1.0" encoding="UTF-8" standalone="no"?>
<svg
   width="64"
   height="64"
   version="1.1"
   id="svg7"
   sodipodi:docname="network-server.svg"
   inkscape:version="1.4.2 (ebf0e940d0, 2025-05-08)"
   xmlns:inkscape="http://www.inkscape.org/namespaces/inkscape"
   xmlns:sodipodi="http://sodipodi.sourceforge.net/DTD/sodipodi-0.dtd"
   xmlns="http://www.w3.org/2000/svg"
   xmlns:svg="http://www.w3.org/2000/svg"
   xmlns:rdf="http://www.w3.org/1999/02/22-rdf-syntax-ns#"
   xmlns:cc="http://creativecommons.org/ns#"
   xmlns:dc="http://purl.org/dc/elements/1.1/">
  <metadata
     id="metadata11">
    <rdf:RDF>
      <cc:Work
         rdf:about="">
        <dc:format>image/svg+xml</dc:format>
        <dc:type
           rdf:resource="http://purl.org/dc/dcmitype/StillImage" />
      </cc:Work>
    </rdf:RDF>
  </metadata>
  <sodipodi:namedview
     pagecolor="#9c4444"
     bordercolor="#666666"
     borderopacity="1"
     objecttolerance="10"
     gridtolerance="10"
     guidetolerance="10"
     inkscape:pageopacity="0"
     inkscape:pageshadow="2"
     inkscape:window-width="2560"
     inkscape:window-height="1376"
     id="namedview9"
     showgrid="false"
     inkscape:zoom="18.230097"
     inkscape:cx="7.350482"
     inkscape:cy="8.0087341"
     inkscape:window-x="0"
     inkscape:window-y="0"
     inkscape:window-maximized="1"
     inkscape:current-layer="svg7"
     inkscape:document-rotation="0"
     inkscape:showpageshadow="2"
     inkscape:pagecheckerboard="0"
     inkscape:deskcolor="#ffffff" />
  <defs
     id="defs3">
    <style
       id="current-color-scheme"
       type="text/css">.ColorScheme-Text {color:#d8dee9} .ColorScheme-Highlight {color:#3b4252}</style>
  </defs>
  <path
     style="fill:currentColor;fill-opacity:1;stroke:none;stroke-width:3.7037;stroke-dasharray:none;stroke-opacity:0.3"
     class="ColorScheme-Text"
     d="m 14.000001,8 c -1.661999,0 -2.999999,1.338 -2.999999,3 v 8.999999 H 52.999998 V 11 c 0,-1.662 -1.338,-3 -3,-3 z M 32,11 h 3 v 6 h -3 z m 6,0 h 2.999999 v 6 H 38 Z m 5.999998,0 h 3 v 6 h -3 z M 11.000002,22.999999 v 12 h 41.999996 v -12 z m 20.999998,3 h 3 v 6 h -3 z m 6,0 h 2.999999 v 6 H 38 Z m 5.999998,0 h 3 v 6 h -3 z M 11.000002,37.999998 v 9.000003 c 0,1.662 1.338,2.999999 2.999999,2.999999 H 29 v 6 h 6 v -6 h 14.999998 c 1.662,0 3,-1.337999 3,-2.999999 v -9.000003 z m 20.999998,3 h 3 v 6.000003 h -3 z m 6,0 h 2.999999 v 6.000003 H 38 Z m 5.999998,0 h 3 v 6.000003 h -3 z"
     id="path5" />
</svg>
