<?xml version="1.0" encoding="UTF-8" standalone="no"?>
<svg
   width="64"
   height="64"
   version="1.1"
   id="svg7"
   sodipodi:docname="repositories.svg"
   inkscape:version="1.4.2 (ebf0e940d0, 2025-05-08)"
   xmlns:inkscape="http://www.inkscape.org/namespaces/inkscape"
   xmlns:sodipodi="http://sodipodi.sourceforge.net/DTD/sodipodi-0.dtd"
   xmlns="http://www.w3.org/2000/svg"
   xmlns:svg="http://www.w3.org/2000/svg"
   xmlns:rdf="http://www.w3.org/1999/02/22-rdf-syntax-ns#"
   xmlns:cc="http://creativecommons.org/ns#"
   xmlns:dc="http://purl.org/dc/elements/1.1/">
  <metadata
     id="metadata11">
    <rdf:RDF>
      <cc:Work
         rdf:about="">
        <dc:format>image/svg+xml</dc:format>
        <dc:type
           rdf:resource="http://purl.org/dc/dcmitype/StillImage" />
      </cc:Work>
    </rdf:RDF>
  </metadata>
  <sodipodi:namedview
     pagecolor="#9c4444"
     bordercolor="#666666"
     borderopacity="1"
     objecttolerance="10"
     gridtolerance="10"
     guidetolerance="10"
     inkscape:pageopacity="0"
     inkscape:pageshadow="2"
     inkscape:window-width="2560"
     inkscape:window-height="1376"
     id="namedview9"
     showgrid="false"
     inkscape:zoom="18.230097"
     inkscape:cx="7.350482"
     inkscape:cy="8.0087341"
     inkscape:window-x="0"
     inkscape:window-y="0"
     inkscape:window-maximized="1"
     inkscape:current-layer="svg7"
     inkscape:document-rotation="0"
     inkscape:showpageshadow="2"
     inkscape:pagecheckerboard="0"
     inkscape:deskcolor="#ffffff" />
  <defs
     id="defs3">
    <style
       id="current-color-scheme"
       type="text/css">.ColorScheme-Text {color:#d8dee9} .ColorScheme-Highlight {color:#3b4252}</style>
  </defs>
  <path
     style="fill:currentColor;fill-opacity:1;stroke:none;stroke-width:3.42857;stroke-opacity:0.3"
     class="ColorScheme-Text"
     d="m 32,8.0000012 c -13.254857,0 -24,10.7451418 -24,23.9999998 0,13.254855 10.745143,23.999998 24,23.999998 13.254857,0 24,-10.745143 24,-23.999998 C 56,18.745143 45.254857,8.0000012 32,8.0000012 Z m -1.714285,6.6428568 c 0.22937,-0.024 0.51857,0.01372 0.75,0 0.02743,0.109716 -0.166972,0.500125 -0.428572,1.071428 -1.665806,3.639086 -1.760298,7.9008 -0.214286,10.178744 0.279771,0.413005 0.535715,0.806056 0.535715,0.857142 0,0.05108 -0.301715,0.106968 -0.642857,0.106968 -0.800847,0 -1.558698,-0.488092 -3.107143,-1.714252 C 26.490697,24.598195 25.596457,24.140686 25.25,24.07143 24.705955,23.962746 24.560925,24.010398 23.857108,24.714286 23.202285,25.369006 23,25.722046 23,26.32143 c 0,2.272936 2.69856,4.079656 7.714285,5.142856 6.811543,1.443669 8.490515,2.73984 8.6784,6.3216 0.235887,4.491426 -2.1552,7.87817 -7.392685,10.499998 -0.625132,0.313028 -1.023428,0.434572 -1.285715,0.535715 -0.116232,-0.01032 -0.20537,0.01032 -0.321257,0 -0.04457,-0.138857 -0.106968,-0.461007 -0.106968,-1.071429 0,-2.385531 -0.940251,-4.841143 -2.357108,-6.214286 -0.380332,-0.36864 -1.445245,-1.149772 -2.357177,-1.714282 -0.911897,-0.56448 -1.830686,-1.22023 -2.035715,-1.500001 -0.339771,-0.464263 -0.368022,-0.749486 -0.106968,-1.607143 0.47575,-1.566412 1.041978,-2.438846 2.142824,-3.428572 0.577131,-0.51888 1.157863,-0.954 1.285714,-0.964285 0.127886,-0.01032 -0.737658,-0.270171 -2.035714,-0.535715 -1.297989,-0.266056 -3.196697,-0.823268 -4.1784,-1.178571 -1.795132,-0.649543 -4.218857,-2.01312 -5.142857,-3 -0.0391,-0.04183 -0.07303,-0.06995 -0.10698,-0.106968 1.323875,-5.273485 5.038971,-9.595542 9.964115,-11.6784 1.030526,-0.435877 2.092869,-0.734917 3.214286,-0.964289 0.558583,-0.114168 1.137532,-0.155657 1.714285,-0.214285 z m 16.071428,8.035885 c 0.402685,0.248915 1.92312,3.538287 2.357142,5.142858 0.560367,2.071509 0.519807,5.656457 0,7.714285 -0.197828,0.783224 -0.45137,1.515944 -0.535713,1.607144 -0.08435,0.0912 -0.390207,-0.433818 -0.75,-1.071429 -0.359829,-0.637509 -1.50912,-1.992171 -2.464287,-3 -2.75705,-2.909246 -3.190593,-4.428343 -2.035713,-6.750171 0.582411,-1.170824 3.116913,-3.8352 3.428571,-3.642858 z"
     id="path5" />
</svg>
