<?xml version="1.0" encoding="UTF-8" standalone="no"?>
<svg
   width="64"
   height="64"
   version="1.1"
   id="svg18"
   sodipodi:docname="user-trash-full.svg"
   inkscape:version="1.4.2 (ebf0e940d0, 2025-05-08)"
   xmlns:inkscape="http://www.inkscape.org/namespaces/inkscape"
   xmlns:sodipodi="http://sodipodi.sourceforge.net/DTD/sodipodi-0.dtd"
   xmlns="http://www.w3.org/2000/svg"
   xmlns:svg="http://www.w3.org/2000/svg"
   xmlns:rdf="http://www.w3.org/1999/02/22-rdf-syntax-ns#"
   xmlns:cc="http://creativecommons.org/ns#"
   xmlns:dc="http://purl.org/dc/elements/1.1/">
  <metadata
     id="metadata22">
    <rdf:RDF>
      <cc:Work
         rdf:about="">
        <dc:format>image/svg+xml</dc:format>
        <dc:type
           rdf:resource="http://purl.org/dc/dcmitype/StillImage" />
      </cc:Work>
    </rdf:RDF>
  </metadata>
  <sodipodi:namedview
     pagecolor="#9c4444"
     bordercolor="#666666"
     borderopacity="1"
     objecttolerance="10"
     gridtolerance="10"
     guidetolerance="10"
     inkscape:pageopacity="0"
     inkscape:pageshadow="2"
     inkscape:window-width="2560"
     inkscape:window-height="1376"
     id="namedview20"
     showgrid="false"
     inkscape:zoom="25.78125"
     inkscape:cx="7.4472727"
     inkscape:cy="7.990303"
     inkscape:window-x="0"
     inkscape:window-y="0"
     inkscape:window-maximized="1"
     inkscape:current-layer="svg18"
     inkscape:document-rotation="0"
     inkscape:showpageshadow="2"
     inkscape:pagecheckerboard="0"
     inkscape:deskcolor="#ffffff" />
  <defs
     id="defs14">
    <style
       id="current-color-scheme"
       type="text/css">.ColorScheme-Text {color:#d8dee9} .ColorScheme-Highlight {color:#3b4252}</style>
  </defs>
  <path
     style="fill:currentColor;stroke:none;stroke-width:3.42857;stroke-dasharray:none;stroke-opacity:0.3"
     class="ColorScheme-Text"
     d="m 26.857143,8 c -3.428571,0 -3.428571,3.428572 -3.428571,3.428572 H 13.142857 c 0,0 -3.4285718,0 -3.4285718,3.428571 v 3.428572 H 54.285715 v -3.428572 c 0,-3.428571 -3.428572,-3.428571 -3.428572,-3.428571 H 40.571428 c 0,0 0,-3.428572 -3.428571,-3.428572 z M 13.142857,21.714286 c 0,0 -3.4285718,8.571429 -3.4285718,17.142857 C 9.7142852,47.428572 14.788572,56 16.571428,56 h 30.857144 c 1.782856,0 6.857143,-8.571428 6.857143,-17.142857 0,-8.571428 -3.428572,-17.142857 -3.428572,-17.142857 z"
     id="path16" />
</svg>
