<?xml version="1.0" encoding="UTF-8" standalone="no"?>
<svg
   viewBox="0 0 64 64"
   version="1.1"
   id="svg1"
   sodipodi:docname="configure.svg"
   width="64"
   height="64"
   inkscape:version="1.4.2 (ebf0e940d0, 2025-05-08)"
   xmlns:inkscape="http://www.inkscape.org/namespaces/inkscape"
   xmlns:sodipodi="http://sodipodi.sourceforge.net/DTD/sodipodi-0.dtd"
   xmlns="http://www.w3.org/2000/svg"
   xmlns:svg="http://www.w3.org/2000/svg">
  <sodipodi:namedview
     id="namedview1"
     pagecolor="#9c4444"
     bordercolor="#eeeeee"
     borderopacity="1"
     inkscape:showpageshadow="0"
     inkscape:pageopacity="0"
     inkscape:pagecheckerboard="0"
     inkscape:deskcolor="#505050"
     inkscape:zoom="13.12567"
     inkscape:cx="23.960682"
     inkscape:cy="32.988792"
     inkscape:window-width="2560"
     inkscape:window-height="1392"
     inkscape:window-x="0"
     inkscape:window-y="0"
     inkscape:window-maximized="1"
     inkscape:current-layer="svg1" />
  <defs
     id="defs3051">
    <style
       type="text/css"
       id="current-color-scheme">.ColorScheme-Text { color: #d8dee9; } </style>
  </defs>
  <path
     style="fill:currentColor;fill-opacity:1;stroke:none;stroke-width:4.36363"
     d="m 40.727272,8 c -4.066824,0 -7.48598,2.780948 -8.454544,6.545455 H 5.8181816 v 4.363636 H 32.272728 c 0.968564,3.764505 4.38772,6.545455 8.454544,6.545455 4.066827,0 7.48598,-2.78095 8.454546,-6.545455 h 9 v -4.363636 h -9 C 48.213252,10.780948 44.794099,8 40.727272,8 Z M 18.909091,38.545454 c -4.066827,0 -7.485982,2.780951 -8.454546,6.545455 H 5.8181816 v 4.363637 H 10.454545 C 11.423109,53.21905 14.842264,56 18.909091,56 c 4.066825,0 7.485981,-2.78095 8.454545,-6.545454 h 0.272727 8.727273 21.818182 V 45.090909 H 36.363636 27.636363 27.363636 c -0.968564,-3.764504 -4.38772,-6.545455 -8.454545,-6.545455 z m 0,4.363637 c 2.409949,0 4.363637,1.953687 4.363637,4.363637 0,2.409949 -1.953688,4.363635 -4.363637,4.363635 -2.409949,0 -4.363637,-1.953686 -4.363637,-4.363635 0,-2.40995 1.953688,-4.363637 4.363637,-4.363637 z"
     class="ColorScheme-Text"
     id="path1" />
</svg>
