<?xml version="1.0" encoding="UTF-8" standalone="no"?>
<svg
   viewBox="0 0 64 64"
   version="1.1"
   id="svg1"
   sodipodi:docname="question.svg"
   width="64"
   height="64"
   inkscape:version="1.4.2 (ebf0e940d0, 2025-05-08)"
   xmlns:inkscape="http://www.inkscape.org/namespaces/inkscape"
   xmlns:sodipodi="http://sodipodi.sourceforge.net/DTD/sodipodi-0.dtd"
   xmlns="http://www.w3.org/2000/svg"
   xmlns:svg="http://www.w3.org/2000/svg">
  <defs
     id="defs1" />
  <sodipodi:namedview
     id="namedview1"
     pagecolor="#9c4444"
     bordercolor="#eeeeee"
     borderopacity="1"
     inkscape:showpageshadow="0"
     inkscape:pageopacity="0"
     inkscape:pagecheckerboard="0"
     inkscape:deskcolor="#505050"
     inkscape:zoom="6.562835"
     inkscape:cx="61.254016"
     inkscape:cy="34.436337"
     inkscape:window-width="2560"
     inkscape:window-height="1392"
     inkscape:window-x="0"
     inkscape:window-y="0"
     inkscape:window-maximized="1"
     inkscape:current-layer="svg1" />
  <style
     type="text/css"
     id="current-color-scheme">.ColorScheme-Text { color: #d8dee9; } </style>
  <path
     style="fill:currentColor;fill-opacity:1;stroke:none;stroke-width:3"
     d="M 31.906256,8 C 26.65346,8 21.685604,9.264806 17,11.791016 l 2.332032,5.361328 c 2.34276,-1.15056 4.448112,-1.972437 6.322272,-2.472657 1.898916,-0.50019 3.83376,-0.75 5.80662,-0.75 2.95932,0 5.23026,0.660749 6.808596,1.986329 1.5783,1.32561 2.367204,3.225001 2.367204,5.701171 0,1.32561 -0.1704,2.491689 -0.51564,3.492187 -0.34524,1.00044 -0.936924,1.99953 -1.7754,3 -0.83844,1.00047 -2.603004,2.650054 -5.291004,4.951174 C 29.75444,36.070538 26.30138,41.417 26,47 h 6 l -0.018,-0.09376 c 0,-2.27604 0.394404,-4.102836 1.183596,-5.478516 0.81384,-1.40067 2.439384,-3.165006 4.880844,-5.291016 2.984004,-2.52621 4.972584,-4.42554 5.958996,-5.70117 1.01112,-1.2756 1.762668,-2.623139 2.255868,-4.04883 C 46.755224,24.961028 47,23.321583 47,21.470703 47,17.218683 45.656804,13.91357 42.968756,11.5625 40.28072,9.18638 36.591836,8 31.906256,8 Z M 26,50 v 6 h 6 v -6 z"
     class="ColorScheme-Text"
     id="path1-5" />
</svg>
